<?xml version="1.0" encoding="UTF-8"?>
<!-- Generated by Pixelmator Pro 2.4.7 -->
<svg width="1024" height="1024" viewBox="0 0 1024 1024" xmlns="http://www.w3.org/2000/svg" xmlns:xlink="http://www.w3.org/1999/xlink">
    <path id="Percorso" fill="#dad1ca" stroke="none" d="M 449.070007 898.039978 C 476.045013 894.820984 503.488007 894.01001 530.622986 893.359009 C 555.27002 892.767029 580.205994 892.114014 604.768982 894.593018 C 600.398987 908.84198 594.973999 922.786011 590.359985 936.966003 C 627.984985 955.184021 722.333984 952.343018 765.765015 948.89801 C 758.359009 943.432007 751.051025 937.825012 743.419983 932.674988 C 726.926025 921.54303 709.789001 911.221985 695.442993 897.255981 C 718.458008 901.27301 838.122009 915.916992 849.515015 933.468018 C 850.192993 934.512024 850.643005 935.557007 850.250977 936.812988 C 848.651001 941.942017 837.573975 945.64502 832.95697 947.455994 C 798.309998 961.041016 754.820007 968.499023 717.971008 974.702026 C 701.891012 977.453328 685.771016 979.945658 669.611023 982.179016 C 653.450989 984.412333 637.259318 986.385335 621.036011 988.098022 C 604.812663 989.810018 588.565653 991.261353 572.294983 992.452026 C 556.025004 993.642008 539.740011 994.570333 523.440002 995.237 C 507.139994 995.903666 490.833659 996.308004 474.520996 996.450012 C 458.207662 996.592672 441.896332 996.473002 425.587006 996.091003 C 409.27833 995.708354 392.979665 995.064026 376.69101 994.15802 C 360.402334 993.252014 344.13266 992.084351 327.881989 990.655029 C 298.765015 987.927002 269.946991 984.718018 241.141006 979.580994 C 216.449005 975.177002 190.139008 971.275024 167.013 961.153992 C 163.326004 959.539978 157.673996 957.094971 156.175995 953.075989 C 155.636002 951.630005 155.912994 950.223999 156.651001 948.922974 C 162.220001 939.091003 200.783997 929.744019 212.410995 927.007019 C 236.998993 921.219971 262.011993 915.978027 286.911011 911.752014 C 292.144989 910.864014 326.446991 906.000977 328.390991 904.437012 L 329.042999 903.695984 L 329.389008 904.616028 C 333.552002 905.736023 348.595001 902.30603 353.459991 901.241028 C 346.976013 919.903015 339.161987 938.028992 333.199005 956.882019 C 361.324005 968.390991 440.354004 972.085022 473.113007 972.492004 C 486.128326 972.677348 499.134318 972.411336 512.130981 971.69397 C 494.257996 955.151001 473.674011 946.268982 455.858002 927.263 C 451.247009 922.343994 447.131012 917.450012 444.141998 911.375977 C 446.343994 907.005005 447.863007 902.783997 449.070007 898.039978 Z"/>
    <path id="path1" fill="#5c3f4a" stroke="none" d="M 550.090027 39.385193 C 581.578003 43.192383 624.559998 67.155823 650.932007 84.825073 C 659.521973 90.580383 667.625 97.028931 676.098999 102.952026 C 673.518005 97.13269 665.607971 81.692871 666.924988 76.163086 L 667.822998 75.820313 C 685.460022 80.341797 733.916992 134.535034 746.502014 149.833008 C 756.838013 162.398987 765.887024 177.968018 779.080994 187.651978 C 787.51001 182.250977 795.804016 178.296997 805.757019 176.679993 C 806.827657 176.507345 807.901978 176.361003 808.97998 176.240967 C 810.057983 176.121012 811.13798 176.027364 812.219971 175.960022 C 813.302653 175.893331 814.385986 175.852987 815.469971 175.838989 C 816.554647 175.824992 817.638997 175.837667 818.723022 175.877014 C 819.806356 175.916361 820.888346 175.982361 821.968994 176.075012 C 823.049683 176.167664 824.12736 176.286336 825.202026 176.43103 C 826.276693 176.576335 827.347351 176.747986 828.414001 176.945984 C 829.480001 177.143982 830.54067 177.367655 831.596008 177.617004 C 832.651347 177.867004 833.700012 178.14266 834.742004 178.44397 C 835.783346 178.745321 836.817017 179.072001 837.843018 179.424011 C 838.869019 179.776021 839.885681 180.153015 840.893005 180.554993 C 841.90033 180.956319 842.896993 181.38265 843.882996 181.833984 C 844.869649 182.284668 845.844645 182.759338 846.807983 183.257996 C 847.770671 183.756002 848.720683 184.277669 849.65802 184.822998 C 850.596008 185.368327 851.519674 185.93632 852.429016 186.526978 C 853.33901 187.116984 854.233663 187.729329 855.112976 188.364014 C 870.291016 199.536011 879.934021 216.664001 882.739014 235.223022 C 886.530029 260.309998 880.195984 280.656006 865.476013 300.712036 C 874.324687 301.716024 883.199015 302.375 892.098999 302.688965 C 889.604004 296.422974 888.52002 290.644043 890.642029 284.02301 C 893.775024 274.245972 903.301025 267.092041 912.177979 262.77002 C 921.549988 258.208008 933.890015 255.291992 944.005981 259.072998 C 949.508972 261.130005 954.228027 265.221985 956.596985 270.64502 C 959.083008 276.333008 959.080994 283.424988 956.640991 289.125 C 951.947021 300.088989 941.06897 305.109009 930.663025 309.243042 C 911.859009 349.052979 878.067017 378.983032 843.599976 405.208008 C 824.73466 419.592692 805.130676 432.888021 784.788025 445.093994 C 775.448975 450.660034 765.893005 456.087036 756.299988 461.19397 C 749.857971 464.622986 743.315979 467.778015 737.057007 471.545044 C 740.896973 473.033997 745.749023 474.355957 749.150024 476.653015 C 750.549011 477.598022 750.85498 478.344971 751.146973 479.966003 C 749.960999 484.495972 744.263 489.13501 741.093018 492.504028 C 744.355021 504.636027 748.051025 516.634013 752.18103 528.497986 C 755.112 536.672974 758.705017 544.596008 761.494019 552.822021 C 773.83667 554.772013 785.979004 557.585999 797.921021 561.263977 C 814.992981 544.122986 839.747986 533.747986 862.859009 527.414001 C 865.536987 526.679993 869.260986 525.413025 871.825012 526.888 C 873.442993 529.893005 871.448975 536.554016 870.856995 539.960022 C 890.067017 532.494019 885.46698 535.867004 902.552979 540.950989 L 903.278992 541.164001 C 896.776978 551.392029 891.065002 562.322021 884.856018 572.755981 C 877.27301 585.502014 869.14801 597.883972 862.005981 610.893005 C 866.528992 618.594971 866.302979 627.640991 864.862976 636.195007 C 861.801025 654.388 850.65802 674.408997 835.413025 685.14502 C 830.820984 688.379028 823.502014 691.921021 817.825012 690.843994 C 813.565979 690.036011 814.02002 692.544983 812.719971 696.046997 C 806.887024 711.763 793.450989 724.471008 778.919006 732.182983 C 779.950012 736.945984 780.265015 742.000977 780.94397 746.844971 C 783.143005 762.551025 785.440979 781.742981 791.874023 796.208008 C 768.299011 824.015991 730.719971 843.752014 697.320007 857.002014 C 695.424011 862.680684 693.752686 868.424683 692.30603 874.234009 C 690.939026 879.849976 690.163025 886.916992 687.625 892.051025 C 690.192993 893.862 692.770996 895.603027 695.442993 897.255981 C 709.789001 911.221985 726.926025 921.54303 743.419983 932.674988 C 751.051025 937.825012 758.359009 943.432007 765.765015 948.89801 C 722.333984 952.343018 627.984985 955.184021 590.359985 936.966003 C 594.973999 922.786011 600.398987 908.84198 604.768982 894.593018 C 580.205994 892.114014 555.27002 892.767029 530.622986 893.359009 C 503.488007 894.01001 476.045013 894.820984 449.070007 898.039978 C 447.863007 902.783997 446.343994 907.005005 444.141998 911.375977 C 447.131012 917.450012 451.247009 922.343994 455.858002 927.263 C 473.674011 946.268982 494.257996 955.151001 512.130981 971.69397 C 499.134318 972.411336 486.128326 972.677348 473.113007 972.492004 C 440.354004 972.085022 361.324005 968.390991 333.199005 956.882019 C 339.161987 938.028992 346.976013 919.903015 353.459991 901.241028 C 348.595001 902.30603 333.552002 905.736023 329.389008 904.616028 L 329.042999 903.695984 L 328.390991 904.437012 C 325.069 900 320.359985 896.158997 316.438995 892.215027 C 309.199005 884.932983 303.195007 877.479004 297.681 868.828979 C 296.368011 879.828003 295.221008 890.708008 294.391998 901.757019 C 276.362 888.960999 262.734009 863.250977 253.936005 843.16803 C 250.436005 858.271973 246.565994 873.377014 243.382996 888.539001 C 226.574005 865.843018 218.281006 838.530029 210.507996 811.719971 C 204.009995 825.916016 198.352997 843.992004 194.376999 859.120972 C 191.666 853.534973 189.638 847.505005 187.578003 841.653015 C 178.548996 816.013977 174.682999 790.752991 174.009995 763.661011 C 162.143005 784.442017 152.647003 806.109009 144.865005 828.752991 C 132.235001 789.140015 131.195007 750.817993 136.313004 709.838989 C 121.926003 726.664001 111.541 746.721008 99.485397 765.171997 C 93.561501 733.116028 95.870903 693.377014 102.158997 661.40802 C 104.669998 648.646973 108.193001 636.195984 111.487999 623.627991 C 96.4272 636.208984 82.4422 649.315002 68.4888 663.083008 C 67.4925 619.815979 79.314301 574.744019 98.835701 536.343994 C 81.563904 546.734009 57.900101 561.525024 43.2244 574.747986 C 46.627998 563.075012 49.437698 551.366028 53.157398 539.760986 C 63.641201 507.049988 78.688103 474.040039 98.673897 445.997009 C 77.8619 456.266968 58.266201 468.771973 37.493301 478.994019 C 48.6745 449.492004 71.589699 412.889038 91.599998 388.276978 C 98.252098 380.096008 105.801003 372.478027 112.913002 364.684998 C 97.9067 368.955994 82.289703 374.820007 68.282097 381.729004 C 62.9533 384.356995 57.846699 387.436035 52.5742 390.178955 C 66.135696 361.653992 107.757004 316.401978 131.867004 295.471008 C 139.895004 288.500977 148.701004 282.677002 156.912994 275.992004 C 146.067993 277.669006 135.231003 280.686035 124.547997 283.216003 C 105.210999 287.796021 86.023499 292.497986 66.946701 298.084961 C 76.5924 286.467041 88.3974 276.452026 100.084 266.964966 C 109.597331 259.182332 119.348663 251.710002 129.337997 244.547974 C 139.327337 237.386678 149.534337 230.550008 159.959 224.037964 C 173.386002 215.737 187.330002 208.296021 201.005997 200.426025 C 193.212997 201.02002 185.371994 201.073975 177.567001 201.539978 C 150.792999 203.136963 123.168999 205.330017 97.028801 211.589966 C 101.940002 206.64801 108.431 202.627991 114.122002 198.599976 C 149.675003 173.440979 205.970001 146.929016 248.395996 136.937012 C 254.945999 135.39502 261.536011 134.499023 268.199005 133.632019 C 244.529999 127.611023 220.289993 126.955017 195.992004 126.414001 C 235.548996 106.825989 285.324005 95.709473 329.257996 92.650696 C 341.665009 91.786804 353.980011 91.865967 366.408997 91.96051 C 359.963013 89.51709 353.721008 86.471191 347.294006 83.94873 C 342.644012 82.123779 313.740997 72.749817 311.872009 69.728821 C 312.221985 69.373779 312.263 69.293579 312.761993 69.007202 C 317.516998 66.272888 326.178986 65.772827 331.593994 65.013489 C 336.874674 64.304301 342.169006 63.723002 347.47699 63.269592 C 352.785665 62.816264 358.102 62.491374 363.425995 62.294922 C 368.750661 62.098429 374.07666 62.030619 379.403992 62.091492 C 384.731323 62.152364 390.054321 62.341858 395.372986 62.659973 C 400.690999 62.978048 405.998342 63.424398 411.295013 63.999023 C 416.591665 64.573608 421.871663 65.275736 427.13501 66.105408 C 432.397664 66.93512 437.637329 67.891459 442.854004 68.974426 C 448.070658 70.057271 453.257985 71.265503 458.415985 72.599121 C 447.881989 61.104797 432.687012 53.514282 422.054993 42.401978 C 435.332001 40.438904 449.109009 41.689026 462.339996 43.500793 C 502.10199 48.945679 540.02002 61.677307 576.460999 78.220581 C 567.182983 65.614807 558.120972 52.829773 550.090027 39.385193 Z"/>
    <path id="path2" fill="#fefefc" stroke="none" d="M 680.237 522.271973 C 682.875977 524.291016 684.021973 528.161011 686.590027 530.320984 C 687.742004 531.291016 688.763 530.921021 690.177979 530.848999 C 690.81897 535.013 688.817993 550.072021 688.432007 555.007019 C 687.484985 555.882019 686.419983 555.929993 685.187988 556.234009 C 683.711975 556.562988 682.021973 557.26001 680.611023 556.708008 C 679.499023 550.411987 677.551025 544.288025 675.778992 538.153015 C 677.299988 536.669006 679.182983 535.046021 680.302979 533.244995 C 682.320984 530 680.950012 525.728027 680.237 522.271973 Z"/>
    <path id="path3" fill="#dad1ca" stroke="none" d="M 741.620972 252.705017 C 745.913025 252.31897 750.215027 252.379028 754.52002 252.380005 L 755.094971 259.577026 C 741.002991 259.276978 729.958008 261.346985 716.974976 267.020996 C 714.471008 268.204956 711.997986 269.474976 709.515015 270.703979 C 708.734009 267.888 707.58197 265.150024 706.557007 262.414001 C 717.393005 256.838989 729.565002 253.914001 741.620972 252.705017 Z"/>
    <path id="path4" fill="#fefefc" stroke="none" d="M 334.863007 879.129028 C 341.614014 884.763 347.535004 892.231018 355.244995 896.541992 L 353.459991 901.241028 C 348.595001 902.30603 333.552002 905.736023 329.389008 904.616028 L 329.042999 903.695984 C 330.89801 895.43103 332.328003 887.242004 334.863007 879.129028 Z"/>
    <path id="path5" fill="#fefefc" stroke="none" d="M 696.637024 488.162964 L 696.940979 488.153992 C 697.421997 491.552979 690.065002 518.461975 688.580017 522.916992 C 686.557007 519.036987 683.856018 515.531982 681.314026 511.980957 L 670.356018 494.30603 C 679.140991 492.344971 687.809021 489.969971 696.637024 488.162964 Z"/>
    <path id="path6" fill="#fefefc" stroke="none" d="M 926.932007 266.197021 C 930.73999 265.993042 935.992004 266.299988 939.309998 268.369995 C 940.594971 269.171997 941.603027 270.351013 941.739014 271.921997 C 941.914001 273.940002 940.812988 275.870972 939.494995 277.309998 C 934.439026 282.832031 925.213989 284.365967 918.10498 284.682007 C 914.346985 284.601013 910.898987 284.162964 907.361023 282.815002 C 905.643005 282.160034 904.481018 281.484009 903.705017 279.734009 C 903.588013 278.053955 904.028015 276.926025 905.049988 275.627991 C 909.729004 269.684998 919.723022 266.989014 926.932007 266.197021 Z"/>
    <path id="path7" fill="#dad1ca" stroke="none" d="M 519 285.042969 C 519.892029 286.244019 518.54303 291.700012 518.286011 293.531982 C 504.674011 298.484985 490.869995 302.967041 477.470001 308.488037 C 466.859985 312.858032 456.459991 318.065002 446.178009 323.146973 L 445.703003 322.587036 C 446.907013 318.717041 449.579987 314.940002 451.864014 311.609985 C 472.722992 301.884033 497.333008 292.563965 519 285.042969 Z"/>
    <path id="path8" fill="#b9a19e" stroke="none" d="M 649.346985 704.08197 L 650.142029 704.122009 C 650.721985 705.937012 640.765015 747.630005 639.552979 753.005005 C 637.348022 751.624023 635.262024 750.007996 633.151001 748.486023 C 630.905029 746.721985 628.78302 744.804016 626.63501 742.924011 C 629.414001 731.08197 631.702026 719.116028 634.327026 707.236023 C 639.409973 706.484009 644.357971 705.284973 649.346985 704.08197 Z"/>
    <path id="path9" fill="#fefefc" stroke="none" d="M 733.945984 498.880981 C 735.489014 500.622986 741.333008 524.997986 742.677979 529.596008 C 744.877991 537.117004 747.721008 544.461975 750.439026 551.809021 C 741.752014 551.140015 732.97998 550.994019 724.27002 550.84198 L 716.179993 551.054993 C 719.491028 544.617004 723.291016 538.226013 727.025024 532.02002 C 729.848999 527.325012 733.97998 522.091003 735.390991 516.778015 C 733.710999 512.93103 728.107971 510.734985 724.567993 508.775024 L 733.945984 498.880981 Z"/>
    <path id="path10" fill="#b9a19e" stroke="none" d="M 658.640015 578.521973 C 664.265991 583.30603 669.994019 587.494019 676.323975 591.288025 C 672.893311 605.251322 669.739644 619.276978 666.862976 633.36499 C 660.890991 630.687988 655.039001 627.653015 649.161987 624.77002 C 650.642029 617.049988 652.859009 609.434998 654.549011 601.752991 C 656.237976 594.073975 657.416016 586.283997 658.640015 578.521973 Z"/>
    <path id="path11" fill="#e7b99a" stroke="none" d="M 664.52002 495.703003 L 664.882996 495.770996 C 668.119995 499.125 674.551025 522.244019 676.409973 528.291016 C 672.5 531.310974 669.099976 535.88501 664.814026 538.265015 C 663.603027 538.937988 663.150024 538.58197 661.86499 538.254028 C 657.26001 536.414001 652.872009 533.744019 648.505981 531.39502 C 647.676025 520.44397 648.611023 509.228027 649.052002 498.264038 C 654.218018 497.653992 659.388977 496.578979 664.52002 495.703003 Z"/>
    <path id="path12" fill="#e7b99a" stroke="none" d="M 671.155029 541.374023 L 671.63501 541.507019 C 673.728027 545.234985 674.809021 554.411987 675.789001 558.937988 C 668.713013 561.333984 661.984985 564.986023 655.521973 568.690979 C 648.093018 584.083008 648.005005 604.614014 641.942017 620.525024 C 640.773987 620.968018 638.870972 620.291992 637.609985 620.034973 L 636.434021 619.562988 C 634.958984 615.655029 634.872986 610.935974 635.312012 606.836975 C 636.997986 591.107971 649.179016 557.362 655.908997 542.46698 C 658.986023 543.744995 662.094971 544.771973 665.270996 545.770996 C 667.338989 544.515015 669.241028 542.856018 671.155029 541.374023 Z"/>
    <path id="path13" fill="#fefefc" stroke="none" d="M 866.974976 532.562988 C 867.844971 533.73999 866.546021 539.521973 866.364014 541.367004 C 849.307007 548.468018 832.763 556.213989 816.995972 565.877014 C 831.416016 563.15802 879.447998 537.012024 889.11499 539.427002 C 890.307983 539.724976 891.021973 540.336975 891.653015 541.375 L 891.34198 542.380005 C 888.663025 544.658997 884.177002 545.635986 880.880005 546.783997 C 861.309021 554.174988 841.112 562.21698 823.526978 573.731995 C 818.086975 568.494019 812.737 566.132019 805.833008 563.481018 C 819.263 549.026001 848.143005 538.622009 866.974976 532.562988 Z"/>
    <path id="path14" fill="#fefefc" stroke="none" d="M 642.255981 515.840027 C 643.338013 519.468018 642.465027 529.728027 642.515015 534.151978 C 644.369019 536.492981 646.200012 538.29303 648.482971 540.197021 C 644.426025 549.237976 640.403992 558.258972 637.164978 567.632996 C 634.268982 576.010986 632.067993 584.58197 629.5 593.059998 C 628.268005 586.29303 626.015991 580.232971 623.539001 573.851013 C 622.092997 570.094991 620.521993 566.391988 618.825989 562.742004 C 617.129985 559.092021 615.312988 555.503357 613.375 551.976013 C 611.437663 548.448018 609.383321 544.989685 607.211975 541.601013 C 605.041321 538.21169 602.758993 534.899353 600.36499 531.664001 C 607.565002 533.880005 619.513977 536.856018 626.905029 534.698975 C 634.734985 532.414001 638.750977 522.500977 642.255981 515.840027 Z"/>
    <path id="path15" fill="#fefefc" stroke="none" d="M 568.929993 497.374023 C 579.208984 498.106995 589.416992 500.035034 599.718018 500.768005 C 614.25 501.799988 628.614014 500.437988 643.065979 499.026001 C 640.502665 506.026001 637.638997 512.900675 634.474976 519.650024 C 633.034973 522.479004 631.604004 526.088013 628.961975 527.991028 C 623.898987 531.637024 602.242004 526.432983 595.804993 525.109009 C 586.672974 515.817993 578.895996 505.926025 568.929993 497.374023 Z"/>
    <path id="path16" fill="#dad1ca" stroke="none" d="M 809.830017 182.684998 C 811.234985 182.434021 812.859985 182.473999 814.29303 182.440979 C 815.274353 182.408997 816.255676 182.401672 817.237 182.419006 C 818.219014 182.43634 819.199687 182.478007 820.179016 182.544006 C 821.158997 182.610006 822.136332 182.700338 823.111023 182.815002 C 824.086324 182.929667 825.057983 183.068665 826.026001 183.231995 C 826.99467 183.394674 827.958333 183.581665 828.916992 183.792969 C 829.875651 184.003662 830.828654 184.238342 831.776001 184.497009 C 832.723348 184.755676 833.66335 185.037679 834.596008 185.343018 C 835.529317 185.648356 836.454305 185.976685 837.370972 186.328003 C 838.287638 186.680013 839.194987 187.054342 840.093018 187.450989 C 840.991007 187.847677 841.878662 188.266357 842.755981 188.707031 C 843.633341 189.147664 844.499349 189.609985 845.354004 190.093994 C 846.208008 190.578003 847.049337 191.083008 847.877991 191.609009 C 848.707336 192.13501 849.52301 192.681335 850.325012 193.247986 C 851.127014 193.814677 851.914347 194.400675 852.687012 195.005981 C 853.458984 195.611979 854.215983 196.236654 854.958008 196.880005 C 855.699341 197.524007 856.424337 198.185669 857.132996 198.86499 C 870.440979 211.81897 877.322021 229.510986 877.390991 247.955994 C 877.455017 265.072021 872.908997 285.47699 860.146973 297.811035 C 858.950989 298.968018 858.159973 299.526001 856.487 299.47998 L 855.651001 298.368042 C 856.362976 295.531006 860.335999 292.229004 862.153992 289.838013 C 863.984985 287.428955 865.156982 284.39502 866.393982 281.641968 C 872.349976 268.384033 874.200012 254.565002 872.432007 240.117004 C 870.39801 223.492004 862.484009 208.124023 849.124023 197.796997 C 838.195984 189.351013 823.583984 185.103027 809.859009 187.018982 C 795.65802 189.002014 785.080994 196.488037 776.642029 207.761963 C 773.627991 212.302002 771.247009 217.010986 769.518005 222.188965 C 764.473022 237.291016 764.419983 256.395996 771.742981 270.786011 C 783.716003 294.312988 811.898987 302.190002 836.492981 302.14801 C 839.447021 302.143005 849.890015 300.670044 851.15802 301.075012 L 851.487976 301.815002 C 850.655029 302.369995 849.947998 302.56897 848.973022 302.718018 C 836.075989 304.696045 810.948975 302.770996 798.507019 298.880005 C 797.087016 298.437337 795.688009 297.936666 794.309998 297.377991 C 792.931335 296.819356 791.578003 296.204692 790.25 295.533997 C 788.922648 294.863342 787.625305 294.138997 786.357971 293.360962 C 785.089986 292.582967 783.856669 291.753988 782.65802 290.874023 C 770.728027 282.120972 763.245972 268.750977 761.098999 254.213013 C 758.518005 236.733032 761.78302 217.155029 772.601013 202.843994 C 781.544006 191.011963 795.406006 184.653992 809.830017 182.684998 Z"/>
    <path id="path17" fill="#fefefc" stroke="none" d="M 605.26001 615.276978 C 611.728027 616.705994 618.53302 618.539001 624.817993 620.622986 C 609.606995 639.309998 600.872986 670.711975 597.231018 694.338989 C 590.133972 692.77301 583.161987 691.010986 576.280029 688.64502 C 577.732971 670.161987 584.794983 649.755005 593.767029 633.710999 C 597.29303 627.406006 601.552979 621.487976 605.26001 615.276978 Z"/>
    <path id="path18" fill="#fefefc" stroke="none" d="M 853.109985 615 C 854.174988 614.89801 854.646973 614.903015 855.598999 615.40802 C 857.30603 618.362 857.148987 625.947998 857.008972 629.507996 C 856.35498 646.054016 846.682983 664.505981 834.481018 675.47998 C 829.64502 679.828003 822.96698 684.125 816.208984 683.533997 C 814.010986 683.34198 812.036011 682.5 810.640015 680.75 C 807.549988 676.875977 808.054993 671.921021 808.689026 667.370972 C 815.419006 670.140015 820.088013 671.27301 827.276001 669.478027 C 825.221008 666.054993 817.638977 665.763 813.978027 664.325012 C 812.442993 663.721985 811.789001 663.112 811.182007 661.604004 C 812.518005 655.060974 817.28302 647.093018 820.981018 641.515991 C 825.153992 643.823975 833.75 651.862 837.812012 652.062012 L 838.473022 651.40802 C 838.46698 650.79303 838.469971 650.213013 838.309998 649.612976 C 836.577026 643.106018 829.68103 639.921997 824.463013 636.596985 C 832.448975 626.146973 840.541992 619.159973 853.109985 615 Z"/>
    <path id="path19" fill="#fefefc" stroke="none" d="M 729.249023 474.005981 C 733.116333 476.193319 736.997986 478.35498 740.893982 480.490967 C 733.971985 490.612 724 498.273987 717.161987 508.537964 C 720.112 512.278015 723.825989 514.901978 727.638 517.689026 C 722.190653 527.423686 716.269979 536.861348 709.875977 546.002014 C 708.52002 547.919006 707.481995 549.776978 706.518982 551.916992 C 702.804993 552.442993 699.14502 553.174988 695.469971 553.916016 C 695.414001 542.176025 697.008972 530.283997 698.239014 518.622986 C 699.290324 508.126322 700.124654 497.612671 700.742004 487.082031 C 710.419983 483.019043 719.91803 478.821045 729.249023 474.005981 Z"/>
    <path id="path20" fill="#fefefc" stroke="none" d="M 687.177979 571.674011 C 682.093994 571.86499 664.455017 576.68103 661.119019 574.044006 C 660.939026 573.901978 660.786987 573.72699 660.620972 573.56897 C 660.719971 572.47699 660.495972 572.880005 661.36499 572.120972 C 665.004028 568.937988 671.138977 566.997009 675.672974 565.598022 C 700.89801 557.810974 729.661987 557.112976 755.807007 559.843018 C 776.83197 562.036987 799.268982 567.109985 818.164978 576.627014 C 805.629659 575.761658 793.079671 575.344991 780.515015 575.377014 C 767.949666 575.408997 755.401652 575.889323 742.870972 576.817993 C 719.997986 578.421997 697.299988 581.414978 674.521973 583.898987 C 671.679993 582.072021 669.002991 580.156982 666.348999 578.067017 C 669.645996 577.452026 678.241028 576.567993 680.810974 575.169006 L 680.057983 574.684998 C 682.242981 573.776978 685.390015 573.861023 687.755005 573.554016 C 697.814026 572.247986 707.781006 571.179016 717.913025 570.534973 C 722.622986 570.234985 727.156006 570.463013 731.901978 569.987 C 723.276978 568.85199 714.166016 569.827026 705.513977 570.510986 C 701.346985 570.840027 691.395996 572.892029 687.948975 571.91803 C 687.690002 571.844971 687.434998 571.755981 687.177979 571.674011 Z"/>
    <path id="path21" fill="#613032" stroke="none" d="M 687.177979 571.674011 C 710.317017 567.669006 779.752991 566.531982 801.825989 572.716003 C 780.809998 574.002014 758.604004 571.203979 737.421997 571.093018 C 725.500651 571.114339 713.604655 571.671 701.734009 572.763 C 694.76001 573.450989 687.784973 574.594971 680.810974 575.169006 L 680.057983 574.684998 C 682.242981 573.776978 685.390015 573.861023 687.755005 573.554016 C 697.814026 572.247986 707.781006 571.179016 717.913025 570.534973 C 722.622986 570.234985 727.156006 570.463013 731.901978 569.987 C 723.276978 568.85199 714.166016 569.827026 705.513977 570.510986 C 701.346985 570.840027 691.395996 572.892029 687.948975 571.91803 C 687.690002 571.844971 687.434998 571.755981 687.177979 571.674011 Z"/>
    <path id="path22" fill="#fefefc" stroke="none" d="M 617.655029 853.747986 C 612.552979 866.986023 609.112 881.070007 604.768982 894.593018 C 580.205994 892.114014 555.27002 892.767029 530.622986 893.359009 C 503.488007 894.01001 476.045013 894.820984 449.070007 898.039978 C 450.116679 894.681986 451.188009 891.331665 452.283997 887.989014 C 461.311005 886.525024 469.157013 884.346985 477.56601 880.822021 C 498.757996 884.166016 545.968994 883.617004 566.15802 878.031006 C 574.208984 875.802979 576.671021 867.604004 580.609985 860.913025 C 593.263 859.682983 605.341003 856.737976 617.655029 853.747986 Z"/>
    <path id="path23" fill="#b9a19e" stroke="none" d="M 798.020996 582.468018 C 805.140991 582.463989 812.325989 582.85199 819.432007 583.299988 C 817.828003 587.140991 816 593.69397 813.064026 596.554993 L 812.651978 597.81897 C 810.453979 604.901978 806.064026 611.801025 803.200989 618.729004 C 790.447998 649.598022 775.879028 679.565002 763.640991 710.697998 C 761.521973 716.086975 757.510986 732.442993 755.060974 735.880981 C 754.026001 737.333008 752.429993 738.379028 750.874023 739.197021 C 745.377014 742.083984 738.630005 743.424988 732.59198 744.708008 C 733.536987 742.289978 739.877991 724.721985 741.130005 723.997986 C 742.023987 722.64801 742.174011 721.742004 742.314026 720.185974 C 747.265015 707.497009 753.112 695.11499 758.544983 682.624023 C 767.94397 661.015991 777.161011 639.135986 785.666016 617.164978 C 790.085022 605.747986 794.862976 594.310974 798.020996 582.468018 Z"/>
    <path id="path24" fill="#5c3f4a" stroke="none" d="M 742.314026 720.185974 C 746.062012 720.492004 754.223999 719.052979 756.927002 721.20697 C 757.114014 722.531982 757.02301 723.182007 756.224976 724.307983 C 755.562988 725.241028 754.723999 726.098999 753.955994 726.947021 C 750.278992 727.070007 744.867004 727.880981 741.986023 725.007019 C 741.375977 724.398987 741.507996 724.549011 741.130005 723.997986 C 742.023987 722.64801 742.174011 721.742004 742.314026 720.185974 Z"/>
    <path id="path25" fill="#5c3f4a" stroke="none" d="M 812.651978 597.81897 C 811.507019 599.002991 810.276001 599.853027 808.762024 600.505005 C 805.872009 601.75 799.435974 602.523987 796.617981 601.138977 C 795.304016 600.492004 794.90802 599.658997 794.413025 598.35498 C 794.546021 597.612 794.450012 597.268005 795.054993 596.734009 C 796.697998 595.284973 799.562988 595.255981 801.646973 595.242981 C 804.552979 595.224976 811.174011 594.703979 813.064026 596.554993 L 812.651978 597.81897 Z"/>
    <path id="path26" fill="#e7b99a" stroke="none" d="M 430.838013 242.710999 C 449.016998 240.322998 470.263 249.452026 486.412994 257.271973 C 475.264008 267.942993 466.028992 280.01001 456.934998 292.427979 L 452.269989 299.36499 C 440.595001 298.453003 429.971008 296.388 420.372986 289.167969 C 413.312988 283.855957 408.458008 276.372986 407.265991 267.546997 C 406.42099 261.294006 407.044006 254.13501 411.123993 249.046997 C 415.257996 243.890991 424.733002 243.299988 430.838013 242.710999 Z"/>
    <path id="path27" fill="#fefefc" stroke="none" d="M 812.921021 191.174011 C 812.971985 191.166992 813.023987 191.156982 813.075012 191.153015 C 825.981018 190.106018 837.698975 194.391968 847.677979 202.562988 C 859.849976 212.530029 867.09198 227.962036 868.487976 243.494995 C 870.041016 260.786011 866.020996 277.963989 854.817017 291.424988 L 853.27301 287.870972 C 853.043681 287.258993 852.806335 286.65035 852.560974 286.045044 C 849.343994 278.070007 845.45697 270.283997 841.75 262.525024 C 836.633972 251.812988 831.513977 240.802979 825.05603 230.820984 C 817.929016 219.80603 804.700012 203.377014 792.370972 198.169006 C 798.890991 194.723999 805.640015 192.338989 812.921021 191.174011 Z"/>
    <path id="path28" fill="#fefefc" stroke="none" d="M 786.291016 203.760986 C 789.867981 206.231995 793.286987 209.643005 796.473022 212.614014 C 815.320984 230.187988 824.474976 247.125977 835.547974 269.936035 C 839.856995 278.809998 844.270996 287.631958 848.265991 296.653015 C 838.58197 298.447998 829.109985 298.053955 819.405029 296.533997 C 816.380981 296.059998 809.16803 295.459961 807.265015 292.85199 C 808.362976 292.167969 809.401001 291.509033 810.099976 290.388 C 812.776978 286.096985 812.528992 279.833008 811.445984 275.070007 C 810.210999 269.643005 807.255005 262.332031 802.281982 259.447021 C 800.380005 258.343018 798.083984 257.98999 795.968018 258.651978 C 793.640991 259.379028 792.825012 261.315002 791.687988 263.295044 C 791.344971 264.390991 790.994019 265.510986 790.83197 266.650024 C 789.682007 274.778992 794.653015 283.662964 799.328003 289.859985 C 796.031006 288.004028 792.864014 286.036987 789.844971 283.75 C 779.541016 275.940002 773.940002 264.506958 772.213013 251.853027 C 771.315002 245.273987 771.439026 238.869995 775.776978 233.408997 C 778.151001 230.419983 781.383972 228.096985 785.283997 227.815002 C 795.210022 227.096985 799.059998 235.474976 805.718994 240.542969 C 806.705017 241.294006 807.335999 241.541992 808.549011 241.429016 L 809.190979 240.47699 C 809.447998 237.825012 808.051025 235.854004 806.440002 233.870972 C 801.997009 228.403992 794.76001 223.322998 787.603027 222.890991 C 781.742981 222.536987 777.405029 225.153015 773.171021 228.835022 C 775.890991 219.335022 780.155029 211.507019 786.291016 203.760986 Z"/>
    <path id="path29" fill="#fefefc" stroke="none" d="M 629.473999 625.320007 C 632.960022 627.552002 637.817993 628.632996 641.739014 630.122009 C 650.367004 633.396973 659.067993 637.455994 666.570007 642.875977 C 674.812012 648.83197 680.142029 656.125977 681.812988 666.249023 C 675.783997 665.521973 650.812988 661.5 646.84198 663.661011 L 646.754028 664.481018 C 646.906982 664.653992 647.054016 664.833008 647.213989 664.999023 C 652.565002 670.564026 673.492981 671.252014 681.039001 670.978027 C 679.620972 673.520996 678.158997 675.994019 676.132996 678.116028 C 670.184998 684.343994 662.625 686.421997 654.307007 686.564026 C 648.232971 686.586975 637.465027 684.432983 632.218994 685.736023 L 631.937988 686.36499 C 632.072021 686.510986 632.19397 686.669983 632.341003 686.802979 C 638.434021 692.356018 652.481995 691.892029 660.296997 691.898987 C 641.887024 698.921997 624.679016 698.713013 605.533997 695.52301 C 609.046021 672.169006 615.107971 644.572021 629.473999 625.320007 Z"/>
    <path id="path30" fill="#fefefc" stroke="none" d="M 679.89502 899.114014 C 682.255005 898.963013 689.893005 907.289001 692.002991 909.140991 C 706.245972 921.645996 722.64801 931.075012 738.984985 940.507996 C 730.52301 940.40802 722.039001 940.974976 713.572021 941.026978 C 696.281331 941.201009 679.012329 940.665344 661.765015 939.419983 C 652.817017 938.289978 643.744995 937.825012 634.768982 936.86499 C 624.042338 935.728312 613.412354 933.998983 602.879028 931.677002 C 605.651978 921.992004 609.53302 912.408997 612.880981 902.89502 C 633.16803 907.23999 659.903015 904.088989 679.89502 899.114014 Z"/>
    <path id="path31" fill="#fefefc" stroke="none" d="M 360.289001 915.19397 C 380.408997 921.570984 414.292999 922.666016 434.591003 916.286011 C 448.199005 939.117981 466.466003 950.919983 489.234009 963.041992 L 477.876007 962.448975 C 451.199005 961.549988 424.265991 960.007019 397.722992 957.244995 C 380.136993 955.414001 362.675995 952.676025 345.109985 950.726013 C 350.433329 938.99469 355.493001 927.150675 360.289001 915.19397 Z"/>
    <path id="path32" fill="#b9a19e" stroke="none" d="M 886.38501 552.492004 L 886.91803 553.208008 C 884.093018 558.223999 880.609985 562.929993 877.747009 567.968018 C 870.325989 581.026001 863.284973 594.791992 854.760986 607.145996 C 840.322998 609.635986 829.242004 618.536011 820.106995 629.68103 C 811.46698 640.221008 798.521973 661.288025 800.283997 675.562012 C 800.997009 681.338013 804.132996 684.905029 808.534973 688.309998 C 805.494995 692.60498 803.103027 697.466003 800.223022 701.893982 C 792.080994 714.416016 781.049988 721.718018 768.29303 728.966003 C 765.84198 730.348022 763.242981 731.534973 760.721008 732.783997 C 770.916992 700.419006 786.593018 669.812988 800.270996 638.840027 L 815.424011 604.539978 C 818.971985 596.390015 822.174988 587.995972 826.580994 580.26001 C 845.687012 568.921021 865.796021 560.687012 886.38501 552.492004 Z"/>
    <path id="path33" fill="#fefefc" stroke="none" d="M 767.901001 737.937988 L 768.661011 738.127014 C 769.937988 740.812988 772.547974 765.763977 773.630981 771.403992 C 775.228027 779.726013 777.63501 787.820984 779.963013 795.960999 C 775.317017 801.377014 768.307007 805.771973 762.432983 809.822998 C 738.41803 826.38501 713.624023 839.767029 686.544983 850.609985 C 683.921997 851.508972 681.255981 852.278992 678.601013 853.077026 C 686.323975 820.198975 694.796021 787.471008 695.578979 753.47699 C 700.20697 752.659973 725.153992 747.142029 727.578979 747.5 C 729.414001 747.770996 731.638 749.633972 733.61499 750.117004 C 742.234009 752.223022 760.466003 741.854004 767.901001 737.937988 Z"/>
    <path id="path34" fill="#fefefc" stroke="none" d="M 394.408997 428.346985 C 421.471985 436.281006 447.394989 446.707031 473.466003 457.367004 C 483.75 461.572021 493.821014 466.313965 503.908997 470.967041 C 542.603027 488.817017 573.52301 507.721008 597.36499 544.228027 C 603.856018 554.164978 609.481995 564.291992 614.072021 575.244995 C 608.848674 572.699015 603.574666 570.262024 598.25 567.934021 C 574.086975 556.413025 547.132019 549.643982 521.286987 543.036987 C 526.271973 536.825989 531.817017 531.130005 536.979004 525.072998 C 522.835022 510.932983 480.842987 503.640991 460.747986 500.083984 C 455.140015 499.091003 449.101013 498.894043 443.635986 497.359985 C 443.39801 497.292969 443.162994 497.216003 442.925995 497.146973 C 441.29599 496.666992 440.165985 495.650024 438.937012 494.500977 C 434.468994 490.317993 430.446991 485.578979 426.075989 481.270996 C 413.526001 468.767008 400.554667 456.716349 387.161987 445.119019 C 389.489339 439.490356 391.905009 433.899679 394.408997 428.346985 Z"/>
    <g id="vestito">
        <path id="path35" fill="#dad1ca" stroke="none" d="M 377.731995 857.094971 C 387.174011 859.643005 396.479004 863.179993 405.862 865.997009 C 419.218994 870.005981 432.731995 873.219971 446.345001 876.218994 C 441.36499 887.094971 437.319 898.202026 433.786987 909.622009 L 427.678009 911.291992 C 405.493011 915.161987 384.212006 914.013977 362.052002 910.755005 C 368.458008 893.223022 373.34201 875.216003 377.731995 857.094971 Z"/>
        <path id="path36" fill="#dad1ca" stroke="none" d="M 619.508972 707.513 L 627.500977 707.494995 C 624.326986 720.752319 621.534322 734.089315 619.122986 747.505981 C 624.458984 752.893982 631.161987 757.721985 637.541992 761.809021 C 653.382996 761.153015 669.419983 757.653992 685.026978 754.905029 C 682.815979 792.114014 675.273987 827.78302 666.276978 863.856018 C 672.994995 862.744019 679.65802 860.888 686.22699 859.122009 C 683.296997 870.580994 680.893982 882.031982 678.781006 893.669983 C 674.276326 894.730001 669.741333 895.636332 665.176025 896.388977 C 660.610026 897.141012 656.023682 897.737691 651.416992 898.179016 C 646.810994 898.61969 642.194987 898.904012 637.56897 899.031982 C 632.943644 899.159342 628.31899 899.130005 623.695007 898.94397 C 620.83197 898.807007 617.15802 898.934998 614.517029 897.856995 C 619.013977 881.659973 624.388977 865.617981 629.351013 849.551025 C 642.984985 842.677979 655.80603 837.552979 667.474976 827.340027 C 655.40802 830.362976 643.609009 835.096008 631.744019 838.913025 C 616.085022 843.952026 600.341003 848.125977 584.390991 852.116028 C 589.184021 836.546021 594.534973 821.203979 598.765991 805.453979 C 607.463989 773.075012 613.505981 740.455017 619.508972 707.513 Z"/>
    </g>
    <path id="path37" fill="#b9a19e" stroke="none" d="M 781.739014 582.786011 C 786.08197 582.469971 790.484009 582.47998 794.838013 582.361023 C 788.241028 597.796997 782.231995 613.458008 775.857971 628.981995 L 747.447021 697.01001 C 741.965027 710.218994 737.070984 723.607971 731.172974 736.653015 C 722.888977 739.070007 714.117981 740.30603 705.635986 741.89801 C 685.947021 745.593994 666.148987 748.640991 646.392029 751.945007 L 647.607971 746.61499 C 650.427002 731.536011 654.19397 716.583984 657.263 701.539978 C 666.846985 696.989014 673.958984 691.984009 681.177979 684.109009 C 686.244995 678.580017 689.775024 671.726013 689.255981 664.023987 C 688.442017 651.921997 680.786987 644.424011 672.04303 637.054993 C 675.094971 621.872986 679.463013 606.560974 681.197998 591.177979 C 714.71698 587.255005 747.97699 583.822021 781.739014 582.786011 Z"/>
    <path id="path38" fill="#fefefc" stroke="none" d="M 687.286987 173.710022 C 715.04303 170.927979 749.671021 178.572998 773.077026 193.583984 C 758.179993 208.049011 754.575989 226.638 754.098022 246.531982 C 735.781982 244.609009 720.885986 248.690979 704.55603 256.912964 C 704.13269 256.086995 703.70402 255.263672 703.27002 254.442993 C 690.791016 230.86499 670.840027 214.377014 645.296997 206.690002 C 620.442017 199.210022 593.624023 202.750977 570.958984 215.115967 C 547.14801 228.106018 528.77301 252.344971 521.164001 278.171997 C 498.850006 284.985962 476.19101 293.271973 455.653992 304.428955 C 462.11499 294.212036 468.752991 284.120972 476.299988 274.664001 C 481.283997 268.416992 487.824005 262.671997 491.787994 255.745972 C 478.60199 244.692993 460.52301 238.167969 443.618011 236.070984 C 433.243988 235.332031 420.22699 235.411011 411.333008 241.612 C 406.330994 245.098999 403.673004 250.364014 402.696014 256.281982 C 401.158997 265.598999 403.036011 275.665039 408.627014 283.365967 C 418.203003 296.557007 434.554993 300.645996 449.751007 303.028992 C 443.77301 311.630005 439.105011 321.184998 433.519012 330.072998 C 425.493988 327.172974 417.061005 324.010986 409.449005 320.156982 C 393.617004 312.144043 377.167999 299.041992 371.505005 281.536987 C 367.229004 268.322021 370.609009 251.535034 376.946991 239.510986 C 383.125 227.792969 392.876007 220.106018 405.51001 216.234985 C 438.183014 206.224976 477.51001 225.778992 505.940002 240.911987 C 519.979004 231.085022 534.825989 222.541992 549.984009 214.573975 C 593.203003 191.85498 638.370972 177.061035 687.286987 173.710022 Z"/>
    <path id="path39" fill="#5c3f4a" stroke="none" d="M 725.325012 188.825989 C 727.255005 189.103027 728.744019 189.705994 730.406006 190.73999 C 736.086975 194.275024 738.950989 200.484009 740.531982 206.723999 C 737.702026 205.252014 727.317993 191.995972 725.325012 188.825989 Z"/>
    <path id="path40" fill="#5c3f4a" stroke="none" d="M 666.486023 186.250977 C 668.638977 186.964966 670.734009 188.317993 672.60199 189.603027 C 679.255981 194.179016 686.151978 200.81897 687.711975 209.085022 C 681.992004 205.322998 670.088013 192.457031 666.486023 186.250977 Z"/>
    <path id="path41" fill="#5c3f4a" stroke="none" d="M 696.356995 182.953003 C 696.604004 183.112 696.857971 183.260986 697.096985 183.43103 C 707.40802 190.775024 716.31897 207.171997 717.978027 219.552979 C 713.26001 211.791992 697.859009 190.130005 696.356995 182.953003 Z"/>
    <path id="path42" fill="#dad1ca" stroke="none" d="M 609.989014 209.700989 C 610.177002 209.674011 610.36499 209.640991 610.554016 209.619019 C 632.697021 207.049011 658.099976 215.447021 675.36499 229.210999 C 694.205994 244.231995 704.297974 265.984985 706.799011 289.613037 C 706.870341 290.29834 706.933329 290.984334 706.987976 291.671021 C 707.042664 292.357666 707.08901 293.045003 707.127014 293.733032 C 707.165019 294.421021 707.194356 295.109334 707.215027 295.797974 C 707.235657 296.486654 707.248311 297.175334 707.252991 297.864014 C 707.256978 298.553345 707.252319 299.24235 707.239014 299.93103 C 707.226318 300.61967 707.204976 301.308329 707.174988 301.997009 C 707.144999 302.684998 707.106995 303.37266 707.060974 304.059998 C 707.014343 304.747335 706.959025 305.434001 706.89502 306.119995 C 706.831665 306.80599 706.759989 307.491333 706.679993 308.176025 C 706.599345 308.860026 706.510356 309.543009 706.413025 310.224976 C 706.316345 310.906982 706.210999 311.587992 706.096985 312.268005 C 705.983663 312.947327 705.861674 313.625326 705.731018 314.302002 C 705.600321 314.978027 705.46165 315.65269 705.315002 316.325989 C 705.167664 316.999329 705.012329 317.670654 704.848999 318.339966 C 704.685669 319.009318 704.513997 319.676331 704.333984 320.341003 C 704.154663 321.006327 703.967 321.669312 703.770996 322.329956 C 703.574341 322.98999 703.370015 323.647664 703.15802 324.302979 C 702.946025 324.958984 702.725688 325.611979 702.497009 326.261963 C 702.269023 326.911987 702.03302 327.559001 701.789001 328.203003 C 701.544983 328.847697 701.292989 329.489034 701.03302 330.127014 C 700.77301 330.764994 700.50533 331.399658 700.22998 332.031006 C 699.954671 332.662354 699.671672 333.290365 699.380981 333.915039 C 699.090332 334.539673 698.791667 335.160665 698.484985 335.778015 C 698.178996 336.395325 697.865662 337.008667 697.544983 337.618042 C 697.223653 338.227336 696.894999 338.832987 696.559021 339.434998 C 696.223002 340.036357 695.879659 340.633687 695.528992 341.22699 C 695.178324 341.819641 694.820658 342.408325 694.455994 342.993042 C 694.090678 343.577026 693.718343 344.156677 693.338989 344.731995 C 692.959676 345.306661 692.573344 345.876994 692.179993 346.442993 C 691.786682 347.008341 691.386678 347.56901 690.97998 348.125 C 690.572673 348.68099 690.159017 349.231995 689.739014 349.778015 C 689.318319 350.323344 688.890971 350.863668 688.45697 351.398987 C 671.486023 372.096008 647.085022 383.530029 620.620972 386.212036 C 620.44397 386.247986 620.27002 386.296997 620.091003 386.320007 C 598.054993 389.26001 573.828003 382.955994 556.179993 369.455994 C 538.637024 356.036011 527.51001 336.934998 524.755981 314.953979 C 524.658651 314.192017 524.570984 313.428691 524.492981 312.664001 C 524.414978 311.900004 524.346659 311.13501 524.288025 310.369019 C 524.228658 309.602987 524.179321 308.836304 524.140015 308.06897 C 524.100016 307.302327 524.069682 306.534993 524.049011 305.766968 C 524.028341 304.998983 524.017334 304.230672 524.015991 303.462036 C 524.014648 302.69401 524.022644 301.925985 524.039978 301.157959 C 524.058004 300.389974 524.085347 299.622314 524.122009 298.85498 C 524.159322 298.087646 524.205994 297.320638 524.262024 296.553955 C 524.318014 295.788005 524.383667 295.022685 524.458984 294.257996 C 524.533651 293.493998 524.618327 292.730672 524.713013 291.968018 C 524.807007 291.205322 524.910665 290.44397 525.023987 289.68396 C 525.137309 288.924683 525.259989 288.166361 525.392029 287.408997 C 525.524679 286.652323 525.666341 285.897339 525.817017 285.144043 C 525.968343 284.391357 526.128662 283.64034 526.297974 282.890991 C 526.467977 282.141642 526.647319 281.394653 526.835999 280.650024 C 527.024679 279.905314 527.222351 279.162964 527.429016 278.422974 C 527.636332 277.682983 527.852661 276.945658 528.078003 276.210999 C 528.303345 275.47699 528.537679 274.745646 528.781006 274.016968 C 529.024984 273.28833 529.277974 272.563009 529.539978 271.841003 C 529.801331 271.118306 530.072001 270.399292 530.35199 269.68396 C 530.631978 268.968628 530.920654 268.256632 531.218018 267.547974 C 531.51534 266.839966 531.821676 266.13564 532.137024 265.434998 C 532.452332 264.734355 532.775981 264.037679 533.107971 263.344971 C 533.440653 262.652344 533.782003 261.96403 534.132019 261.280029 C 534.481344 260.596029 534.839335 259.916687 535.205994 259.242004 C 535.572652 258.566671 535.947978 257.895996 536.33197 257.22998 C 536.715312 256.564657 537.106995 255.903992 537.507019 255.247986 C 537.906352 254.592021 538.314351 253.94102 538.731018 253.294983 C 539.146993 252.649679 539.570984 252.009359 540.002991 251.374023 C 540.435649 250.738688 540.875651 250.109009 541.322998 249.484985 C 541.770996 248.861003 542.226664 248.242676 542.690002 247.630005 C 543.153341 247.017334 543.624349 246.410339 544.103027 245.809021 C 560.655029 224.791016 583.624023 212.733032 609.989014 209.700989 Z"/>
    <path id="path43" fill="#5c3f4a" stroke="none" d="M 615.577026 216.708008 C 635.794006 215.562988 656.560974 222.969971 672.106995 235.692993 C 688.963989 249.489014 698.786987 268.332031 700.833008 290.016968 C 702.820007 311.088989 696.789978 332.718994 683.13501 349.018005 C 666.554993 368.807983 642.629028 379.063965 617.185974 381.291992 L 616.635986 381.338013 C 595.969971 382.916992 573.439026 377.47998 557.539978 363.707031 C 542.140015 350.365967 532.840027 330.130981 531.591003 309.920044 C 530.159973 286.787964 537.296021 264.505981 552.734009 247.067017 C 569.372986 228.27301 590.625 218.218994 615.577026 216.708008 Z"/>
    <path id="path44" fill="#fefefc" stroke="none" d="M 611.284973 223.192993 C 626.591003 220.471985 648.122009 226.906006 660.935974 235.231018 C 661.97467 235.897685 662.996338 236.589681 664.000977 237.307007 C 665.005656 238.024333 665.992004 238.766337 666.960022 239.53302 C 667.927999 240.299011 668.876322 241.088338 669.804993 241.901001 C 670.733663 242.714315 671.642008 243.549988 672.530029 244.40802 C 673.417358 245.266012 674.28302 246.145345 675.127014 247.046021 C 675.971659 247.946655 676.792989 248.867655 677.591003 249.809021 C 678.389669 250.750346 679.164673 251.710673 679.916016 252.690002 C 680.666667 253.670024 681.392985 254.667684 682.094971 255.682983 C 682.796997 256.698324 683.473348 257.730672 684.124023 258.780029 C 684.774658 259.828695 685.398987 260.893026 685.997009 261.973022 C 686.595683 263.053019 687.167013 264.147013 687.710999 265.255005 C 688.254985 266.362996 688.771322 267.483663 689.26001 268.617004 C 689.748657 269.750997 690.208984 270.895996 690.640991 272.052002 C 691.072998 273.208659 691.475993 274.375 691.849976 275.551025 C 692.22465 276.727702 692.569987 277.912679 692.885986 279.105957 C 693.201335 280.299316 693.487345 281.499674 693.744019 282.707031 C 693.999349 283.922363 694.22467 285.143026 694.419983 286.369019 C 694.615336 287.595662 694.780334 288.825989 694.914978 290.059998 C 695.049011 291.294657 695.15269 292.531982 695.226013 293.771973 C 695.299337 295.011312 695.342 296.251994 695.354004 297.494019 C 695.366007 298.735311 695.347005 299.976318 695.296997 301.217041 C 695.247681 302.457682 695.167684 303.696655 695.057007 304.93396 C 694.94633 306.170654 694.805318 307.404012 694.633972 308.634033 C 694.461975 309.863363 694.259989 311.088013 694.028015 312.307983 C 693.795349 313.527995 693.53302 314.741333 693.241028 315.947998 C 692.948995 317.155355 692.627319 318.35437 692.276001 319.545044 C 691.923991 320.736369 691.543315 321.918009 691.133972 323.089966 C 690.723979 324.262004 690.285319 325.42334 689.817993 326.573975 C 689.350667 327.72465 688.855326 328.862996 688.33197 329.989014 C 687.808004 331.11499 687.256673 332.227315 686.677979 333.325989 C 686.099976 334.424662 685.494649 335.508341 684.862 336.577026 C 684.230001 337.646362 683.572001 338.699015 682.888 339.734985 C 668.452026 361.343994 647.353027 369.990967 622.880005 374.802979 L 620.640015 375.098022 C 601.65802 377.525024 579.617004 373.368042 564.33197 361.369019 C 549.947021 350.075012 540.583008 332.18103 538.437012 314.136963 C 538.355021 313.476318 538.281026 312.814657 538.215027 312.151978 C 538.149028 311.489299 538.091349 310.826294 538.041992 310.162964 C 537.992676 309.498983 537.951355 308.83433 537.91803 308.169006 C 537.884664 307.504333 537.85966 306.839335 537.843018 306.174011 C 537.825684 305.507996 537.816671 304.842326 537.815979 304.177002 C 537.815979 303.510986 537.823649 302.845317 537.838989 302.179993 C 537.85498 301.514018 537.878988 300.848674 537.911011 300.18396 C 537.942993 299.518677 537.982992 298.854024 538.031006 298.190002 C 538.079671 297.525981 538.136332 296.862651 538.200989 296.200012 C 538.265645 295.537333 538.338318 294.875651 538.419006 294.214966 C 538.499654 293.554321 538.588643 292.894653 538.685974 292.235962 C 538.782654 291.577311 538.887655 290.920003 539.000977 290.264038 C 539.114339 289.608032 539.235677 288.953349 539.36499 288.299988 C 539.493652 287.646667 539.630656 286.995341 539.776001 286.346008 C 539.921346 285.695984 540.074687 285.047974 540.236023 284.401978 C 540.396667 283.755981 540.565653 283.111979 540.742981 282.469971 C 540.919657 281.828654 541.104329 281.189331 541.296997 280.552002 C 541.489665 279.914673 541.690002 279.279663 541.89801 278.646973 C 542.106018 278.014974 542.321676 277.385315 542.544983 276.757996 C 542.768982 276.130676 543.000326 275.506348 543.239014 274.88501 C 543.477661 274.263672 543.724325 273.645345 543.979004 273.030029 C 544.232992 272.414673 544.494324 271.802327 544.763 271.192993 C 545.032328 270.584351 545.309001 269.979024 545.593018 269.377014 C 545.876994 268.774353 546.168315 268.17568 546.46698 267.580994 C 546.765645 266.985657 547.071309 266.394328 547.383972 265.807007 C 547.697327 265.219686 548.01766 264.636027 548.344971 264.05603 C 548.672323 263.476685 549.006999 262.901001 549.348999 262.328979 C 549.690348 261.75765 550.038676 261.190653 550.393982 260.627991 C 550.74998 260.064636 551.112325 259.505981 551.481018 258.952026 C 551.850321 258.39799 552.226318 257.848633 552.609009 257.303955 C 552.991659 256.759318 553.380981 256.21934 553.776978 255.684021 C 554.172974 255.148661 554.575317 254.618327 554.984009 254.093018 C 568.585022 236.901001 589.573975 225.653015 611.284973 223.192993 Z"/>
    <path id="path45" fill="#5c3f4a" stroke="none" d="M 613.039978 230.629028 C 618.198975 230.625977 623.732971 232.43103 627.924011 235.411011 C 629.697998 236.672974 631.744019 238.358032 631.815002 240.757019 C 631.853027 242.054993 631.69397 242.289978 630.856018 243.151001 C 627.960999 243.651001 625.508972 240.921997 623.216003 239.505981 C 619.208008 237.030029 614.273987 236.091003 609.674011 237.195984 C 603.689026 238.632996 599.333008 242.734985 596.153015 247.802979 C 594.458008 251.507019 591.517029 263.97699 589.106995 265.530029 C 588.119995 264.801025 588.185974 264.520996 587.958984 263.356995 C 586.564026 256.200012 588.765015 248.007996 592.984009 242.166016 C 597.895996 235.365967 605.036987 232.052979 613.039978 230.629028 Z"/>
    <path id="path46" fill="#5c3f4a" stroke="none" d="M 620.981995 279.087036 C 624.281982 278.781982 626.883972 278.744019 629.861023 280.372009 C 636.038025 283.749023 639.280029 290.890015 641.250977 297.349976 C 644.258972 307.212036 645.570984 322.580994 640.27301 331.859985 C 638.060974 335.734009 635.625 337.428955 631.375 338.552979 C 630.267029 338.386963 629.151001 338.209961 628.06897 337.908997 C 621.968018 336.212036 617.221008 330.424011 614.325012 325.02002 C 609.080994 315.22998 607.403992 302.119995 610.796997 291.458984 C 612.635986 285.679993 615.612 281.837036 620.981995 279.087036 Z"/>
    <path id="path47" fill="#fefefc" stroke="none" d="M 624.866028 286.520996 C 628.258972 286.442993 630.611023 287.221008 633.096008 289.640015 C 634.622986 291.125977 635.685974 293.067017 635.484985 295.26001 C 635.294983 297.334961 634.151978 298.354004 632.622009 299.52301 C 629.572021 299.265015 627.364014 298.313965 625.015015 296.315002 C 623.39801 294.940002 621.984009 292.968018 622.078979 290.744995 C 622.166016 288.709961 623.388977 287.653992 624.866028 286.520996 Z"/>
    <path id="path48" fill="#fefefc" stroke="none" d="M 746.356018 265.716003 C 749.838013 265.390015 753.508972 265.589966 757.013977 265.572021 C 757.390645 266.728678 757.800985 267.873006 758.244995 269.005005 C 758.689657 270.137004 759.166992 271.255005 759.677002 272.359009 C 760.187663 273.463664 760.730001 274.552002 761.304016 275.624023 C 761.878682 276.696004 762.484334 277.75 763.120972 278.786011 C 763.75765 279.821981 764.424316 280.838643 765.120972 281.835999 C 765.818319 282.832662 766.543986 283.807983 767.297974 284.761963 C 768.052653 285.715983 768.834656 286.646993 769.643982 287.554993 C 770.453308 288.462992 771.288656 289.346313 772.150024 290.204956 C 772.975342 291.022339 773.823995 291.814697 774.695984 292.582031 C 775.568665 293.349365 776.462667 294.090352 777.377991 294.804993 C 778.294006 295.519674 779.230001 296.207011 780.185974 296.867004 C 781.142639 297.526306 782.117655 298.157308 783.111023 298.76001 C 784.10435 299.361979 785.114339 299.934306 786.140991 300.47699 C 787.168335 301.019674 788.210673 301.532023 789.268005 302.014038 C 790.324687 302.495321 791.39502 302.944987 792.479004 303.363037 C 793.562337 303.781657 794.657328 304.167969 795.763977 304.521973 C 807.758972 308.362 821.609009 308.756958 834.106995 309.500977 C 850.384989 310.578328 866.679993 311.217 882.992004 311.416992 C 893.986023 311.468018 904.973022 310.865967 915.971008 310.907959 C 906.895996 333.978027 883.120972 357.208984 864.612976 373.454956 C 824.700012 408.489014 779.380981 438.124023 732.291992 462.562988 C 716.22998 470.898987 699.786011 479.018005 682.598999 484.785034 C 669.739014 489.098999 656.570984 491.682007 643.127991 493.390991 C 631.28302 494.896973 619.205017 495.865967 607.260986 495.466003 C 591.745972 494.946045 576.257019 492.617004 560.744995 491.599976 C 544.440979 479.078003 525.640991 470.502014 507.132996 461.787964 C 471.890991 445.874023 434.881989 430.93103 396.894012 423.166992 C 402.096008 410.322021 408.315002 397.473022 414.334991 384.978027 C 419.334991 374.598022 436.320007 339.148987 442.307007 332.546021 C 449.309998 324.822998 505.444 304.963013 517.504028 300.738037 C 517.504679 307.858683 518.14268 314.921997 519.41803 321.927979 C 523.700012 344.286011 535.427979 363.75 554.375 376.52301 C 577.267029 391.955994 605.182983 395.889038 631.96698 390.687012 C 658.942993 385.447998 682.646973 371.903015 698.06897 348.770996 C 712.143005 327.662964 716.265991 301.959961 711.218994 277.165039 C 722.004028 269.85498 733.450989 266.698975 746.356018 265.716003 Z"/>
    <path id="path49" fill="#5c3f4a" stroke="none" d="M 764.184021 334.252014 C 767.591003 334.773987 778.294006 336.545044 780.343018 339.321045 L 779.880005 340.278015 C 777.757019 340.471008 775.642029 340.411987 773.513 340.359985 C 770.156982 340.276978 766.351013 340.301025 763.875 337.713989 C 763.508972 336.132996 763.710999 335.756958 764.184021 334.252014 Z"/>
    <path id="path50" fill="#5c3f4a" stroke="none" d="M 452.339996 402.295044 C 453.222992 402.421997 453.526001 402.575012 454.174988 403.187012 C 454.29599 403.898987 454.352997 404.502014 454.139008 405.207031 C 452.484985 410.670044 447.237 416.81604 442.334015 419.488037 C 441.434998 419.427002 441.320007 419.249023 440.587006 418.781982 C 440.468994 418.323975 440.364014 418.057983 440.431 417.545044 C 441.105011 412.364014 448.238007 405.031982 452.339996 402.295044 Z"/>
    <path id="path51" fill="#5c3f4a" stroke="none" d="M 439.458008 385.853027 C 440.653015 386.218018 440.169006 385.864014 440.875 386.959961 C 439.449005 393.06897 429.769989 404.312988 424.959015 408.803955 C 424.153015 408.519043 424.075989 408.406006 423.548004 407.781006 C 423.393005 406.983032 423.299011 406.287964 423.471985 405.479004 C 425.027008 398.203003 433.539001 389.967041 439.458008 385.853027 Z"/>
    <path id="path52" fill="#5c3f4a" stroke="none" d="M 767.146973 312.30603 C 772.59198 313.207031 792.153015 318.110962 795.468994 321.832031 C 796.059998 322.495972 795.85498 322.614014 795.796997 323.437012 C 792.689026 323.627991 789.86499 323.309998 786.822998 322.718018 C 781.979004 321.776978 769.596985 319.377991 766.981018 314.839966 C 766.487976 313.985962 766.94397 313.212036 767.146973 312.30603 Z"/>
    <path id="path53" fill="#5c3f4a" stroke="none" d="M 651.973022 404.420044 C 652.382019 404.504028 652.96698 404.601013 653.330994 404.791992 C 654.484009 405.39502 654.596985 405.851013 654.861023 407.000977 C 653.544983 410.911011 647.890991 413.549988 645.052979 416.644043 C 644.908997 416.802002 644.768005 416.963013 644.625977 417.122009 C 648.722656 420.210022 653.039673 422.951681 657.577026 425.346985 C 682.88501 438.656006 702.307983 433.292969 728.129028 425.356995 C 721.164978 431.052002 712.781006 434.760986 704.122009 436.962036 C 703.670675 437.068685 703.217997 437.168335 702.763977 437.260986 C 678.327026 442.219971 661.896973 434.39502 642.026978 421.115967 C 639.857971 424.046021 637.385986 426.825012 634.260986 428.763 C 631.877991 430.240967 628.609985 431.47998 625.789978 430.713013 C 624.52002 430.368042 623.932983 430.108032 623.234985 428.995972 L 623.531982 428.424011 C 624.833984 425.916992 630.059998 426.19397 632.536011 424.23999 C 641.27301 417.344971 638.424988 410.502014 651.973022 404.420044 Z"/>
    <path id="path54" fill="#613032" stroke="none" d="M 537.304993 422.984985 C 536.518005 423.005981 535.794983 422.973999 535.013 422.89801 C 528.71698 422.282959 520.528992 420.619019 516.460999 415.346985 C 516.208313 415.01768 515.973307 414.676351 515.755981 414.322998 C 515.538656 413.969645 515.340658 413.605977 515.161987 413.231995 C 514.982666 412.857361 514.822998 412.474691 514.682983 412.083984 C 514.54366 411.693319 514.425008 411.296326 514.327026 410.893005 C 514.229004 410.490336 514.151998 410.083333 514.096008 409.671997 C 514.040019 409.260661 514.005676 408.847656 513.992981 408.432983 C 513.980326 408.018351 513.989339 407.604024 514.02002 407.190002 C 514.050008 406.776672 514.101664 406.365682 514.174988 405.957031 C 515.142029 400.323975 519.504028 395.721008 524.013 392.513 C 533.513 385.750977 548.809021 382.390015 560.330017 384.309998 C 567.590027 384.962036 579.392029 387.339966 584.315002 393.10199 C 586.08197 395.170044 586.822998 397.733032 586.481018 400.429993 C 585.807007 405.744019 581.348022 410.115967 577.197021 413.124023 C 566.23999 421.065002 550.645996 424.365967 537.304993 422.984985 Z"/>
    <path id="path55" fill="#e7b99a" stroke="none" d="M 538.513 421.250977 C 531.554993 420.500977 523.424011 419.341003 518.427002 413.89502 C 516.702026 412.015015 515.77301 409.742004 515.991028 407.172974 C 516.372009 402.682007 520.02002 398.770996 523.379028 396.093994 C 533.682983 387.882996 548.388977 384.862 561.275024 386.31897 C 568.174011 387.411011 578.703979 389.139038 583.159973 395.174011 C 584.343018 396.776001 584.797974 398.577026 584.474976 400.549988 C 583.682007 405.395996 578.926025 409.213013 575.041992 411.776001 C 564.677002 418.615967 550.872009 421.942017 538.513 421.250977 Z"/>
    <path id="path56" fill="#fefefc" stroke="none" d="M 383.635986 452.177979 C 390.283997 454.822998 418.039001 484.362 425.470001 491.884033 C 429.431 495.894043 434.05899 501.641968 439.132996 504.195007 C 442.587006 505.932983 478.434998 511.031006 485.770996 512.570984 C 500.69633 515.811015 515.343323 520.02002 529.711975 525.197998 C 525.637024 529.120972 521.61499 533.205994 518.046997 537.598999 C 516.276001 539.778015 514.03302 542.411011 514.348999 545.370972 C 518.54303 550.921997 556.142029 561.103027 564.572998 563.927979 C 577.395996 568.224976 605.940002 577.690002 616.45697 584.286011 L 617.046997 584.659973 C 619.88501 593.549988 621.65802 602.630005 623.497986 611.765015 C 605.901001 606.06897 588.133972 600.559021 570.968018 593.653015 C 557.551025 588.254028 544.583008 581.854004 531.663025 575.375 C 516.508972 567.776001 501.605011 559.583008 488.102997 549.262024 C 476.739014 540.573975 467.062012 530.396973 456.498993 520.828003 C 457.867666 523.487345 459.325002 526.097005 460.871002 528.656982 C 462.226329 530.839681 463.656331 532.972697 465.161011 535.05603 C 466.66567 537.138672 468.240997 539.166667 469.886993 541.140015 C 471.53299 543.112671 473.245992 545.025675 475.026001 546.879028 C 476.805339 548.732992 478.647339 550.522319 480.552002 552.247009 C 510.062988 579.218018 563.643005 605.26001 602.340027 614.40802 C 583.999023 631.179993 572.346985 662.921997 570.934998 687.226013 C 565.688985 685.474019 560.48999 683.593018 555.338013 681.583008 C 550.185343 679.572347 545.086344 677.435018 540.041016 675.171021 C 534.994995 672.907023 530.008321 670.518677 525.080994 668.005981 C 520.154317 665.493327 515.292989 662.860006 510.497009 660.106018 C 474.139008 638.755981 446.630005 613.651001 427.494995 575.557007 C 421.567993 563.755981 416.563995 551.463989 413.22699 538.68103 C 413.076996 543.896973 413.757996 548.755005 414.687988 553.880981 C 420.609985 576.838989 429.600006 598.158997 444.127991 617.078003 C 473.026001 654.713013 526.252014 684.38501 571.008972 698.086975 C 577.577657 700.060974 584.216003 701.76298 590.924011 703.192993 C 597.632019 704.623006 604.387349 705.776347 611.190002 706.653015 C 607.06897 723.911011 604.155029 741.429993 600.093994 758.677979 C 595.687988 777.524007 590.703654 796.216024 585.140991 814.754028 C 579.578328 833.291992 573.447998 851.64032 566.75 869.799011 C 565.370687 869.99233 563.987691 870.152995 562.601013 870.281006 C 560.079 870.512329 557.554993 870.720662 555.028992 870.906006 C 552.502991 871.091349 549.975667 871.253357 547.447021 871.392029 C 544.917684 871.53066 542.387675 871.645976 539.856995 871.737976 C 537.325663 871.829976 534.794006 871.898641 532.262024 871.94397 C 529.72935 871.989339 527.196676 872.011678 524.664001 872.010986 C 522.131327 872.009644 519.598999 871.984985 517.067017 871.937012 C 514.534993 871.888997 512.003316 871.817993 509.471985 871.723999 C 506.941325 871.629313 504.411662 871.511637 501.882996 871.370972 C 499.353658 871.229655 496.826324 871.065328 494.300995 870.877991 C 491.774994 870.690002 489.250997 870.479004 486.729004 870.244995 C 484.207662 870.010986 481.688324 869.753988 479.17099 869.473999 C 476.653656 869.193319 474.139323 868.889648 471.627991 868.562988 C 469.116659 868.236328 466.608327 867.886658 464.102997 867.513977 C 461.597666 867.140645 459.096334 866.744649 456.598999 866.325989 C 454.100993 865.907328 451.606995 865.465332 449.117004 865 C 446.627665 864.535319 444.14266 864.047648 441.661987 863.536987 C 439.181335 863.026326 436.705343 862.493001 434.234009 861.937012 C 431.763346 861.38033 429.298014 860.801331 426.838013 860.200012 C 424.378011 859.598653 421.92334 858.974325 419.473999 858.327026 C 417.02533 857.680339 414.582998 857.011332 412.147003 856.320007 C 409.710337 855.627991 407.280334 854.913656 404.856995 854.177002 C 402.433655 853.440348 400.01766 852.681681 397.609009 851.901001 C 395.199666 851.11967 392.797668 850.316345 390.403015 849.491028 C 388.008341 848.66567 385.621674 847.818665 383.243011 846.950012 C 380.863678 846.080668 378.493011 845.189657 376.131012 844.276978 C 373.768341 843.363647 371.414337 842.428996 369.069 841.473022 C 366.723663 840.517008 364.387329 839.539327 362.059998 838.539978 C 359.732666 837.54067 357.414998 836.520345 355.106995 835.479004 C 352.79834 834.437012 350.499674 833.373678 348.210999 832.289001 C 345.921672 831.205017 343.64267 830.100016 341.373993 828.973999 C 339.105988 827.847982 336.847992 826.700989 334.600006 825.53302 C 332.352671 824.365011 330.116333 823.176676 327.890991 821.968018 C 315.921997 815.388 302.886993 808.517029 292.296997 799.848999 C 292.925995 767.502014 298.593994 734.794006 305.062988 703.156006 C 308.329 687.52535 311.869008 671.957011 315.683014 656.450989 C 319.49767 640.945007 323.583995 625.511007 327.941986 610.148987 C 332.299998 594.787008 336.927002 579.506348 341.822998 564.307007 C 346.718994 549.108317 351.881327 534.000305 357.309998 518.982971 C 364.78299 497.773987 373.178986 471.910034 383.635986 452.177979 Z"/>
    <path id="path57" fill="#5c3f4a" stroke="none" d="M 462.683014 667.89502 C 463.239014 668.099976 463.559998 668.294006 464.016998 668.71698 C 468.556 672.91803 471.243988 687.52301 471.973999 693.466003 C 445.786011 712.080994 409.052002 730.070007 377.178009 735.211975 C 375.100006 735.481018 372.972992 735.460999 370.877991 735.526978 C 367.376007 726.593018 367.484985 717.044983 367.597992 707.617004 L 462.683014 667.89502 Z"/>
    <path id="path58" fill="#fefefc" stroke="none" d="M 461.496002 672.913025 L 462.181 673.14502 C 465.421997 677.629028 466.493988 686.317993 467.826996 691.684998 C 458.121002 695.588013 448.877014 700.882019 439.459991 705.448975 C 419.404999 715.177002 398.778992 724.192017 377.140991 729.742981 C 376.497009 729.849976 376.130005 729.768982 375.496002 729.650024 C 373.355988 725.976013 372.429993 715.90802 371.569 711.357971 C 403.368011 702.901978 432.557007 688.26001 461.496002 672.913025 Z"/>
    <path id="chioma" fill="#dad1ca" stroke="none" d="M 439.480011 49.955078 C 448.716003 49.537109 458.928986 52.407288 467.953003 54.359985 C 501.696991 61.661926 533.359985 71.862671 565.059021 85.547974 C 577.452026 90.898621 589.844971 96.318298 601.164001 103.747009 C 598.373352 98.841858 595.440348 94.023397 592.36499 89.291626 C 589.289673 84.559855 586.077006 79.923014 582.72699 75.381104 C 579.377665 70.839152 575.896993 66.400085 572.284973 62.063904 C 568.672994 57.727681 564.93634 53.501912 561.075012 49.386597 C 596.169006 61.476074 637.622009 86.2854 666.864014 109.312012 C 677.661011 117.814026 687.95697 127.268005 698.093018 136.551025 C 691.899007 121.634359 685.575338 106.772624 679.122009 91.96582 C 707.888977 115.583008 731.828979 144.731018 754.155029 174.339966 C 743.606018 169.932007 731.736023 167.438965 720.491028 165.457031 C 674.052002 157.271973 606.508972 175.848022 564.685974 196.509033 C 543.718018 206.867004 524.604004 219.617981 505.45401 232.934021 C 488.55899 222.242004 470.52301 212.838989 451.17099 207.588013 C 429.505005 201.708984 406.643005 202.528992 386.954987 213.908997 C 374.32901 221.207031 365.377991 236.712036 361.790009 250.476013 C 357.640015 266.395996 358.859985 282.020996 367.39801 296.287964 C 381.272003 319.474976 406.032013 328.317993 430.828003 334.656006 C 419.945333 352.493978 409.682994 370.681966 400.040985 389.219971 C 390.398997 407.757975 381.400004 426.602987 373.044006 445.755005 C 364.038676 466.683675 355.613678 487.843018 347.769012 509.233032 C 339.923676 530.623657 332.670003 552.212972 326.007996 574.000977 C 314.767334 608.866984 305.210337 644.18866 297.337006 679.966003 C 288.289001 720.677979 281.096985 762.088989 282.747009 803.968018 C 304.165009 825.406982 339.774994 842.976013 367.868011 853.19397 L 358.179993 886.749023 C 349.394012 879.132996 340.932007 871.155029 332.257996 863.414001 C 327.346985 871.645996 326.095001 880.984985 324.937988 890.322998 L 293.57901 851.687012 C 289.937012 862.732971 288.671997 874.21698 288.490997 885.807007 C 279.352325 871.569661 271.034322 856.868001 263.536987 841.702026 C 259.907013 834.30603 257.263 825.83197 252.783005 818.958984 C 246.156006 836.445007 241.376999 851.335999 239.772995 870.107971 C 228.936996 842.747986 222.167999 813.479004 217.695999 784.45697 C 204.270004 798.28302 198.462997 821.971985 193.363998 840.213013 C 191.847 825.801025 189.167999 811.502014 187.666 797.060974 C 185.417007 775.429993 184.959 753.994019 184.979004 732.27002 C 164.656006 755.117981 154.557999 780.61499 145.371994 809.301025 C 144.113007 791.583008 143.138 774.109009 143.462997 756.328003 C 143.572998 730.226013 145.360992 701.687012 154.098007 676.950989 C 130.602005 698.635986 117.405998 718.697998 103.497002 747.252991 C 104.574997 734.80603 104.710999 722.315002 105.928001 709.835022 C 109.452003 673.715027 119.194 620.776001 135.345993 588.044983 C 131.244003 591.065002 127.463997 594.763977 123.650002 598.143982 C 106.197998 613.612976 88.616501 631.057983 74.469597 649.690979 C 81.879402 609.745972 93.352501 572.315979 110.214996 535.34198 C 114.877998 525.117004 119.684998 514.747986 125.218002 504.963989 C 119.980003 509.411987 114.224998 513.29303 108.622002 517.265015 C 90.284698 530.263977 70.722801 542.122986 54.385601 557.664978 C 56.998501 550.5 60.159801 543.468994 63.099201 536.43103 C 75.165199 507.539001 89.036903 479.583008 106.007004 453.221008 C 115.099998 439.096008 125.796997 425.953979 134.593002 411.674011 C 125.319 417.957031 116.321999 424.103027 106.639999 429.792969 C 88.1717 440.64502 68.905602 450.552002 51.718601 463.420044 C 56.678101 453.707031 63.170399 444.802979 69.238899 435.766968 C 74.990568 427.08964 80.960068 418.565308 87.1474 410.19397 C 93.334798 401.821981 99.731997 393.613322 106.338997 385.567993 C 112.945666 377.523315 119.753667 369.652649 126.763 361.955994 C 133.772329 354.258687 140.973663 346.745687 148.367004 339.416992 C 130.363007 348.515015 111.070999 354.872009 92.6035 363.007996 C 86.0672 365.886963 79.447304 368.696045 73.332901 372.412964 C 98.781998 339.057983 126.926003 310.927979 159.817993 284.843018 C 174.578995 273.135986 190.447998 262.665039 204.794998 250.464966 C 200.574005 251.999023 196.320999 253.549988 192.255997 255.463013 C 186.927002 257.969971 181.647995 261.009033 175.988007 262.700989 C 168.567001 264.919006 159.953003 265.343994 152.289993 266.932983 C 132.570999 271.02002 112.521004 275.833984 93.469597 282.364014 C 108.207001 269.328003 124.818001 257.776978 141.082993 246.766968 C 155.684992 236.696981 170.591995 227.100667 185.804001 217.978027 C 201.015335 208.854655 216.501002 200.222982 232.261002 192.083008 C 196.776993 190.770996 161.798996 192.005981 126.939003 199.153992 C 137.912003 191.869995 149.832993 185.863037 161.598007 179.981995 C 203.190994 159.190979 248.692001 141.731018 295.309998 137.495972 C 280.21701 128.421021 261.932007 123.492004 244.423996 121.914978 C 238.052994 121.341003 231.656998 121.486023 225.276001 120.880981 C 231.703003 118.192017 238.843002 116.630981 245.570007 114.799988 C 249.941335 113.57135 254.332001 112.417684 258.742004 111.338989 C 263.152669 110.260986 267.580332 109.258667 272.024994 108.332031 C 276.469655 107.405355 280.928996 106.555013 285.403015 105.781006 C 289.877014 105.006999 294.362671 104.309998 298.859985 103.690002 C 303.35732 103.070007 307.863993 102.526998 312.380005 102.060974 C 316.895996 101.594991 321.41866 101.206665 325.947998 100.895996 C 330.477336 100.585327 335.010671 100.35199 339.548004 100.195984 C 344.084666 100.040792 348.622996 99.963196 353.162994 99.963196 C 367.401001 99.970276 380.579987 100.096008 394.234009 104.692993 C 378.476013 88.931213 358.01001 81.023499 337.269012 74.240417 C 386.382996 69.173401 437.730011 75.030396 484.875 89.279785 C 470.570007 75.048401 456.071014 61.533691 439.480011 49.955078 Z"/>
    <path id="path59" fill="#5c3f4a" stroke="none" d="M 588.86499 115.838989 C 597.580994 117.429016 612.745972 132.132019 617.596008 139.216003 C 619.585999 142.122009 620.593018 144.028015 619.90802 147.53302 C 618.872009 147.882996 617.765991 148.082031 616.672974 147.932007 C 607.367004 146.655029 594.596985 123.195007 588.86499 115.838989 Z"/>
    <path id="path60" fill="#5c3f4a" stroke="none" d="M 242.488998 684.518982 C 243.557999 684.713013 244.779007 684.888977 245.710999 685.484009 C 246.994003 686.302979 247.839005 687.354004 248.100998 688.887024 C 249.447998 696.802979 232.582993 719.521973 227.871994 726.265015 C 226.740997 727.882996 225.339996 729.340027 224.035995 730.820984 C 226.011002 719.239014 230.462006 703.945007 235.082001 693.177979 C 236.710007 689.383972 238.501007 686.09198 242.488998 684.518982 Z"/>
    <path id="path61" fill="#5c3f4a" stroke="none" d="M 494.772003 115.947021 C 506.537994 119.052979 530.76001 129.981018 537.992981 140.119995 C 539.913025 142.811035 540.348999 145.036011 539.867981 148.265991 C 539.262024 148.421021 538.617004 148.609985 537.992004 148.679993 C 527.981018 149.789978 504.057007 122.885986 495.391998 116.406006 L 494.772003 115.947021 Z"/>
    <path id="path62" fill="#5c3f4a" stroke="none" d="M 270.093994 558.481995 C 272.516998 558.367004 275.613007 558.557007 277.442993 560.366028 C 278.19101 561.106018 278.208008 562.192017 278.049988 563.161011 C 276.806 570.765015 248.25 590.914001 241.585999 596.106995 C 240.242004 597.286987 238.610992 598.275024 237.147003 599.312012 C 243.386002 587.129028 258.454987 565.140991 270.093994 558.481995 Z"/>
    <path id="path63" fill="#5c3f4a" stroke="none" d="M 194.263 626.536987 C 196.878006 626.177979 199.121994 626.460999 201.287003 628.044006 C 201.932007 628.97998 202.216995 629.653992 202.164001 630.81897 C 201.776001 639.330994 179.684998 659.658997 173.134003 666.174011 L 168.449005 670.562988 C 173.401993 657.057007 182.319 634.830994 194.263 626.536987 Z"/>
    <path id="path64" fill="#5c3f4a" stroke="none" d="M 382.580994 149.664978 C 391.880005 149.004028 402.028992 150.197998 411.080994 152.311035 C 417.630005 153.839966 431.60199 157.385986 435.122986 163.636963 C 436.097992 165.367981 435.77301 166.687988 435.299011 168.473022 C 433.993011 168.886963 432.640991 169.271973 431.265015 169.330994 C 427.779999 169.481995 423.903015 168.438965 420.606995 167.380005 C 413.777008 165.184998 387.132996 153.719971 382.580994 149.664978 Z"/>
    <path id="path65" fill="#5c3f4a" stroke="none" d="M 308.114014 204.19397 C 311.833008 203.886963 315.921997 203.52301 319.54599 204.588989 C 321.622986 205.200012 324.503998 206.610962 325.31601 208.801025 C 325.709015 209.859985 325.647003 210.945984 324.998993 211.886963 C 324.053986 213.260986 321.890991 213.964966 320.355011 214.31897 C 315.532013 215.429016 309.863007 215.26001 304.906006 215.471008 L 280.625 216.460999 C 273.920013 216.604004 267.208008 217.083008 260.515015 217.484985 C 275.332001 211.341003 292.106995 205.960999 308.114014 204.19397 Z"/>
    <path id="path66" fill="#5c3f4a" stroke="none" d="M 283.506012 452.079956 C 284.846985 452.088013 286.303986 452.030029 287.589996 452.459961 C 288.950012 452.915039 290.019012 453.851013 290.631989 455.143005 C 291.053986 456.031982 290.975006 457.213013 290.605988 458.122009 C 287.415985 465.989014 252.330994 480.759033 243.188995 484.901001 C 241.362 485.828003 239.360001 486.471008 237.442001 487.196045 C 246.664993 476.093994 269.42099 454.990967 283.506012 452.079956 Z"/>
    <path id="path67" fill="#5c3f4a" stroke="none" d="M 336.097992 356.676025 C 337.48999 356.803955 338.894989 356.908997 340.181 357.499023 C 341.838989 358.257996 343.399994 359.797974 343.865997 361.610962 C 344.205994 362.932007 344.153015 363.940002 343.457001 365.122986 C 342.57901 366.615967 340.713989 367.582031 339.190002 368.243042 C 334.356995 370.338989 328.842987 371.338989 323.781006 372.794006 C 314.096008 375.577026 304.479004 378.407959 294.72699 380.981995 L 287.321014 383.169006 C 296.848999 372.43396 321.859009 358.025024 336.097992 356.676025 Z"/>
    <path id="path68" fill="#5c3f4a" stroke="none" d="M 254.585007 290.622009 C 256.040985 290.552979 257.545013 290.521973 258.996002 290.684998 C 260.812988 290.889038 262.828003 291.672974 263.832001 293.290039 C 264.632996 294.580994 264.891998 296.599976 264.23999 297.988037 C 263.390991 299.796021 261.621002 300.734009 259.903015 301.55896 C 253.339996 304.708984 245.399002 306.221008 238.380005 308.096985 C 228.825338 310.739685 219.256002 313.327352 209.671997 315.859985 C 206.628006 316.737 203.514999 317.417969 200.434006 318.156006 C 213.210007 308.643005 239.061005 293.813965 254.585007 290.622009 Z"/>
    <path id="path69" fill="#5c3f4a" stroke="none" d="M 202.869995 391.578979 C 204.179993 391.492004 205.477005 391.464966 206.785004 391.617004 C 208.223007 391.783997 209.824005 392.365967 210.550995 393.723999 C 211.061005 394.676025 211.007004 395.458008 210.699997 396.447998 C 209.917007 398.979004 207.100006 401.165039 205.033005 402.624023 C 199.233994 406.714966 192.367004 409.723999 186.035004 412.926025 L 157.639999 427.278992 L 151.274002 430.207031 C 161.268997 417.525024 187.651001 396.125 202.869995 391.578979 Z"/>
    <path id="path70" fill="#5c3f4a" stroke="none" d="M 187.348007 506.531982 C 187.623001 506.530029 187.897995 506.52301 188.173004 506.523987 C 190.639999 506.531982 193.167007 507.26001 194.798996 509.254028 C 195.574997 510.200012 195.886002 511.299988 195.589996 512.51001 C 195.149002 514.317993 193.042007 515.869995 191.658997 516.927002 C 185.988998 521.265015 178.975006 524.674988 172.794006 528.301025 C 162.964996 534.067993 153.257996 540.10199 143.214005 545.48999 C 140.636002 546.804016 137.985992 548.002991 135.371002 549.244019 C 146.975998 535.281006 170.141998 512.53302 187.348007 506.531982 Z"/>
</svg>
