<?xml version="1.0" encoding="UTF-8"?>
<!-- Generated by Pixelmator Pro 2.4.7 -->
<svg width="1024" height="1024" viewBox="0 0 1024 1024" xmlns="http://www.w3.org/2000/svg" xmlns:xlink="http://www.w3.org/1999/xlink">
    <path id="Percorso" fill="#3f2322" stroke="none" d="M 609.132019 42.74292 C 618.924011 43.934692 632.507996 49.636475 641.843994 53.345825 C 675.669006 66.7854 708.090027 86.105225 733.289001 112.724976 C 740.164978 119.987976 745.830017 127.858032 752.18103 135.509033 C 748.276978 123.549011 745.322021 111.114014 741.804016 99.00647 C 739.275024 90.306702 735.953003 81.513428 733.883972 72.727905 C 733.72998 72.07312 733.822021 71.617126 734.046997 70.997803 C 734.801025 70.688721 735.034973 70.445313 735.869995 70.616699 C 738.583008 71.172913 741.61499 73.947083 743.804016 75.606812 C 757.833008 86.241333 770.960999 99.358826 780.781982 113.979004 C 795.107971 135.304016 805.278015 159.268005 802.323975 185.478027 C 801.757996 190.502991 799.421997 195.099976 798.781006 200.031982 C 798.442017 202.645996 807.099976 212.968994 808.940979 215.653015 C 813.776001 212.976013 818.869019 210.53302 824.156982 208.89801 C 835.872986 205.276978 845.903992 206.5 856.661011 212.27002 C 873.825012 221.479004 886.497986 239.502991 891.942993 257.985962 C 897.203003 275.839966 895.184021 294.364014 886.315002 310.587036 C 898.697021 314.093018 910.869019 313.615967 923.58197 313.545044 C 923.187012 303.842041 925.140015 294.494019 931.096008 286.63501 C 935.557007 280.747986 942.127014 275.643005 949.650024 274.795044 C 954.156006 274.287964 958.627014 275.450012 962.164001 278.332031 C 966.52301 281.884033 968.619019 287.18396 969.205017 292.656006 C 970.413025 303.945007 965.268982 318.827026 958.609009 327.843018 C 955.60498 331.908997 951.478027 335.650024 948.919006 339.966003 C 947.294006 342.707031 946.718018 346.421997 945.426025 349.39801 C 944.506673 351.501973 943.51766 353.572957 942.458984 355.610962 C 941.401001 357.648966 940.275675 359.648966 939.083008 361.610962 C 937.89034 363.572957 936.632996 365.492961 935.310974 367.370972 C 933.989644 369.248983 932.606649 371.080322 931.161987 372.86499 C 895.672974 417.237 827.65802 446.10199 774.094971 460.593018 C 762.314026 463.780029 750.408997 467.403992 738.249023 468.738037 C 746.651001 475.755981 755.14502 482.393005 761.820984 491.164001 C 758.721008 494.000977 754.89502 496.301025 751.508972 498.807007 C 744.340027 504.110962 737.242981 509.593994 730.684998 515.64502 C 730.801025 515.72699 730.919006 515.807983 731.033997 515.893005 C 743.075012 524.724976 772.393982 573.247009 779.116028 587.935974 C 782.783997 595.952026 785.71698 604.622986 787.122009 613.34198 C 790.249023 632.754028 788.945007 654.909973 777.718994 671.692017 C 774.557983 676.414978 770.356995 680.078979 767.093994 684.632019 L 766.750977 685.119995 C 770.518005 693.377014 772.458008 702.849976 775.583984 711.422974 C 783.159342 731.980998 791.113688 752.391337 799.447021 772.653992 C 807.173665 791.856669 815.388326 810.848002 824.091003 829.627991 C 827.547974 837.127014 836.479004 852.963013 838.13501 859.747986 C 838.828003 862.590027 838.28302 864.315002 836.682983 866.716003 C 830.531982 875.945007 810.663025 886.179016 800.257019 890.250977 C 794.745972 892.40802 789.077026 893.929993 783.276001 895.062988 C 778.843994 888.932007 774.669983 882.835022 770.817017 876.327026 C 759.963013 882.841003 748.653992 887.83197 737.060974 892.825989 C 743.465027 898.898987 762.377991 922.835022 765.393005 930.409973 C 789.054993 932.041992 812.294006 929.002991 835.770996 926.598999 C 844.283997 925.726013 853.718018 923.924988 862.234985 924.236023 C 863.911011 924.296997 865.52301 924.469971 866.632019 925.869995 C 867.156006 926.531006 867.114014 927.166992 866.989014 927.986023 C 866.63501 930.294006 863.075012 933.171021 861.278015 934.367004 C 839.75 948.684998 766.11499 982.36499 740.947021 977.505981 C 737.494995 974.494019 735.630005 971.799988 733.810974 967.585022 C 731.650024 962.577026 728.383972 954.976013 728.130005 949.52002 C 728.078003 948.382019 728.840027 946.900024 729.268005 945.836975 C 722.827026 930.414001 711.747986 918.038025 704.606018 903.103027 C 700.874023 903.656006 696.594971 904.669983 692.843018 904.359009 C 686.171997 903.807007 681.810974 893.775024 677.856018 888.960022 C 661.765015 893 633.603027 893.317017 616.528015 892.90802 C 617.656982 899.469971 623.030029 916.278015 621.906982 921.804016 C 621.63501 923.143982 621.083008 924.002991 619.890991 924.682983 C 614.507996 927.752991 597.575012 928.161987 591.000977 928.664978 C 536.093018 932.867004 479.070007 926.094971 425.571991 913.765991 C 407.368011 909.570007 389.583008 904.276978 371.545013 899.52301 C 369.404999 902.974976 366.561005 906.086975 363.604004 908.857971 C 351.338013 920.348999 338.763 920.596008 322.848999 919.965027 C 318.526001 925.375977 313.875 930.518005 309.524994 935.911011 C 320.221008 946.218994 337.734009 956.33197 351.238007 962.250977 C 354.767995 963.79366 358.358327 965.179342 362.009003 966.40802 C 367.166992 968.133972 383.742004 971.760986 386.802002 974.992004 C 387.734009 975.974976 387.790985 976.638 387.825989 977.939026 C 385.679993 979.320007 380.862 979.320007 378.166992 979.603027 C 356.970001 981.833008 335.384003 982.002014 314.261993 978.896973 C 293.598999 975.859009 262.756989 967.390991 249.669006 949.781982 C 255.130997 937.708008 266.174988 929.346008 275.002991 919.914978 C 278.884003 915.768005 282.177002 911.119995 286.085999 906.976013 C 284.035004 904.817993 281.966003 902.609009 280.22699 900.187012 C 274.466003 892.161987 275.792999 883.745972 277.312988 874.672974 C 270.134003 877.559021 263.520996 881.403015 256.10199 883.76001 C 255.052994 882.627991 253.862 881.442017 253.179001 880.04303 C 249.908005 873.333984 249.589005 859.781982 249.399002 852.198975 C 245.882996 854.401978 242.483002 856.61499 239.223999 859.187988 C 233.302002 863.929016 228.199997 869.166992 221.584 873.02301 L 221.182007 872.531982 C 211.720001 860.775024 211.110992 835.674011 212.727997 821.065002 C 207.58667 826.42568 202.578669 831.908346 197.703995 837.513 C 192.875 843.096985 187.740997 850.989014 181.647995 855.179993 L 181.005997 854.870972 C 179.548996 852.736023 179.285995 849.267029 178.710999 846.745972 C 174.444 828.054016 174.953995 810.182007 175.453995 791.184998 C 164.522003 802.125 155.050995 814.734009 143.621002 825.208984 C 142.600998 826.143982 142.003006 826.861023 140.565002 826.786011 C 140.134995 826.307983 139.854004 826.02002 139.475006 825.471008 C 133.307999 816.518982 145.606003 760.637024 147.970993 747.994019 C 141.608002 753.802002 134.667007 759.083984 128.108994 764.682983 C 122.907997 769.122986 111.529999 780 106.091003 782.911011 L 105.078003 782.408997 C 103.238998 778.900024 105.539001 774.728027 105.307999 771.013977 C 104.949997 765.257019 106.588997 759.237976 107.829002 753.645996 C 112.041 734.643005 118.198997 717.71698 126.717003 700.268005 C 129.470993 694.625977 132.115005 688.91803 135.386993 683.552979 C 121.181999 690.349976 108.521004 700.823975 94.987503 708.875 C 93.132103 709.978027 90.833801 711.655029 88.662498 711.116028 C 88.043198 710.416992 87.8004 709.815002 87.6297 708.911987 C 86.544296 703.171021 88.540703 695.369995 89.987099 689.767029 C 98.074501 658.442017 114.014999 632.159973 131.210007 605.192017 C 121.219002 611.14502 74.105202 635.89502 64.236099 635.267029 C 62.926201 635.182983 62.378101 634.942993 61.506901 633.995972 C 62.2812 632.565002 63.356998 631.36499 64.129303 629.924011 C 69.849197 619.245972 75.085503 608.601013 81.757896 598.439026 C 88.594902 588.026001 96.863503 577.546997 104.818001 567.961975 C 108.002998 564.124023 111.114998 560.038025 114.561996 556.445007 C 117.877998 552.987976 122.042999 549.879028 124.963997 546.117004 C 125.167999 545.854004 125.366997 545.585999 125.568001 545.320984 C 104.455002 550.718994 83.970901 560.062012 62.5186 564.002991 C 60.067799 564.453979 56.652302 565.213989 54.4841 563.732971 C 54.168201 562.814026 53.988499 562.637024 54.187099 561.630981 C 54.996399 557.530029 59.404598 552.991028 61.915298 549.659973 C 80.199898 525.400024 108.758003 496.625 133.417007 479.332031 C 126.091003 481.093018 118.682999 482.469971 111.398003 484.407959 C 99.282501 487.630981 86.415604 491.896973 74.0215 493.592041 C 72.612999 493.785034 70.656197 493.901001 69.403099 493.108032 C 68.904099 492.791992 68.060402 492.139038 68.072899 491.474976 C 68.133598 488.252014 73.958 482.243042 76.124496 479.671997 C 79.872965 475.263997 83.731166 470.954346 87.699097 466.743042 C 91.667033 462.531698 95.739535 458.424032 99.916603 454.420044 C 104.093534 450.415324 108.369667 446.519979 112.745003 442.734009 C 117.120333 438.947306 121.589333 435.274638 126.152 431.716003 C 133.981995 425.660034 142.774994 420.635986 150.227005 414.146973 L 150.789993 413.651978 C 135.264008 415.747986 96.598 421.367004 82.914497 418.875 C 80.903397 418.507996 79.145599 417.489014 77.377098 416.513 C 83.873299 408.89502 91.040497 402.155029 98.890198 395.954956 C 117.458 381.286987 157.134995 356.55603 179.328003 348.028015 C 173.940994 347.64502 168.453003 348.459961 163.052002 348.549988 C 153.459 348.709961 143.845993 348.547974 134.25 348.593994 C 124.128998 348.643005 114.614998 349.093994 104.531998 347.783997 C 104.570999 347.719971 104.611 347.656006 104.650002 347.592041 C 115.244003 329.942993 181.522995 300.937988 202.869003 292.669006 C 212.171997 289.065002 221.970993 286.697998 231.373993 283.342041 C 210.623001 281.130005 189.772003 280.080994 169.041 277.791992 C 164.343994 277.27301 158.899994 277.489014 154.356995 276.359985 C 153.285995 276.093994 153.093994 276.110962 152.537003 275.129028 C 156.427994 270.692993 163.934006 267.22998 169.151001 264.346985 C 206.5 243.707031 248.959 230.531006 290.807007 222.895996 C 274.953003 220.827026 259.220001 217.768005 243.427002 215.254028 C 235.429001 213.981018 220.863998 212.72699 213.839996 210.031006 L 213.464996 208.994019 C 213.735001 208.412964 213.753998 208.276001 214.263 207.742981 C 218.065002 203.763 233.274002 198.22998 238.748993 196.205994 C 275.376007 182.666992 336.130005 165.367004 375.139008 168.610962 C 364.040009 165.5 353.553986 161.192993 342.612 157.755981 C 333.726013 154.963989 310 149.424988 304.046997 145.802002 C 302.868988 145.085022 302.417999 144.90802 302.105988 143.536011 C 302.313995 143.294983 302.497986 143.031982 302.730011 142.813965 C 305.104004 140.59198 313.118011 139.502014 316.457001 138.733032 C 352.848999 130.35498 402.487 127.143982 439.427002 133.177979 C 425.148987 122.838013 409.554993 113.776978 394.627014 104.400024 C 389.082001 100.916992 382.537994 97.465393 377.458008 93.381897 C 376.432007 92.55719 376.234985 92.196167 375.787994 90.998901 C 376.135986 90.167603 376.022003 89.997375 376.877014 89.554993 C 381.605988 87.105713 390.295013 87.441589 395.580994 87.200073 C 427.221985 85.754822 458.263 89.291992 489.287994 95.301392 C 500.218994 97.418518 511.27301 99.572632 521.953003 102.752991 C 510.072998 91.426208 497.394989 80.936279 484.64801 70.60321 C 479.234009 66.214294 473.494995 62.066528 468.252014 57.485413 C 467.171997 56.541016 466.330994 55.827698 466.041992 54.363525 C 466.708008 53.369995 466.315002 53.588806 467.368011 53.279907 C 472.579987 51.749817 487.984009 53.617432 494.066986 54.20752 C 534.080017 58.088806 574.202026 68.073425 610.713013 85.050781 C 620.200012 89.46228 629.10498 94.893799 638.403992 99.665405 C 634.432983 92.790222 631.171997 85.653015 627.507996 78.625793 C 623.307007 70.570801 618.763977 62.705383 614.565979 54.641479 C 612.982971 51.601685 610.432007 48.981384 608.940002 46.001282 C 608.309998 44.742981 608.775024 43.992493 609.132019 42.74292 Z"/>
    <path id="path1" fill="#b0786d" stroke="none" d="M 472.100006 672.843994 C 474.29599 674.070007 476.248993 675.697998 478.242004 677.224976 L 471.493988 691.377991 C 470.928009 692.482971 470.766998 693.487 469.565002 693.924988 C 468.153015 691.59198 467.937988 686.788025 467.377991 683.982971 C 468.481995 680.125977 470.403015 676.473022 472.100006 672.843994 Z"/>
    <path id="path2" fill="#fbf9f3" stroke="none" d="M 691.138977 507.342041 C 691.669983 508.036011 691.981995 508.891968 692.348022 509.682983 C 693.450989 510.362 695.497009 511.463989 695.723999 512.836975 C 695.908997 513.952026 691.163025 534.987976 690.255005 536.481018 L 689.400024 536.302979 C 687.802979 533.536011 686.091003 530.763 684.676025 527.901001 C 681.864014 522.213989 685.528992 520.062012 688.132019 515.372009 C 689.473022 512.955994 690.250977 509.962036 691.138977 507.342041 Z"/>
    <linearGradient id="linearGradient1" x1="551.6748" y1="549.60858" x2="542.00171" y2="541.92853" gradientUnits="userSpaceOnUse">
        <stop offset="1e-05" stop-color="#b65f5c" stop-opacity="1"/>
        <stop offset="1" stop-color="#c28172" stop-opacity="1"/>
    </linearGradient>
    <path id="path3" fill="url(#linearGradient1)" stroke="none" d="M 530.682007 574.544983 C 535.554993 564.521973 541.104004 554.820984 546.224976 544.921997 C 550.133972 537.367004 557.278992 520.512024 562.521973 514.752014 C 562.734009 523.859985 557.401978 526.406006 556.737 533.263 C 556.72699 533.375977 556.705017 533.487 556.689026 533.598999 C 556.617981 534.70697 556.536011 535.796021 556.559998 536.906982 C 552.489014 543.617004 534.426025 571.427002 533.307007 576.215027 L 533.169006 576.857971 L 530.682007 574.544983 Z"/>
    <path id="path4" fill="#b0786d" stroke="none" d="M 822.760986 259.192017 C 824.473999 258.867004 826.406006 258.875977 828.156006 258.730957 C 829.260986 261.483032 830.070984 264.429993 830.982971 267.255981 C 821.903992 267.851013 814.15802 270.927002 806.114014 274.963989 L 801.539001 277.343018 C 800.565979 273.712036 799.458984 270.166016 798.242981 266.609009 C 800.143005 265.604329 802.087016 264.693319 804.075012 263.875977 C 806.063009 263.057983 808.085999 262.337992 810.143982 261.716003 C 812.201314 261.093323 814.283651 260.57133 816.390991 260.150024 C 818.498983 259.727987 820.622314 259.408651 822.760986 259.192017 Z"/>
    <path id="path5" fill="#b0786d" stroke="none" d="M 480.75 680.065002 C 484.958008 681.500977 488.70401 686.203003 492.690002 688.61499 C 487.520996 695.767029 483.394989 703.73999 478.791992 711.275024 L 476.119995 715.645996 C 474.556 710.807983 472.571014 706.070984 470.744995 701.325012 C 473.602997 693.992981 478.09201 687.513977 480.75 680.065002 Z"/>
    <path id="path6" fill="#fbf9f3" stroke="none" d="M 947.203979 283.98999 C 947.783997 283.958984 947.869019 283.942993 948.520996 283.968994 C 950.789978 284.05896 953.731018 285.014038 955.145996 286.894043 C 956.515991 288.713989 956.213989 291.237 955.71698 293.311035 C 954.039978 300.307983 948.515015 304.97699 942.671021 308.562012 C 940.843994 308.452026 938.677002 308.158997 937.210999 306.955994 C 934.60199 304.817993 934.44397 301.709961 934.080994 298.601013 C 936.934021 291.473022 940.044983 287.200989 947.203979 283.98999 Z"/>
    <path id="path7" fill="#fbf9f3" stroke="none" d="M 627.452026 507.953003 C 632.005981 510.908997 634.914001 515.841003 640.375977 517.429016 C 641.669983 517.804993 642.953979 518.208008 644.244019 518.598022 C 645.859985 520.71698 645.218994 523.135986 646.049988 525.489014 C 646.450989 526.625 647.025024 527.19397 648.046997 527.744995 C 649.176025 527.541992 650.176025 527.229004 651.268005 527.723999 C 650.434021 530.249023 650.336975 532.695007 649.719971 535.231995 C 648.067993 535.325012 646.679016 534.315979 645.208008 533.585022 C 636.828003 529.323975 627.982971 525.671997 619.426025 521.757019 C 622.166016 517.15802 624.140991 512.20697 627.452026 507.953003 Z"/>
    <path id="path8" fill="#9e897a" stroke="none" d="M 254.878998 849.60498 C 264.041992 853.666992 272.359009 860.057983 282.059998 862.734985 C 279.657013 865.859009 277.502991 867.627991 274.062988 869.450989 C 268.518005 872.249023 263.177002 875.083008 258.14801 878.75 C 257.209015 869.018005 255.511993 859.390015 254.878998 849.60498 Z"/>
    <linearGradient id="linearGradient2" x1="583.6507" y1="527.19873" x2="582.83423" y2="503.09906" gradientUnits="userSpaceOnUse">
        <stop offset="1e-05" stop-color="#261413" stop-opacity="1"/>
        <stop offset="1" stop-color="#421b19" stop-opacity="1"/>
    </linearGradient>
    <path id="path9" fill="url(#linearGradient2)" stroke="none" d="M 571.604004 502.438965 C 584.320984 505.838013 598.273987 510.94104 609.56897 517.760986 C 608.169006 519.078979 606.942993 520.617004 605.536011 521.893982 C 599.288025 518.992981 576.913025 507.684998 571.317017 507.721985 C 569.963013 507.730957 569.642029 508.156982 568.724976 509.006958 L 568.91803 509.747986 L 567.416016 510.844971 C 568.835999 511.969971 570.585022 512.906006 571.171021 514.633972 C 570.807007 515.838013 570.210999 517.094971 569.982971 518.314026 L 569.875977 518.86499 L 570.179016 520.258972 L 567.885986 523.064026 C 565.815979 525.596008 563.203979 527.028992 561.025024 529.302979 C 559.559998 530.833008 559.130005 533.512024 557.325012 534.637024 L 556.689026 533.598999 C 556.705017 533.487 556.72699 533.375977 556.737 533.263 C 557.401978 526.406006 562.734009 523.859985 562.521973 514.752014 L 562.112 513.45697 C 562.551025 512.190979 562.68103 511.421021 562.559021 510.083984 C 564.547974 505.822021 567.479004 504.265015 571.604004 502.438965 Z"/>
    <path id="path10" fill="#fbf9f3" stroke="none" d="M 569.875977 518.86499 C 568.950012 519.939026 568.190002 521.130005 566.744995 521.471985 L 566.080994 520.676025 C 565.580994 517.572021 566.208984 513.731995 567.416016 510.844971 C 568.835999 511.969971 570.585022 512.906006 571.171021 514.633972 C 570.807007 515.838013 570.210999 517.094971 569.982971 518.314026 L 569.875977 518.86499 Z"/>
    <path id="path11" fill="#fbf9f3" stroke="none" d="M 648.552979 474.765015 C 653.458984 476.151978 658.208984 478.27002 662.846008 480.363037 C 655.408997 488.739014 649.752991 497.912964 643.953979 507.44104 C 643.455017 508.400024 643.278992 508.708008 642.40802 509.406982 C 638.61499 508.56897 634.880981 503.957031 632.122009 501.290039 C 637.757019 492.52301 643.241028 483.730957 648.552979 474.765015 Z"/>
    <path id="path12" fill="#e27d78" stroke="none" d="M 673.638977 525.380981 L 678.655029 524.859009 C 681.405029 532.033997 684.419006 539.799988 688.286011 546.440002 L 687.588989 552.776001 C 676.866984 547.585327 666.106323 542.475667 655.307007 537.447021 C 656.039978 534.10199 656.775024 530.864014 656.721008 527.416016 C 658.362976 526.072021 670.716003 525.679016 673.638977 525.380981 Z"/>
    <path id="path13" fill="#fbf9f3" stroke="none" d="M 704.926025 472.234009 C 705.945984 472.072998 706.049988 471.903992 707.021973 472.369995 C 707.106018 472.792969 707.190979 473.117004 707.213013 473.539001 C 707.601013 480.997986 700.586975 498.799011 695.690979 504.769043 C 693.322021 501.110962 690.541992 497.742004 687.838989 494.328979 C 683.796997 488.886963 678.966003 484.046021 674.775024 478.702026 C 684.297974 474.815002 694.721008 473.101013 704.926025 472.234009 Z"/>
    <path id="path14" fill="#9e897a" stroke="none" d="M 218.548996 824.213989 C 218.600998 824.244995 218.656998 824.270996 218.705002 824.309021 C 228.328995 831.796997 239.524994 837.461975 248.828995 845.310974 C 244.740005 847.781006 240.718994 850.255005 236.839005 853.049988 C 232.041 856.557983 227.686996 860.599976 223.337006 864.633972 C 220.151001 851.072998 218.427002 838.171997 218.548996 824.213989 Z"/>
    <path id="path15" fill="#fbf9f3" stroke="none" d="M 290.509003 910.083984 C 298.412994 914.853027 305.204987 917.671997 314.227997 919.479004 C 310.40799 925.182983 305.321991 929.875977 301.998993 935.937012 L 297.721008 937.080994 C 289.588013 939 281.268005 936.661011 274.196991 932.646973 C 280.862 925.880005 286.213989 918.583008 290.509003 910.083984 Z"/>
    <path id="path16" fill="#b0786d" stroke="none" d="M 837.606018 211.286011 C 842.375977 211.526001 847.122986 212.85199 851.502014 214.729004 C 867.052002 221.391968 878.330017 236.839966 884.455017 252.161987 C 890.741028 267.890991 892.874023 285.052979 885.937988 301.000977 C 884.89502 303.39801 883.000977 307.000977 880.335022 307.911011 C 879.260986 308.276978 879.271973 308.255981 878.237976 307.698975 C 878.000977 306.661987 877.921021 306.219971 878.275024 305.167969 C 878.895996 303.325989 880.356995 301.596985 881.258972 299.848999 C 883.034973 296.405029 883.877991 292.645996 884.630981 288.872009 C 885.083008 286.960999 885.401978 285.057983 885.539001 283.098022 C 886.713989 266.312988 878.278992 246.122009 867.335022 233.640015 C 860.05603 225.338989 848.869019 217.325989 837.48999 216.78302 C 828.492981 216.354004 821.344971 220.083008 815.004028 226.044983 L 811.963989 219.937012 C 819.971008 214.311035 827.882996 211.802979 837.606018 211.286011 Z"/>
    <path id="path17" fill="#fbf9f3" stroke="none" d="M 573.625977 520.703979 C 578.021973 522.338013 582.26001 524.200989 586.525024 526.142029 C 594.653992 530.268005 647.461975 557.575012 652.864014 558.281006 C 658.991028 561.72699 665.726013 564.426025 672.130981 567.343018 C 689.849976 575.952026 708.525024 584.604004 726.625977 592.377991 C 728.856995 593.346985 738.481018 597.973022 739.192993 599.533997 L 738.822998 600.268005 C 735.218018 599.515991 731.450989 597.53302 728 596.169983 C 715.773987 591.34198 703.974976 585.979004 691.955994 580.684998 C 665.797974 569.164978 639.739014 557.924011 613.997009 545.492981 C 604.426025 540.872009 594.705994 536.671021 585.497009 531.374023 C 583.690979 530.335999 581.327026 528.588989 579.23999 529.150024 L 578.452026 530.937988 C 575.622009 528.83197 573.312012 526.726013 571.036987 524.041992 L 573.625977 520.703979 Z"/>
    <path id="path18" fill="#fbf9f3" stroke="none" d="M 720.822998 523.864014 C 722.877686 540.647339 725.557027 557.330668 728.861023 573.914001 C 722.873027 570.989319 716.974345 567.894653 711.164978 564.630005 C 705.981995 561.348999 699.953979 558.960022 694.393982 556.380005 C 698.552002 544.632019 711.942017 532.460999 720.822998 523.864014 Z"/>
    <path id="path19" fill="#b0786d" stroke="none" d="M 567.755981 529.208008 C 570.406006 531.213989 573.135986 532.997986 575.958008 534.752014 C 572.231018 539.083008 569.468994 546.177002 566.710022 551.288025 C 560.539978 562.716003 553.23999 576.28302 545.432983 586.585999 C 541.405029 583.745972 535.968018 580.984985 533.169006 576.857971 L 533.307007 576.215027 C 534.426025 571.427002 552.489014 543.617004 556.559998 536.906982 L 559.549011 538.72998 C 561.961975 535.237 564.616028 532.065979 567.755981 529.208008 Z"/>
    <path id="path20" fill="#3f2322" stroke="none" d="M 533.307007 576.215027 C 534.426025 571.427002 552.489014 543.617004 556.559998 536.906982 L 559.549011 538.72998 C 554.02301 547.770996 541.177002 570.741028 533.307007 576.215027 Z"/>
    <path id="path21" fill="#9e897a" stroke="none" d="M 653.562988 856.169006 C 654.781006 856.935974 668.875 878.148987 670.526001 880.874023 C 657.085022 883.21698 642.989014 883.573975 629.375 883.482971 L 616.504028 883.541992 C 615.552002 876.705994 615.325989 869.617004 614.026001 862.86499 C 627.257996 860.5 640.367004 859.028992 653.562988 856.169006 Z"/>
    <path id="path22" fill="#e27d78" stroke="none" d="M 668.458008 480.339966 C 676.072021 485.80896 682.854004 496.073975 688.86499 503.416992 C 686.590027 509.422974 685.234009 516.098999 681.802002 521.570007 C 679.643005 521.859009 675.539001 521.91803 673.682983 522.823975 L 673.638977 525.380981 C 670.716003 525.679016 658.362976 526.072021 656.721008 527.416016 L 656.171997 526.526001 L 656.617004 525.142029 L 657.059021 524.783997 C 655.338013 524.674011 653.638977 524.736023 651.921021 524.687012 C 650.099976 524.633972 649.124023 524.469971 647.846985 523.150024 C 647.710022 521.745972 647.713989 521.044006 648.22998 519.682983 C 648.125977 506.69104 659.723999 489.442017 668.458008 480.339966 Z"/>
    <linearGradient id="linearGradient3" x1="667.21259" y1="527.73425" x2="660.57428" y2="522.01306" gradientUnits="userSpaceOnUse">
        <stop offset="1e-05" stop-color="#000000" stop-opacity="1"/>
        <stop offset="1" stop-color="#180b12" stop-opacity="1"/>
    </linearGradient>
    <path id="path23" fill="url(#linearGradient3)" stroke="none" d="M 648.22998 519.682983 C 648.530029 521.169006 648.531982 522.190979 649.525024 523.357971 C 656.755981 524.697021 666.344971 523.697021 673.682983 522.823975 L 673.638977 525.380981 C 670.716003 525.679016 658.362976 526.072021 656.721008 527.416016 L 656.171997 526.526001 L 656.617004 525.142029 L 657.059021 524.783997 C 655.338013 524.674011 653.638977 524.736023 651.921021 524.687012 C 650.099976 524.633972 649.124023 524.469971 647.846985 523.150024 C 647.710022 521.745972 647.713989 521.044006 648.22998 519.682983 Z"/>
    <path id="path24" fill="#fbf9f3" stroke="none" d="M 732.304993 894.452026 C 732.370972 894.440002 732.435974 894.409973 732.502991 894.414978 C 732.817993 894.439026 733.155029 894.411011 733.442993 894.541016 C 734.854004 895.174011 738.853027 902.440979 739.869019 903.989014 C 746.435974 914.005981 753.541016 923.989014 761.054016 933.31897 C 753.427979 937.526001 745.357971 940.296021 737.112976 942.973022 L 735.244019 943.564026 C 733.848022 942.955017 723.520996 924.854004 721.732971 922.109009 C 717.330994 915.35199 712.387024 908.971008 708.166016 902.096985 C 716.515991 899.974976 724.325989 897.742004 732.304993 894.452026 Z"/>
    <path id="path25" fill="#fbf9f3" stroke="none" d="M 730.052002 469.237 L 731.059021 469.139038 C 733.520996 474.886963 746.922974 485.252014 752.004028 489.921997 C 746.705017 494.385986 740.976013 498.427979 735.55603 502.755981 C 724.843994 511.311035 714.802002 520.676025 706.094971 531.281006 C 702.614014 535.684021 699.554993 540.325989 696.468994 545.007019 C 698.119019 535.406006 700.025024 525.911987 702.612976 516.513 C 705.411011 506.348999 708.958008 496.127991 711.007996 485.787964 C 711.791016 481.835999 711.973022 477.630005 712.494019 473.619019 C 715.244995 470.255981 725.767029 469.834961 730.052002 469.237 Z"/>
    <path id="path26" fill="#fbf9f3" stroke="none" d="M 619.215027 661.862976 C 628.460999 661.004028 638.036987 660.218994 647.323975 660.585022 C 643.098022 662.057983 638.442017 663.393982 634.512024 665.539001 C 632.46698 666.656006 631.049011 667.546021 630.393982 669.854004 C 630.905029 671.302979 631.757996 671.901001 632.909973 672.822021 C 633.06897 672.914978 633.226013 673.01001 633.385986 673.10199 C 638.471008 676.015991 644.705017 677.336975 650.424011 678.343994 C 655.645996 679.263 675.132019 680.234009 677.609009 685.15802 C 676.870972 686.500977 675.492981 686.952026 674.065979 687.393005 C 667.208984 689.510986 659.892029 688.708008 653.247986 691.671021 C 660.320007 693.505005 668.242981 693.481995 675.502991 692.924988 L 670.005981 695.947021 C 665.275024 697.403015 648.578003 698.846008 645.866028 700.685974 L 645.745972 701.596008 C 645.853027 701.721985 645.942993 701.866028 646.067017 701.976013 C 649.255981 704.812012 660.629028 703.380981 664.674011 702.982971 C 662.179016 704.52301 659.747986 705.934998 656.991028 706.958984 C 639.062988 713.617981 620.544006 705.950012 604.176025 698.435974 C 609.508972 686.327026 614.406006 674.184998 619.215027 661.862976 Z"/>
    <path id="vestitodx" fill="#9e897a" stroke="none" d="M 287.794006 866.708984 C 300.097331 872.920329 312.629995 878.627991 325.391998 883.83197 C 338.154002 889.035339 351.104665 893.717692 364.243988 897.879028 C 361.22699 901.713013 357.664001 904.432983 353.709991 907.244995 C 353.537994 907.361023 353.367004 907.47998 353.192993 907.593018 C 344.476013 913.268982 330.600006 913.625 320.707001 911.554016 C 310.492004 909.416016 290.718994 902.357971 284.945007 893.112976 C 281.583008 887.72998 286.355988 872.875977 287.794006 866.708984 Z"/>
    <path id="path27" fill="#945f5b" stroke="none" d="M 271.199005 934.903015 C 273.524994 936.437012 275.815002 937.971985 278.39801 939.049011 C 286.753998 942.534973 296.45401 942.117004 304.769012 938.700012 C 321.872986 958.630981 348.721008 967.905029 373.040985 975.278992 C 369.425995 975.380005 365.828003 975.640991 362.221985 975.900024 C 354.360992 975.991028 346.338989 976.453003 338.493988 976.021973 C 311.260986 974.523987 278.527008 967.612976 258.354004 948.336975 C 262.243988 943.54303 266.661011 939.080017 271.199005 934.903015 Z"/>
    <path id="path28" fill="#3f2322" stroke="none" d="M 300.164001 949.840027 C 302.757996 949.911987 314.615997 957.593018 318.768005 959.271973 C 323.431 961.15802 328.630005 960.968994 333.277008 962.810974 C 334.203003 963.90802 334.061005 963.883972 333.944 965.335999 C 333.049011 965.46698 332.148987 965.583008 331.243988 965.612 C 322.894989 965.88501 309.141998 960.914978 303.087006 955.15802 C 301.480988 953.630005 300.17099 952.127014 300.164001 949.840027 Z"/>
    <path id="path29" fill="#fbf9f3" stroke="none" d="M 443.259003 642.422974 C 446.278015 644.651001 451.507996 651.554993 454.009003 654.809021 C 452.971985 656.116028 451.881012 657.280029 450.647003 658.406006 C 425.56601 681.288025 383.894012 685.458984 351.377991 683.862976 C 347.947998 683.572998 344.699005 682.810974 341.355988 682.018982 C 340.287994 676.96698 340.325989 672.338013 340.59201 667.190979 C 349.82901 666.64502 359.125 667.585999 368.369995 667.252014 C 398.049988 666.177979 418.110992 656.656982 443.259003 642.422974 Z"/>
    <path id="path30" fill="#945f5b" stroke="none" d="M 851.078003 931.283997 L 851.315979 931.414978 L 850.97699 932.005005 C 841.000977 937.202026 830.619019 941.166992 820.255981 945.463989 C 798.073975 954.664001 765.271973 968.091003 741.877014 971.260986 L 739.817017 965.119019 C 737.789022 959.018351 735.820007 952.898682 733.909973 946.76001 C 747.10199 945.312988 754.132019 941.984985 765.257019 935.33197 C 774.840027 935.445984 784.375 936.325989 793.973999 935.901001 C 813.052002 935.057007 832.018982 932.22699 851.078003 931.283997 Z"/>
    <path id="path31" fill="#3f2322" stroke="none" d="M 815.216003 936.75 L 815.698975 936.671997 C 817.513977 936.388977 819.120972 936.002014 820.666992 937.132996 C 820.892029 938.265015 820.927002 938.48999 820.565979 939.575989 C 812.211975 943.491028 779.099976 948.163025 769.06897 947.208984 C 767.442993 946.971985 765.500977 946.700012 764.01001 946.002014 C 763.036011 945.546021 762.955994 945.521973 762.583008 944.482971 C 764.544983 943.314026 774.687012 943.169983 777.580994 942.867004 C 790.23999 941.544983 802.583984 938.31897 815.216003 936.75 Z"/>
    <path id="path32" fill="#fbf9f3" stroke="none" d="M 568.91803 509.747986 L 568.724976 509.006958 C 569.642029 508.156982 569.963013 507.730957 571.317017 507.721985 C 576.913025 507.684998 599.288025 518.992981 605.536011 521.893982 C 613.449992 525.993347 621.453979 529.908346 629.547974 533.638977 C 643.781982 540.211975 724.122009 575.40802 728.768005 580.77002 C 729.119019 582.570007 729.030029 584.172974 728.911987 585.995972 C 728.862 587.559021 729.039978 589.546021 728.200989 590.888977 L 727.523987 590.66803 L 726.625977 592.377991 C 708.525024 584.604004 689.849976 575.952026 672.130981 567.343018 C 665.726013 564.426025 658.991028 561.72699 652.864014 558.281006 C 647.461975 557.575012 594.653992 530.268005 586.525024 526.142029 C 582.26001 524.200989 578.021973 522.338013 573.625977 520.703979 L 573.111023 517.98999 L 569.982971 518.314026 C 570.210999 517.094971 570.807007 515.838013 571.171021 514.633972 C 570.585022 512.906006 568.835999 511.969971 567.416016 510.844971 L 568.91803 509.747986 Z"/>
    <path id="path33" fill="#3f2322" stroke="none" d="M 568.91803 509.747986 C 575.734985 511.940002 584.599976 515.02002 590.528015 519.197998 L 590.015991 521.098022 C 585.572021 519.177979 581.60498 516.315979 576.778992 515.408997 C 575.242981 515.85498 575.112976 516.382019 574.179993 517.637024 C 578.857971 519.973022 584.088013 521.914001 588.552002 524.58197 L 586.525024 526.142029 C 582.26001 524.200989 578.021973 522.338013 573.625977 520.703979 L 573.111023 517.98999 L 569.982971 518.314026 C 570.210999 517.094971 570.807007 515.838013 571.171021 514.633972 C 570.585022 512.906006 568.835999 511.969971 567.416016 510.844971 L 568.91803 509.747986 Z"/>
    <path id="path34" fill="#3f2322" stroke="none" d="M 672.638 564.935974 C 683.349976 570.143005 694.244995 574.869995 705.127014 579.700012 C 712.325012 582.89502 721.185974 585.989014 727.523987 590.66803 L 726.625977 592.377991 C 708.525024 584.604004 689.849976 575.952026 672.130981 567.343018 L 672.638 564.935974 Z"/>
    <path id="path35" fill="#3f2322" stroke="none" d="M 590.528015 519.197998 C 607.177979 526.307983 623.414001 534.830994 639.609985 542.924988 C 646.390991 546.314026 653.372009 549.289001 660.158997 552.661011 C 657.38501 552.491028 654.854004 551.338989 652.060974 551.276001 C 644.86499 548.937988 637.544006 544.45697 630.734009 541.072998 C 617.230672 534.27299 603.658 527.614665 590.015991 521.098022 L 590.528015 519.197998 Z"/>
    <linearGradient id="linearGradient4" x1="693.10822" y1="566.01373" x2="691.39178" y2="570.48627" gradientUnits="userSpaceOnUse">
        <stop offset="1e-05" stop-color="#2a0200" stop-opacity="1"/>
        <stop offset="1" stop-color="#2e251f" stop-opacity="1"/>
    </linearGradient>
    <path id="path36" fill="url(#linearGradient4)" stroke="none" d="M 652.060974 551.276001 C 654.854004 551.338989 657.38501 552.491028 660.158997 552.661011 C 666.252991 554.362 725.445984 580.364014 727.416992 584.120972 C 727.624023 584.515991 727.794006 584.929993 727.979004 585.335999 C 721.458008 584.460999 699.138977 572.333008 691.539001 568.901978 C 678.468018 563.000977 664.802002 557.815002 652.060974 551.276001 Z"/>
    <path id="path37" fill="#3f2322" stroke="none" d="M 586.525024 526.142029 L 588.552002 524.58197 C 603.97699 532.499023 619.734985 539.875977 635.388 547.333008 C 642.487976 550.715027 650.885986 553.823975 657.39502 558.15802 C 662.460022 559.450989 667.900024 562.651978 672.638 564.935974 L 672.130981 567.343018 C 665.726013 564.426025 658.991028 561.72699 652.864014 558.281006 C 647.461975 557.575012 594.653992 530.268005 586.525024 526.142029 Z"/>
    <path id="path38" fill="#fbf9f3" stroke="none" d="M 808.901978 822.893982 C 811.335999 823.783997 815.413025 833.520996 816.835022 836.208008 C 821.723999 845.448975 827.231018 854.124023 833.882996 862.198975 C 825.271973 866.903992 817.382019 873.317017 808.883972 878.359985 C 801.5 882.742004 793.453003 885.864014 786.161987 890.338989 C 785.409973 890.995972 784.896973 891.390015 783.940979 891.698975 C 781.893005 888.515015 780.853027 884.280029 779.255005 880.791992 C 773.166016 867.499023 767.294006 854.541016 762.244995 840.799011 C 764.312337 840.449687 766.36967 840.049357 768.416992 839.598022 C 770.464315 839.146688 772.498983 838.644348 774.520996 838.091003 C 776.54366 837.53835 778.551005 836.935689 780.54303 836.28302 C 782.535665 835.629659 784.510661 834.927653 786.468018 834.177002 C 788.425334 833.425659 790.362671 832.626322 792.280029 831.778992 C 794.197347 830.93101 796.092672 830.036011 797.966003 829.093994 C 799.838684 828.152018 801.687012 827.164022 803.510986 826.130005 C 805.335002 825.095988 807.131999 824.017314 808.901978 822.893982 Z"/>
    <path id="path39" fill="#fbf9f3" stroke="none" d="M 832.19397 221.588989 C 839.900024 221.030029 846.484985 223.088989 852.869995 227.311035 C 866.617981 236.400024 876.405029 251.908997 879.55603 268.046021 C 882.197021 281.570007 880.43103 293.922974 872.703003 305.380981 C 871.073975 304.541992 869.523987 303.546997 867.960022 302.593018 C 862.112 298.520996 841.460999 280.901978 839.927002 274.93396 L 840.982971 273.93103 C 842.359985 268.098999 819.940002 238.745972 817.708984 230.484009 C 817.406982 229.367004 817.54303 228.929016 818.219971 227.983032 C 820.56897 224.703003 828.361023 222.380981 832.19397 221.588989 Z"/>
    <path id="path40" fill="#3f2322" stroke="none" d="M 847.781982 257.674011 L 849.117981 258.106995 C 849.981995 259.092997 850.758667 260.143677 851.447998 261.259033 C 852.137329 262.373698 852.729655 263.538025 853.224976 264.752014 C 854.299011 267.440002 854.995972 269.240967 853.828979 272.031982 C 851.879028 270.778992 850.83197 268.630005 849.77002 266.622986 C 848.330994 263.903015 846.85498 260.688965 847.781982 257.674011 Z"/>
    <path id="path41" fill="#fbf9f3" stroke="none" d="M 729.721008 516.367004 C 730.370972 516.953979 730.262024 516.737976 730.599976 517.390991 C 735.130005 526.138977 740.874023 533.888 746.085999 542.223022 C 758.304016 561.76001 770.109009 582.744019 776.36499 605.051025 C 782.604004 627.296997 779.169983 651.973022 767.841003 672.015015 L 764.184998 677.388 C 757.187012 654.099976 751.356018 630.43103 745.28302 606.88501 C 746.236023 604.664978 748.510986 600.721008 748.203003 598.346008 C 748.049988 597.164978 747.715027 596.416992 746.695984 595.734009 C 745.393982 594.861023 743.427002 595.265015 741.963989 595.424011 L 725.106995 520.231995 L 729.721008 516.367004 Z"/>
    <path id="path42" fill="#fbf9f3" stroke="none" d="M 568.934998 768.041016 C 580.505981 772.732971 592.427979 776.369995 604.312988 780.164978 C 602.880005 792.390991 603.453003 804.80603 603.703979 817.078003 C 603.906982 827.070984 603.893982 837.060974 604.145996 847.054016 C 604.218994 849.974976 605.197021 863.794983 604.791016 865.359009 C 604.68103 865.781982 604.403015 866.143982 604.208984 866.536011 L 602.593994 866.892029 C 589.822021 867.685974 577.104004 867.508972 564.315979 867.393982 C 564.70697 834.278992 568.458008 801.18103 568.934998 768.041016 Z"/>
    <path id="path43" fill="#fbf9f3" stroke="none" d="M 583.289001 616.372009 C 595.401001 621.494995 607.791992 625.666992 620.39502 629.401978 C 613.60498 656.75 604.432007 685.036987 588.351013 708.484985 C 586.862 710.655029 581.630005 718.64502 579.192017 719.10199 C 573.742004 717.166016 567.89502 716.231018 562.34198 714.572021 C 555.119019 712.414978 548.041992 709.471985 541.093994 706.560974 C 562.960022 686.466003 580.729004 645.609009 583.289001 616.372009 Z"/>
    <linearGradient id="linearGradient5" x1="607.02863" y1="370.20209" x2="463.10333" y2="306.25043" gradientUnits="userSpaceOnUse">
        <stop offset="1e-05" stop-color="#ac7864" stop-opacity="1"/>
        <stop offset="1" stop-color="#a28f7f" stop-opacity="1"/>
    </linearGradient>
    <path id="path44" fill="url(#linearGradient5)" stroke="none" d="M 636.028992 288.983032 L 636.828979 289.505981 C 638.156982 293.356995 638.768982 297.549988 639.578003 301.541992 C 628.879028 303.627991 613.155029 310.684998 602.583984 314.884033 C 570.26001 327.72699 479.140991 364.973999 458.15799 387.729004 C 467.833008 384.676025 482.390015 375.5 491.733002 370.47699 C 487.726013 383.06897 486.065002 396.572021 483.54599 409.539001 C 469.066986 403.469971 441.595001 388.583008 429.839996 378.804993 C 437.252014 372.083008 443.528992 364.454956 449.894989 356.771973 C 454.596008 351.765991 458.718994 345.882996 463.135986 340.593994 C 470.735992 331.492004 478.667999 322.624023 486.398987 313.627991 C 491.731995 317.260986 497.140015 320.235962 503.009003 322.919006 C 500.593994 331.911987 497.710999 340.756958 495.38501 349.794006 C 487.506989 354.567993 451.951996 376.280029 450.238007 383.172974 C 451.945007 383.480957 454.095001 382.200989 455.558014 381.421997 C 460.829987 378.61499 465.838989 374.927979 470.829987 371.639038 C 482.684998 363.828003 494.730011 355.364014 507.097992 348.426025 C 528.987976 336.146973 551.890991 325.811035 574.755981 315.510986 C 595.030029 306.379028 615.344971 297.164001 636.028992 288.983032 Z"/>
    <path id="path45" fill="#fbf9f3" stroke="none" d="M 738.653992 619.291992 L 739.434021 620.263 C 741.046997 631.762024 744.870972 643.692993 747.674988 654.974976 C 759.213013 701.398987 775.401001 745.429993 793.914001 789.505005 C 797.955994 799.127991 803.10199 808.249023 807.088013 817.885986 C 797.377991 823.791992 788.070984 827.934998 777.377991 831.71698 C 771.822998 833.560974 766.286011 835.528992 760.593994 836.908997 C 753.156982 821.521973 747.911011 804.919006 742.84198 788.625977 C 734.143005 760.666016 726.968018 732.752991 720.479004 704.21698 C 717.919006 692.960999 714.499023 681.552002 713.150024 670.083984 C 721.164978 652.945007 732.133972 637.119995 738.653992 619.291992 Z"/>
    <path id="path46" fill="#fbf9f3" stroke="none" d="M 723.375977 189.703979 C 725.526001 189.098999 728.419983 189.359985 730.700989 189.330017 C 744.237 189.156006 758.687012 189.734009 771.679016 193.817993 C 798.616028 202.285034 811.679993 230.265015 823.796021 253.52002 C 814.028992 254.622009 805.81897 257.342041 796.965027 261.575012 C 791.370972 248.533997 782.612 234.792969 772.575989 224.833008 C 758.255005 210.619019 739.44397 200.895996 718.924988 201.099976 C 697.13501 201.317993 674.395996 210.007019 659.054993 225.69397 C 644.471985 240.606018 637.192993 260.046997 637.499023 280.837036 C 627.559998 285.731995 616.91803 289.497009 606.762024 293.973022 C 587.999329 302.394328 569.343648 311.046305 550.794983 319.928955 C 533.424011 327.846008 517.572998 338.242004 500.69101 347.01001 C 503.618988 340.140991 505.319 332.187988 507.436005 324.989014 C 512.44397 324.778015 517.119019 324.26001 521.968018 322.937988 C 518.838013 322.328003 515.724976 321.682983 512.66803 320.765991 C 493.921997 315.14502 473.460999 300.101013 464.091003 282.723999 C 469.070007 281.125 474.343994 280.450012 479.48999 279.585999 C 495.403992 276.911987 510.997009 275.084961 527.161987 275.307983 C 538.710999 275.467041 550.348999 276.519043 561.88501 275.807983 C 551.969971 271.005981 541.486023 270.041992 530.643982 269.499023 C 539.83197 261.698975 550.596985 255.608032 560.95697 249.507996 C 591.094971 231.763 622.361023 216.026001 655.370972 204.379028 C 661.749023 202.127991 668.197021 199.64502 674.729004 197.891968 C 685.825012 194.912964 697.263 192.338989 708.676025 190.934021 C 713.375977 190.356018 718.109985 190.411987 722.791016 189.786011 L 723.375977 189.703979 Z"/>
    <path id="path47" fill="#3f2322" stroke="none" d="M 499.546997 285.661987 C 507.627991 284.795044 520.195007 285.161011 527.601013 288.940002 C 528.95697 289.631958 530.078003 290.320007 530.585022 291.765015 C 529.718018 292.43396 528.903992 292.481995 527.840027 292.481995 C 524.086975 292.479004 520.156982 291.769043 516.388 291.505005 C 509.639008 291.032959 503.031006 290.969971 496.27301 291.204956 C 501.751007 294.945007 507.958008 297.927979 514.054993 300.499023 C 519.294006 302.625977 524.312988 304.127014 529.719971 305.734009 C 531.017029 306.119995 532.796997 306.575012 533.450989 307.786011 C 533.349976 307.884033 533.260986 307.999023 533.146973 308.080994 C 530.200989 310.210999 522.304993 308.881958 519.017029 308.160034 C 510.444 306.278015 494.677002 299.346985 490.243011 291.335999 C 489.584991 290.145996 489.673004 289.622986 490.100006 288.389038 C 492.281006 286.460999 496.731995 286.134033 499.546997 285.661987 Z"/>
    <path id="path48" fill="#fbf9f3" stroke="none" d="M 389.86499 353.872009 C 402.439006 351.761332 415.044342 349.85734 427.681 348.160034 C 434.026001 347.322998 440.463013 346.86499 446.781006 345.924988 C 439.423004 355.120972 431.14801 364.507996 422.52301 372.514038 C 415.040009 367.557007 409.329987 360.679993 401.411011 356.109009 C 403.550995 359.682983 405.643005 363.393005 408.230011 366.665039 C 414.511993 374.612 422.710999 381.713989 430.707001 387.928955 C 461.279999 411.695007 496.856995 426.385986 533.380005 438.415039 C 544.132019 441.955994 555.051025 445.651978 566.026001 448.426025 C 581 452.210999 596.426025 456.184998 611.640015 458.775024 C 622.273987 460.585999 633.268982 461.161987 643.815002 463.23999 C 639.981995 470.55896 635.218994 477.483032 631.015015 484.613037 C 626.453979 492.346008 616.289978 512.523987 610.875 517.887024 C 609.754028 517.893982 610.169006 518.031982 609.56897 517.760986 C 598.273987 510.94104 584.320984 505.838013 571.604004 502.438965 C 567.479004 504.265015 564.547974 505.822021 562.559021 510.083984 C 555.455017 508.890991 547.893982 504.572998 541.132019 502.010986 C 503.091003 487.593994 426.716003 453.037964 403.505005 420.674011 C 393.058014 406.105957 393.700989 389.119995 390.696991 372.342041 C 398.989014 385.717041 410.213989 396.093994 423.691986 404.217041 L 423.252991 403.60498 C 419.675995 398.688965 415.088989 394.476013 410.988007 389.997009 C 402.069 380.255005 392.542999 366.953003 389.86499 353.872009 Z"/>
    <g id="vestito">
        <path id="path49" fill="#9e897a" stroke="none" d="M 706.390991 681.978027 C 707.536987 683.375 709.336975 697.567993 709.890015 700.335999 C 712.375 712.796997 715.218994 725.312988 718.195984 737.666016 C 722.611023 755.984985 727.489014 773.927002 733.008972 791.942993 C 735.398987 799.744019 737.619019 807.671997 740.481995 815.315979 C 745.330994 828.263 750.914001 841.633972 757.052002 854.007996 C 760.166992 860.289001 763.724976 866.400024 767.008972 872.601013 C 760.067993 875.59198 753.314026 878.994995 746.333984 881.909973 C 728.604004 889.315979 710.867004 895.077026 692.213013 899.642029 C 687.007019 893.242004 683.017029 885.679016 678.252014 878.914978 C 672.429016 870.64801 665.551025 862.838013 660.421997 854.132996 C 670.013346 851.412984 679.437012 848.200989 688.692993 844.497009 C 695.835999 841.655029 702.97998 838.59198 709.53302 834.544983 C 712.359985 832.797974 720.257996 828.08197 720.802002 824.599976 C 720.924011 823.820007 720.630981 823.710999 720.210999 823.125 C 717.684021 823.031982 692.742981 833.939026 687.244019 835.758972 C 679.776001 838.232971 672.01001 840.06897 664.416016 842.132996 C 647.328003 846.778015 630.60498 850.934021 613.098022 853.736023 L 613.502991 782.435974 C 622.13501 785.382996 636.84198 791.327026 645.637024 788.090027 C 647.781006 787.301025 649.846985 783.815002 651.078003 781.887024 C 657.517029 771.802979 662.655029 760.658997 668.598022 750.267029 C 678.218018 733.442993 687.612976 716.593994 696.80603 699.536987 C 699.971985 693.661987 703.471985 687.984985 706.390991 681.978027 Z"/>
    </g>
    <path id="path50" fill="#fbf9f3" stroke="none" d="M 224.287994 768.169983 C 227.253006 770.093994 229.998993 772.468018 232.919998 774.484009 C 241.298996 780.268982 250.100998 785.906006 258.990997 790.892029 C 301.86499 814.937988 348.023987 832.369995 395.140991 846.018982 C 439.588013 858.893982 483.923004 868.30603 530.146973 871.523987 C 543.469971 872.452026 557.122986 873.450012 570.473022 873.210022 C 576.03302 873.109985 601.708008 870.794006 604.91803 872.133972 C 606.419006 877.20697 605.747009 882.937012 606.562988 888.16803 C 607.385986 893.448975 608.624023 898.698975 609.541016 903.973022 C 610.002991 906.630981 610.072998 909.411011 610.648987 912.031006 C 611.036011 913.789978 611.994995 915.14801 612.190979 916.981995 C 611.275024 918.26001 610.736023 918.088989 609.236023 918.396973 C 586.309998 918.192993 563.255981 918.507996 540.361023 917.27301 C 535.296326 917.046326 530.234985 916.759664 525.177002 916.413025 C 520.118327 916.066996 515.064992 915.66099 510.016998 915.195007 C 504.968333 914.728333 499.926005 914.202332 494.890015 913.617004 C 489.854004 913.031677 484.825663 912.386678 479.804993 911.682007 C 474.783671 910.977987 469.771678 910.214315 464.769012 909.390991 C 459.766347 908.567668 454.774343 907.685343 449.792999 906.744019 C 444.811005 905.802653 439.841003 904.802653 434.882996 903.744019 C 429.925008 902.684692 424.980011 901.567017 420.048004 900.390991 C 415.116669 899.215007 410.199666 897.981018 405.296997 896.689026 C 400.394328 895.396342 395.50766 894.046 390.636993 892.638 C 385.766998 891.230001 380.914001 889.764343 376.078003 888.241028 C 371.242004 886.718323 366.425008 885.138306 361.627014 883.500977 C 356.828328 881.864339 352.049988 880.170675 347.291992 878.419983 C 342.533325 876.669983 337.796326 874.863993 333.080994 873.002014 C 328.365662 871.139343 323.672668 869.221334 319.002014 867.247986 C 314.332011 865.274679 309.686005 863.246358 305.063995 861.163025 C 274.520996 847.403015 243.595993 831.268005 217.397003 810.205017 C 217.860992 796.497009 220.253006 781.271973 224.287994 768.169983 Z"/>
    <path id="path51" fill="#b0786d" stroke="none" d="M 713.257019 207.197021 C 714.682983 206.973999 716.237 207.005981 717.68103 206.960999 C 735.416992 206.416992 753.164001 214.926025 765.81897 226.969971 C 786.507996 246.661987 799.091003 276.105957 799.63501 304.636963 C 799.948975 321.061035 795.296021 335.434998 783.69397 347.429993 C 770.721985 360.842041 749.146973 365.323975 731.179016 365.596008 C 710.515991 364.763 692.098999 358.419006 675.732971 345.755981 C 658.221008 332.205994 646.734985 309.98999 644.192017 288.10199 C 642.109985 270.176025 647.776978 249.89502 659.103027 235.827026 C 671.778015 220.085999 693.29303 209.254028 713.257019 207.197021 Z"/>
    <path id="path52" fill="#3f2322" stroke="none" d="M 711.190002 216.684998 C 711.353027 216.656982 711.515015 216.622986 711.679016 216.601013 C 727.937012 214.455994 745.987 221.257019 758.479004 231.39801 C 776.252991 245.825989 786.768005 270.247986 789.01001 292.617004 C 790.767029 310.151001 786.979004 325.118042 775.612 338.761963 C 765.085999 351.395996 752.078003 355.573975 736.155029 356.976013 C 718.046021 357.208984 699.440979 351.625977 685.096985 340.400024 C 669.982971 328.570007 658.932007 309.406982 656.655029 290.238037 C 656.527018 289.090007 656.427673 287.939331 656.356995 286.786011 C 656.286316 285.633341 656.243978 284.479329 656.22998 283.323975 C 656.216675 282.16866 656.232015 281.013997 656.276001 279.859985 C 656.319987 278.705322 656.39266 277.552653 656.494019 276.401978 C 656.595337 275.251343 656.724996 274.103678 656.882996 272.958984 C 657.041646 271.815023 657.228312 270.675374 657.442993 269.540039 C 657.658325 268.405355 657.901326 267.276347 658.171997 266.153015 C 658.443319 265.030334 658.741984 263.914998 659.067993 262.807007 C 659.394653 261.698364 659.748657 260.59904 660.130005 259.509033 C 660.510661 258.418335 660.91866 257.337646 661.354004 256.266968 C 661.788656 255.196981 662.249654 254.138326 662.737 253.091003 C 663.224345 252.043681 663.737671 251.009013 664.276978 249.987 C 664.815674 248.965678 665.379679 247.958008 665.968994 246.963989 C 666.557658 245.970011 667.170654 244.991353 667.807983 244.028015 C 668.446004 243.064677 669.10734 242.118001 669.791992 241.187988 C 670.476644 240.257324 671.18398 239.34432 671.914001 238.448975 C 672.511983 237.697673 673.128316 236.96167 673.763 236.240967 C 674.396993 235.520345 675.048319 234.815694 675.71698 234.127014 C 676.38564 233.437683 677.070984 232.76534 677.77301 232.109985 C 678.474345 231.455322 679.191671 230.817668 679.924988 230.197021 C 680.657654 229.576986 681.405334 228.975301 682.16803 228.391968 C 682.930684 227.808634 683.707011 227.244303 684.497009 226.698975 C 685.287008 226.153646 686.090007 225.627991 686.906006 225.122009 C 687.722005 224.616028 688.550008 224.130351 689.390015 223.664978 C 690.230021 223.199646 691.080688 222.75533 691.942017 222.332031 C 692.803345 221.908 693.674683 221.505656 694.55603 221.125 C 695.437337 220.744344 696.327657 220.385335 697.22699 220.047974 C 698.125671 219.710653 699.032349 219.395671 699.947021 219.103027 C 700.861003 218.810343 701.782003 218.539998 702.710022 218.291992 C 703.637349 218.044678 704.570333 217.820007 705.508972 217.617981 C 706.447652 217.415995 707.390666 217.237345 708.338013 217.082031 C 709.285319 216.926025 710.235982 216.793681 711.190002 216.684998 Z"/>
    <path id="path53" fill="#fbf9f3" stroke="none" d="M 712.976013 222.660034 C 713.867004 222.489014 714.755981 222.434021 715.661011 222.395996 C 730.002991 221.781006 746.72699 229.02002 757.09198 238.768005 C 757.589335 239.24469 758.080668 239.727681 758.565979 240.21698 C 759.051982 240.705668 759.531657 241.200338 760.005005 241.700989 C 760.478353 242.201681 760.945679 242.708008 761.406982 243.219971 C 761.868327 243.732015 762.323324 244.249695 762.771973 244.77301 C 763.220662 245.296326 763.662679 245.824992 764.098022 246.359009 C 764.534017 246.892334 764.963338 247.431335 765.385986 247.976013 C 765.808675 248.52065 766.224345 249.069987 766.632996 249.624023 C 767.042338 250.17867 767.444682 250.737996 767.840027 251.302002 C 768.236023 251.866659 768.624674 252.435669 769.005981 253.009033 C 769.38798 253.583008 769.762655 254.161336 770.130005 254.744019 C 770.498006 255.327352 770.858663 255.914673 771.211975 256.505981 C 771.564677 257.098022 771.910685 257.694031 772.25 258.294006 C 772.588664 258.893982 772.920003 259.497965 773.244019 260.105957 C 773.567993 260.714681 773.884644 261.326701 774.19397 261.942017 C 774.502645 262.557983 774.803996 263.177653 775.098022 263.801025 C 775.392008 264.424316 775.67867 265.050985 775.958008 265.68103 C 776.236654 266.311686 776.50765 266.945353 776.770996 267.582031 C 777.034342 268.218669 777.289673 268.858663 777.536987 269.502014 C 777.784993 270.144674 778.025004 270.79067 778.257019 271.440002 C 778.488993 272.088643 778.712992 272.73999 778.929016 273.394043 C 779.144999 274.048665 779.352987 274.705648 779.552979 275.36499 C 779.753011 276.024333 779.945028 276.685994 780.129028 277.349976 C 780.313029 278.014648 780.489014 278.68099 780.656982 279.348999 C 780.824992 280.01766 780.98466 280.687988 781.135986 281.359985 C 781.287313 282.032674 781.430318 282.706665 781.565002 283.381958 C 781.700338 284.057983 781.827332 284.735331 781.945984 285.414001 C 782.063985 286.092672 782.173991 286.77299 782.276001 287.454956 C 782.378011 288.136312 782.47168 288.81899 782.557007 289.502991 C 782.642334 290.18634 782.71934 290.871012 782.788025 291.557007 C 782.856669 292.243001 782.916667 292.929321 782.968018 293.615967 C 783.02002 294.303304 783.06368 294.990967 783.098999 295.678955 C 783.133667 296.367676 783.160339 297.056356 783.179016 297.744995 C 783.586975 311.692017 780.221985 325.377014 770.39801 335.692993 C 760.473022 346.11499 749.330017 349.743042 735.122009 350.049011 C 720.382019 350.303955 704.718994 344.480957 692.690002 336.239014 C 677.669006 325.947021 667.114014 308.872009 663.833008 291.046021 C 663.662354 290.093343 663.515361 289.137004 663.392029 288.177002 C 663.268656 287.217 663.168986 286.254679 663.093018 285.290039 C 663.017008 284.325358 662.964661 283.359334 662.935974 282.391968 C 662.907328 281.423991 662.902669 280.45634 662.921997 279.489014 C 662.941325 278.521647 662.984334 277.554972 663.051025 276.588989 C 663.117676 275.623657 663.208333 274.660319 663.322998 273.698975 C 663.437012 272.738322 663.574687 271.78066 663.736023 270.825989 C 663.89801 269.872009 664.083008 268.922343 664.291016 267.97699 C 664.499674 267.032328 664.730998 266.092997 664.984985 265.158997 C 665.239665 264.224996 665.517334 263.297994 665.817993 262.377991 C 666.118001 261.457987 666.440674 260.54598 666.786011 259.641968 C 667.131348 258.737996 667.498352 257.842672 667.887024 256.955994 C 668.276347 256.070007 668.687337 255.194336 669.119995 254.328979 C 669.552653 253.463013 670.006327 252.608358 670.481018 251.765015 C 670.955668 250.921021 671.450663 250.089681 671.966003 249.270996 C 672.481344 248.45166 673.016683 247.645671 673.572021 246.853027 C 682.71698 233.812988 697.382996 225.343018 712.976013 222.660034 Z"/>
    <path id="path54" fill="#3f2322" stroke="none" d="M 725.036011 232.608032 C 725.862976 232.580017 725.729004 232.55603 726.453979 232.619995 C 728.682007 232.817993 729.919006 233.098022 731.362 234.879028 C 731.521973 236.485962 731.359009 237.697021 730.66803 239.179016 C 727.05603 246.924988 715.062988 253.348999 707.474976 256.388 C 706.046997 256.760986 704.294983 257.341003 702.817993 256.906982 C 701.643005 256.562012 701.504028 256.026978 701.03302 255.023987 C 701.054993 251.960999 702.677002 249.363037 704.38501 246.912964 C 709.348999 239.789978 716.380981 234.177979 725.036011 232.608032 Z"/>
    <path id="path55" fill="#3f2322" stroke="none" d="M 734.591003 267.118042 C 736.231995 267.197998 737.921021 267.358032 739.494019 267.860962 C 746.533997 270.113037 752.182983 276.937012 755.22699 283.453979 C 759.72699 293.085999 762.703003 307.332031 758.638 317.585999 C 756.862976 322.062988 754.026001 324.43103 749.708008 326.313965 L 748.731995 326.473022 C 745.752014 326.971008 743.791016 326.687988 741.085022 325.276978 C 733.361023 321.249023 728.356995 311.740967 726.064026 303.672974 C 723.531006 294.760986 721.989014 281.391968 726.874023 273.020996 C 728.731995 269.838013 731.018982 267.971985 734.591003 267.118042 Z"/>
    <path id="path56" fill="#fbf9f3" stroke="none" d="M 738.413025 276.380005 C 739.005981 276.39502 739.682007 276.381958 740.270996 276.494995 C 742.492981 276.922974 743.875977 278.44104 745.094971 280.244019 C 747.244019 283.421997 748.525024 287.780029 747.711975 291.603027 C 747.244995 293.796997 746.26001 294.829956 744.395996 295.979004 C 741.945007 295.23999 740.408997 294.321045 738.689026 292.39801 C 736.203003 289.619019 734.328979 285.919006 734.739014 282.093018 C 735.025024 279.43103 736.403992 277.983032 738.413025 276.380005 Z"/>
    <path id="path57" fill="#b0786d" stroke="none" d="M 580.330017 535.380981 C 581.481018 535.861023 582.570984 536.52002 583.66803 537.112976 C 633.856018 561.153992 683.013 589.887024 736.924988 604.97699 C 727.500977 625.955994 715.296997 645.90802 704.585999 666.241028 C 700.453003 674.088013 696.710999 682.151001 692.416992 689.911987 C 688.406982 697.159973 683.859009 704.114014 679.939026 711.406006 C 667.294983 734.93103 654.466003 759.255005 639.245972 781.218994 C 617.132019 774.463989 594.302979 768.375977 572.719971 760.151978 C 551.409973 752.031982 529.888 742.262024 509.536011 731.965027 C 500.031006 727.156006 490.781006 721.85199 481.292999 717.010986 C 487.315002 709.002014 492.664001 700.812012 496.964996 691.729004 C 527.317993 711.482971 545.439026 722.460022 581.552979 729.658997 C 589.585999 721.372986 596.070984 712.177002 601.96698 702.286011 C 615.557007 712.421021 633.177979 717.752991 650.078979 715.250977 C 659.528992 713.85199 668.948975 709.780029 674.653992 701.797974 C 675.689026 700.351013 676.372009 698.721008 677.044006 697.083008 C 679.260986 694.364014 682.252991 690.841003 683.098022 687.385986 C 683.583984 685.396973 683.411011 683.572998 682.31897 681.817993 C 677.504028 674.08197 660.39502 673.91803 652.390991 672.622009 C 647.273987 671.794006 642.252014 670.650024 637.229004 669.383972 C 642.969971 666.411011 651.994019 665.562012 655.934998 659.630005 C 656.577026 658.663025 656.482971 658.427002 656.294983 657.35199 C 655.73999 656.940002 655.484985 656.729004 654.937988 656.388 C 646.89502 651.374023 628.81897 656.060974 620.151978 658.057007 C 622.898987 648.185974 625.58197 638.775024 626.164978 628.484985 C 617.877991 618.609009 596.463989 612.94397 584.442017 607.46698 C 573.554993 602.507996 562.867004 597.362976 552.598022 591.211975 L 549.088013 588.682007 C 551.619995 584.940979 554.01001 581.221008 556.184998 577.257019 C 562.93103 565.083984 570.01001 553.039001 577.013 541.010986 C 577.950989 539.046997 579.179993 537.226013 580.330017 535.380981 Z"/>
    <path id="path58" fill="#3f2322" stroke="none" d="M 578.252014 543.275024 C 578.700012 542.494995 579.158671 541.721659 579.627991 540.955017 C 580.465027 539.616028 581.164001 538.5 582.744019 538.153015 C 579.804993 547.950989 562.505981 584.961975 554.052979 589.72998 C 553.827026 589.856995 553.591003 589.966003 553.361023 590.083984 C 552.994019 585.61499 555.458984 582.301025 557.679993 578.65802 C 564.802979 567.15802 572.554016 555.562012 578.252014 543.275024 Z"/>
    <path id="path59" fill="#fbf9f3" stroke="none" d="M 829.351013 273.640015 C 829.559021 273.603027 829.765015 273.55603 829.973022 273.528992 C 830.513977 273.458008 831.655029 273.416016 832.142029 273.744019 C 833.19397 274.453003 838.059021 282.289001 839.403992 283.968994 C 844.080017 289.80603 848.955994 295.511963 854.828003 300.184998 C 870.518982 312.671021 890.007019 321.317017 910.297974 321.427979 C 914.880005 321.453003 919.492981 320.804993 924.041016 320.283997 C 924.853027 327.019043 927.607971 335.239014 933.947998 338.667969 C 935.645996 339.587036 937.585022 339.833984 938.76001 341.401978 C 938.585999 343.156006 938.177002 344.533997 937.473022 346.153992 C 934.711975 352.509033 929.952026 358.619019 925.666992 364.016968 C 887.049988 412.651978 799.879028 444.728027 741.020996 459.406006 C 728.234985 462.594971 715.27301 464.910034 702.315002 467.269043 C 691.143982 469.302002 679.893005 471.075012 669.215027 475.083984 C 664.586975 472.080994 658.340027 470.002014 654.239014 466.526001 C 654.697998 463.945007 657.669006 462.407959 658.742004 460.075989 C 659.33197 458.796997 659.146973 458.562988 658.596008 457.395996 C 654.228027 454.570007 640.010986 454.359985 633.948975 453.27002 C 612.958984 449.497986 591.382019 444.928955 570.932983 438.853027 C 542.77301 431.182983 513.80603 423.735962 487.46701 410.934998 C 490.039001 396.838013 493.049988 382.962036 495.221008 368.780029 C 503.875 363.040039 514.765015 359.312988 524.250977 354.934998 C 540.184021 347.580994 556.093018 339.77002 572.429016 333.355957 L 613.242004 317.437988 C 622.846985 313.744019 632.513977 310.455994 641.85199 306.087036 C 646.703979 326.242004 658.632996 342.386963 674.963013 354.903992 C 695.197998 370.414001 720.950989 375.614014 745.981995 372.148987 C 765.030029 369.511963 781.757019 361.252991 793.382019 345.677979 C 807.424988 326.864014 806.333984 306.384033 803.116028 284.390991 C 810.676025 277.919006 819.687988 275.094971 829.351013 273.640015 Z"/>
    <path id="path60" fill="#3f2322" stroke="none" d="M 635.534973 358.13501 C 637.11499 358.292969 638.843018 358.286011 639.994995 359.540039 C 641.583008 361.266968 641.359009 363.695007 641.107971 365.848022 C 640.705343 365.864665 640.302348 365.866333 639.898987 365.853027 C 638.5 365.817017 637.14502 365.320007 636.286987 364.140015 C 634.989014 362.35199 635.322021 360.176025 635.534973 358.13501 Z"/>
    <path id="path61" fill="#3f2322" stroke="none" d="M 848.984985 367.88501 C 853.676025 369.494995 857.892029 375.492004 864.770996 377.10199 C 869.781006 378.275024 877.752014 374.671997 881.453003 376.132996 L 881.284973 377.729004 C 876.406982 380.625 870.067993 381.089966 864.521973 380.243042 C 859.546021 379.483032 853.385986 377.515991 850.375 373.235962 C 849.083984 371.401978 848.620972 370.10199 848.984985 367.88501 Z"/>
    <path id="path62" fill="#3f2322" stroke="none" d="M 614.90802 381.56897 C 617.68103 381.377991 619.642029 380.994019 621.98999 382.677002 C 622.643005 383.994019 622.924988 384.671021 622.346008 386.156006 C 620.304016 391.382996 614.325012 395.339966 609.372986 397.351013 C 607.458008 397.526978 605.283997 397.786987 603.414001 397.187988 C 602.146973 396.781982 601.78302 396.223999 601.138977 395.120972 C 601.091003 394.410034 601.098999 393.804993 601.346985 393.125 C 603.40802 387.484985 609.757996 383.886963 614.90802 381.56897 Z"/>
    <path id="path63" fill="#3f2322" stroke="none" d="M 605.857971 357.604004 C 607.507996 357.367004 610.04303 357.934998 611.377014 358.963013 C 612.414001 359.763 613.057983 360.802002 613.093018 362.140015 C 613.130981 363.613037 612.445984 365 611.492004 366.082031 C 608.241028 369.77301 602.708008 370.130005 598.132019 370.526978 C 596.46698 370.530029 594.882996 370.479004 593.249023 370.11499 C 591.377014 369.697998 590.343994 369.307007 589.323975 367.651001 C 589.336975 366.651001 589.448975 366.214966 590.004028 365.346008 C 593.130005 360.445007 600.541992 358.625977 605.857971 357.604004 Z"/>
    <path id="path64" fill="#fbf9f3" stroke="none" d="M 602.369995 362.661011 C 603.96698 362.526978 605.544983 362.502991 607.146973 362.493042 L 608.203979 363.605957 C 606.625977 365.531006 601.617981 366.067993 599.242981 366.457031 C 597.307983 366.68103 595.161987 367.015015 593.34198 366.196045 L 593.510986 365.437988 C 596.427002 363.557007 599.007996 363.134033 602.369995 362.661011 Z"/>
    <path id="path65" fill="#fbf9f3" stroke="none" d="M 401.312988 430.05896 C 414.334015 443.344971 428.123993 454.809998 444.276001 464.140991 C 432.388 474.188965 412.158997 495.598999 407.257996 510.369019 C 412.890991 505.179993 417.415985 499.063965 422.266998 493.167969 C 429.877991 483.919006 438.662994 474.041992 448.329987 466.893005 C 451.602997 468.651001 454.941986 470.269043 458.281006 471.896973 C 439.830994 482.368042 418.963989 499.881958 410.445007 519.47699 C 416.700012 514.088013 421.737 506.837036 427.717987 501.010986 C 438.268005 490.734985 449.925995 483.406982 461.966003 475.106995 C 478.848999 483.172974 495.138 492.304993 512.565002 499.231995 C 520.096008 502.224976 527.724976 505.179993 535.463013 507.596985 C 542.544006 509.807983 549.859009 511.554993 556.822998 514.093018 C 556.862976 514.388977 556.991028 514.685974 556.94397 514.981018 C 556.723022 516.359009 552.067017 523.651001 551.13501 525.411987 C 545.105672 536.578654 539.506999 547.956991 534.338989 559.546997 C 532.320007 564 529.750977 568.846008 528.544006 573.572021 C 528.346985 573.44397 528.14801 573.320007 527.953979 573.189026 C 527.419006 572.828979 526.322021 572.13501 525.969971 571.591003 C 523.685974 568.067993 541.273987 525.255005 539.901978 518.731995 C 534.262024 523.140991 523.151978 557.442017 520.513977 565.93103 C 497.790009 546.497986 487.352997 520.676025 469.154999 498.487 C 469.560333 499.751689 469.999329 501.004679 470.471985 502.245972 C 470.970662 503.554647 471.483002 504.857992 472.009003 506.156006 C 472.535004 507.453328 473.074666 508.745321 473.627991 510.031982 C 474.180664 511.318685 474.746999 512.599365 475.326996 513.874023 C 475.907664 515.14799 476.501333 516.415975 477.108002 517.677979 C 477.714671 518.939982 478.334666 520.195658 478.967987 521.445007 C 479.601329 522.693665 480.24767 523.935994 480.907013 525.171997 C 481.566335 526.407349 482.238668 527.635356 482.924011 528.856018 C 483.609334 530.077332 484.307332 531.291321 485.018005 532.497986 C 485.729329 533.704651 486.452993 534.903646 487.188995 536.094971 C 487.924998 537.286336 488.67333 538.469686 489.43399 539.64502 C 490.195323 540.820353 490.968658 541.987671 491.753998 543.146973 C 492.540009 544.306315 493.337677 545.457316 494.147003 546.599976 C 494.957001 547.742676 495.779002 548.876343 496.613007 550.000977 C 497.44634 551.126343 498.291667 552.242676 499.148987 553.349976 C 500.006327 554.457316 500.875 555.555664 501.755005 556.64502 C 502.63501 557.733683 503.526672 558.813334 504.429993 559.883972 C 505.333333 560.954 506.24767 562.014669 507.173004 563.065979 C 508.098338 564.11733 509.034332 565.158671 509.980988 566.190002 C 510.928335 567.221334 511.886678 568.24233 512.856018 569.252991 C 513.824687 570.264343 514.803691 571.26534 515.79303 572.255981 C 516.78302 573.246663 517.783346 574.226664 518.794006 575.195984 C 519.804667 576.165344 520.825338 577.124023 521.856018 578.072021 C 522.886658 579.02002 523.926982 579.957336 524.97699 580.883972 C 526.027649 581.809998 527.087646 582.72467 528.156982 583.627991 C 529.22701 584.532003 530.30601 585.424683 531.393982 586.30603 C 532.482646 587.186686 533.580322 588.05601 534.687012 588.914001 C 535.79366 589.771993 536.909322 590.618327 538.033997 591.453003 C 539.158671 592.287679 540.292013 593.110352 541.434021 593.921021 C 542.575989 594.731689 543.726318 595.530009 544.88501 596.315979 C 546.04366 597.102641 547.210327 597.876973 548.38501 598.638977 C 549.560343 599.40033 550.743347 600.149679 551.934021 600.887024 C 553.124654 601.623678 554.322978 602.348002 555.528992 603.059998 C 563.452026 607.677979 572.013 611.36499 580.362976 615.129028 C 575.911011 624.03302 572.927979 634.005005 569.143982 643.252991 C 560.52002 664.325989 549.297974 685.64801 535.231995 703.627014 C 520.883972 696.380981 507.058014 687.197998 494.343994 677.38501 C 461.43399 651.984985 436.029999 621.427002 419.621002 583.041992 C 411.835999 564.828979 407.191986 545.379028 399.360992 527.270996 C 396.808014 551.057007 408.372009 583.609985 419.131989 604.611023 C 424.984009 616.031006 431.740997 626.635986 439.02301 637.184998 C 424.718994 646.461975 410.118988 653.565002 393.390015 657.353027 C 383.640991 659.559998 372.946014 661.679016 362.951996 662.273987 C 356.653992 662.648987 350.119995 662.030029 343.881989 662.934998 C 342.065002 663.197998 340.483002 663.51001 339.006989 664.674011 C 337.26001 666.052979 336.328003 668.29303 336.220001 670.486023 C 336.022003 674.507019 337.561005 681.836975 340.438995 684.643982 C 347.229004 691.265015 372.820007 691.174988 381.812988 690.692993 C 404.391998 689.481018 431.778015 681.656006 449.760986 667.48999 C 452.803986 665.093018 455.375 662.077026 457.959991 659.211975 C 461.972666 662.994649 465.959005 666.804667 469.919006 670.642029 C 467.32901 673.351013 464.803986 676.567993 463.372009 680.052979 C 459.552002 689.353027 464.010986 705.366028 467.69101 714.190979 C 468.954987 717.221985 470.377014 719.091003 472.984009 721.075012 C 480.069 726.465027 489.502014 730.140015 497.437012 734.245972 C 520.270996 746.060974 542.810974 757.593994 566.614014 767.377991 C 563.96698 794.682007 561.242004 821.799011 560.713989 849.263977 C 560.598022 855.284973 560.976013 861.35199 561.028992 867.380005 C 554.702026 866.687988 548.23999 866.547974 541.882996 866.067017 C 526.762024 864.924988 511.497009 863.640015 496.483002 861.502014 C 417.996002 850.323975 335.704987 824.981018 266.013 786.906982 C 252.300003 779.414978 239.347 771.075012 226.270004 762.549988 C 228.261993 756.583008 229.464996 750.35498 231.261002 744.325012 C 235.063665 731.806335 239.151998 719.381673 243.526001 707.051025 C 254.797343 676.138346 267.536346 645.842672 281.743011 616.164001 C 313.356995 549.221008 351.071014 484.844971 401.312988 430.05896 Z"/>
    <path id="ricci" fill="#9e897a" stroke="none" d="M 619.237 52.333984 C 630.856995 55.940491 648.414978 65.906921 659.271973 72.498413 C 667.234009 77.332092 675.468018 81.776917 683.210022 86.962708 C 701.203003 99.015198 723.786987 118.484009 737.406006 135.247986 C 742.830017 141.924011 747.744019 149.177979 752.492004 156.344971 C 754.241028 158.985962 758.807983 168.609009 760.89801 169.739014 C 761.254028 169.414978 761.315002 169.400024 761.593018 168.916016 C 769.221008 155.664978 747.427002 95.617004 741.499023 79.64978 C 749.078979 88.839905 757.171021 97.543579 764.601013 106.882996 C 779.893005 126.104004 794.190002 149.442017 795.046021 174.664978 C 795.299011 182.119019 794.146973 189.737 793.304993 197.130981 C 777.517029 184.893005 759.776001 182.455994 740.291016 181.639038 C 675.784973 178.934998 613.570984 209.309021 559.421021 241.223022 C 549.154338 247.20634 539.118998 253.555664 529.315002 260.270996 C 525 263.192993 520.362976 266.02002 516.521973 269.553955 C 513.356995 269.474976 510.130005 269.710999 506.968994 269.927979 C 497.820007 270.557983 467.075989 274.264038 461.817993 280.765015 C 460.962006 281.823975 460.658997 282.868042 460.877014 284.214966 C 462.292999 292.942017 473.963989 304.804993 480.856995 309.952026 C 471.002991 319.459961 461.962006 329.483032 452.615997 339.479004 C 435.190002 339.203979 416.203003 341.932007 399.274994 346.014038 C 395.373993 346.953979 385.794006 348.770996 383.541992 352.442993 C 383.085999 355.554993 384.372009 358.745972 384.459991 361.911987 C 385.122986 385.790039 386.769012 404.721008 397.933014 426.489014 C 393.567678 430.784993 389.231008 435.109985 384.923004 439.463989 C 357.07901 467.922974 333.233002 500.573975 312.214996 534.328003 C 307.812998 541.455322 303.519002 548.646993 299.333008 555.903015 C 295.146342 563.159688 291.069672 570.477356 287.102997 577.856018 C 283.136342 585.233988 279.281342 592.670308 275.537994 600.164978 C 271.794668 607.658997 268.164337 615.207662 264.647003 622.810974 C 261.130341 630.413676 257.728338 638.067688 254.440994 645.77301 C 251.153661 653.478333 247.98233 661.231323 244.927002 669.031982 C 241.872335 676.831991 238.935333 684.676331 236.115997 692.565002 C 233.296661 700.453674 230.596329 708.38267 228.014999 716.35199 C 223.212997 731.458984 218.348999 746.71698 215.212006 762.278992 C 213.466995 770.937988 212.600006 779.768982 211.524994 788.526978 C 210.384995 797.81897 209.369995 806.833008 209.462997 816.213013 C 200.132004 823 192.432999 833.708008 184.815994 842.414978 C 182.947998 832.551025 181.035004 788.812988 184.554001 781.047974 C 187.677002 774.156982 194.992004 768.640991 197.119003 761.398987 L 196.710999 760.708984 C 191.871002 761.25 151.638 806.737976 145.610001 813.971985 C 146.845001 799.153992 151.466995 753.374023 157.494003 741.893005 C 160.539001 736.09198 166.871994 732.356018 170.520004 726.77002 L 170.934006 726.129028 C 152.528 732.455994 129.029007 755.330017 113.109001 767.846985 C 118.289001 738.531982 128.177994 711.575012 142.056 685.25 C 145.690994 678.354004 151.042999 672.343018 154.292999 665.250977 C 154.380005 665.059998 154.462997 664.867004 154.548004 664.674988 C 136.128006 672.851013 112.843002 688.721985 96.035698 700.133972 C 98.976196 671.630005 126.420998 621.351013 144.369003 599.203979 C 148.906006 593.606995 155.343994 590.072998 159.970001 584.552979 L 160.455002 583.968994 C 144.949997 589.090027 130.938004 597.382019 116.440002 604.708984 C 102.195999 611.90802 87.639397 618.487 73.746002 626.374023 C 80.021932 615.354655 86.762899 604.627645 93.968903 594.192993 C 103.791 579.333008 115.803001 565.309998 128.054001 552.401001 C 131.582001 548.684021 142.960999 539.353027 144.434998 535.481018 L 144.009003 534.77301 C 137.947998 532.676025 74.919403 552.419006 65.470901 555.935974 C 72.133598 548.002991 78.374702 539.690979 85.373398 532.044983 C 97.027603 519.312988 110.186996 507.535034 123.110001 496.093018 C 127.82 491.924011 132.457001 487.612 137.373993 483.690002 C 141.710999 480.22998 146.514008 477.057983 150.550995 473.259033 C 151.591995 472.280029 152.563995 471.299988 152.585007 469.828979 C 147.432999 469.656006 141.479996 471.108032 136.391998 472.013 C 117.757004 475.328003 99.700104 479.734985 81.551003 485.10498 C 84.848 480.092041 89.533699 475.710999 93.686302 471.386963 C 98.265434 466.597005 102.967667 461.93103 107.792999 457.389038 C 112.617666 452.846354 117.558665 448.434001 122.615997 444.151978 C 127.67333 439.869995 132.839996 435.723999 138.115997 431.713989 C 143.391337 427.703328 148.768672 423.834676 154.248001 420.108032 C 159.608002 416.428955 174.677002 408.052979 178.029999 403.964966 L 177.186996 403.228027 C 173.886993 402.665039 166.904007 404.502991 163.145996 404.929993 C 138.731003 407.700989 114.389999 410.957031 89.938301 413.434998 C 95.331398 407.408997 102.470001 402.718994 109.042 398.05603 C 132.488998 381.416992 157.580002 367.294006 182.949997 353.809998 C 190.759995 349.657959 199.205994 346.462036 206.647003 341.670044 C 185.520996 340.025024 164.376007 340.653992 143.244995 341.369995 C 135.598999 341.630005 127.994003 341.578003 120.350998 342.067017 C 133.363007 335.299988 145.843994 327.754028 158.998001 321.200012 C 171.390671 315.157328 183.954671 309.495646 196.690002 304.214966 C 209.426005 298.934326 222.310003 294.044352 235.341995 289.545044 C 241.014008 287.561035 251.384995 284.81897 256.005005 281.26001 C 249.792007 275.724976 181.098999 272.255005 169.313004 271.932983 C 179.826996 267.963989 189.608994 261.984985 199.936996 257.526978 C 216.199997 250.507019 233.811996 245.242004 250.835999 240.421021 C 267.186666 235.836995 283.657328 231.734985 300.247986 228.11499 C 305.390991 227.037964 317.976013 225.945007 321.682007 223.632996 L 321.498993 222.960022 C 315.796997 219.596985 262.57901 210.752991 251.731995 209.322998 C 245.248993 208.468018 238.528 208.620972 232.132004 207.346985 L 231.843002 206.171021 L 231.384995 206.35498 L 231.485992 206.936035 L 231.037994 206.828003 L 231.475998 206.294006 C 241.893005 203.01001 252.029007 198.905029 262.467987 195.671021 C 280.628998 190.044006 299.407013 185.210022 318.140015 181.924988 C 325.554993 180.625 332.985992 179.901978 340.424988 178.856995 C 346.813995 177.960022 353.057007 176.682983 359.511993 176.218994 C 371.490672 175.442993 383.480011 175.214661 395.480011 175.533997 C 400.406006 175.677979 405.571014 176.912964 410.472992 176.386963 C 411.5 176.276978 411.335999 176.432007 412.042999 175.567017 L 411.841003 174.629028 C 407.652008 171.323975 400.821014 169.458008 395.813995 167.596985 C 383.112661 162.870992 370.269663 158.567668 357.285004 154.687012 C 344.300344 150.806315 331.202006 147.356649 317.98999 144.338013 C 332.414001 143.802002 346.638 141.343994 360.994995 140.15802 C 380.585999 138.539978 399.834991 138.61499 419.444 139.372009 C 428.932668 139.763326 438.368001 140.693644 447.75 142.162964 C 451.612 142.738037 455.519989 143.815002 459.394989 144.179016 C 460.816986 144.312012 462.003998 144.406982 463.381012 143.945007 L 463.410004 143.037964 C 456.846008 132.865967 420.694 111.276001 408.678009 104.708984 C 401.054993 100.542969 393.100006 96.877808 385.287994 93.077271 C 391.076996 93.718079 397.013 93.525208 402.834991 93.739868 C 413.144338 94.047607 423.427673 94.740356 433.684998 95.818115 C 460.881012 98.630676 487.776001 102.723999 514.276978 109.546997 C 524.30603 112.129028 534.007019 115.865967 543.994019 118.538025 C 545.330994 118.895996 546.479004 119.138 547.745972 118.452026 L 547.835022 117.588013 C 543.502014 109.575012 509.835999 81.15802 501.420013 74.671692 C 494.430674 69.333435 487.212341 64.324707 479.765015 59.645508 C 488.621002 61.064392 497.570007 61.773193 506.40799 63.358704 C 545.942017 70.450623 586.812012 82.67688 622.197021 101.927002 C 634.234985 108.476013 645.682983 116.526978 657.187012 123.971008 C 650.992004 103.322021 632.276978 69.219482 619.237 52.333984 Z"/>
    <path id="path66" fill="#3f2322" stroke="none" d="M 691.690002 117.552979 C 694.288025 117.252991 696.182983 117.221008 698.614014 118.330994 C 709.435974 123.276001 719.414978 141.559998 723.22998 152.132019 C 724.294006 155.080017 726.570984 160.947998 725.218018 163.812012 C 723.768982 163.684021 723.458984 162.643982 722.692993 161.494995 C 715.356995 150.494019 710.719971 137.962036 701.096985 128.442017 C 700.955017 128.302002 700.809021 128.164978 700.666016 128.026001 L 692.89801 121.645996 C 694.611023 128.999023 696.65802 136.22998 699.46698 143.247009 C 701.867004 149.245972 705.044983 155.388 706.773987 161.583984 C 707.263 163.338013 707.864014 165.400024 707.289978 167.182983 L 706.442017 166.940979 C 699.919983 159.948975 689.291992 136.271973 688.606018 126.702026 C 688.314026 122.627991 689.070984 120.619019 691.690002 117.552979 Z"/>
    <path id="path67" fill="#3f2322" stroke="none" d="M 197.360992 572.79303 L 198.528 573.119995 C 199.001999 574.223022 198.912994 573.95697 198.423996 574.942017 C 190.723007 590.466003 181.931 604.932983 175.703995 621.223022 C 187.820999 612.286011 212.317993 587.984985 224.085999 583.094971 C 222.360992 585.85199 220.529007 588.317017 218.427002 590.797974 C 208.287994 602.242981 196.149994 613.30603 184.048996 622.687988 C 181.455994 624.698975 176.126007 629.054016 172.632004 628.098999 C 171.503006 627.791016 170.957993 627.405029 170.296005 626.455994 C 169.013 624.61499 169.442993 621.580994 169.901001 619.534973 C 172.440002 608.171997 187.264008 579.322021 197.360992 572.79303 Z"/>
    <path id="path68" fill="#3f2322" stroke="none" d="M 202.162003 478.968018 L 202.703995 479.323975 C 202.354996 480.692993 201.462997 481.367004 200.403 482.264038 C 187.365005 493.291992 172.817993 502.019043 161.289001 514.84198 C 181.143997 510.187988 199.067993 499.631958 219.003006 495.515991 C 216.020004 497.88501 213.014008 499.929993 209.740997 501.879028 C 209.331665 502.13033 208.921 502.379313 208.509003 502.625977 C 199.442001 508.049988 165.901993 524.127991 156.119995 521.064026 C 155.154007 520.762024 154.203003 520.064026 153.789001 519.138977 C 153.100998 517.598022 153.406998 516.159973 154.048996 514.669006 C 157.570999 506.48999 174.919006 493.372986 182.475006 488.768005 C 188.727005 484.958008 195.410995 481.785034 202.162003 478.968018 Z"/>
    <path id="path69" fill="#3f2322" stroke="none" d="M 218.162994 628.297974 L 219.108002 628.677979 C 218.972 629.802002 209.388 644.099976 207.927002 646.671021 C 201.681 657.66803 196.024994 669.932007 192.337997 682.026978 C 202.343002 674.29303 211.824997 665.775024 221.561996 657.697998 C 227.315002 652.927002 232.992004 647.843994 239.615005 644.309021 C 237.664001 648.116028 235.225006 651.383972 232.348007 654.531006 C 229.632004 657.684998 226.632996 660.629028 223.613998 663.492981 C 217.783997 669.023987 195.595001 690.218018 188.065002 690.026001 C 187.294998 689.593994 186.703995 689.252991 186.225006 688.471008 C 184.960999 686.406982 185.401001 683.635986 185.871994 681.411011 C 189.229004 665.531006 204.725998 636.85498 218.162994 628.297974 Z"/>
    <path id="path70" fill="#3f2322" stroke="none" d="M 344.972992 388.947998 C 345.622986 389.072021 345.279999 388.928955 345.911987 389.547974 C 343.964996 393.888 328.492004 405.096985 324.235992 409.282959 C 317.002014 416.39801 310.114014 424.317993 304.984985 433.088013 C 326.574005 425.282959 346.800995 414.841003 368.195007 406.561035 C 366.130005 408.702026 364.056 410.599976 361.708008 412.427002 C 351.354004 419.213013 312.996002 441.565002 301.859009 438.516968 C 300.608002 438.174988 299.553986 437.348999 299.093994 436.103027 C 298.488007 434.463989 298.756989 432.833984 299.347992 431.239014 C 300.976013 426.846985 304.431 422.60199 307.385986 419.036987 C 317.985992 406.25 329.937988 396.162964 344.972992 388.947998 Z"/>
    <path id="path71" fill="#3f2322" stroke="none" d="M 259.615997 325.945007 L 260.234009 326.104004 C 259.822998 327.612 258.169006 328.514038 256.916992 329.415039 C 241.406006 340.580994 223.983002 349.169006 209.854996 362.264038 C 233.960999 359.265991 257.26001 352.312988 281.105988 347.950012 C 278.454987 350.106995 275.641998 351.786011 272.692993 353.5 C 266.996002 356.47998 260.200012 358.712036 254.005005 360.5 C 245.391006 362.985962 212.188004 370.458984 204.908005 367.728027 C 203.552994 367.219971 203.281006 366.64502 202.699005 365.38501 C 202.714996 364.39801 202.783005 363.591003 203.227997 362.703979 C 207.503006 354.174011 232.216995 338.228027 240.550003 333.901978 C 246.718994 330.700012 253.091995 328.287964 259.615997 325.945007 Z"/>
    <path id="path72" fill="#3f2322" stroke="none" d="M 272.588989 484.849976 C 273.35199 484.971985 272.998993 484.807007 273.609009 485.420044 C 271.82901 489.190002 263.988007 496.042969 260.674988 499.606995 C 250.238998 510.835999 239.496002 522.008972 232.080002 535.549011 C 252.813995 528.632996 269.869995 513.070984 290.554993 505.85498 C 288.330994 508.427002 286.169006 510.690002 283.506012 512.809998 C 274.140015 519.971008 238.779999 543.810974 228.384995 541.942993 C 227.320007 541.750977 226.412994 541.182007 225.835007 540.275024 C 224.733002 538.541992 224.953003 536.369019 225.505005 534.484985 C 228.904007 522.877991 249.423004 501.72998 259.016998 493.867004 C 263.270996 490.380981 267.799011 487.533997 272.588989 484.849976 Z"/>
    <path id="path73" fill="#3f2322" stroke="none" d="M 595.513977 112.452026 C 597.276001 112.424988 598.734985 112.708984 600.369995 113.354004 C 620.198975 121.177979 648.570007 151.166016 656.981018 170.112 C 652.27301 166.627014 648.45697 161.620972 644.255005 157.505981 C 633.429016 146.905029 622.239014 135.94397 610.513977 126.367981 C 607.596008 124.004028 603.223999 120.05603 599.559998 119.155029 C 598.489014 118.891968 598.327026 119.01001 597.427979 119.526978 C 595.747986 124.294006 610.359009 145.228027 613.307983 150.317017 C 617.442017 157.447998 622.208984 165.223022 625.21698 172.875977 C 625.297974 173.083984 625.375 173.294006 625.453979 173.502991 C 618.726013 167.723999 613.046021 160.320007 607.987 153.083984 C 602.474976 145.198975 589.244019 127.057007 591.320984 117.546021 C 591.874023 115.010986 593.416016 113.778015 595.513977 112.452026 Z"/>
    <path id="path74" fill="#3f2322" stroke="none" d="M 246.401993 397.388 L 247.667999 398.216003 L 247.714005 399.10498 C 238.255005 408.322021 226.987 415.625977 216.807999 424.020996 C 210.901993 428.893005 205.557007 434.738037 200.147995 440.162964 C 208.718994 436.507996 217.738998 434.197998 226.604004 431.394043 C 236.384995 428.301025 245.759003 424.837036 255.238998 420.926025 C 258.14801 419.72699 269.307007 415.071045 271.721008 415.695007 L 271.622009 416.526978 C 269.565002 418.703979 266.988007 420.278015 264.528015 421.963013 C 257.399994 426.061035 249.912994 429.463013 242.326004 432.61499 C 234.807999 435.739014 199.466995 448.617004 193.876007 446.776978 C 192.554001 446.343018 192.395004 445.73999 191.723999 444.606995 C 191.604004 443.572998 191.619995 442.766968 191.964996 441.786011 C 196.582993 428.640015 233.197998 404.264038 246.401993 397.388 Z"/>
    <path id="path75" fill="#3f2322" stroke="none" d="M 333.26001 260.60199 C 334.20401 260.43396 335.063995 260.489014 336.018005 260.541992 L 336.13501 261.016968 C 330.971985 265.062988 322.752991 267.553955 316.733002 270.216003 C 304.34201 275.696045 285.019989 284.823975 274.661987 293.14801 C 285.959991 291.252014 297.549011 290.497009 308.902008 288.702026 C 323.602997 286.377014 338.166992 282.638 353.096008 282.052002 C 350.234009 283.957031 346.960999 285.091003 343.78299 286.359009 C 328.182007 292.030029 289.828003 300.243042 273.151001 299.171021 C 270.713989 299.014038 268.432007 298.785034 266.743011 296.868042 C 266.319 295.273987 266.197998 294.312988 267.09201 292.85199 C 269.158997 289.474976 273.453003 286.707031 276.670013 284.5 C 293.433014 272.999023 313.291992 264.499023 333.26001 260.60199 Z"/>
    <path id="path76" fill="#3f2322" stroke="none" d="M 471.393005 196.203979 C 497.662994 194.606018 533.388 201.622986 556.559021 214.093994 C 548.846985 213.385986 540.888 211.072998 533.281006 209.542969 C 516.335999 206.13501 481.251007 199.914001 465.425995 203.502014 C 471.02301 210.708984 514.80603 225.023987 526.528015 232.455017 C 507.865997 228.754028 489.292999 223.339966 472.209015 214.820007 C 468.167999 212.804016 459.664001 208.812012 458.569 203.990967 C 458.240997 202.544006 458.769989 201.11499 459.673004 199.984985 C 462.325989 196.661011 467.507996 196.546021 471.393005 196.203979 Z"/>
    <path id="path77" fill="#3f2322" stroke="none" d="M 369.307007 205.708008 C 382.362 204.841003 396.46701 205.707031 409.388 207.622986 C 414.188995 208.335022 433.553986 212.176025 436.446014 216.070007 L 436.313995 216.937988 C 432.993011 218.630005 418.187988 215.234009 413.84201 214.64502 C 393.597992 211.901001 370.904999 210.271973 350.703003 214.042969 C 355.231995 216.684021 360.23999 218.424988 365.122986 220.287964 C 381.269989 227.018982 401.031006 230.994995 416.17099 238.937012 C 402.299011 239.179016 359.532013 228.197998 349.052002 219.851013 C 347.285004 218.44397 345.591003 216.533997 345.40799 214.176025 C 345.303986 212.822998 345.717987 211.622009 346.639008 210.627991 C 350.895996 206.03302 363.286987 206.13501 369.307007 205.708008 Z"/>
    <path id="path78" fill="#3f2322" stroke="none" d="M 489.410004 135.093994 C 492.136668 134.828654 494.865997 134.801656 497.597992 135.013 C 517.294006 136.700012 539.55603 145.797974 556.89801 154.771973 C 562.008972 157.416016 568.177002 160.275024 571.935974 164.789978 C 570.541016 165.653992 567.388 164.406006 565.856018 163.901978 C 557.849976 161.266968 550.291992 157.585999 542.473022 154.485962 C 530.541667 149.684001 518.335663 145.730347 505.855011 142.625 C 501.888 141.64502 496.782013 140.155029 492.67099 140.510986 C 491.522003 140.610962 491.471985 140.59198 490.694 141.497986 L 491.324005 142.789001 C 495.846985 147.333008 501.256012 151.136963 506.364014 154.992004 C 513.41333 160.375346 520.542318 165.651347 527.750977 170.820007 C 535.469971 176.285034 543.487976 181.526001 550.630005 187.745972 C 550.231323 187.641968 549.83433 187.531982 549.439026 187.416016 C 531.541016 182.129028 510.959991 167.313965 496.536987 155.531006 C 492.647003 152.353027 487.53299 148.77301 485.253998 144.190002 C 484.403992 142.481018 483.992004 140.588989 484.815002 138.77002 C 485.725006 136.759033 487.542999 135.98999 489.410004 135.093994 Z"/>
    <path id="path79" fill="#3f2322" stroke="none" d="M 413.701996 277.070007 C 414.591003 276.886963 415.226013 276.900024 416.123993 277.021973 L 416.269989 277.827026 C 412.197998 282.30603 403.53299 285.228027 398.15799 288.197021 C 383.128998 296.499023 369.910004 305.518005 358.460999 318.515015 L 358.859985 318.499023 C 376.123993 317.898987 397.981995 311.351013 414.803986 306.88501 C 421.735992 305.045044 433.609985 300.384033 440.368988 300.964966 L 440.28299 301.661011 C 438.476013 303.299988 436.338013 304.268005 434.18399 305.369995 C 430.068654 307.512655 425.840658 309.402995 421.5 311.041016 C 410.46701 315.266968 363.75 328.480957 353.817993 323.617004 C 352.63501 323.037964 351.666992 322.155029 351.330994 320.833008 C 350.976013 319.43396 351.472992 318.078003 352.184998 316.890991 C 363.967987 297.244995 392.148987 282.417969 413.701996 277.070007 Z"/>
</svg>
