<?xml version="1.0" encoding="UTF-8"?>
<!-- Generated by Pixelmator Pro 2.4.7 -->
<svg width="1024" height="1024" viewBox="0 0 1024 1024" xmlns="http://www.w3.org/2000/svg" xmlns:xlink="http://www.w3.org/1999/xlink">
    <path id="Percorso" fill="#5c3b40" stroke="none" d="M 479.386993 42.688599 C 508.958008 40.437927 546.278992 52.418091 572.232971 66.424805 C 580.856995 71.078796 588.869995 76.818604 596.960022 82.329102 C 594.096985 76.442322 577.763977 50.588501 578.250977 47.11908 C 579.013977 46.147583 579.208984 45.71228 580.536987 45.579712 C 583.04303 45.329468 586.716003 47.131897 589.057983 48.026306 C 608.330017 55.388611 628.528015 66.683716 644.924988 79.284119 C 653.200012 85.642883 660.114014 93.519531 668.544006 99.673828 C 669.015991 85.086792 664.578003 73.601379 659.697021 60.234009 C 677.528992 64.526978 695.63501 79.796875 707.125977 93.760315 C 713.242004 101.192993 718.487 109.22998 724.166016 116.973022 C 723.242981 109.140991 722.104004 101.531006 720.322021 93.836182 C 719.270996 89.296509 717.763 84.91272 716.892029 80.328308 C 721.499023 81.856506 725.911011 83.957275 729.768005 86.926392 C 748.330994 101.213013 762.591003 131.304993 766.937012 154.096008 C 768.289001 161.184998 767.913025 168.182007 768.940979 175.231018 L 769.039978 175.869995 C 790.478027 192.195007 803.18103 218.130981 812.937012 242.651001 C 815.513977 229.187988 818.853027 215.031006 829.263977 205.301025 C 829.589335 204.994995 829.922343 204.697652 830.263 204.408997 C 830.603658 204.119649 830.951335 203.839315 831.30603 203.567993 C 831.661336 203.296672 832.02299 203.034668 832.390991 202.781982 C 832.758993 202.528646 833.133321 202.284993 833.513977 202.051025 C 833.894674 201.817017 834.28068 201.593018 834.671997 201.379028 C 835.064006 201.164347 835.461344 200.960002 835.864014 200.765991 C 836.265991 200.571981 836.672994 200.38798 837.085022 200.213989 C 837.496358 200.040649 837.912008 199.877645 838.33197 199.724976 C 838.751973 199.572998 839.175313 199.431335 839.60199 199.299988 C 840.029317 199.169332 840.459656 199.049662 840.893005 198.940979 C 841.325663 198.831645 841.761332 198.733643 842.200012 198.646973 C 842.638 198.559652 843.078003 198.483663 843.52002 198.419006 C 843.961995 198.355001 844.405314 198.302002 844.849976 198.26001 C 845.294678 198.218018 845.740356 198.187012 846.187012 198.166992 C 846.633016 198.147664 847.079346 198.139669 847.526001 198.143005 C 847.972656 198.146342 848.418986 198.161011 848.86499 198.187012 C 856.770996 198.655029 863.638977 203 868.846985 208.734985 C 884.33197 225.786987 887.057983 257.546997 885.862 279.752991 C 885.052979 294.794006 879.820984 316.765015 867.995972 327.160034 L 864.508972 330.234985 C 876.140015 338.19397 891.049011 343.749023 904.747986 347.057007 C 909.750977 342.028015 915.544006 338.359009 922.354004 336.285034 C 930.176025 333.903015 939.320984 333.577026 946.643982 337.68396 C 946.98468 337.877319 947.320028 338.079346 947.650024 338.290039 C 947.980021 338.500651 948.304688 338.71932 948.624023 338.946045 C 948.943359 339.172689 949.257019 339.407003 949.565002 339.648987 C 949.872335 339.890971 950.173665 340.140645 950.468994 340.39801 C 950.764323 340.655334 951.052653 340.920003 951.333984 341.192017 C 951.616007 341.463989 951.891012 341.742655 952.158997 342.028015 C 952.427673 342.313334 952.68868 342.605326 952.942017 342.903992 C 953.195353 343.202657 953.44102 343.507324 953.679016 343.817993 C 953.917664 344.128662 954.14799 344.444987 954.369995 344.766968 C 954.592651 345.08964 954.806986 345.417318 955.013 345.75 C 955.219014 346.083333 955.416687 346.421346 955.606018 346.764038 C 955.795349 347.106689 955.975667 347.45402 956.146973 347.80603 C 956.31901 348.158 956.482015 348.513997 956.635986 348.874023 C 956.789998 349.234009 956.934998 349.597656 957.070984 349.964966 C 957.207011 350.332316 957.333679 350.702657 957.450989 351.075989 C 957.568339 351.449972 957.676351 351.826294 957.775024 352.204956 C 960.072021 361.210999 957.73999 369.957031 952.979004 377.728027 C 948.815002 384.523987 940.903992 389.844971 933.672974 392.911987 C 930.263977 394.358032 926.27301 395.504028 923.241028 397.677002 C 920.041992 399.968018 917.281982 403.408997 914.398987 406.120972 C 909.478027 410.75 904.036011 415.176025 898.531982 419.088013 C 874.140015 436.422974 841.638 449.666992 812.734985 456.919006 C 799.614014 460.210999 786.267029 462.204956 773.150024 465.359009 C 778.586975 476.942993 790.070984 497.971008 798.549988 507.323975 L 798.856018 507.655029 C 799.013977 512.742981 788.52301 527.898987 786.336975 533.982971 C 786.283997 534.132996 786.234009 534.284973 786.182007 534.434998 C 791.267029 541.211975 795.046021 549.914001 799.070007 557.403015 C 811.489014 554.265991 825.078003 552.705017 837.804016 551.174011 C 842.913025 550.559998 848.208984 550.499023 853.21698 549.297974 C 857.241028 552.241028 882.448975 584.099976 882.625977 587.698975 C 882.848999 592.202026 869.83197 607.307007 866.338989 610.216003 C 870.992981 616.48999 872.77002 623.625 873.109009 631.351013 C 873.721985 645.278015 868.848999 659.880981 859.34198 670.18103 C 849.247986 681.117981 838.968018 684.981995 824.432007 685.609985 C 821.219971 689.122986 818.455017 693.276978 815.452026 696.994019 C 809.698975 704.116028 803.609985 711.088989 798.403992 718.625977 C 800.919006 727.947021 802.398987 737.51001 804.216003 746.981018 C 810.922974 781.924011 816.765991 823.171021 816.440979 858.732971 C 805.234009 876.150024 784.877991 887.606018 767.710022 898.478027 C 764.255005 900.666016 760.22699 904.18103 756.223022 905.187012 C 754.687012 905.572998 753.843018 905.294006 752.565002 904.44397 C 748.783997 897.724976 755.685974 884.757996 755.322021 877.077026 C 755.276001 876.106018 755.437988 876.47998 754.72998 875.84198 C 746.616028 876.380005 737.822021 879.434021 729.97998 881.539978 C 736.888977 898.835022 745.059998 915.91803 751.153992 933.481995 C 755.866028 935.174011 760.585022 937.791992 765.112 939.947021 C 779.611023 946.848022 793.554016 954.396973 807.377014 962.560974 C 795.862 967.390991 782.304016 968.96698 770.01001 970.734985 C 736.586975 975.541992 703.85199 977.778992 670.119019 976.901001 C 668.325989 976.854004 666.697998 976.677979 665.375977 975.325989 C 662.236023 972.112976 651.210999 945.400024 648.419006 939.515991 C 643.947021 930.093018 639.187012 920.830994 634.593018 911.469971 C 632.338013 906.874023 630.335999 900.390015 626.822021 896.723999 C 626.422974 896.775024 625.97699 896.825012 625.591003 896.913025 C 618.281982 898.588013 610.559021 898.950012 603.088013 899.609009 C 593.541016 900.450989 583.971985 901.521973 574.400024 901.968018 C 565.721985 902.372986 557.018005 902.239014 548.330994 902.583008 C 546.20697 912.789001 543.804993 923.382019 540.385986 933.22998 C 507.505005 933.700012 474.872986 932.494019 442.26001 927.893982 C 421.044006 924.901001 400.380005 920.382996 379.446991 915.973022 C 376.188995 923.53302 373.463013 931.455017 370.730988 939.223999 C 368.904999 945.169006 366.574005 950.723999 365.09201 956.807983 C 368.748993 960.166016 373.919006 962.856018 377.998993 965.815002 C 383.671997 969.93103 404.479004 985.036987 405.32901 990.392029 L 404.632996 991.10199 C 398.312988 993.013977 347.023987 986.965027 337.596008 985.489014 C 319.450012 982.64801 301.382996 979.419006 283.808014 973.992004 C 280.406006 972.942017 277.213989 971.508972 273.871002 970.372986 C 271.263 969.486023 265.138 968.234985 263.881989 965.682983 C 261.462006 960.768982 274.287994 919.257019 276.950989 911.744995 C 280.325012 902.22998 284.447998 893.015991 287.877991 883.534973 C 270.238007 875.080994 244.287003 862.651978 230.498001 848.48999 C 230.826004 840.776652 231.521337 833.096313 232.584 825.448975 C 233.647334 817.802327 235.073334 810.223674 236.862 802.713013 C 234.850998 800.059998 232.438004 797.679016 230.348007 795.072021 C 224.363998 787.609009 218.192993 779.10498 214.009003 770.502014 C 212.233002 782.697021 212.682999 795.385986 211.201996 807.705017 C 193.244995 793.853027 183.031998 751.802979 175.992996 730.879028 C 173.936996 740.450012 172.483002 750.439026 171.352997 760.166016 C 170.779007 765.106018 171.462997 771.624023 169.787994 776.226013 L 169.098999 776.247009 C 167.078003 773.650024 166.194 770.388977 164.733994 767.465027 C 148.779999 735.51001 139.903 700.119019 132.994995 665.244995 L 132.149994 665.052002 L 132.233002 663.817993 L 132.744003 664.487976 L 132.330002 663.671021 C 130.727997 667.038025 130.132004 670.867004 129.048996 674.435974 C 125.857002 684.955017 123.024002 695.119019 120.747002 705.877014 C 109.491997 670.328003 108.663002 636.976013 108.625999 599.963013 C 104.524002 606.614014 89.679703 638.905029 87.4664 640.736023 L 86.590897 640.63501 C 86.492401 640.45697 86.380096 640.286011 86.295403 640.101013 C 84.254097 635.64801 84.257103 628.35498 83.761497 623.450012 C 80.514801 591.315979 82.427803 557.427979 93.387299 526.825989 C 93.2332 526.934021 93.078003 527.039978 92.925003 527.148987 L 92.163696 527.697998 C 78.621498 537.348022 67.886002 551.169006 56.816502 563.401001 C 59.109901 552.609009 59.7742 541.492981 61.841 530.633972 C 66.356697 506.908997 74.048401 484.584961 83.600403 462.427002 C 87.402603 453.606995 91.124603 444.921997 96.320503 436.80603 C 90.072304 440.723022 83.501198 444.140991 77.250702 448.093994 C 68.577103 453.578979 60.164902 459.624023 51.411701 464.946045 C 50.499802 465.500977 50.708199 465.533997 49.561901 465.450012 C 49.4645 464.848999 49.433601 464.81604 49.468201 464.104004 C 49.670502 459.934998 52.105301 454.478027 53.444 450.499023 C 60.697102 428.937012 76.551697 404.219971 91.888397 387.390015 C 97.597801 381.125 104.163002 375.467041 110.237999 369.539001 C 100.268997 373.247986 75.0774 385.026978 66.852798 391.036987 C 77.042 363.476013 94.057999 337.579956 114.408997 316.469971 C 123.407997 307.135986 133.167007 298.728027 142.751999 290.028992 C 132.975998 293.916016 122.468002 296.744019 112.385002 299.789001 C 107.581001 301.239014 102.599998 302.43396 98.054001 304.587036 C 102.663002 294.846985 110.882004 285.264038 118.080002 277.31604 C 120.677333 274.461344 123.327998 271.657003 126.031998 268.903015 C 128.736669 266.148987 131.492335 263.447306 134.298996 260.797974 C 137.106328 258.149333 139.962997 255.554688 142.869003 253.014038 C 145.774999 250.473999 148.728333 247.98999 151.729004 245.562012 C 154.729665 243.134684 157.77533 240.765015 160.865997 238.453003 C 163.956665 236.141642 167.090332 233.889648 170.266998 231.697021 C 173.443665 229.505005 176.661001 227.374003 179.919006 225.304016 C 183.177002 223.233988 186.473002 221.22699 189.807007 219.28302 C 195.936005 215.64801 202.292007 212.455017 208.533005 209.021973 C 191.172338 209.297323 173.868337 210.436666 156.621002 212.440002 C 172.897995 196.343018 200.192001 180.827026 221.427002 171.710022 C 226.960999 169.333008 232.755005 167.656982 238.337997 165.393982 C 228.651993 164.309998 218.944 162.684998 209.182007 163.455994 C 228.966995 142.280029 287.733002 123.867004 316.079987 117.989014 C 328.606995 115.390991 341.507996 114.088013 354.227997 112.838989 C 349.243988 111.028015 344.623993 107.916016 339.798004 105.661987 C 328.82901 100.538025 311.634003 95.367798 299.502991 95.962524 C 299.912333 95.684367 300.325002 95.411397 300.740997 95.143616 C 308.910004 89.913025 319.104004 87.646118 328.502014 85.643921 C 356.645996 79.648193 382.109985 78.636597 410.662994 81.093506 C 421.377014 82.015381 431.636993 83.047119 442.157013 85.445068 C 436.919006 82.830688 431.894989 79.7771 426.570007 77.331299 C 422.380005 75.406494 404.299988 68.920288 402.623993 66.996521 C 402.897003 66.809814 403.154999 66.598694 403.442993 66.436523 C 406.484985 64.724182 413.717987 64.439819 417.346985 63.985107 C 449.756012 59.924622 482.519989 65.493225 513.049988 76.4245 C 506.049011 66.192383 493.821991 52.452515 482.492004 46.959412 C 479.386993 45.454224 475.859009 44.723206 472.558014 43.707581 C 474.812988 43.26532 477.110992 43.003113 479.386993 42.688599 Z"/>
    <path id="path1" fill="#968971" stroke="none" d="M 774.719971 552.755981 C 774.892029 554.560974 775.58197 556.958984 775.150024 558.692993 C 774.840027 559.934021 772.854004 562.754028 773.786011 563.539001 C 772.455994 564.72699 769.054993 565.507996 767.299011 566.171021 C 768.663025 561.109985 771.812012 557.025024 774.719971 552.755981 Z"/>
    <path id="path2" fill="#f5eece" stroke="none" d="M 849.572998 556.338989 C 851.073975 557.607971 853.515991 559.572998 853.963013 561.518005 C 847.085022 562.015991 840.208984 562.703003 833.333984 563.171997 C 833.564026 562.088013 833.744995 561.486023 834.554993 560.729004 C 835.421021 559.921021 835.19397 560.450989 835.314026 559.372986 L 834.10199 558.715027 C 839.221985 557.895996 844.51001 557.388977 849.572998 556.338989 Z"/>
    <path id="path3" fill="#fdfbf4" stroke="none" d="M 674.294006 692.846008 L 680.911011 692.130005 C 675.757019 698.976013 672.041992 706.963989 666.877014 713.632996 C 665.958008 712.81897 665.405029 712.284973 664.914001 711.151001 C 665.450989 705.286011 671.263977 697.940002 674.294006 692.846008 Z"/>
    <path id="path4" fill="#bd9a78" stroke="none" d="M 774.719971 552.755981 C 777.241028 548.616028 779.72699 544.427002 781.669983 539.978027 C 784.828979 546.14502 787.900024 552.723999 790.177002 559.268005 C 784.755005 560.822021 779.328003 562.466003 773.786011 563.539001 C 772.854004 562.754028 774.840027 559.934021 775.150024 558.692993 C 775.58197 556.958984 774.892029 554.560974 774.719971 552.755981 Z"/>
    <path id="path5" fill="#c7baa2" stroke="none" d="M 778.934021 553.265015 L 779.992981 554.007996 C 780.119995 554.65802 780.185974 554.814026 780.146973 555.539001 C 780.064026 557.098999 778.900024 558.237976 777.846008 559.224976 C 777.208008 559.064026 776.864014 558.825989 776.317993 558.471985 L 776.101013 557.252991 C 776.703979 555.572021 777.72998 554.554993 778.934021 553.265015 Z"/>
    <path id="path6" fill="#fdfbf4" stroke="none" d="M 741.258972 580.41803 C 749.325012 576.797974 758.353027 574.784973 766.888 572.570984 C 789.021342 566.634989 811.426005 562.016337 834.10199 558.715027 L 835.314026 559.372986 C 835.19397 560.450989 835.421021 559.921021 834.554993 560.729004 C 833.744995 561.486023 833.564026 562.088013 833.333984 563.171997 C 828.848999 564.185974 824.065979 564.541016 819.507019 565.177002 C 810.531006 566.427979 801.52301 567.677002 792.614014 569.348999 C 780.625977 571.599976 768.646973 574.359985 756.75 577.059998 C 751.872986 578.166992 746.231018 580.346985 741.258972 580.41803 Z"/>
    <path id="path7" fill="#bd9a78" stroke="none" d="M 814.354004 264.212036 L 816.494019 264.135986 C 818.406006 265.969971 819.187988 269.953979 820.924011 272.348022 C 821.05603 272.530029 821.192993 272.708984 821.328003 272.890015 C 819.716003 272.504028 818.083984 272.109009 816.434998 271.917969 C 806.312988 270.744995 796.890015 275.515015 789.182007 281.552979 L 785.963013 284.687988 C 785.174011 281.317993 784.596985 277.889038 783.96698 274.485962 C 794.966003 267.882996 801.627991 265.462036 814.354004 264.212036 Z"/>
    <path id="path8" fill="#fdfbf4" stroke="none" d="M 682.973022 692.643982 C 685.48999 690.370972 693.182983 690.281006 696.723022 689.35498 C 689.085022 701.406006 681.271973 713.273987 673.36499 725.140015 C 671.492981 721.794006 669.68103 718.390991 667.689026 715.11499 L 666.877014 713.632996 C 672.041992 706.963989 675.757019 698.976013 680.911011 692.130005 L 682.973022 692.643982 Z"/>
    <path id="path9" fill="#443033" stroke="none" d="M 680.911011 692.130005 L 682.973022 692.643982 C 678.429993 700.106995 673.630981 708.726013 667.689026 715.11499 L 666.877014 713.632996 C 672.041992 706.963989 675.757019 698.976013 680.911011 692.130005 Z"/>
    <path id="path10" fill="#fdfbf4" stroke="none" d="M 742.997986 507.101013 C 743.171021 507.428955 743.176025 507.369019 743.179016 507.860962 C 743.218018 514.716003 729.400024 541.177979 724.718018 546.942993 L 724.812012 546 L 724.518005 546.346008 L 724.114014 542.539978 C 724.01001 534.833984 722.392029 527.843994 720.099976 520.54303 C 724.362 517.232971 727.98999 513.820007 731.002991 509.31604 L 731.400024 508.713013 C 732.039001 508.458984 731.708984 508.684998 732.151001 507.776001 C 733.60199 508.437012 735.682983 509.638 737.276978 509.713989 C 739.749023 509.833008 741.116028 508.515015 742.997986 507.101013 Z"/>
    <path id="path11" fill="#fdfbf4" stroke="none" d="M 862.116028 578.284973 C 863.663025 578.122009 865.494995 577.794983 867.015991 578.247986 C 868.624023 578.72699 869.726013 580.971008 870.575989 582.320007 C 834.01001 585.208984 797.018005 589.317993 760.877991 595.612976 C 759.528992 595.96698 758.356995 596.260986 756.945007 596.242004 C 754.880981 594.971008 754.200012 592.486023 753.213989 590.320007 C 761.901001 588.302979 771.221008 587.453979 780.064026 586.211975 C 807.306661 582.448669 834.657328 579.806335 862.116028 578.284973 Z"/>
    <path id="path12" fill="#fdfbf4" stroke="none" d="M 756.749023 466.588989 C 757.971985 466.481995 758.02301 466.276978 759.114014 466.968994 C 759.125 467.177002 759.155029 467.384033 759.145996 467.592041 C 759.034973 470.265015 757.322021 473.39502 756.20697 475.803955 C 751.538025 485.89502 746.218018 495.638 738.117004 503.390991 C 735.877014 499.73702 733.656352 496.07137 731.455017 492.394043 C 726.879028 486.598999 722.630981 480.494019 717.163025 475.494019 C 723.117004 474.254028 728.901978 472.208008 734.846985 470.889038 C 742.111023 469.276978 749.487976 468.238037 756.749023 466.588989 Z"/>
    <path id="path13" fill="#fdfbf4" stroke="none" d="M 738.771973 581.963989 L 741.866028 582.95697 C 745.906006 587.874023 750.310974 591.713989 753.789978 597.161987 C 743.370972 599.122009 734.455994 608.359009 726.601013 615.026001 C 724.458008 616.844971 722.231018 619.026978 719.801025 620.447021 C 717.596985 621.736023 716.132996 620.094971 714.03302 620.661987 C 711.117004 621.450012 708.291992 625.11499 705.606995 626.677979 C 703.53302 627.885986 700.958984 628.604004 698.687012 629.377014 C 705.320984 622.036011 710.143982 611.723999 715.007996 603.10199 C 718.481018 596.947021 722.155029 590.958008 725.781982 584.893982 C 730.051025 583.273987 734.528992 583.366028 738.771973 581.963989 Z"/>
    <path id="path14" fill="#fdfbf4" stroke="none" d="M 764.802002 465.795044 C 767.146973 467.292969 777.810974 490.410034 780.388 494.854004 C 783.151978 499.619019 786.48999 503.698975 790.044983 507.874023 C 788.849976 510.823975 787.130005 513.612 785.726013 516.47699 C 782.176005 523.870341 778.452677 531.17568 774.55603 538.393005 L 766.049988 552 C 769.353027 535.359985 767.72699 511.94397 765.380005 494.997009 C 764.585022 489.257996 762.22998 483.059998 762.390991 477.296021 C 762.492981 473.632996 764.200012 469.513 764.802002 465.795044 Z"/>
    <path id="path15" fill="#bd9a78" stroke="none" d="M 847.825989 204.765991 C 848.018005 204.710999 848.203003 204.619995 848.401001 204.60199 C 851.987 204.281006 857.838013 207.403992 860.403992 209.641968 C 874.307983 221.768982 877.840027 244.013 879.051025 261.405029 C 880.27301 278.950989 878.546021 300.476013 868.77002 315.653015 C 866.133972 319.744995 862.742981 322.992004 859.575012 326.63501 L 854.664001 323.228027 C 855.677348 322.511353 856.660014 321.754679 857.612 320.958008 C 869.341003 311.096008 873.849976 292.004028 875.172974 277.5 C 875.197998 277.325989 875.224976 277.153992 875.245972 276.97998 C 877.119995 261.830994 872.744995 233.936035 863.002014 221.768982 C 859.406982 217.278992 854.174011 213.835022 848.343994 213.323975 C 843.940002 212.937988 839.763 214.585999 836.419983 217.403992 C 825.692993 226.445007 823.025024 246.044983 822.099976 259.089966 C 820.651978 255.638 819.419983 252.313965 819.086975 248.554016 C 818.099976 237.398987 824.052979 220.710999 831.335022 212.280029 C 836.156982 206.695984 840.812012 205.283997 847.825989 204.765991 Z"/>
    <path id="path16" fill="#fdfbf4" stroke="none" d="M 855.205994 563.153992 C 858.333984 564.823975 863.250977 571.629028 865.960022 574.494019 C 855.203003 574.775024 844.422974 575.940002 833.692993 576.789001 C 806.231995 578.958984 778.343994 581.750977 751.448975 587.992981 L 743.854004 581.221985 C 757.981018 580.18103 772.335022 576.531006 786.267029 573.942017 C 809.049988 569.708008 832.18103 565.789001 855.205994 563.153992 Z"/>
    <path id="path17" fill="#bd9a78" stroke="none" d="M 530.255005 223.333008 C 538.924011 223.947021 556.067993 232.69397 564.68103 236.242981 L 632.828979 264.894043 C 640.202026 267.994019 647.935974 270.304993 655.380981 273.281006 C 654.840027 275.812988 654.538025 279.360962 653.138977 281.528992 L 652.276978 281.580994 C 633.979004 273.952026 615.258972 267.254028 597.070007 259.375 C 572.846008 248.882019 550.627014 237.932983 525.268982 229.89502 C 526.814026 227.552002 528.388 225.434021 530.255005 223.333008 Z"/>
    <path id="path18" fill="#fdfbf4" stroke="none" d="M 641.79303 501.150024 C 644.232971 501.817017 646.447998 503.614014 648.656982 504.851013 C 652.361023 506.927002 663.955994 513.166016 667.880005 512.841003 C 671.601013 512.531982 674.765991 507.690002 677.044006 505.037964 C 682.471985 511.812988 688.630981 517.632996 695.156982 523.323975 C 692.357971 528.981018 689.69397 534.552002 687.263 540.377991 C 685.23999 545.260986 683.591003 550.34198 681.809021 555.31897 C 667.353027 541.752991 649.03302 519.47998 641.79303 501.150024 Z"/>
    <path id="path19" fill="#fdfbf4" stroke="none" d="M 861.541016 618.83197 C 862.212321 619.820658 862.776652 620.867004 863.234009 621.971008 C 863.691325 623.075012 864.031657 624.21401 864.255005 625.388 C 866.695007 637.61499 863.106995 651.119019 856.094971 661.265991 C 850.708984 669.059998 841.197998 675.632996 831.79303 677.25 C 825.080017 678.403015 819.776001 676.810974 814.312988 672.997986 C 818.421021 673.275024 823.348022 673.870972 827.409973 673.250977 C 830.065002 672.846985 834.362976 671.411011 836.05603 669.254028 L 835.89502 668.745972 C 833.692017 667.427979 829.335999 667.195984 826.68103 666.617004 C 823.745972 665.468994 819.913025 662.620972 818.25 659.916016 C 817.398987 658.531006 817.270996 656.310974 817.72998 654.783997 C 818 653.890015 818.452026 654.067993 819.265991 653.963013 C 827.650024 652.880005 836.922974 654.822021 844.939026 651.094971 C 846.617004 650.315002 848.567017 649.202026 849.226013 647.439026 C 844.877991 643.872986 830.916992 649.27301 825.327026 645.052979 C 825.370972 644.734985 825.314026 644.38501 825.460022 644.098999 C 826.757019 641.562012 846.942017 637.192017 853.546997 630.814026 C 857.10199 627.380981 859.267029 623.153015 861.541016 618.83197 Z"/>
    <g id="cravatta">
        <path id="path20" fill="#b38271" stroke="none" d="M 713.617981 522.650024 L 714.205994 522.78302 C 715.039001 525.731018 715.190002 529.174988 715.646973 532.216003 C 716.854004 540.260986 718.236023 548.31897 718.948975 556.424988 C 715.054993 563.757019 709.72998 570.646973 704.669983 577.213013 C 702.500977 575.578003 700.453979 573.73999 698.374023 571.992004 C 694.182983 568.083984 689.97699 564.270996 686.322998 559.840027 C 689.481995 547.973022 694.094971 536.633972 698.192993 525.073975 C 703.395996 524.395996 708.479004 523.763977 713.617981 522.650024 Z"/>
        <path id="path21" fill="#b38271" stroke="none" d="M 710.101013 477.062012 C 715.367981 478.796997 726.047974 497.48999 729.682983 502.781006 C 727.04303 506.640015 723.629028 510.64801 720.281982 513.911011 C 714.254028 519.789001 708.827026 520.070984 700.875 519.950012 C 695.028015 518.945984 684.539978 505.94104 680.869995 501.335999 C 686.447021 493.004028 700.250977 479.275024 710.101013 477.062012 Z"/>
    </g>
    <path id="path22" fill="#fdfbf4" stroke="none" d="M 612.284973 869.203979 C 613.070007 869.05603 613.901978 869.151001 614.697021 869.174988 C 617.211975 871.041016 622.971008 885.984985 624.997986 889.994019 C 616.263 891.153992 607.380005 891.757019 598.606018 892.689026 C 586.205994 894.005981 573.348022 895.794983 560.875 895.614014 C 557.450989 895.760986 554.078003 895.995972 550.671997 896.377991 C 552.239014 887.749023 554.507996 879.327026 556.960999 870.913025 C 575.648987 871.398987 593.617004 870.981018 612.284973 869.203979 Z"/>
    <path id="path23" fill="#fdfbf4" stroke="none" d="M 629.375 448.317017 C 633.745972 450.224976 637.953979 452.567017 642.281982 454.588013 C 652.236023 459.234985 662.502014 463.656006 672.786987 467.520996 C 681.35498 470.740967 690.263977 472.759033 698.945984 475.610962 C 693.439026 479.89801 688.112976 484.065002 683.458008 489.309998 C 678.469971 494.375977 674.773987 500.545044 669.705017 505.609985 C 658.69397 502.325989 649.814026 497.171997 640.773987 490.210999 C 639.328979 485.419006 638.76001 480.151001 637.71698 475.22998 C 635.752014 465.958008 632.960999 457.092041 629.375 448.317017 Z"/>
    <path id="path24" fill="#fdfbf4" stroke="none" d="M 758.351013 806.856995 C 760.25 816.072998 757.927979 859.354004 755.823975 868.724976 C 746.505981 871.369019 736.564026 873.401001 727.05603 875.296997 C 726.133972 872.609009 724.901001 869.98999 723.791992 867.372986 C 719.968994 858.609985 716.64801 849.606995 713.184998 840.695984 C 733.197998 830.875977 743.869995 824.03302 758.351013 806.856995 Z"/>
    <path id="path25" fill="#b38271" stroke="none" d="M 277.359985 944.534973 C 283.178009 946.375977 288.766998 948.752014 294.674988 950.379028 C 311.661011 955.057007 336.664001 957.927979 354.15799 956.474976 C 360.570007 963.247009 367.914001 968.893005 375.182007 974.695984 C 378.399994 977.265991 382.089996 979.747009 384.878998 982.763 C 383.700989 983.43103 381.757996 982.971985 380.381989 982.862 C 344.906006 979.771973 306.545013 973.815979 273.096985 961.164001 C 274.617004 955.627991 275.362 949.935974 277.359985 944.534973 Z"/>
    <path id="path26" fill="#b38271" stroke="none" d="M 746.547974 938.539001 C 761.174011 946.715027 777.380981 952.195984 791.734009 960.724976 C 786.552979 962.229004 780.661987 962.656006 775.312988 963.448975 C 752.52301 966.828003 729.606995 968.012024 706.627991 969.267029 C 698.588989 969.101013 678.736023 971.088989 672.322998 968.229004 C 668.067017 966.330994 664.987976 956.708008 663.153015 952.580994 C 669.632019 953.638977 676.117981 953.708984 682.663025 953.625 C 705.629028 953.327026 725.713989 947.874023 746.547974 938.539001 Z"/>
    <path id="path27" fill="#fdfbf4" stroke="none" d="M 843.179016 219.515991 C 844.525024 219.400024 845.921021 219.349976 847.270996 219.396973 C 851.19397 219.536011 854.869019 221.828979 857.474976 224.640015 C 868.254028 236.263 870.179016 259.426025 869.309998 274.377014 C 868.374023 290.480957 865.16803 305.291992 852.676025 316.401978 C 851.624023 316.874023 850.966003 317.197998 849.799011 317.10498 C 845.739014 314.888 842.690002 310.960999 840.070007 307.247986 C 837.064026 302.988037 835.146973 298.372009 833.299988 293.52301 C 827.711975 278.853027 825.882996 265.343018 828.577026 249.723022 C 830.414001 239.065979 833.890991 226.049988 843.179016 219.515991 Z"/>
    <path id="path28" fill="#fdfbf4" stroke="none" d="M 617.458008 597.03302 C 629.585022 603.22699 643.633972 608.780029 656.359009 613.76001 C 656.880005 621.075989 655.690002 628.106018 654.02301 635.205994 C 647.658997 662.314026 632.163025 685.59198 615.166016 707.213989 C 608.31897 703.737976 601.283997 701.450012 594.125977 698.77301 C 588.057332 696.435689 582.038005 693.977681 576.067993 691.398987 L 576.961975 690.463013 C 597.960022 668.179993 618.343018 628.026001 617.458008 597.03302 Z"/>
    <path id="path29" fill="#fdfbf4" stroke="none" d="M 700.322021 608.419983 L 701.814026 608.911011 C 705.177979 614.713989 681.612 635.375977 681.356018 640.916016 C 682.452026 641.580994 683.174011 641.585022 684.450012 641.414001 C 692.887024 640.284973 721.41803 629.203003 730.565979 625.48999 C 735.789978 623.369019 741.135986 620.559021 746.440002 618.799011 C 747.799011 618.346985 748.51001 618.45697 749.820007 618.929016 C 750.382996 620.122986 750.560974 620.742981 750.19397 622.054016 C 747.838989 630.458984 726.426025 638.898987 718.440002 642.867004 C 717.012024 643.575989 716.432983 643.950989 715.927979 645.476013 L 716.671021 646.72699 C 724.289001 651.437012 743.622986 636.396973 750.458008 636.549988 C 751.861023 636.58197 752.049988 636.760986 753.005981 637.66803 C 753.427979 639.380981 753.284973 640.617981 752.640015 642.242981 C 749.137024 651.070984 738.309998 656.072021 730.184021 659.747986 C 726.726013 661.09198 719.20697 663.130981 717.401001 666.434998 C 716.994995 667.179016 717.296021 667.484009 717.515991 668.231995 C 720.997986 669.710022 737.875 663.218994 741.814026 661.906006 C 739.562012 664.304993 737.338013 666.650024 734.669983 668.593994 C 714.952026 682.963989 665.916016 689.455017 641.783997 685.731018 C 651.627014 669.526978 657.458008 653.922974 663.411987 636.020996 C 676.435974 629.617004 686.898987 614.682983 700.322021 608.419983 Z"/>
    <path id="path30" fill="#fdfbf4" stroke="none" d="M 791.310974 727.794006 C 796.594971 733.237 804.684998 814.505005 805.60498 826.388 C 806.382019 836.429016 806.005005 846.590027 807.179016 856.536987 C 802.616028 864.585022 775.486023 881.052979 767.341003 887.958008 L 766.689026 888.517029 C 764.387024 890.242981 761.965027 891.843994 759.603027 893.487 C 764.146973 874.526001 765.231018 855.812012 765.875 836.414001 C 766.966003 803.541016 765.674988 771.414978 760.810974 738.862 C 766.448975 738.914001 772.702026 739.429016 778.25 738.61499 C 784.812988 737.651978 787.786987 732.797974 791.310974 727.794006 Z"/>
    <path id="libro" fill="#b38271" stroke="none" d="M 861.059998 593.791016 C 863.184021 593.570984 865.344971 593.520996 867.478027 593.401001 C 862.789001 601.004028 857.460022 608.258972 852.338989 615.577026 C 849.77002 619.247009 846.271973 623.234009 844.64801 627.393982 C 838.453979 630.125 817.679993 635.580017 814.390015 640.096008 C 813.221008 641.700989 813.400024 643.127991 813.726013 644.960022 C 813.874023 645.796997 813.252991 646.294983 812.799988 646.978027 C 805.382996 658.151978 809.799011 657.119995 811.812988 666.992981 C 810.632996 669.111023 807.921997 669.374023 806.624023 671.406006 C 806.135986 672.169983 806.060974 672.846008 806.218018 673.698975 C 806.921021 677.539001 811.737 680.700989 814.742981 682.781006 C 811.377991 687.838989 807.002014 692.513977 803.257019 697.320007 L 777.737 730.096008 C 760.156006 730.447998 742.390991 730.734985 724.848999 731.89502 C 711.435974 732.781982 695.440979 735.231995 682.375977 734.335999 C 681.599976 734.416992 682.005005 734.474976 681.187012 734.025024 C 681.955017 729.145996 706.937988 694.416016 712.018005 687.487 C 720.536987 684.008972 728.874023 681.487 736.562988 676.190002 C 744.68103 670.598999 751.685974 663.718018 753.469971 653.770996 C 755.578979 651.502014 757.617004 649.302002 759.166992 646.594971 C 761.017029 643.362976 762.460999 639.348022 761.249023 635.635986 C 759.987976 631.77002 757.38501 630.544006 754.005981 628.835999 C 754.245321 628.519999 754.480652 628.201335 754.711975 627.880005 C 756.875977 624.866028 758.75 621.486023 757.958008 617.64502 C 757.140015 613.679016 753.859985 611.291992 750.640015 609.294006 C 761.461975 604.421997 774.642029 603.802979 786.281982 602.155029 C 811.103312 598.428996 836.029317 595.640991 861.059998 593.791016 Z"/>
    <path id="path31" fill="#fdfbf4" stroke="none" d="M 652.747986 164.94397 C 675.171997 167.299988 699.153015 178.674011 717.530029 191.536987 C 722.492981 195.01001 728.948975 201.228027 733.526978 203.958008 L 734.255005 203.447998 C 734.271973 203.242981 734.309998 203.037964 734.307007 202.833008 C 734.249023 198.197021 724.239014 180.207031 721.018005 176.615967 C 732.505981 180.742981 744.78302 185.625 754.328979 193.393005 C 756.564331 195.195007 758.636007 197.169006 760.544006 199.315002 C 762.125 201.117981 765.062988 206.56897 766.919006 207.370972 L 767.385986 206.643982 C 766.981018 197.410034 756.388 183.182983 750.874023 175.895996 C 751.242676 176.06132 751.608663 176.231995 751.971985 176.40802 C 783.393982 191.664001 799.406982 226.950012 810.177979 258.322021 C 799.692993 258.911987 792.159973 263.114014 783.580994 268.744995 C 782.390991 265.210999 780.809998 261.77002 779.08197 258.469971 C 769.530029 240.223022 753.992981 227.356018 734.22998 221.375 C 718.840027 216.71698 702.869995 219.76001 688.919006 227.166992 C 672.958984 236.848999 663.835999 250.187988 656.984009 267.166992 L 565.541992 229.070007 C 575.315002 225.771973 586.97998 224.390991 597.258972 223.591003 C 601.343994 223.271973 605.538025 223.265015 609.593018 222.705994 C 610.590027 222.567993 611.231018 222.427979 612.059998 221.815002 C 610.544983 217.046997 585.382019 201.167969 580.47998 195.005005 C 580.343018 194.833984 580.211975 194.65802 580.078003 194.484985 C 594.271973 194.302979 611.440979 194.382019 625.231995 197.432007 C 631.828979 198.890991 638.307007 202.78302 645.065979 203.153992 L 645.580994 202.651978 C 643.893982 198.672974 625.211975 185.233032 621.025024 182.627991 C 616.234009 179.646973 611.106995 177.101013 606.122986 174.455994 C 629.119995 174.859009 648.174011 179.252014 669.169006 188.585999 C 675.046021 191.198975 680.388 195.06897 686.447998 197.218994 L 687.169006 197.469971 C 678.544006 186.139038 663.312988 174.964966 652.747986 164.94397 Z"/>
    <path id="path32" fill="#bd9a78" stroke="none" d="M 713.875 224.674011 C 714.023987 224.645996 714.171021 224.609009 714.322021 224.59198 C 729.367004 222.830994 745.322998 228.738037 756.880005 238.239014 C 770.963989 249.817993 779.208008 266.036987 780.898987 284.131958 C 783.004028 306.643005 780.969971 328.177979 765.953979 346.120972 C 755.577026 358.521973 741.583008 364.153015 725.75 365.533997 C 710.278992 367.14502 696.062988 362.598999 683.495972 353.554993 C 669.809021 343.704956 661.810974 328.468994 659.22998 311.916992 C 655.984985 291.114014 660.950012 266.171997 673.590027 249.106995 C 674.184021 248.292989 674.798014 247.494324 675.432007 246.710999 C 676.065348 245.927022 676.718018 245.159363 677.390015 244.40802 C 678.06132 243.656677 678.750977 242.922343 679.458984 242.205017 C 680.166341 241.487691 680.891337 240.78835 681.633972 240.106995 C 682.376648 239.424988 683.135315 238.761983 683.909973 238.117981 C 684.685323 237.473979 685.475993 236.849325 686.281982 236.244019 C 687.088013 235.639364 687.908346 235.054688 688.742981 234.48999 C 689.577657 233.925334 690.426005 233.381673 691.288025 232.859009 C 692.149353 232.336995 693.023336 231.835999 693.909973 231.356018 C 694.796651 230.876648 695.694336 230.419637 696.603027 229.984985 C 697.512329 229.549683 698.431661 229.137024 699.361023 228.747009 C 700.290344 228.357646 701.228678 227.991313 702.176025 227.64801 C 703.123332 227.304667 704.078654 226.98466 705.041992 226.687988 C 706.00533 226.392008 706.975342 226.120015 707.952026 225.872009 C 708.92867 225.623352 709.91099 225.399353 710.898987 225.200012 C 711.886332 225.00002 712.878337 224.824687 713.875 224.674011 Z"/>
    <path id="path33" fill="#5c3b40" stroke="none" d="M 715.893005 232.213013 C 727.73999 231.323975 740.216003 235.124023 749.896973 241.910034 C 763.755005 251.624023 772.150024 267.769043 774.961975 284.213989 C 777.815002 300.901001 774.367004 320.841003 764.432983 334.769043 C 755.471008 347.334961 742.26001 355.411011 727.070007 357.893005 C 726.424011 357.97703 725.777344 358.053365 725.130005 358.122009 C 712.390991 359.562988 697.716003 354.952026 687.825012 346.880981 C 675.354004 336.703979 668.002991 320.388 666.445007 304.567993 C 664.663025 286.458984 670.002991 264.575989 681.755005 250.424988 C 690.586975 239.791016 702.14801 233.533997 715.893005 232.213013 Z"/>
    <path id="path34" fill="#fdfbf4" stroke="none" d="M 720.017029 239.229004 C 731.304993 239.192017 740.851013 242.760986 749.414978 250.125 C 762.760986 261.601013 768.833008 276.596008 770.005981 294.013 C 770.07133 294.937683 770.113993 295.863363 770.133972 296.790039 C 770.153992 297.716675 770.151326 298.643331 770.125977 299.570007 C 770.100667 300.496643 770.052999 301.422302 769.982971 302.346985 C 769.912333 303.271016 769.819682 304.193034 769.705017 305.113037 C 769.589661 306.03304 769.451986 306.949361 769.291992 307.862 C 769.131999 308.77533 768.949666 309.684001 768.744995 310.588013 C 768.541016 311.492676 768.315023 312.391337 768.067017 313.283997 C 767.81901 314.177348 767.549337 315.064006 767.257996 315.94397 C 766.966654 316.824015 766.653992 317.69637 766.320007 318.561035 C 765.985982 319.426351 765.631307 320.282674 765.255981 321.130005 C 764.880005 321.977336 764.484009 322.815002 764.067993 323.643005 C 763.651326 324.471008 763.214661 325.288676 762.757996 326.096008 C 762.301982 326.90269 761.826314 327.698018 761.330994 328.481995 C 760.836324 329.26532 760.322327 330.036336 759.789001 330.795044 C 759.256327 331.55367 758.705668 332.298991 758.137024 333.031006 C 757.567688 333.762329 756.981018 334.479655 756.377014 335.182983 C 747.203003 345.671021 735.116028 351.131958 721.367981 351.968018 C 710.120972 352.536987 697.471985 347.505005 689.174011 340.054993 C 677.880981 329.915039 672.030029 314.686035 671.278992 299.744995 C 670.442993 283.130005 675.241028 265.619995 686.719971 253.198975 C 695.380005 243.828979 707.534973 239.754028 720.017029 239.229004 Z"/>
    <path id="path35" fill="#5c3b40" stroke="none" d="M 694.914001 275.067993 C 696.622009 274.916016 698.468018 274.786987 700.150024 275.171997 C 704.440979 276.153015 707.90802 279.537964 710.077026 283.219971 C 714.130005 290.098999 715.515015 299.281006 713.505005 307.02002 C 711.698975 313.976013 707.974976 317.886963 702.007996 321.437012 C 699.598999 322.355957 697.869995 322.317993 695.416992 321.544006 C 691.140991 320.195007 688.434998 316.546997 686.598999 312.627991 C 686.356323 312.10732 686.127319 311.580994 685.911987 311.049011 C 685.696004 310.516988 685.493673 309.97998 685.304993 309.437988 C 685.116313 308.895345 684.941325 308.348348 684.780029 307.796997 C 684.619344 307.246338 684.472331 306.691671 684.338989 306.132996 C 684.205648 305.574361 684.08665 305.012695 683.981995 304.447998 C 683.87734 303.883341 683.787008 303.316671 683.710999 302.747986 C 683.634338 302.178691 683.572347 301.608032 683.525024 301.036011 C 683.477661 300.463338 683.444987 299.89034 683.427002 299.317017 C 683.408325 298.743001 683.404317 298.168986 683.414978 297.594971 C 683.424988 297.020996 683.449992 296.447347 683.48999 295.874023 C 683.529338 295.301351 683.583008 294.730021 683.651001 294.160034 C 683.719686 293.590007 683.802348 293.021993 683.898987 292.455994 C 683.995667 291.889994 684.106669 291.32666 684.231995 290.765991 C 684.35732 290.206014 684.496989 289.649353 684.651001 289.096008 C 684.804321 288.542664 684.971659 287.993652 685.153015 287.448975 C 685.333679 286.904297 685.528341 286.364299 685.737 285.828979 C 687.586975 280.937988 690.070984 277.243042 694.914001 275.067993 Z"/>
    <path id="path36" fill="#fdfbf4" stroke="none" d="M 427.472992 295.838013 C 431.721008 299.820007 437.946014 309.401978 442.154999 314.526001 C 448.21701 321.906006 455.416992 328.497009 462.372986 335.037964 C 476.371002 348.202026 492.395996 359.22998 508.264008 369.973022 C 521.575989 378.987 534.948975 388.047974 548.650024 396.462036 C 559.731018 403.268005 571.114014 409.509033 582.43103 415.901001 C 591.656982 421.112 610.047974 430.89801 616.789001 438.958984 C 634.06897 459.625 640.828979 532.333008 641.133972 559.598999 C 641.245972 569.617004 640.286011 579.617981 639.229004 589.565002 C 636.75 581.575989 634.211975 573.484009 631.005005 565.754028 C 629.890015 562.663025 628.482971 559.53302 626.940979 556.632019 C 625.419006 553.79067 623.753337 551.036336 621.94397 548.369019 C 620.134644 545.70166 618.191325 543.135661 616.114014 540.671021 C 609.062012 532.43103 592.377991 517.31897 581.872009 514.161011 C 589.53302 505.259033 597.41803 497.688965 602.747986 487.087036 C 605.205994 488.342041 608.586975 490.729004 611.270996 490.968018 L 611.702026 490.286987 C 610.901978 487.900024 608.833984 486.023987 607.114014 484.239014 C 591.375977 467.898987 559.460999 458.187988 538.379028 449.749023 C 535.322021 448.526001 532.370972 446.828979 529.328979 445.509033 C 522.713989 442.639038 516.018005 439.950012 509.51001 436.838989 C 494.209015 429.52301 474.864014 418.717041 462.536987 406.926025 C 456.428009 401.080994 450.528992 394.158997 446.260986 386.837036 C 442.578003 380.516968 440.113007 373.450989 437.833008 366.523987 C 435.906006 360.669006 433.800995 354.718018 432.440002 348.702026 C 428.592987 331.692017 427.829987 313.249023 427.472992 295.838013 Z"/>
    <g id="vestito">
        <path id="path37" fill="#968971" stroke="none" d="M 758.330017 537.846008 C 759.663025 543.833984 758.106995 554.046021 758.02301 560.55603 C 749.661011 567.718018 738.117004 574.666992 727.354004 577.362 C 727.346985 577.330994 727.35199 577.294983 727.333984 577.268982 C 727.273987 577.179993 727.195007 577.106018 727.125977 577.025024 C 729.554993 572.659973 733.677979 568.903992 737.078003 565.276978 C 744.984985 556.843018 753.093018 548.258972 758.330017 537.846008 Z"/>
        <path id="path38" fill="#968971" stroke="none" d="M 648.689026 586.208008 C 651.719971 587.664001 654.924011 591.015991 657.744019 593.083008 C 666.71698 599.661011 675.833008 606.51001 685.804993 611.499023 C 682.379028 613.768005 679.096008 616.184021 675.815979 618.65802 C 671.880005 621.580017 668.057983 624.547974 664.322021 627.729004 C 664.796021 622.309652 665.225688 616.886658 665.611023 611.460022 C 661.510986 606.242981 654.906982 604.393982 649.033997 601.812988 C 648.804016 596.638 649.557007 591.328003 648.689026 586.208008 Z"/>
        <path id="path39" fill="#968971" stroke="none" d="M 282.713989 926.768982 C 288.343994 928.210999 293.696014 930.763977 299.31601 932.343994 C 317.859009 937.554993 343.800995 942.08197 363.102997 940.713989 C 362.144012 943.661987 361.678986 948.533997 359.860992 950.934021 C 352.320007 951.077026 344.790985 951.45697 337.25 951.132019 C 317.743011 950.289978 297.380005 946.117981 278.972992 939.689026 C 279.994995 935.301025 281.067993 930.971008 282.713989 926.768982 Z"/>
        <path id="path40" fill="#968971" stroke="none" d="M 735.518005 918.169983 C 737.190002 920.130005 740.439026 928.666016 741.939026 931.533997 C 719.710022 945.987976 688.171997 949.947998 662.067017 949.768005 C 659.244995 945.216003 657.335999 940.002991 654.939026 935.198975 C 677.580017 941.434021 715.254028 929.515991 735.518005 918.169983 Z"/>
        <path id="path41" fill="#968971" stroke="none" d="M 297.016998 888.367981 C 309.210337 893.531311 321.572001 898.254313 334.10199 902.536987 C 346.631999 906.819661 359.298665 910.651326 372.10199 914.031982 C 370.934998 917.559021 366.279999 934.299011 363.75 935.64502 C 362.826996 935.362 362.29599 935.22998 361.312988 935.354004 C 361.065002 935.38501 360.820007 935.439026 360.574005 935.481018 C 334.475006 935.838989 309.029999 929.913025 283.954987 923.286987 C 288.145996 911.585022 293.10199 900.174011 297.016998 888.367981 Z"/>
        <path id="path42" fill="#968971" stroke="none" d="M 756.715027 491.372009 C 757.974976 504.624023 759.046021 517.52301 758.39801 530.84198 C 752.733988 539.776672 746.426656 548.231344 739.476013 556.205994 C 734.187988 562.289001 728.336975 568.036987 723.500977 574.487 C 717.68103 582.247986 713.531006 591.525024 708.599976 599.906006 L 702.406006 598.101013 C 698.424988 599.942017 694.591003 601.960999 690.744995 604.065002 C 679.150024 599.034973 662.429016 587.823975 653.138977 579.14502 C 651.776978 577.872009 650.421021 576.526001 649.789001 574.729004 C 648.130005 570.015015 649.629028 557.273987 649.473022 551.559998 C 659.171021 566.737976 676.346985 584.453003 692.55603 592.695007 C 689.179016 588.22699 685.133972 584.367004 681.182983 580.41803 C 669.461975 568.978027 659.197998 556.656982 648.84198 544.017029 C 647.857971 537.416016 647.268982 530.737976 646.554993 524.101013 C 649.442993 529.367981 652.343018 534.517029 655.987 539.307007 C 663.03302 548.567017 691.088989 578.968018 700.703003 583.18103 C 698.643005 585.955017 694.364014 590.450012 694.770996 593.924988 C 695.549011 593.86499 696.114014 593.716003 696.801025 593.333008 C 713.632019 583.935974 737.596008 543.271973 745.120972 525.682007 C 749.859985 514.604004 753.077026 502.846008 756.715027 491.372009 Z"/>
        <path id="path43" fill="#968971" stroke="none" d="M 705.323975 845.463989 L 706.184998 845.539978 C 706.403992 845.768982 730.13501 905.604004 733.494019 913.257019 C 730.197998 915.255981 726.718018 916.919006 723.213989 918.518982 C 715.783997 921.911987 707.908997 924.896973 700.039001 927.078003 C 689.486023 930.004028 663.669006 934.541016 653.65802 930.796021 C 648.013 920.697021 643.130981 910.216003 637.955017 899.874023 C 632.719971 889.411987 627.132019 879.018005 622.577026 868.241028 C 651.096008 863.497009 678.171021 855.283997 705.323975 845.463989 Z"/>
        <path id="path44" fill="#968971" stroke="none" d="M 638.153992 692.16803 C 646.421997 694.987976 657.094971 693.739014 665.677002 693.531006 C 662.26001 698.94397 658.742981 704.297974 655.867004 710.025024 C 658.093018 715.580994 661.460022 720.835999 664.093018 726.223022 C 666.827026 731.815002 668.833984 737.723999 671.924988 743.142029 C 679.471985 743.846985 687.288025 742.984009 694.851013 742.703003 C 714.554342 741.855672 734.239014 740.695007 753.905029 739.221008 C 755.994019 756.189026 757.163025 777.377991 757.520996 794.598999 C 742.598999 815.85498 725.296021 825.835022 701.88501 835.616028 C 691.890991 839.791992 682.064026 843.504028 671.616028 846.38501 C 636.843018 857.416016 595.603027 864.171997 559.096008 862.64801 C 560.129028 857.419006 562.039978 852.236023 563.536987 847.112 L 571.815002 818.963989 L 588.057007 764.872009 C 593.330017 747.478027 598.77301 730.325989 603.041992 712.651978 C 607.301025 713.580994 612.89801 715.877991 617.247009 715.283997 C 622.817993 714.52301 634.632019 697.064026 638.153992 692.16803 Z"/>
    </g>
    <path id="path45" fill="#fdfbf4" stroke="none" d="M 515.020996 237.692017 C 522.508972 237.127014 529.655029 238.667969 536.786987 240.856995 C 551.01001 245.223999 564.80603 252.174988 578.463989 258.098022 C 592.046997 263.989014 605.960022 269.146973 619.75 274.531006 C 630.697021 278.80603 641.573975 283.484985 652.822998 286.916016 C 652.381673 290.441325 652.134013 293.97998 652.080017 297.531982 C 652.02533 301.083984 652.164327 304.628662 652.497009 308.166016 C 654.379028 326.660034 663.182983 345.161987 677.820984 356.869019 C 691.974976 368.190002 710.929993 372.098022 728.663025 369.999023 C 757.440979 366.593018 779.366028 346.807007 784.588989 317.973022 C 785.754028 311.545044 784.997986 300.519043 786.643005 295.381958 C 787.153015 293.790039 788.299988 292.330994 789.343994 291.052979 C 795.184021 283.903992 803.781982 279.730957 812.830017 278.820007 C 817.539978 285.256958 819.955994 293.976013 823.994019 300.999023 C 840.872986 330.359009 869.638 346.76001 901.565002 355.290039 C 900.25 359.846985 900.432983 364.226013 901.38501 368.834961 C 903.307007 378.143005 907.952026 387.307007 916.03302 392.625 C 901.463989 410.495972 864.255981 429.494995 842.536011 437.515991 C 808.849976 450.098999 776.145996 454.536011 741.507019 462.400024 C 730.33197 464.937012 719.346008 468.210999 708.370972 471.485962 C 681.60498 464.453979 653.155029 454.552979 628.776001 441.322021 C 623.052002 438.214966 618.260986 433.228027 613.239014 429.122009 C 607.846008 424.712036 602.072998 420.632996 596.291016 416.75 C 579.603027 405.540039 561.901978 395.771973 545.142029 384.620972 C 533.612976 376.950989 522.031006 369.067017 510.807007 360.958008 C 501.368011 354.139038 492.166992 347.036987 482.569 340.432983 C 494.322998 335.924011 509.183014 333.874023 521.755005 333.457031 C 506.252014 323.544006 489.89801 311.72998 475.575012 300.136963 C 492.044006 299.596008 510.084991 298.062012 525.607971 292.394043 C 530.164978 294.916992 537.096008 299.280029 542.304016 299.653992 C 543.692993 299.754028 545.049988 299.828979 546.107971 298.89801 C 545.174011 296.270996 532.827026 290.221008 529.914001 288.221985 C 520.672974 281.882996 497.115997 259.343018 495.44101 248.237 C 495.207001 246.679993 495.526001 245.265015 496.541992 244.036011 C 500.165009 239.653015 509.721985 238.39801 515.020996 237.692017 Z"/>
    <path id="path46" fill="#5c3b40" stroke="none" d="M 666.486023 361.981995 L 668.275024 362.117004 L 668.554016 363.06604 C 666.440979 367.150024 651.612 374.422974 646.875977 376.375 L 645.267029 376.393005 L 645.08197 375.608032 C 647.547974 370.651001 661.414978 364.091003 666.486023 361.981995 Z"/>
    <path id="path47" fill="#5c3b40" stroke="none" d="M 660.164978 352.612 C 660.510986 352.700989 660.749023 353.02301 661.031006 353.240967 L 660.903992 354.238037 C 658.325012 357.754028 636.526978 369.176025 631.380981 371.520996 C 631.088013 371.323975 630.921997 370.981995 630.703003 370.703979 C 636.992004 363.127991 650.405029 354.453003 660.164978 352.612 Z"/>
    <path id="path48" fill="#5c3b40" stroke="none" d="M 643.997009 347.523987 C 644.955994 347.466003 645.520996 347.525024 646.421997 347.863037 L 646.684998 348.661987 C 644.322021 352.822021 623.713989 363.004028 618.307007 365.436035 C 617.067017 365.531006 616.403992 365.540039 615.265991 365.014038 L 615.302979 364.255981 C 619.416992 358.664001 636.916016 349.333984 643.997009 347.523987 Z"/>
    <path id="path49" fill="#5c3b40" stroke="none" d="M 841.223022 407.446045 C 841.961975 407.619019 842.106995 407.901001 842.64801 408.410034 C 842.599976 408.713989 842.609985 409.032959 842.502991 409.322021 C 841.575989 411.829956 837.036987 414.653992 834.606995 415.666992 C 824.112 420.041016 813.484009 419.906982 803.114014 415.428955 C 801.744995 414.60199 800.275024 413.469971 799.859985 411.920044 C 802.088013 411.192017 808.161987 413.14502 810.794006 413.382996 C 821.51001 414.351013 831.515015 411.849976 841.223022 407.446045 Z"/>
    <path id="path50" fill="#5c3b40" stroke="none" d="M 531.604004 251.664001 C 533.281982 251.44397 535.382996 251.572021 537.062988 251.807007 C 547.435974 253.257019 559.242004 260.502014 565.619019 268.752991 C 567.940979 271.756958 571.276978 276.391968 570.801025 280.307983 L 570.08197 280.812988 C 565.940979 279.47699 562.718994 272.521973 559.284973 269.51001 C 555.244995 265.968018 550.778992 263.31897 545.947998 261.01001 C 541.828979 259.186035 532.802002 255.780029 528.403015 257.502014 C 527.309021 257.93103 526.664001 258.674011 526.447021 259.832031 C 525.559021 264.56604 537.02301 278.432983 540.328979 282.47998 C 539.050985 281.840007 537.806661 281.140666 536.596008 280.381958 C 530.460999 276.497986 521.958008 268.860962 520.515015 261.445007 C 520.130005 259.468018 520.270996 257.414001 521.487976 255.73999 C 523.926025 252.382996 527.846985 252.212036 531.604004 251.664001 Z"/>
    <path id="path51" fill="#fdfbf4" stroke="none" d="M 450.329987 406.303955 C 456.209991 411.620972 461.834015 417.754028 468.109009 422.559998 C 490.834015 439.963013 525.799988 454.174988 552.588013 464.364014 C 567.848999 470.167969 585.151978 475.657959 598.719971 484.737 C 593.086975 491.802002 576.416992 506.606995 573.599976 513.02301 C 572.778992 514.892029 573.869019 516.409973 575.09198 517.765991 C 578.476013 521.518005 583.437012 523.846008 587.606018 526.606995 C 592.564026 529.892029 597.453979 533.445007 601.994019 537.286011 C 620.452026 552.901978 631.403015 577.638977 639.197021 600.075012 C 629.348999 596.260986 613.539978 589.166992 604.625977 583.68103 C 577.346985 566.89502 553.658997 538.364014 536.882019 511.427979 C 533.591329 506.171305 530.552653 500.77299 527.765991 495.233032 C 525.445007 490.61499 523.35498 485.104004 520.258972 481.014038 L 519.65802 481.049988 C 519.505981 481.786987 519.505005 482.327026 519.666016 483.067017 C 521.747986 492.588013 527.736023 504.890991 532.362 513.507996 C 546.960999 540.698975 567.190979 566.041016 592.122986 584.53302 C 597.726013 588.689026 603.765015 591.978027 609.625977 595.723022 C 610.155029 618.867004 595.843018 650.754028 582.632996 669.940002 C 578.393982 676.096985 573.187012 681.39801 568.770996 687.380005 L 568.468018 687.796021 C 566.323324 687.130656 564.210327 686.377319 562.129028 685.536011 C 537.271973 675.265991 513.47699 661.26001 494.154999 642.453979 C 487.459015 635.935974 480.699005 629.330994 475.244995 621.710022 C 470.046997 614.445984 466.47699 606.520996 462.977997 598.35498 C 450.199005 568.53302 448.526001 543.846985 449.549011 512.133972 C 449.752991 505.811035 453.306 482.653015 451.910004 479.282959 L 451.131012 479.516968 C 449.265991 482.240967 448.324005 485.362 447.480011 488.52301 C 440.324005 515.349976 438.401001 552.413025 444.841003 579.630005 C 448.450012 594.883972 454.817993 609.882996 462.597992 623.435974 C 487.071991 661.343018 521.341003 681.499023 562.409973 697.695984 C 571.783997 701.393005 588.085022 705.947998 595.875977 710.690002 L 595.400024 711.549988 L 595.844971 711.551025 C 592.591003 725.383972 587.06897 738.997986 582.747986 752.539001 C 569.697021 793.435974 556.013977 834.244019 545.901001 875.992981 C 541.945007 892.322021 537.81897 908.76001 536.409973 925.551025 C 451.78299 926.664978 347.782013 901.651001 272.717987 862.098022 C 262.766998 856.85498 250.404999 851.40802 241.729004 844.356995 C 243.822998 822.799011 250.039001 800.567993 256.10199 779.809998 C 272.864014 722.424988 297.134003 668.598022 324.203003 615.44397 C 334.246002 595.723022 344.125 576.083984 355.128998 556.867981 C 369.678335 531.835999 384.682668 507.079997 400.141998 482.599976 C 408.5 469.135986 417.153015 455.911987 425.700012 442.570007 C 433.575012 430.276001 441.239014 417.75 450.329987 406.303955 Z"/>
    <path id="path52" fill="#5c3b40" stroke="none" d="M 555.940002 748.059021 C 558.645996 747.60199 561.583984 748.106995 564.078979 749.22699 C 566.325989 750.237 567.853027 752.038025 568.658997 754.348999 C 570.39801 759.333984 568.786987 765.09198 566.612976 769.702026 C 563.22998 776.875977 557.552979 782.590027 550.075012 785.343018 C 547.273987 785.997986 544.570984 786.021973 541.986023 784.596008 C 539.539001 783.245972 538.096985 780.919983 537.353027 778.278992 C 535.603027 772.065002 536.838989 765.432983 540.046021 759.916016 C 543.702026 753.627014 549.000977 749.908997 555.940002 748.059021 Z"/>
    <path id="path53" fill="#bd9a78" stroke="none" d="M 545.242004 781.151001 C 544.398987 780.197998 543.502991 779.247986 542.789001 778.192993 C 540.945984 775.466003 540.732971 771.379028 541.466003 768.263977 C 542.690002 763.065002 546.460999 758.603027 550.950012 755.844971 C 553.44397 754.312988 557.484009 752.530029 560.473999 753.551025 C 561.966003 754.059998 563.015015 754.905029 563.651978 756.372009 C 565.156982 759.835022 563.508972 763.237 562.307983 766.515991 C 562.265015 766.299988 562.226013 766.083984 562.177979 765.869019 C 561.708008 763.728027 561.255005 762.14502 559.166016 761.049011 C 557.463013 760.155029 555.66803 760.23999 553.919983 760.906982 C 550.697998 762.135986 547.903992 764.638 546.513977 767.812012 C 545.45697 770.226013 545.14801 772.984985 546.234009 775.445984 C 547.086975 777.380005 548.111023 778.429993 550.033997 779.171021 C 550.169983 778.971985 550.322998 778.783997 550.440979 778.572998 C 552.924988 774.13501 547.013 767.747009 555.112976 765.241028 C 556.424988 764.835999 558.268982 764.760986 559.455017 765.54303 C 560.442017 766.192993 561.01001 767.138 561.041016 768.328003 C 561.127991 771.755005 556.799988 775.179016 554.351013 777.090027 C 553.166016 778.015015 551.900024 778.791992 550.601013 779.546997 C 548.877991 780.231018 547.028015 780.656982 545.242004 781.151001 Z"/>
    <path id="path54" fill="#5c3b40" stroke="none" d="M 522.236023 849.583008 C 525.049988 849.499023 528.190002 849.976013 530.687012 851.344971 C 533.109985 852.672974 534.731018 854.846985 535.479004 857.492004 C 537.190002 863.547974 534.880981 871.72998 531.817993 877.10498 C 528.585022 882.776978 523.825012 886.747009 517.517029 888.432983 C 514.762024 888.724976 512.762024 888.875 510.186005 887.757996 C 507.30899 886.510986 505.332001 884.481995 504.290985 881.505005 C 502.406006 876.11499 503.373993 869.682007 505.747986 864.606018 C 509.182007 857.263977 514.60498 852.276978 522.236023 849.583008 Z"/>
    <path id="path55" fill="#bd9a78" stroke="none" d="M 522.534973 854.046997 L 523.073975 854.062012 C 525.473022 854.150024 527.588013 854.411011 529.231995 856.344971 C 530.859009 858.26001 531.164001 860.776978 531.01001 863.202026 C 530.530029 870.763977 527.150024 876.197998 521.512024 881.010986 C 520.557007 877.77301 519.286987 873.98999 519.643982 870.572998 C 519.825989 868.835022 520.531006 868.030029 521.848022 866.968994 C 522.445984 866.487 523.059021 866.031006 523.612 865.497009 C 525.03302 864.124023 525.960999 862.455017 525.984009 860.452026 C 525.447021 859.822998 525.653992 859.802979 524.942993 859.736023 C 522.734985 859.528015 521.302002 860.598999 519.677979 861.932983 C 510.746002 873.565979 518.783997 877.304993 516.823975 882.75 C 515.593994 883.546997 514.463013 883.534973 513.052979 883.309021 C 511.268005 883.02301 509.929993 882.140015 508.989014 880.56897 C 507.281006 877.718018 507.946014 872.354004 508.808014 869.335022 C 510.959991 861.801025 516.073975 857.788025 522.534973 854.046997 Z"/>
    <path id="path56" fill="#5c3b40" stroke="none" d="M 369.428986 668.737 C 370.449005 669.234009 370.746002 669.526978 371.279999 670.528015 C 371.442993 675.874023 367.066986 683.002014 365.119995 688.01001 C 373.862 689.629028 382.126007 692.661987 390.605011 695.242004 C 401.549988 698.570984 412.75 701.583008 423.816986 704.492981 C 439.821991 708.702026 456.273987 710.846008 472.283997 715.070984 C 474.77301 710.677979 478.135986 700.213013 482.125 697.651978 C 482.790009 697.224976 482.664001 697.395996 483.528015 697.622986 C 483.61499 697.784973 483.723999 697.937988 483.789001 698.109985 C 485.440002 702.429016 475.514008 726.559021 473.437012 732.424011 C 464.065002 758.882019 456.459015 784.833984 450.837006 812.380981 C 450.167999 815.054993 449.55899 819.252014 447.617004 821.255005 C 446.319 822.593994 444.627014 822.755981 442.839996 822.786011 C 438.075989 822.86499 433.210999 822.070007 428.447998 821.794983 C 400.386993 820.176025 376.312012 816.916016 349.472992 807.862976 C 343.269012 805.770996 337.053009 803.776001 331.226013 800.757996 C 328.980011 799.594971 325.592987 798.594971 323.838989 796.903992 C 323.593994 796.057983 323.425995 795.312012 323.453003 794.424011 C 323.640015 788.25 326.161011 781.051025 327.700989 775.078979 C 335.621002 744.362 345.520996 712.223022 359.937012 683.888 C 362.613007 678.627991 365.229004 672.958008 369.428986 668.737 Z"/>
    <path id="path57" fill="#fdfbf4" stroke="none" d="M 363.826996 690.932983 C 381.325989 699.799011 398.657013 704.700012 417.579987 709.439026 C 425.783997 711.494019 434.019012 713.731995 442.339996 715.25 C 451.511993 716.924011 460.856995 717.768005 469.984009 719.567993 L 470.02301 720.21698 L 469.341003 720.333984 L 469.669006 720.797974 C 469.528015 723.393005 465.69101 730.344971 464.502014 733.210022 C 457.904999 733.073975 450.794006 731.258972 444.274994 730.129028 C 414.354004 724.945984 386.108002 717.228027 357.662994 706.617004 C 359.575002 701.332987 361.629669 696.10498 363.826996 690.932983 Z"/>
    <path id="path58" fill="#fdfbf4" stroke="none" d="M 355.427002 712.187988 C 381.548004 724.179016 408.44101 731.508972 436.64801 736.723022 C 445.019012 738.27002 453.462006 739.31897 461.838013 740.857971 C 455.289001 757.835022 450.183014 775.747009 445.578003 793.338013 C 444.667999 796.815979 441.803009 812.580994 440.35199 814.25 L 438.376007 814.382019 C 428.220001 813.447998 418.049988 813.060974 407.89801 811.885986 C 385.148987 809.252014 353.084015 802.434021 332.001007 793.97998 C 333.800995 781.698975 337.334015 769.70697 340.735992 757.791016 C 345.114014 742.455994 349.68399 727.078003 355.427002 712.187988 Z"/>
    <path id="chioma" fill="#c7baa2" stroke="none" d="M 503.174011 53.013123 C 510.015015 52.542969 518.679993 55.80957 525.250977 57.757568 C 536.98999 61.237976 548.828979 64.984131 559.940002 70.183228 C 581.732971 80.381592 600.817017 95.421082 620.401001 109.205017 C 616.294006 99.453186 611.80603 89.479309 606.874023 80.117004 C 603.101013 72.955017 598.872009 66.035095 595.067993 58.882507 C 599.480672 61.007711 603.835673 63.244975 608.132996 65.594299 C 612.430318 67.943624 616.664327 70.401917 620.835022 72.969177 C 625.005676 75.536438 629.107666 78.209269 633.140991 80.987671 C 637.174316 83.766073 641.133647 86.646342 645.018982 89.628479 C 643.083008 89.405396 640.075012 88.686096 638.377991 89.841187 C 638.27301 90.449707 638.232971 90.503479 638.286987 91.221069 C 638.89801 99.317688 660.578003 137.016968 666.158997 142.132996 C 667.052002 142.952026 667.656982 143.585999 668.911987 143.497009 C 670.317017 137.658997 652.969971 104.958984 649.549011 97.832275 C 660.508972 100.379028 672.258972 111.745972 679.020996 120.268005 C 681.403015 123.27002 683.177979 126.765991 685.630981 129.707031 C 686.419983 130.653992 686.981995 131.502014 688.260986 131.585999 C 688.294983 131.406006 688.346008 131.229004 688.361023 131.046997 C 688.971985 123.707031 680.301025 114.400024 676.01001 109.082031 C 678.713989 97.728271 676.458008 87.204285 673.807007 76.06543 C 678.30367 79.525675 682.724996 83.079834 687.070984 86.727905 C 702.859985 100.21698 717.392029 118.278992 722.348022 138.85498 C 724.090027 146.088989 724.70697 154.09198 725.296997 161.510986 C 733.505981 141.854004 734.588013 121.705017 731.283997 100.882019 C 750.619019 123.02301 756.887024 145.187012 763.177002 173.106995 C 757.492981 169.937012 751.398987 166.018005 745.286011 163.822021 C 743.445984 163.160034 741.752014 162.783997 739.916992 163.624023 C 739.21698 164.533997 738.971008 164.837036 738.880981 166.028992 C 738.544006 170.469971 743.950012 175.046997 746.718994 178.166992 C 740.658997 175.606995 724.070984 167.778992 718.017029 169.776978 C 716.812012 170.174988 715.866028 170.885986 715.426025 172.125 C 714.349976 175.160034 717.198975 178.562012 718.734985 180.938965 C 704.669983 172.739014 689.06897 165.474976 673.262024 161.429016 C 667.809998 160.03302 645.958984 155.630981 641.664001 159.202026 C 640.552002 160.127014 640.697998 160.490967 640.692993 161.830994 C 643.023987 166.671021 652.442993 172.934998 656.643005 176.864014 C 640.893005 170.676025 622.234985 167.122009 605.367981 168.802002 C 602.512024 169.087036 597.299988 169.458008 595.546021 171.992981 C 595.171021 172.535034 595.138977 173.14502 595.317017 173.778992 C 596.455994 177.838013 617.507019 187.485962 622.520996 190.77002 C 622.411011 190.745972 622.301025 190.723999 622.190979 190.698975 C 621.961975 190.645996 621.734985 190.588989 621.505981 190.536987 C 614.804993 189.028015 576.698975 185.39502 571.789978 189.495972 C 570.853027 190.278015 570.336975 191.020996 570.372986 192.291992 C 570.575989 199.463013 591.278015 211.88501 596.952026 216.434021 L 597.424011 216.817993 C 582.854004 218.020996 569.078003 219.599976 555.377991 224.960022 C 545.960999 221.547974 537.796021 218.440979 527.731018 217.365967 C 522.953979 221.190979 520.976013 224.833008 518.960022 230.531006 C 510.539001 230.130005 498.653015 231.437988 492.001007 237.182983 C 489.431 239.401978 487.746002 242.551025 487.679993 245.97998 C 487.516998 254.401001 499.554993 270.026978 505.136993 276.214966 C 509.088013 280.593018 513.567993 284.615967 517.77002 288.766968 C 507.562988 290.765015 496.600006 292.255981 486.233002 293.120972 C 481.095001 293.549011 475.773987 293.337036 470.687988 294.110962 C 469.190002 294.339966 466.621002 294.785034 465.485992 295.916992 C 464.687988 296.713989 464.324005 297.386963 464.571991 298.528015 C 465.967987 304.950012 496.027008 324.411011 502.919006 329.328003 C 493.580994 330.286011 485.076996 332.381958 476.13501 335.129028 C 463.721985 325.190002 450.717987 313.322021 440.752991 300.895996 C 436.230988 295.256958 432.299988 288.963989 428.579987 282.770996 C 427.582001 281.109009 426.980011 279.213013 425.906006 277.609985 C 425.487 276.984009 424.959991 276.712036 424.302002 276.395996 C 423.002014 276.406006 422.697998 276.333008 421.621002 277.020996 C 420.523987 278.830994 420.169006 280.515991 419.894012 282.608032 C 419.279999 287.273987 419.307007 292.096008 419.178009 296.794006 C 418.315002 328.233032 424.737 371.766968 444.147003 397.301025 C 439.420013 404.916992 433.342987 411.587036 428.222992 418.916992 C 413.785655 439.217692 399.775991 459.809367 386.194 480.692017 C 377.821991 493.386027 369.685994 506.229696 361.786011 519.223022 C 353.886678 532.217 346.229004 545.351664 338.812988 558.627014 C 331.396993 571.902323 324.227325 585.309326 317.303986 598.848022 C 310.381337 612.387329 303.710012 626.049316 297.290009 639.833984 C 287.813995 659.75 278.248993 679.661987 269.875 700.075989 C 262.243673 719.088643 255.447673 738.395304 249.487 757.995972 C 245.979004 769.442993 241.856003 781.151978 239.412994 792.862976 C 233.300995 783.315653 227.382329 773.650004 221.656998 763.866028 C 219.278 759.799988 217.251999 754.718018 214.371994 751.052979 L 213.906006 751.367981 L 212.75 748.866028 L 212.878998 748.31897 L 212.307007 747.791992 L 211.677994 748.000977 C 206.841003 755.939026 205.464996 778.460999 205.460999 788.296997 L 202.195999 779.315002 C 197.125 765.400024 192.339996 751.111023 187.927994 736.974976 C 186.134995 731.231018 179.852997 702.526978 177.326004 700.185974 C 176.524994 700.054993 176.235992 699.796021 175.524002 700.323975 C 170.292999 704.197021 165.248993 741.973999 164.511993 749.976013 C 159.926666 736.401347 155.865667 722.671672 152.328995 708.786987 C 148.792333 694.902344 145.790334 680.903015 143.322998 666.789001 C 142.177002 660.189026 140.707001 653.617004 139.557007 647.057983 C 139.126999 644.607971 139.220001 642.05603 138.582993 639.643005 C 138.319 638.643982 137.925003 637.991028 137.220993 637.219971 C 136.026993 636.866028 135.932999 636.812988 134.764008 637.208008 C 130.164001 643.965027 123.764999 664.955017 120.522003 673.541016 C 120.473 668.179993 119.878998 662.849976 119.718002 657.494995 C 119.431 647.919006 119.425003 638.265991 119.532997 628.687988 L 120.742996 550.497986 C 120.819 542.390015 122.033997 523.294006 120.177002 516.377014 C 119.750999 514.789978 119.166 514.047974 117.776001 513.223022 L 116.907997 513.546997 C 114.181999 517.361023 112.304001 547.86499 111.966003 554.080994 C 111.547997 561.752014 112.157997 569.960999 110.401001 577.468994 C 109.191002 582.63501 106.035004 587.325012 103.510002 591.942993 C 99.006203 600.182007 94.218002 608.645996 91.577301 617.692017 C 86.559097 580.64801 97.772301 543.405029 107.614998 508.134033 C 109.597 501.031006 114.855003 486.30603 114.612 479.630981 C 114.578003 478.688965 114.486 477.953979 113.956001 477.146973 C 113.529999 476.499023 113.098 476.613037 112.400002 476.47699 C 106.799004 479.156982 102.851997 499.30603 99.920898 505.613037 C 96.656197 512.638 88.445602 518.794006 83.041199 524.215027 C 78.0867 529.184998 73.463898 534.14502 69.491997 539.960999 C 71.104797 530.330994 72.753799 520.77002 75.343903 511.346008 C 82.402702 485.664001 94.416298 461.815002 105.893997 437.915039 C 108.000999 433.526978 114.68 420.921997 114.721001 416.822021 C 114.733002 415.619995 113.801003 413.592041 112.863998 412.830994 C 111.833 411.993042 111.539001 412.028015 110.320999 412.186035 C 106.814003 414.948975 104.570999 419.868042 102.350998 423.703003 C 98.310799 425.729004 94.195602 427.400024 90.282097 429.710999 C 80.9916 435.196045 72.276802 442.040039 63.269501 448.026001 C 72.258598 430.542969 82.585602 414.885986 95.230202 399.803955 C 104.052002 389.281982 113.642998 379.389038 122.998001 369.343994 C 126.777 365.286987 131.048004 361.302002 134.442993 356.938965 C 135.425003 355.677979 136.139999 354.646973 136.531998 353.092041 C 136.138 352.394043 136.167999 352.057983 135.330994 351.807983 C 127.844002 349.578979 91.425903 367.863037 83.432503 372.093994 C 86.979103 365.238037 92.0765 359.004028 96.6922 352.838989 C 108.050003 337.666016 120.736 322.747986 134.535004 309.702026 C 143.707001 301.031006 153.651001 293.221985 163.106995 284.881958 C 165.151001 283.078979 168.679993 279.888 168.852997 277.140015 C 168.535995 276.838013 168.444 276.704956 167.983002 276.52301 C 161.725998 274.067993 124.014999 287.872009 115.991997 291.432983 C 142.395004 263.063965 176.309998 237.695984 210.686005 219.859985 C 214.456665 217.881307 218.312663 216.086975 222.253998 214.47699 C 229.516006 211.577026 238.570999 209.473022 244.705002 204.570984 C 244.811996 203.403992 244.735992 203.641968 244.063004 202.802979 C 236.544998 199.153015 192.574997 201.26001 182.763 202.650024 C 198.809006 191.578003 225.677994 178.73999 243.843994 171.807007 C 247.602005 170.372986 255.160995 168.786987 257.415009 165.445007 C 257.496002 164.796021 257.77301 164.140991 257.372986 163.563965 C 254.806 159.867981 237.423004 158.088989 232.817001 157.453003 C 264.481995 140.257996 307.998993 128.559998 343.764008 124.346985 C 352.261993 123.346008 371.647003 124.192993 378.026001 121.591003 C 378.066986 121.434998 378.122986 121.281982 378.14801 121.122009 C 378.32901 119.950989 377.764008 118.921021 377.061005 118.025024 C 370.05899 109.106018 339.799988 95.339783 327.924988 93.808594 C 336.148987 93.213989 344.289001 91.406799 352.518005 90.738708 C 370.950989 89.241821 389.803986 89.581116 408.239014 90.940125 C 419.371002 91.760803 430.114014 93.700806 441.071014 95.769287 C 449.410004 97.343628 461.984009 101.927002 470.166992 100.778992 L 470.700012 99.990967 C 470.677002 99.29541 470.709015 99.210999 470.498993 98.458679 C 468.35199 90.743103 439.135986 75.466797 431.496002 71.424683 C 439.054993 72.607666 446.652008 72.415527 454.239014 73.231018 C 458.940999 73.725606 463.624664 74.355896 468.290009 75.121887 C 472.955332 75.88796 477.594666 76.788493 482.208008 77.823486 C 486.82133 78.85848 491.400665 80.026225 495.946014 81.326721 C 500.491343 82.627096 504.995341 84.058065 509.458008 85.619629 C 514.249023 87.298218 530.61499 94.612671 534.393005 93.317627 C 534.840027 92.500488 535.007996 92.479187 534.892029 91.484375 C 533.958984 83.491089 510.080994 57.947327 503.174011 53.013123 Z"/>
    <path id="path59" fill="#5c3b40" stroke="none" d="M 139.934006 462.848022 C 140.274994 463.170044 140.459 463.592041 140.688995 463.997009 C 140.042007 470.410034 137.147995 476.839966 134.949005 482.860962 C 142.024994 476.269043 147.852005 467.334961 155.785004 461.783997 C 154.531006 465.406982 152.503006 468.394043 150.434006 471.591003 C 146.595001 477.239014 140.927002 485.572998 134.942001 489.046021 C 133.550995 489.853027 132.692001 489.958008 131.156006 489.562988 C 130.516998 488.803955 130.238998 488.375977 130.061005 487.369019 C 129.035004 481.540039 136.582001 467.547974 139.934006 462.848022 Z"/>
    <path id="path60" fill="#5c3b40" stroke="none" d="M 184.910995 545.898987 C 185.050995 546.585022 185.020996 546.97699 184.824997 547.674988 C 182.352005 556.494019 159.591995 594.830994 151.832001 598.409973 C 150.781006 598.89502 150.584 598.804016 149.544998 598.466003 C 145.953995 593.692017 148.744995 574.195007 149.181 567.877991 C 149.473007 563.664978 149.009995 554.18103 151.684006 550.921021 L 152.487 551.025024 C 155.917999 556.507996 155.688004 578.192017 154.391998 584.810974 C 162.651993 574.046021 175.621002 554.489014 184.910995 545.898987 Z"/>
    <path id="path61" fill="#5c3b40" stroke="none" d="M 495.98999 191.044983 L 497.072998 191.077026 L 497.591003 191.815979 C 495.210999 196.484009 465.872009 213.85199 459.210999 222.47699 C 467.084991 220.523987 489.683014 215.377991 496.757996 217.891968 L 496.809998 218.588013 C 493.210999 221.445007 486.542999 222.643982 482.113007 223.947021 C 471.937012 227.156006 461.220001 228.880981 450.864014 231.507996 C 448.834991 231.072998 447.647003 230.908997 446.364014 229.166016 C 446.173004 227.656006 446.390991 226.760986 447.153015 225.469971 C 448.774994 222.721008 451.585999 220.382019 453.854004 218.162964 C 465.22699 207.039978 480.200989 194.890015 495.98999 191.044983 Z"/>
    <path id="path62" fill="#5c3b40" stroke="none" d="M 206.139008 664.15802 L 207.792999 664.703979 C 212.091995 669.48999 216.796997 702.177002 218.845993 710.622009 C 221.218002 703.012024 226.537003 677.164001 230.501999 672.633972 L 231.057007 672.958008 C 231.998001 678.041992 230.994995 683.531006 230.348007 688.617004 C 228.662994 698.867004 226.016006 716.060974 221.410004 725.067017 C 220.679993 726.492981 219.964005 727.603027 218.382004 728.109985 C 217.468994 727.971985 217.126007 727.682983 216.442001 727.025024 C 210.733994 721.531982 206.177994 673.588013 206.139008 664.15802 Z"/>
    <path id="path63" fill="#5c3b40" stroke="none" d="M 167.501007 602.570984 L 169.188004 603.179016 C 170.067001 604.905029 170.016006 652.288025 169.345993 655.731018 C 172.304001 650.219971 175.182999 644.674988 177.595993 638.898987 C 179.509003 634.31897 185.904007 613.455017 188.091003 611.570007 L 188.673004 611.856995 C 189.559998 616.39801 187.875 622.153015 186.927002 626.607971 C 184.903 636.835022 177.410004 657.630005 170.602997 665.452026 C 169.322998 666.921997 168.085999 667.903992 166.091003 668.025024 C 165.042999 667.492981 164.580002 667.330017 163.964005 666.280029 C 160.647995 660.625977 162.953003 626.515015 164.052994 618.414978 C 164.787003 613.002991 166.009003 607.815002 167.501007 602.570984 Z"/>
    <path id="path64" fill="#5c3b40" stroke="none" d="M 254.425003 616.103027 L 255.867004 617.09198 C 258.779999 622.919006 253.910995 653.919006 253.352005 661.809021 C 259.333008 652.867981 263.795013 643.190002 268.639008 633.617004 C 270.705994 629.531982 272.954987 624.075012 275.877014 620.549988 C 276.537994 619.752014 276.145996 620.013977 277.299011 619.879028 L 277.838989 620.848999 C 278.01001 625.890991 275.187988 631.869019 273.536987 636.609009 C 272.907003 638.418335 272.253672 640.21934 271.576996 642.012024 C 268.523987 650.049988 257.342987 675.30603 250.085007 678.557983 C 248.878006 678.515015 248.589005 678.53302 247.768005 677.500977 C 243.028 671.541992 252.276001 624.59198 254.425003 616.103027 Z"/>
    <path id="path65" fill="#5c3b40" stroke="none" d="M 549.645996 98.099976 C 556.648987 98.164978 563.862 99.936279 570.481995 102.119019 C 580.367004 105.377991 603.919006 116.583984 608.734009 126.195984 L 608.234985 126.656006 C 600.450012 124.223022 592.648987 118.823975 585.223999 115.255981 C 577.986023 111.778015 570.289001 109.507019 562.659973 107.062012 C 565.658671 109.387329 568.641337 111.733317 571.607971 114.099976 C 580.525024 121.174988 593.867004 134.541992 597.583984 145.283997 C 598.018005 146.536987 598.093994 147.153015 597.536011 148.341003 L 596.507996 148.440002 C 593.520996 146.911987 591.062012 143.841003 588.767029 141.424011 C 581.63501 133.914001 574.549988 126.789001 566.663025 120.059021 C 562.052979 116.125 551.754028 108.812988 548.343018 104.60199 C 547.109009 103.078003 546.677002 101.940979 546.906006 99.994629 C 547.859009 98.785217 548.197998 98.682007 549.645996 98.099976 Z"/>
    <path id="path66" fill="#5c3b40" stroke="none" d="M 345.106995 146.203979 C 346.721985 146.002014 348.992004 145.614014 350.390015 146.549988 L 350.389008 147.427979 C 346.583008 150.817993 302.376007 163.554993 292.813995 166.797974 C 298.54599 167.119995 335.355988 171.690979 339.218994 173.752014 C 340.339996 174.349976 340.610992 174.984009 340.933014 176.141968 L 340.169006 177.046021 C 335.993988 178.421021 328.554993 177.536011 324.10199 177.104004 C 310.429993 176.460022 296.95401 174.033997 283.404999 172.348999 C 280.351013 171.969971 276.634003 172.379028 273.739014 171.380981 C 272.243988 170.867004 271.700989 170.140991 271.058014 168.755981 C 271.123993 167.356995 271.238007 166.692993 272.204987 165.625 C 277.567993 159.703003 334.763 147.018982 345.106995 146.203979 Z"/>
    <path id="path67" fill="#5c3b40" stroke="none" d="M 486.638 137.234985 C 494.119995 134.856995 521.508972 139.658997 529.775024 141.893982 C 532.630981 142.666016 541.651001 144.77301 543.143982 147.346008 L 541.857971 147.575012 L 541.640991 147.813965 C 540.791016 147.60498 540.979004 147.598022 540.29303 147.570007 C 527.127991 147.016968 514.174011 144.552002 500.941986 144.463013 C 491.299988 144.39801 481.937012 146.457031 472.375 146.63501 C 478.387004 148.576335 484.306335 150.76766 490.132996 153.208984 C 491.686991 153.791016 493.207662 154.450033 494.695007 155.186035 C 498.674011 157.14801 513.752014 165.414001 514.992004 169.021973 L 514.643005 169.603027 C 514.065002 169.705994 514.020996 169.744019 513.338989 169.688965 C 506.625 169.146973 485.627014 159.648987 477.773987 156.817993 C 471.785004 154.658997 465.446991 153.231018 459.578003 150.787964 C 457.837006 150.062988 455.243988 148.983032 454.15799 147.328003 C 453.438995 146.231995 453.768005 145.733032 454.183014 144.651978 C 460.187012 138.877014 478.291992 137.588989 486.638 137.234985 Z"/>
    <path id="path68" fill="#5c3b40" stroke="none" d="M 273.626007 343.30603 C 274.57901 343.708984 274.203003 343.375 274.701996 344.363037 C 272.740997 349.356995 263.813995 359.948975 260.286011 364.830994 C 252.535004 375.554993 244.914001 386.311035 237.826996 397.48999 C 242.820999 394.88501 247.582993 391.592041 252.332993 388.561035 C 265.401001 380.223999 278.109009 371.219971 291.567993 363.526978 C 292.490997 363 292.592987 362.650024 293.610992 362.924988 L 293.760986 363.740967 C 292.265015 367.448975 284.523987 373.811035 281.326996 376.525024 C 268.721008 387.856995 247.567001 402.541016 231.955994 408.830994 C 229.707993 409.737 227.201996 410.669006 224.848999 409.682983 C 224.188995 408.769043 223.912994 408.492004 223.953003 407.307983 C 224.076996 403.670044 227.455994 399.134033 229.306 396.045044 C 230.768667 393.559041 232.282669 391.105021 233.848007 388.682983 C 235.413335 386.260335 237.02833 383.871338 238.692993 381.515991 C 240.358327 379.161336 242.071996 376.842326 243.834 374.55896 C 245.595332 372.274984 247.403997 370.029012 249.259995 367.821045 C 251.115331 365.613037 253.016001 363.444702 254.962006 361.31604 C 256.90801 359.187337 258.897675 357.100321 260.931 355.054993 C 262.964325 353.008972 265.039327 351.006632 267.156006 349.047974 C 269.272664 347.088664 271.429331 345.174683 273.626007 343.30603 Z"/>
    <path id="path69" fill="#5c3b40" stroke="none" d="M 230.164001 547.21698 C 230.979996 547.63501 231.518997 548.078979 232.177002 548.716003 C 233.123001 553.890991 217.608002 603.565002 214.873001 614.244995 C 222.203003 604.46698 230.632996 595.270996 238.457001 585.867004 C 245.360001 577.570984 252.054993 568.513 259.485992 560.705994 C 260.376007 559.770996 260.839996 559.224976 262.177002 559.205017 C 262.954987 562.471008 256.072998 572.471008 254.095993 575.838013 C 246.042007 588.499023 224.126999 618.234985 212.751007 627.968994 C 211.123993 629.361023 209.494003 630.752014 207.270004 630.601013 C 206.227997 629.937012 205.699997 629.241028 205.363007 628.054993 C 202.026001 616.320984 223.464005 560.367981 230.164001 547.21698 Z"/>
    <path id="path70" fill="#5c3b40" stroke="none" d="M 212.289001 271.473999 L 212.912994 271.557983 L 213.343002 272.150024 C 212.638 274.216003 210.231003 276.120972 208.671997 277.619019 C 204.977005 281.171021 200.910995 284.224976 197.089996 287.625977 C 184.162003 299.132996 170.516006 311.067017 159.285995 324.230957 C 171.63533 318.635661 184.096664 313.301676 196.669998 308.229004 C 204.731995 304.919006 213.029999 300.921997 221.613998 299.268005 C 216.983994 304.294006 210.735001 307.614014 204.897995 311.046997 C 195.938004 316.505981 157.063995 336.18396 148.705994 335.458008 C 147.431 335.348022 146.677994 334.947021 145.841003 333.974976 C 145.526993 332.80603 145.498001 332.006958 145.906998 330.846008 C 147.253998 327.026001 150.330002 323.184998 152.714005 319.948975 C 167.802002 299.464966 189.884003 283.140991 212.289001 271.473999 Z"/>
    <path id="path71" fill="#5c3b40" stroke="none" d="M 398.640991 215.322998 L 399.776001 215.469971 L 400.263 216.161011 C 399.933014 217.354004 399.299988 218.025024 398.471008 218.901978 C 394.113007 223.511963 388.959991 227.682007 384.223999 231.919006 C 372.174011 242.700012 359.796997 253.166016 348.570007 264.817993 C 363.627991 261.471008 378.506989 256.411011 392.959991 251.067993 C 400.864014 248.14502 408.710999 244.766968 416.756012 242.268982 C 418.044006 241.869019 419.325012 241.411987 420.621002 241.979004 L 420.664001 242.653992 C 416.752991 246.710022 410.190002 249.447998 405.22699 252.125 C 400.652995 254.621012 395.994995 256.948344 391.252991 259.106995 C 380.026001 264.249023 344.200989 278.625977 333.263 274.55603 C 332.286011 273.539001 332.277008 273.557983 332.173004 272.155029 C 335.562988 263.255981 367.964996 236.393005 377.328003 229.379028 C 384.057007 224.338989 391.321991 219.453003 398.640991 215.322998 Z"/>
    <path id="path72" fill="#5c3b40" stroke="none" d="M 276.829987 422.405029 L 277.433014 423.502014 C 275.523987 428.594971 272.444 433.783997 270.07901 438.723999 C 262.464996 454.630005 254.251999 470.280029 248.072006 486.813965 C 260.763 475.067017 272.897003 462.73999 285.656006 451.06604 C 290.256989 446.855957 295.130005 441.495972 300.648987 438.622986 L 301.23999 438.97998 C 300.214996 444.454956 293.208008 451.353027 289.609985 455.724976 C 282.272003 465.119995 248.175003 500.515991 238.600006 503.832031 C 237.399002 504.247986 236.561005 504.245972 235.391006 503.713989 C 234.526993 502.348022 234.617996 501.007996 234.811005 499.468018 C 236.744003 483.988037 264.648987 431.794006 276.829987 422.405029 Z"/>
    <path id="path73" fill="#5c3b40" stroke="none" d="M 180.578995 355.822021 C 181.085999 356.019043 181.320999 356.317993 181.701004 356.695007 C 181.604996 357.243042 181.602997 357.424988 181.324005 357.98999 C 179.733002 361.208008 174.921005 367.497009 172.722 370.947998 C 164.080002 384.513 153.632996 400.062988 146.656006 414.421997 C 156.509995 409.97998 196.578995 380.106995 201.720993 379.827026 C 202.567993 379.780029 202.324997 379.829956 203.018997 380.487 C 201.322006 385.06897 192.042999 391.880981 188.031006 395.348999 C 178.949997 403.302002 143.973999 430.273987 134.365005 432.05896 C 133.169006 432.281006 132.602005 432.19104 131.593994 431.552979 C 131.033997 430.303955 130.985992 429.299011 131.244995 427.973022 C 134.481003 411.372986 166.630005 365.791016 180.578995 355.822021 Z"/>
    <path id="path74" fill="#5c3b40" stroke="none" d="M 305.628998 271.424988 C 306.846985 271.656982 306.791992 271.434998 307.638 272.468018 C 306.537994 275.369019 296.292999 281.228027 293.397003 283.455994 C 285.42099 289.591003 277.363007 295.687012 269.635986 302.134033 C 262.44101 308.136963 255.531006 314.474976 248.210999 320.329956 C 259.303009 316.528015 270.502991 313.089966 281.671997 309.526001 C 291.61499 306.354004 301.557007 302.671997 311.89801 301.071045 C 306.510986 306.146973 298.319 309.516968 291.819 312.980957 C 279.707001 319.276978 243.791 333.317993 231.024002 332.338013 C 229.623001 332.230957 229.112 331.908997 228.201004 330.893005 C 228.203995 330.328979 228.167007 330.269043 228.386993 329.651001 C 229.516006 326.484009 234.712006 322.280029 237.179001 319.867004 C 256.601013 300.86499 280.453003 282.036987 305.628998 271.424988 Z"/>
    <path id="path75" fill="#5c3b40" stroke="none" d="M 303.881012 496.73999 C 304.734985 497.169006 305.112 497.562012 305.691986 498.317017 C 305.631989 501.515015 292.713013 533.507019 290.720001 539.596008 C 288.221008 547.229004 286.592987 555.190002 284.927002 563.041992 C 293.384003 554.346008 301.170013 544.71698 308.891998 535.362 C 315.718994 527.091003 322.708008 516.807983 331.727997 510.822021 C 328.363007 518.057007 324.299988 524.781982 319.910004 531.424011 C 314.875 539.593018 286.358002 578.09198 280.065002 581.643982 C 278.610992 582.463989 277.447998 582.870972 275.786987 582.458984 C 274.075012 580.723999 273.891998 579.296021 273.925995 576.913025 C 274.200012 557.442993 289.944 510.506958 303.881012 496.73999 Z"/>
    <path id="path76" fill="#5c3b40" stroke="none" d="M 201.143997 425.881958 C 202.485001 426.140015 202.552002 425.990967 203.311005 427.098022 C 202.716003 430.301025 198.339996 435.81604 196.498001 438.812988 C 184.095001 458.985962 172.404999 479.480957 164.274994 501.802002 C 175.998001 491.978027 187.386002 481.801025 198.968994 471.811035 C 205.123001 466.502014 211.360992 460.391968 218.309006 456.166992 C 214.927994 462.296997 210.203995 467.39801 205.544998 472.563965 C 198.203003 480.260986 163.785004 516.814026 155.363007 517.507019 C 153.942001 517.624023 153.731995 517.364014 152.695007 516.52002 C 152.173996 515.340027 152.007004 514.392029 152.078995 513.117004 C 152.313995 508.959961 153.983994 504.474976 155.315002 500.563965 C 163.106995 477.670044 183.100998 441.55896 201.143997 425.881958 Z"/>
    <path id="path77" fill="#5c3b40" stroke="none" d="M 364.041992 375.271973 L 364.619995 375.5 C 364.987 376.72699 364.707001 377.214966 364.149994 378.315002 C 361.218994 384.103027 357.394012 389.710999 354.042999 395.27002 C 343.326996 413.046997 328.748993 435.723999 321.174011 454.678955 C 333.388 444.554993 345.955994 434.864014 358.102997 424.646973 C 364.117004 419.588989 373.796997 409.565002 380.164001 406.127014 C 381.174988 405.580994 381.334015 405.377991 382.477997 405.692993 C 382.451996 410.664001 373.924011 418.14502 370.605988 421.695007 C 359.489014 434.182983 329.622986 460.653992 315.855988 468.140991 C 313.81601 469.25 311.980011 470.016968 309.675995 469.329956 C 308.770996 468.266968 308.498993 467.72998 308.497986 466.302979 C 308.497986 463.009033 310.540985 458.898987 311.779999 455.867004 C 321.049988 433.182007 335.362 411.792969 350.028015 392.260986 C 354.358002 386.494019 358.847992 380.283997 364.041992 375.271973 Z"/>
    <path id="path78" fill="#5c3b40" stroke="none" d="M 385.138 296.875977 L 386.27301 297.245972 L 386.47699 298.203003 C 383.643005 304.009033 368.270996 317.645996 363.395996 322.598999 C 357.770996 328.312988 352.367004 334.295044 346.915985 340.177979 C 337.737 350.083984 329.197998 360.578003 320.631989 371.010986 C 339.532013 362.650024 357.313995 351.742004 374.696014 340.615967 C 383.876007 334.73999 392.919006 328.572021 402.39801 323.186035 C 398.38501 328.468018 393.501007 332.938965 388.617004 337.39502 C 372.529999 351.511963 333.194 377.420044 313.161011 382.794006 C 311.093994 383.348022 308.981995 383.886963 307.028992 382.761963 C 306.412994 381.674988 306.091003 381.02002 306.313995 379.738037 C 308.674011 366.162964 356.161011 320.473999 368.265991 309.896973 C 373.639008 305.203003 379.29599 300.963989 385.138 296.875977 Z"/>
    <path id="path79" fill="#5c3b40" stroke="none" d="M 438.040985 150.603027 C 439.032013 150.473022 439.411011 150.509033 440.295013 150.97998 L 440.407013 151.889038 C 439.365997 153.188965 437.980988 153.705994 436.532013 154.414001 C 423.950012 160.561035 410.894012 165.692017 398.226013 171.65802 C 384.203003 178.263 370.696014 185.710999 356.450012 191.906006 C 370.683014 189.484985 385.463013 188.414001 399.821991 186.608032 C 412.768005 184.97998 425.772003 182.445984 438.791992 181.645996 C 440.332001 181.552002 441.563995 181.442017 442.94101 182.25 L 443.052002 183.057983 C 439.596008 186.070007 426.734009 188.108032 421.609985 189.697998 C 408.875 192.515991 346.989014 203.580994 337.406006 201.733032 C 336.520996 201.039001 335.960999 200.713989 335.824005 199.484009 C 335.716003 198.510986 336.027008 197.156982 336.638 196.377014 C 343.648987 187.414001 399.863007 162.786011 412.118011 158.207031 C 420.498993 155.075012 429.234985 152.212036 438.040985 150.603027 Z"/>
    <path id="path80" fill="#5c3b40" stroke="none" d="M 316.230011 200.47998 C 316.946991 200.488037 317.470001 200.612 318.161011 200.785034 L 318.121002 201.468994 C 309.32901 209.617981 286.229004 220.125 275.071014 226.562012 C 263.30899 233.348022 252.233994 241.338013 240.244003 247.69397 C 243.270996 246.953003 246.356995 246.585022 249.389008 245.895996 C 268.790009 241.485962 288.998993 236.916992 308.893005 235.612 C 310.893005 235.481018 313.188995 235.187988 314.756989 236.572998 L 314.445007 237.476013 C 311.511993 240.153015 287.470001 245.702026 281.889008 247.372009 C 265.691986 251.755981 249.276993 255.226013 233.007996 259.309998 C 228.235001 260.509033 223.628006 262.447021 218.856995 263.55603 C 217.320007 263.914001 215.186005 264.390991 213.610992 264.044006 C 212.238998 263.740967 212.132996 263.591003 211.505997 262.452026 C 211.598999 261.802002 211.572006 261.750977 211.862 261.052979 C 213.492996 257.134033 221.128998 252.427979 224.501999 249.841003 C 252.623001 228.275024 282.598999 211.677979 316.230011 200.47998 Z"/>
</svg>
