<?xml version="1.0" encoding="UTF-8"?>
<!-- Generated by Pixelmator Pro 2.4.7 -->
<svg width="1165" height="1165" viewBox="0 0 1165 1165" xmlns="http://www.w3.org/2000/svg" xmlns:xlink="http://www.w3.org/1999/xlink">
    <path id="Percorso" fill="#4d4542" stroke="none" d="M 671.922974 1000.710938 C 658.64093 1010.190308 642.938782 1016.837524 628.315247 1023.966125 C 608.095825 1033.822021 587.920776 1043.663208 567.552307 1053.20752 C 543.110352 1064.660889 518.775391 1076.161133 494.037598 1086.98877 C 481.260803 1092.582397 468.334961 1098.779053 454.928894 1102.692139 C 442.273865 1106.386719 428.116852 1107.588257 415.014648 1106.105591 C 414.194621 1106.007772 413.375743 1105.899699 412.558014 1105.781372 C 411.740306 1105.663778 410.924103 1105.535563 410.109406 1105.396729 C 409.295481 1105.257975 408.483063 1105.109294 407.67215 1104.950684 C 406.861257 1104.792155 406.052622 1104.623413 405.246246 1104.444458 C 404.439911 1104.265422 403.635844 1104.076497 402.834045 1103.877686 C 402.032247 1103.679036 401.233103 1103.470459 400.436615 1103.251953 C 399.640147 1103.032715 398.846324 1102.803996 398.055145 1102.565796 C 397.263947 1102.326864 396.476166 1102.078451 395.691803 1101.820557 C 394.906687 1101.561849 394.125376 1101.294067 393.34787 1101.017212 C 392.56959 1100.73881 391.795105 1100.451335 391.024414 1100.154785 C 390.25295 1099.858154 389.485657 1099.551676 388.722534 1099.235352 C 387.959432 1098.919027 387.2005 1098.593587 386.44574 1098.259033 C 385.690226 1097.923747 384.93925 1097.579386 384.19281 1097.225952 C 383.446391 1096.872518 382.704142 1096.509521 381.966064 1096.136963 C 381.228739 1095.765299 380.495972 1095.384155 379.767761 1094.99353 C 379.040304 1094.603638 378.317393 1094.204264 377.59903 1093.79541 C 376.880666 1093.387288 376.167623 1092.970052 375.4599 1092.543701 C 374.752157 1092.118164 374.05011 1091.683512 373.35376 1091.239746 C 372.656637 1090.79598 371.96521 1090.343506 371.27948 1089.882324 C 370.59375 1089.421875 369.914083 1088.952718 369.240479 1088.474854 C 368.566101 1087.996908 367.898183 1087.511027 367.236725 1087.017212 C 366.574514 1086.522664 365.918732 1086.019735 365.269379 1085.508423 C 364.620066 1084.997925 363.977193 1084.479451 363.340759 1083.953003 C 362.705078 1083.425822 362.07548 1082.891073 361.451965 1082.348755 C 360.829163 1081.806356 360.21283 1081.256388 359.602966 1080.698853 C 358.993835 1080.141317 358.39153 1079.576172 357.796051 1079.003418 C 357.200592 1078.430745 356.612712 1077.850464 356.03241 1077.262573 C 355.451335 1076.675415 354.877869 1076.081055 354.312012 1075.479492 C 353.746134 1074.878011 353.187449 1074.269287 352.635956 1073.65332 C 352.085256 1073.038167 351.542124 1072.415771 351.006561 1071.786133 C 350.471792 1071.157308 349.9446 1070.521606 349.424988 1069.879028 C 348.905375 1069.237345 348.393728 1068.588786 347.890045 1067.93335 C 342.13028 1060.554565 337.427582 1052.294922 332.531433 1044.332275 L 305.973145 1000.170471 L 229.518265 875.345947 L 137.783325 726.773682 C 131.561615 716.759521 125.799591 706.465515 119.519852 696.488892 C 104.947762 673.340698 91.036987 649.790833 76.535561 626.608521 L 56.468838 594.081055 C 51.559742 586.071777 46.351505 578.123962 42.304211 569.636841 C 35.221951 554.784607 31.720703 538.276855 33.873951 521.830505 C 35.893276 506.405945 41.680103 490.380615 46.063747 475.435059 L 69.904907 395.317505 L 89.721306 328.662781 C 93.128448 317.350403 95.785759 305.221008 100.76973 294.495728 C 104.97541 285.445374 111.482948 277.778625 119.472061 271.804932 C 132.763168 261.867065 165.941452 252.067993 182.722321 245.974854 L 267.533478 215.0495 C 303.826019 201.77887 339.827301 187.603638 375.910492 173.767517 L 583.356873 92.684082 L 650.416687 67.004272 C 665.243896 61.28894 680.022095 54.955811 695.120117 50.012085 C 705.228699 46.701782 714.88324 45.111084 725.501526 46.655762 C 737.407959 48.388062 748.361877 53.988647 757.623901 61.520752 C 769.400574 71.096313 779.440857 83.150024 789.311646 94.621826 C 804.271932 112.135335 818.867778 129.947388 833.099182 148.057983 C 860.920878 182.638468 888.114868 217.705566 914.681152 253.259277 C 961.67395 316.818278 1006.815837 381.66567 1050.106812 447.801453 C 1059.136759 461.341777 1067.926961 475.036072 1076.477417 488.884338 C 1084.341064 501.43927 1093.151367 514.291199 1097.837036 528.437927 C 1101.623657 539.870972 1101.619141 551.459839 1103.521606 563.223938 C 1109.13798 598.56073 1114.448283 633.9434 1119.452515 669.371948 L 1125.678833 713.314148 C 1127.757568 727.807983 1132.69812 753.177246 1130.618164 766.821106 C 1128.617798 779.949524 1121.822632 793.895996 1113.226196 803.957886 C 1096.951782 823.00769 1063.613037 841.940125 1042.755249 857.461426 C 1046.552246 865.579895 1051.265137 874.851074 1052.560059 883.795654 C 1052.780762 885.316895 1053.197266 887.270508 1052.231201 888.48584 C 1045.216431 882.908081 1038.569214 878.084717 1030.536011 873.987427 C 1027.768799 874.996704 1026.781128 875.952515 1025.354248 878.497803 L 1025.745728 879.839355 C 1024.910522 881.621216 1023.007996 882.371033 1021.370728 883.313171 C 1023.541687 888.5802 1029.067017 898.477112 1029.640503 903.864868 C 1029.810059 905.460083 1029.647339 905.622803 1028.67334 906.744751 C 1028.275146 906.768616 1027.859863 906.93811 1027.478638 906.817505 C 1024.928711 906.017578 1019.171204 900.734619 1016.646362 898.856018 C 1009.974121 893.893921 1002.676025 889.58606 995.660095 885.122314 C 996.756938 886.353475 997.795024 887.632406 998.774353 888.959106 C 999.753642 890.285848 1000.66921 891.65507 1001.521057 893.066772 C 1002.373678 894.478394 1003.15918 895.926473 1003.877563 897.411011 C 1004.595907 898.894735 1005.244466 900.408813 1005.823242 901.953247 L 1000.18866 906.263367 C 1003.470215 912.613647 1007.838379 921.43988 1009.080872 928.478516 C 1009.324341 929.859924 1009.190125 930.371948 1008.35614 931.4552 C 1003.986755 932.252808 990.833374 924.061523 985.956543 922.328552 C 981.86377 920.87439 977.997375 921.09967 973.465393 919.219971 C 977.786865 924.641846 981.218567 931.40509 983.700256 937.854431 C 984.681091 940.404297 986.59375 944.457275 985.416138 947.09137 C 982.12207 948.368042 973.750977 943.471863 970.199768 942.258972 C 961.684204 939.348389 952.829468 938.072815 944.055603 936.195435 C 950.079346 947.007141 952.579163 954.892456 950.603882 967.330139 C 943.575439 963.637817 936.515198 960.438232 929.093018 957.63916 C 916.54834 967.037659 900.262451 973.070496 885.749268 978.701721 C 870.75592 1010.537354 847.418823 1035.980591 815.734558 1051.695313 C 805.083252 1056.978271 786.994995 1064.095459 775.06366 1059.71814 C 770.239197 1057.948853 768.121643 1055.010986 765.987 1050.557495 C 767.359314 1033.050659 780.751648 1017.561218 792.15625 1005.238403 C 779.749268 1005.410156 767.370667 1006.374023 754.951172 1006.413818 C 734.941101 1031.677246 712.222961 1052.886597 678.696533 1057.395874 C 672.505554 1058.22876 664.916138 1058.824951 659.777649 1054.586426 C 657.128784 1052.403076 655.334351 1049.060059 655.005554 1045.643066 C 653.717529 1032.256348 672.537415 1011.816223 680.702576 1002.120728 C 677.747559 1001.918213 674.830139 1001.25824 671.922974 1000.710938 Z"/>
    <path id="path1" fill="#faf9f8" stroke="none" d="M 1013.204407 865.285278 C 1019.304321 867.421021 1024.974243 870.738892 1030.536011 873.987427 C 1027.768799 874.996704 1026.781128 875.952515 1025.354248 878.497803 C 1021.819031 873.760986 1017.292725 869.546448 1013.204407 865.285278 Z"/>
    <path id="path2" fill="#faf9f8" stroke="none" d="M 907.09967 658.592041 C 914.588989 654.873596 922.62323 652.504578 930.066956 648.721252 L 931.217407 650.525879 C 926.34967 653.139526 921.636719 656.498413 916.964783 659.471558 C 913.667297 659.38739 910.377869 658.943604 907.09967 658.592041 Z"/>
    <path id="path3" fill="#faf9f8" stroke="none" d="M 496.138062 932.598694 C 497.076396 932.572123 498.01474 932.579325 498.953094 932.6203 C 501.525726 932.752319 505.891632 933.308655 507.59613 935.522949 C 508.138855 936.227234 507.877136 936.610718 507.775879 937.421997 C 505.324982 940.445251 501.068329 940.716003 497.470459 941.464722 C 496.254496 941.566366 495.036631 941.637675 493.816864 941.67865 C 490.87442 941.755981 488.58963 941.758301 486.341248 939.625977 C 485.929352 938.246948 485.821259 937.948792 486.653046 936.626648 C 488.325653 933.96521 493.319641 933.255188 496.138062 932.598694 Z"/>
    <path id="path4" fill="#a5a29a" stroke="none" d="M 839.905701 776.640625 L 840.022888 777.255066 C 838.459534 780.115601 835.953979 782.607544 833.842102 785.086792 C 825.73053 794.611694 817.878296 802.724487 807.760559 810.217163 C 807.353271 808.508179 814.548889 794.079224 815.694763 791.435974 C 823.870117 786.669556 831.639282 781.272827 839.905701 776.640625 Z"/>
    <path id="path5" fill="#faf9f8" stroke="none" d="M 578.433472 733.692871 C 589.742432 739.039551 595.83905 751.654846 600.729431 762.442627 L 594.275635 776.151367 L 590.171448 784.778442 C 586.785217 767.598267 580.570374 751.173523 578.433472 733.692871 Z"/>
    <path id="path6" fill="#a5a29a" stroke="none" d="M 691.55072 1002.979797 C 708.101685 1003.783081 724.769897 1005.214478 741.335754 1005.289612 C 730.32605 1017.858154 719.046631 1027.703857 704.609741 1036.106934 C 694.762878 1041.02002 680.22583 1048.170288 668.862183 1045.985596 C 667.363647 1045.697754 666.66272 1045.470215 665.809326 1044.208252 C 666.025513 1034.432007 685.737488 1013.271484 691.234375 1003.554382 C 691.342468 1003.36438 691.444885 1003.170959 691.55072 1002.979797 Z"/>
    <path id="path7" fill="#a5a29a" stroke="none" d="M 867.576843 987.122864 L 868.038757 987.584839 C 866.048706 994.021606 851.051941 1009.892151 845.790649 1015.054565 C 828.647888 1031.872925 803.499329 1049.359253 778.54541 1049.10791 C 778.257568 1048.697021 778.067505 1048.478638 777.901367 1047.967773 C 776.150208 1042.594849 799.804749 1010.99585 803.897644 1004.336121 C 825.674744 1002.621338 847.229919 994.589355 867.576843 987.122864 Z"/>
    <path id="path8" fill="#a5a29a" stroke="none" d="M 1088.199463 567.152954 C 1089.932373 570.559631 1090.363647 577.045288 1091.119141 580.895752 C 1097.915405 615.533875 1102.384888 650.030884 1107.345947 684.935303 C 1109.429321 699.58606 1111.262329 714.230103 1113.104492 728.912842 C 1114.174072 737.440918 1115.689697 746.182983 1116.067383 754.765625 C 1116.33374 760.822449 1115.462158 767.111267 1113.997681 772.980225 C 1112.313721 779.729858 1109.390625 786.380615 1105.090698 791.869507 C 1093.191162 807.053955 1052.550903 833.867188 1035.113525 844.312561 C 1033.982544 830.9953 1025.003784 818.45166 1017.494019 807.864136 C 1021.152222 809.643677 1024.46106 811.919434 1027.685669 814.38623 C 1031.214111 817.086304 1042.550537 828.476074 1045.800049 828.905029 C 1046.519287 828.999512 1047.279297 828.340698 1047.757202 827.895874 C 1048.828979 826.897949 1049.434448 825.134277 1049.380981 823.726807 C 1048.973511 812.874023 1026.678711 779.33844 1018.994873 769.417603 C 1015.563171 764.986938 1011.802612 761.010132 1007.847473 757.056152 C 1015.877197 755.769287 1030.118408 764.636475 1036.843018 761.632568 C 1037.159302 760.956665 1037.447266 760.712036 1037.251465 759.932617 C 1034.89502 750.535217 995.997986 726.593872 986.592651 720.963867 C 992.256775 720.630493 1006.404663 722.203003 1010.725037 719.975098 C 1011.442993 718.410522 1011.527283 718.417419 1011.082397 716.772034 C 1005.543335 710.399048 972.831604 696.402466 963.475098 692.860352 C 955.819763 689.961121 947.810486 687.899353 940.266602 684.738525 L 939.651062 684.474487 C 946.027527 683.414063 968.508911 682.837158 972.037415 680.544373 C 972.881653 679.995972 972.608521 680.09375 972.807739 678.960571 C 972.513 678.333557 972.532349 678.291504 972.012329 677.667847 C 967.201599 671.891113 938.824951 666.222412 930.748535 665.341736 C 947.380737 655.992452 963.934041 646.506266 980.408447 636.883179 C 992.534424 629.649902 1004.4021 621.99115 1016.523499 614.746521 C 1037.382324 602.280273 1072.405151 583.88031 1088.199463 567.152954 Z"/>
    <path id="path9" fill="#faf9f8" stroke="none" d="M 772.801575 743.25415 C 773.156555 743.252991 773.512695 743.247314 773.867737 743.249634 C 783.21283 743.306519 792.174438 746.054443 798.73407 753.046387 C 805.629395 760.394531 808.231628 770.52478 807.760559 780.402344 C 806.951538 797.369873 797.314087 812.57019 783.953552 822.60144 C 777.9776 827.087952 771.362244 830.888306 765.884644 835.993774 L 765.21106 836.628723 C 783.339111 842.284912 794.953064 844.513916 811.373169 855.454285 C 804.367554 856.32135 797.718018 857.162109 791.013855 859.508423 C 797.769165 866.733704 807.654785 872.593506 815.668579 878.522827 C 825.409668 885.731079 834.081116 893.560547 842.299744 902.431152 C 837.045166 901.096436 826.545227 898.407715 821.442017 899.762878 L 821.074402 900.840454 C 823.015625 906.542114 835.784485 918.63739 840.276672 923.957947 C 842.799194 926.943604 845.030518 930.09314 847.203857 933.339478 C 837.903137 930.894226 828.961914 927.443115 819.804626 924.53479 C 831.456116 934.578552 841.719421 946.979858 848.693237 960.677185 C 839.318604 959.087585 829.915466 956.889282 820.449768 956.013184 C 820.858276 956.381836 821.258789 956.757324 821.669495 957.123718 C 829.432983 964.033813 833.754578 974.033142 840.463257 981.950195 C 828.336121 986.255798 816.171509 989.746704 803.33551 991.183777 C 760.009949 996.034424 709.521729 990.403259 666.16095 985.724487 C 648.51532 983.820801 629.304016 982.530518 612.127197 978.117981 C 635.185486 977.630981 658.342896 976.338379 679.742188 966.700928 C 694.8573 959.894348 705.979675 950.729065 711.997681 935.046204 C 705.899963 942.644653 699.903625 948.977905 691.869263 954.580566 C 687.418823 957.309163 682.825358 959.771851 678.088867 961.968628 C 633.646057 982.141418 573.706909 973.255981 529.303833 956.816467 C 530.843323 952.793091 531.369019 949.045044 530.58844 944.765625 C 529.037598 936.264832 522.9422 931.072876 516.141296 926.549988 C 549.256958 905.663757 565.942261 866.59375 580.266541 831.797424 L 593.968384 798.890015 C 598.816772 786.924438 603.384033 772.956299 610.356689 762.109314 C 610.815308 773.120239 613.416382 784.027527 616.519287 794.557068 C 617.574036 782.54718 619.748474 771.402039 623.111938 759.839355 C 626.407104 773.442139 631.256531 787.659546 637.177917 800.364624 C 637.519226 788.458252 638.220154 781.351318 644.489624 770.990112 C 644.633057 776.515503 645.608154 782.053406 645.974487 787.577576 C 646.321594 792.824219 646.005249 798.044556 646.536621 803.295654 L 646.120178 804.121765 L 646.832458 804.320862 C 647.556091 803.762207 647.588013 799.221069 647.696045 798.109375 C 648.444763 790.409668 650.042297 783.209412 653.920044 776.452942 L 654.294373 775.811157 C 654.24587 777.772827 654.281535 779.732951 654.401367 781.691528 C 654.600525 785.22113 654.709717 795.52655 657.39502 797.918274 L 658.477112 797.37439 C 663.337952 787.074646 672.257446 778.482849 679.768372 770.019531 C 679.378113 776.912598 678.473511 784.449646 679.142578 791.31311 C 679.317749 793.102966 679.457703 794.974609 680.934692 796.17627 C 684.752075 795.616455 698.17749 777.260742 702.113281 773.336426 L 702.857422 772.602417 C 700.150513 779.164429 697.470947 785.70813 695.106506 792.404297 C 702.922241 785.963013 709.751587 778.238159 717.18512 771.353088 C 731.891663 757.732056 752.366028 744.82666 772.801575 743.25415 Z"/>
    <path id="path10" fill="#3c3633" stroke="none" d="M 756.661316 858.047363 C 757.204041 858.039429 757.746826 858.047363 758.288391 858.074707 C 770.908203 858.707397 783.787415 863.95166 792.240479 873.534546 C 786.027832 873.125 761.117126 862.682983 756.661316 858.047363 Z"/>
    <path id="path11" fill="#3c3633" stroke="none" d="M 740.869263 966.027283 C 752.822266 965.368469 785.493042 977.205444 796.739502 982.375793 C 779.46936 983.283752 754.917053 976.168884 740.869263 966.027283 Z"/>
    <path id="path12" fill="#4d4542" stroke="none" d="M 769.060364 931.838623 C 785.078918 934.770874 805.219788 945.276489 815.966675 957.651672 C 805.788696 957.608398 776.284546 938.749878 769.060364 931.838623 Z"/>
    <path id="path13" fill="#3c3633" stroke="none" d="M 751.145081 877.419189 C 766.560547 877.513611 781.073669 882.976318 794.340881 890.528198 C 797.69751 892.43866 801.172485 894.289917 802.288757 898.193848 C 793.492065 897.425781 759.590149 882.612183 751.145081 877.419189 Z"/>
    <path id="path14" fill="#4d4542" stroke="none" d="M 759.127014 952.963745 C 765.849365 954.10614 772.915405 956.198608 779.210999 958.770142 C 785.036743 961.148254 808.200928 973.150146 810.375366 978.368286 C 794.56842 975.944702 770.669312 963.881348 759.127014 952.963745 Z"/>
    <path id="path15" fill="#4d4542" stroke="none" d="M 759.047363 898.95166 C 764.123291 898.584106 769.867126 900.033691 774.614136 901.766663 C 786.0802 905.949341 817.847473 928.211182 822.899536 939.175415 C 819.330139 938.232178 815.871094 936.323975 812.736389 934.40332 C 804.17749 929.157898 796.387878 922.564087 787.964417 917.055786 C 780.138367 911.938965 765.150757 904.649963 759.047363 898.95166 Z"/>
    <path id="path16" fill="#4d4542" stroke="none" d="M 660.600281 855.647705 C 661.890625 855.672729 663.326538 855.615845 664.558838 856.035706 C 667.09967 856.899353 668.917908 859.225098 669.860046 861.646423 C 672.64209 868.797729 669.739502 881.618896 666.690063 888.475525 C 664.296021 893.857483 661.492371 897.806946 655.894226 899.97229 C 654.478699 899.985962 652.67865 900.137268 651.33606 899.635437 C 649.213989 898.841248 647.771179 897.376831 646.801758 895.350342 C 643.615723 888.688354 646.344299 877.421448 648.730408 870.77417 C 651.053894 864.303223 654.152161 858.668701 660.600281 855.647705 Z"/>
    <path id="path17" fill="#faf9f8" stroke="none" d="M 662.427673 862.80249 C 662.815674 863.109741 663.043274 863.262146 663.378906 863.670654 C 664.493958 865.028076 664.781921 866.824707 664.616882 868.531494 C 664.336975 871.410217 663.020508 873.518616 660.81427 875.301636 C 659.250854 873.684692 658.035645 871.628662 658.208557 869.286987 C 658.435059 866.217102 660.148621 864.588867 662.427673 862.80249 Z"/>
    <path id="path18" fill="#4d4542" stroke="none" d="M 587.896851 847.11731 C 588.849304 847.103699 589.874451 847.065002 590.813232 847.24707 C 592.739563 847.619141 594.564636 849.329285 595.437378 851.025879 C 598.487915 856.960754 595.265564 867.062561 593.210632 872.997559 C 590.16803 881.79071 586.055847 889.576965 577.301331 893.7995 C 576.074707 893.855225 574.729797 893.965637 573.537354 893.626465 C 571.877258 893.154297 570.532288 891.813965 569.788147 890.292603 C 567.147217 884.892456 569.986145 875.65094 571.764587 870.248535 C 574.754822 861.162842 578.98877 851.659546 587.896851 847.11731 Z"/>
    <path id="path19" fill="#faf9f8" stroke="none" d="M 588.700195 853.658752 C 589.69928 854.156006 590.691406 854.563354 591.344543 855.522583 C 592.510803 857.238403 592.601868 859.971558 592.185425 861.933167 C 591.469727 865.300049 590.1828 867.524536 587.31543 869.405334 C 586.714661 869.160767 586.047852 868.918335 585.502869 868.563354 C 584.131775 867.671265 583.4104 866.113525 583.322815 864.514893 C 583.095215 860.336792 585.969421 856.49884 588.700195 853.658752 Z"/>
    <path id="path20" fill="#4d4542" stroke="none" d="M 775.575623 751.628662 C 780.644714 751.355591 785.306396 751.885864 789.51532 754.981812 C 794.422791 758.592285 796.616577 764.705811 797.592834 770.508911 C 797.714213 771.257609 797.817383 772.008565 797.902344 772.76178 C 797.987264 773.514994 798.05365 774.270121 798.101501 775.027161 C 798.150004 775.784241 798.179565 776.541667 798.190186 777.299438 C 798.201579 778.057983 798.194377 778.816162 798.168579 779.573975 C 798.142782 780.331787 798.098409 781.08846 798.035461 781.843994 C 797.973287 782.599528 797.892497 783.353149 797.793091 784.104858 C 797.693726 784.856567 797.576152 785.605652 797.440369 786.352112 C 797.303813 787.097799 797.149841 787.840047 796.978455 788.578857 C 796.806213 789.317708 796.61617 790.051636 796.408325 790.78064 C 796.200521 791.509562 795.974874 792.233236 795.731384 792.95166 C 795.488627 793.669963 795.228414 794.381836 794.950745 795.08728 C 794.673157 795.793538 794.378479 796.492188 794.066711 797.183228 C 793.754903 797.874227 793.426432 798.557292 793.081299 799.232422 C 792.736165 799.907552 792.374715 800.573975 791.996948 801.231689 C 791.619181 801.889323 791.225871 802.537496 790.817017 803.176208 C 790.408122 803.814189 789.983683 804.442281 789.543701 805.060486 C 781.952087 815.558228 771.856018 821.053955 759.248718 823.157837 C 754.195618 823.143066 748.575867 822.47168 744.175842 819.820557 C 740.265076 817.46521 737.855042 813.686401 736.91864 809.255737 C 734.613342 798.335876 739.863403 785.848022 745.549194 776.770386 C 752.395569 765.840271 762.634949 754.665588 775.575623 751.628662 Z"/>
    <path id="path21" fill="#faf9f8" stroke="none" d="M 777.569092 759.50708 C 779.584229 759.460449 781.44458 759.687988 783.220825 760.701782 C 786.71051 762.691833 788.616394 766.16571 789.470947 769.988831 C 791.514526 779.133667 788.494629 789.950012 783.311768 797.592896 C 777.434875 806.258606 769.526855 811.111511 759.304504 812.998047 C 757.504456 812.991272 755.63385 813.017334 753.842896 812.803467 C 750.769592 812.437134 748.2948 811.85791 746.354797 809.353577 C 744.713989 803.254761 747.778198 793.284973 750.2052 787.602539 C 755.61792 774.929321 764.651245 764.629578 777.569092 759.50708 Z"/>
    <path id="path22" fill="#a5a29a" stroke="none" d="M 757.292786 654.708618 C 765.74585 650.899048 774.744995 647.296692 782.523254 642.242432 C 788.823486 638.148438 794.150879 632.369385 800.158691 627.822571 C 809.077087 621.071716 819.453003 616.381531 829.512634 611.617493 C 824.722412 617.132568 815.998535 628.443787 813.573792 635.270874 C 813.067444 636.696533 813.21875 636.818298 813.867371 638.09613 C 816.582214 639.839294 820.453186 639.347717 823.459351 638.721924 C 828.832275 637.602295 834.093628 635.078552 839.243469 633.153381 C 851.081543 628.725952 864.734497 624.139404 877.390686 623.424805 C 865.536682 629.2323 859.051025 637.564697 852.56189 648.914734 C 863.899353 648.181885 879.888245 646.445557 890.955994 648.309326 C 883.589661 656.667969 854.074036 664.616943 843.072266 668.469604 C 841.536255 669.006653 840.221985 669.923828 838.699585 670.469971 C 836.527466 671.250488 834.012817 670.812439 831.83728 671.602051 C 834.216492 672.227905 836.565002 671.305115 838.973816 671.699951 L 839.114929 672.247253 C 835.850403 676.566528 833.259583 681.497925 830.569702 686.192627 C 822.988281 699.421143 815.603699 710.701721 803.118225 719.835083 C 804.756714 719.620056 806.488464 719.351563 808.059814 718.841797 C 824.623352 713.474609 836.742493 686.654541 843.857422 672.395142 C 855.415588 668.93158 866.896423 665.347351 877.664917 659.800415 C 885.60022 655.712158 892.97113 650.47699 901.101013 646.78009 L 901.948669 646.400085 C 897.710266 651.265503 885.558167 661.123718 884.662598 667.046204 C 886.180542 669.087524 891.9505 668.466187 894.525452 668.525391 C 908.856506 668.856506 922.455994 671.319946 936.452515 674.19519 C 930.102234 675.335327 923.667786 676.181885 917.372131 677.601929 C 914.054138 678.350647 908.304688 679.453186 906.452271 682.407043 C 909.621155 684.521118 919.51355 686.307495 923.754272 687.93689 C 942.337524 695.076904 964.063416 703.428589 981.605469 712.552917 C 973.785034 712.393677 965.69165 713.041077 958.066956 714.7854 C 955.35553 715.405518 951.127319 716.299866 949.578674 718.768921 C 951.388977 720.085449 964.645935 722.641052 968.094727 723.841431 C 981.235657 728.415588 993.91803 736.220093 1004.600098 745.128174 C 997.704773 745.452393 990.894836 745.566284 984.262268 747.683716 C 998.819824 759.451294 1017.375793 782.276367 1027.4104 798.388184 C 1017.773987 791.607788 1004.826477 785.214233 992.961121 784.092407 C 989.072021 783.724854 981.606567 783.682739 978.610657 786.167786 L 978.726746 786.717407 C 982.566956 788.149902 986.850891 789.317322 990.473816 791.191284 C 1000.598267 796.431152 1017.660217 816.998718 1020.816589 827.651123 C 1020.276062 826.980957 1020.626587 827.371277 1019.693542 826.548584 L 1019.662781 827.150513 C 1008.526733 820.729675 998.783447 812.656738 987.223022 806.723999 C 1009.551941 825.555298 1021.251221 837.683472 1035.962402 863.354309 C 1025.529541 857.958618 1015.90564 853.715637 1004.509033 850.758423 C 997.356567 842.447632 990.536377 833.796631 979.794006 830.240845 C 994.518799 846.315186 1005.815308 864.237305 1014.632446 884.154053 C 1003.067444 874.798706 989.363281 869.182312 974.483704 868.530334 C 980.30835 876.923035 987.104675 884.114136 992.288635 893.040527 C 985.176025 890.545288 978.762024 886.071289 972.23877 882.355103 C 952.481323 871.098511 933.4953 866.091919 910.837524 870.210938 C 918.095764 871.865356 925.599854 872.557129 932.89679 874.150146 C 948.102905 877.468018 965.033936 884.481689 977.887024 893.452515 C 978.204468 893.674316 978.517395 893.904175 978.837097 894.122681 C 983.397583 897.239197 987.951172 907.274963 991.184937 912.450928 C 982.625 908.514038 973.654236 904.758057 964.577698 902.221802 C 957.329651 900.196411 949.848328 898.950439 942.53772 897.133362 C 948.957458 907.931458 960.960449 916.779297 968.795715 927.435181 C 950.141907 922.481018 940.693298 920.606995 921.293091 921.161133 C 928.888245 929.946411 934.811829 937.755371 938.671326 948.858398 C 932.316528 947.070923 916.026062 942.863159 910.062622 946.001343 C 909.251404 946.429138 909.321899 946.8479 909.04541 947.647827 C 909.59845 949.628723 911.181152 950.729065 912.652344 952.054626 C 906.459106 955.592163 899.886902 958.458374 893.47406 961.570374 C 880.354736 967.937744 867.427795 974.061584 853.950012 979.632446 L 844.932678 969.060791 C 849.738892 970.139404 854.580383 971.278442 859.476501 971.854187 C 861.173035 972.053284 862.638611 972.278564 864.030151 971.20105 C 864.432983 964.619751 853.893127 945.780518 849.411255 940.230164 C 853.079651 941.351013 857.271423 942.920044 861.10022 942.990601 C 861.871704 942.427368 861.968384 942.646973 862.013916 941.840271 C 862.439453 934.482971 846.741882 913.871033 841.580627 908.294434 C 847.721903 909.188029 853.856384 910.127116 859.98407 911.111694 C 850.364685 891.540894 832.403931 874.588135 813.318909 864.412476 C 818.677002 863.266724 823.967957 861.765869 829.263489 860.362915 C 820.663696 845.126099 804.805603 836.282837 788.564087 831.244507 C 793.960876 826.913818 799.246155 822.355652 804.77832 818.207092 C 811.377747 813.258667 818.364136 808.675415 824.685913 803.374207 C 828.795837 799.928833 831.44928 794.692505 836.064331 791.851318 C 839.527893 789.717834 844.21814 788.954407 848.043518 787.516113 C 865.926941 780.789185 890.613586 759.912109 898.656921 742.306396 C 887.67334 742.290405 876.599854 743.911865 865.91333 746.332031 C 869.367798 741.781799 872.009827 737.42157 874.235474 732.141968 C 869.294983 735.846802 865.110046 740.932983 860.805542 745.353455 C 857.059814 749.200439 853.09552 752.816589 849.357788 756.673828 C 854.838684 755.037598 859.726868 752.041687 865.13501 750.383911 C 873.778076 747.733765 883.384827 747.765686 892.306641 746.332031 C 878.174683 761.858948 861.497314 776.944458 841.643188 784.520203 C 845.032837 779.348755 847.806824 773.90979 850.445557 768.326416 C 845.321838 771.320068 839.459656 773.205566 834.131165 775.854431 C 828.148438 778.827576 822.493286 782.665527 816.843994 786.22467 C 818.881836 774.931641 816.854187 762.672546 810.764465 752.888245 C 803.952209 741.942261 794.983765 736.243896 782.587036 733.37207 C 791.384827 714.67157 789.037476 693.032227 799.242737 674.682251 C 800.570211 672.334473 802.060384 670.094442 803.713257 667.962158 C 805.36617 665.830607 807.164347 663.829508 809.107788 661.958862 C 813.366699 657.860413 826.671448 650.133301 828.1427 645.196228 L 827.544189 644.726318 C 826.325623 644.800232 825.358398 645.090393 824.243347 645.560364 C 816.313721 648.899902 808.814209 654.403625 802.973694 660.692505 C 781.567505 683.73938 789.361694 707.003723 778.91864 733.180847 C 772.090393 732.497009 765.806091 733.253723 759.055298 734.19696 C 760.123372 732.299825 761.140605 730.375366 762.106995 728.423584 C 763.073425 726.472575 763.987488 724.497274 764.849182 722.497681 C 765.710958 720.498088 766.519226 718.477295 767.273987 716.435303 C 768.02948 714.392497 768.730001 712.331462 769.375549 710.252197 C 770.02183 708.173014 770.612366 706.077881 771.147156 703.966797 C 771.682719 701.856527 772.16213 699.733317 772.585388 697.597168 C 773.007914 695.4611 773.373922 693.315511 773.683411 691.1604 C 773.993673 689.005371 774.246277 686.843486 774.441223 684.674744 C 770.68634 688.269165 766.148621 691.125122 761.944336 694.180298 C 747.266235 704.846436 735.16748 715.167725 731.030334 733.375488 C 735.357544 728.586243 738.917847 723.095032 743.181335 718.22168 C 750.812805 709.500122 759.501404 702.08252 768.457275 694.779907 C 765.381714 705.708862 761.349182 724.84845 754.282104 733.480103 C 749.398499 739.445801 739.263733 743.089172 732.812256 747.475525 C 726.835083 751.539917 721.249451 756.18457 715.625122 760.716614 C 717.387634 753.202271 717.620911 745.88031 717.909912 738.204407 C 708.898193 757.106201 702.923462 760.044128 688.448975 774.054321 C 691.116028 753.979431 697.524414 750.313354 705.483582 733.100098 L 705.830627 732.337646 C 696.832581 739.360474 689.347839 748.531494 681.758484 757.012939 C 674.775513 764.816162 667.651489 772.509155 661.102112 780.68457 C 661.206034 780.287028 661.303507 779.888021 661.394531 779.487549 C 662.313904 775.427734 664.819397 762.563293 662.644958 759.16687 C 659.531921 759.911011 653.865479 770.701111 652.026672 773.476318 C 652.381714 766.560547 651.75592 760.465088 650.359741 753.677856 C 644.224548 759.713013 640.071411 767.443481 636.065063 774.96582 C 633.327393 768.915894 629.248291 748.872803 626.483337 746.062317 C 623.625061 747.58136 622.29834 752.566223 621.11499 755.498474 C 621.319824 744.997314 622.647644 734.008057 624.331665 723.644653 C 627.103455 727.962769 628.993408 732.780334 631.644531 737.186035 C 633.194275 730.798218 634.125122 724.272705 635.706665 717.887207 C 637.86969 709.157654 640.821228 700.59082 643.412109 691.977417 C 646.202087 697.473145 649.281067 703.165771 650.585022 709.236145 C 652.38623 717.615234 651.310974 723.074585 654.675598 731.874634 C 654.296692 727.242432 654.097595 722.882202 654.822327 718.260376 C 657.770508 699.468933 671.103699 675.510559 680.490906 658.869629 C 680.77533 668.512878 681.105286 678.52478 683.280884 687.943726 C 688.2146 682.67334 691.395935 675.640259 695.765259 669.853271 C 700.836222 663.141479 706.181803 656.655396 711.802002 650.39502 C 717.421427 644.134644 723.294963 638.122701 729.422607 632.359192 C 726.474426 647.707458 722.086914 660.412598 714.859375 674.19751 C 725.030457 666.028931 733.335571 655.026001 743.083496 646.186157 C 740.115967 651.743347 732.573242 666.651367 733.499512 672.684143 L 734.203735 672.967529 C 739.734802 669.195557 743.621704 654.264771 746.509521 648.007874 C 748.183289 644.38269 750.31781 640.931641 752.682251 637.719543 C 760.17157 627.546082 770.263123 620.431152 780.24762 612.924866 C 771.779785 626.544739 765.183716 640.821228 757.292786 654.708618 Z"/>
    <path id="path23" fill="#3c3633" stroke="none" d="M 718.985168 687.809448 L 719.365173 688.685669 C 716.621887 694.796997 698.406189 714.544189 692.465515 719.138794 L 692.086609 718.704102 C 693.127747 714.076538 714.761536 691.672485 718.985168 687.809448 Z"/>
    <path id="path24" fill="#3c3633" stroke="none" d="M 641.309387 719.351563 L 642.300476 719.976257 C 645.555786 726.126221 644.144897 749.656738 643.274414 757.392944 C 639.129272 747.004456 637.824158 730.068848 641.309387 719.351563 Z"/>
    <path id="path25" fill="#3c3633" stroke="none" d="M 877.000366 850.095032 L 878.076843 850.29187 L 877.553406 851.178284 C 867.46875 857.221313 848.733093 861.278931 837.015564 863.709351 L 835.676331 863.580811 L 835.14386 862.893494 C 841.086731 857.701477 867.890869 851.864441 877.000366 850.095032 Z"/>
    <path id="path26" fill="#3c3633" stroke="none" d="M 944.928345 831.889587 C 950.194275 831.548218 954.768372 831.980591 959.772644 833.71698 C 967.063843 836.247559 980.14563 843.009705 983.693359 850.203125 C 983.537537 850.240723 983.38623 850.301025 983.226868 850.316895 C 982.112915 850.428467 980.992188 849.898193 980.014771 849.414673 C 974.15033 846.515381 968.551025 843.092773 962.637634 840.274353 C 956.909729 837.544678 950.07251 835.581909 944.928345 831.889587 Z"/>
    <path id="path27" fill="#3c3633" stroke="none" d="M 693.77063 681.901794 C 694.282715 682.356934 694.32251 682.256836 694.503418 682.896301 C 695.085999 684.955811 689.89856 726.56543 689.111145 728.392822 L 687.987 728.503174 C 683.638123 715.046021 687.527344 694.347473 693.77063 681.901794 Z"/>
    <path id="path28" fill="#3c3633" stroke="none" d="M 807.451111 642.743042 C 807.573975 642.786316 807.709351 642.803345 807.819702 642.871643 C 808.957581 643.573669 809.205627 644.014038 809.694885 645.187134 C 808.864319 647.569763 775.121643 668.911133 770.542969 671.998047 L 769.250427 672.25293 L 769.331177 671.189087 C 778.166504 658.169922 793.32135 648.906738 807.451111 642.743042 Z"/>
    <path id="path29" fill="#3c3633" stroke="none" d="M 849.752563 696.867798 C 849.727539 698.047729 849.414673 699.266418 849.166565 700.422485 C 845.124939 719.243408 830.112366 740.073853 814.000488 750.439636 L 813.947021 749.155029 C 817.990906 744.517212 822.958679 739.864563 826.282349 734.702148 C 832.675903 724.771118 842.084656 704.370728 849.752563 696.867798 Z"/>
    <path id="path30" fill="#3c3633" stroke="none" d="M 684.197998 690.583496 C 684.507507 693.968628 677.819214 704.766724 676.255859 708.620544 C 674.778931 712.253316 673.654358 715.992269 672.882141 719.837402 C 672.061768 723.993958 671.728394 728.224365 672.127808 732.44812 C 672.442932 735.7854 675.00647 743.373657 674.382996 745.89624 C 672.96637 745.748291 672.986877 745.488892 671.963928 744.587769 C 666.700256 737.157593 665.65918 730.072266 666.999512 721.177734 C 668.667603 710.10321 675.047485 697.325195 684.197998 690.583496 Z"/>
    <path id="path31" fill="#3c3633" stroke="none" d="M 925.722717 845.008911 C 937.135254 844.338745 969.721863 849.309937 978.691406 856.684265 L 978.774475 857.560425 C 977.085938 857.997314 975.329163 857.786865 973.603027 857.712891 C 965.23877 856.85376 956.905273 854.904724 948.655884 853.301514 C 937.932129 851.229085 927.186747 849.275431 916.419739 847.440552 C 919.54425 846.344727 922.44458 845.522095 925.722717 845.008911 Z"/>
    <path id="path32" fill="#3c3633" stroke="none" d="M 755.475708 669.637024 L 755.900085 670.117188 C 755.219727 679.792236 750.975525 689.934937 743.650085 696.314819 C 746.098735 690.334351 748.344076 684.278402 750.386108 678.146973 C 739.729126 685.833069 729.295166 694.988159 722.022034 705.981934 C 715.535217 716.610474 720.187866 716.703735 718.56073 721.446289 C 717.338745 721.221069 717.311401 721.169861 716.595703 720.204956 C 714.735352 717.695984 714.730774 714.599915 715.320129 711.65979 C 718.374146 696.434326 742.639709 677.844299 755.475708 669.637024 Z"/>
    <path id="path33" fill="#3c3633" stroke="none" d="M 870.189331 911.338135 C 882.714661 913.834534 896.023987 922.252319 905.661499 930.401489 C 903.787476 935.226013 898.279175 941.651367 897.465576 944.272949 C 896.943359 945.958069 898.278015 946.239136 896.805664 947.911743 C 889.64978 948.383911 874.349243 937.615417 867.310547 934.230408 C 864.352173 932.75116 861.781799 930.931763 859.103394 929.008789 C 871.431824 931.126343 882.556519 936.957764 893.776733 942.206604 C 895.771362 939.011536 898.039124 936.105469 900.37738 933.157349 C 891.468079 924.847717 880.055481 918.550903 870.189331 911.338135 Z"/>
    <path id="path34" fill="#3c3633" stroke="none" d="M 804.085388 701.11084 C 805.209534 697.518677 806.629578 694.393066 808.685608 691.238892 C 813.379211 684.042114 819.509888 677.837524 824.550598 670.876099 C 831.305847 661.548096 840.356323 644.445251 848.321167 637.470276 C 849.707031 637.200623 849.6922 637.095947 850.883606 637.818481 C 851.801819 643.235718 834.813843 665.733154 831.315002 670.862549 C 837.586792 669.789551 843.64917 667.447815 849.64447 665.372437 C 859.57782 661.933838 869.598816 658.621643 879.192993 654.303467 C 883.228943 652.486389 886.989563 650.24939 890.955994 648.309326 C 883.589661 656.667969 854.074036 664.616943 843.072266 668.469604 C 841.536255 669.006653 840.221985 669.923828 838.699585 670.469971 C 836.527466 671.250488 834.012817 670.812439 831.83728 671.602051 C 834.216492 672.227905 836.565002 671.305115 838.973816 671.699951 L 839.114929 672.247253 C 836.241821 672.681885 833.276611 672.499817 830.376282 672.472534 C 824.66095 680.242798 811.805603 695.958679 804.085388 701.11084 Z"/>
    <path id="path35" fill="#3c3633" stroke="none" d="M 944.230774 731.235107 C 950.212463 730.736755 955.943726 730.735657 961.863892 731.858704 C 967.790955 732.984009 979.011169 735.81604 982.54303 741.002441 C 982.729614 742.529358 982.821777 742.855896 981.723816 744.105286 C 978.430847 747.851074 956.798279 749.668152 951.085205 750.072021 C 954.777466 746.474243 957.657349 744.456787 962.551208 742.812744 L 970.031372 740.841919 C 949.905212 734.543945 934.712769 738.785889 914.913208 742.513428 C 923.907898 736.406616 933.549927 733.034058 944.230774 731.235107 Z"/>
    <path id="path36" fill="#3c3633" stroke="none" d="M 921.796021 703.975952 C 924.815857 703.572021 928.155396 703.614136 931.208313 703.628906 C 934.856201 703.647095 941.802673 703.793823 944.437866 706.439331 C 944.38562 706.605469 944.3526 706.779541 944.280884 706.938843 C 941.700256 712.736084 919.718323 724.713013 914.020081 727.429077 C 911.579346 728.59314 908.261414 730.242981 905.602295 729.305359 C 906.836853 725.617676 927.823181 712.879517 932.152649 710.57312 L 932.860413 710.20105 L 933.595398 709.846069 L 933.065186 709.361328 C 920.183716 708.775391 905.49762 711.452637 893.50708 716.089355 C 887.682434 718.342285 881.361755 721.772827 875.160583 722.555664 C 889.705505 711.888428 903.807922 705.896606 921.796021 703.975952 Z"/>
    <path id="path37" fill="#3c3633" stroke="none" d="M 899.448853 673.152954 C 901.250061 672.969788 902.09552 672.661438 903.744202 673.471558 L 903.876221 674.773315 C 903.033081 676.981812 901.664246 678.693115 900.092896 680.427246 C 890.746704 690.739441 880.259155 700.099365 870.753662 710.295532 C 860.353882 721.449707 849.148376 736.700195 837.309143 745.942871 C 842.129028 739.500427 846.282166 732.613037 851.196472 726.200195 C 863.437378 709.534302 879.81543 691.617798 896.201416 678.981018 C 885.720825 683.297913 874.492615 685.170898 864.103027 689.737061 C 874.299194 681.755066 886.895081 676.142029 899.448853 673.152954 Z"/>
    <path id="path38" fill="#3c3633" stroke="none" d="M 931.05011 760.309204 C 935.938293 759.953125 941.414673 759.6698 946.236816 760.605103 C 948.078979 760.962402 949.260132 761.373108 950.317078 762.939941 C 950.199951 763.62146 950.231812 763.682983 949.859741 764.398621 C 948.841309 766.358032 946.030884 768.381042 944.334351 769.762451 C 933.992554 778.176758 917.101318 788.330811 903.791992 790.793091 C 901.955505 791.133301 900.978088 790.991089 899.467102 789.922607 L 899.338501 788.889526 C 900.857544 786.949463 921.851807 777.880859 926.042419 775.648438 C 931.468872 772.504639 936.747253 769.079712 942.062134 765.751526 C 933.383789 766.129272 924.639526 766.408081 916.027161 767.602783 C 905.052734 769.125244 894.134033 771.612549 883.091248 772.537598 C 896.930847 766.47406 916.01239 761.654175 931.05011 760.309204 Z"/>
    <path id="path39" fill="#3c3633" stroke="none" d="M 873.327454 880.296753 C 886.356873 879.412659 914.778992 885.554688 924.94104 893.429688 C 926.402039 894.561829 927.174561 895.61322 927.351013 897.505493 C 925.875244 902.758789 919.858276 902.708801 917.977417 906.676453 C 917.187805 908.339966 918.408691 909.151245 916.67804 910.579224 C 905.99939 910.187866 884.341736 901.00885 873.837219 896.615601 C 871.222473 895.238892 868.677063 893.709595 866.112427 892.24292 C 881.968201 895.044312 897.454224 899.669617 912.891296 904.175476 C 916.188009 901.999166 919.524902 899.88619 922.901978 897.836548 C 918.136719 895.566935 913.259949 893.570028 908.271667 891.845825 C 903.283386 890.122355 898.214315 888.68221 893.064453 887.525391 C 887.339966 886.186157 881.30603 885.239502 875.711243 883.46106 C 874.46759 883.066284 873.757568 882.737427 872.907593 881.696289 L 873.327454 880.296753 Z"/>
    <path id="path40" fill="#3c3633" stroke="none" d="M 849.445313 835.411255 C 856.53064 834.562378 864.255432 835.180298 871.423828 835.172241 C 886.256714 835.154053 902.921509 833.760254 917.490479 836.640137 C 916.879456 837.744873 916.246765 838.836182 915.536804 839.879517 C 912.35199 844.567444 907.805115 848.772888 903.689636 852.635864 C 889.08429 866.343384 874.177429 875.576965 854.236755 879.124756 C 852.518616 879.354614 850.582092 879.566223 848.85022 879.439941 C 847.338074 879.32959 846.713379 879.034912 845.780334 877.884521 C 847.443909 874.939819 861.622559 872.653931 865.498047 871.209961 C 882.31189 864.947266 895.374268 853.565491 907.926941 841.134521 C 892.595703 839.530212 877.197266 839.531311 861.838745 838.434448 C 858.264771 838.178467 851.86554 838.211426 849.445313 835.411255 Z"/>
    <path id="path41" fill="#3c3633" stroke="none" d="M 891.446472 788.598206 L 892.116638 789.37085 C 890.079895 800.233765 876.019592 815.131531 867.615479 822.009766 C 857.985962 829.891602 847.251587 834.794556 835.156372 837.560608 C 832.428894 838.185303 829.476257 839.055786 826.66803 838.784912 C 826.698792 838.493652 826.641846 838.177307 826.761414 837.909912 C 827.64093 835.942627 835.149536 833.132202 837.109985 832.252563 C 854.466675 824.469727 863.992676 820.191406 876.274475 805.115112 L 883.909363 795.543579 C 873.814453 799.194946 863.539795 802.033813 853.661072 806.337158 C 843.154236 810.914673 832.815796 817.783813 821.817444 820.944763 C 843.932556 803.863464 865.081543 796.301392 891.446472 788.598206 Z"/>
    <path id="path42" fill="#3c3633" stroke="none" d="M 932.880859 796.155762 C 945.666809 795.04071 958.164856 799.380371 970.248657 802.973694 C 969.459045 803.767944 968.654541 804.506348 967.802307 805.234619 C 946.077576 823.831421 910.062622 830.859863 882.08429 828.472656 C 891.503357 825.738403 901.251221 824.121582 910.896667 822.414795 C 931.756714 818.265137 943.33313 813.544189 962.150696 803.590393 C 937.507324 800.538696 917.100159 802.598206 893.13385 808.566162 L 894.797424 807.496582 C 905.791199 800.406677 920.022095 797.38916 932.880859 796.155762 Z"/>
    <path id="path43" fill="#faf9f8" stroke="none" d="M 577.056702 809.792725 C 562.352763 815.306722 547.758443 821.096822 533.273743 827.163025 C 507.792969 837.791565 478.13858 854.398376 450.426483 842.12793 C 435.791565 835.646729 424.29483 821.984741 414.223846 809.901978 C 385.542297 775.492554 360.650909 737.494385 335.387451 700.545288 C 279.98526 619.655518 227.208064 537.088175 177.055862 452.843262 C 163.290288 430.367147 149.641902 407.820475 136.110703 385.203247 C 127.733917 371.033691 118.243195 356.45459 112.444084 340.990173 C 106.987343 326.438354 106.888229 313.370239 113.480537 299.216614 C 122.497574 279.855164 141.298111 275.55072 159.728836 268.879578 L 193.530655 256.686462 C 318.706696 211.947754 441.6492 161.675659 565.782959 114.227783 L 655.396973 79.687012 C 672.361023 73.098267 689.740417 65.018311 707.384888 60.481201 C 707.968994 60.32723 708.556498 60.186239 709.1474 60.058228 C 709.738302 59.930379 710.331502 59.815592 710.927002 59.713867 C 711.522461 59.612223 712.120199 59.523763 712.720215 59.448486 C 713.319458 59.373291 713.920634 59.311401 714.523743 59.262817 C 715.125997 59.214233 715.729024 59.178996 716.332825 59.157104 C 716.936666 59.135213 717.540873 59.126709 718.145447 59.131592 C 718.749247 59.136556 719.353048 59.154826 719.956848 59.186401 C 720.560689 59.218058 721.163371 59.263021 721.764893 59.321289 C 722.366455 59.379639 722.966085 59.451253 723.563782 59.536133 C 724.162292 59.621012 724.758545 59.719076 725.352539 59.830322 C 725.946493 59.94165 726.537781 60.066081 727.126404 60.203613 C 727.715068 60.341064 728.300293 60.491455 728.88208 60.654785 C 729.463908 60.818197 730.041931 60.994385 730.61615 61.18335 C 731.189636 61.372314 731.758952 61.573893 732.324097 61.788086 C 732.889201 62.00236 733.449382 62.229004 734.004639 62.468018 C 734.559896 62.707031 735.109477 62.958211 735.653381 63.221558 C 748.785156 69.446533 759.421753 81.044189 769.152527 91.599609 C 796.770142 121.558838 821.229187 154.779236 846.312866 186.844727 C 879.98763 229.932414 912.742249 273.708903 944.576721 318.174194 C 976.410461 362.639445 1007.295614 407.754049 1037.232178 453.518005 C 1047.660889 469.299052 1057.759603 485.288737 1067.52832 501.487061 C 1073.240234 510.873047 1080.562256 521.505066 1084.065674 531.934509 C 1086.051147 537.846741 1085.850952 545.585205 1082.989258 551.18335 C 1080.440552 556.171631 1076.215698 560.069885 1071.870239 563.487976 C 1060.387207 572.52356 1046.782104 579.529236 1034.377319 587.25061 C 1019.150818 596.728821 1004.365662 606.813477 988.967285 616.049316 C 969.82312 627.532471 949.850647 638.290649 931.217407 650.525879 L 930.066956 648.721252 C 931.309509 647.522034 931.997925 646.889343 932.289185 645.094971 C 931.879578 643.574829 931.684998 642.770386 930.309326 641.873779 C 923.417419 637.380432 887.164734 638.84259 877.838989 639.34436 C 882.548523 636.519043 888.147888 634.670044 892.262268 630.972046 C 895.728149 627.856689 897.218689 623.012878 901.359314 620.51532 C 919.402039 609.633057 938.724792 600.447266 957.366028 590.615234 C 971.850769 582.974609 985.978149 574.594421 1000.086304 566.28363 C 1010.894592 559.917419 1023.963867 553.056274 1032.992554 544.306274 C 1036.23877 541.160095 1038.513428 537.434814 1039.576172 533.025696 C 1042.70752 520.040649 1030.43811 504.153015 1023.92395 493.800903 L 1009.78064 471.475342 C 975.412557 418.844971 939.749634 367.106649 902.79187 316.260376 C 865.834798 265.414836 827.62915 215.525106 788.174927 166.591187 C 777.467834 153.3797 766.932617 140.053345 756.094666 126.942017 C 749.358704 118.793945 742.612427 109.932861 734.581543 103.024292 C 729.771912 98.886963 723.691223 95.977173 717.50824 94.599731 C 711.039673 93.158691 704.081787 94.53186 697.865723 96.508545 C 686.866272 100.00647 676.219482 105.319214 665.619324 109.885498 L 621.038757 128.651001 C 577.153015 146.908773 533.140228 164.855164 489.000397 182.490173 C 426.746124 207.100891 364.190704 230.921204 301.334137 253.951111 L 216.482025 283.793213 C 203.327454 288.344604 174.7836 296.136536 164.883255 302.827026 C 158.58873 307.080261 154.40033 313.224609 152.921143 320.700195 C 151.637665 327.184753 152.795975 333.447449 155.04776 339.540527 C 161.378708 356.671875 171.474762 373.297974 180.589996 389.08551 C 193.915237 412.167725 207.628494 434.87677 221.539719 457.608521 C 274.78155 546.15979 330.981374 632.792277 390.139191 717.505981 C 398.286072 729.129028 406.801697 740.533569 415.098816 752.054199 C 423.449432 763.649963 435.876923 782.799744 446.302948 791.661255 C 451.69519 796.244507 457.73822 799.25293 464.729126 800.446533 C 495.31427 805.665771 546.151794 779.916504 574.875488 767.733643 C 579.307312 783.958069 584.450378 793.157532 577.056702 809.792725 Z"/>
    <path id="path44" fill="#a5a29a" stroke="none" d="M 98.949867 343.903015 C 101.618324 349.151917 103.485405 354.803528 106.28302 360.071716 C 113.694679 374.026245 122.320076 387.480042 130.32251 401.112488 C 151.801137 438.147644 174.032628 474.725403 197.016983 510.845764 C 207.936844 528.35144 218.32077 546.19281 229.305481 563.65863 C 256.782796 607.372172 285.072164 650.553955 314.173584 693.203979 C 332.240194 720.116903 350.694814 746.761332 369.537445 773.137268 C 383.150543 792.343994 397.940186 813.770691 413.821045 831.068115 C 422.150024 840.137817 431.265259 847.763672 442.428589 853.103516 C 471.643768 867.077332 498.657227 856.246216 526.265808 844.440002 C 540.542297 838.334351 554.763 831.954468 569.420654 826.809204 C 555.052002 862.920776 536.192322 897.42688 505.504761 922.189697 C 502.87559 922.108561 500.257039 922.239054 497.649109 922.581177 C 489.560211 923.607422 480.400604 926.549988 475.386139 933.367859 C 472.293488 937.572144 471.131775 943.15332 472.162628 948.259888 C 473.260651 953.691956 476.835754 958.09198 481.473572 960.983276 C 492.677887 967.968384 508.484741 967.991211 520.940735 965.170471 C 558.632813 983.87085 608.096985 992.495728 649.61676 998.200806 C 646.162292 1000.211426 642.429016 1001.862427 638.838013 1003.62384 C 600.950195 1022.134949 562.855306 1040.209147 524.553345 1057.846436 C 502.269897 1068.133667 470.530975 1084.180664 447.407806 1089.647949 C 445.656281 1090.075765 443.893382 1090.45048 442.11911 1090.772095 C 440.345591 1091.092977 438.563731 1091.360352 436.773529 1091.574219 C 434.983348 1091.788167 433.188222 1091.947876 431.388153 1092.053345 C 429.588084 1092.158732 427.786499 1092.20992 425.983398 1092.206909 C 424.180318 1092.203898 422.37912 1092.14624 420.579803 1092.033936 C 418.780487 1091.921631 416.986104 1091.755534 415.196655 1091.535645 C 413.407227 1091.31486 411.626139 1091.040609 409.853394 1090.712891 C 408.080627 1090.38444 406.319244 1090.003296 404.569244 1089.569458 C 386.782532 1085.061279 372.174927 1074.5625 360.594025 1060.507813 C 349.025574 1046.470337 339.994568 1029.560913 330.485657 1014.088501 L 270.645477 915.131714 C 202.145233 803.914673 132.625488 693.23584 65.37323 581.258728 C 57.270786 567.767395 48.704559 553.692322 47.592888 537.623718 C 46.429905 520.810974 53.328285 502.745483 57.934944 486.77478 L 69.223343 447.98584 L 83.860405 397.157349 C 89.080582 379.387695 94.467461 361.892273 98.949867 343.903015 Z"/>
    <path id="path45" fill="#4d4542" stroke="none" d="M 428.251129 878.032471 C 429.856598 878.822083 430.657654 879.023499 431.671448 880.530029 C 431.933167 881.935242 431.820526 882.820496 431.442749 884.204102 C 423.603027 912.860596 414.672119 941.17572 407.12027 969.916443 C 402.953522 986.261861 398.685872 1002.58077 394.317322 1018.873169 C 391.949463 1027.477539 389.861542 1036.641602 386.20224 1044.787354 C 384.944946 1044.336792 383.983459 1043.810059 382.872925 1043.071533 C 377.954041 1029.84082 420.739075 898.485107 428.251129 878.032471 Z"/>
    <path id="path46" fill="#faf9f8" stroke="none" d="M 710.005371 104.311401 C 712.564331 103.980469 715.151794 104.080933 717.657288 104.721558 C 721.051514 105.589111 724.354614 107.130615 727.107056 109.306885 C 735.030945 115.573853 741.875061 124.94165 748.289124 132.71875 C 759.188822 146.041382 770.005493 159.431498 780.739136 172.889099 C 811.039103 210.157898 840.572144 248.024841 869.338257 286.489929 C 898.103556 324.954976 926.078084 363.987061 953.261841 403.586182 C 976.408936 437.292358 999.577637 471.254639 1020.594727 506.337646 C 1024.280151 512.48999 1032.719482 524.636414 1030.462036 532.009644 C 1029.331055 535.701904 1024.746704 539.316833 1021.745056 541.627808 C 1009.996826 550.672485 996.588501 557.978516 983.750305 565.34491 C 955.171204 581.74231 925.759155 596.587708 897.043518 612.746216 C 877.781006 610.09845 847.232239 621.179871 828.894836 627.674683 C 835.446533 615.712585 845.016907 606.438049 854.643005 596.999573 C 826.487122 600.613403 801.646973 614.487061 779.823181 631.90741 C 787.352295 616.642151 795.007629 599.604126 805.497437 586.201477 C 799.964111 588.454468 794.558228 591.824707 789.475464 594.973083 C 768.805542 607.773804 754.345825 621.936523 737.727661 639.305664 C 740.427795 627.407227 743.213196 616.487366 748.509827 605.412842 C 728.290466 615.868408 702.849487 642.574646 689.731323 661.615234 C 688.675354 649.936523 688.924561 639.676575 691.849976 628.270874 C 677.187744 643.894592 661.552734 670.756714 652.888062 690.415161 C 651.454346 686.564697 649.875061 682.759766 648.348083 678.94458 C 649.879578 671.734131 652.6297 664.835388 653.854065 657.561157 C 644.166504 669.301392 629.322266 700.64209 627.463013 715.883423 C 625.153198 708.352051 624.013062 700.473633 622.67157 692.727295 L 619.67334 699.600891 C 616.949341 708.492004 616.111877 717.760864 613.719055 726.71228 C 611.648193 734.458618 607.885315 741.516663 605.98175 749.384888 C 602.20752 742.892334 598.59259 736.268921 593.027405 731.099731 C 588.784424 727.159424 583.666443 724.54126 577.759888 724.857544 C 575.409119 724.983887 573.239258 725.369629 571.682678 727.298218 C 567.001587 733.091003 571.977417 750.493164 573.294983 757.253052 C 562.773376 762.609985 551.710144 767.107849 540.848389 771.729736 C 523.530457 779.100647 506.500366 786.563782 487.957001 790.333435 C 478.4151 792.273438 466.029694 794.026855 457.473114 788.143066 C 450.864563 783.597412 445.627075 777.137939 440.610352 770.955994 C 432.091339 760.457153 424.292572 749.344971 416.369781 738.393311 C 396.4758 710.454753 377.029358 682.207886 358.030457 653.65271 C 305.200541 575.756917 254.821538 496.307231 206.893448 415.30365 C 197.011307 398.581909 165.347504 346.806824 162.872696 330.221619 C 162.134232 325.272034 163.154877 319.852539 166.221359 315.821167 C 168.152267 313.282593 170.826202 311.336914 173.604813 309.817932 C 185.428085 303.358398 211.153519 296.447144 225.018097 291.867371 C 247.401688 284.473633 269.65329 276.324463 291.849121 268.37323 C 367.030782 240.781352 441.810384 212.140015 516.187927 182.449219 C 555.892476 166.816813 595.415365 150.736491 634.756592 134.208252 L 672.679626 118.111206 C 684.739624 112.947021 696.911072 106.137207 710.005371 104.311401 Z"/>
    <path id="path47" fill="#4d4542" stroke="none" d="M 903.232178 506.214783 C 906.444275 507.179688 913.74469 518.060852 915.937317 521.234253 C 910.962646 525.761719 905.23938 529.807922 899.847107 533.830139 C 895.379944 528.915833 891.496521 523.240295 887.52887 517.912903 C 892.646851 513.904297 897.695496 509.632813 903.232178 506.214783 Z"/>
    <path id="path48" fill="#4d4542" stroke="none" d="M 409.455139 568.301025 C 412.964264 572.02063 415.962433 577.155701 418.957245 581.334961 C 426.873199 592.384521 434.509247 603.560364 442.205566 614.761353 L 516.117371 722.720703 C 512.24646 725.138611 508.191193 727.177612 504.132538 729.25531 C 493.563141 711.550537 481.356384 695.031372 469.662811 678.071899 L 397.023102 574.746887 L 409.455139 568.301025 Z"/>
    <path id="path49" fill="#4d4542" stroke="none" d="M 547.986023 221.35083 C 551.303955 223.929199 566.386047 248.598694 569.805237 253.674622 C 591.713196 286.200867 613.344727 319.193726 636.38031 350.92804 C 629.484965 355.149434 622.695841 359.535055 616.012939 364.0849 C 611.371704 360.365295 597.1521 335.292969 592.681519 328.630981 C 571.237793 296.67926 548.649353 265.382996 527.767761 233.063782 C 534.566711 229.262634 541.306132 225.358317 547.986023 221.35083 Z"/>
    <path id="path50" fill="#4d4542" stroke="none" d="M 813.955017 326.983337 C 814.496643 327.073242 815.517212 327.212036 815.998535 327.437378 C 817.297974 328.043823 817.418579 328.850525 817.738342 330.080566 C 817.533447 330.990845 817.343445 331.75885 816.796204 332.533752 C 811.467651 340.075317 772.362366 362.541992 761.781616 368.663574 C 734.48938 384.454529 707.326904 400.178345 679.432739 414.908813 C 658.12854 426.123372 636.624878 436.940816 614.921753 447.361145 C 593.218587 457.782247 571.330322 467.798645 549.256958 477.410339 C 527.183634 487.022807 504.940389 496.224528 482.527222 505.015503 C 460.114054 513.806437 437.546509 522.180542 414.824585 530.137817 L 375.538422 543.570068 C 366.783875 546.610352 357.8302 550.298096 348.782104 552.297302 C 347.656769 551.940002 346.913757 551.42572 346.184418 550.468811 C 345.222931 549.208069 344.935028 547.691284 345.112549 546.15863 C 345.959137 544.480347 347.852509 543.875 349.522827 543.258301 C 363.005096 538.280212 376.956146 534.420654 390.522614 529.613281 C 421.090698 518.779907 451.563171 506.988525 481.75235 495.128784 C 523.263804 478.510254 564.203267 460.586243 604.57074 441.35675 C 644.938293 422.126485 684.651957 401.629435 723.711731 379.865601 C 741.255005 370.180298 758.892639 360.377808 776.030762 349.98822 C 788.584595 342.378357 800.901733 333.664734 813.955017 326.983337 Z"/>
    <path id="path51" fill="#4d4542" stroke="none" d="M 843.264587 384.222412 C 846.670166 383.970947 849.972168 383.932251 853.368591 384.348694 C 868.085449 386.151062 881.527832 395.332275 890.538391 406.835815 C 898.749084 417.318787 904.591919 431.363098 902.756592 444.873779 C 901.215942 456.21698 894.935059 463.658386 886.120178 470.379639 C 889.739685 479.137573 895.831726 486.540405 899.777649 495.092407 C 893.546936 498.361389 887.255737 501.532593 881.309448 505.304504 C 875.746521 497.655945 870.670593 489.636475 865.501404 481.71936 C 861.394958 475.427124 856.803711 469.051819 853.674683 462.209961 C 860.550659 458.805542 866.688171 455.785706 872.353455 450.531189 C 873.962402 448.491028 875.333496 446.496399 876.266541 444.051147 C 878.401062 438.456421 878.056335 432.667053 875.414246 427.315796 C 871.556946 419.502258 863.724121 412.625183 855.387146 410.080994 C 848.41333 407.950928 840.278931 408.591492 833.884277 412.114258 C 833.497396 412.331217 833.116211 412.557638 832.740723 412.793518 C 832.365275 413.030212 831.996236 413.276001 831.633606 413.530884 C 831.270976 413.785767 830.915222 414.05011 830.566345 414.323914 C 830.217387 414.597799 829.875651 414.880005 829.541138 415.170532 C 829.205851 415.461792 828.878906 415.761414 828.560303 416.069397 C 828.240926 416.376648 827.929545 416.6922 827.62616 417.016052 C 827.323466 417.339986 827.029154 417.671488 826.743225 418.010559 C 826.457214 418.34963 826.179952 418.695536 825.911438 419.048279 C 825.642883 419.401754 825.38383 419.761678 825.134277 420.128052 C 824.884684 420.494466 824.644206 420.866923 824.412842 421.245422 C 824.182251 421.624695 823.961528 422.009298 823.750671 422.399231 C 823.539775 422.789124 823.339132 423.184326 823.148743 423.584839 C 822.958313 423.985352 822.778158 424.390422 822.608276 424.800049 C 822.438354 425.209676 822.279053 425.623474 822.130371 426.041443 C 821.981689 426.459412 821.843994 426.880778 821.717285 427.305542 C 821.589884 427.730347 821.473836 428.158183 821.369141 428.58905 C 819.001343 438.290283 823.162354 446.808167 828.190491 454.740051 C 821.157166 458.746765 814.230001 462.929077 807.408997 467.286987 C 806.697449 466.336507 806.016622 465.365173 805.366516 464.372986 C 804.715719 463.380025 804.097127 462.367737 803.510742 461.336121 C 802.923625 460.304464 802.369507 459.255371 801.848389 458.188843 C 801.32723 457.122314 800.839864 456.040609 800.386292 454.943726 C 799.932638 453.846842 799.514282 452.736674 799.131226 451.61322 C 798.747396 450.49058 798.399211 449.356547 798.08667 448.211121 C 797.774129 447.066427 797.49764 445.912659 797.257202 444.749817 C 797.016724 443.587667 796.813029 442.419088 796.646118 441.24408 C 794.871094 428.326172 798.363159 414.401367 806.358765 404.05835 C 815.346558 392.433044 828.964233 386.149902 843.264587 384.222412 Z"/>
    <path id="path52" fill="#4d4542" stroke="none" d="M 488.91391 252.990784 C 490.232666 253.147766 490.245178 253.129578 491.083771 254.127441 C 496.866272 261.009094 503.214294 272.615051 508.227631 280.404724 C 515.830678 292.118429 523.340047 303.891663 530.755737 315.724426 C 536.127441 324.29126 542.006653 332.898987 545.78772 342.310059 C 548.949768 350.182739 550.975159 359.278687 549.564209 367.755554 C 547.831299 378.165649 541.182861 386.944092 532.644531 392.865417 C 522.752136 399.725464 509.666962 403.346069 497.692352 401.15802 C 469.178101 395.945557 449.65274 358.870178 435.626587 336.218079 C 429.555074 326.360575 423.19456 316.693095 416.545044 307.215637 L 409.302673 296.589355 C 415.824768 291.688721 423.368652 287.297791 430.509735 283.330139 C 444.839661 307.137146 458.958008 331.529053 474.960602 354.244873 C 481.717072 363.835754 489.765015 375.322205 502.228912 377.212158 C 508.145691 378.108765 514.421997 376.650085 519.215698 373.02948 C 519.478963 372.832987 519.736898 372.630066 519.989502 372.420715 C 520.242065 372.210592 520.488973 371.994405 520.730225 371.772156 C 520.971436 371.549866 521.20697 371.321533 521.436829 371.087158 C 521.665914 370.85201 521.889303 370.611552 522.106995 370.365784 C 522.323954 370.119242 522.534444 369.867391 522.738464 369.610229 C 522.942525 369.353109 523.139771 369.091044 523.3302 368.824036 C 523.520549 368.556986 523.704102 368.285034 523.880859 368.008179 C 524.056844 367.731323 524.225627 367.44989 524.387207 367.163879 C 524.54952 366.878682 524.703898 366.589294 524.850342 366.295715 C 524.997477 366.002177 525.136658 365.704834 525.267883 365.403687 C 525.399882 365.103271 525.523539 364.799459 525.638855 364.492249 C 525.754903 364.185038 525.86261 363.875163 525.961975 363.562622 C 526.061381 363.249349 526.152791 362.934163 526.236206 362.617065 C 526.319621 362.299235 526.394714 361.979513 526.461487 361.657898 C 526.528259 361.337016 526.58667 361.014242 526.636719 360.689575 C 526.686808 360.365682 526.728536 360.040263 526.761902 359.713318 C 527.25 355.101685 526.151978 350.524109 524.31781 346.311829 C 521.717834 340.339294 517.856018 334.944824 514.364014 329.469543 C 506.665344 317.401611 498.601501 305.668213 490.429535 293.919983 C 483.629791 284.144836 477.327271 273.746094 469.800476 264.528442 C 476.088196 260.564209 482.547699 256.829834 488.91391 252.990784 Z"/>
    <path id="path53" fill="#4d4542" stroke="none" d="M 682.663025 149.050232 C 683.376465 149.935486 683.374146 151.402161 683.456116 152.527466 C 684.781677 170.625916 684.716797 189.04071 685.432556 207.199524 L 689.535645 296.406189 C 702.008606 288.27179 714.789917 280.627747 727.419983 272.742493 C 734.605469 268.257141 742.140259 262.531555 749.890015 259.186279 C 754.930664 265.238464 759.335266 271.948303 763.692017 278.502258 C 753.89978 285.666138 743.163147 291.625 732.88501 298.061768 C 712.233968 311.249308 691.2264 323.842916 669.862305 335.84259 C 669.4823 336.034851 669.026001 336.00415 668.603882 336.065613 C 665.714905 330.89978 660.157715 208.735596 659.199646 191.825012 C 639.257874 202.687988 620.251343 215.335083 599.956848 225.567688 C 595.220439 218.943176 590.430522 212.357727 585.587097 205.81134 L 643.739807 171.530518 C 656.617859 163.965027 669.411743 155.930725 682.663025 149.050232 Z"/>
    <path id="path54" fill="#4d4542" stroke="none" d="M 339.897827 318.795471 C 355.380432 316.969238 370.845947 321.208801 384.087006 329.174866 C 404.57608 341.501099 422.650696 362.168823 428.438843 385.727783 C 432.722839 403.160645 428.789307 416.788513 419.702545 431.811401 C 426.609202 438.277384 433.568227 444.686462 440.57962 451.038635 C 436.060089 457.225098 430.382294 462.587708 424.891083 467.901428 C 418.312073 462.448914 409.509766 451.964844 402.43808 448.228149 L 401.378754 448.702637 C 393.631226 454.164307 384.303162 457.071472 374.992249 458.395874 C 352.357178 461.613708 329.290894 454.217773 311.216339 440.614868 C 295.28656 428.625427 283.177643 409.72821 280.410431 389.821716 C 278.117676 373.319641 282.779419 357.095154 292.869751 343.913269 C 304.389282 328.864197 321.494415 321.240662 339.897827 318.795471 Z"/>
    <path id="path55" fill="#faf9f8" stroke="none" d="M 345.087524 343.276123 C 355.664886 342.46936 366.993225 346.298157 375.869507 351.838318 C 388.721436 359.860107 399.545715 374.055786 402.845428 388.952393 C 404.994812 398.652466 403.536102 407.235229 398.232605 415.62677 C 396.103699 413.948486 394.076111 412.107422 392.015472 410.343811 C 388.207092 414.214722 384.618347 418.207397 381.068298 422.310425 L 384.869843 426.712769 C 380.333252 429.581238 375.827423 431.965027 370.799316 433.859497 C 369.795736 434.063558 368.785716 434.229309 367.769257 434.35675 C 353.483643 436.220581 337.669952 430.391357 326.449738 421.768799 C 315.387634 413.266907 306.519287 400.952087 304.761353 386.837158 C 303.541565 377.04834 306.346344 367.731689 312.464508 360.038757 C 320.552277 349.869873 332.444977 344.786011 345.087524 343.276123 Z"/>
</svg>
