<?xml version="1.0" encoding="UTF-8"?>
<!-- Generated by Pixelmator Pro 2.4.7 -->
<svg width="1024" height="1024" viewBox="0 0 1024 1024" xmlns="http://www.w3.org/2000/svg" xmlns:xlink="http://www.w3.org/1999/xlink">
    <path id="Percorso" fill="#3c1a17" stroke="none" d="M 886.750977 519.468018 C 887.737976 519.812988 888.859009 520.098022 889.791016 520.557007 C 889.127991 525.252014 888.539001 532.609985 886.143982 536.697998 C 885.64502 537.549011 885.685974 537.560974 884.695007 537.867981 C 883.97998 536.310974 886.242004 522.195007 886.750977 519.468018 Z"/>
    <path id="path1" fill="#3c1a17" stroke="none" d="M 870.070984 519.237976 C 872.55603 517.611023 875.127014 515.122986 877.854004 514.127991 L 878.375 514.664001 C 877.862976 518.968018 877.416016 525.445984 875.749023 529.367981 L 875.44397 529.403015 C 874.570007 526.713989 874.275024 523.892029 874.338989 521.06897 C 873.255981 520.846008 873.23999 521.015015 872.271973 521.426025 L 870.070984 519.237976 Z"/>
    <path id="path2" fill="#3d2525" stroke="none" d="M 870.070984 519.237976 L 872.271973 521.426025 C 870.137024 523.473999 868.296997 525.419983 865.585999 526.674988 C 862.994019 527.874023 861.117981 529.124023 859.747986 531.697021 C 857.763 531.651978 856.973022 530.913025 855.619019 529.612 C 859.810974 525.093018 864.562988 521.935974 870.070984 519.237976 Z"/>
    <path id="path3" fill="#3c1a17" stroke="none" d="M 752.671021 496.094971 C 787.064026 505.14502 823.357971 514.580017 855.619019 529.612 C 856.973022 530.913025 857.763 531.651978 859.747986 531.697021 C 866.66803 533.307983 874.02002 539.117981 878.346985 544.577026 C 872.140991 542.651978 866.304993 538.906006 860.35498 536.268982 C 849.843994 531.612 839.039978 527.440979 828.260986 523.442017 C 803.531006 514.265015 777.734009 507.916016 752.797974 499.223999 C 747.760986 501.747986 742.655029 504.104004 737.697021 506.786011 C 736.06897 506.138 734.525024 505.733032 733.489014 504.226013 C 739.866028 501.572998 746.468994 499.119995 752.671021 496.094971 Z"/>
    <path id="path4" fill="#3d2525" stroke="none" d="M 535.39502 85.203308 C 530.072021 75.779419 520.223022 64.638184 513.385986 55.955078 C 510.815002 52.690186 507.960999 49.543823 505.895996 45.927795 C 505.917999 44.612793 506.028015 44.454773 506.752014 43.342712 C 507.436005 42.981628 508.075989 42.655029 508.859985 42.570496 C 513.35498 42.085205 520.557007 44.776489 525.015991 45.929382 C 527.088664 46.447327 529.153666 46.993734 531.210999 47.568604 C 533.268331 48.143392 535.317668 48.746419 537.359009 49.377686 C 539.399658 50.008952 541.431315 50.668213 543.453979 51.355469 C 545.477336 52.042684 547.490336 52.757629 549.492981 53.500305 C 551.496318 54.242981 553.488647 55.013082 555.469971 55.810608 C 557.451986 56.608215 559.422668 57.432902 561.382019 58.284668 C 563.341329 59.136475 565.28833 60.015116 567.223022 60.920593 C 569.158325 61.82607 571.080648 62.757975 572.98999 63.716309 C 574.898682 64.674723 576.794352 65.65922 578.677002 66.6698 C 580.559001 67.680379 582.426676 68.716715 584.280029 69.778809 C 586.133993 70.840861 587.972656 71.928223 589.796021 73.040894 C 591.619995 74.153564 593.427979 75.291138 595.219971 76.453613 C 597.012655 77.61613 598.788656 78.803101 600.547974 80.014526 C 602.307983 81.225911 604.050659 82.461304 605.776001 83.720703 C 607.501994 84.980103 609.210002 86.263 610.900024 87.569397 C 612.590658 88.875875 614.262655 90.205343 615.916016 91.5578 C 614.731018 85.042114 613.30603 78.42688 611.546997 72.042603 C 610.552002 68.429993 608.567017 63.966797 608.226013 60.305115 C 608.137024 59.348816 608.507019 59.271912 609.09198 58.56543 C 610.161987 58.105286 610.921997 58.018188 612.075012 58.283875 C 620.86499 60.308594 646.671021 86.87262 652.515991 94.36438 C 656.166016 99.043274 659.153015 104.622986 662.450989 109.591003 C 682.005981 109.197021 707.55603 112.400024 724.357971 123.192993 C 727.098022 124.953003 730.989014 127.73999 731.452026 131.247009 C 731.705994 133.167969 731.15802 134.733032 729.874023 136.151001 C 722.768005 144.002991 693.400024 147.002991 682.752991 147.280029 C 687.924988 162.257996 691.745972 178.666992 689.393005 194.60199 C 695.271973 202.082031 704.565979 225.046997 708.752014 234.541992 L 708.765015 233.760986 C 708.93103 225.676025 711.393982 215.809998 717.55603 210.176025 C 721.179016 206.863037 725.801025 205.35498 730.677002 205.627014 C 740.083984 206.153015 748.672974 212.035034 754.719971 218.927979 C 771.651001 238.22998 777.541992 264.94397 775.989014 289.963013 C 784.346008 290.436035 792.629028 290.561035 801 290.541992 C 801.562012 289.700012 802.237 288.997009 803.03302 288.372986 C 811 282.122986 819.794006 281.354004 829.458008 282.75 C 831.804016 284.809998 834.06897 287.026978 835.507019 289.834961 C 838.870972 296.401978 838.11499 304.490967 835.906006 311.320007 C 832.291992 322.488037 824.492004 332.313965 817.974976 341.958984 C 789.721985 383.781006 764.120972 404.437988 720.958008 429.77301 C 704.374674 439.608988 687.484009 448.885661 670.286011 457.603027 C 672.453003 463.650024 673.179993 469.476013 673.877014 475.812012 C 674.184021 475.938965 674.491028 476.062988 674.796021 476.192993 C 699.47699 486.747986 692.39801 501.723999 700.468994 522.26001 L 700.75 522.963989 C 705.281006 517.406982 709.663025 507.514038 713.562988 503.47998 C 718.286011 498.593018 728.320984 506.674988 733.489014 504.226013 C 734.525024 505.733032 736.06897 506.138 737.697021 506.786011 C 741.992004 508.895996 747.47998 509.756958 752.133972 511.02002 C 762.518982 513.836975 773.038025 516.505005 783.265991 519.843994 C 804.921346 527.012004 826.501017 534.401001 848.005005 542.010986 C 861.288025 546.697021 874.267029 552.138977 888.018005 555.382019 L 888.323975 554.809998 C 891.661987 548.463989 894.146973 541.661011 897.22699 535.179993 C 903.536987 521.900024 912.377991 508.103027 922.388 497.287964 C 915.651001 496.093994 910.192017 493.417969 903.757019 491.436035 C 896.356995 501.144043 891.77301 508.182007 889.791016 520.557007 C 888.859009 520.098022 887.737976 519.812988 886.750977 519.468018 C 887.276978 515.340027 888.622986 511.442017 890.023987 507.546021 C 887.234985 510.065002 883.403015 516.622009 881.765991 517.359985 C 880.838013 516.643982 880.882996 516.632996 880.637024 515.478027 C 882.919983 509.582031 888.73999 505.162964 892.710022 500.369995 C 896.291016 496.047974 899.590027 491.497986 903.33197 487.30896 C 910.14801 490.106995 918.887024 494.291016 926.474976 493.394043 C 929.195984 493.072998 931.789978 491.802979 934.564026 491.704956 C 936.047974 491.651978 936.60498 492.004028 937.698975 492.934998 C 937.989014 493.838013 938.111023 494.523987 937.778015 495.446045 C 935.752014 501.067017 931.192993 507.106995 928.075989 512.224976 C 920.883972 524.030029 913.366028 535.817017 907.171997 548.179993 L 910.598022 551.366028 C 908.405029 555.783997 906.450989 560.174011 903.60498 564.237976 C 899.046021 570.747009 892.978027 576.507019 889.817017 583.885986 C 890.929016 585.835022 892.182007 587.880005 892.781006 590.057007 C 895.572021 600.203003 892.007019 612.268982 886.877991 621.11499 C 877.716003 636.919983 860.713013 646.255005 843.53302 650.749023 C 833.59198 664.789978 811.007996 705.770996 797.379028 713.09198 C 795.353027 714.179993 793.002991 715.099976 790.671021 715.138 C 783.676025 715.250977 765.830994 708.114014 757.90802 705.89502 C 767.919006 727.549988 774.630005 751.659973 780.393005 774.757019 C 784.827026 792.528992 789.469971 810.656006 792.491028 828.741028 C 793.520996 834.901978 793.776978 841.062988 794.648987 847.192017 C 794.856995 848.656982 795.471008 850.067017 795.671021 851.512024 C 796.112 854.690979 792.439026 858.986023 790.427002 861.294006 C 785.932007 866.450989 767.270996 885.414001 760.755981 884.934998 C 760.033997 884.882019 759.333984 884.620972 758.88501 884.047974 C 756.072021 880.468994 758.276001 870.046021 758.491028 865.455994 C 758.546021 864.286011 758.965027 858.607971 758.117004 857.906006 C 753.406006 854.005981 707.36499 858.10498 698.221008 858.544006 C 701.752014 873.257996 703.255981 888.562012 706.479004 903.382019 C 710.786011 923.182983 718.169006 941.66803 726.05603 960.23999 C 724.64502 961.638977 723.039001 962.72998 721.245972 963.59198 C 711.505981 968.278015 694.638 968.336975 684.580017 964.567017 C 664.262024 956.950012 634.013977 910.55603 624.914001 890.606995 C 617.622986 891.992004 610.437988 894.062012 603.190002 895.679016 C 593.122009 897.926025 582.575012 899.757996 572.356995 901.16803 C 559.473022 902.945984 546.278015 902.786011 533.302002 903.39502 C 536.047974 914.15802 538.143982 925.239014 541.502014 935.814026 C 543.427979 941.879028 555.356995 972.426025 554.969971 976.169983 C 554.796021 977.859985 553.903015 979.177002 552.611023 980.221985 C 546.979004 984.773987 532.469971 985.632019 525.366028 984.968018 C 520.054993 984.471985 514.406982 983.263 509.838989 980.424011 C 500.192993 974.429016 477.563995 944.880005 470.552002 935.155029 C 466.221008 929.148987 462.251007 922.35498 457.423004 916.763977 C 456.201996 915.349976 455.364014 914.469971 453.421997 914.48999 C 449.457001 914.528992 445.25 915.364014 441.287994 915.809021 C 432.381337 916.837016 423.465668 917.78068 414.540985 918.640015 C 393.645996 920.557983 373.368011 920.406006 352.446991 919.41803 C 351.14801 917.69397 349.576996 915.851013 348.677002 913.88501 C 344.75 905.315002 342.098999 885.625977 340.643005 875.64502 C 328.144989 789.914001 337.096985 695.783997 360.140015 612.512024 C 365.112671 594.574687 370.662669 576.817688 376.790009 559.241028 C 379.152008 552.455994 392.338013 519.705994 392.588989 516.018982 C 391.355011 514.862 389.725006 514.56897 388.143005 514.104004 C 387.875 503.103027 390.466003 493.057007 393.463989 482.588013 C 389.260986 483.52301 385.260986 485.290039 381.261993 486.849976 C 369.417999 491.471008 356.209015 497.898987 343.524994 499.343018 C 340.132996 499.72998 339.084991 499.369995 336.393005 497.231995 C 341.570007 481.407959 348.015015 466.296997 354.161011 450.848999 C 339.208008 454.942017 324.44101 461.617004 310.139008 467.598022 C 305.645996 469.47699 301.145996 472.067993 296.524994 473.531982 C 294.893005 474.049011 293.572998 474.286011 291.895996 473.93103 C 291.304993 473.286987 291.087006 473.174011 290.851013 472.281982 C 289.910004 468.721008 291.002991 463.886963 291.466003 460.219971 C 293.928009 440.728027 298.497009 421.200989 308.134003 403.942993 C 303.408997 405.328979 255.279007 418.744995 254.029999 418.341003 C 253.475006 418.160034 253.001007 417.787964 252.485992 417.511963 C 251.882996 416.697998 251.600998 416.184998 251.432007 415.157959 C 250.916 412.011963 252.656006 407.718018 253.591003 404.77301 C 260.127014 384.182983 271.552002 366.651978 284.816986 349.832031 C 276.839996 350.709961 236.089005 359.757996 232.345993 358.635986 C 231.906006 358.504028 231.541 358.196045 231.138 357.97699 C 230.602997 357.125977 230.343994 356.639038 230.309998 355.603027 C 230.214996 352.678955 232.645996 348.405029 233.856003 345.684998 C 246.199997 317.928955 269.520996 291.981995 290.286987 270.171997 C 274.028992 271.778992 257.794006 274.362 241.608994 276.547974 C 239.520004 276.829956 234.192993 277.822021 232.572998 276.593994 C 231.927002 275.119019 231.998993 274.187988 232.531998 272.721008 C 234.503006 267.289001 239.550003 261.756958 243.242996 257.337036 C 263.062988 233.617981 288.003998 211.797974 315.692993 197.760986 C 310.738007 197.516968 305.747986 196.356995 300.826996 195.69397 C 292.041992 194.509033 271.036987 193.417969 264.075012 189.539001 C 263.786987 188.38501 263.574005 187.848022 264.197998 186.718994 C 265.786987 183.844971 270.848999 181.421997 273.578003 179.390015 C 300.393005 159.419983 337.839996 144.026978 370.496002 136.875 C 365.18399 134.525024 360.190002 131.242981 355.088013 128.447021 C 347.740997 124.421021 333.669006 118.207031 327.959015 112.799011 C 328.084991 111.942017 327.987 111.713989 328.600006 111.038025 C 331.233002 108.132019 339.122986 107.030029 342.845001 106.046021 C 348.917674 104.416016 355.031342 102.95634 361.186005 101.666992 C 367.339996 100.37854 373.52533 99.262716 379.742004 98.319519 C 385.958659 97.376322 392.196991 96.60734 398.457001 96.012573 C 404.716339 95.417847 410.987671 94.998291 417.270996 94.753906 C 425.812012 94.456604 434.377014 94.873291 442.923004 94.848633 C 436.953003 87.576721 429.496002 80.88269 422.936005 74.1073 C 420.315002 71.400574 417.342987 68.664795 415.203003 65.553223 C 414.468994 64.486572 413.971008 63.901489 414.259003 62.58429 C 414.42099 62.484192 414.572998 62.367126 414.743988 62.283997 C 418.398987 60.507202 425.920013 61.490112 430.076996 61.490417 C 454.118988 61.492188 479.325989 65.222107 502.225006 72.615784 C 513.377991 76.217407 524.427979 81.02832 535.39502 85.203308 Z"/>
    <path id="path5" fill="#3c1a17" stroke="none" d="M 735.018005 269.002991 C 733.947021 268.879028 733.385986 268.817993 732.536987 268.129028 C 731.932007 266.630005 731.742981 266.468018 732.13501 264.927979 C 733.492004 263.515015 733.810974 263.750977 735.698975 263.613037 L 735.018005 269.002991 Z"/>
    <path id="path6" fill="#fefefd" stroke="none" d="M 528.344971 476.403015 C 532.817017 478.77301 536.609009 481.338013 540.343994 484.764038 C 540.185974 484.838013 540.030029 484.919006 539.869019 484.985962 C 539.14801 485.285034 538.523987 485.348022 537.757996 485.427979 L 537.320007 486.632996 C 534.098999 483.370972 531.03302 480.125977 528.344971 476.403015 Z"/>
    <path id="path7" fill="#7f6d6b" stroke="none" d="M 629.046997 657.120972 C 630.536011 656.804993 631.002991 656.495972 631.888977 655.232971 C 633.463989 652.987 634.338989 650.184021 636.565979 648.484985 C 638.05603 648.203003 638.267029 648.34198 639.692017 648.919983 C 639.966003 650.450989 634.070007 658.159973 632.862 659.978027 C 631.676025 658.908997 630.354004 658.03302 629.046997 657.120972 Z"/>
    <path id="path8" fill="#918179" stroke="none" d="M 629.046997 657.120972 C 630.354004 658.03302 631.676025 658.908997 632.862 659.978027 C 631.224019 662.66333 629.636353 665.377991 628.098999 668.122009 C 627.322021 667.932007 626.411987 667.781006 625.68103 667.466003 C 625.036011 667.187012 624.507019 666.982971 624.356018 666.27002 C 623.763 663.453003 627.492004 659.317993 629.046997 657.120972 Z"/>
    <path id="path9" fill="#918179" stroke="none" d="M 720.288025 269.724976 C 716.825989 270.483032 713.979004 271.458008 710.679016 272.662964 C 708.450012 273.47699 704.77002 274.562988 702.495972 273.537964 L 702.643982 272.747009 C 706.284973 269.869995 713.447021 267.032959 718.01001 266.93396 C 719.478027 267.466003 719.934998 268.22699 720.765991 269.458008 L 720.288025 269.724976 Z"/>
    <path id="path10" fill="#3c1a17" stroke="none" d="M 619.372986 496.178955 L 619.648987 495.562988 C 622.627014 497.764038 625.291992 500.356995 628.182007 502.670044 L 628.349976 502.410034 C 629.247009 502.928955 629.361023 503.131958 629.895996 504.033997 C 631.689026 515.518005 633.463013 526.898987 634.622009 538.465027 C 636.690002 539.183004 638.769002 539.867004 640.859009 540.517029 C 640.797974 540.958008 640.880981 540.677979 640.325012 541.210022 C 638.422974 540.911987 636.591003 540.119995 634.846985 539.333008 C 634.062012 538.440002 633.672974 537.664978 633.413025 536.518005 C 632.241028 531.34198 632.541992 525.517029 631.908997 520.216003 C 631.56897 517.377014 630.234985 515.281006 630.302002 512.401001 C 630.307007 512.208008 630.317017 512.015015 630.323975 511.822021 L 629.28302 511.662964 L 628.73999 512.525024 C 628.679016 513.596985 628.606018 514.544983 628.890015 515.59198 C 629.781006 518.890015 631.815002 534.533997 631.38501 537.515015 L 630.898987 537.086975 C 628.758972 525.51001 629.547974 512.71698 625.731018 501.592041 C 623.421997 499.934998 621.137024 498.442993 619.372986 496.178955 Z"/>
    <path id="path11" fill="#f2e8c2" stroke="none" d="M 605.202026 655.250977 C 608.984985 655.343994 612.728027 655.622009 616.497986 655.947021 C 616.403015 659.60199 616.796997 663.15802 617.187988 666.786987 C 615.526978 666.979004 614.130005 667.166992 612.539001 666.468994 C 608.374023 664.640015 606.58197 659.213013 605.202026 655.250977 Z"/>
    <path id="path12" fill="#fefefd" stroke="none" d="M 819.146973 288.018005 C 820.77301 288.004028 822.356018 288.009033 823.922974 288.499023 C 825.797974 289.085999 828.192017 290.838989 828.888 292.742004 C 829.304016 293.877991 829.359985 295.049011 828.723999 296.127991 C 827.642029 297.960999 825.539978 298.458008 823.64502 298.974976 C 822.890991 298.963989 822.13501 298.950989 821.382996 298.890015 C 819.27002 298.721008 816.307007 297.80603 815.046997 295.937988 C 814.289978 294.813965 813.995972 293.68396 814.343994 292.343994 C 814.942017 290.036987 817.249023 289.087036 819.146973 288.018005 Z"/>
    <path id="path13" fill="#918179" stroke="none" d="M 703.169006 928.411987 L 703.870972 928.541016 C 704.794006 929.460999 715.695984 953.901001 715.921021 955.935974 L 715.143005 956.127991 L 713.508972 954.830017 C 706.508972 948.13501 701.395996 939.632996 696.830994 931.172974 C 698.98999 930.351013 701.070984 929.375 703.169006 928.411987 Z"/>
    <path id="path14" fill="#7f6d6b" stroke="none" d="M 737.322998 211.328003 C 748.142029 214.848999 756.289978 227.421021 761.156982 237.070007 C 769.382019 253.374023 772.02301 269.903992 771.533997 287.971008 L 771.112 288.296021 C 769.768005 286.303955 770.197998 279.606995 770.044983 277.071045 C 769.028992 260.218018 764.034973 245.139038 754.94397 230.910034 C 752.776001 227.516968 750.380005 223.752991 747.557983 220.858032 C 744.705017 217.93103 741.054993 216.312012 737.987976 213.757996 C 739.702026 213.747009 741.078979 214.505981 742.596008 215.203979 C 740.632019 214.119995 739.012024 212.792969 737.322998 211.328003 Z"/>
    <path id="path15" fill="#918179" stroke="none" d="M 534.059021 942.01001 L 534.729004 942.559998 C 537.343018 950.278015 539.755981 958.142029 542.859009 965.677979 C 543.663025 967.632019 546.109985 971.211975 545.991028 973.197998 L 545.245972 973.517029 C 543.508972 972.911011 542.403015 971.736023 541.072998 970.504028 C 533.789001 963.10199 529.34198 954.877991 524.760986 945.682007 C 528.044983 944.68103 530.984985 943.544983 534.059021 942.01001 Z"/>
    <path id="path16" fill="#f2e8c2" stroke="none" d="M 619.914978 694.330994 C 620.525024 694.427002 621.005981 694.643982 621.575012 694.875 C 624.122986 699.765015 626.653992 714.245972 627.982971 720.202026 C 626.059998 719.853027 624.195984 719.366028 622.307007 718.861023 C 619.01001 717.114014 616.327026 715.085999 614.518982 711.742981 C 612.758972 708.487976 612.11499 704.478027 613.320984 700.924988 C 614.510986 697.421021 616.773987 695.992981 619.914978 694.330994 Z"/>
    <path id="path17" fill="#918179" stroke="none" d="M 928.859985 495.906982 C 929.054993 496.087036 929.653015 496.660034 929.866028 496.768005 C 930.159973 496.916992 930.492004 496.974976 930.804993 497.078979 C 929.882019 500.05896 926.703003 503.688965 925.02002 506.421021 C 920.069987 514.535685 915.179321 522.685669 910.348022 530.870972 C 905.453003 539.280029 901.357971 548.036987 897.223022 556.836975 C 896.106018 557.077026 896.25 557.284973 895.213989 556.622986 C 895.189026 556.432983 895.14502 556.244019 895.140015 556.052979 C 894.893005 546.786987 917.666992 509.557007 923.83197 501.216003 C 925.271973 499.266968 927.106995 497.571045 928.859985 495.906982 Z"/>
    <path id="path18" fill="#f2e8c2" stroke="none" d="M 632.622986 747.336975 L 634.190979 747.679016 C 635.000977 749.836975 638.682007 768.075989 638.216003 769.643005 C 637.974976 770.453979 637.732971 771.05603 636.982971 771.47699 C 635.216003 772.46698 633.057007 772.007996 631.177979 771.622986 C 627.903992 770.216003 625.583008 768.549988 624.007996 765.237 C 622.518005 762.099976 622.434021 758.239014 623.771973 755.034973 C 625.564026 750.745972 628.622009 749.116028 632.622986 747.336975 Z"/>
    <path id="path19" fill="#d4c6af" stroke="none" d="M 637.405029 809.572998 C 638.979004 808.004028 642.065979 807.533997 644.221008 807.546021 C 644.905029 807.549988 646.116028 807.638977 646.573975 808.171997 C 648.327026 810.211975 652.429016 831.700989 652.057983 834.924988 C 652.034973 835.130005 651.982971 835.330017 651.945007 835.53302 C 649.304993 835.984009 646.122009 833.458008 643.987 831.955017 C 639.322998 828.671997 636.021973 823.768005 635.041992 818.156982 C 634.830994 814.630981 635.656006 812.614014 637.405029 809.572998 Z"/>
    <path id="path20" fill="#f2e8c2" stroke="none" d="M 637.405029 809.572998 C 638.322998 810.651978 638.468018 811.221985 638.353027 812.65802 C 638.231995 814.177002 637.344971 816.481995 636.14801 817.452026 C 635.784973 817.744995 635.453979 817.914001 635.041992 818.156982 C 634.830994 814.630981 635.656006 812.614014 637.405029 809.572998 Z"/>
    <path id="path21" fill="#918179" stroke="none" d="M 720.765991 269.458008 C 721.887024 269.125 721.91803 269.247986 722.747986 268.307007 C 721.494019 265.06604 718.617004 262.567017 717.140991 259.338989 C 712.010986 248.117004 708.354004 233.546021 713.166016 221.570984 C 714.999023 217.009033 718.111023 213.169006 722.737 211.263 C 727.619019 209.252014 732.479004 209.414001 737.322998 211.328003 C 739.012024 212.792969 740.632019 214.119995 742.596008 215.203979 C 741.078979 214.505981 739.702026 213.747009 737.987976 213.757996 C 733.84198 212.299011 728.905029 210.844971 724.69397 212.910034 C 720.651978 214.891968 718.106995 219.160034 716.773987 223.302002 C 713.049011 234.872009 716.861023 253.278015 722.588013 263.822021 C 727.067993 272.070007 737.629028 280.599976 746.077026 284.38501 C 747.169006 284.874023 748.228027 285.47699 749.29303 286.023987 L 749.469971 286.656982 C 748.302002 287.22998 747.760986 287.200012 746.510986 286.791016 C 739.869995 284.61499 733.166992 279.862 727.984985 275.264038 C 726.343994 273.807983 724.731995 271.846985 722.955017 270.604004 C 722.073975 269.988037 721.333008 269.822998 720.288025 269.724976 L 720.765991 269.458008 Z"/>
    <path id="path22" fill="#fefefd" stroke="none" d="M 657.984009 490.302002 L 658.533997 490.613037 C 659.909973 493.197998 660.577026 496.312988 661.263977 499.14801 C 663.71698 509.270996 664.171021 515.747986 658.536987 524.767029 C 657.606995 526.255005 656.594971 527.940002 654.815979 528.35498 L 654.005005 526.380005 C 652.182983 515.197021 649.674988 504.52002 645.979004 493.796997 C 647.721008 495.023987 649.804016 496.60199 652.08197 496.165039 C 655.120972 495.580994 656.518005 492.710999 657.984009 490.302002 Z"/>
    <path id="path23" fill="#918179" stroke="none" d="M 630.453003 474.182007 C 633.966003 475.687012 642.755981 487.406006 644.651001 491.14502 C 644.33197 491.171997 644.008972 491.169006 643.69397 491.226013 C 641.083984 491.698975 638.645996 497.757996 637.289978 499.915039 C 636.583008 501.040039 636.036011 502.447998 634.711975 502.747009 C 628.755005 499.110962 623.265015 494.070007 617.870972 489.64801 C 621.975667 484.420024 626.169678 479.264689 630.453003 474.182007 Z"/>
    <path id="path24" fill="#918179" stroke="none" d="M 670.778992 479.178955 C 675.521973 481.915039 682.278015 487.23999 684.812988 492.131958 C 687.190002 496.719971 692.653015 524.757019 693.137024 530.747009 C 693.241028 532.030029 693.098999 532.927002 692.734985 534.14801 C 692.304016 534.276001 692.627991 534.216003 691.786987 533.869019 C 684.909973 520.927979 671.242004 493.260986 670.778992 479.178955 Z"/>
    <path id="path25" fill="#918179" stroke="none" d="M 668.302002 148.700012 C 670.866028 148.411987 673.61499 148.484009 676.203003 148.386963 C 680.820007 157.497009 682.611023 173.815979 683.051025 183.984009 L 676.810974 175.891968 C 670.353027 167.245972 662.171021 156.511963 653.336975 150.250977 C 658.30603 149.485962 663.294006 149.104004 668.302002 148.700012 Z"/>
    <path id="path26" fill="#fefefd" stroke="none" d="M 884.721008 589.900024 L 885.229004 590.551025 C 886.370972 597.486023 885.335999 603.86499 882.713013 610.348022 C 876.754028 625.075989 864.218018 635.80603 849.80603 641.932983 L 849.351013 641.538025 L 868.065979 613.773987 C 873.424988 605.728027 878.646973 597.43103 884.721008 589.900024 Z"/>
    <path id="path27" fill="#fefefd" stroke="none" d="M 661.085999 460.384033 L 662.453003 460.478027 C 664.992981 462.625 666.025024 468.900024 666.942993 472.112 C 662.698975 479.523987 656.914001 486.696045 651.528992 493.334961 C 650.039978 491.051025 648.482971 488.915039 646.763 486.799988 C 642.679016 482.115336 638.705343 477.339335 634.84198 472.471985 C 643.992004 468.929993 652.437988 465.015015 661.085999 460.384033 Z"/>
    <linearGradient id="linearGradient1" x1="527.37164" y1="358.00458" x2="520.41656" y2="344.58685" gradientUnits="userSpaceOnUse">
        <stop offset="1e-05" stop-color="#928182" stop-opacity="1"/>
        <stop offset="1" stop-color="#a3958c" stop-opacity="1"/>
    </linearGradient>
    <path id="path28" fill="url(#linearGradient1)" stroke="none" d="M 592.914001 306.040039 C 593.648987 306.927002 593.734985 308.39801 593.822021 309.493042 C 591.984009 312.764038 564.489014 326.294006 558.671021 329.851013 C 545.408997 337.958984 532.093994 346.169006 519.158997 354.787964 C 497.75 369.053955 476.562988 383.995972 454.466003 397.18103 C 454.127991 397.02301 453.876007 396.724976 453.591003 396.484009 C 456.157013 390.695007 521.28302 348.957031 531.284973 342.660034 C 542.578003 335.549011 554.161987 328.743042 565.596985 321.851013 C 574.616028 316.414001 584.112976 311.832031 592.914001 306.040039 Z"/>
    <path id="path29" fill="#918179" stroke="none" d="M 644.247986 495.375 C 645.34198 502.356995 647.442017 509.113037 648.630981 516.067993 C 649.611023 521.799988 649.601013 528.018005 651.28302 533.572021 C 648.797974 536.04303 646.104004 539.380005 642.54303 540.117004 C 641.978027 540.234009 641.421021 540.385986 640.859009 540.517029 C 638.769002 539.867004 636.690002 539.183004 634.622009 538.465027 C 633.463013 526.898987 631.689026 515.518005 629.895996 504.033997 C 632.343018 505.533997 634.518982 507.26001 636.887024 508.846985 C 639.156006 504.18396 641.312012 499.667969 644.247986 495.375 Z"/>
    <path id="path30" fill="#918179" stroke="none" d="M 691.317017 932.5 L 691.80603 932.551025 C 692.622986 933.278015 692.482971 932.968018 692.822021 933.830017 C 696.216003 942.458008 702.049988 952.775024 709.562012 958.346008 C 701.549011 959.960999 693.39502 959.768982 686.034973 955.97699 C 677.455994 951.166016 670.81897 942.94397 664.015991 935.96698 C 673.562988 936.135986 682.182007 935.406006 691.317017 932.5 Z"/>
    <path id="path31" fill="#918179" stroke="none" d="M 618.08197 71.938721 C 626.981995 75.633423 649.328979 100.606018 653.398987 109.51001 L 652.531982 109.906982 C 644.541992 109.910034 636.789978 110.367004 628.898987 111.690002 C 627.75 107.948975 625.125977 105.012024 624.010986 101.276978 C 622.838013 97.348999 623.216003 92.715332 622.607971 88.641785 C 621.77301 83.051514 619.739014 77.337402 618.08197 71.938721 Z"/>
    <path id="path32" fill="#f2e8c2" stroke="none" d="M 558.468994 77.970703 C 560.945007 77.687012 563.242981 77.901001 565.661011 78.524414 C 583.028992 83.003174 597.825012 100.211975 606.565979 115.150024 C 603.424011 115.904012 600.271688 116.610677 597.109009 117.27002 C 591.411987 107.554993 583.565002 99.086914 575.471985 91.347168 C 573.940979 89.923401 572.53302 88.620422 570.716003 87.560303 L 570.583984 87.891724 C 579.403015 97.281311 586.612976 106.132996 593.320984 117.156982 L 592.98999 117.778015 L 591.487976 118.176025 C 589.913025 117.583008 589.296021 116.207031 588.375977 114.817993 C 582.674988 106.213013 559.921021 86.948303 557.888977 80.935181 C 557.40802 79.514221 557.799011 79.214966 558.468994 77.970703 Z"/>
    <path id="path33" fill="#918179" stroke="none" d="M 517.304016 947.234985 C 517.619995 947.164001 517.927979 947.039978 518.250977 947.020996 C 519.755005 946.93103 520.046997 948.604004 520.59198 949.710022 C 525.721008 960.107971 530.346985 969.276001 539.320007 976.919006 C 531.69397 977.596008 524.333008 977.526001 517.26001 974.286987 C 507.343994 968.414978 498.821014 957.132996 492.234009 947.83197 C 500.846008 948.651001 508.731995 948.187012 517.304016 947.234985 Z"/>
    <path id="path34" fill="#918179" stroke="none" d="M 600.869019 156.406982 C 606.364014 155.309998 639.750977 150.898987 643.684998 151.619995 C 646.778015 156.270996 657.478027 167.11499 656.45697 172.427002 C 655.814026 175.766968 653.094971 177.239014 650.427002 178.910034 C 650.041016 179.151978 649.648987 179.38501 649.257019 179.617981 C 631.380981 175.666016 617.958008 162.14801 600.869019 156.406982 Z"/>
    <path id="path35" fill="#f2e8c2" stroke="none" d="M 442.131989 119.656006 C 442.701996 119.640991 443.272003 119.619995 443.84201 119.641968 C 463.973999 120.398987 486.388 133.01001 499.743988 147.599976 C 496.789001 149.099976 493.644989 150.346985 490.612 151.692993 C 480.266998 143.400024 468.523987 136.463989 456.841003 130.25 C 456.20401 130.026001 455.513 129.89801 454.855988 129.739014 C 455.06601 130.81897 456.264008 131.535034 457.117004 132.184021 C 461.028015 135.158997 465.332001 137.733032 469.358002 140.567017 C 475.290985 144.742981 480.984985 149.205994 486.675995 153.703979 C 484.463013 154.856018 482.072998 155.744019 479.773987 156.714966 C 476.93399 153.309998 473.144989 151.098022 469.516998 148.630005 C 460.075012 142.208984 446.265991 134.299988 439.674988 125.080017 C 438.713013 123.734985 438.192993 122.719971 438.487 121.018005 C 439.709991 119.854004 440.496002 119.940979 442.131989 119.656006 Z"/>
    <path id="path36" fill="#f2e8c2" stroke="none" d="M 362.347992 287.213013 C 351.580994 292.348999 328.638 299.252014 316.980011 295.843018 C 315.373993 295.374023 314.872986 294.708008 314.152008 293.255981 C 314.115997 291.143005 314.588989 289.872986 316.022003 288.304993 C 327.192993 276.079956 357.68399 269.171021 374.02301 268.214966 C 372.36499 270.644043 369.171997 276.592041 366.528015 277.665039 C 366.247009 278.992004 365.959015 280.213989 365.445007 281.478027 C 364.890991 283.546997 363.480011 285.410034 362.347992 287.213013 Z"/>
    <path id="path37" fill="#301310" stroke="none" d="M 321.869995 290.377991 C 336.002991 284.466003 351.662994 281.263 366.528015 277.665039 C 366.247009 278.992004 365.959015 280.213989 365.445007 281.478027 C 353.419006 284.745972 334.049011 289.442993 321.869995 290.377991 Z"/>
    <path id="path38" fill="#918179" stroke="none" d="M 588.432983 158.593018 C 590.377991 158.832031 597.651001 165.514038 599.304016 167.208984 C 602.44397 170.429993 609.487976 177.268005 609.455017 181.984985 C 609.03302 182.764038 608.919006 183.22699 608.15802 183.731995 C 601.95697 187.85498 574.241028 181.06897 566.348999 179.214966 C 557.070007 177.370972 547.846985 175.61499 538.416016 174.76001 C 553.463989 167.549011 572.294983 163.208008 588.432983 158.593018 Z"/>
    <linearGradient id="linearGradient2" x1="384.08029" y1="198.21622" x2="372.3692" y2="233.4357" gradientUnits="userSpaceOnUse">
        <stop offset="1e-05" stop-color="#eedba8" stop-opacity="1"/>
        <stop offset="1" stop-color="#f8f9e7" stop-opacity="1"/>
    </linearGradient>
    <path id="path39" fill="url(#linearGradient2)" stroke="none" d="M 399.585999 224.358032 C 390.915009 226.651001 381.437988 227.468994 372.493988 228.030029 C 367.153992 228.364014 348.604004 228.557007 344.833008 224.747986 C 344.247009 224.156006 344.414001 223.812012 344.378998 223.039978 C 344.795013 222.307007 345.182007 221.684998 345.816986 221.117981 C 348.341003 218.867004 352.031006 217.235962 355.058014 215.781982 C 373.756989 206.796997 394.394989 205.416992 414.787994 207.177002 C 412.365997 210.106995 410.002991 213.14801 407.31601 215.838989 L 406.566986 215.580017 C 406.050995 216.679993 405.588013 217.802002 404.848999 218.773987 C 404.048004 220.752991 401.166992 222.843018 399.585999 224.358032 Z"/>
    <path id="path40" fill="#190807" stroke="none" d="M 367.954987 220.661011 C 364.877991 220.640991 362.05899 220.705994 359.095001 219.799011 L 359.148987 219.281982 C 361.561005 218.557983 364.078003 218.563965 366.57901 218.434021 L 367.954987 220.661011 Z"/>
    <path id="path41" fill="#190807" stroke="none" d="M 387.35199 216.890991 C 392.190002 215.705994 401.075012 216.088013 406.566986 215.580017 C 406.050995 216.679993 405.588013 217.802002 404.848999 218.773987 C 399.277008 219.242004 393.694 219.53302 388.147003 220.14502 C 387.872986 220.174988 387.596008 220.161987 387.320007 220.171021 C 386.869995 218.875 387.119995 218.224976 387.35199 216.890991 Z"/>
    <path id="path42" fill="#301310" stroke="none" d="M 366.57901 218.434021 C 373.495005 217.807353 380.419332 217.293009 387.35199 216.890991 C 387.119995 218.224976 386.869995 218.875 387.320007 220.171021 C 380.932007 220.393005 374.332001 220.958984 367.954987 220.661011 L 366.57901 218.434021 Z"/>
    <path id="path43" fill="#f2e8c2" stroke="none" d="M 489.290985 93.432312 C 496.166992 93.008301 503.794006 95.171204 510.265991 97.30127 C 524.018005 101.827026 535.499023 108.35498 546.486023 117.729004 C 549.869019 120.61499 553.200012 123.405029 555.237976 127.432983 C 551.682983 128.492004 548.179016 129.886963 544.684998 131.140015 C 538.711975 121.083984 526.674011 114.036011 516.926025 107.955994 C 514.669006 106.601013 512.171997 105.721985 509.731995 104.750977 C 520.301025 113.463989 532.65802 122.013977 541.413025 132.502014 C 537.700989 133.817017 533.817017 134.687988 530.002991 135.656982 C 526.085022 131.848999 522.232971 127.942993 518.182007 124.276001 C 510.281006 117.125 492.157013 103.604004 489.290985 93.432312 Z"/>
    <path id="path44" fill="#918179" stroke="none" d="M 717.15802 508.359985 C 732.075012 511.535034 746.492004 516.106995 761.080017 520.505005 C 790.367004 529.335022 819.267029 539.124023 848.372986 548.513977 C 864.89801 553.844971 881.359009 560.351013 898.497009 563.406006 C 897.096008 564.429016 895.619019 565.366028 894.177979 566.333008 C 886.098022 565.653992 878.026001 562.685974 870.29303 560.351013 C 850.528015 554.383972 831.151001 547.406006 811.732971 540.406006 C 781.572998 530.703003 751.583008 520.27002 720.580994 513.508972 C 714.070984 522.742981 679.112976 579.117981 675.25 581.241028 C 674.114014 581.866028 673.924011 581.922974 672.721008 581.523987 C 671.19397 573.73999 711.286987 520.280029 716.838989 509.015991 L 717.15802 508.359985 Z"/>
    <path id="path45" fill="#fefefd" stroke="none" d="M 546.85199 485.807007 C 555.077026 489.5 562.838989 494.212036 571.05603 497.962036 C 581.096008 502.544006 591.372986 505.89502 601.661987 509.790039 C 607.122986 505.078979 611.343018 498.759033 615.690002 493.049011 L 619.372986 496.178955 C 621.137024 498.442993 623.421997 499.934998 625.731018 501.592041 C 629.547974 512.71698 628.758972 525.51001 630.898987 537.086975 C 625.150024 534.633972 619.104004 533.025024 613.375977 530.388 C 588.794006 519.072021 567.635986 502.88501 546.85199 485.807007 Z"/>
    <path id="path46" fill="#f2e8c2" stroke="none" d="M 382.404999 168.169006 C 384.006989 166.921997 385.821014 165.865967 387.571991 164.843994 C 400.312988 157.403992 415.821014 156.254028 430.244995 156.507996 C 434.303986 156.578979 439.104004 156.518982 442.957001 157.969971 C 443.231995 158.072998 443.47699 158.242004 443.737 158.377991 C 444.455994 158.000977 444.121002 158.135986 444.980988 157.874023 C 445.195007 157.809021 445.411011 157.747986 445.626007 157.684998 C 445.186005 158.570984 445.036011 158.86499 445.009003 159.884033 L 443.557007 159.916992 C 443.631012 160.572998 443.484009 160.30603 443.998993 160.719971 C 445.395996 160.900024 448.471008 160.39801 449.360992 160.98999 C 450.208008 161.552979 451.083008 161.572021 452.066986 161.705994 L 451.149994 162.234985 C 455.490997 163.547974 460.013 164.585022 464.475006 165.39801 C 461.528015 167.455994 456.588013 171.734985 452.899994 171.513 C 452.208008 171.471985 451.515015 171.09198 450.846985 170.97699 C 450.514008 170.919006 450.17099 170.940002 449.833008 170.921997 C 450.75 171.960999 450.93399 172.14801 451.188995 173.494019 C 449.306 175.354004 446.856995 174.773987 444.416992 175.02301 C 446.023987 175.297974 447.665985 175.514038 449.259003 175.854004 C 446.911011 177.177979 444.415985 178.419983 442.230988 179.997009 C 424.34201 181.51001 407.886993 181.130005 390.337006 176.893982 C 389.885986 177.372986 390.200989 177.119019 389.256989 177.450989 C 387.415009 176.848022 385.468994 176.304993 383.932007 175.075989 C 382.777008 174.151978 382.072998 173.271973 381.934998 171.750977 C 382.867004 169.768982 384.756012 168.386963 386.354004 166.934998 C 384.738007 167.177979 384.079987 167.978027 382.816986 168.984009 L 382.404999 168.169006 Z"/>
    <path id="path47" fill="#301310" stroke="none" d="M 444.416992 175.02301 C 439.201996 174.655029 402.061005 174.141968 400.29599 172.841003 C 409.321014 168.283997 438.842987 170.849976 449.833008 170.921997 C 450.75 171.960999 450.93399 172.14801 451.188995 173.494019 C 449.306 175.354004 446.856995 174.773987 444.416992 175.02301 Z"/>
    <path id="path48" fill="#301310" stroke="none" d="M 382.404999 168.169006 C 384.006989 166.921997 385.821014 165.865967 387.571991 164.843994 C 400.312988 157.403992 415.821014 156.254028 430.244995 156.507996 C 434.303986 156.578979 439.104004 156.518982 442.957001 157.969971 C 443.231995 158.072998 443.47699 158.242004 443.737 158.377991 C 444.455994 158.000977 444.121002 158.135986 444.980988 157.874023 C 445.195007 157.809021 445.411011 157.747986 445.626007 157.684998 C 445.186005 158.570984 445.036011 158.86499 445.009003 159.884033 L 443.557007 159.916992 C 443.631012 160.572998 443.484009 160.30603 443.998993 160.719971 C 445.395996 160.900024 448.471008 160.39801 449.360992 160.98999 C 450.208008 161.552979 451.083008 161.572021 452.066986 161.705994 L 451.149994 162.234985 C 430.319 159.041016 404.165985 155.813965 385.815002 168.733032 C 384.42099 169.713989 383.476013 170.552979 382.822998 172.135986 C 383.231995 173.453003 383.661987 173.870972 384.881989 174.551025 C 386.575989 175.494995 388.528015 176.184021 390.337006 176.893982 C 389.885986 177.372986 390.200989 177.119019 389.256989 177.450989 C 387.415009 176.848022 385.468994 176.304993 383.932007 175.075989 C 382.777008 174.151978 382.072998 173.271973 381.934998 171.750977 C 382.867004 169.768982 384.756012 168.386963 386.354004 166.934998 C 384.738007 167.177979 384.079987 167.978027 382.816986 168.984009 L 382.404999 168.169006 Z"/>
    <path id="path49" fill="#fefefd" stroke="none" d="M 726.171021 216.311035 C 734.085022 216.502991 739.718994 218.761963 745.281982 224.541016 C 761.388 241.27301 767.375 265.695007 768.164978 288.266968 C 761.296021 286.662964 739.08197 277.718018 735.744019 271.813965 C 735.265015 270.968018 735.159973 269.94397 735.018005 269.002991 L 735.698975 263.613037 C 735.98999 263.703979 736.283997 263.786011 736.572998 263.884033 C 741.577026 265.584961 742.028992 274.325989 746.323975 271.744995 C 747.73999 270.89502 748.515015 269.614014 748.765991 268.013 C 749.85498 261.077026 741.458008 248.200012 737.591003 242.625977 C 737.932983 244.72998 738.237976 246.927002 738.86499 248.966003 C 739.708008 251.708008 745.249023 262.411011 744.674988 264.401978 C 743.755005 264.046997 743.083008 263.643005 742.315002 263.049011 C 739.393982 260.791016 736.448975 258.874023 732.54303 259.386963 C 729.846008 259.740967 728.607971 261.098999 726.963989 263.138 C 721.632019 252.625977 716.335022 237.007019 720.107971 225.203979 C 721.270996 221.565979 723.357971 218.839966 726.171021 216.311035 Z"/>
    <path id="path50" fill="#fefefd" stroke="none" d="M 523.679016 899.531006 C 524.447021 899.356018 524.002014 899.364014 524.995972 899.752014 C 527.788025 911.903015 529.374023 923.955017 532.866028 936.02002 C 518.978027 943.583984 501.735992 942.76001 486.527008 941.434021 C 485.026337 939.507996 483.510671 937.593648 481.980011 935.690979 C 476.778992 928.73999 468.321014 919.950012 464.330994 912.664001 C 474.464996 910.617004 484.729004 909.171997 494.852997 907.083984 C 504.527008 905.088013 514.237976 902.413025 523.679016 899.531006 Z"/>
    <linearGradient id="linearGradient3" x1="729.01245" y1="708.13629" x2="788.83142" y2="861.89569" gradientUnits="userSpaceOnUse">
        <stop offset="1e-05" stop-color="#897c77" stop-opacity="1"/>
        <stop offset="1" stop-color="#9d9288" stop-opacity="1"/>
    </linearGradient>
    <path id="path51" fill="url(#linearGradient3)" stroke="none" d="M 742.599976 701.219971 C 745.612 702.362 748.577026 703.554016 751.732971 704.241028 C 758.455994 715.348999 763.098999 739.547974 766.406006 752.979004 C 774.424988 785.549011 783.208008 818.557983 787.072021 851.916992 C 784.107971 855.883972 780.468018 859.429993 777.083008 863.041992 C 773.901978 866.369995 770.427002 869.463013 767.080017 872.625 C 766.98999 858.546997 767.203003 844.577026 766.132019 830.517029 C 765.20697 818.374023 763.224976 806.403015 761.885986 794.317017 C 759.935974 776.705994 758.010986 759.317993 754.117004 741.991028 C 751.015015 728.184021 746.171997 714.903992 742.599976 701.219971 Z"/>
    <path id="path52" fill="#fefefd" stroke="none" d="M 617.570007 559.552002 C 625.190979 559.169983 632.340027 559.791992 639.830994 561.205017 C 638.051025 562.859009 636.517029 564.557983 635.176025 566.588989 C 621.247986 587.689026 617.283997 623.713013 622.551025 648.077026 L 622.757996 649.013977 C 621.507996 649.643982 619.880981 649.125 618.495972 648.963989 C 613.593994 648.885986 603.768982 647.89502 598.958008 646.869995 C 594.857971 642.320984 594.578003 626.309998 594.661011 620.265991 C 594.948975 599.372009 602.203003 574.392029 617.570007 559.552002 Z"/>
    <path id="path53" fill="#f2e8c2" stroke="none" d="M 540.343994 484.764038 C 546.911987 489.903992 552.97998 495.601013 559.494019 500.787964 C 585.390015 521.413025 610.508972 537.073975 642.877991 545.351013 C 654.289001 537.776001 663.762024 528.408997 666.598022 514.484985 C 667.810974 508.530029 668.04303 502.299011 668.794983 496.266968 C 671.405029 505.552979 675.169006 514.36499 679.090027 523.159973 C 682.026001 529.745972 685.41803 536.48999 687.036987 543.552979 C 683.36499 550.594971 678.598022 557.174011 674.161987 563.755005 C 665.85498 562.362976 657.953003 561.857971 649.585999 561.22998 C 648.307007 560.021973 646.974976 558.684021 645.406006 557.856018 C 639.640991 554.814026 623.208984 552.434021 616.541016 552.745972 C 615.692017 552.786011 614.921021 553.362 614.223999 553.784973 C 609.218994 553.348022 604.419983 551.866028 599.437988 551.35199 C 599.406006 549.609985 599.531982 547.877014 599.632996 546.138 C 599.661987 545.862 599.697998 545.585999 599.718994 545.309021 C 599.911987 542.835999 598.351013 541.138 596.697021 539.538025 C 590.65802 533.697998 582.716003 529.411011 576.146973 524.098022 C 562.064026 512.705994 549.473999 500.033997 537.320007 486.632996 L 537.757996 485.427979 C 538.523987 485.348022 539.14801 485.285034 539.869019 484.985962 C 540.030029 484.919006 540.185974 484.838013 540.343994 484.764038 Z"/>
    <path id="path54" fill="#fefefd" stroke="none" d="M 690.499023 860.593994 C 692.263977 863.351013 692.838013 875.903992 693.280029 879.508972 C 695.054016 893.968018 699.343018 907.53302 702.419983 921.703003 C 690.500977 930.232971 672.630005 930.869019 658.633972 928.948975 C 656.637024 926.47998 654.807007 923.888977 652.953979 921.312012 C 645.414978 910.47998 639.414001 899.299988 632.666992 888.02301 C 641.460022 884.684021 650.203979 881.695984 658.763977 877.755005 C 669.794006 872.676025 679.952026 866.544006 690.499023 860.593994 Z"/>
    <path id="path55" fill="#918179" stroke="none" d="M 453.213989 404.869019 C 453.437012 404.869995 453.661011 404.856995 453.882996 404.870972 C 460.815002 405.317993 495.425995 450.247986 502.071014 458.385986 C 507.884328 465.486654 513.814331 472.488647 519.861023 479.391968 C 530.71698 491.613037 542.767029 502.707031 553.536011 514.982971 C 549.103027 512.702026 544.515991 510.651978 540.033997 508.455994 C 516.42867 495.59731 492.986338 482.448324 469.707001 469.009033 C 462.911672 465.059652 456.157338 461.040975 449.444 456.953003 C 444.970001 454.23999 440.48999 451.171997 435.723999 449.015991 C 436.226013 444.421021 437.316986 439.830994 438.480988 435.365967 C 440.548004 427.438965 445.941986 409.099976 453.213989 404.869019 Z"/>
    <path id="path56" fill="#918179" stroke="none" d="M 862.416016 562.29303 C 871.692993 563.906982 881.138 567.396973 890.174988 570.090027 C 884.408997 578.242004 878.221008 586.104004 872.416992 594.234009 C 861.093018 610.096008 850.117004 626.328979 839.249023 642.515015 C 831.304016 654.348999 823.711975 666.434021 815.887024 678.351013 C 810.156006 687.078003 804.619995 696.875 796.973999 704.033997 C 794.601013 705.843994 792.19397 707.231018 789.570007 708.632996 C 784.416016 705.346008 778.690002 703.447998 772.94397 701.487976 C 773.052002 701.379028 773.161011 701.270996 773.268005 701.161011 L 773.796021 700.60498 C 783.359985 690.666016 795.284973 669.512024 802.810974 657.007019 C 813.500977 639.244995 824.215027 621.43103 835.258972 603.888977 C 844.005981 589.995972 854.796997 576.81897 862.416016 562.29303 Z"/>
    <path id="path57" fill="#fefefd" stroke="none" d="M 472.661987 411.911987 C 477.648987 413.588013 482.98999 417.56897 487.686005 420.135986 C 496.31133 424.814657 505.10966 429.141317 514.080994 433.115967 C 523.228984 437.056641 532.452983 440.810323 541.752991 444.377014 C 551.052999 447.944356 560.421 451.322021 569.856995 454.51001 C 579.293681 457.697998 588.791016 460.693665 598.348999 463.497009 C 607.906982 466.300354 617.51766 468.909342 627.18103 471.323975 C 622.640991 477.619019 617.463989 483.620972 612.700989 489.769043 C 608.837667 495.037679 604.735331 500.112671 600.393982 504.994019 C 589.392029 500.812012 529.096985 474.360962 523.052002 469.182983 C 516.31897 463.416016 509.671997 453.853027 503.80899 446.999023 C 497.45401 439.571045 491.21701 431.981995 484.673004 424.723022 C 480.752991 420.375 476.567993 416.281006 472.661987 411.911987 Z"/>
    <path id="path58" fill="#fefefd" stroke="none" d="M 646.54303 568.041992 C 654.919983 567.627991 663.221985 568.013977 671.562988 568.755981 C 669.374023 575.01001 664.39801 582.429993 664.064026 589.020996 C 665.867981 590.978027 677.700012 588.346985 682.184021 589.184998 C 696.216003 591.807007 708.419983 596.112976 716.713989 608.267029 C 715.399984 608.096334 714.083659 607.948995 712.765015 607.825012 C 705.340027 607.129028 692.659973 606.776978 686.739014 612.414001 C 685.77002 613.335999 685.684998 613.93103 685.635986 615.216003 C 685.890015 615.633972 685.952026 616.268982 686.39801 616.471008 C 687.203979 616.835022 708.255005 612.231018 716.888 615.23999 C 717.054993 615.297974 717.221008 615.359985 717.387024 615.419983 L 717.406982 616.508972 C 716.028015 619.635986 713.601013 622.226013 710.864014 624.241028 C 687.484985 641.455994 656.195984 643.84198 628.387024 639.801025 C 629.127991 634.882019 628.890015 629.69397 629.148987 624.718994 C 629.893005 610.455994 631.414001 597.573975 636.192017 583.995972 C 637.809998 579.39801 639.356995 574.637024 642.127014 570.580994 C 643.530029 568.526001 644.19397 568.463989 646.54303 568.041992 Z"/>
    <path id="path59" fill="#fefefd" stroke="none" d="M 740.598022 793.950012 L 741.218994 794.051025 C 741.14801 795.067993 741.289001 794.812988 740.849976 795.585999 C 736.125977 803.901001 729.937988 811.341003 723.83197 818.658997 C 718.752014 824.745972 713.747009 831.065979 707.973999 836.51001 C 684.687988 858.469971 652.661011 872.942017 622.247009 881.984985 C 613.489014 884.588989 604.086975 886.992981 595.130981 888.757996 C 590.142029 889.741028 535.299988 897.890015 533.653015 897.002014 L 534.096985 896.007996 C 541.367981 893.88501 548.786011 891.94397 555.921997 889.411011 C 571.948975 883.721008 652.52301 852.495972 659.783997 839.778992 C 663.046021 834.067993 658.606995 821.130005 657.228027 815.112976 C 663.400024 815.61499 669.250977 815.112 675.406006 814.560974 C 699.114014 812.442017 719.580994 804.677979 740.598022 793.950012 Z"/>
    <path id="path60" fill="#918179" stroke="none" d="M 646.015015 240.210022 C 657.797974 239.98999 669.104004 244.020996 678.54303 250.97998 C 679.420349 251.624674 680.28068 252.291016 681.124023 252.979004 C 681.967326 253.666992 682.792643 254.375651 683.599976 255.10498 C 684.408 255.835002 685.197001 256.584676 685.96698 257.354004 C 686.736308 258.123332 687.485982 258.911662 688.216003 259.718994 C 688.945984 260.526326 689.655314 261.351318 690.343994 262.19397 C 691.031982 263.037313 691.698649 263.897319 692.343994 264.773987 C 692.988647 265.650655 693.610982 266.542989 694.210999 267.450989 C 694.811015 268.359639 695.387675 269.282633 695.940979 270.219971 C 696.494324 271.156657 697.023661 272.107015 697.528992 273.071045 C 698.034322 274.034993 698.51532 275.011312 698.971985 276 C 699.427999 276.987996 699.858663 277.987 700.263977 278.997009 C 700.669983 280.006978 701.049988 281.026652 701.403992 282.05603 C 701.757996 283.085327 702.085999 284.12264 702.388 285.167969 C 702.690002 286.213989 702.965332 287.266663 703.213989 288.325989 C 703.462646 289.386007 703.684652 290.451335 703.880005 291.521973 C 704.074666 292.592651 704.24233 293.667664 704.382996 294.747009 C 706.205017 307.799988 703.825012 321.474976 695.682983 332.070007 C 686.200012 344.410034 671.427979 348.578003 656.619019 350.440002 C 642.366028 351.062988 626.911011 348.539001 615.750977 338.973999 C 605.145996 329.884033 598.442993 315.343018 597.546021 301.514038 C 596.458984 284.757996 601.179016 268.518005 612.47699 255.884033 C 621.299011 246.016968 632.984985 241.02301 646.015015 240.210022 Z"/>
    <path id="path61" fill="#3d2525" stroke="none" d="M 645.846985 243.216003 C 657.372986 243.002014 668.890991 247.75 677.848999 254.804016 C 678.700317 255.488017 679.533976 256.192668 680.349976 256.917969 C 681.165975 257.643311 681.963643 258.388326 682.742981 259.153015 C 683.522319 259.918355 684.281982 260.702352 685.021973 261.505005 C 685.762004 262.307658 686.481689 263.128337 687.18103 263.967041 C 687.88033 264.805013 688.558329 265.660319 689.215027 266.532959 C 689.871684 267.404989 690.506348 268.293009 691.119019 269.197021 C 691.731689 270.100342 692.321676 271.018677 692.888977 271.952026 C 693.455668 272.885335 693.999003 273.831991 694.518982 274.791992 C 695.039001 275.751994 695.534668 276.72465 696.005981 277.709961 C 696.477336 278.694661 696.924011 279.690348 697.346008 280.697021 C 697.768005 281.704346 698.164673 282.721334 698.536011 283.747986 C 698.907349 284.774638 699.253011 285.809977 699.572998 286.854004 C 699.892985 287.898031 700.186991 288.949361 700.455017 290.007996 C 700.722351 291.066671 700.963338 292.131348 701.177979 293.202026 C 701.39266 294.272013 701.580668 295.347005 701.742004 296.427002 C 701.903341 297.506999 702.037679 298.590332 702.14502 299.677002 C 703.278992 310.311035 700.591003 322.195007 693.773987 330.588989 C 684.96698 341.432007 670.223022 346.427979 656.783997 347.802002 C 656.328003 347.880981 656.291992 347.89502 655.754028 347.937012 C 642.85199 348.937988 626.786011 345.295044 616.927979 336.536987 C 606.521973 327.291992 601.122986 313.407959 600.333008 299.72998 C 600.277669 298.77002 600.246338 297.809021 600.239014 296.846985 C 600.230998 295.885681 600.246663 294.924683 600.286011 293.963989 C 600.325317 293.002645 600.388306 292.043315 600.474976 291.085999 C 600.561646 290.127991 600.671651 289.172648 600.804993 288.219971 C 600.938334 287.267985 601.095011 286.319661 601.275024 285.375 C 601.455688 284.430339 601.659017 283.490682 601.88501 282.55603 C 602.111654 281.621338 602.360982 280.692668 602.632996 279.77002 C 602.905009 278.847331 603.199341 277.932332 603.515991 277.025024 C 603.833333 276.116984 604.172668 275.217306 604.533997 274.325989 C 604.895325 273.434672 605.27832 272.552673 605.682983 271.679993 C 606.087646 270.808004 606.513326 269.946004 606.960022 269.093994 C 607.407328 268.242676 607.87498 267.402669 608.362976 266.573975 C 608.851664 265.746012 609.360331 264.930359 609.888977 264.127014 C 610.417664 263.323018 610.965332 262.533 611.531982 261.756958 C 612.099325 260.980347 612.685669 260.218018 613.291016 259.469971 C 613.895671 258.722656 614.518331 257.990336 615.158997 257.27301 C 623.416992 248.096008 633.669006 243.889038 645.846985 243.216003 Z"/>
    <path id="path62" fill="#fefefd" stroke="none" d="M 643.289001 247.617981 C 653.705994 247.059998 662.664001 249.360962 671.317017 255.25 C 684.637024 264.315002 695.893005 281.080994 698.825989 296.969971 C 700.640015 306.796997 698.94397 317.22998 693.195984 325.511963 C 686.309021 335.437988 674.72998 341.787964 662.969971 343.859009 C 650.580017 345.618042 636.234009 344.195007 625.643005 336.963013 C 615.440002 329.995972 608.867981 318.011963 606.606018 306.035034 C 604.013 292.30603 606.046997 277.468018 614.054993 265.81604 C 621.336975 255.221985 630.864014 249.919983 643.289001 247.617981 Z"/>
    <path id="path63" fill="#3d2525" stroke="none" d="M 668.096008 275.127991 C 670.661011 276.233032 672.380005 278.885986 673.862976 281.176025 C 678.304016 288.035034 682.064026 297.037964 680.14801 305.307007 C 678.846008 310.927002 675.190979 315.635986 670.234985 318.541016 C 664.88501 321.677002 658.054016 322.407959 652.096985 320.802979 C 643.429993 318.468018 638.02301 312.698975 633.646973 305.197998 C 633.299988 304.639038 632.966003 304.070007 632.614014 303.514038 C 631.286011 301.415039 630.216003 299.131958 630.575012 296.585999 C 631.905029 295.848022 632.492981 297.196045 633.366028 298.200012 C 639.898987 305.717041 644.594971 313.497986 655.263977 314.833984 C 660.255981 315.459961 666.254028 314.028992 670.161011 310.77002 C 681.255981 301.518005 667.091003 286.105957 668.046997 275.559998 C 668.059998 275.416016 668.080017 275.271973 668.096008 275.127991 Z"/>
    <path id="path64" fill="#f2e8c2" stroke="none" d="M 627.169983 673.158997 C 634.562012 676.721008 651.473999 679.546997 660.317993 681.698975 C 685.96698 687.939026 711.52301 694.179016 737.297974 699.900024 C 743.354655 724.751994 748.273661 749.827311 752.054993 775.125977 C 746.973999 780.849976 739.560974 785.098022 732.770996 788.458984 C 715.603027 797.356995 698.924011 802.370972 679.953979 805.79303 C 672.140015 807.202026 664.39502 808.528992 656.432983 808.632019 C 650.649007 778.230001 644.221008 747.964661 637.148987 717.835999 C 633.796021 703.171997 628.77002 688.11499 627.169983 673.158997 Z"/>
    <path id="path65" fill="#f2e8c2" stroke="none" d="M 413.173004 224.455994 L 412.234009 223.042969 C 412.169006 220.307007 419.671997 213.238037 421.95401 210.812012 C 425.672007 206.842692 429.51767 203.001017 433.490997 199.286987 C 437.464325 195.572998 441.55599 191.994995 445.765991 188.552979 C 449.976664 185.110352 454.296672 181.811035 458.726013 178.655029 C 463.155334 175.499023 467.684326 172.493347 472.312988 169.638 C 481.529999 164.018005 491.341003 159.460022 501.143005 154.971008 C 548.060974 133.485962 601.697021 119.239014 653.437012 117.708008 C 673.38501 117.117004 695.106995 118.711975 713.911011 125.710999 C 716.166992 126.551025 720.038025 127.833008 721.580017 129.710022 C 722.455994 130.776001 722.390015 130.999023 722.187012 132.257019 C 715.698975 140.054016 654.877991 142.462036 642.088013 143.429016 C 636.526001 143.849976 630.68103 144.723999 625.116028 145.419006 C 612.151978 147.037964 599.596008 150.270996 586.755005 152.35199 C 585.252991 152.596008 584.926025 152.617981 583.677979 151.718994 L 583.695984 152.287964 C 580.958008 154.213989 567.760986 156.978027 563.896973 157.578979 L 561.080994 156.914978 C 560.846985 157.908997 561.044006 158.112 560.127014 158.684021 C 555.716003 161.43103 547.786987 162.822021 542.737 164.752014 C 529.71698 169.72998 517.070007 175.112 504.513 181.161011 C 472.203003 196.728027 442.178986 221.427002 422.876007 251.922974 C 413.602997 266.571045 406.497986 282.804993 400.127014 298.881958 C 394.757996 312.432983 389.468994 326.747009 385.761993 340.832031 C 383.341003 350.028992 381.621002 359.381958 379.48999 368.645996 C 377.709015 376.391968 375.502991 384.036011 373.673004 391.77002 C 370.22699 406.329956 365.498993 430.224976 357.286011 442.604004 C 342.569 426.30603 339.207001 404.390991 340.287994 383.112 C 342.117004 347.103027 355.566986 315.057983 372.713989 283.838013 C 375.817993 278.186035 379.096985 269.724976 383.704987 265.301025 C 383.777008 265.230957 383.865997 265.18103 383.946991 265.122009 L 384.431 264.827026 L 384.384003 264.045044 C 386.351013 259.981995 394.296997 245.802979 397.178009 243.233032 L 398.091003 245.488037 L 399.278992 243.536011 L 398.726013 241.742004 C 399.368011 237.317993 406.960999 226.817017 410.480011 223.858032 L 411.07901 223.948975 L 412.028992 226.067017 L 413.173004 224.455994 Z"/>
    <path id="path66" fill="#190807" stroke="none" d="M 450.257996 197.188965 C 450.962006 193.362 451.886993 189.734009 453.677002 186.252014 L 453.535004 186.432007 L 454.286011 186.589966 L 453.160004 187.080994 L 454.269012 187.143982 C 453.835999 190.830994 453.476013 194.549988 452.852997 198.208984 L 450.257996 197.188965 Z"/>
    <path id="path67" fill="#301310" stroke="none" d="M 682.486023 127.737 C 686.638977 126.588989 690.48999 126.400024 694.734009 127.177979 C 693.122986 128.113037 692.721008 128.552002 691.950989 130.247986 C 691.317993 130.031982 689.851013 130.481018 689.174988 130.593994 C 686.955994 128.161987 684.307983 129.708984 682.486023 127.737 Z"/>
    <path id="path68" fill="#190807" stroke="none" d="M 694.734009 127.177979 C 699.823975 127.971008 704.528992 129.419983 709.335999 131.244019 L 691.950989 130.247986 C 692.721008 128.552002 693.122986 128.113037 694.734009 127.177979 Z"/>
    <path id="path69" fill="#301310" stroke="none" d="M 452.852997 198.208984 C 452.356995 201.68103 452.303986 204.978027 452.265015 208.483032 C 451.571991 209.546021 451.579987 209.505981 450.355988 209.859985 L 449.658997 209.278992 C 448.432007 205.520996 449.506989 200.955017 450.257996 197.188965 L 452.852997 198.208984 Z"/>
    <path id="path70" fill="#3c1a17" stroke="none" d="M 364.541992 336.88501 C 361.863007 334.119995 358.795013 330.174011 358.687988 326.200012 L 359.260986 325.768005 C 362.095001 327.502991 362.860992 331.502991 365.533997 333.612 L 366.084015 333.129028 L 366.681 334.322021 C 367.373993 334.406006 368.006012 334.483032 368.704987 334.466003 L 368.003998 335.952026 L 366.979004 335.219971 C 365.657013 335.467041 365.484985 335.898987 364.541992 336.88501 Z"/>
    <path id="path71" fill="#3d2525" stroke="none" d="M 373.062988 320.344971 L 372.825012 319.837036 L 374.665985 317.031006 C 377.533997 321.796997 381.084015 326.578003 383.330994 331.651001 C 378.161987 328.653015 376.098999 325.368042 373.062988 320.344971 Z"/>
    <path id="path72" fill="#301310" stroke="none" d="M 552.025024 141.919983 L 552.633972 142.210022 C 551.692017 144.481018 548.010986 146.731995 546.27002 148.713013 C 542.913025 152.53302 540.687988 157.007996 538.971985 161.761963 C 538.427979 161.301025 538.163025 160.789001 537.789978 160.190002 C 537.669006 158.247009 537.796997 156.677002 538.466003 154.835022 C 540.734985 148.596008 546.190002 144.507996 552.025024 141.919983 Z"/>
    <path id="path73" fill="#301310" stroke="none" d="M 624.781982 126.544983 C 625.622986 126.416992 625.129028 126.414001 626.247009 126.780029 C 625.179993 129.429016 619.611023 130.718994 617.244995 132.333008 C 614.065979 134.500977 611.232971 137.341003 608.336975 139.877014 L 607.096008 139.432983 L 606.78302 138.539978 C 606.979004 137.958008 607.161987 137.416992 607.473999 136.884033 C 610.919006 130.990967 618.578003 128.155029 624.781982 126.544983 Z"/>
    <path id="path74" fill="#3c1a17" stroke="none" d="M 689.174988 130.593994 C 682.348022 131.447998 674.286987 132.754028 668.380005 136.594971 C 667.18103 137.375 666.263977 138.47699 665.127991 139.309998 C 664.143005 140.03302 663.510986 140.200989 662.328003 140.05603 L 662.021973 139.395996 C 662.083984 139.245972 662.132996 139.088989 662.210022 138.945007 C 665.133972 133.440979 676.658997 129.448975 682.486023 127.737 C 684.307983 129.708984 686.955994 128.161987 689.174988 130.593994 Z"/>
    <path id="path75" fill="#301310" stroke="none" d="M 648.531006 123.490967 L 650.215027 123.554993 L 650.575989 124.380005 C 648.098022 126.744019 644.455017 128.235962 641.518982 130.041992 C 639.136983 131.48466 636.837321 133.04834 634.619995 134.733032 C 632.402018 136.417684 630.279012 138.21401 628.250977 140.122009 L 627.551025 140.765991 L 626.97998 140.377014 C 627.044983 139.724976 627.028992 139.542969 627.299011 138.846985 C 630.382019 130.875977 641.002014 125.945984 648.531006 123.490967 Z"/>
    <path id="path76" fill="#190807" stroke="none" d="M 561.080994 156.914978 C 563.854004 149.151978 568.879028 137.981995 576.68103 133.973022 C 577.320007 133.64502 577.43103 133.651001 578.038025 133.513 C 578.406982 134.39502 578.421997 134.004028 578.05603 134.937012 C 576.695007 138.411011 573.059998 141.747986 570.83197 144.72699 C 569.374654 146.691671 568.065002 148.750671 566.903015 150.903992 C 565.740987 153.057353 564.738973 155.282349 563.896973 157.578979 L 561.080994 156.914978 Z"/>
    <path id="path77" fill="#301310" stroke="none" d="M 533.44397 149.484009 L 535.091003 149.442993 L 535.463013 149.937988 C 534.200989 151.651978 532.109009 152.771973 530.387024 153.992981 C 523.411987 158.942017 519.775024 163.786987 517.666992 172.171997 L 516.924988 172.130981 C 516.640991 171.677979 516.495972 171.47699 516.273987 171.028992 C 515.044983 168.539978 515.388977 165.494995 516.341003 162.973022 C 518.921021 156.135986 527.177002 152.245972 533.44397 149.484009 Z"/>
    <path id="path78" fill="#301310" stroke="none" d="M 673.309021 122.656006 L 674.611023 122.711975 C 672.278015 126.328979 654.484009 132.330994 648.789001 138.434021 C 647.637024 138.384033 647.593018 138.078003 646.744019 137.360962 C 646.864014 136.609009 646.89801 135.916992 647.322021 135.263 C 651.638977 128.60498 665.737976 123.781006 673.309021 122.656006 Z"/>
    <path id="path79" fill="#301310" stroke="none" d="M 591.937988 135.609009 C 597.703979 131.812988 603.388977 129.374023 610.416016 129.438965 L 611.054993 129.88501 C 608.486023 131.987 599.69397 134.455017 595.054993 137.406006 C 591.187012 141.723022 585.502991 146.052979 583.677979 151.718994 L 583.695984 152.287964 C 582.760986 151.174011 582.067993 150.374023 582.125 148.875 C 582.312012 143.885986 588.47998 138.664978 591.937988 135.609009 Z"/>
    <path id="path80" fill="#301310" stroke="none" d="M 433.923004 212.742004 C 438.007996 207.166992 441.542999 202.164978 447.871002 198.898987 C 443.415985 203.919006 438.910004 208.765015 435.434998 214.541016 C 436.561005 218.953003 438.240997 224.294006 437.748993 228.879028 L 436.920013 229.11499 C 433.981995 225.190979 433.527008 220.427002 431.967987 215.93103 C 429.632996 219.021973 427.359985 222.127014 425.190002 225.337036 L 423.028992 224.888 C 425.669006 221.195007 428.509003 217.692993 431.375 214.177002 C 430.445007 211.953979 429.64801 210.244995 429.748993 207.773987 L 430.075989 207.655029 C 430.539001 208.562012 430.869995 209.43103 431.635986 210.119019 L 431.803986 206.096008 C 433.20401 207.864014 433.502014 210.562012 433.923004 212.742004 Z"/>
    <path id="path81" fill="#301310" stroke="none" d="M 480.894012 175.421021 C 481.028015 175.358032 481.162994 175.296997 481.29599 175.231995 C 483.859985 173.984009 486.040009 172.120972 488.493011 170.669983 C 495.864014 166.307007 504.037994 162.182007 512.521973 160.585999 L 513.263 160.937012 C 512.231018 163.922974 506.766998 166.025024 503.992004 167.374023 C 497.147003 170.703003 489.428009 173.483032 484.450012 179.5 C 483.94101 181.994995 484.01001 187.292969 482.869995 189.198975 C 481.61499 188.525024 481.179993 187.213013 480.730011 185.875 C 480.053009 183.862 482.346985 176.207031 481.894989 175.880981 L 481.679993 175.932007 C 479.752991 177.078979 477.971008 178.536011 476.197998 179.906006 C 467.484009 186.641968 467.468994 190.981995 466.18399 201.187012 C 464.55899 196.984985 463.182007 192.870972 464.821014 188.40802 C 467.166992 182.016968 475.166992 178.242981 480.894012 175.421021 Z"/>
    <path id="path82" fill="#301310" stroke="none" d="M 364.541992 336.88501 C 365.484985 335.898987 365.657013 335.467041 366.979004 335.219971 L 368.003998 335.952026 C 368.040985 336.155029 368.056 336.364014 368.115997 336.562012 C 369.165009 340.025024 376.954987 345.269043 375.751007 348.700989 C 371.895996 346.733032 369.234985 343.265991 366.466003 340.045044 C 364.722992 345.421997 362.846985 350.791016 361.364014 356.245972 C 364.075989 358.906982 375.096985 368.526978 375.548004 371.575989 C 370.824005 371.367004 363.598999 363.437012 360.528992 360.151001 C 359.252014 366.315002 357.937012 372.533997 357.089996 378.773987 C 360.230011 384.901001 364.789001 389.709961 368.375 395.460999 C 362.735992 392.591003 359.697998 388.609009 356.056 383.60498 C 354.942993 390.552002 354.257996 397.381958 353.993988 404.421021 C 355.484985 406.627991 359.140991 410.106995 359.794006 412.369995 L 359.212006 412.817993 C 356.838989 412.114014 354.882996 410.054993 353.143005 408.359009 C 352.545013 416.742004 352.440002 425.198975 350.559998 433.417969 C 349.019989 419.018005 350.731995 404.338013 352.321991 390.023987 C 352.825989 385.483032 353.056 380.848022 353.786987 376.341003 C 354.772003 370.261963 357.813995 363.936035 357.898987 357.752991 C 357.916992 356.447998 357.445007 355.703003 356.890015 354.578979 C 356.136993 353.05603 355.816986 352.198975 356.007996 350.494019 L 356.578003 349.627014 L 358.423004 351.342041 L 359.130005 351.204956 C 361.492004 347.131958 362.722992 341.380005 364.541992 336.88501 Z"/>
    <path id="path83" fill="#3c1a17" stroke="none" d="M 399.278992 243.536011 L 398.726013 241.742004 C 399.368011 237.317993 406.960999 226.817017 410.480011 223.858032 L 411.07901 223.948975 L 412.028992 226.067017 L 413.173004 224.455994 C 414.643005 227.177979 415.852997 230.083984 417.136993 232.898987 C 419.015991 230.176025 420.819 227.359009 423.028992 224.888 L 425.190002 225.337036 C 422.834991 228.731018 420.890015 232.627014 418.38501 235.854004 C 419.269989 238.390015 422.11499 244.515991 421.046997 246.934998 C 419.653992 246.460999 418.699005 245.198975 418.007996 243.900024 C 417.102997 242.200012 416.569 240.252014 416.002014 238.419983 C 412.174988 243.452026 408.557007 248.514038 405.587006 254.11499 C 406.454987 256.915039 409.674011 263.134033 409.958008 264.830994 L 409.980011 264.43396 L 409.393005 264.822021 C 406.832001 263.221985 405.450012 261.092041 403.734985 258.662964 C 400.640991 264.819661 397.383993 270.888672 393.963989 276.869995 C 395.072998 279.240967 397.679993 283.716003 396.992004 286.389038 C 396.959015 286.519043 396.890015 286.638 396.838989 286.761963 C 395.579987 286.458008 394.945007 285.528992 394.22699 284.454956 C 393.408997 283.234009 392.824005 281.86499 392.045013 280.617004 C 389.044006 286.613037 386.492004 292.787964 383.899994 298.967041 C 384.894989 301.093994 389.824005 310.613037 389.604004 312.474976 C 385.516998 310.615967 383.987 304.703979 382.076996 301.015991 C 379.234009 306.210999 377.092987 311.644043 374.665985 317.031006 L 372.825012 319.837036 L 373.062988 320.344971 C 371.503998 324.929993 369.549011 329.697998 368.704987 334.466003 C 368.006012 334.483032 367.373993 334.406006 366.681 334.322021 L 366.084015 333.129028 C 367.721008 327.754028 369.304993 322.38501 371.377991 317.157959 C 369.992004 314.380005 368.425995 311.789001 368.285004 308.622986 L 368.979004 308.567993 C 370.609985 310.291016 371.59201 312.202026 372.708008 314.269043 C 373.937012 311.307983 380.32901 299.562988 379.79599 297.447998 C 378.980662 296.451335 378.197001 295.430664 377.445007 294.385986 C 376.32901 292.860962 375.15799 291.317993 375.468994 289.312012 L 376.35199 289.27002 C 378.447998 290.712036 379.687012 292.781006 381.114014 294.841003 C 381.429993 295.108032 381.195007 294.948975 381.928009 295.093018 C 385.308014 289.792969 387.238007 283.599976 390.630005 278.192017 C 388.354004 273.838013 386.419006 269.38501 383.946991 265.122009 L 384.431 264.827026 L 384.384003 264.045044 C 386.351013 259.981995 394.296997 245.802979 397.178009 243.233032 L 398.091003 245.488037 L 399.278992 243.536011 Z"/>
    <path id="path84" fill="#f2e8c2" stroke="none" d="M 399.278992 243.536011 L 398.726013 241.742004 C 399.368011 237.317993 406.960999 226.817017 410.480011 223.858032 L 411.07901 223.948975 L 412.028992 226.067017 L 415.752991 235.708984 C 411.238007 241.070984 407.325989 246.752991 403.580994 252.664001 L 399.278992 243.536011 Z"/>
    <path id="path85" fill="#f2e8c2" stroke="none" d="M 384.431 264.827026 L 384.384003 264.045044 C 386.351013 259.981995 394.296997 245.802979 397.178009 243.233032 L 398.091003 245.488037 C 399.071014 249.023987 400.014008 252.445007 401.575012 255.776001 C 398.977997 261.812012 396.181 268.867004 392.407013 274.25 C 390.627991 271.19104 388.709015 266.096008 385.130005 265.002991 C 384.899994 264.932983 384.664001 264.885986 384.431 264.827026 Z"/>
    <path id="path86" fill="#918179" stroke="none" d="M 531.130981 178.567017 C 542.034973 182.171997 552.205017 188.825012 560.247986 196.992004 C 545.646973 206.150024 516.044983 202.380981 499.02301 201.515991 C 495.617004 201.34198 490.394012 200.507996 487.290985 201.796021 C 486.266998 202.221008 486.614014 201.958008 486.166992 203.047974 L 487.036987 204.235962 C 493.295013 208.796021 500.707001 211.577026 507.39801 215.422974 C 513.208008 219.48999 517.90802 223.893005 521.153015 230.302979 C 521.10199 230.481018 521.062012 230.662964 521.002014 230.838989 C 520.190002 233.218994 518.067017 234.485962 515.758972 235.14502 C 511.158997 236.458984 505.712006 235.700989 500.958008 235.771973 C 494.17099 235.872009 487.213989 236.13501 480.515991 237.268982 C 472.790985 238.578003 465.662994 241.372986 458.856995 245.218994 C 451.070007 249.619995 442.309998 255.705017 439.945007 264.865967 C 436.980988 276.346985 441.446991 289.928955 447.303009 299.768005 C 455.161987 312.973022 466.367004 322.125977 481.25 325.97699 C 480.367004 331.359985 479.484985 336.755981 476.868988 341.619019 C 472.087006 350.506958 463.63501 355.447021 454.05899 357.700012 C 450.463989 358.545044 446.95401 358.924988 443.395996 360.036987 C 444.731995 362.464966 446.208008 364.52301 448.286987 366.380005 C 456.382996 373.617004 465.854004 375.458008 476.404999 374.895996 C 467.325989 380.343994 455.501007 388.984009 447.946991 396.445007 C 436.748993 407.504028 426.748993 435.832031 426.643005 451.656006 C 415.484985 467.52301 406.856995 485.087036 398.177002 502.396973 C 399.265015 491.105957 400.707001 480.520996 403.697998 469.537964 L 401.490997 471.02301 C 395.415985 475.146973 387.983002 476.907959 381.079987 479.22699 C 369.265991 483.196045 357.177002 486.778015 346.09201 492.536987 C 349.246002 485.019043 351.393005 476.979004 354.391998 469.362 C 362.217987 449.484985 371.230988 429.460999 376.944 408.875 C 380.213989 397.094971 383.541992 385.125977 386.38501 373.234009 C 388.950989 362.497986 390.959015 351.656006 393.703003 340.950989 C 397.459015 326.299988 402.632996 311.338013 408.604004 297.445007 C 428.859009 250.322021 453.493988 215.108032 500.384003 191.509033 C 510.424011 186.457031 520.711975 182.703979 531.130981 178.567017 Z"/>
    <path id="path87" fill="#301310" stroke="none" d="M 415.799988 297.593018 C 418.815002 292.417969 424.735992 285.177002 430.740997 283.634033 C 432.200012 283.259033 433.71701 283.364014 434.946991 284.325012 C 436.976013 285.911011 437.359985 289.089966 437.406006 291.47998 C 437.674988 305.414001 429.329987 327.302979 419.579987 337.141968 C 418.278015 338.455994 416.605011 339.844971 414.631989 339.769043 C 413.26001 339.716003 412.192993 338.927979 411.389008 337.879028 C 410.315002 336.47699 409.665985 334.645996 409.053986 333.000977 L 412.321014 332.276001 C 412.519989 333.109009 412.699005 333.985962 412.996002 334.789001 C 413.462006 336.051025 413.864014 336.375977 415.037994 336.968018 C 415.710999 336.859985 415.811005 336.882996 416.513 336.557983 C 422.187988 333.926025 431.006012 312.756958 432.859009 306.388 C 434.312012 301.39502 436.908997 291.334961 434.307007 286.541016 C 433.209015 285.77002 432.947998 285.526001 431.528992 285.717041 C 425.944 286.466003 419.605011 295.669006 416.903015 300.032959 L 415.799988 297.593018 Z"/>
    <path id="path88" fill="#f2e8c2" stroke="none" d="M 416.903015 300.032959 C 419.605011 295.669006 425.944 286.466003 431.528992 285.717041 C 432.947998 285.526001 433.209015 285.77002 434.307007 286.541016 C 436.908997 291.334961 434.312012 301.39502 432.859009 306.388 C 431.006012 312.756958 422.187988 333.926025 416.513 336.557983 C 415.811005 336.882996 415.710999 336.859985 415.037994 336.968018 C 413.864014 336.375977 413.462006 336.051025 412.996002 334.789001 C 412.699005 333.985962 412.519989 333.109009 412.321014 332.276001 L 409.053986 333.000977 C 408.592987 330.894043 408.261993 328.666992 409.127014 326.608032 C 409.204987 326.424011 409.315002 326.255005 409.408997 326.078003 L 409.032013 325.030029 C 407.42099 321.096985 410.868988 309.778992 412.056 305.734985 C 413.132996 302.874023 414.29599 300.255005 415.799988 297.593018 L 416.903015 300.032959 Z"/>
    <path id="path89" fill="#3c1a17" stroke="none" d="M 415.799988 297.593018 L 416.903015 300.032959 C 415.669006 302.880005 414.446014 305.713013 413.384003 308.629028 C 413.359985 307.523987 413.328003 306.484009 413.153992 305.389038 L 412.056 305.734985 C 413.132996 302.874023 414.29599 300.255005 415.799988 297.593018 Z"/>
    <path id="path90" fill="#301310" stroke="none" d="M 409.032013 325.030029 C 409.777008 324.551025 410.674011 324.27002 411.494995 323.937988 C 411.489014 326.848022 411.722992 329.427002 412.321014 332.276001 L 409.053986 333.000977 C 408.592987 330.894043 408.261993 328.666992 409.127014 326.608032 C 409.204987 326.424011 409.315002 326.255005 409.408997 326.078003 L 409.032013 325.030029 Z"/>
    <path id="path91" fill="#190807" stroke="none" d="M 412.056 305.734985 L 413.153992 305.389038 C 413.328003 306.484009 413.359985 307.523987 413.384003 308.629028 C 412.229004 313.884033 411.311005 318.541016 411.494995 323.937988 C 410.674011 324.27002 409.777008 324.551025 409.032013 325.030029 C 407.42099 321.096985 410.868988 309.778992 412.056 305.734985 Z"/>
    <path id="path92" fill="#301310" stroke="none" d="M 431.79599 292.39502 C 431.802002 292.707031 431.838013 293.02002 431.815002 293.332031 C 431.351013 299.837036 425.151001 309.682007 422.545013 315.841003 C 421.368988 318.622009 420.501007 322.218994 419.036011 324.782959 C 418.681 325.405029 418.166992 325.837036 417.635986 326.299988 C 417.466003 325.697998 417.372009 325.432983 417.268005 324.860962 C 416.062988 318.275024 427.723999 298.278992 431.79599 292.39502 Z"/>
    <path id="path93" fill="#301310" stroke="none" d="M 431.294006 340.462036 C 431.652008 340.436035 431.970001 340.403992 432.334991 340.43103 C 433.718994 340.532959 434.234985 340.63501 435.145996 341.728027 C 438.269989 345.474976 437.316986 359.327026 436.587006 363.937988 C 435.371002 371.612 426.574005 396.526001 419.947998 400.593994 C 418.459015 401.507996 417.496002 401.110962 415.906006 400.807007 C 414.941986 399.946045 414.016998 398.959961 413.304993 397.875977 C 408.251007 390.174988 407.528992 376.695007 409.604004 367.895996 C 412.403992 356.016968 421.134003 346.718018 431.294006 340.462036 Z"/>
    <path id="path94" fill="#f2e8c2" stroke="none" d="M 432.372986 342.377014 L 433.537994 342.778015 C 433.894012 343.256958 434.204987 343.661011 434.373993 344.244995 C 435.165985 346.983032 435.016998 350.509033 434.902008 353.353027 C 434.346008 367.104004 429.957001 378.195007 423.556 390.221985 C 422.328003 392.530029 420.17099 397.462036 417.506012 398.275024 L 416.244995 397.580994 C 411.571991 389.575989 410.015991 377.019043 412.135986 368.01001 C 414.752991 356.886963 422.858002 348.208008 432.372986 342.377014 Z"/>
    <path id="path95" fill="#3c1a17" stroke="none" d="M 430.423004 348.469971 C 430.510986 349.122009 430.589996 349.769043 430.626007 350.426025 C 430.699005 351.740967 430.531006 352.89801 430.187012 354.169006 C 428.932007 358.797974 427.122986 363.309998 425.803009 367.936035 C 424.05899 374.046021 422.770996 380.60498 420.630005 386.55896 C 420.273987 387.549988 419.705994 388.205994 419.01001 388.974976 C 415.632996 380.276978 427.333008 358.014038 430.181 349.230957 L 430.423004 348.469971 Z"/>
    <path id="path96" fill="#918179" stroke="none" d="M 721.72998 516.997009 C 734.963013 520.367981 747.791016 525.203979 760.814026 529.271973 C 793.406026 539.303996 825.788025 549.972677 857.960022 561.278015 C 854.538025 565.849976 851.664001 571.062012 848.612 575.900024 C 844.289978 582.752014 839.776978 589.473022 835.346008 596.252991 C 821.820007 616.901672 808.750997 637.835347 796.138977 659.054016 C 787.874023 672.744019 778.866028 686.814026 772.197021 701.349976 C 760.200358 697.276001 748.027018 693.825338 735.677002 690.997986 C 726.419006 688.434021 716.942017 686.39502 707.607971 684.104004 C 691.903015 680.247986 676.289978 676.346008 660.435974 673.132019 C 652.784973 671.580994 642.59198 669.119019 635.012024 668.330017 L 633.312012 669.93103 L 632.565002 669.767029 L 632.445007 668.815002 C 638.338013 663.999023 642.723999 655.85199 646.893005 649.48999 C 669.473022 649.356995 696.267029 646.56897 714.528992 631.979004 C 719.547974 627.969971 724.721985 621.88501 725.299988 615.263977 C 725.872986 608.697998 721.979004 601.778015 717.846008 596.888 C 709.627014 587.164001 697.08197 582.367004 684.674011 581.380005 C 692.69397 564.973999 704.19397 550.025024 713.718994 534.44397 C 716.411011 530.039001 719.85199 525.177979 721.778015 520.393005 C 722.372986 518.914001 722.291016 518.479004 721.72998 516.997009 Z"/>
    <path id="path97" fill="#fefefd" stroke="none" d="M 648.015991 151.419006 C 650.369019 151.565002 657.004028 159.21698 658.820007 161.280029 C 676.887024 181.796997 688.310974 206.525024 698.952026 231.471008 C 703.314026 241.695007 707.534973 253.202026 713.286987 262.69397 C 708.752014 264.72998 704.234009 266.906982 699.598999 268.697998 C 689.416992 254.130981 673.578003 239.81897 655.505981 236.575989 C 642.552002 234.250977 628.565979 237.655029 617.857971 245.223022 C 604.872009 254.400024 596.226013 269.858032 593.700012 285.428955 C 592.833984 290.763 592.77301 296.150024 593.072021 301.535034 C 584.528992 306.188965 575.765991 310.480957 567.320984 315.299988 C 550.664001 324.807007 534.390015 335.209961 518.254028 345.567017 C 510.735992 350.393005 503.463013 355.661987 496.131012 360.768005 C 492.054993 363.606995 487.985992 366.973022 483.389008 368.916016 C 477.477997 371.412964 469.596985 371.210999 463.510986 369.43396 C 458.610992 368.004028 453.841003 365.44104 449.781006 362.364014 C 461.546997 360.381958 470.790009 357.129028 478.007996 347.065002 C 483.339996 339.630981 484.009003 331.820007 485.877991 323.136963 C 468.747986 317.490967 457.583008 308.791992 449.295013 292.38501 C 444.619995 283.130005 442.294006 273.911987 443.662994 263.547974 C 452.222992 251.898987 468.265015 244.312012 482.247009 242.110962 C 491.763 240.613037 516.159973 242.765991 522.247986 235.598022 C 522.356018 235.471985 522.442993 235.328979 522.539978 235.195007 C 522.424988 234.724976 522.458008 234.957031 522.442993 234.401001 C 522.357971 231.265015 521.718018 229.190979 520.603027 226.309021 L 520.411011 227.002014 C 521.184998 228.89801 521.903015 230.458008 521.231018 232.521973 L 521.153015 230.302979 C 517.90802 223.893005 513.208008 219.48999 507.39801 215.422974 C 500.707001 211.577026 493.295013 208.796021 487.036987 204.235962 C 488.704987 204.035034 489.623993 203.72699 491.196014 204.377014 C 496.744995 203.86499 503.772003 205.708008 509.377014 206.286011 C 514.450338 206.854004 519.539673 207.16866 524.64502 207.22998 C 529.749674 207.291341 534.845011 207.099345 539.93103 206.653992 C 544.843018 206.233032 558.278015 205.434021 561.255005 200.955994 C 561.992981 199.846008 562.085022 198.479004 561.760986 197.218018 C 559.755981 189.400024 544.099976 181.075012 537.554993 177.263 C 545.47998 179.210999 553.591003 180.549011 561.585022 182.200012 C 574.468018 184.860962 588.315002 188.549988 601.517029 188.583984 C 604.838013 188.593018 608.926025 188.078979 611.294006 185.46698 C 612.247986 184.414978 612.713013 183.080017 612.650024 181.661011 C 612.294983 173.684021 600.632996 163.692017 595.125977 158.877014 L 599.940979 160.734985 C 605.226013 163.497986 610.627991 166.035034 615.887024 168.846985 C 621.554016 171.877014 627.13501 175.207031 633.015015 177.807983 C 638.796021 180.365967 646.429016 183.65802 652.671021 181.051025 C 656.710022 179.36499 658.721008 176.005981 660.406006 172.192017 C 658.549988 162.994995 653.463989 158.473022 648.015991 151.419006 Z"/>
    <path id="path98" fill="#3c1a17" stroke="none" d="M 487.036987 204.235962 C 488.704987 204.035034 489.623993 203.72699 491.196014 204.377014 C 496.971985 207.863037 503.335999 210.22998 509.118988 213.775024 C 514.505005 217.379028 521.629028 223.304993 523.117004 229.922974 C 523.445984 231.38501 523.695007 233.388 522.901001 234.713989 C 522.797974 234.885986 522.659973 235.035034 522.539978 235.195007 C 522.424988 234.724976 522.458008 234.957031 522.442993 234.401001 C 522.357971 231.265015 521.718018 229.190979 520.603027 226.309021 L 520.411011 227.002014 C 521.184998 228.89801 521.903015 230.458008 521.231018 232.521973 L 521.153015 230.302979 C 517.90802 223.893005 513.208008 219.48999 507.39801 215.422974 C 500.707001 211.577026 493.295013 208.796021 487.036987 204.235962 Z"/>
    <path id="path99" fill="#3d2525" stroke="none" d="M 485.671997 262.506958 C 488.277008 262.287964 491.016998 262.208008 493.625 262.372986 C 500.343994 262.796997 504.860992 266.153992 509.141998 271.01001 C 504.467987 276.405029 498.768005 278.811035 492.384003 281.577026 C 495.308014 284.790039 498.393005 288.02002 500.522003 291.829956 C 498.825012 297.028992 498.382996 300.208008 494.161011 304.005005 C 493.859009 304.079956 493.559998 304.166992 493.256012 304.230957 C 488.48999 305.244995 483.600006 303.77301 479.584991 301.187012 C 470.375 295.255005 465.480988 285.833984 463.321991 275.394043 C 470.079987 268.610962 476.674011 265.606995 485.671997 262.506958 Z"/>
    <path id="path100" fill="#918179" stroke="none" d="M 493.194 267.184998 C 496.015991 267.278015 498.806 267.382996 501.479004 268.414001 C 502.789001 268.917969 503.192993 269.27002 503.746002 270.532959 C 500.994995 274.005005 490.253998 278.112 485.966003 280.661011 C 488.847992 284.622009 494.639008 289.197998 495.036987 294.212036 C 495.148987 295.622986 494.766998 296.81897 493.833008 297.890015 C 492.593994 299.311035 491.209015 299.760986 489.395996 299.908997 C 488.091003 299.460999 486.759003 299.023987 485.493011 298.474976 C 477.442993 294.981995 472.175995 285.655029 468.992004 277.950989 C 475.721985 271.625 484.063995 268.062012 493.194 267.184998 Z"/>
    <path id="path101" fill="#918179" stroke="none" d="M 516.619995 50.793274 C 525.674011 53.13269 534.669006 55.581421 543.445007 58.835876 C 570.283997 68.788391 609.684998 89.427917 627.72998 111.814026 C 622.057983 112.867004 616.179993 113.346985 610.440979 113.974976 C 599.473999 100.43103 589.210022 85.470093 572.632996 78.187622 C 568.607971 76.419495 560.437988 73.548218 556.283997 75.633667 C 555.258972 76.148376 554.739014 76.94342 554.599976 78.074585 C 554.281982 80.669983 555.973999 83.423523 557.357971 85.469482 C 564.893982 96.607483 578.700012 107.781006 587.601013 119.393005 C 578.062012 121.078003 568.585999 123.5 559.215027 125.945007 C 547.005005 108.039978 523.328003 96.760193 502.812988 91.937622 C 498.778992 90.989197 490.502991 89.079102 486.868988 91.340332 C 486.416992 92.35498 486.195007 92.776917 486.35199 93.92041 C 487.860992 104.859009 517.971008 129.860962 527.312988 137.037964 C 519.182007 139.80603 511.238007 142.822021 503.286987 146.075989 C 488.639008 130.552002 468.169006 119.171997 446.768005 116.721985 C 443.022003 116.292969 438.683014 116 435.592987 118.463013 C 435.167999 119.234009 434.783997 119.865967 434.833008 120.786987 C 435.419006 131.85199 467.713989 151.072021 476.971985 158.389038 C 474.087321 160.02299 471.181661 161.618652 468.255005 163.176025 C 460.915985 160.768005 453.096985 159.640015 445.626007 157.684998 C 445.411011 157.747986 445.195007 157.809021 444.980988 157.874023 C 444.121002 158.135986 444.455994 158.000977 443.737 158.377991 C 443.47699 158.242004 443.231995 158.072998 442.957001 157.969971 C 439.104004 156.518982 434.303986 156.578979 430.244995 156.507996 C 415.821014 156.254028 400.312988 157.403992 387.571991 164.843994 C 385.821014 165.865967 384.006989 166.921997 382.404999 168.169006 C 381.893005 168.528015 381.372986 168.886963 380.88501 169.280029 C 380.114014 169.901978 379.31601 170.838013 379.303009 171.874023 C 379.278992 173.716003 380.520996 175.240967 381.78299 176.463013 C 391.57901 185.958008 421.321991 186.823975 434.949005 186.978027 C 428.730011 192.281982 423.063995 198.562012 417.444 204.499023 L 416.48999 204.14801 C 414.319 203.335022 412.319 203.130005 410.019012 203.125977 C 390.492004 203.098022 371.376007 204.794983 353.649994 213.723022 C 350.272003 215.424011 346.364014 217.309021 343.729004 220.078003 C 342.221985 221.661987 341.713013 222.974976 341.704987 225.130981 C 342.07901 226.031982 342.354004 226.56897 343.118011 227.21698 C 345.470001 229.213013 350.019989 229.714966 353.002991 230.202026 C 367.692993 232.598999 381.743988 232.447998 396.444 230.011963 C 389.75 241.315979 383.450989 253.244995 376.04599 264.071045 C 369.765015 265.80896 362.989014 266.394043 356.574005 267.682007 C 342.709991 270.467041 321.368988 277.235962 312.420013 288.948975 C 311.201996 290.542969 309.811005 292.523987 310.234985 294.627014 C 310.437012 295.627014 311.282013 296.44104 312.153992 296.926025 C 322.632996 302.763 347.699005 296.197021 358.828003 293.033997 C 345.622986 320.47699 336.68399 344.459961 333.67099 374.997986 C 331.071014 401.362 332.667999 424.360962 350.136993 445.596985 C 331.871002 449.249023 315.28299 455.862 298.675995 464.130005 C 300.626007 450.407959 305.53299 428.870972 310.364014 415.903992 C 311.700012 412.31604 313.178009 408.592041 315.104004 405.273987 C 316.205994 403.375 317.770996 401.530029 318.627014 399.521973 C 319.092987 398.429993 318.993988 397.971985 318.813995 396.843018 C 317.846985 395.771973 317.682007 395.453979 316.183014 395.250977 C 309.391998 394.327026 266.589996 406 260.890015 410.009033 C 263.005005 396.245972 275.113007 377.054993 282.910004 365.307983 C 284.924988 362.270996 296.627014 348.052979 296.889008 345.552002 C 296.48999 344.983032 296.437988 344.843018 295.856995 344.344971 C 292.056 341.085999 265.290009 344.372009 259.263 345.410034 C 252.953995 346.495972 246.682007 348.041992 240.423996 349.396973 C 251.897003 330.255981 263.549988 312.217041 278.072998 295.18103 C 282.089996 290.468994 300.07901 271.44397 300.528015 266.752991 C 300.049011 266.015015 300.058014 265.869019 299.214996 265.432007 C 290.845001 261.093018 253.669998 265.985962 244.552994 269.117004 C 258.276001 248.981995 288.057007 224.77002 307.936005 210.322021 C 312.462006 207.03302 327.678009 198.629028 329.894989 195.502991 C 329.79599 195.359985 329.713989 195.203979 329.596008 195.075989 C 325.678009 190.820984 286.108002 186.432983 278.059998 185.877991 C 303.342987 167.014038 334.317993 154.658997 364.339996 145.672974 C 372.023987 143.374023 379.897003 141.837036 387.554993 139.504028 C 378.687988 132.583008 353.596985 117.382019 343.47699 114.328003 C 365.436005 108.932007 386.70401 104.047974 409.415985 102.666992 C 417.26 102.230347 425.110006 102.045024 432.966003 102.111023 C 438.464996 102.166016 447.470001 103.656006 452.507996 102.35199 C 453.770996 102.025024 454.158997 101.729004 454.759003 100.603027 C 453.838989 93.675903 432.334991 74.054626 426.714996 68.332092 C 430.117666 68.383077 433.518331 68.497884 436.916992 68.676514 C 440.316325 68.855184 443.710663 69.097514 447.100006 69.403503 C 450.489329 69.709574 453.871989 70.079142 457.247986 70.512207 C 460.623332 70.94519 463.989665 71.441386 467.346985 72.000793 C 470.704325 72.560201 474.049662 73.182414 477.382996 73.867432 C 480.717 74.552409 484.036672 75.299723 487.34201 76.109375 C 490.648 76.918986 493.937327 77.790324 497.209991 78.723389 C 500.483327 79.656535 503.737661 80.650736 506.972992 81.705994 L 531.822021 89.937866 C 535.794983 91.266602 539.893982 93.147278 544.02002 93.840881 C 545.526001 94.093811 546.921997 94.218994 548.203979 93.252502 L 548.372986 92.03479 C 545.971008 85.463684 522.734985 57.218994 516.619995 50.793274 Z"/>
    <path id="path102" fill="#fefefd" stroke="none" d="M 718.302002 274.453979 C 719.776001 274.640015 720.53302 275.401001 721.617981 276.311035 C 742.002014 293.411987 768.799988 300.166016 795.107971 297.900024 C 794.145996 302.255981 793.737 306.541992 794.109985 310.994019 C 795.135986 323.224976 800.427979 330.94397 809.643005 338.634033 C 778.91803 393.155029 716.346008 423.015015 663.580017 451.97699 C 653.669006 457.416992 643.312988 462.575012 633.755005 468.593994 C 623.203003 466.329956 612.935974 462.906006 602.669983 459.617004 C 581.016663 452.741638 559.669678 445.018636 538.629028 436.447998 C 520.016337 428.797323 501.589661 420.722656 483.348999 412.223999 C 475.390015 408.424011 468.076996 402.721008 459.574005 400.243042 C 503.788666 370.393026 548.942993 342.039347 595.036987 315.182007 C 595.44397 316.567993 595.950989 317.911987 596.471008 319.259033 C 602.203979 334.108032 612.703979 345.843994 627.36499 352.197021 C 628.340983 352.613688 629.32666 353.006022 630.322021 353.374023 C 631.317342 353.742676 632.321004 354.08667 633.333008 354.406006 C 634.345011 354.725342 635.364339 355.019674 636.390991 355.289001 C 637.416992 355.55898 638.44932 355.80365 639.487976 356.02301 C 640.525981 356.24233 641.56899 356.43632 642.617004 356.60498 C 643.664327 356.77299 644.715332 356.915649 645.77002 357.032959 C 646.825358 357.150309 647.882345 357.241659 648.940979 357.307007 C 650.000346 357.372355 651.060689 357.412028 652.122009 357.426025 C 653.183329 357.440023 654.243998 357.428019 655.304016 357.390015 C 656.364685 357.35201 657.423686 357.28833 658.481018 357.198975 C 659.539001 357.10966 660.593669 356.994344 661.64502 356.853027 C 662.697021 356.712321 663.74469 356.54598 664.788025 356.354004 C 665.832011 356.162028 666.870667 355.944356 667.903992 355.700989 C 668.936666 355.458354 669.962992 355.190694 670.982971 354.89801 C 672.002991 354.605326 673.01534 354.287659 674.02002 353.945007 C 675.024658 353.603007 676.020325 353.236674 677.007019 352.846008 C 690.700989 347.27002 701.76001 337.785034 707.552002 323.981995 C 713.830994 309.016968 711.559998 294.315002 705.630981 279.630981 C 710.096985 278.325012 714.13501 276.502014 718.302002 274.453979 Z"/>
    <path id="path103" fill="#3d2525" stroke="none" d="M 710.474976 381.328003 C 714.494019 381.278015 719.254028 384.76001 723.213013 385.948975 C 727.155029 387.134033 731.679993 387.575012 735.786011 387.625977 C 739.601013 387.674011 751.697021 384.950012 754.101013 385.971985 C 754.411987 387.087036 754.083008 387.252014 753.625977 388.271973 C 751.442017 389.411011 749.198975 390.390015 746.804016 390.993042 C 737.242981 393.39801 724.369019 392.984985 715.809998 387.575989 C 713.138 385.886963 711.156982 384.5 710.474976 381.328003 Z"/>
    <path id="path104" fill="#918179" stroke="none" d="M 432.063995 456.640991 C 438.386993 461.249023 445.377014 465.051025 452.044006 469.148987 C 471.421997 481.062988 490.993988 492.14801 511.472992 502.085999 C 525.06897 508.68396 538.867981 514.88501 552.492981 521.450989 C 560.213013 525.171997 569.406982 528.512024 575.768982 534.340027 C 564.02301 532.048686 552.388346 529.288676 540.86499 526.059998 C 530.585999 523.189026 520.078979 519.390991 509.390015 518.538025 C 509.721334 518.778666 510.057658 519.011983 510.398987 519.237976 C 521.922974 526.822998 587.661011 548.687988 599.632996 546.138 C 599.531982 547.877014 599.406006 549.609985 599.437988 551.35199 C 559.419983 545.163025 524.564026 530.44397 490.812988 508.333008 C 481.809998 502.434998 473.678009 494.920044 464.548004 489.372009 C 464.355988 489.255981 464.161987 489.144043 463.970001 489.030029 C 465.561005 492.115967 467.433014 494.894043 469.644989 497.572021 C 496.838013 530.495972 562.119995 557.616028 603.999023 561.752014 C 603.286336 562.749329 602.614665 563.773661 601.984009 564.825012 C 587.275024 589.031006 582.057983 617.012024 588.835999 644.609985 C 580.002014 641.403015 570.69397 639.567017 561.697998 636.862976 C 542.684998 631.150024 523.895996 623.609009 506.549988 613.906006 C 494.463338 607.013997 482.913005 599.317322 471.898987 590.815979 C 470.083008 589.421021 461.837006 581.427002 460.812012 581.137024 L 459.851013 581.976013 C 459.712006 582.588989 459.661011 582.635986 459.720001 583.35199 C 460.226013 589.577026 478.376007 604.406982 483.916992 608.580017 C 474.761993 616.031006 464.643005 622.778015 457.73999 632.554016 C 469.237 628.064026 479.907013 620.758972 489.661011 613.320984 C 493.703003 616.372986 498.450989 618.877991 502.770996 621.546997 C 498.904999 634.552979 491.518005 645.783997 490.717987 659.713013 C 498.131989 650.125977 504.131989 635.905029 509.230988 624.814026 C 514.682994 627.644023 520.216329 630.303691 525.830994 632.79303 C 531.44635 635.28302 537.13269 637.598348 542.890015 639.739014 C 548.647339 641.879679 554.465007 643.841675 560.343018 645.625 C 566.220988 647.407674 572.14799 649.008667 578.124023 650.427979 C 586.062012 652.393005 593.836975 654.312012 602.007996 655.093018 C 602.948975 659.776978 604.583984 665.838989 608.067017 669.260986 C 611.362976 672.497009 614.715027 672.590027 619.020996 672.468018 C 619.611003 678.232015 620.233337 683.992676 620.888 689.75 C 620.480001 689.787354 620.074341 689.843018 619.671021 689.916992 C 619.26766 689.990316 618.868327 690.081319 618.473022 690.190002 C 618.077677 690.298686 617.687663 690.424357 617.302979 690.567017 C 616.918986 690.710327 616.541992 690.870321 616.171997 691.046997 C 615.802002 691.222982 615.440328 691.414978 615.086975 691.622986 C 614.733663 691.831645 614.39034 692.054993 614.057007 692.29303 C 613.723674 692.531677 613.401347 692.784668 613.090027 693.052002 C 612.779358 693.318685 612.480672 693.598694 612.19397 693.892029 C 609.280029 696.843994 608.117981 702.538025 608.317993 706.541992 C 608.345988 707.145345 608.404317 707.745687 608.492981 708.343018 C 608.580994 708.940348 608.698669 709.531677 608.846008 710.117004 C 608.993347 710.702332 609.169352 711.279338 609.374023 711.848022 C 609.578695 712.416016 609.811361 712.972351 610.072021 713.517029 C 610.332682 714.061666 610.619344 714.59198 610.932007 715.107971 C 611.245321 715.624654 611.583659 716.124003 611.947021 716.606018 C 612.310343 717.088684 612.696676 717.552002 613.106018 717.995972 C 613.51532 718.439331 613.945638 718.861674 614.396973 719.263 C 619.072021 723.429016 622.664001 724.35498 628.734985 723.934998 C 631.205017 727.101013 632.309998 737.65802 633.320007 742.164001 C 631.171997 742.947021 628.869995 743.674011 626.859009 744.771973 C 623.026001 746.864014 620.030029 750.239014 618.844971 754.47998 C 617.474976 759.382996 618.232971 765.226013 620.940002 769.549988 C 623.249023 773.237976 627.046997 776.164001 631.362 776.997986 C 635.383972 777.775024 637.338013 776.72998 640.521973 774.468018 C 642.833984 783.900024 644.692322 793.420349 646.096985 803.028992 C 641.403015 803.028992 637.380981 803.059998 633.843994 806.656982 C 631.112976 809.434998 630.093018 813.280029 630.262024 817.096985 C 630.52301 822.992004 633.534973 830.231995 638.247009 833.945007 C 640.840027 835.987976 643.656006 837.513977 646.10199 839.778992 C 646.247986 839.913025 646.388977 840.051025 646.53302 840.187012 C 633.348999 847.517029 619.330017 853.54303 605.510986 859.580994 C 600.611003 861.737651 595.684347 863.831645 590.731018 865.862976 C 585.77769 867.894307 580.799357 869.862325 575.796021 871.767029 C 570.791992 873.671692 565.764994 875.512349 560.715027 877.289001 C 555.665019 879.066345 550.593018 880.778687 545.499023 882.426025 C 540.404989 884.074015 535.290975 885.656677 530.156982 887.174011 C 525.02299 888.691996 519.870321 890.144002 514.698975 891.530029 C 509.52832 892.916667 504.340332 894.237325 499.13501 895.492004 C 493.930339 896.745992 488.710673 897.934001 483.476013 899.05603 C 478.241333 900.177327 472.992991 901.23232 467.730988 902.221008 C 462.469655 903.209005 457.19633 904.130005 451.911011 904.984009 C 446.625671 905.838013 441.330332 906.624349 436.024994 907.343018 C 430.720327 908.062337 425.406993 908.713989 420.084991 909.297974 C 414.76299 909.881999 409.434662 910.398336 404.100006 910.846985 C 398.76533 911.295675 393.425659 911.676005 388.080994 911.987976 C 382.736328 912.300639 377.388662 912.545308 372.037994 912.721985 C 366.686656 912.898661 361.33432 913.006999 355.980988 913.046997 C 354.196991 900.645996 351.727997 888.335999 350.049011 875.921021 C 348.295013 862.942017 347.325989 849.502991 346.447998 836.432983 C 338.822998 722.890015 361.884003 611.072021 406.769012 506.937012 C 410.657664 497.967 414.857656 489.144999 419.368988 480.471008 C 423.589996 472.540039 428.277008 464.787964 432.063995 456.640991 Z"/>
    <path id="path105" fill="#3d2525" stroke="none" d="M 534.291992 722.262024 C 534.344971 722.280029 534.400024 722.291016 534.448975 722.315002 C 535.721985 722.945984 535.880981 722.96698 536.414001 724.23999 C 536.223022 725.616028 535.801025 726.629028 535.117004 727.840027 C 517.890015 758.353027 457.018005 807.650024 424.114014 816.103027 C 423.225006 816.119019 422.80899 816.03302 422.027008 815.607971 C 422.984009 814.013977 458.957001 790.539978 463.277008 787.448975 C 489.553009 768.648987 513.780029 747.281006 534.291992 722.262024 Z"/>
</svg>
