<?xml version="1.0" encoding="UTF-8"?>
<!-- Generated by Pixelmator Pro 2.4.7 -->
<svg width="1024" height="1024" viewBox="0 0 1024 1024" xmlns="http://www.w3.org/2000/svg" xmlns:xlink="http://www.w3.org/1999/xlink">
    <path id="Percorso" fill="#e2dac4" stroke="none" d="M 550.981995 935.43103 C 552.031006 940.885986 552.940002 944.880981 557.281982 948.674988 C 559.802002 956.166992 561.804016 964.495972 565.43103 971.505981 L 565.835999 972.304016 C 565.91803 972.463013 566.005005 972.619995 566.088989 972.776978 C 580.969971 976.588989 596.950989 976.700012 612.218994 976.705994 C 619.434021 976.708984 626.651978 977.054016 633.867004 976.835999 C 644.809998 976.505981 655.869995 975.14801 666.703003 973.632019 C 673.143982 972.731018 681.770996 972.031982 687.336975 968.598022 C 688.692993 967.760986 689.992981 966.48999 690.338013 964.872986 C 690.778992 962.807007 689.461975 960.75 688.19397 959.241028 C 681.487976 951.263 667.177979 944.294006 658.008972 939.127014 C 658.187012 939.090027 658.364014 939.051025 658.54303 939.017029 C 664.794983 937.81897 672.130981 939.250977 678.445007 939.84198 C 697.982971 941.671997 744.322998 946.862 759.771973 957.372986 C 761.661011 958.65802 764.06897 960.651001 764.578003 963.017029 C 764.926025 964.630981 764.241028 966.161987 763.23999 967.382019 C 746.586975 987.674011 583.599976 999.513 551.604004 1001.52002 C 529.34668 1002.82666 507.072347 1003.689982 484.781006 1004.109985 C 462.489665 1004.523315 440.198995 1004.496663 417.908997 1004.030029 C 395.618327 1003.556681 373.345998 1002.640015 351.09201 1001.280029 C 328.838003 999.92334 306.619995 998.123006 284.437988 995.879028 C 267.686005 994.18103 222.003006 989.713013 209.606003 979.210022 C 208.354004 978.148987 207.181 976.767029 206.960999 975.078003 C 206.757996 973.513977 207.518997 972.129028 208.598007 971.070984 C 220.302002 959.588989 277.760986 953.320007 295.084991 951.754028 C 295.372986 951.835999 295.662994 951.914978 295.950012 952 C 296.73999 952.232971 297.972992 952.697021 298.488007 953.336975 C 299.214996 954.239014 299.665009 956.138 300.062988 957.255981 C 302.832001 965.039001 305.864014 972.427002 309.717987 979.741028 C 326.729004 983.314026 344.050995 986.150024 361.404999 987.36499 C 383.187012 988.888977 403.812012 988.950989 425.453003 985.656982 C 428.438995 985.202026 434.234009 985.02002 436.355011 982.572998 C 437.183014 981.617981 437.272003 980.676025 437.06601 979.471985 C 436.656006 977.077026 433.924011 974.268005 432.332001 972.469971 C 421.214996 959.911011 412.096008 954.390991 399.070007 944.453979 L 400.153992 940.512024 C 400.346008 940.598022 400.531006 940.703979 400.730988 940.77002 C 404.833008 942.119995 430.895996 939.72998 437.506989 939.440002 C 457.679657 938.512675 477.858999 937.775004 498.045013 937.22699 C 511.631989 936.968018 525.278015 937.338989 538.849976 936.796997 C 542.624023 936.646973 547.429016 936.79303 550.981995 935.43103 Z"/>
    <path id="path1" fill="#50392e" stroke="none" d="M 619.700012 67.009888 C 616.302979 59.916992 612.939026 52.744995 608.807007 46.043091 C 606.210022 41.830017 603.096985 37.966919 600.596008 33.693604 C 600.65802 32.460876 600.799988 32.250793 601.476013 31.202087 C 602.325989 30.699097 603.028992 30.353394 604.021973 30.30719 C 608.369019 30.104797 613.869995 32.780396 617.947021 34.34552 C 644.465027 44.526184 667.203979 59.974487 687.754028 79.464966 C 685.41803 73.134827 683.507996 66.645325 681.075012 60.349121 C 679.330994 55.836426 676.929016 51.512878 675.348999 46.950684 C 674.630981 44.875427 674.41803 44.514771 675.367981 42.54541 C 676.426025 41.858826 676.849976 41.366089 678.182007 41.689026 C 681.719971 42.546021 686.947998 45.885315 690.189026 47.612671 C 716.676025 61.733582 742.656006 86.140991 754.815002 113.838013 C 755.559021 102.61499 755.189026 91.805115 754.94397 80.602417 C 754.887024 77.98468 754.802002 76.584717 756.710999 74.598022 C 758.237 74.269226 759.020996 74.299927 760.343994 75.195679 C 764.288025 77.866699 767.611023 83.484802 770.031006 87.491089 C 778.828979 102.054993 784.788025 119.343018 788.080017 136.037964 C 789.620972 143.853027 790.497986 151.739014 792.213013 159.537964 C 797.083008 153.903015 802.109009 148.440979 807.872986 143.703003 C 812.041992 140.276978 821.393005 131.997009 826.827026 132.523987 C 827.840027 133.213013 828.286987 133.424011 828.765015 134.599976 C 830.215027 138.174988 828.036987 144.539001 827.211975 148.166016 C 824.379028 160.614014 821.471985 172.791992 816.742981 184.677002 C 814.179993 191.117981 810.937988 197.22699 808.28302 203.622986 C 814.309021 210.771973 819.879028 217.966003 824.671997 226.01001 C 832.330994 218.838013 842.429993 212.703979 852.577026 209.891968 C 868.541016 205.466003 886.278992 205.968018 900.810974 214.372986 C 914.906006 222.526001 923.708008 239.021973 927.77002 254.346985 C 933.104004 274.467041 932.862 299.817017 923.97998 319.040039 C 921.65802 324.067017 918.172974 328.557983 915.408997 333.353027 C 918.45697 333.349976 921.47699 333.48999 924.518982 333.661011 C 929.567017 327.028015 934.375977 320.997986 942.651001 318.355957 C 949.945007 316.026001 961.745972 315.615967 968.507019 319.271973 C 974.992004 322.778015 978.794006 329.187988 980.770996 336.082031 C 983.80603 346.671021 982.851013 359.323975 977.328003 368.984009 C 972.02002 378.268005 964.182983 380.755005 954.58197 383.377014 C 918.427002 438.342041 865.927979 463.815002 807.323975 488.682983 C 788.802002 496.541992 769.684998 503.81897 751.947021 513.344971 C 758.510986 522.565002 784.784973 569.281006 784.984985 577.390991 C 785.002014 578.067017 785.059021 578.552002 784.515991 579.030029 C 780.526001 582.549011 754.26001 580.89801 747.724976 580.612 C 747.778015 580.750977 747.833008 580.890015 747.883972 581.030029 C 747.968018 581.263 748.046997 581.497986 748.132019 581.731018 C 751.460022 590.83197 750.924988 623.362 750.820007 634.440002 C 750.651978 652.202026 751.000977 670.075989 750.440002 687.825012 C 750.197021 695.491028 749.401001 703.166016 748.921997 710.822021 C 746.775024 745.179993 743.304993 779.362976 736.702026 813.179993 C 734.25 825.737976 732.073975 838.424011 728.278015 850.658997 C 727.260986 853.937012 726.257019 857.390991 724.29303 860.247986 C 718.202026 869.104004 703.487976 877.674011 693.833008 882.71698 C 690.453003 884.481995 683.52002 888.289001 679.723022 886.559021 C 677.564026 885.575012 676.823975 882.47998 676.052002 880.437012 C 677.327026 875.565979 679.387024 870.950989 681.375 866.341003 C 672.270996 866.47998 662.997986 867.724976 653.932983 868.557007 C 648.427979 869.060974 642.25 869.004028 636.911011 870.414001 C 634.815002 874.278992 640.392029 904.97998 641.661987 911.218018 C 642.991028 917.747986 645.499023 925.112976 645.557983 931.731995 C 645.559998 931.922974 645.552979 932.114014 645.551025 932.304993 C 649.627014 934.749023 653.786987 936.950989 658.008972 939.127014 C 667.177979 944.294006 681.487976 951.263 688.19397 959.241028 C 689.461975 960.75 690.778992 962.807007 690.338013 964.872986 C 689.992981 966.48999 688.692993 967.760986 687.336975 968.598022 C 681.770996 972.031982 673.143982 972.731018 666.703003 973.632019 C 655.869995 975.14801 644.809998 976.505981 633.867004 976.835999 C 626.651978 977.054016 619.434021 976.708984 612.218994 976.705994 C 596.950989 976.700012 580.969971 976.588989 566.088989 972.776978 C 566.005005 972.619995 565.91803 972.463013 565.835999 972.304016 L 565.43103 971.505981 C 561.804016 964.495972 559.802002 956.166992 557.281982 948.674988 C 552.940002 944.880981 552.031006 940.885986 550.981995 935.43103 C 547.429016 936.79303 542.624023 936.646973 538.849976 936.796997 C 525.278015 937.338989 511.631989 936.968018 498.045013 937.22699 C 477.858999 937.775004 457.679657 938.512675 437.506989 939.440002 C 430.895996 939.72998 404.833008 942.119995 400.730988 940.77002 C 400.531006 940.703979 400.346008 940.598022 400.153992 940.512024 L 399.070007 944.453979 C 412.096008 954.390991 421.214996 959.911011 432.332001 972.469971 C 433.924011 974.268005 436.656006 977.077026 437.06601 979.471985 C 437.272003 980.676025 437.183014 981.617981 436.355011 982.572998 C 434.234009 985.02002 428.438995 985.202026 425.453003 985.656982 C 403.812012 988.950989 383.187012 988.888977 361.404999 987.36499 C 344.050995 986.150024 326.729004 983.314026 309.717987 979.741028 C 305.864014 972.427002 302.832001 965.039001 300.062988 957.255981 C 299.665009 956.138 299.214996 954.239014 298.488007 953.336975 C 297.972992 952.697021 296.73999 952.232971 295.950012 952 C 295.662994 951.914978 295.372986 951.835999 295.084991 951.754028 C 287.316986 942.552002 269.85199 878.132019 268.061005 865.747009 C 261.415009 861.677002 253.274002 859.577026 246.169006 856.35498 C 226.440002 847.40802 174.516998 822.109985 164.882004 804.955994 C 160.419006 797.012024 166.322006 779.825012 168.774994 771.120972 C 165.714996 773.926025 162.401993 777.515991 158.845001 779.653992 C 157.626999 780.385986 156.268005 780.690979 154.878998 780.203003 C 153.817001 779.830017 153.084 779.057983 152.548996 778.093994 C 148.003998 769.90802 151.992996 749.241028 154.307999 740.278015 C 143.729996 747.015991 133.733002 754.95697 123.407997 762.109009 C 121.512001 763.421997 119.123001 765.315002 116.689003 764.716003 C 115.775002 764.491028 115.043999 763.780029 114.635002 762.940979 C 113.348 760.299011 113.757004 756.611023 113.889999 753.770996 C 114.723999 735.851013 120.051003 717.781006 126.722 701.208984 C 116.055 705.937012 105.904999 713.349976 95.991302 719.541992 C 93.305 721.219971 89.543503 724.219971 86.553902 725.129028 C 85.2948 725.512024 84.850098 725.200989 83.7117 724.718994 C 82.435303 723.276978 82.054901 722.013 81.916801 720.090027 C 81.623802 716.010986 82.540001 711.455017 83.2257 707.450989 C 86.797997 686.588989 95.503502 666.14502 109.008003 649.73999 C 100.439003 653.609009 91.993797 658.700012 83.8526 663.41803 C 79.117897 666.161011 74.041298 669.758972 68.776901 671.335022 C 67.418098 671.205994 66.783501 670.979004 65.6521 670.216003 C 64.986298 669.260986 64.547699 668.466003 64.537697 667.265991 C 64.5177 664.856995 65.228699 662.336975 65.465897 659.929016 C 67.989098 634.317993 80.956001 603.901001 98.519997 584.961975 C 89.480301 587.085999 79.795502 591.236023 71.185204 594.786011 C 67.9319 596.127991 64.761902 597.828979 61.4221 598.927979 C 59.999199 599.395996 58.067402 599.187988 56.782501 598.325989 C 56.081501 597.856018 55.4855 597.424011 55.326599 596.570984 C 54.7868 593.674011 56.4809 589.979004 57.3951 587.203003 C 63.276699 569.346985 72.686897 554.327026 84.542198 539.859009 C 88.047096 535.580994 93.667198 531.463989 96.411903 527.104004 L 96.269699 526.505981 C 91.731499 526.309998 76.792603 529.461975 72.038399 530.518982 C 68.3629 531.336975 63.885399 533.948975 60.149799 533.127991 C 59.198101 532.919006 58.221199 532.364014 57.761398 531.487 C 57.050301 530.130005 57.192902 528.664001 57.594601 527.236023 C 59.033199 522.122986 62.749401 516.69397 65.667603 512.309998 C 80.462898 490.080994 100.058998 474.52301 122.853996 461.202026 C 116.417 461.328003 109.811996 461.64502 103.459 462.754028 C 95.514603 464.140015 87.709198 466.372986 79.6689 467.141968 C 79.044403 466.63501 78.548401 466.226013 78.212997 465.463989 C 77.610199 464.094971 77.904404 462.484985 78.435402 461.136963 C 86.663002 440.255981 109.226997 419.660034 128.184006 408.075012 C 136.712997 402.863037 145.595001 398.839966 154.802002 395.015991 C 145.725006 393.27002 135.106995 392.609009 125.885002 392.487 C 120.001999 392.408997 114.132004 392.80603 108.278 392.077026 C 107.624001 391.499023 107.073997 391.031982 106.792 390.166016 C 106.015999 387.780029 108.519997 383.653015 109.842003 381.695007 C 119.134003 367.929993 147.841995 352.096008 163.238007 345.93396 C 170.376999 343.077026 177.722 341.02301 185.235001 339.44104 C 175.585999 336.790039 162.151993 337.203003 152.149002 337.093018 C 147.737 337.044006 142.886993 337.358032 138.580002 336.341003 C 137.893005 335.718018 137.315002 335.412964 137.029007 334.490967 C 136.369003 332.36499 137.341003 330.252014 138.384003 328.411987 C 151.214996 305.771973 192.697998 287.144043 216.779999 280.286011 C 205.686996 277.155029 192.753998 276.179993 181.274994 275.114014 C 175.621002 274.588989 169.272995 274.572998 163.839996 272.905029 C 162.923996 272.031982 162.143005 271.348999 162.009995 269.993042 C 161.856003 268.424011 162.794998 266.960999 163.723007 265.783997 C 181.369003 243.393982 219.360992 227.577026 247.139008 224.476013 C 237.794006 219.853027 219.126007 213.895996 211.931 207.922974 C 210.843994 207.020996 209.923004 205.906982 210.028 204.408997 C 210.108994 203.247009 211.020004 202.15802 211.817001 201.374023 C 215.436996 197.815002 221.472 195.343994 226.082001 193.364014 C 250.210007 182.999023 271.009003 181.145996 297.062012 181.497009 C 288.763 175.572021 262.481995 162.018005 258.497009 156.119995 C 258.622986 154.927002 258.372009 155.333984 259.22699 154.554993 C 262.096985 151.940979 267.442993 150.010986 271 148.471985 C 295.386993 137.926025 323.059998 133.917969 349.558014 135.026001 C 341.888 128.776001 332.90799 123.832031 324.130005 119.307983 C 320.803009 117.59198 316.315002 116.15802 313.480011 113.841003 C 313.265015 112.903015 313.093994 112.203979 313.415009 111.250977 C 313.920013 109.752991 315.13501 108.801025 316.44101 108.028992 C 321.07901 105.28302 327.618011 104.210999 332.858002 102.807983 C 363.460999 94.611572 393.561005 94.507385 424.313995 101.999023 C 420.519012 99.506714 391.09201 80.686401 390.171997 79.162476 C 389.634003 78.272095 389.359009 76.676514 389.665985 75.679932 C 389.998993 74.59729 390.888 73.823425 391.84201 73.286133 C 396.497986 70.663818 404.355988 70.694702 409.679993 70.340698 C 429.772003 69.004822 449.661987 69.759705 469.290009 74.613403 C 475.612 76.176514 481.690002 78.499817 487.994995 80.136292 C 484.470001 75.266907 480.971985 70.308899 476.929993 65.852417 C 473.377014 61.93512 462.894012 53.732117 461.039001 50.002625 C 460.587006 49.09552 461.036987 48.424377 461.298004 47.541992 C 461.980011 46.843872 462.377991 46.516174 463.350006 46.25592 C 466.096985 45.52002 472.807007 46.663208 476.007996 46.894897 C 494.779999 48.253906 515.30603 51.836609 532.83197 58.816772 C 540.927979 62.041504 548.763977 66.219788 556.52301 70.176514 L 556.325012 69.855469 C 552.494019 63.567017 548.02301 57.378174 543.507996 51.560486 C 540.489014 47.671082 532.176025 40.022522 530.655029 35.943787 C 530.250977 34.858704 530.640991 34.536194 531.044983 33.583984 C 531.969971 32.775574 532.664978 32.330505 533.905029 32.134521 C 537.367004 31.587219 541.750977 33.436279 545.239014 34.063293 C 573.523987 39.148926 596.374023 50.467224 619.700012 67.009888 Z"/>
    <path id="path2" fill="#92756a" stroke="none" d="M 915.151978 317.504028 L 915.284973 320.036011 C 916.361023 320.390991 915.820007 320.351013 916.906982 320.177979 C 914.255005 325.651001 911.275024 329.799011 906.638977 333.739014 C 908.612976 328.210999 912.580017 322.874023 915.151978 317.504028 Z"/>
    <path id="path3" fill="#f4f1e1" stroke="none" d="M 624.047974 53.685181 C 622.078003 50.834412 620.567993 47.568481 619.189026 44.395691 C 627.041016 48.254089 636.63501 52.537292 643.528015 57.890076 C 638.414001 57.904785 632.388 53.692871 627.174988 52.708618 C 625.640015 52.418823 625.296021 52.789612 624.047974 53.685181 Z"/>
    <path id="path4" fill="#f4f1e1" stroke="none" d="M 565.254028 67.636902 C 562.786987 62.543823 560.10199 57.733276 556.854004 53.091309 C 555.22998 50.770813 552.63501 48.37793 551.447998 45.879089 C 555.232971 44.639404 577.919983 54.636292 582.58197 56.6828 C 579.08197 56.718811 575.049988 54.637024 571.578003 53.825806 C 567.965027 52.981873 564.31897 52.643372 560.630005 52.321228 C 561.971008 57.139893 565.874023 62.747681 565.254028 67.636902 Z"/>
    <path id="path5" fill="#f4f1e1" stroke="none" d="M 828.392029 250.309021 C 831.317017 252.380005 834.992004 262.005981 836.765015 265.678955 L 831.86499 266.757996 C 829.387024 267.567993 826.96698 268.571045 824.538025 269.514038 C 824.562012 262.553955 825.90802 256.799011 828.392029 250.309021 Z"/>
    <path id="path6" fill="#f4f1e1" stroke="none" d="M 721.664978 691.900024 C 722.268005 694.676025 719.486023 706.903015 718.221985 709.541016 C 716.101013 710.289001 713.629028 711.460999 711.455994 711.890991 C 710.241028 712.132019 708.875 710.565002 707.926025 709.830994 C 706.762024 709.375977 705.481995 709.16803 704.752014 708.133972 C 710.578979 702.916992 715.836975 697.117004 721.664978 691.900024 Z"/>
    <path id="path7" fill="#a48c7c" stroke="none" d="M 711.112 715.062012 C 712.603027 715.695007 713.234985 715.844971 714.883972 715.646973 C 715.862 715.530029 716.28302 715.445984 717.265991 715.64502 L 717.346008 717.226013 L 716.497986 716.08197 L 716.367004 716.310974 L 717.330017 717.06897 C 716.731018 725.15802 714.815002 733.505005 713.450012 741.520996 L 707.015991 741.469971 C 709.130005 732.656006 710.330994 724.072021 711.112 715.062012 Z"/>
    <path id="path8" fill="#f4f1e1" stroke="none" d="M 166.399002 732.950012 C 167.806 733.801025 168.903 734.366028 169.410995 736.04303 C 171.401993 742.609985 167.626999 752.583984 167.410004 759.539001 C 165.914993 762.296021 162.237 765.007996 159.957001 767.146973 C 159.684998 755.833984 161.854004 743.31897 166.399002 732.950012 Z"/>
    <path id="path9" fill="#f4f1e1" stroke="none" d="M 731.612976 522.93103 L 732.130981 523.291992 L 731.481018 524.749023 L 732.455017 525.10498 C 731.065002 526.549988 730.250977 547.007996 730.031006 550.315002 L 724.745972 542.73999 C 722.35498 539.348022 718.416016 536.124023 717.807983 531.840027 C 719.322998 528.164001 728.067993 524.953003 731.612976 522.93103 Z"/>
    <path id="path10" fill="#e2dac4" stroke="none" d="M 847.513 291.391968 C 850.051025 292.889038 852.497986 299.169006 854.122986 301.783997 C 857.083008 306.546021 860.521973 311.045044 863.827026 315.571045 C 859.432007 313.658997 855.245972 311.385986 851.130981 308.938965 C 843.73999 304.579956 836.734009 298.937012 830.653992 292.914001 C 833.75 294.35498 836.848999 295.703979 840.026001 296.955994 C 842.767029 295.259033 845.14502 293.589966 847.513 291.391968 Z"/>
    <path id="path11" fill="#f4f1e1" stroke="none" d="M 954.109985 324.94397 C 957.190002 325.283997 960.263 325.588013 963.02002 327.122009 C 965.202026 328.335999 967.888 330.485962 968.393005 333.101013 C 968.659973 334.485962 968.474976 335.601013 967.616028 336.747986 C 965.952026 338.971008 962.799988 339.747986 960.252014 340.343018 C 956.411987 340.313965 952.254028 339.983032 948.911011 337.914001 C 947.309021 336.921997 946.083008 335.44104 945.814026 333.528992 C 945.473999 331.115967 946.914978 329.375977 948.151978 327.471985 C 950.046021 326.464966 952.117981 325.73999 954.109985 324.94397 Z"/>
    <path id="path12" fill="#f4f1e1" stroke="none" d="M 121.830002 647.880005 C 122.018997 649.367004 122.007004 650.265991 121.401001 651.651001 C 119.197998 656.684998 116.441002 661.544006 114.047997 666.497986 C 108.162003 678.687012 102.260002 692.228027 99.077103 705.401978 C 96.486397 707.284973 94.194099 709.241028 91.908997 711.484009 C 94.609497 692.776001 103.248001 675.294006 113.277 659.502991 C 115.633003 655.794006 119.411003 652.671997 121.382004 648.797974 C 121.536003 648.494019 121.68 648.185974 121.830002 647.880005 Z"/>
    <path id="path13" fill="#f4f1e1" stroke="none" d="M 482.454987 57.346619 C 500.526001 60.070923 515.43103 61.917725 532.494995 69.343872 C 528.107971 69.625488 523.630005 68.783386 519.236023 68.590698 C 512.366028 68.289612 505.609985 68.599426 498.768005 69.19519 C 500.429993 73.59198 503.936005 80.372375 503.765991 85.005188 C 497.269989 75.252014 488.841003 67.05072 482.454987 57.346619 Z"/>
    <path id="path14" fill="#f4f1e1" stroke="none" d="M 141.906998 692.929016 C 143.158997 693.752991 143.695999 693.875977 144.240997 695.307007 C 142.906006 704.890991 129.210007 736.29303 133.186996 743.158997 C 129.697006 745.13501 126.626999 748.20697 123.587997 750.815979 C 128.095993 728.497986 127.832001 712.942993 141.906998 692.929016 Z"/>
    <path id="path15" fill="#f4f1e1" stroke="none" d="M 736.198975 581.911011 C 736.192017 581.080017 736.145996 581.122009 736.26001 580.461975 C 736.575989 578.638 737.119019 577.223022 738.708984 576.143005 L 739.534973 576.432007 C 740.250977 577.713989 740.034973 578.685974 739.866028 580.072021 C 740.797974 590.841003 743.903992 656.216003 741.28302 660.867981 C 740.843994 657.804993 740.34198 654.732971 739.955017 651.664978 C 739.776001 650.242981 740.10199 649.098999 739.719971 647.663025 C 739.158997 645.554016 739.307983 643.346985 739.039001 641.184998 L 736.877014 622.530029 L 733.880005 598.505005 C 733.297974 594.169983 732.393005 589.781982 732.257019 585.408997 C 733.432007 584.846008 735.53302 584.098999 736.013977 582.776978 C 736.11499 582.5 736.138 582.200012 736.198975 581.911011 Z"/>
    <path id="path16" fill="#f4f1e1" stroke="none" d="M 115.795998 526.409973 L 119.464996 528.898987 C 101.639999 542.539978 83.699097 562.184998 74.725601 582.906006 L 74.486801 583.471008 C 72.135201 584.309021 69.8675 585.934021 67.714699 587.205017 C 68.002434 586.22699 68.316935 585.257975 68.658203 584.297974 C 75.139603 566.02002 88.733803 543.893982 104.849998 532.315979 C 108.223 529.892029 112.055 528.182007 115.795998 526.409973 Z"/>
    <path id="path17" fill="#a48c7c" stroke="none" d="M 809.841003 280.061035 L 810.304993 280.023987 C 813.146973 281.037964 817.164978 288.438965 818.955994 291.071045 C 812.640015 293.164001 806.018982 294.493042 799.637024 296.408997 C 794.874023 297.838989 790.228027 299.754028 785.601013 301.571045 L 781.380005 303.070007 C 780.585022 298.166016 779.310974 293.381958 778.088013 288.572998 C 788.846008 286.307007 799.210022 282.827026 809.841003 280.061035 Z"/>
    <path id="path18" fill="#f4f1e1" stroke="none" d="M 720.395996 835.974976 C 720.620972 836.182007 720.812988 836.703003 720.953979 836.982971 C 717.958008 853.562988 714.849976 858.442993 700.10199 867.244019 C 696.447998 869.424988 692.713989 871.427002 689.51001 874.26001 L 688.924988 874.788025 L 688.784973 874.705017 C 687.585999 871.106018 695.038025 853.745972 696.359009 848.830994 C 703.861023 843.960022 712.476013 840.182007 720.395996 835.974976 Z"/>
    <path id="path19" fill="#f4f1e1" stroke="none" d="M 406.735992 79.637878 C 434.802002 78.680908 462.122986 79.818787 488.118988 91.732178 C 482.998993 91.815979 477.636993 90.143982 472.480988 89.706726 C 459.346985 88.592529 444.692993 89.873596 431.760986 92.319702 C 434.522003 95.747681 444.277008 103.718018 444.397003 107.768005 C 438.334015 102.364014 432.355011 96.539917 425.852997 91.679016 C 419.789001 87.145508 413.26001 83.446533 406.735992 79.637878 Z"/>
    <path id="path20" fill="#a48c7c" stroke="none" d="M 623.090027 721.848999 C 630.429016 723.153992 637.807007 722.328003 645.231995 723.786987 C 642.489014 731.559021 641.562988 740.473022 640.202026 748.603027 C 638.434021 748.78302 636.645996 748.859009 634.872009 748.979004 C 627.11499 749.075989 619.309998 748.47998 611.536987 748.432983 C 616.361023 740.317017 619.405029 730.565002 623.090027 721.848999 Z"/>
    <path id="path21" fill="#f4f1e1" stroke="none" d="M 331.713989 112.853027 C 358.213989 106.570007 383.091003 104.141968 410.052002 109.612 C 416.266998 110.872986 422.816986 112.140015 428.601013 114.781006 C 428.308014 114.794006 428.015991 114.812012 427.722992 114.820984 C 420.588013 115.044983 413.266998 112.460999 405.925995 112.676025 C 394.998993 112.997009 383.885986 113.698975 373.092987 115.515991 C 365.130005 116.856018 357.299988 118.97998 349.274994 119.924988 C 355.040009 123.596985 372.81601 136.700989 374.255005 143.275024 C 374.322998 143.585022 374.346985 143.903992 374.393005 144.218018 C 371.888 141.552002 369.765991 138.610962 367.125 136.036987 C 357.563995 126.716003 344.181 117.483032 331.713989 112.853027 Z"/>
    <path id="path22" fill="#f4f1e1" stroke="none" d="M 117.121002 580.710022 C 118.797997 581.107971 120.607002 581.353027 121.981003 582.452026 C 121.888 583.520996 104.935997 606.112 102.485001 609.97998 C 95.992302 620.22998 84.345497 640.974976 82.824699 652.599976 C 80.898697 653.89801 77.852097 656.362976 75.583099 656.783997 C 74.865601 654.783997 77.038399 647.080017 77.625198 644.651978 C 82.694504 623.676025 98.374199 592.107971 117.121002 580.710022 Z"/>
    <path id="path23" fill="#f4f1e1" stroke="none" d="M 178.046005 397.869019 C 177.966995 399.275024 178.026993 400.641968 176.970993 401.704956 C 175.681 403.004028 173.673004 403.625977 171.992996 404.254028 C 162.259995 407.894043 152.371994 413.411011 143.494995 418.781006 C 127.147003 428.670044 111.999001 441.332031 98.355003 454.624023 C 95.965897 455.39801 93.295799 455.733032 90.826599 456.22998 C 94.928802 451.096985 98.707397 445.640015 103.112 440.761963 C 116.737 425.674988 135.188004 411.937988 154.207993 404.653992 C 157.899328 403.235982 161.671331 402.081319 165.524002 401.190002 C 169.451996 400.286987 174.065002 400.098022 177.602005 398.134033 C 177.753006 398.051025 177.897995 397.957031 178.046005 397.869019 Z"/>
    <path id="path24" fill="#a48c7c" stroke="none" d="M 822.143005 140.411987 L 822.669983 140.544006 C 822.861023 143.134033 821.312988 146.265015 820.72699 148.825012 C 817.117004 164.583008 813.013 185.458984 803.15802 198.388 C 801.453979 197.06897 799.919983 195.549988 798.353027 194.073975 C 802.676025 184.640991 807.18103 175.072021 810.242004 165.141968 C 810.375 164.511963 810.325012 163.888 810.320007 163.245972 C 810.174011 163.292969 810.02002 163.320007 809.882019 163.386963 C 806.586975 164.97998 797.005981 183.429993 795.890015 187.490967 C 795.653992 188.351013 795.502991 188.988037 795.026978 189.761963 L 794.51001 189.523987 C 793.284973 185.864014 793.333008 173.358032 792.5 168.150024 L 792.408997 167.610962 C 796.929667 162.624308 801.67334 157.859314 806.640015 153.315979 C 811.606689 148.773336 816.774353 144.472005 822.143005 140.411987 Z"/>
    <path id="path25" fill="#f4f1e1" stroke="none" d="M 223.557007 204.509033 C 251.113998 193.360962 272.493011 189.354004 302.097992 191.38501 C 308.612 191.832031 315.266998 191.992981 321.462006 194.223999 C 318.319 195.734009 302.29599 195.739014 297.980988 196.22699 C 279.910004 198.266968 260.292999 201.61499 243.731995 209.447021 C 246.406006 211.500977 256.912994 216.893982 257.796997 218.786011 C 246.574005 213.65802 234.987 209.155029 223.557007 204.509033 Z"/>
    <path id="path26" fill="#e2dac4" stroke="none" d="M 696.814026 815.335022 L 697.216003 815.71698 C 697.445984 817.705017 688.453003 845.278992 686.874023 849.497986 C 686.140991 851.455994 685.260986 853.231995 684.148987 855.005005 C 668.570007 858.466003 652.267029 858.348022 636.588013 861.530029 L 636.057983 860.833008 C 638.052979 858.379028 651.405029 852.578979 655.028015 850.432983 C 670.711975 841.14502 685.588989 829.84198 696.814026 815.335022 Z"/>
    <path id="path27" fill="#f4f1e1" stroke="none" d="M 120.464996 384.02301 C 122.667 382.054993 124.569 379.77002 126.822998 377.834961 C 131.955002 373.429993 138.001999 369.714966 143.774994 366.198975 C 162.457001 354.822998 183.235001 347.110962 205.233002 345.838989 C 209.104004 345.615967 213.307007 345.171021 217.091995 346.088013 C 211.623993 349.698975 203.102005 350.099976 196.839996 352.216003 C 183.253998 356.807007 142.029007 375.036011 134.190002 384.212036 C 129.860992 383.583008 124.875 384.094971 120.464996 384.02301 Z"/>
    <path id="path28" fill="#a48c7c" stroke="none" d="M 478.125 354.976013 L 486.959991 351.11499 C 491.015991 364.427979 494.703003 385.799988 487.833008 398.799011 C 485.040009 404.083008 480.475006 407.687012 474.720001 409.281006 C 468.701996 410.947998 461.860992 410.338989 456.451996 407.124023 C 446.59201 401.265015 442.188995 389.218994 439.519012 378.713989 C 441.600006 376.644043 443.600006 374.72998 445.993988 373.014038 C 447.768005 383.792969 449.277008 394.664001 459.022003 401.44397 C 462.431 403.81604 466.5 405.160034 470.639008 404.212036 C 475.014008 403.210999 478.446014 399.950012 480.696014 396.187988 C 484.290009 390.182007 484.645996 382.880981 483.744995 376.088013 C 482.888 370.93103 481.657013 365.938965 480.348999 360.884033 L 478.125 354.976013 Z"/>
    <path id="path29" fill="#f4f1e1" stroke="none" d="M 175.076996 266.109985 C 178.154327 263.491333 181.312663 260.974325 184.552002 258.55896 C 207.509995 241.299011 241.804001 230.643982 270.488007 234.692017 C 269.368011 235.233032 268.623993 235.268005 267.420013 235.333008 C 262.628998 235.593018 257.70401 237.358032 253.108994 238.669983 C 228.123993 245.802979 214.460999 253.747009 192.216003 265.872986 C 196.285995 266.646973 200.306 267.39801 204.266006 268.64502 L 204.483002 268.976013 L 204.188995 269.150024 C 194.537994 267.333984 184.865005 266.687988 175.076996 266.109985 Z"/>
    <path id="path30" fill="#f4f1e1" stroke="none" d="M 274.299011 157.051025 C 307.444 144.974976 329.958008 143.912964 364.492004 147.619995 C 361.19101 149.328003 345.134003 150.625 339.924011 151.747009 C 324.515015 155.067993 308.699005 158.953979 293.786987 164.117004 C 297.153015 167.174011 315.682007 181.320984 315.806 183.68103 C 303.162994 173.549011 288.880005 164.151001 274.299011 157.051025 Z"/>
    <path id="path31" fill="#f4f1e1" stroke="none" d="M 242.606003 284.869019 C 243.748001 285.687988 244.740997 286.513 245.764008 287.478027 C 235.929993 291.81604 225.582001 295.05896 215.580002 299.005005 C 196.848007 306.394043 177.990997 315.992004 161.522003 327.614014 C 159.102005 328.234985 154.466003 327.97998 151.664001 328.320007 L 151.576004 327.94397 L 149.947006 328.454956 C 149.951996 327.664001 150.376007 326.822998 150.850006 326.207031 C 152.550003 324.002991 155.223007 322.129028 157.384995 320.390015 C 173.330002 307.557007 198.059006 294.487 217.673004 288.903992 C 225.953003 286.546997 234.128006 285.872009 242.606003 284.869019 Z"/>
    <path id="path32" fill="#f4f1e1" stroke="none" d="M 674.617004 529.13501 C 685.534973 531.507019 697.338989 531.797974 708.486023 531.968018 C 700.934998 542.14502 693.882996 552.775024 685.973999 562.669983 C 680.815979 568.728027 675.677002 574.849976 669.879028 580.310974 C 673.906006 563.104004 672.995972 546.39801 674.617004 529.13501 Z"/>
    <path id="path33" fill="#f4f1e1" stroke="none" d="M 451.074005 369.812988 C 458.636993 365.151978 466.54599 359.924011 474.815002 356.635986 L 476.414001 362.091003 C 477.648987 366.026001 478.243011 370.070007 478.907013 374.129028 C 479.598999 380.983032 480.230988 388.160034 476.490997 394.330994 C 474.96701 396.846985 472.644012 399.252991 469.635986 399.801025 C 466.942993 400.291016 464.289001 399.214966 462.130005 397.667969 C 452.648987 390.872986 452.556 380.078003 451.074005 369.812988 Z"/>
    <path id="path34" fill="#f4f1e1" stroke="none" d="M 744.539001 516.971985 C 745.898987 518.156982 746.687012 521.229004 747.616028 522.89801 C 756.702026 539.210999 765.08197 555.539978 773.250977 572.330994 C 770.297974 571.71698 767.382996 571.56897 764.379028 571.413025 C 757.656982 572.239014 745.265991 571.369019 738.203003 570.796021 C 736.820984 560.56897 736.044983 529.090027 739.934998 519.924988 C 740.75 518.004028 742.72699 517.640991 744.539001 516.971985 Z"/>
    <path id="path35" fill="#a48c7c" stroke="none" d="M 915.151978 317.504028 C 922.999023 295.622009 924.973022 269.580994 914.72699 248.078979 C 909.614014 237.351013 901.445984 227.278992 889.809021 223.370972 C 875.731018 218.643982 856.395996 221.098022 843.370972 227.912964 C 832.536987 233.582031 824.16803 240.983032 820.47699 252.901001 C 818.245972 260.105957 817.583984 271.348999 818.905029 278.783997 C 819.492004 282.087036 820.900024 285.245972 821.66803 288.536011 C 820.419983 287.353027 819.655029 285.212036 818.856995 283.679993 C 815.820007 277.844971 813.528015 272.747986 813.333008 266.033997 C 812.995972 254.416016 818.453979 242.698975 826.359985 234.380981 C 838.833984 221.255981 855.801025 214.442993 873.760986 214.082031 C 886.299011 213.828979 897.700989 217.770996 906.768005 226.552002 C 920.344971 239.700012 926.070007 262.131958 926.258972 280.464966 C 926.393982 293.507996 923.117981 308.653992 916.906982 320.177979 C 915.820007 320.351013 916.361023 320.390991 915.284973 320.036011 L 915.151978 317.504028 Z"/>
    <path id="path36" fill="#f4f1e1" stroke="none" d="M 464.569 677.281982 C 466.77301 680.79303 468.755005 684.369019 471.803986 687.22998 C 469.994659 690.065308 468.059326 692.811646 465.997986 695.468994 C 459.208659 704.075684 451.809326 712.122009 443.799988 719.607971 C 423.84201 738.051025 408.22699 744.932007 381.221985 748.210999 C 377.670013 744.541016 375.609985 740.640015 373.315002 736.112976 C 380.154999 734.778992 386.730011 733.801025 393.394012 731.603027 C 416.31601 724.039001 435.68399 710.817993 452.170013 693.343994 C 456.718994 688.521973 461.591003 683.247986 464.569 677.281982 Z"/>
    <path id="path37" fill="#a48c7c" stroke="none" d="M 607.049988 305.697998 C 611.327026 305.009033 616.010986 305.325012 620.340027 305.375977 C 620.030029 308.125 620.239014 310.958984 620.299988 313.721985 C 609.05603 312.911987 597.034973 315.139038 585.942993 316.864014 C 537.031982 324.473999 482.822998 340.781006 442.355988 370.045044 C 439.654999 372.089966 437.23999 374.539001 434.78299 376.869019 C 434.563995 374.250977 434.571991 371.617004 434.526001 368.990967 C 438.929993 363.661987 446.201996 358.989014 451.869995 354.973022 C 463.721008 346.577026 476.25 340.372986 489.502014 334.572021 C 529.075012 317.247986 564.437012 310.599976 607.049988 305.697998 Z"/>
    <path id="path38" fill="#f4f1e1" stroke="none" d="M 652.765991 717.731018 C 661.508972 716.401001 695.072021 713.083008 702.46698 715.33197 C 703.705994 715.708984 704.218994 716.005981 704.809998 717.142029 C 704.653015 719.041992 704.242981 720.448975 703.536987 722.215027 C 702.947021 728.211975 701.95697 734.400024 699.879028 740.078979 C 699.315979 742.880005 698.630005 745.258972 697.127014 747.710999 C 680.161987 751.153015 662.692017 750.106018 645.770996 753.005981 C 647.73999 741.155029 650.724976 729.562988 652.765991 717.731018 Z"/>
    <path id="path39" fill="#50392e" stroke="none" d="M 695.028992 745.877014 C 689.796021 746.745972 655.458008 751.044006 652.255981 749.603027 C 651.336975 749.189026 650.955017 748.853027 650.52301 747.973999 C 649.828003 746.562988 649.939026 744.927979 650.14801 743.411987 C 650.526978 740.65802 651.619019 738.27301 652.294983 735.612 C 653.249023 731.859985 653.643982 727.890015 654.914978 724.22998 C 655.473022 722.624023 656.127991 721.116028 657.776978 720.463013 C 662.75 718.492981 697.146973 715.958008 701.411011 717.786987 C 702.223999 719.281006 701.992004 720.63501 701.880981 722.263977 C 700.585022 727.971008 699.866028 734.018982 698.236023 739.593994 C 697.322998 741.758972 696.142029 743.809021 695.028992 745.877014 Z"/>
    <path id="path40" fill="#a48c7c" stroke="none" d="M 691.776001 722.679016 C 692.994995 722.510986 693.656982 722.302002 694.833984 722.786987 C 693.328979 728.453003 692.573975 733.888977 692.294006 739.741028 C 681.567017 742.075989 670.049011 742.758972 659.117004 743.685974 C 658.539001 743.856995 657.999023 743.775024 657.401001 743.752014 C 657.346985 743.60498 657.276001 743.463989 657.241028 743.312012 C 656.656006 740.801025 659.905029 728.179016 661.445984 725.872009 C 665.408997 724.661987 670.765015 724.906006 674.940002 724.601013 C 680.614014 724.187012 686.161987 723.60199 691.776001 722.679016 Z"/>
    <path id="path41" fill="#e2dac4" stroke="none" d="M 471.876007 206.575012 C 500.79599 205.416992 528.739014 211.416016 555.973999 220.781982 C 549.476013 224.872009 543.047974 229.005981 536.757996 233.408997 C 528.437988 239.353027 520.177979 245.580017 511.494995 250.984985 C 497.606995 241.528015 477.246002 222.40802 471.876007 206.575012 Z"/>
    <path id="path42" fill="#a48c7c" stroke="none" d="M 638.390991 937.55603 C 646.151978 944.072998 669.921997 958.390015 679.015991 961.919006 C 673.802002 963.385986 668.208008 963.909973 662.848022 964.632019 C 643.921021 967.179993 625.690979 967.825989 606.620972 967.718994 C 594.870972 967.210327 583.157308 966.256002 571.47998 964.856018 C 569.325989 959.557007 568.059998 953.896973 566.200989 948.484009 C 569.258321 948.553996 572.315653 948.557658 575.372986 948.494995 C 578.429667 948.432983 581.484009 948.304647 584.536011 948.109985 C 587.588013 947.915324 590.634013 947.654663 593.674011 947.328003 C 596.714661 947.001994 599.746663 946.609985 602.77002 946.151978 C 605.793335 945.694661 608.805664 945.171997 611.807007 944.583984 C 614.807658 943.996012 617.794332 943.343018 620.767029 942.625 C 623.739685 941.907674 626.695333 941.126343 629.633972 940.281006 C 632.572652 939.43632 635.491659 938.527995 638.390991 937.55603 Z"/>
    <path id="path43" fill="#f4f1e1" stroke="none" d="M 741.289001 671.370972 C 742.471985 677.132996 740.911011 683.838989 740.640991 689.716003 C 739.916016 705.557983 738.377014 721.377991 736.947998 737.166016 C 734.205017 767.484009 730.612 798.054993 722.934021 827.585022 C 719.859009 829.327026 716.169006 830.419983 712.94397 831.965027 C 708.213989 834.22998 703.835022 837.127014 698.963013 839.09198 C 709.249023 803.46698 719.111023 767.987 725.70697 731.442993 C 727.698975 720.406006 728.687012 708.909973 729.840027 697.739014 C 730.268982 693.575012 730.051025 688.947998 731.010986 684.890991 C 732.039978 680.541016 738.416016 674.705017 741.289001 671.370972 Z"/>
    <path id="path44" fill="#a48c7c" stroke="none" d="M 388.554993 949.174988 C 388.683014 949.239014 388.812988 949.301025 388.938995 949.369019 C 394.255005 952.237 423.343994 971.609009 424.829987 976.544006 L 424.406006 976.953979 C 419.609009 978.322998 413.763 978.291992 408.772003 978.55603 C 388.444 979.630981 367.830994 979.526978 347.623993 976.724976 C 337.083008 975.68103 326.670013 973.14801 316.104004 972.336975 C 313.371002 966.921021 311.72699 961.179993 309.989014 955.393005 C 329.199005 956.66803 348.256989 956.43103 367.348999 953.458008 C 374.455994 952.35199 381.510986 950.63501 388.554993 949.174988 Z"/>
    <path id="path45" fill="#c2b49e" stroke="none" d="M 471.739014 193.317993 C 476.613007 192.747986 481.647003 192.932983 486.546997 192.936035 C 506.661987 192.945984 526.986023 194.515991 546.61499 199.127014 C 557.369019 201.653015 567.935974 205.393005 578.593994 208.359009 C 571.70697 211.063965 565.343018 215.182007 559.125977 219.150024 C 544.778015 211.582031 528.997009 207.979004 513.133972 205.098999 C 502.384003 203.14801 481.156006 200.124023 470.824005 202.500977 C 469.197998 202.875977 467.878998 203.770996 466.527008 204.708008 C 470.990997 219.244019 484.709015 234.395996 496.153992 244.182983 C 499.847992 247.34198 503.953003 249.914001 507.708008 252.981995 L 508.102997 253.309021 C 504.553986 256.825012 500.067993 259.196045 496.44101 262.656006 C 493.623667 260.487996 490.863993 258.248983 488.161987 255.938965 C 485.460002 253.628337 482.819672 251.25002 480.240997 248.804016 C 477.661672 246.357361 475.147339 243.845683 472.697998 241.268982 C 470.248006 238.693014 467.866343 236.055359 465.553009 233.356018 C 463.239675 230.657328 460.997335 227.90033 458.825989 225.085022 C 456.655334 222.270365 454.558339 219.401693 452.535004 216.479004 C 450.511668 213.555664 448.565338 210.582336 446.696014 207.559021 C 444.825999 204.535665 443.035329 201.465983 441.324005 198.349976 C 446.313344 197.085978 451.347341 196.033651 456.425995 195.192993 C 461.503998 194.352987 466.608337 193.727987 471.739014 193.317993 Z"/>
    <path id="path46" fill="#a48c7c" stroke="none" d="M 703.088989 228.695007 C 712.083008 227.813965 720.758972 228.773987 729.119995 232.245972 C 747.085022 239.707031 759.68103 256.926025 766.91803 274.422974 C 777.724976 300.551025 783.182007 334.109985 771.896973 360.978027 C 765.114014 377.125977 753.015991 387.317993 736.958008 393.718018 C 714.354004 402.726013 687.073975 405.900024 664.210022 396.025024 C 648.130981 389.080994 638.557983 379.078979 632.138 362.761963 C 627.528015 351.045044 625.007019 339.572021 623.528992 327.104004 C 623.239014 324.653992 622.422974 321.070007 623.41803 318.783997 C 623.869019 318.677979 624.315002 318.551025 624.770996 318.466003 C 626.840027 318.080994 628.215027 317.01001 629.914978 315.859009 C 631.991028 335.447021 635.479004 357.245972 647.632019 373.375 C 657.231995 386.11499 672.406006 392.703979 687.877991 394.85199 C 708.744019 396.588013 731.075012 392.572021 748.104004 379.73999 C 761.362 369.75 769.080994 356.68103 771.213989 340.301025 C 774.76001 313.052979 768.588989 280.862 751.580994 258.942993 C 742.815979 247.646973 729.43103 239.187988 715.04303 237.567993 C 693.817017 235.177979 667.476013 244.638 651.107971 257.952026 C 638.377014 268.307983 630.711975 280.242004 629.594971 296.803955 C 629.244019 302.016968 629.763977 307.255005 629.19397 312.457031 C 629.171997 312.656982 629.145996 312.858032 629.120972 313.057983 C 626.844971 313.085999 624.562988 313.375977 622.297974 313.593018 C 624.393982 292.303955 624.078979 277.296021 637.309021 259.302002 C 641.224976 253.976013 645.817017 250.341003 651.242981 246.656006 C 667.226013 235.804016 684.247986 231.507019 703.088989 228.695007 Z"/>
    <path id="path47" fill="#f4f1e1" stroke="none" d="M 686.903015 570.325012 C 689.510986 571.934998 691.291992 583.312012 692.080017 586.481995 C 686.820007 602.702026 680.072998 618.387024 673.245972 633.98999 C 669.521973 642.502014 665.994995 651.559998 660.981995 659.401001 C 664.458008 669.161987 686.755005 701.885986 694.541992 708.562988 C 686.982666 708.866333 679.427999 709.255005 671.877991 709.729004 C 667.315002 710.057983 662.372009 711.080994 657.827026 710.690002 C 654.364014 711.156006 651.989014 711.156982 649.664001 713.969971 C 649.294006 714.416992 648.937012 714.877991 648.526978 715.291016 C 645.888977 717.945984 629.531006 716.942993 625.028015 716.966003 C 628.960022 709.099976 631.492004 700.518005 634.69397 692.338013 C 646.799011 661.419006 658.762024 630.958984 666.442993 598.591003 C 667.44397 594.369995 669.421997 589.309021 669.742981 585.054993 C 676.705017 581.357971 681.645996 576.070984 686.903015 570.325012 Z"/>
    <g id="cravatta">
        <path id="path48" fill="#c2b49e" stroke="none" d="M 712.955994 536.322998 C 715.268982 537.838013 726 559.882019 727.478027 563.380981 C 728.453979 565.690002 729.164001 567.987 729.734985 570.422974 C 729.005981 572.400024 728.43103 574.38501 727.885986 576.419006 C 721.409973 578.070984 714.713989 578.901978 708.116028 579.927002 C 704.703979 580.22699 701.281006 580.780029 697.882019 581.218994 C 696.580994 575.120972 694.955017 569.724976 692.294006 564.073975 C 700.143005 555.776978 706.882019 545.966003 712.955994 536.322998 Z"/>
        <path id="path49" fill="#c2b49e" stroke="none" d="M 723.768005 585.737 L 724.502991 585.791992 C 724.997009 586.580017 730.705994 639.492004 731.547974 646.09198 C 732.494995 653.505981 734.083008 660.797974 734.999023 668.203003 C 723.192017 679.870972 712.452026 691.94397 699.820984 702.822998 L 691.661987 692.664001 C 682.905029 682.768982 676.19397 670.307983 669.119995 659.185974 C 671.846008 653.434998 675.138 647.958008 677.890991 642.211975 C 684.554993 628.302002 694.926025 603.242981 698.198975 588.585999 C 698.27301 588.583984 698.346985 588.580994 698.421021 588.578979 C 706.828003 588.413025 715.411987 586.75 723.768005 585.737 Z"/>
    </g>
    <path id="path50" fill="#f4f1e1" stroke="none" d="M 400.153992 940.512024 C 396.220001 933.950989 394.341003 917.20697 392.382996 908.833984 C 391.572998 905.372009 390.36499 902.036987 389.571991 898.562988 C 406.582001 901.731995 424.04599 904.380005 441.253998 906.179016 C 454.708669 907.570333 468.193339 908.550985 481.708008 909.120972 C 492.575012 909.497009 526.966003 909.278992 537.02301 906.562012 C 538.065979 906.280029 538.971008 905.437988 539.786987 904.765991 C 539.942017 904.638977 540.093994 904.507996 540.247009 904.380005 C 544.052002 910.731018 546.905029 926.60498 550.677979 934.78302 L 550.981995 935.43103 C 547.429016 936.79303 542.624023 936.646973 538.849976 936.796997 C 525.278015 937.338989 511.631989 936.968018 498.045013 937.22699 C 477.858999 937.775004 457.679657 938.512675 437.506989 939.440002 C 430.895996 939.72998 404.833008 942.119995 400.730988 940.77002 C 400.531006 940.703979 400.346008 940.598022 400.153992 940.512024 Z"/>
    <path id="path51" fill="#f4f1e1" stroke="none" d="M 498.506989 661.833008 C 505.291992 671.317993 511.59201 681.637024 519.10199 690.51001 C 515.711975 696.908997 510.187012 702.953003 505.617004 708.557007 C 480.941986 738.815002 451.199005 768.192993 418.046997 789.129028 C 414.733002 791.221985 403.13501 799.429016 399.598999 798.627991 C 391.645996 791.838013 384.411987 784.116028 376.708008 777.028015 C 380.338664 775.825989 383.903666 774.452983 387.403015 772.908997 C 417.597992 759.322021 453.506012 725.044006 474.216003 699.148987 C 477.984985 694.435974 481.247009 689.403992 484.720001 684.47699 C 489.806 677.263977 495.328003 670.138 498.506989 661.833008 Z"/>
    <path id="path52" fill="#f4f1e1" stroke="none" d="M 872.398987 226.690979 C 873.161011 226.541016 873.874023 226.463013 874.651001 226.487 C 885.361023 226.809998 894.10498 229.362 901.505981 237.427002 C 914.471985 251.557983 916.590027 271.188965 915.700989 289.515991 C 915.018005 303.624023 910.406982 320.06604 899.627014 329.791016 C 894.5 328.291016 889.473022 326.27002 884.380981 324.61499 C 881.651001 323.662964 879.020996 322.658997 876.890015 320.636963 C 863.067993 307.519043 843.021973 260.445007 833.603027 242.198975 C 843.695007 231.575989 858.515015 228.669006 872.398987 226.690979 Z"/>
    <g id="vestito">
        <path id="path53" fill="#a48c7c" stroke="none" d="M 624.932983 865.028992 C 626.140991 866.049011 627.083008 880.307983 627.481995 883.122986 C 629.593994 897.992004 631.877991 913.492981 635.507019 928.060974 C 615.651001 934.971985 595.14801 938.356018 574.143005 939.060974 C 570.763977 939.174011 566.051025 939.710999 562.773987 938.80603 C 561.20697 938.372986 561.109985 937.546021 560.474976 936.236023 C 555.372009 921.932983 552.512024 906.294006 545.075012 892.913025 C 546.679016 889.906006 548.340027 886.965027 550.107971 884.051025 C 576.90802 880.250977 599.500977 874.64502 624.932983 865.028992 Z"/>
        <path id="path54" fill="#a48c7c" stroke="none" d="M 278.729004 869.588013 C 299.584991 877.578979 321.227997 884.578979 343.071014 889.338989 C 355.247009 891.992004 367.803986 893.328979 379.84201 896.552002 C 383.147003 908.109009 388.031006 927.122009 389.217987 938.794006 L 383.881989 940.250977 C 370.432007 942.773987 357.013 945.434998 343.329987 946.344971 C 334.592987 946.924988 325.76001 946.564026 317.018005 946.286987 C 312.380005 946.140015 306.394012 946.60199 302.205994 944.489014 C 297.039001 938.465027 281.115997 880.234009 278.729004 869.588013 Z"/>
        <path id="path55" fill="#a48c7c" stroke="none" d="M 707.750977 749.487976 C 708.661987 749.445007 709.349976 749.502991 710.242981 749.629028 C 710.799988 751.780029 709.90802 755.018982 709.541016 757.203979 C 707.327026 770.385986 703.603027 784.072998 697.499023 796.018982 C 681.177002 827.963989 638.940002 850.799988 605.804993 861.499023 C 599.294983 863.601013 559.72998 875.039978 555.067993 872.64801 C 562.038025 857.195007 569.703979 842.085022 576.723999 826.655029 C 587.668009 802.477661 598.407003 778.20931 608.940979 753.849976 C 618.763977 755.219971 628.750977 754.452026 638.489014 755.708984 C 641.575989 756.107971 644 758.481995 647.036987 758.892029 C 653.625 759.78302 690.973999 755.885986 698.119019 754.020996 C 701.812988 753.05603 704.72699 751.901001 707.750977 749.487976 Z"/>
    </g>
    <path id="path56" fill="#f4f1e1" stroke="none" d="M 181.046997 766.814026 C 184.794998 770.260986 189.190994 773.078003 193.354996 776.007019 C 213.313004 790.04303 234.606003 801.320007 257.088989 810.755981 C 264.991659 814.148641 272.959991 817.379639 280.993988 820.448975 C 289.028005 823.518311 297.120677 826.423319 305.272003 829.164001 C 313.424001 831.904683 321.628001 834.479024 329.884003 836.887024 C 338.140004 839.295024 346.441671 841.534688 354.789001 843.606018 C 363.136332 845.677348 371.522003 847.578349 379.946014 849.309021 C 388.370005 851.040344 396.825663 852.59967 405.312988 853.987 C 413.801005 855.37498 422.313344 856.590312 430.850006 857.632996 C 439.386668 858.674988 447.940999 859.54366 456.513 860.239014 C 470.960999 861.367981 485.307007 861.374023 499.777008 861.802979 C 494.334991 872.099976 489.197998 882.810974 484.483002 893.461975 C 483.739014 895.145996 483.113007 896.633972 481.890015 898.025024 C 476.039001 900.200989 465.640991 898.192993 459.460999 897.666016 C 439.094991 895.946004 418.82666 893.435994 398.656006 890.135986 C 378.485331 886.835978 358.473663 882.756307 338.621002 877.896973 C 290.634003 865.973022 237.832993 845.721985 196.216995 819.062012 C 188.112 813.869019 177.888 807.79303 172.830994 799.401001 C 173.688995 789.179993 176.436996 776.049988 181.046997 766.814026 Z"/>
    <path id="path57" fill="#f4f1e1" stroke="none" d="M 388.52301 391.903992 C 391.837006 394.212036 394.964996 397.812988 398.113007 400.458984 C 407.286987 408.172974 416.563995 415.884033 426.470001 422.648987 C 484.082001 461.989014 538.864014 485.484985 606.052002 504.209961 C 624.242981 509.278992 642.432983 514.16803 660.953003 517.909973 C 647.172974 526.820007 633.583008 536.017029 619.747009 544.853027 C 607.46698 552.958984 595.203003 561.794983 582.530029 569.221985 C 574.117981 565.184998 566.335022 557.987 558.757019 552.45697 C 549.174011 545.463989 539.27301 538.827026 529.541016 532.033997 C 504.092987 514.273987 477.828003 498.169006 452.592987 479.875 C 437.332001 468.812012 421.858002 457.579956 407.123993 445.838989 C 394.901001 436.098022 383.109985 425.68396 370.737 416.161011 C 377.108002 408.448975 382.164001 399.688965 388.52301 391.903992 Z"/>
    <path id="path58" fill="#f4f1e1" stroke="none" d="M 664.36499 526.916016 C 665.002991 527.049988 664.68103 526.898987 665.244019 527.518005 C 666.669006 549.606995 662.5 579.950989 657.057007 601.172974 C 645.625977 645.741028 626.892029 690.796021 608.507996 732.965027 C 604.859009 741.335022 600.851013 749.544983 597.203003 757.914978 C 580.504354 797.156311 562.647013 835.862976 543.630981 874.034973 C 539.754028 881.736023 536.419006 889.650024 532.299988 897.236023 C 520.09198 897.393982 507.899994 900.370972 495.562988 898.817993 C 494.152008 898.640015 492.79599 898.612 491.375 898.622009 C 489.928009 898.54303 489.222992 898.637024 487.972992 897.86499 C 496.394989 879.801025 505.665985 862.119019 514.416992 844.210022 L 557.205017 754.690002 C 567.874023 731.921021 578.817993 709.156006 588.73999 686.047974 C 595.101013 671.231995 600.762024 656.125 606.620972 641.109009 C 610.356995 631.53302 614.411011 622.010986 617.815002 612.312988 C 618.804016 609.494995 619.401978 606.565979 620.357971 603.742981 C 626.994019 584.143005 634.767029 564.642029 638.299988 544.155029 C 646.89502 538.182983 655.335999 532.231018 664.36499 526.916016 Z"/>
    <path id="path59" fill="#50392e" stroke="none" d="M 563.638977 776.088013 C 566.322998 776.531006 568.620972 777.262024 570.577026 779.254028 C 573.09198 781.814026 573.471985 784.880981 573.47998 788.312988 C 571.203979 792.612976 569.627991 795.021973 564.960999 796.75 C 563.508972 796.703979 562.010986 796.619019 560.661987 796.031006 C 558.125 794.924988 556.132996 793.065979 555.210022 790.416016 C 554.236023 787.624023 554.666016 784.367981 556.065002 781.791992 C 557.789001 778.61499 560.231018 777.008972 563.638977 776.088013 Z"/>
    <path id="path60" fill="#50392e" stroke="none" d="M 605.312988 679.622986 C 606.515015 679.715027 607.768982 679.791016 608.91803 680.179993 C 611.445984 681.036987 613.63501 682.953003 614.734009 685.393005 C 615.981995 688.161987 615.869995 691.377014 614.651978 694.132019 C 613.101013 697.638977 610.64502 699.218018 607.179016 700.547974 C 605.492981 700.577026 603.564026 700.690002 601.945007 700.153992 C 599.60199 699.380005 597.547974 697.541992 596.599976 695.257996 C 595.570007 692.776978 595.815002 689.768982 596.820007 687.323975 C 598.52301 683.18103 601.312012 681.278015 605.312988 679.622986 Z"/>
    <path id="path61" fill="#50392e" stroke="none" d="M 638.190002 583.059998 C 640.499023 582.630005 642.677979 583.200989 644.953979 583.616028 C 648.619019 586.440979 649.620972 588.411011 650.624023 592.822021 C 650.380005 593.713338 650.126322 594.60199 649.862976 595.487976 C 648.604004 599.593018 646.755005 601.427002 643.026978 603.398987 C 640.481995 604.018982 637.51001 604.328003 635.156982 602.916016 C 632.150024 601.112976 631.189026 597.754028 630.344971 594.590027 C 631.94397 589.625 633.656982 585.911987 638.190002 583.059998 Z"/>
    <path id="path62" fill="#f4f1e1" stroke="none" d="M 704.27301 243.192993 C 704.47998 243.153015 704.684021 243.093994 704.893982 243.072021 C 717.268005 241.765015 731.825012 246.93103 741.044006 255.130005 C 757.932007 270.14801 764.916016 296.973022 765.992004 318.740967 C 766.828003 335.671997 765.486023 352.557983 753.557983 365.643005 C 743.231018 376.971985 727.252014 383.794006 712.242981 385.875 C 707.098999 386.588989 701.809998 386.596008 696.624023 386.821045 C 684.455994 387.485962 669.330994 383.466003 659.796021 375.703979 C 642.348999 361.502014 636.893005 336.64801 634.729004 315.204956 C 633.099976 299.072998 633.861023 284.452026 644.515015 271.549988 C 658.804993 254.244019 682.463013 245.312012 704.27301 243.192993 Z"/>
    <path id="path63" fill="#50392e" stroke="none" d="M 688.304016 281.049011 C 690.620972 281.031006 692.737 281.271973 694.890991 282.195007 C 700.877014 284.757996 705.603027 292.301025 707.776978 298.278992 C 710.33197 305.304993 710.890991 314.995972 707.650024 321.843994 C 705.609985 326.153992 702.625 328.572998 698.174988 330.094971 C 695.630981 330.208984 693.385986 330.230957 691.020996 329.150024 C 684.507996 326.174988 680.202026 319.283997 677.958984 312.698975 C 675.445984 305.317017 675.098999 295.39502 678.835022 288.355957 C 681.059021 284.166992 683.864014 282.372986 688.304016 281.049011 Z"/>
    <path id="path64" fill="#f4f1e1" stroke="none" d="M 421.743988 468.921021 C 421.950989 468.97998 422.167999 469.010986 422.365997 469.096008 C 427.545013 471.328003 436.308014 479.312988 441.365997 483.049988 C 448.184998 488.087036 456.434998 492.690002 462.533997 498.492004 C 471.367004 506.894043 478.580994 532.361023 482.191986 544.197021 C 479.114014 548.841003 474.14801 552.075989 470.339996 556.127014 C 457.082001 570.234985 445.269012 584.672974 437.765991 602.737976 C 420.910004 598.216003 400.428009 592.335999 383.141998 596.843018 C 403.104004 599.424011 425.819 602.867004 443.928009 611.932983 C 441.487 615.557007 438.945007 619.146973 436.798004 622.955994 C 420.302002 630.273987 402.697998 634.710999 385.888 641.195007 C 390.67099 640.400024 395.515015 640.031006 400.299011 639.176025 C 412.359985 637.020996 424.696991 632.60199 435.497986 626.93103 C 440.826996 639.405029 448.639008 651.039978 455.548004 662.708008 C 457.561005 666.848999 460.346985 670.690979 462.860992 674.54303 C 458.701996 680.262024 453.605988 685.455017 448.64801 690.484009 C 443.808014 695.390991 438.911987 700.33197 433.522003 704.638 C 415.862 718.745972 393.420013 728.041016 371.562012 733.153992 C 367.171997 727.98999 363.334991 721.140991 359.806 715.327026 C 347.723999 695.419006 326.877991 656.776978 324.738007 633.562012 C 324.200989 627.739014 325.235992 621.869995 326.632996 616.234985 C 335.863007 578.992981 363.041992 541.252014 383.588989 509.254028 C 386.484009 504.744995 387.777008 499.070007 391.154999 494.914001 C 395.046997 490.125 416.196991 472.252014 421.743988 468.921021 Z"/>
    <path id="path65" fill="#f4f1e1" stroke="none" d="M 365.648987 423.35199 C 372.278015 426.737 384.441986 439.363037 390.867004 444.768005 C 399.782013 452.268005 409.256989 459.299988 418.688995 466.132996 C 411.202993 472.499654 403.648661 478.784322 396.026001 484.987 C 390.977997 489.130005 385.48999 493.030029 381.292999 498.067993 C 374.088013 506.718018 368.220001 515.978027 361.953003 525.291016 C 357.98999 531.179016 353.733002 536.903992 349.980988 542.927002 C 335.484985 566.197998 312.914001 608.521973 315.651001 635.533997 C 318.442993 663.091003 345.636993 711.765015 361.29599 735.68103 C 365.752991 742.487976 370.811005 751.234009 377.252014 756.242981 C 383.917999 761.427979 394.411987 758.143982 402.018005 757.062988 C 390.558014 763.853027 379.407013 768.619995 366.498993 771.965027 C 372.253998 778.973022 379.196991 786.080994 385.730011 792.411011 C 390.056 796.601013 394.786011 800.494995 398.463013 805.289001 L 399.203003 805.05603 C 406.265991 802.796997 412.726013 798.520996 418.976013 794.594971 C 454.563995 772.237 485.595001 741.408997 511.774994 708.742004 C 514.674988 705.122986 521.698975 697.630981 523.302002 693.661987 C 523.883972 692.218018 523.062012 690.171021 522.473999 688.817993 C 518.799988 680.369995 511.998993 672.619995 506.764008 665.093994 C 504.807007 662.281006 503.369995 658.937012 501.089996 656.369995 C 500.17099 655.335022 499.355011 654.744995 498.071991 654.257019 C 492.772003 655.192993 481.358002 675.994019 477.075989 680.86499 C 476.941986 681.018005 476.803986 681.166992 476.667999 681.317993 C 473.084991 675.198975 468.980011 669.38501 465.34201 663.289978 C 458.425995 651.702026 451.863007 639.846008 445.231995 628.091003 C 447.667999 624.460022 455.809998 615.338013 454.850006 611.064026 C 454.065002 607.567017 449.592987 605.637024 446.825012 603.986023 C 452.325012 588.276001 464.753998 572.789001 475.18399 559.849976 C 479.149994 554.929016 483.481995 550.219971 486.885986 544.882019 C 484.649994 539.106018 483.471985 532.77002 481.535004 526.853027 C 478.946014 518.945007 475.231995 511.740967 471.445007 504.36499 C 483.265991 511.995972 494.770996 520.098022 506.480988 527.896973 C 527.359985 541.804016 548.257996 555.596008 568.372986 570.60199 C 571.177002 572.789978 576.226013 578.112976 579.713989 578.474976 C 587.218994 579.252014 605.473022 564.921021 612.127014 560.557007 C 619.086324 556.010335 626.070658 551.502665 633.080017 547.033997 C 629.815979 565.22998 621.455994 587.301025 615.208984 604.841003 C 592.273987 669.234985 563.521973 731.370972 533.890015 792.924011 L 516.947998 827.419006 C 512.125 837.393982 507.477997 847.937988 501.671997 857.379028 C 487.050995 856.091003 472.332001 856.070984 457.721985 854.539978 C 377.796997 846.164978 294.22699 827.833008 223.501999 788.26001 C 210.996002 781.262024 192.759003 771.398987 182.412994 761.663025 C 184.880005 753.210022 188.742004 745.179993 192.292007 737.143982 L 202.179993 714.208984 C 238.406998 630.367004 285.104004 548.354004 333.934998 471.230957 C 340.291992 461.19104 346.878998 451.344971 353.382996 441.406006 C 357.386993 435.286987 360.924011 428.979004 365.648987 423.35199 Z"/>
    <path id="path66" fill="#f4f1e1" stroke="none" d="M 708.651001 165.507019 C 717.869019 165.252014 742.846985 175.150024 751.481995 179.182983 C 755.299011 180.96698 760.515991 184.723022 764.549988 185.364014 C 765.307007 184.710999 765.322998 184.973022 765.374023 184.089966 C 765.586975 180.403992 760.896973 175.078003 758.781982 172.263 C 783.215027 186.479004 804.770996 209.207031 819.054993 233.386963 C 817.515015 235.424988 816.098999 237.609009 814.807007 239.812012 C 809.85199 248.255981 806.187988 260.438965 808.799011 270.190002 C 809.109985 271.348999 809.314026 272.156982 809.213989 273.379028 C 804.047974 277.096008 785.078979 279.513 777.926025 283.187988 C 777.79303 283.255981 777.661987 283.329956 777.530029 283.401001 C 770.687012 263.910034 761.268005 247.054016 744.888977 233.999023 C 730.651978 222.651978 712.927979 220.237 695.257996 222.289978 C 671.685974 225.028992 646.119019 236.221985 631.228027 255.261963 C 621.692017 267.453979 616.685974 285.708984 618.580994 301.06897 C 587.752991 300.594971 557.838013 305.067017 528.28302 313.745972 C 515.409668 317.550659 502.815999 322.125671 490.502014 327.471008 C 473.678009 334.906006 439.304993 353.114014 430.484985 369.283997 C 430.480988 371.098999 430.317993 373.244995 430.721985 375.02301 C 431.274994 377.463013 433.192993 378.588989 435.192993 379.756958 C 435.745667 381.954956 436.310669 384.149984 436.888 386.342041 C 439.601013 396.463013 445.382996 406.797974 454.721985 412.124023 C 461.203003 415.820007 468.218994 417.046997 475.463989 414.905029 C 482.924011 412.700012 489.531006 406.731995 493.066986 399.859985 C 500.558014 385.299011 496.065002 364.177979 491.253998 349.440002 C 502.966003 345.561035 514.612976 341.401001 526.442993 337.896973 C 553.85498 329.776978 588.872009 322.171021 617.343994 320.112 C 617.305339 321.906637 617.296346 323.701294 617.317017 325.495972 C 617.573975 340.848999 623.171021 362.150024 630.929993 375.459961 C 634.14801 380.981995 638.659973 386.459961 643.280029 390.854004 C 656.994019 403.893005 680.208008 409.139038 698.588989 408.516968 C 721.471008 407.742004 749.481995 399.073975 765.442993 381.919006 C 785.661987 360.186035 783.80603 336.511963 782.89502 309.150024 C 791.39801 305.546997 800.606018 302.872986 809.409973 300.067993 C 813.320984 298.822021 817.603027 297.05896 821.624023 296.333008 C 822.969971 296.089966 823.429993 296.325989 824.669983 296.807983 C 837.247986 314.218018 873.85498 331.259033 894.520996 337.143005 C 899.499674 338.539001 904.536682 339.678345 909.632019 340.561035 C 912.986023 341.156982 916.564026 341.427979 919.802002 342.497986 C 920.810974 342.830994 920.804016 342.64502 921.286987 343.627014 C 920.778992 344.85199 920.380981 345.843018 920.512024 347.187988 C 920.755005 349.692017 920.302002 352.244019 920.177979 354.752991 C 919.893005 360.513 921.502991 366.815002 924.80603 371.55603 C 929.028015 377.618042 935.669983 381.06604 942.799011 382.30896 C 937.382019 391.670044 930.39801 399.869019 922.97699 407.68103 C 881.099976 451.763 821.406982 472.273987 766.969971 496.130005 C 749.703979 503.696045 725.242981 513.872009 711.601013 526.55603 C 699.083984 526.47699 686.442017 525.346008 673.966003 524.362976 L 673.950989 523.403992 C 673.919006 519.400024 673.460999 517.187012 671.487 513.679016 C 662.721008 507.30603 644.137024 505.083008 633.280029 502.278015 C 619.669006 498.760986 605.952026 495.224976 592.468018 491.260986 C 577.448975 486.846985 562.528015 481.570007 547.848022 476.132996 C 542.471354 474.106995 537.129354 471.994344 531.822021 469.795044 C 526.513997 467.595011 521.243327 465.309326 516.01001 462.937988 C 510.776672 460.56665 505.583333 458.111003 500.429993 455.571045 C 495.276672 453.030355 490.166005 450.406677 485.097992 447.700012 C 480.029999 444.993347 475.00767 442.204997 470.031006 439.334961 C 465.05367 436.464315 460.124339 433.513672 455.243011 430.483032 C 450.361664 427.452352 445.530996 424.343343 440.751007 421.156006 C 435.97167 417.968018 431.245005 414.703003 426.571014 411.360962 C 415.132996 403.151001 404.526001 393.983032 393.328003 385.474976 C 399.574005 376.481995 406.697998 368.178955 413.546997 359.651001 C 431.56601 337.218994 450.131012 315.723999 470.868988 295.738037 C 522.768005 245.71698 602.825012 189.869995 675.515991 180.708984 C 681.89266 179.861654 688.296672 179.358663 694.728027 179.200012 C 701.158691 179.042013 707.579346 179.229329 713.98999 179.761963 C 718.570007 180.124023 723.401001 181.505005 727.922974 181.585999 L 728.083984 180.567017 C 725.484009 174.289001 714.198975 170.106018 708.999023 165.802979 C 708.882019 165.705994 708.767029 165.606018 708.651001 165.507019 Z"/>
    <path id="path67" fill="#50392e" stroke="none" d="M 722.825989 450.603027 C 722.723022 450.585999 722.622009 450.549988 722.518005 450.552979 C 719.510986 450.653992 713.036987 464.266968 710.419983 466.89801 C 709.638 467.68396 710.052002 467.509033 709.054016 467.536011 C 708.999023 467.365967 708.927002 467.200989 708.888977 467.026978 C 707.929993 462.629028 711.802002 455.712036 714.221008 452.170044 C 720.208008 443.405029 726.684021 437.584961 737.330994 435.583008 C 732.630981 439.692993 726.742004 443.786987 723.137024 448.889038 L 723.627014 449.52301 C 730.268005 452.344971 736.934998 455.403992 743.77002 457.721985 C 770.208008 466.688965 796.182007 464.947021 823.184021 460.138 C 809.033997 470.200012 781.218994 471.396973 764.570007 468.643005 C 754.434998 466.966003 729.125977 460.419006 723.14801 451.140991 C 723.034973 450.964966 722.932983 450.781982 722.825989 450.603027 Z"/>
    <path id="chioma" fill="#a48c7c" stroke="none" d="M 624.047974 53.685181 C 625.296021 52.789612 625.640015 52.418823 627.174988 52.708618 C 632.388 53.692871 638.414001 57.904785 643.528015 57.890076 C 659.887024 67.340088 675.718018 79.453369 687.758972 94.040283 C 691.97998 99.15448 695.411011 104.927979 699.646973 110.000977 L 700.333008 109.747009 L 700.504028 110.122986 L 699.935974 110.333984 L 700.755005 111.038025 C 703.210022 105.922974 693.866028 66.596008 691.414001 59.077515 L 692.015991 59.406189 C 710.796997 69.783386 735.929993 97.109802 745.937988 115.814026 C 748.395996 120.406982 753.267029 135.721008 756.231995 138.108032 C 757.911011 137.294983 758.405029 135.589966 758.978027 133.94397 C 763.825989 120.02301 763.406006 111.552002 765.158997 97.700317 C 778.169983 125.638 783.299988 152.791992 784.44397 183.437012 C 778.992004 178.823975 756.986023 163.047974 750.820984 163.809998 C 750.651001 163.830994 750.491028 163.89801 750.325989 163.942993 L 750.122009 164.854004 C 753.236023 169.719971 757.315002 173.870972 760.369019 178.771973 C 746.747986 170.252991 711.094971 155.789001 695.335999 160.141968 C 694.286011 160.432007 693.833008 160.721008 693.171021 161.606018 C 693.281006 162.872986 693.46698 163.492004 694.422974 164.39502 C 698.036011 167.807007 707.749023 171.247009 712.661987 174.377991 L 713.320007 174.789978 L 713.710999 175.041992 C 680.033997 170.676025 643.414978 179.580017 612.534973 192.796021 C 609.203003 194.221985 588.078979 204.309998 586.450989 204.561035 L 587.307007 204.247009 C 547.281006 187.601013 510.257996 180.786987 466.923004 184.64801 C 457.645996 185.473999 446.763 186.330994 438.139008 189.841003 C 434.678986 191.249023 432.290009 192.601013 430.820007 196.182983 C 430.681335 196.524984 430.546661 196.868327 430.415985 197.213013 C 439.790985 218.348022 468.67099 256.377991 488.337006 268.089966 L 489.113007 268.557007 C 478.674988 278.062988 467.63501 286.769043 457.684998 296.848999 C 444.10966 310.798991 430.980326 325.156657 418.296997 339.921997 C 405.613668 354.687337 393.400665 369.831991 381.65799 385.355957 C 367.557007 404.182983 354.496002 423.603027 341.265991 443.028015 C 320.295329 473.925354 300.306 505.444682 281.298004 537.585999 C 262.289998 569.728007 244.300329 602.430013 227.328995 635.692017 C 213.472336 663.680664 200.180669 691.935323 187.453995 720.455994 C 182.673004 731.034973 179.401993 743.411011 173.429001 753.301025 C 171.914993 755.809021 169.410004 757.469971 167.410004 759.539001 C 167.626999 752.583984 171.401993 742.609985 169.410995 736.04303 C 168.903 734.366028 167.806 733.801025 166.399002 732.950012 C 168.425995 729.916992 170.147995 727.752014 170.225998 723.987 C 169.860992 723.289978 169.850998 722.822021 169.046005 722.559021 C 166.552002 721.742004 163.365005 723.564026 161.287003 724.804993 C 151.768997 730.486023 143.011002 738.078979 133.186996 743.158997 C 129.210007 736.29303 142.906006 704.890991 144.240997 695.307007 C 143.695999 693.875977 143.158997 693.752991 141.906998 692.929016 C 141.994003 692.705994 142.078003 692.47998 142.167999 692.257996 C 143.334 689.375977 147.460999 685.927979 146.5 682.791992 C 145.666 681.888 145.056 681.198975 143.75 681.125 C 138.723999 680.838013 107.877998 701.913025 99.077103 705.401978 C 102.260002 692.228027 108.162003 678.687012 114.047997 666.497986 C 116.441002 661.544006 119.197998 656.684998 121.401001 651.651001 C 122.007004 650.265991 122.018997 649.367004 121.830002 647.880005 C 121.888 647.702026 121.932999 647.518005 122.004997 647.343994 C 123.787003 643.065002 132.406998 637.090027 130.125 632.099976 C 129.535004 630.809021 128.869995 630.664001 127.652 630.232971 C 119.655998 631.05603 92.808403 648.478027 82.824699 652.599976 C 84.345497 640.974976 95.992302 620.22998 102.485001 609.97998 C 104.935997 606.112 121.888 583.520996 121.981003 582.452026 C 120.607002 581.353027 118.797997 581.107971 117.121002 580.710022 C 117.214996 580.60498 117.306999 580.499023 117.403 580.395996 C 119.662003 577.963013 125.513 575.447998 125.295998 571.755981 C 125.223999 570.539001 124.946999 569.754028 124.25 568.737976 C 119.341003 567.091003 82.243202 581.546021 74.486801 583.471008 L 74.725601 582.906006 C 83.699097 562.184998 101.639999 542.539978 119.464996 528.898987 L 115.795998 526.409973 C 118.352997 524.244995 121.656998 522.080994 122.655998 518.75 C 122.523003 517.969971 122.596001 517.482971 122.014 516.888 C 117.695 512.478027 84.302399 520.737976 76.6185 521.039001 C 76.434601 521.046021 76.250504 521.047974 76.066498 521.052979 C 74.828003 521.40802 73.874001 521.607971 72.568398 521.627014 L 72.100601 520.913025 C 72.959702 512.463989 93.582802 492.813965 100.917999 486.848022 C 105.517998 483.108032 126.815002 467.106995 131.791 467.622009 C 135.110992 464.60199 140.520996 464.041992 143.901001 460.822021 C 145.059998 459.718018 145.457993 458.692017 145.550003 457.087036 C 145.203995 456.203979 144.968002 455.682007 144.216995 455.057007 C 137.886002 449.778015 106.886002 453.968018 98.355003 454.624023 C 111.999001 441.332031 127.147003 428.670044 143.494995 418.781006 C 152.371994 413.411011 162.259995 407.894043 171.992996 404.254028 C 173.673004 403.625977 175.681 403.004028 176.970993 401.704956 C 178.026993 400.641968 177.966995 399.275024 178.046005 397.869019 C 178.223999 397.234985 178.369003 396.610962 178.442001 395.954956 C 178.628998 394.265991 178.432999 393.130005 177.240997 391.813965 C 173.684006 387.888 141.253006 384.848999 134.190002 384.212036 C 142.029007 375.036011 183.253998 356.807007 196.839996 352.216003 C 203.102005 350.099976 211.623993 349.698975 217.091995 346.088013 C 217.257004 346.075989 217.423996 346.077026 217.589005 346.052979 C 218.966003 345.851013 219.671005 345.716003 220.319 344.333984 C 220.813004 343.278992 220.699997 342.270996 220.011002 341.348999 C 215.996994 335.984009 183.513 329.718018 176.216003 328.598022 C 171.432999 327.864014 166.358994 327.869995 161.522003 327.614014 C 177.990997 315.992004 196.848007 306.394043 215.580002 299.005005 C 225.582001 295.05896 235.929993 291.81604 245.764008 287.478027 C 244.740997 286.513 243.748001 285.687988 242.606003 284.869019 C 242.494995 284.006958 242.460007 282.789001 242.082001 282.005005 C 238.970993 275.541016 211.302002 272.276001 204.188995 269.150024 L 204.483002 268.976013 L 204.266006 268.64502 C 200.306 267.39801 196.285995 266.646973 192.216003 265.872986 C 214.460999 253.747009 228.123993 245.802979 253.108994 238.669983 C 257.70401 237.358032 262.628998 235.593018 267.420013 235.333008 C 268.623993 235.268005 269.368011 235.233032 270.488007 234.692017 C 273.975006 235.004028 277.326996 236.889038 280.752991 234.726013 C 281.399994 234.317017 281.196014 234.362 281.339996 233.51001 C 278.766998 228.252014 263.778015 222.380005 258.535004 219.234985 L 257.796997 218.786011 C 256.912994 216.893982 246.406006 211.500977 243.731995 209.447021 C 260.292999 201.61499 279.910004 198.266968 297.980988 196.22699 C 302.29599 195.739014 318.319 195.734009 321.462006 194.223999 C 322.799988 194.682007 324.136993 194.481018 325.458008 194.11499 L 325.846985 193.286987 C 324.415985 189.645996 319.096008 186.807007 316.234985 184.093018 L 315.806 183.68103 C 315.682007 181.320984 297.153015 167.174011 293.786987 164.117004 C 308.699005 158.953979 324.515015 155.067993 339.924011 151.747009 C 345.134003 150.625 361.19101 149.328003 364.492004 147.619995 C 366.825012 148.073975 369.44101 148.804993 371.795013 148.882996 C 373.173004 148.929016 373.709015 148.613037 374.717987 147.740967 C 375.164001 146.223022 374.906006 145.643005 374.393005 144.218018 C 374.346985 143.903992 374.322998 143.585022 374.255005 143.275024 C 372.81601 136.700989 355.040009 123.596985 349.274994 119.924988 C 357.299988 118.97998 365.130005 116.856018 373.092987 115.515991 C 383.885986 113.698975 394.998993 112.997009 405.925995 112.676025 C 413.266998 112.460999 420.588013 115.044983 427.722992 114.820984 C 428.015991 114.812012 428.308014 114.794006 428.601013 114.781006 C 434.851013 115.358032 451.177002 124.60199 455.928009 122.554993 L 455.973999 121.445007 C 453.373993 116.15802 448.562988 111.843994 444.397003 107.768005 C 444.277008 103.718018 434.522003 95.747681 431.760986 92.319702 C 444.692993 89.873596 459.346985 88.592529 472.480988 89.706726 C 477.636993 90.143982 482.998993 91.815979 488.118988 91.732178 C 494.548004 93.065979 505.355988 102.733032 510.540985 102.593018 C 512.775024 98.546814 504.915009 89.978577 503.917999 85.717896 C 503.862 85.481384 503.816986 85.242798 503.765991 85.005188 C 503.936005 80.372375 500.429993 73.59198 498.768005 69.19519 C 505.609985 68.599426 512.366028 68.289612 519.236023 68.590698 C 523.630005 68.783386 528.107971 69.625488 532.494995 69.343872 C 536.697021 70.515381 541.507019 72.909302 545.312012 75.030273 C 549.189026 77.191284 568.127991 90.088806 570.79303 90.107117 C 572.333008 84.029907 567.046021 73.690491 565.254028 67.636902 C 565.874023 62.747681 561.971008 57.139893 560.630005 52.321228 C 564.31897 52.643372 567.965027 52.981873 571.578003 53.825806 C 575.049988 54.637024 579.08197 56.718811 582.58197 56.6828 C 590.583984 58.669006 615.452026 76.300781 622.708008 82.14502 C 626.28302 85.025085 629.776001 89.241577 633.817993 91.336121 L 634.322998 91.072327 C 634.836975 83.018677 627.435974 62.046875 624.047974 53.685181 Z"/>
    <path id="path68" fill="#50392e" stroke="none" d="M 666.948975 113.012024 C 668.27002 113.026978 669.671997 113.271973 670.911011 113.740967 C 677.984009 116.417969 684.098022 127.379028 687.236023 133.747986 C 689.133972 137.601013 693.866028 146.761963 691.702026 150.97699 C 690.955017 152.432983 689.734985 152.554993 688.330994 153.03302 C 683.5 150.942017 679.770996 147.093994 676.70697 142.901978 C 672.927002 137.72998 661.88501 122.778992 663.401978 116.791992 C 663.942017 114.663025 665.182007 114.031006 666.948975 113.012024 Z"/>
    <path id="path69" fill="#92756a" stroke="none" d="M 667.538025 118.299011 C 668.830994 118.450989 669.91803 118.593994 671.033997 119.304993 C 677.974976 123.72699 685.802002 139.412964 687.754028 147.23999 C 687.585022 147.161011 687.409973 147.096008 687.249023 147.004028 C 681.869019 143.901001 669.343994 124.692993 667.538025 118.299011 Z"/>
    <path id="path70" fill="#50392e" stroke="none" d="M 349.274994 368.18103 C 350.136993 368.06604 351.287994 368.013 352.13501 368.223022 C 353.496002 368.55896 354.042999 369.187988 354.812012 370.294006 C 355.088989 371.505005 355.108002 372.299011 354.604004 373.464966 C 351.252014 381.231995 328.279999 396.561035 319.855988 399.749023 C 318.438995 399.870972 316.768005 399.859985 315.617004 398.877014 C 314.765015 398.14801 314.210999 396.838013 314.040009 395.75 C 313.54599 392.598999 315.681 389.39801 317.518005 387.052002 C 325.046997 377.437988 337.101013 369.726013 349.274994 368.18103 Z"/>
    <path id="path71" fill="#92756a" stroke="none" d="M 348.649994 373.655029 L 348.95401 373.963989 C 348.096985 376.136963 323.854004 392.603027 320.209015 394.825989 L 319.609009 394.224976 C 319.506012 393.084961 319.941986 392.06897 320.572998 391.138 C 326.546997 382.322998 338.453003 375.834961 348.649994 373.655029 Z"/>
    <path id="path72" fill="#50392e" stroke="none" d="M 513.757019 121.031006 C 515.250977 120.963989 516.77301 120.890015 518.268005 120.997009 C 527.708008 121.666992 538.807983 130.11499 544.93103 136.860962 C 547.939026 140.174988 552.278992 145.000977 551.856018 149.778992 C 551.656982 152.026001 550.252014 153.104004 548.625 154.419983 C 548.411987 154.416992 548.197021 154.436035 547.984985 154.411987 C 541.828003 153.726013 518.96698 137.934021 514.692993 133.212036 C 512.754028 131.070007 510.705994 128.044983 511.048004 125.002014 C 511.266998 123.059998 512.349976 122.174988 513.757019 121.031006 Z"/>
    <path id="path73" fill="#92756a" stroke="none" d="M 516.05603 124.844971 C 519.104004 125.146973 521.83197 126.307983 524.546997 127.666992 C 532.742004 131.77002 543.771973 139.78302 546.737 148.84198 C 538.171021 144.007019 526.255005 137.192017 519.127014 130.56897 C 517.22998 128.80603 516.143982 127.500977 516.05603 124.844971 Z"/>
    <path id="path74" fill="#50392e" stroke="none" d="M 187.686996 625.44397 C 187.938004 625.450012 188.188004 625.448975 188.438004 625.460999 C 190.119995 625.539978 191.533997 625.801025 192.585007 627.301025 C 193.557007 628.689026 193.451996 630.567017 193.110001 632.142029 C 190.600998 643.710022 175.223999 663.39502 165.496994 669.789001 C 164.731995 669.948975 163.557999 670.237976 162.770996 670.054993 C 161.302994 669.713013 160.973999 669.245972 160.100006 668.130981 C 159.205002 663.911987 161.102997 659.198975 162.608002 655.276001 C 166.917999 644.039001 176.434006 630.508972 187.686996 625.44397 Z"/>
    <path id="path75" fill="#a48c7c" stroke="none" d="M 188.067001 629.91803 L 188.677002 630.515991 C 188.641998 636.882019 171.195999 658.742004 166.362 663.901978 C 165.613998 663.883972 165.985001 664.007019 165.330994 663.338989 C 165.341003 662.950012 165.335007 662.59198 165.393005 662.210022 C 167.022003 651.338013 179.686005 636.492004 188.067001 629.91803 Z"/>
    <path id="path76" fill="#50392e" stroke="none" d="M 166.998001 529.434998 C 167.158997 529.450012 167.322006 529.453003 167.481003 529.481995 C 169.070007 529.77301 171.873993 531.359985 172.548004 532.879028 C 173.117996 534.164001 172.621002 535.882019 172.020004 537.078003 C 166.072006 548.911987 148.488998 561.156982 136.173996 565.304016 C 134.938995 565.469971 133.994003 565.424011 132.822998 565.017029 C 131.934006 564.708984 131.072006 564.093994 130.740997 563.190002 C 130.115005 561.484985 130.675003 559.692993 131.384995 558.106018 C 137.447998 544.557007 153.895004 534.778015 166.998001 529.434998 Z"/>
    <path id="path77" fill="#92756a" stroke="none" d="M 166.438995 534.992981 L 166.932999 535.755981 C 166.854996 536.273987 166.876007 536.354004 166.606995 536.89801 C 165.854004 538.424011 163.826004 540.164001 162.621002 541.375 C 154.613998 549.41803 145.153 557.070984 134.615005 561.494019 C 134.251999 560.625977 134.082993 560.732971 134.481995 559.776001 C 137.962997 551.434998 158.100006 538.22699 166.438995 534.992981 Z"/>
    <path id="path78" fill="#50392e" stroke="none" d="M 281.872986 283.704956 C 286.855988 282.929993 295.476013 283.084961 300.312988 284.692993 C 302.265991 285.342041 303.509003 286.070007 304.43399 287.962036 C 304.480988 289.127991 304.558014 289.593018 303.93399 290.630981 C 300.923004 295.636963 282.20401 299.953003 276.394989 301.499023 C 275.755666 301.637004 275.115336 301.771322 274.473999 301.901978 C 269.346985 302.946045 260.096008 304.497009 255.727005 300.984985 C 254.716995 300.174011 254.001007 299.226013 253.906998 297.890991 C 253.785004 296.169006 254.667007 294.518005 255.699997 293.209961 C 261.376007 286.028015 273.451996 284.570007 281.872986 283.704956 Z"/>
    <path id="path79" fill="#92756a" stroke="none" d="M 283.345001 289.22998 C 288.78301 289.409993 294.222341 289.499674 299.662994 289.499023 C 290.824005 292.02301 282.199005 294.627014 273.222992 296.657959 C 269.549011 297.27301 263.527008 298.868042 259.903992 297.778015 C 259.881012 296.660034 260.334991 296.112 261.088013 295.325989 C 265.615997 290.60199 277.204987 289.549011 283.345001 289.22998 Z"/>
    <path id="path80" fill="#50392e" stroke="none" d="M 595.596008 109.385986 C 596.323975 109.47699 596.320007 109.455017 596.955017 109.598999 C 606.340027 111.734009 614.718994 121.010986 619.700012 128.770996 C 622.41803 133.004028 627.76001 141.785034 626.085999 146.950012 C 625.359985 149.188965 624.023987 149.84198 622.059021 150.867004 C 612.189026 147.557983 599.341003 131.447021 594.06897 122.838989 C 592.48999 120.260986 590.60498 116.487976 591.508972 113.380981 C 592.145996 111.187012 593.715027 110.385986 595.596008 109.385986 Z"/>
    <path id="path81" fill="#92756a" stroke="none" d="M 595.619019 114.755981 C 598.724976 115.174011 601.607971 117.080017 604.018982 118.989014 C 611.684021 125.057983 620.049988 135.796021 621.192017 145.76001 C 615.002991 142.526001 609.43103 135.148987 605.005005 129.765991 C 602.146973 126.289001 595.195984 119.14801 595.619019 114.755981 Z"/>
    <path id="path82" fill="#50392e" stroke="none" d="M 390.869995 251.625977 C 399.380005 251.292969 407.597992 253.030029 415.64801 255.710022 C 420.522003 257.332031 431.644989 260.665039 434.084991 265.533997 C 433.987 266.88501 434.01001 267.265015 432.945007 268.247986 C 431.174988 269.881958 426.322998 270.349976 424.031006 270.388 C 412.253998 270.743042 398.756989 270.483032 387.799988 265.547974 C 385.274994 264.411011 381.563995 262.478027 380.829987 259.528015 C 380.529999 258.31897 380.841003 256.957031 381.524994 255.93103 C 383.484985 252.992004 387.631012 252.169983 390.869995 251.625977 Z"/>
    <path id="path83" fill="#92756a" stroke="none" d="M 388.985992 256.511963 C 398.774994 256.505981 412.962006 259.268005 421.812988 263.638 C 422.578003 264.015991 422.798004 263.940002 423.065002 264.743042 L 421.618011 264.906006 C 421.196991 264.964966 420.777008 265.023987 420.354004 265.06604 C 414.070007 265.69104 392.046997 263.763 387.404999 259.377014 C 386.859985 258.862 387.057007 258.458008 387.058014 257.77002 L 388.985992 256.511963 Z"/>
    <path id="path84" fill="#50392e" stroke="none" d="M 188.617996 451.120972 C 189.843994 450.886963 191.350998 450.636963 192.561996 451.031982 C 193.893005 451.466003 194.798996 452.053955 195.438995 453.325989 C 195.893997 454.22998 195.751999 455.301025 195.358002 456.214966 C 191.341995 465.526978 165.067001 479.247009 155.475998 482.692017 C 153.720001 482.884033 151.772003 483.130005 150.104004 482.372009 C 148.895004 481.822021 148.296005 481.036987 147.852005 479.795044 C 147.108002 477.713013 148.216995 475.054993 149.320007 473.323975 C 155.973999 462.881958 176.804001 453.490967 188.617996 451.120972 Z"/>
    <path id="path85" fill="#92756a" stroke="none" d="M 188.240997 455.978027 C 188.716003 455.948975 189.113998 456.063965 189.576004 456.161987 C 186.108994 461.601013 160.363998 475.252991 153.472 477.954956 L 151.992996 477.630981 L 152.007004 476.713013 C 159.048996 467.603027 177.184998 459.620972 188.240997 455.978027 Z"/>
    <path id="path86" fill="#50392e" stroke="none" d="M 239.005005 384.638 C 241.169998 384.335999 243.660004 384.473022 245.740997 385.153992 C 247.656998 385.781006 248.477005 386.348022 249.365005 388.165039 C 249.330002 388.85199 249.264999 389.454956 248.940994 390.077026 C 244.270996 399.02301 219.934006 409.23999 210.382004 411.77002 C 208.580002 412.010986 205.207993 412.080994 203.457993 411.422974 C 201.802002 410.801025 200.468002 409.72998 199.953003 407.962036 C 199.481003 406.339966 200.115997 404.68103 200.994995 403.328979 C 207.511993 393.304993 227.927002 386.908997 239.005005 384.638 Z"/>
    <path id="path87" fill="#92756a" stroke="none" d="M 240.154999 389.570007 L 241.869995 389.671021 L 241.561005 390.406982 C 232.619003 398.166016 218.658005 404.411011 207.113007 407.015991 C 205.929001 406.971985 205.761002 406.988037 204.800995 406.31604 L 204.936996 405.330994 C 212.136002 398.254028 230.132996 392.452026 240.154999 389.570007 Z"/>
    <path id="path88" fill="#50392e" stroke="none" d="M 396.526001 306.202026 C 403.010986 305.823975 410.572998 306.071045 416.917999 307.544006 C 419.026001 308.032959 422.585999 308.934998 423.697998 311.021973 C 424.069 311.719971 423.778015 312.113037 423.597992 312.825012 C 418.410004 318.858032 404.334991 321.645996 396.78299 322.700989 C 389.471008 323.68396 377.600006 324.916016 370.980988 321.094971 C 369.733002 320.375 368.524994 319.275024 368.307007 317.778015 C 368.095001 316.329956 368.84201 314.929993 369.783997 313.885986 C 375.088989 307.997986 389.134003 306.874023 396.526001 306.202026 Z"/>
    <path id="path89" fill="#92756a" stroke="none" d="M 396.774994 311.708984 C 403.536987 311.10199 410.471985 311.747986 417.223999 312.283997 C 409.223999 314.203003 401.264008 316.082031 393.123993 317.312988 C 386.535004 317.903015 380.273987 318.281982 373.799988 316.662964 C 381.505005 313.999023 388.64801 312.489014 396.774994 311.708984 Z"/>
    <path id="path90" fill="#50392e" stroke="none" d="M 235.690002 550.520996 C 236.744995 550.424988 238.151001 550.276978 239.156006 550.664978 C 239.839996 550.929016 240.630005 551.51001 240.932999 552.19397 C 241.522003 553.520996 241.175003 554.862 240.667999 556.153015 C 236.429993 566.947998 215.529999 589.767029 205.343994 594.309998 C 204.229996 594.55603 203.442993 594.515991 202.315002 594.361023 C 201.326004 593.638 200.917007 593.387024 200.459 592.197998 C 199.529007 589.781006 200.490997 586.632019 201.453003 584.372986 C 207.285995 570.674011 221.990997 556.247986 235.690002 550.520996 Z"/>
    <path id="path91" fill="#92756a" stroke="none" d="M 235.425995 556.057007 C 235.382004 556.242004 235.354996 556.432007 235.292999 556.612 C 232.979004 563.335999 211.214996 585.73999 205.300995 589.047974 L 205.132996 587.981018 C 209.953003 575.030029 224.003006 563.106995 235.425995 556.057007 Z"/>
    <path id="path92" fill="#50392e" stroke="none" d="M 344.565002 218.713013 C 348.432007 218.697998 352.570007 218.844971 356.365997 219.603027 C 358.679993 220.065002 362.45401 220.957031 363.720001 223.188965 C 364.145996 223.940979 363.848999 224.315979 363.664001 225.096985 C 358.675995 230.838989 337.298004 236.35498 329.101013 238.124023 C 328.65799 238.192993 328.214996 238.270996 327.768005 238.313965 C 322.730011 238.796021 315.96701 238.781006 311.916992 235.414001 C 310.587006 234.307983 309.395996 233.051025 309.316986 231.229004 C 309.27301 230.234985 309.834015 229.207031 310.5 228.488037 C 317.726013 220.684998 334.644012 219.406006 344.565002 218.713013 Z"/>
    <path id="path93" fill="#92756a" stroke="none" d="M 336.992004 224.676025 C 342.984009 223.661987 350.002014 224.447998 356.084015 224.614014 C 348.223999 227.356995 340.454987 229.755981 332.362 231.710999 C 326.205994 232.914978 320.86499 233.129028 314.651001 232.182007 C 320.167999 226.406982 329.490997 225.911011 336.992004 224.676025 Z"/>
    <path id="path94" fill="#f4f1e1" stroke="none" d="M 138.951004 466.398987 L 145.313004 468.617004 L 145.287003 468.170044 L 144.917007 468.471008 L 145.270004 468.730957 C 141.085007 472.098999 136.347 474.667969 131.830994 477.55603 C 122.361 483.612 112.778999 489.634033 103.806999 496.412964 C 98.2528 500.60498 92.978233 505.123332 87.983299 509.968018 C 84.164101 513.625977 80.436699 518.078003 76.066498 521.052979 C 74.828003 521.40802 73.874001 521.607971 72.568398 521.627014 L 72.100601 520.913025 C 72.959702 512.463989 93.582802 492.813965 100.917999 486.848022 C 105.517998 483.108032 126.815002 467.106995 131.791 467.622009 C 134.229996 467.428955 136.565002 466.912964 138.951004 466.398987 Z"/>
    <path id="path95" fill="#50392e" stroke="none" d="M 289.295013 423.634033 C 290.294006 423.686035 291.355988 423.718018 292.309998 424.044006 C 293.709015 424.52301 295.152008 425.670044 295.644989 427.104004 C 296.140015 428.541992 295.531006 429.987 294.747009 431.184998 C 289.082001 439.842041 263.506989 452.571045 253.460007 454.381958 C 251.871002 454.405029 250.423996 454.187012 248.992004 453.43396 C 247.871002 452.843994 247.104996 452.150024 246.820999 450.869995 C 246.388 448.920044 247.078995 447.044006 248.207001 445.463989 C 255.761002 434.884033 276.615997 425.700989 289.295013 423.634033 Z"/>
    <path id="path96" fill="#92756a" stroke="none" d="M 287.625 428.492004 L 289.388 428.476013 L 289.94101 429.042969 C 286.963989 434.775024 261.605988 446.89801 255.110992 449.490967 C 254.356003 449.553955 253.613007 449.500977 252.856003 449.473999 L 252.214996 448.533997 C 252.289001 448.356995 252.343994 448.170044 252.436996 448.002014 C 253.334 446.369995 255.468002 444.842041 256.928009 443.69104 C 266.218994 436.369995 276.559998 432.282959 287.625 428.492004 Z"/>
    <path id="path97" fill="#50392e" stroke="none" d="M 248.658005 483.549011 C 249.591003 483.583984 250.606003 483.710999 251.485001 484.042969 C 252.645004 484.481995 253.641006 485.410034 254.003998 486.610962 C 254.630005 488.687988 253.619003 490.997009 252.496002 492.712036 C 245.936005 502.72699 225.300003 515.86499 213.619995 518.432007 C 212.427002 518.414978 210.910004 518.372009 209.834 517.83197 C 208.748001 517.288025 208.046005 516.150024 207.718994 515.015991 C 207.238007 513.351013 207.662994 511.708008 208.445999 510.218994 C 212.169006 503.140991 229.337006 491.489014 236.720993 487.815002 C 240.529999 485.920044 244.580994 484.712036 248.658005 483.549011 Z"/>
    <path id="path98" fill="#92756a" stroke="none" d="M 248.384995 488.52301 L 248.837006 489.062012 L 248.503006 490.223022 C 239.554993 499.625977 226.304001 509.447998 213.675995 512.999023 L 213.173004 512.440002 C 213.242996 512.270996 213.296005 512.093994 213.384003 511.932983 C 214.319 510.221008 216.556 508.619019 218.018997 507.335999 C 227.203995 499.283997 237.076004 493.089966 248.384995 488.52301 Z"/>
    <path id="path99" fill="#50392e" stroke="none" d="M 395.764008 160.645996 C 404.953003 159.64502 424.895996 161.838989 432.662994 166.773987 C 434.468994 167.921021 436.167999 169.536987 436.43399 171.773987 C 436.576996 172.97699 436.277008 174.132996 435.408997 175.007019 C 432.737 177.697021 427.39801 177.889038 423.822998 178.213989 C 413.519012 178.93103 395.230988 179.528992 386.34201 174.320007 C 384.707001 173.362 383.03299 171.934998 382.75 169.940979 C 382.520996 168.323975 383.144989 166.617981 384.09201 165.327026 C 386.691986 161.78302 391.764008 161.351013 395.764008 160.645996 Z"/>
    <path id="path100" fill="#92756a" stroke="none" d="M 396.274994 165.700012 C 404.506989 165.641968 423.160004 166.367004 429.873993 171.122009 L 429.554993 171.778015 C 427.213013 172.552002 424.872009 172.509033 422.431 172.585022 L 421.734009 172.643982 C 415.299988 173.166016 391.770996 173.937988 387.488007 169.796021 C 386.847992 169.177002 387.035004 168.932007 387.015991 168.119019 C 389.088013 166.042969 393.471008 165.98999 396.274994 165.700012 Z"/>
    <path id="path101" fill="#50392e" stroke="none" d="M 323.761993 326.671021 C 324.843994 326.547974 326.002014 326.395996 327.093994 326.484009 C 329.355988 326.665039 332.877991 328.026978 334.414001 329.708984 C 334.766998 331.015991 334.889008 331.575989 334.190002 332.795044 C 330.122986 339.88501 308.414001 348.52002 300.380005 350.952026 C 297.21701 351.908997 293.894012 352.484985 290.654999 353.130981 C 287.726013 353.278992 282.605011 353.567017 280.181 351.755981 C 279.509003 351.254028 279.079987 350.869995 278.93399 350.032959 C 278.634003 348.321045 279.618011 346.726013 280.578003 345.381958 C 289.045013 333.525024 310.213013 328.661011 323.761993 326.671021 Z"/>
    <path id="path102" fill="#92756a" stroke="none" d="M 323.21701 332.179993 C 323.44101 332.138 323.662994 332.080994 323.889008 332.05603 C 324.973999 331.936035 326.085999 331.81604 326.89801 332.541016 C 323.194 338.799011 296.464996 346.18396 289.015015 348.112 L 284.740997 348.395996 L 283.868011 347.299988 C 290.369995 340.260986 313.365997 333.196045 323.21701 332.179993 Z"/>
</svg>
