<?xml version="1.0" encoding="UTF-8"?>
<!-- Generated by Pixelmator Pro 2.4.7 -->
<svg width="1024" height="1024" viewBox="0 0 1024 1024" xmlns="http://www.w3.org/2000/svg" xmlns:xlink="http://www.w3.org/1999/xlink">
    <path id="Percorso" fill="#472a2a" stroke="none" d="M 221.563995 971.450012 L 222.617004 971.874023 C 222.774994 973.091003 222.610001 973.312988 222.093994 974.448975 C 216.542007 974.814026 208.709 975.052002 203.779007 977.859009 L 203.470993 978.736023 C 204.738998 979.257996 205.919006 979.426025 207.261993 979.606995 C 205.865005 979.797974 204.539001 979.992004 203.184006 980.401001 L 203.240997 980.989014 L 206.520004 981.679993 L 205.623001 982.325989 C 204.567001 982.073975 203.25 981.879028 202.272003 981.426025 C 201.052994 980.862976 200.914993 980.401001 200.436996 979.26001 C 200.494003 978.393005 200.533997 977.75 201.076004 977.018005 C 204.595993 972.268982 216.143005 971.718994 221.563995 971.450012 Z"/>
    <path id="path1" fill="#472a2a" stroke="none" d="M 769.737976 932.642029 C 773.151001 932.38501 781.411011 931.502014 784.112976 933.767029 C 785.239014 934.711975 785.192017 935.119995 785.344971 936.492004 C 784.396973 937.482971 783.919983 937.296997 782.625 937.463989 C 777.932983 937.633972 772.151978 938.213989 767.567017 937.017029 C 766.312988 936.690002 765.682983 936.429016 765.038025 935.309998 L 765.450989 934.357971 C 766.838013 933.132019 767.940979 932.953003 769.737976 932.642029 Z"/>
    <path id="path2" fill="#472a2a" stroke="none" d="M 546.866028 117.440979 C 542.119995 105.353027 530.114014 87.1698 522.215027 76.167603 C 518.922974 71.583923 507.343994 60.139099 506.682007 55.289978 C 506.509003 54.017883 506.708008 52.790527 507.557007 51.779907 C 508.363007 50.82019 509.509003 50.44928 510.707001 50.311768 C 515.890015 49.717224 522.817017 52.536804 527.823975 54.053711 C 566.958008 65.908691 593.421997 86.427307 625.344971 110.78302 C 623.617004 106.185974 621.950012 101.606995 619.856018 97.154724 C 616.228027 89.441406 605.971008 72.282715 605.159973 65.048096 C 604.987976 63.508728 605.39502 62.659607 606.338013 61.495117 C 607.211975 61.015503 607.856018 60.747986 608.85498 60.823303 C 612.93103 61.130676 617.52301 64.593994 621.127991 66.567688 C 647.353027 80.925598 670.02002 103.802002 688.875977 126.72699 C 693.187012 131.968994 697.02002 137.559021 701.242004 142.867004 C 699.570007 135.328979 697.815002 127.792969 695.528015 120.414001 C 693.424988 113.632019 687.781006 101.68103 687.528992 95.165771 C 687.896973 94.301514 688.171021 93.512512 688.979004 92.94812 C 690.208008 92.089417 691.95697 92.094788 693.34198 92.520081 C 698.275024 94.034302 703.067993 99.87738 706.711975 103.461975 C 710.968648 107.728658 715.060649 112.147339 718.987976 116.718018 C 722.915995 121.288656 726.66866 125.998657 730.245972 130.848022 C 733.823975 135.697998 737.216654 140.673991 740.424011 145.776001 C 743.631327 150.878662 746.644653 156.092997 749.463989 161.419006 C 754.651978 171.289001 759.026001 181.577026 764.169983 191.474976 C 763.961975 183.031006 763.775024 174.510986 763.085999 166.091003 C 762.567017 159.747986 761.127991 153.223999 761.494019 146.858032 C 761.551025 145.869019 761.666992 143.666016 762.504028 143.075989 C 763.682983 142.242981 765.640015 142.260986 767.015015 142.596985 C 769.710999 143.255981 772.664001 147.976013 774.109009 150.307007 C 784.864014 167.661011 791.838989 193.130981 794.492004 213.249023 C 795.669006 222.169983 795.958984 231.195007 796.31897 240.18103 C 796.825989 252.822021 796.901978 265.77301 793.924011 278.139038 C 796.346659 282.95634 798.615987 287.844991 800.731995 292.804993 C 804.802002 282.60498 809.211975 272.940002 817.005981 264.987 C 824.763977 257.071045 835.132019 251.447021 846.437988 251.471985 C 857.732971 251.497986 867.947998 257.115967 875.778992 264.946045 C 892.26001 281.424011 902.763 306.823975 902.627991 330.172974 C 902.517029 349.463013 897.05603 367.785034 883.104004 381.526001 C 896.505981 386.900024 912.286011 389.281982 926.63501 390.23999 C 927.226318 388.785319 927.898315 387.368978 928.651001 385.990967 C 932.729004 378.375 941.890015 371.257996 950.174988 368.934998 C 954.525024 367.714966 958.981995 367.880981 962.958008 370.160034 C 968.057007 373.083008 971.143982 378.437012 972.554993 384.000977 C 974.966003 393.509033 972.138 404.547974 967.148987 412.770996 C 960.958008 422.974976 949.500977 431.390991 940.005005 438.462036 C 905.125977 464.434998 866.661987 481.286011 825.724976 495.323975 C 801.424316 503.824666 776.753988 511.066671 751.713989 517.049988 C 755.861023 528.330994 767.745972 541.747009 770.031982 554.257019 C 770.317993 555.820007 770.442017 557.612976 769.419983 558.934998 C 766.409973 562.827026 756.742981 563.184021 752.125977 563.552002 C 755.111023 626.190002 761.172974 688.711975 775.330994 749.914978 C 779.973002 769.580343 785.079346 789.124674 790.650024 808.547974 C 793.622009 818.609009 802.205017 839.554993 802.606995 848.718994 C 802.195007 849.695984 801.744995 850.362 800.96698 851.072021 C 796.284973 855.348022 788.737976 857.749023 782.945007 860.106018 C 754.078003 871.854004 724.447998 878.059021 693.478027 881.111023 C 683.63501 882.080994 673.802002 883.093994 663.901978 882.463989 C 658.859985 899.465027 654.676025 917.028015 654.164001 934.822021 C 673.354004 936.796021 692.59198 938.182007 711.77301 940.221008 C 725.619019 941.692993 780.796997 947.715027 788.107971 956.778992 C 788.317017 957.60199 788.620972 958.090027 788.296997 958.924988 C 787.492981 961.004028 785.099976 962.315979 783.237 963.315002 C 777.585999 966.34198 760.26001 971.482971 754.137024 969.323975 C 753.155029 968.978027 753.497009 969.215027 753.046021 968.190002 C 753.517029 967.523987 753.952026 967.215027 754.650024 966.822021 L 755.463989 966.372009 L 755.119995 965.195984 C 744.705017 968.046021 733.83197 969.377991 723.150024 970.893005 C 705.063354 973.460999 686.93101 975.651001 668.752991 977.463013 C 623.651978 982.263 578.784973 984.961975 533.500977 987.166992 C 486.535665 989.612345 439.541005 990.478007 392.516998 989.763977 C 370.890015 989.52301 349.339996 989.280029 327.734985 988.101013 C 304.744995 986.947652 281.815664 985.059306 258.946991 982.435974 C 252.132004 981.625977 243.371002 978.721985 237.819 978.328003 C 236.376007 978.226013 234.546997 980.950012 233.100998 981.658997 C 227.744995 984.286011 211.606003 983.734985 205.623001 982.325989 L 206.520004 981.679993 L 203.240997 980.989014 L 203.184006 980.401001 C 204.539001 979.992004 205.865005 979.797974 207.261993 979.606995 C 205.919006 979.426025 204.738998 979.257996 203.470993 978.736023 L 203.779007 977.859009 C 208.709 975.052002 216.542007 974.814026 222.093994 974.448975 C 222.610001 973.312988 222.774994 973.091003 222.617004 971.874023 L 221.563995 971.450012 C 221.464005 970.565979 221.570999 970.929016 221.203003 970.094971 C 220.682007 968.914001 220.072998 967.747009 219.843002 966.465027 C 219.475006 964.413025 220.393997 962.73999 221.617004 961.171997 C 233.436005 946.018005 320.558014 942.869019 340.296997 940.927002 C 331.589996 921.830017 325.496002 901.760986 317.511993 882.406982 C 316.56601 886.60498 314.86499 897.854004 311.200989 900.148987 C 309.730988 901.06897 308.169006 901.372009 306.459991 901.075989 C 303.052002 900.487 299.881989 898.138 297.132996 896.146973 C 282.597992 885.619019 272.282013 871.546021 262.401001 856.804993 C 260.42099 862.822021 259.459991 869.177002 257.868988 875.307007 C 257.140015 878.117004 255.929993 883.52301 253.061996 884.762024 C 251.966003 885.236023 250.757996 885.109985 249.671005 884.708008 C 246.350998 883.481018 243.421005 879.995972 241.061005 877.46698 C 227.490005 862.927002 218.479996 845.258972 210.623993 827.182983 C 208.973007 832.104004 200.598999 854.166992 196.552002 855.651001 C 195.313995 856.10498 194.016998 855.844971 192.897995 855.21698 C 183.212006 849.786011 168.395004 799.814026 165.647995 788.232971 C 161.188004 794.031982 158.175003 801.664978 153.126007 806.870972 C 152.050995 807.979004 150.865005 808.862 149.237 808.629028 C 148.115997 808.468994 147.110001 807.651001 146.416 806.796997 C 141.460007 800.700012 140.542999 771.453979 140.522995 762.815002 C 140.509003 756.362 141.242004 749.596008 140.695999 743.195984 C 139.725998 731.812988 136.080002 721.455017 136.957001 709.757019 C 130.003006 715.892029 124.863998 723.981018 118.304001 730.510986 C 116.797997 732.01001 115.114998 733.690002 112.800003 733.447998 C 111.462997 733.307983 110.474998 732.528015 109.808998 731.401978 C 107.797997 728.002014 108.443001 722.091003 108.480003 718.239014 C 108.744003 690.940979 114.806 668.120972 122.060997 642.109009 C 115.219002 646.226013 94.8936 667.432007 90.448196 668.505005 C 89.314796 668.778992 88.129097 668.625977 87.180199 667.903015 C 86.210999 667.164001 85.7164 666.026978 85.469704 664.869995 C 84.600601 660.794983 85.734497 655.492004 86.374496 651.36499 C 90.439598 625.143005 104.074997 584.765015 118.529999 562.564026 C 118.361 562.643005 118.192001 562.723999 118.022003 562.802002 C 107.999001 567.380005 97.957497 573.945007 88.599197 579.807983 C 83.892403 582.757019 76.680702 589.190002 71.595596 590.414001 C 70.3741 590.708008 69.742203 590.109985 68.7202 589.544983 C 68.0298 588.541992 67.629303 587.801025 67.590401 586.552979 C 67.431503 581.44397 71.169403 574.632019 73.307297 570.017029 C 87.591797 539.185974 107.418999 511.453979 129.850006 486.026001 C 119.982 489.689331 110.159999 493.471659 100.384003 497.372986 C 92.823898 500.474976 84.117104 505.841003 76.093002 506.88501 C 75.105499 506.511963 74.126099 506.214966 73.362 505.442993 C 72.467697 504.540039 72.225197 503.39801 72.3629 502.176025 C 72.813004 498.178955 76.660301 493.364014 78.866203 489.936035 C 97.837997 460.453003 124.82 432.916992 151.112 409.929993 C 144.781998 410.888 138.235992 410.853027 131.854004 411.528015 C 121.874001 412.582031 112.337997 414.670044 102.489998 416.410034 C 100.195 416.81604 97.755798 416.688965 95.512901 417.131958 C 95.210197 417.192017 94.914398 417.282959 94.615196 417.358032 C 93.800797 416.86499 93.335999 416.492004 92.713501 415.723022 C 91.803001 414.598999 91.613297 413.462036 91.882698 412.046997 C 92.662399 407.953003 99.096802 402.049011 101.953003 399.092041 C 119.586998 380.838989 140.621002 364.230957 162.033005 350.630005 C 172.261002 344.131958 182.994995 338.400024 193.313995 332.030029 C 182.753006 332.484009 172.209 332.192017 161.651993 332.990967 C 153.429001 333.614014 145.188995 334.165039 136.975998 334.900024 C 130.906006 335.442993 124.857002 336.372986 118.75 336.23999 C 118.375999 335.934998 117.584 335.384033 117.317001 334.938965 C 116.634003 333.796021 116.555 332.721985 116.962997 331.476013 C 118.396004 327.101013 126.802002 321.31897 130.317993 318.407959 C 163.220993 291.162964 197.917007 271.646973 237.024002 254.787964 C 229.668666 253.165324 222.245997 251.958008 214.755997 251.166016 C 207.856003 250.453003 180.945999 250.011963 176.468994 247.757019 C 174.886002 246.960022 174.367004 246.078003 173.809006 244.509033 C 173.835999 243.462036 173.876999 242.832031 174.417007 241.89801 C 176.427994 238.424011 183.917999 235.421997 187.518997 233.634033 C 222.602997 216.218018 262.632996 204.979004 300.97699 197.573975 C 291.031006 195.014038 281.214996 192.065002 271.197998 189.768982 C 262.243011 187.716003 243.707993 185.205017 236.335007 181.588013 C 235.608994 180.645996 235.175995 180.197998 235.016998 178.974976 C 234.865997 177.802979 235.417999 176.770996 236.205002 175.934021 C 239.518997 172.406006 246.742996 170.646973 251.231995 169.257996 C 283.084015 159.408997 318.195007 155.18103 351.450989 154.984985 C 340.481995 149.362 328.856995 144.406006 317.403015 139.856018 C 310.540985 137.130005 303.260986 135.049988 296.842987 131.363037 C 296.192993 130.205994 296.173004 129.910034 296.157013 128.570984 C 296.838013 127.065979 297.519012 126.254028 298.933014 125.369019 C 304.704987 121.754028 313.436005 120.713989 320.100006 119.52301 C 363.835999 111.705994 413.891998 116.565979 456.760986 127.5 C 446.68399 117.080994 435.445007 107.94397 423.937012 99.16687 C 418.705994 95.177124 396.290985 81.216309 394.679993 77.188477 C 394.234985 76.073975 394.095001 74.764404 394.730988 73.692078 C 395.496002 72.403625 396.916992 71.721985 398.29599 71.30188 C 403.089996 69.840576 409.40799 70.35791 414.347992 70.525818 C 446.631012 71.622986 490.79599 88.205322 519.46698 102.453979 C 528.762024 107.073975 537.807983 112.369019 546.866028 117.440979 Z"/>
    <path id="path3" fill="#fefefe" stroke="none" d="M 509.346008 387.51001 C 512.192993 387.468994 515.138977 387.97998 517.54303 389.580994 L 517.664001 390.342041 C 516.322021 391.296021 514.604004 391.337036 513.013977 391.567993 C 509.329987 391.697021 505.609985 391.471985 501.925995 391.348022 L 509.346008 387.51001 Z"/>
    <path id="path4" fill="#fefefe" stroke="none" d="M 697.90802 664.504028 C 700.844971 666.080017 714.090027 680.510986 717.786011 684.065002 L 713.888977 688.593018 C 713.291992 689.427002 712.830017 689.807007 711.942993 690.31897 L 711.664001 689.94397 C 711.94397 689.35498 712.317993 688.669006 712.494995 688.028992 C 713.994019 682.601013 700.763977 669.596008 697.90802 664.504028 Z"/>
    <path id="path5" fill="#fefefe" stroke="none" d="M 667.234009 943.807983 L 667.856018 943.833008 C 675.528015 944.184021 678.741028 948.086975 683.650024 953.427002 C 679.853027 953.638 675.982971 953.392029 672.231018 954.088013 C 670.843018 950.552979 668.968018 947.184021 667.234009 943.807983 Z"/>
    <path id="path6" fill="#a99d96" stroke="none" d="M 222.093994 974.448975 C 226.018997 974.575012 229.251999 975.544983 232.860001 977.007996 C 223.876007 979.133972 216.093994 978.55603 207.261993 979.606995 C 205.919006 979.426025 204.738998 979.257996 203.470993 978.736023 L 203.779007 977.859009 C 208.709 975.052002 216.542007 974.814026 222.093994 974.448975 Z"/>
    <path id="path7" fill="#fefefe" stroke="none" d="M 432.450012 949.85199 C 434.332662 950.128682 436.210327 950.435018 438.083008 950.770996 C 441.622009 951.439026 447.835999 953.112 449.742004 956.487976 C 450.342987 957.552979 450.386993 958.15802 450.006012 959.278015 C 444.986664 959.69399 439.964325 960.067322 434.938995 960.39801 C 434.445007 956.713989 433.639008 953.369995 432.450012 949.85199 Z"/>
    <path id="path8" fill="#fefefe" stroke="none" d="M 949.255005 378.515015 C 950.052002 378.460999 950.909973 378.382996 951.703003 378.494995 C 953.039001 378.682983 953.926025 379.370972 954.695984 380.437988 C 954.989014 381.682983 955.03302 382.536011 954.630005 383.739014 C 953.080017 388.363037 948.981018 391.603027 944.801025 393.713989 C 944.130981 393.730957 943.442993 393.769043 942.776001 393.666016 C 941.302979 393.437988 940.377014 392.916992 939.427979 391.76001 C 939.111023 390.614014 938.992981 389.778015 939.348022 388.613037 C 940.83197 383.744995 944.995972 380.754028 949.255005 378.515015 Z"/>
    <path id="path9" fill="#fefefe" stroke="none" d="M 747.45697 531.164978 C 750.661011 533.085022 758.747009 549.289001 760.36499 553.530029 C 759.494995 554.179993 757.913025 554.15802 756.830994 554.307007 C 752.788025 554.713989 748.640991 554.674011 744.577026 554.799988 C 745.424011 546.97699 745.911987 538.874023 747.45697 531.164978 Z"/>
    <path id="path10" fill="#a99d96" stroke="none" d="M 149.477005 759.187012 C 150.378998 759.781006 150.143997 759.526001 150.740005 760.231018 C 154.845993 765.083008 159.677002 769.356995 163.490997 774.434998 C 161.139008 777.742981 158.998993 781.221985 156.792999 784.629028 L 152.632004 791.239014 C 151.020996 780.700012 149.464005 769.861023 149.477005 759.187012 Z"/>
    <path id="path11" fill="#a99d96" stroke="none" d="M 801.322021 328.610962 C 801.83197 328.513 802.314026 328.644043 802.823975 328.718018 C 804.315002 330.757996 804.971008 333.285034 805.788025 335.655029 C 796.260986 337.165039 786.72998 340.575989 777.530029 343.442993 C 776.388 343.821045 776.270996 343.891968 775.127014 343.563965 C 773.708008 341.411987 773.478027 338.473999 772.992004 335.971985 C 781.356995 332.061035 792.317017 330.540039 801.322021 328.610962 Z"/>
    <path id="path12" fill="#fefefe" stroke="none" d="M 737.268982 519.346008 L 737.586975 519.252991 L 738.015015 519.711975 C 737.377014 529.469971 735.877991 538.953979 734.265991 548.59198 C 732.046997 544.646973 729.27002 540.94397 726.710999 537.210999 C 722.801025 531.502014 719.067993 526.585999 713.736023 522.122986 C 721.625977 521.820007 729.427979 520.218018 737.268982 519.346008 Z"/>
    <path id="path13" fill="#fefefe" stroke="none" d="M 665.802979 518.807983 C 678.567017 520.729004 691.734985 520.974976 704.617004 521.65802 C 698.195984 524.942017 692.232971 529.245972 686.241028 533.252991 C 679.41803 538.028992 672.958984 543.414001 666.442993 548.598999 C 665.486023 546.405029 664.31897 544.077026 663.875 541.716003 C 662.606995 534.978027 664.041992 525.379028 665.802979 518.807983 Z"/>
    <path id="path14" fill="#fefefe" stroke="none" d="M 724.004028 545.263977 C 727.426025 550.367004 730.603027 555.390991 733.086975 561.025024 C 730.421021 575.372009 725.875 587.916016 719.869019 601.161011 C 719.294006 602.521973 718.596008 603.749023 717.848022 605.017029 C 717.06897 603.801025 717.489014 599.684998 717.461975 598.107971 C 717.255005 585.822998 716.656006 573.26001 713.685974 561.304993 C 717.622009 556.189026 720.947998 550.950989 724.004028 545.263977 Z"/>
    <path id="path15" fill="#a99d96" stroke="none" d="M 175.121002 785.692993 C 178.975998 788.182983 182.494995 792.005981 186.139999 794.909973 C 192.746002 800.174011 199.639999 804.781982 206.798004 809.257019 C 203.709 816.107971 201.126999 823.142029 198.501999 830.179993 C 197.302994 833.288025 195.960999 836.338013 194.643005 839.396973 C 185.757996 822.094971 179.727997 804.575989 175.121002 785.692993 Z"/>
    <path id="path16" fill="#a99d96" stroke="none" d="M 264.345001 841.664978 C 273.622009 844.674011 282.484009 850.169983 291.544006 853.955017 C 297.944 856.627991 304.89801 857.893982 311.184998 860.73999 C 310.826996 869.312988 309.015991 877.234985 307.147003 885.577026 L 306.141998 891.146973 C 294.678986 881.731995 269.187988 855.534973 264.345001 841.664978 Z"/>
    <path id="path17" fill="#a99d96" stroke="none" d="M 217.526993 816.241028 C 223.695999 818.70697 229.740997 823.344971 235.546997 826.666992 C 243.242996 831.06897 251.253006 834.877991 259.131989 838.935974 C 255.738998 846.995972 253.266998 855.257996 250.804993 863.63501 C 250.066996 866.56368 249.370331 869.502014 248.714996 872.450012 C 236.363998 856.594971 223.401001 835.481995 217.526993 816.241028 Z"/>
    <path id="path18" fill="#fefefe" stroke="none" d="M 679.760986 543.853027 C 683.591003 546.612 687.690002 553.791016 691.406982 557.559998 C 687.289001 572.715027 683.546021 587.411987 680.580994 602.867981 L 675.5 591.734985 C 670.268005 580.577026 664.880981 568.945984 658.310974 558.525024 C 658.642029 555.690002 659.163025 552.85199 659.60498 550.031006 L 663.026001 556.400024 C 668.619995 552.241028 674.35498 548.257996 679.760986 543.853027 Z"/>
    <path id="path19" fill="#fefefe" stroke="none" d="M 638.060974 616.892029 C 640.322998 618.85199 642.333008 621.61499 644.333008 623.869995 C 648.531006 628.603027 652.742004 633.30603 657.343018 637.656006 C 676.244995 655.525024 694.258972 662.617981 708.546997 687.062988 C 695.963013 680.184998 686.719971 675.070007 676.578003 664.695984 C 672.575012 660.299988 669.380981 655.231018 665.614014 650.638 C 662.869019 647.291016 656.27002 639.442017 651.596985 639.528992 C 647.5 639.606018 646.922974 645.401978 645.284973 648.112 C 644.338989 649.677002 642.731018 650.992004 641.435974 652.280029 C 633.708008 659.968018 625.929993 667.583008 618.471985 675.536987 L 638.060974 616.892029 Z"/>
    <path id="path20" fill="#fefefe" stroke="none" d="M 552.22699 646.867981 C 554 649.463013 554.338989 654.02301 555.323975 657.117004 C 530.692993 681.663025 499.740997 703.689026 465.966003 713.362976 C 456.118988 716.182983 445.990997 717.638977 435.871002 719.078003 L 432.584991 710.249023 C 479.329987 701.825989 518.604004 680.406982 552.22699 646.867981 Z"/>
    <g id="cravatta">
        <path id="path21" fill="#a99d96" stroke="none" d="M 709.258972 525.625 C 709.317017 525.627991 709.375977 525.620972 709.432007 525.635986 C 712.39801 526.466003 719.015991 538.179016 720.771973 541.031006 C 716.968994 546.187988 713.208984 552.348022 708.140015 556.320984 C 704.78302 555.789978 701.617981 555.028015 698.35498 554.080994 C 692.901001 552.088013 688.346008 544.911011 684.86499 540.486023 C 691.333984 535.687012 701.52301 527.064026 709.258972 525.625 Z"/>
        <path id="path22" fill="#a99d96" stroke="none" d="M 697.007996 559.754028 C 700.140991 561.380981 703.661011 561.596008 707.117004 562.018982 C 707.843018 563.734985 708.370972 565.518982 708.79303 567.333008 C 710.986023 576.762024 713.47699 608.86499 710.663025 617.182983 C 708.213989 624.421021 701.552002 632.567017 697.450989 639.247986 C 697.263 639.559021 696.890015 639.862976 696.632996 640.124023 C 694.054016 636.830994 686.833008 615.421021 684.940002 610.481995 C 686.273987 605.078003 686.921997 599.447021 687.994019 593.976013 C 690.255005 582.445007 693.093018 570.840027 697.007996 559.754028 Z"/>
    </g>
    <path id="path23" fill="#fefefe" stroke="none" d="M 653.718018 567.359985 C 657.64502 571.265015 689.403015 638.80603 693.992981 649.283997 C 691.752991 651.096008 689.776978 653.166016 687.760986 655.218018 L 683.166016 651.796997 C 673.075012 643.687988 663.143005 635.718018 653.825012 626.700012 C 649.028992 622.059021 644.697021 617.013977 640.062012 612.218018 L 647.945984 585.460999 C 649.713013 579.414978 651.198975 573.143982 653.718018 567.359985 Z"/>
    <path id="path24" fill="#a99d96" stroke="none" d="M 621.823975 377.468994 C 621.994019 377.476013 622.169983 377.438965 622.333008 377.488037 C 622.609985 377.571045 622.919006 377.645996 623.117981 377.85498 C 623.560974 378.31897 627.645996 390.015991 629.223022 392.674988 C 603.426351 403.377014 578.276672 415.429362 553.773987 428.832031 C 547.726013 432.103027 541.539978 435.25 535.640015 438.775024 C 531.59198 441.192993 527.651978 445.01001 523.247986 446.614014 C 521.455017 446.48999 520.297974 445.669006 518.79303 444.744995 L 509.019989 437.889038 C 534.937988 421.035034 562.776978 405.500977 590.536011 391.903992 C 600.859009 386.846985 611.390015 382.285034 621.823975 377.468994 Z"/>
    <path id="path25" fill="#fefefe" stroke="none" d="M 633.383972 907.213989 C 638.411011 906.64801 643.729004 906.828003 648.771973 907.017029 C 647.656982 913.047974 644.27301 937.325012 646.940979 941.534973 C 648.036011 943.263 659.046997 943.768005 661.762024 944.629028 C 661.973999 944.695984 662.184998 944.768005 662.396973 944.836975 C 664.984985 947.572021 666.52002 950.458008 668.030029 953.854004 C 656.116028 955.031006 643.557007 954.750977 631.599976 954.164001 C 630.927002 951.372986 630.044006 948.723022 629.093018 946.018005 C 627.947021 944.887024 627.08197 944.06897 625.58197 943.453003 L 624.906982 943.758972 C 624.184998 946.653992 626.84198 951.372009 627.982971 954.01001 C 623.640015 953.815002 614.914978 954.370972 611.596008 951.526001 C 603.953003 944.976013 598.517029 918.10498 597.533997 908.45697 C 609.445984 908.494019 621.499023 907.997009 633.383972 907.213989 Z"/>
    <path id="path26" fill="#fefefe" stroke="none" d="M 647.812988 651.575012 C 651.901978 655.237976 655.080017 661.770996 658.213989 666.333984 C 662.97998 673.271973 668.255005 679.97699 674.223022 685.916016 C 666.414001 689.572021 659.518005 695.570984 652.763977 700.872009 C 639.502991 711.278992 626.697021 722.210999 613.835022 733.103027 L 599.017029 746.346985 C 601.304993 739.893005 602.718994 733.127014 604.508972 726.518982 C 606.460022 719.315002 608.682007 712.190979 610.601013 704.973999 C 612.393005 698.231995 613.690002 688.958984 617.406006 683.14801 C 619.466003 679.924988 622.919006 677.065002 625.567017 674.267029 C 632.857971 666.560974 640.05603 658.817993 647.812988 651.575012 Z"/>
    <path id="path27" fill="#fefefe" stroke="none" d="M 337.162994 903.603027 C 351.705994 907.577026 366.403015 909.901978 381.496002 910.150024 C 388.178009 910.26001 394.843994 909.739014 401.532013 909.95697 C 401.993988 921.620972 401.035004 934.307007 403.816986 945.66803 C 411.007996 946.705017 418.020996 946.908997 425.161011 948.606018 C 426.359009 952.562012 427.501007 956.489014 428.406006 960.52301 C 419.895996 960.670349 411.385661 960.697673 402.875 960.60498 C 397.783671 960.635661 392.693003 960.70166 387.602997 960.802979 C 385.908997 955.637024 384.221008 947.286011 380.39801 943.340027 C 379.449005 942.359985 379.218994 942.411011 377.944 942.400024 L 377.373993 943.28302 C 377.134003 948.758972 381.138 955.322021 383.002991 960.455017 C 375.006012 960.594971 366.791992 959.333984 358.959991 957.768005 C 352.407013 944.450989 346.753998 931.406006 341.785004 917.409973 C 340.178009 912.88501 338.290985 908.270996 337.162994 903.603027 Z"/>
    <path id="path28" fill="#fefefe" stroke="none" d="M 735.815002 582.380981 C 735.932007 586.53302 735.187012 590.820007 735.189026 595.013 L 735.572021 636.09198 C 735.734985 687.14502 738.13501 731.734009 717.021973 779.786987 C 711.513 781.638977 705.807007 782.908997 700.155029 784.241028 C 701.203979 777.132996 703.489014 770.322021 704.205994 763.125 C 707.777323 741.739665 710.070333 720.217997 711.085022 698.559998 C 714.874023 694.369019 719.343994 689.197021 724.29303 686.452026 C 720.025024 680.336975 714.901001 674.830017 710.638 668.723999 C 706.182983 662.343994 702.455017 654.979004 698.864014 648.067017 C 715.013977 629.05603 727.432983 605.728027 735.815002 582.380981 Z"/>
    <path id="path29" fill="#fefefe" stroke="none" d="M 575.953003 872.28302 C 578.79303 871.992004 581.63501 872.116028 584.484985 872.172974 C 584.383972 891.679993 587.575012 914.520996 592.380981 933.396973 C 560.09198 931.56897 525.073975 932.724976 492.687988 933.385986 C 465.765015 933.935974 438.907013 934.122986 411.997009 935.440002 C 411.912994 931.98999 411.548004 928.580994 411.740997 925.125 C 411.324005 917.077026 411.420013 908.539978 412.463989 900.541016 C 421.238007 905.52301 431.002991 910.185974 440.894989 912.388977 C 451.380005 914.723022 451.166992 904.41803 455.255005 904.547974 C 459.432007 904.68103 468.295013 907.517029 472.938995 908.471985 C 494.223999 912.846985 515.71698 916.872009 537.390015 918.739014 C 542.124023 919.146973 547.164978 919.857971 551.896973 919.44397 C 554.544006 919.213013 557.013 918.616028 559.255005 917.14801 C 561.245972 915.844971 562.377014 914.268982 563.284973 912.090027 C 565.369995 907.083984 565.72998 901.025024 566.533997 895.692993 C 567.697021 887.974976 568.822998 880.187012 570.61499 872.585999 L 575.953003 872.28302 Z"/>
    <path id="path30" fill="#fefefe" stroke="none" d="M 651.129028 644.265991 C 656.088013 646.03302 663.34198 658.476013 667.13501 662.72998 C 670.802002 666.843018 674.849976 670.987976 679.010986 674.596985 C 687.476013 681.940002 697.547974 686.223999 707.367004 691.341003 C 703.958008 702.16803 702.049011 719.56897 699.778992 731.359009 C 697.103027 745.250977 692.900024 758.846008 688.643005 772.322021 C 687.632996 775.518982 685.952026 783.575012 683.164978 785.255005 C 678.16803 788.267029 633.380981 782.994995 624.380005 781.786987 C 613.700012 780.382019 602.528992 779.124023 592.177002 776.091003 C 593.119995 768.585022 595.484009 759.771973 597.898987 752.599976 C 607.317017 745.789978 616.000977 737.674988 624.801025 730.077026 C 633.901693 722.230998 643.168009 714.585999 652.599976 707.142029 C 661.692017 699.820007 670.343018 692.60498 680.97699 687.552979 C 677.754028 681.330994 672.445984 675.93103 668.012024 670.531982 C 663.596008 665.153015 659.504028 659.603027 655.857971 653.669983 C 654.046997 650.723022 652.06897 647.614014 651.129028 644.265991 Z"/>
    <path id="path31" fill="#472a2a" stroke="none" d="M 676.504028 722.52002 C 678.684021 722.478027 681.401978 722.182983 683.482971 722.882019 C 686.213013 723.797974 688.950989 725.60498 690.242004 728.257019 C 691.106018 730.030029 691.286011 731.97998 690.606995 733.843018 C 689.403015 737.146973 686.302002 739.13501 683.262024 740.536987 C 680.835022 740.976013 678.012024 741.377991 675.580017 740.825989 C 673.125 740.268005 670.768982 738.684021 669.549011 736.45697 C 668.434998 734.424988 668.309998 732.004028 669.047974 729.822998 C 670.234009 726.315002 673.291016 724.02002 676.504028 722.52002 Z"/>
    <path id="path32" fill="#fefefe" stroke="none" d="M 679.76001 727.604004 C 680.372986 727.611023 680.989014 727.619995 681.599976 727.679016 C 683.333008 727.844971 684.359985 728.549011 685.453979 729.898987 C 685.719971 731.218018 685.924988 731.849976 685.151001 733.090027 C 684.267029 734.505005 682.320007 734.939026 680.841003 735.411011 C 679.695007 735.362976 678.297974 735.328003 677.200989 734.994995 C 675.836975 734.58197 675.34198 733.83197 674.612976 732.679993 C 674.536011 731.440979 674.435974 731.044006 675.125977 729.950989 C 676.164001 728.310974 678.007996 728.013977 679.76001 727.604004 Z"/>
    <path id="path33" fill="#fefefe" stroke="none" d="M 741.953003 577.320007 C 744.133972 583.703003 744.419006 607.372986 744.947021 615.679016 C 746.16569 634.009013 747.664673 652.315999 749.44397 670.599976 C 751.14799 685.404012 753.263 700.149353 755.789001 714.835999 C 758.314351 729.522685 761.246358 744.127686 764.585022 758.651001 C 767.923686 773.174316 771.663676 787.593323 775.804993 801.90802 C 779.94635 816.222677 784.483012 830.411336 789.414978 844.473999 C 771.406006 854.692993 729.138 863.841003 708.117981 866.879028 C 694.942017 868.755981 681.999023 870.275024 668.690002 870.827026 C 677.150024 846.031006 693.531006 833.387024 709.117981 813.937012 C 712.534648 809.607015 715.68632 805.092346 718.572998 800.393005 C 721.459676 795.693665 724.061686 790.841329 726.379028 785.835999 C 750.484009 734.718018 743.138977 670.40802 742.242004 615.375 C 742.041992 603.059021 740.429993 590.169006 741.875977 577.924011 L 741.953003 577.320007 Z"/>
    <path id="path34" fill="#a99d96" stroke="none" d="M 844.403015 257.674988 C 846.002014 257.494019 847.635986 257.506958 849.242004 257.613037 C 859.585022 258.297974 868.544983 264.610962 875.242004 272.167969 C 890.700989 289.613037 898.343018 313.916992 896.778992 337.028015 C 895.862 350.587036 891.713013 367.015015 880.968018 376.244995 C 875.426025 381.005981 866.757996 385.395996 859.323975 384.85199 C 858.47998 384.762675 857.639994 384.645671 856.804016 384.500977 C 855.967346 384.356323 855.136678 384.184326 854.312012 383.984985 C 853.487345 383.785685 852.670003 383.559367 851.859985 383.30603 C 851.050008 383.053345 850.249003 382.774333 849.45697 382.468994 C 848.664978 382.163005 847.883993 381.831665 847.114014 381.474976 C 846.343994 381.118327 845.58665 380.736654 844.84198 380.329956 C 844.09731 379.923299 843.366659 379.492635 842.650024 379.037964 C 841.93335 378.583293 841.23234 378.105632 840.546997 377.60498 C 821.914978 364.150024 809.078979 338.584961 805.536011 316.177979 C 803.241028 301.664001 808.143005 285.587036 816.73999 273.85199 C 823.632019 264.442993 833.007996 259.445007 844.403015 257.674988 Z"/>
    <path id="path35" fill="#472a2a" stroke="none" d="M 844.335022 264.125 C 844.785665 264.090332 845.236654 264.058675 845.687988 264.030029 C 854.650024 263.458984 862.090027 265.68103 868.848022 271.700989 C 883.177002 284.463989 891.960022 308.172974 892.856018 326.992004 C 893.534973 341.247986 890.507996 358.837036 880.510986 369.708984 C 874.758972 375.963989 867.96698 378.151978 859.687988 378.557983 C 852.942017 377.367004 847.15802 374.504028 841.590027 370.575012 C 825.763 359.406982 814.322021 340.052979 811.145996 321.015015 C 808.479004 305.035034 812.890015 290.849976 822.302979 277.843018 C 827.822998 270.213989 835.059021 265.625 844.335022 264.125 Z"/>
    <path id="path36" fill="#fefefe" stroke="none" d="M 845.440002 269.153015 C 850.642029 268.585999 856.257019 269.613037 860.776001 272.271973 C 873.887024 279.987 882.357971 299.867004 885.80603 313.954956 C 889.445007 328.821045 888.942017 347.545044 880.754028 360.93396 C 877.510986 366.238037 872.674011 370.985962 866.414978 372.35199 C 859.140015 373.938965 850.182983 366.895996 844.502991 363.098022 C 839.567017 359.450012 835.414001 355.702026 832.132019 350.473022 C 832.190002 349.475667 832.217997 348.477661 832.216003 347.479004 C 832.21401 346.480306 832.182332 345.482625 832.120972 344.485962 C 832.059001 343.489299 831.967672 342.494975 831.846985 341.502991 C 831.725647 340.511658 831.574992 339.524984 831.39502 338.542969 C 831.215007 337.560303 831.005676 336.583984 830.767029 335.614014 C 830.528341 334.644694 830.261007 333.683024 829.965027 332.729004 C 829.669006 331.774984 829.344666 330.830648 828.992004 329.895996 C 828.639994 328.961995 828.259989 328.039001 827.85199 327.127014 C 825.424011 321.619995 821.294983 315.052979 815.48999 312.785034 C 815.44397 309.700989 814.713013 304.500977 815.724976 301.646973 C 815.997986 300.877991 816.312012 300.973022 817 300.703003 C 822.455994 301.578979 828.447998 308.728027 832.325989 312.485962 C 831.416992 308.80603 830.663025 304.744019 828.629028 301.497009 C 826.093994 297.448975 822.328003 296.369019 817.989014 295.30603 C 819.478027 290.915039 821.666992 286.921997 824.400024 283.177002 C 829.734009 275.872009 836.33197 270.625 845.440002 269.153015 Z"/>
    <g id="vestito">
        <path id="vestitosx" fill="#a99d96" stroke="none" d="M 325.002014 866.70697 C 334.036987 870.338989 343.399994 873.245972 352.628998 876.343018 C 368.677663 881.873657 384.822998 887.106649 401.065002 892.041992 L 401.14801 900.570984 C 378.890015 900.677979 356.782013 899.315979 335.164001 893.656006 C 331.728658 884.691325 328.341329 875.708313 325.002014 866.70697 Z"/>
        <path id="vestitodx" fill="#a99d96" stroke="none" d="M 589.593018 783.211975 C 627.906982 792.107971 672.903015 799.133972 711.573975 789.502991 C 703.504028 803.825012 691.947998 815.013 681.208008 827.281006 C 664.02002 846.914978 655.276978 870.762024 648.710022 895.567993 C 641.700989 895.328003 634.85199 895.992004 627.879028 896.614014 C 618.328003 897.606995 608.202026 898.260986 598.627991 897.379028 L 598.585999 896.815979 L 597.97699 897.22699 C 595.61499 892.294006 595.515991 875.107971 595.406982 868.98999 C 612.161987 865.054016 636.815979 857.315002 649.88501 846.197998 C 638.195007 848.643005 626.752991 852.491028 615.124023 855.268982 C 601.153992 858.606995 586.947021 860.682007 572.739014 862.700012 C 574.817993 855.187988 575.734009 847.291992 577.421021 839.676025 C 581.753011 820.914022 585.810343 802.092672 589.593018 783.211975 Z"/>
    </g>
    <path id="path37" fill="#fefefe" stroke="none" d="M 427.785004 346.447021 C 430.898987 358.540039 435.079987 369.295044 441.252014 380.134033 C 474.28299 438.134033 550.763 481.901978 611.583984 504.865967 C 626.598022 510.535034 641.825989 514.948975 657.263977 519.232971 C 656.282654 525.633647 655.059326 531.987996 653.593994 538.296021 C 652.129313 544.604004 650.427307 550.847005 648.487976 557.025024 C 640.546 554.008341 632.668009 550.832336 624.854004 547.497009 C 605.124674 539.183004 585.655009 530.300008 566.445007 520.848022 C 547.235006 511.396037 528.317332 501.391357 509.691986 490.833984 C 482.600006 475.519043 456.088013 459.803955 431.980011 439.940002 C 413.681 424.860962 395.444 406.688965 385.378998 384.953979 C 392.700989 377.223022 399.895996 369.219971 407.802002 362.078979 C 414.080994 356.407959 420.975006 351.447998 427.785004 346.447021 Z"/>
    <path id="path38" fill="#a99d96" stroke="none" d="M 408.743011 942.142029 C 414.528992 940.775024 420.742004 940.86499 426.658997 940.536011 C 443.850006 939.578979 461.019012 939.575012 478.22699 939.338013 L 552.911011 938.872986 C 566.63501 938.890991 580.471985 938.549011 594.182007 939.320984 C 597.265015 946.208984 601.182007 956.422974 608.79303 959.320007 C 616.879028 962.396973 684.268005 963.708008 690.273987 960.523987 C 691.203979 960.031006 691.934021 958.802979 692.119995 957.796997 C 692.737976 954.458984 689.971985 950.687988 687.937012 948.280029 C 686.388 946.447021 684.612976 944.900024 682.66803 943.499023 C 701.036987 943.598022 768.406982 950.619995 782.442017 958.716003 C 774.184021 962.034973 764.39801 965.710022 755.463989 966.372009 L 755.119995 965.195984 C 757.833984 964.409973 762.79303 963.442993 764.502014 961.01001 C 764.96698 960.348022 764.671021 959.961975 764.52301 959.231995 C 763.35498 958.382019 762.992004 958.427002 761.578979 958.666016 C 753.711975 959.992004 745.971985 962.080017 738.080994 963.375 C 708.822021 968.179993 678.859985 971.658997 649.325012 974.208984 C 626.342997 976.008341 603.336995 977.42334 580.307007 978.453979 C 539.442342 980.763997 498.549672 982.358337 457.628998 983.237 C 420.044993 983.731669 382.470998 983.309998 344.907013 981.971985 C 324.102997 981.542013 303.339325 980.384359 282.615997 978.499023 C 270.053009 977.414978 257.127014 976.336975 244.779007 973.703979 C 238.903 972.450989 232.380997 970.619019 227.337997 967.224976 C 226.423996 966.609985 225.962997 965.987 225.570999 964.974976 C 226.110992 963.593994 226.707001 963.232971 228.065002 962.622986 C 237.164001 958.536011 249.173996 956.627991 259.037994 955.005005 C 273.948659 952.473674 288.935994 950.538676 304 949.200012 C 316.975006 948.077026 330.022003 947.557983 342.960999 946.112976 C 346.61499 952.729004 350.223999 959.481018 355.88501 964.643982 C 363.39801 966.460999 371.006989 967.392029 378.695007 968.049011 C 392.084015 969.192017 448.393005 971.497009 457.296997 965.961975 C 458.679993 965.103027 459.332001 963.81897 459.561005 962.254028 C 459.966003 959.484985 458.160004 956.497009 456.514008 954.390991 C 448.223999 943.781006 421.552002 945.304016 408.743011 942.142029 Z"/>
    <path id="path39" fill="#472a2a" stroke="none" d="M 532.219971 967.155029 C 532.166992 966.40802 531.906982 965.896973 532.452026 965.296021 C 534.953003 962.53302 544.830994 962.750977 548.392029 962.872009 C 551.557983 962.979004 557.109985 963.406006 559.195984 966.054993 C 559.609009 966.578979 559.864014 967.315002 560.065002 967.947021 L 559.10498 969.046997 C 554.247009 971.054016 542.424011 970.435974 537.067017 969.802002 C 534.66803 969.518005 533.71698 969.070984 532.219971 967.155029 Z"/>
    <path id="path40" fill="#5e3738" stroke="none" d="M 535.91803 967.083008 C 538.106995 965.594971 552.169006 964.955994 555.130005 965.315002 C 556.437012 965.473022 557.179993 965.755981 558.023987 966.742981 L 558.150024 967.935974 C 554.557007 968.190002 538.424011 968.357971 535.91803 967.083008 Z"/>
    <path id="path41" fill="#a99d96" stroke="none" d="M 693.796021 283.704956 C 693.945984 283.684998 694.096008 283.661011 694.245972 283.645996 C 711.643982 281.858032 730.163025 288.313965 743.468994 299.395996 C 757.90802 311.421997 769.132996 330.901978 770.745972 349.765015 C 772.440979 369.594971 768.388977 389.85199 755.270996 405.328979 C 742.473022 420.427979 723.731018 429.14801 704.10199 430.692993 C 703.877014 430.718018 703.653015 430.75 703.427002 430.769043 C 686.607971 432.18396 666.531982 425.704956 653.513977 415.046021 C 638.521973 402.770996 629.320984 384.156006 627.551025 364.989014 C 625.745972 345.445007 632.640991 324.988037 645.155029 309.953003 C 657.635986 294.960999 674.31897 285.502991 693.796021 283.704956 Z"/>
    <path id="path42" fill="#472a2a" stroke="none" d="M 693.296021 293.203003 C 708.541016 291.205994 725.52301 296.224976 737.799011 305.269043 C 752.445984 316.059998 760.135986 333.105957 762.744019 350.723999 C 765.153992 367.005981 761.195007 384.859009 751.205994 398.052979 C 739.991028 412.868042 725.067993 420.910034 706.846985 423.417969 C 705.763 423.504639 704.677673 423.564982 703.591003 423.598999 C 702.504985 423.633016 701.418315 423.640686 700.330994 423.622009 C 699.244324 423.603333 698.158325 423.558329 697.072998 423.487 C 695.988322 423.41567 694.905986 423.317993 693.825989 423.19397 C 692.745992 423.069987 691.669657 422.920003 690.596985 422.744019 C 689.524312 422.567993 688.456319 422.366333 687.393005 422.139038 C 686.330343 421.911011 685.273336 421.657674 684.221985 421.379028 C 683.171326 421.100342 682.127991 420.796 681.09198 420.466003 C 680.05601 420.136658 679.028687 419.782328 678.01001 419.403015 C 676.991333 419.023661 675.98232 418.619995 674.982971 418.192017 C 673.983663 417.763997 672.995341 417.311991 672.018005 416.835999 C 671.04067 416.360006 670.075338 415.860352 669.122009 415.337036 C 668.168681 414.814331 667.228678 414.268982 666.302002 413.700989 C 665.375326 413.132345 664.462992 412.541667 663.565002 411.928955 C 662.667013 411.316325 661.784342 410.682332 660.916992 410.026978 C 660.049683 409.371663 659.19869 408.695679 658.364014 407.999023 C 657.57133 407.334351 656.795329 406.650675 656.036011 405.947998 C 655.277344 405.24467 654.536336 404.523336 653.812988 403.783997 C 653.088989 403.044657 652.383993 402.288005 651.697998 401.514038 C 651.012004 400.740031 650.345337 399.949341 649.697998 399.141968 C 649.050659 398.335327 648.423319 397.513 647.815979 396.674988 C 647.20933 395.836975 646.623678 394.98466 646.059021 394.118042 C 645.493673 393.251343 644.950338 392.371338 644.429016 391.478027 C 643.907003 390.584676 643.407674 389.678996 642.93103 388.760986 C 642.453695 387.843018 641.999349 386.914022 641.567993 385.973999 C 641.137329 385.033325 640.729655 384.082987 640.344971 383.122986 C 639.960327 382.162333 639.59967 381.192993 639.263 380.214966 C 638.926331 379.236979 638.613668 378.251322 638.325012 377.257996 C 638.037008 376.263977 637.773661 375.263631 637.534973 374.256958 C 637.295675 373.250977 637.08136 372.239319 636.892029 371.221985 C 636.702657 370.204692 636.538656 369.183695 636.400024 368.158997 C 636.261353 367.133647 636.147685 366.105652 636.059021 365.075012 C 634.599976 346.286011 640.218994 328.807007 652.492981 314.481995 C 662.867981 302.374023 677.315002 294.458008 693.296021 293.203003 Z"/>
    <path id="path43" fill="#fefefe" stroke="none" d="M 692.789978 299.209961 C 699.176025 297.719971 707.5 299.551025 713.906006 300.426025 C 711.153992 301.479004 708.388977 302.521973 705.802979 303.947021 C 695.041992 309.879028 687.885986 320.151978 684.442993 331.812012 C 695.625 322.801025 708.195007 313.052002 723.223022 313.018005 C 730.356995 313.002014 739.341003 314.994019 744.401001 320.291992 C 753.596985 329.922974 757.900024 346.747986 757.689026 359.738037 C 757.400024 377.609009 751.533997 391.005981 738.719971 403.351013 C 729.999023 410.890991 719.424011 416.287964 707.903015 417.648987 C 691.640015 419.56897 675.745972 414.296021 663.033997 404.124023 C 662.284648 403.517334 661.550639 402.892334 660.83197 402.249023 C 660.113342 401.605672 659.411011 400.944987 658.724976 400.266968 C 658.039673 399.588989 657.371338 398.894328 656.719971 398.182983 C 656.069336 397.471639 655.436686 396.744303 654.822021 396.000977 C 654.206665 395.258301 653.610657 394.500651 653.033997 393.728027 C 652.456685 392.955322 651.899028 392.16866 651.361023 391.368042 C 650.823018 390.567993 650.305339 389.754639 649.807983 388.927979 C 649.310669 388.101969 648.834005 387.263977 648.377991 386.414001 C 647.922668 385.564026 647.488668 384.703369 647.075989 383.832031 C 646.662659 382.960693 646.271667 382.079346 645.903015 381.187988 C 645.534322 380.297323 645.187642 379.397664 644.862976 378.489014 C 644.539001 377.581014 644.237671 376.665344 643.958984 375.742004 C 643.68099 374.818665 643.425659 373.888997 643.192993 372.953003 C 642.960978 372.017008 642.752319 371.075684 642.567017 370.129028 C 642.381673 369.182983 642.219991 368.232646 642.08197 367.278015 C 641.94399 366.323344 641.829671 365.366007 641.739014 364.406006 C 640.096985 348.411987 645.619995 332.179993 655.719971 319.837036 C 665.070984 308.410034 678.005981 300.752014 692.789978 299.209961 Z"/>
    <path id="path44" fill="#472a2a" stroke="none" d="M 707.45697 338.546021 C 708.994019 338.410034 710.578003 338.234985 712.107971 338.51001 C 716.914001 339.374023 721.244019 343.01001 723.97998 346.903992 C 729.45697 354.700989 732.11499 366.656006 730.445984 376.041016 C 729.406006 381.890991 726.995972 386.726013 722.075012 390.176025 C 720.611023 390.504028 719.156982 390.697021 717.66803 390.417969 C 712.767029 389.499023 709.077026 386.252014 706.356018 382.218018 C 700.502014 373.537964 697.513 361.112 699.643005 350.789001 C 700.737 345.489014 702.890015 341.526978 707.45697 338.546021 Z"/>
    <path id="path45" fill="#fefefe" stroke="none" d="M 678.593994 224.619995 C 701.565002 228.212036 724.421021 239.455994 743.570984 252.39502 C 751.083008 257.471008 758.101013 263.14502 765.721008 268.125 C 765.091003 259.26001 762.327026 251.526001 759.101013 243.335022 C 773.013 252.963013 793.880981 286.967041 798.914978 304.014038 C 800.611023 309.759033 800.341003 316.702026 801.434998 322.702026 C 791.260315 324.291341 781.248311 326.589661 771.398987 329.596985 C 765.245972 314.223022 756.979004 301.747009 743.64801 291.552002 C 728.393982 279.88501 708.10498 275.27002 689.249023 277.917969 C 668.68103 280.80603 649.580994 292.591003 637.231018 309.210999 C 624.500977 326.343018 619.216003 348.984985 622.315979 369.97699 C 608.00531 376.101664 593.898641 382.663656 579.995972 389.662964 C 566.092651 396.662964 552.419657 404.086975 538.97699 411.934998 C 529.174988 417.588013 519.72699 423.803955 510.003998 429.583008 C 512.192017 424.281006 515.179016 419.369995 518.059021 414.426025 C 522.122009 407.791016 525.343018 400.31897 528.869995 393.372009 C 533.002014 394.292969 542.278015 396.782959 545.997986 394.134033 C 546.745972 393.60199 546.56897 393.450989 546.679016 392.631958 C 544.671021 389.75 538.028015 389.974976 534.637024 389.22699 C 521.622009 386.358032 509.028015 377.825012 501.919006 366.505981 C 497.299988 359.153015 494.665009 350.182983 496.868011 341.55603 C 498.303986 335.93103 502.032013 331.717041 507.036987 328.896973 C 523.245972 319.760986 548.262024 322.536987 564.526001 330.063965 C 570.301025 332.737 576.221008 337.437012 582.224976 339.132996 L 582.70697 338.728027 C 582.653015 338.605957 582.607971 338.47998 582.544006 338.362 C 581.650024 336.714966 579.765991 334.990967 578.413025 333.679993 C 569.309021 324.862 557.513977 320.974976 545.575989 317.622009 C 548.226013 315.242004 550.968994 313.156006 554.138 311.515991 C 558.265991 309.380005 574.908997 303.676025 576.890991 300.665039 L 576.515015 300 C 571.31897 297.89502 550.413025 296.812012 543.921997 296.780029 C 563.776978 286.721008 585.627014 280.39502 606.794983 273.776978 C 611.401978 272.337036 616.252991 271.207031 620.791016 269.61499 C 622.122009 269.148987 623.034973 268.879028 623.827026 267.665039 C 618.823975 262.416992 575.927979 251.900024 567.04303 249.617004 C 574.276001 248.087036 581.942017 247.559998 589.283997 246.651001 C 617.414001 243.166016 643.517029 241.562012 671.742004 245.962036 C 682.338013 247.614014 692.642029 251.151978 703.249023 252.702026 L 703.950012 252.801025 C 698.254028 242.22699 687.791016 232.219971 678.593994 224.619995 Z"/>
    <path id="path46" fill="#472a2a" stroke="none" d="M 531.213013 349.221008 C 534.315002 349.255981 537.427979 349.266968 540.526978 349.412964 C 546.656006 349.700989 558.508972 351.617004 562.65802 356.458984 C 563.427979 357.356995 563.478027 357.505981 563.375977 358.614014 C 563.215027 358.709961 563.062988 358.822998 562.890991 358.901001 C 559.89801 360.259033 555.171021 357.971008 552.237 357.02002 C 544.999023 355.672974 537.44397 354.289001 530.060974 354.494019 C 526.486023 354.593018 520.724976 356.294006 517.401978 355.109985 L 517.012024 354.172974 C 517.26001 353.295044 517.601013 352.72699 518.205017 352.05603 C 521.099976 348.843994 527.174011 349.410034 531.213013 349.221008 Z"/>
    <path id="path47" fill="#fefefe" stroke="none" d="M 807.400024 341.679993 C 808.45697 342.848999 809.174011 345.160034 809.841003 346.629028 C 817.703003 363.938965 829.442017 381.903015 848.127991 388.752014 C 856.986023 391.997986 864.851013 391.420044 873.341003 387.411011 C 888.919983 395.802002 906.197021 398.412964 923.48999 400.730957 C 923.153015 403.363037 922.97699 405.927979 923.046997 408.582031 C 923.294983 417.893005 927.666016 422.672974 934.026978 428.766968 C 914.13501 444.770996 890.325989 457.078979 867.017029 467.223022 C 840.804016 478.630005 813.823975 487.452026 786.606018 496.061035 C 768.247986 501.867004 750.276978 508.950989 731.354004 512.929016 C 722.697998 514.749023 713.828003 515.211975 705.007019 515.38501 C 679.491028 515.88501 655.482971 512.039001 631.625977 502.658997 C 617.166667 497.206319 602.947998 491.185649 588.969971 484.596985 C 574.991333 478.008972 561.297668 470.873983 547.888977 463.192017 C 540.955994 459.203003 533.911987 455.510986 527.804993 450.282959 C 536.599976 444.02301 546.651001 438.958984 556.13501 433.796021 C 579.612976 421.014038 606.531006 407.380005 631.419006 397.768005 C 636.164978 405.053955 640.650024 411.572998 647.252991 417.35498 C 647.753682 417.786987 648.259684 418.212992 648.770996 418.632996 C 649.282349 419.052307 649.799011 419.465637 650.320984 419.872986 C 650.842346 420.279683 651.369019 420.680013 651.901001 421.073975 C 652.432332 421.467326 652.968669 421.854329 653.51001 422.234985 C 654.051351 422.615682 654.597351 422.989339 655.14801 423.355957 C 655.698669 423.722656 656.253662 424.082682 656.812988 424.436035 C 657.372314 424.788656 657.935994 425.134644 658.504028 425.473999 C 659.072021 425.812663 659.644348 426.144653 660.221008 426.469971 C 660.797017 426.794678 661.37734 427.112345 661.961975 427.422974 C 662.546 427.732992 663.134013 428.036011 663.726013 428.332031 C 664.317322 428.628011 664.912659 428.916341 665.512024 429.197021 C 666.110657 429.478353 666.712972 429.752014 667.31897 430.018005 C 667.924316 430.283997 668.533 430.542318 669.14502 430.792969 C 669.75769 431.04366 670.373027 431.287008 670.991028 431.52301 C 671.609029 431.758321 672.230021 431.985982 672.854004 432.205994 C 673.477987 432.426656 674.104655 432.639323 674.734009 432.843994 C 675.362671 433.048014 675.993998 433.24467 676.627991 433.43396 C 677.261983 433.622681 677.898315 433.803691 678.536987 433.97699 C 679.175659 434.149638 679.816325 434.314636 680.458984 434.471985 C 681.101644 434.629333 681.745992 434.778687 682.392029 434.920044 C 683.038676 435.060669 683.686666 435.193644 684.335999 435.31897 C 684.985982 435.444295 685.637309 435.56132 686.289978 435.670044 C 686.941996 435.778687 687.595662 435.879333 688.250977 435.971985 C 688.906331 436.064636 689.562337 436.148966 690.218994 436.224976 C 690.876343 436.301636 691.534342 436.369975 692.192993 436.429993 C 692.852336 436.490011 693.512004 436.541667 694.171997 436.584961 C 694.831991 436.628337 695.492655 436.663696 696.153992 436.69104 C 696.814677 436.718343 697.475688 436.737325 698.137024 436.747986 C 698.79836 436.758687 699.460022 436.761027 700.122009 436.755005 C 700.783346 436.749674 701.444682 436.736003 702.106018 436.713989 C 702.767354 436.691325 703.428019 436.660665 704.088013 436.622009 C 704.748657 436.583313 705.408651 436.536641 706.067993 436.481995 C 707.347982 436.387309 708.62498 436.261312 709.898987 436.104004 C 711.172994 435.947347 712.442322 435.759013 713.70697 435.539001 C 714.971659 435.319641 716.230326 435.06897 717.482971 434.786987 C 718.735006 434.505656 719.979675 434.193665 721.21698 433.851013 C 722.453674 433.508362 723.681356 433.135356 724.900024 432.731995 C 726.118693 432.328674 727.326681 431.895671 728.523987 431.432983 C 729.721334 430.970988 730.906677 430.479329 732.080017 429.958008 C 733.253357 429.437337 734.413025 428.888 735.559021 428.309998 C 736.705668 427.732646 737.836995 427.126994 738.953003 426.493042 C 740.069661 425.85966 741.170003 425.1993 742.254028 424.511963 C 743.338013 423.823975 744.404338 423.109985 745.453003 422.369995 C 746.501668 421.630005 747.531677 420.864665 748.54303 420.073975 C 749.554342 419.283325 750.545329 418.468343 751.515991 417.629028 C 752.487345 416.789673 753.437358 415.927002 754.366028 415.041016 C 755.294657 414.155029 756.200989 413.246704 757.085022 412.31604 C 757.969014 411.385376 758.829671 410.43335 759.666992 409.459961 C 773.629028 393.115967 777.804016 370.379028 776.237 349.422974 C 786.630981 346.867004 796.903015 343.797974 807.400024 341.679993 Z"/>
    <path id="path48" fill="#472a2a" stroke="none" d="M 741.43103 440.247986 C 743.737 442.898987 743.411011 449.139038 743.656006 452.666992 C 758.744019 461.921997 776.874023 463.785034 794.177002 462.644043 C 799.106018 462.31897 804.39801 461.171021 809.314026 461.617004 L 809.710999 462.109009 C 809.348999 462.703003 809.340027 462.77301 808.809021 463.349976 C 804.03302 468.545044 784.492981 469.226013 777.875977 468.971985 C 765.357971 468.971008 754.797974 464.585999 743.70697 459.359985 C 737.61499 464.620972 733.445007 471.963013 727.91803 477.812988 L 727.538025 477.270996 C 727.427002 469.334961 734.588013 461.040039 739.21698 455.018005 C 739.078979 450.424011 739.507019 444.47998 741.43103 440.247986 Z"/>
    <path id="chioma" fill="#a99d96" stroke="none" d="M 525.674988 63.879395 C 549.435974 71.520386 578.38501 89.387207 598.812012 103.884033 C 608.057007 110.44397 616.932007 117.75 625.564026 125.093018 C 629.690979 128.604004 633.557983 132.638 637.937012 135.825012 C 639.29303 136.812012 640.901978 137.929993 642.627014 137.990967 L 643.307007 136.981018 C 645.159973 125.109985 627.460999 91.734314 623.39801 79.442871 C 623.335022 79.249512 623.275024 79.054688 623.213013 78.860718 C 647.289001 97.005798 679.47998 129.125977 696.728027 153.937012 C 704.116028 164.563965 709.409973 176.577026 717.117981 186.917969 C 716.526001 171.757019 713.036987 156.724976 709.890991 141.942993 C 708.062988 133.349976 706.453003 124.723999 704.406006 116.177979 C 716.026001 126.942993 725.90802 141.747009 734.013 155.286987 C 740.741028 166.528015 746.544006 178.151978 752.091003 190.015015 C 755.906982 198.177002 759.502991 206.807007 763.98999 214.606018 C 764.716003 215.867981 765.401001 216.823975 766.734985 217.490967 C 767.586975 217.304016 767.906006 217.363037 768.559021 216.728027 C 774.263 211.179016 772.122009 179.846985 771.833984 171.478027 C 785.825989 209.698975 788.76001 230.212036 788.494995 270.578979 C 780.84198 258.368042 773.495972 246.901978 762.077026 237.785034 C 759.565002 235.780029 756.78302 233.497009 753.778015 232.289978 C 752.343994 231.713989 751.356995 231.577026 749.926025 232.151978 C 749.132996 234.554016 757.401001 253.210999 758.682007 256.557983 L 758.039978 255.999023 C 737.156006 238.052979 707.440979 222.639038 680.26001 217.906006 C 675.879028 217.143005 670.940002 216.259033 666.481018 216.687012 C 664.658997 216.860962 663.570007 217.224976 662.380005 218.630005 C 662.367981 219.088989 662.156006 219.588013 662.343994 220.007996 C 662.978027 221.421021 670.325989 226.177979 671.848999 227.207031 C 679.33197 232.268005 685.840027 238.285034 692.013 244.864014 C 676.655029 238.794983 658.156982 236.424011 641.742004 235.588013 C 632.138977 235.098999 622.679016 235.358032 613.091003 236.005005 C 602.81897 236.698975 552.638977 242.18103 547.291016 248.370972 C 546.328979 249.484009 546.367004 249.71698 546.515991 251.078003 C 547.619995 252.56897 548.517029 252.785034 550.213989 253.271973 C 558.317017 255.598022 566.974976 256.333008 575.231018 258.160034 C 586.780029 260.713989 598.117004 264.14801 609.669983 266.661011 C 600.931335 268.699015 592.259684 270.990682 583.655029 273.536011 C 573.593994 276.609009 531.435974 291.040039 527.703979 299.466003 C 527.366028 300.22998 527.627014 300.407959 527.89502 301.120972 C 530.786987 302.723022 557.646973 302.562012 562.901001 302.537964 C 552.671021 305.860962 543.341003 311.295044 533.893005 316.354004 C 533.330994 316.234009 532.830994 316.129028 532.255005 316.109009 C 519.406982 315.682983 505.485992 318.817017 496.161011 328.146973 C 490.442993 333.868042 488.437988 340.666992 488.513 348.592041 C 488.644989 362.528992 496.110992 373.525024 505.70401 383.039001 C 502.447998 385.405029 495.747986 388.535034 494.278992 392.322021 C 494.459015 393.046997 494.420013 393.453003 495.011993 393.979004 C 500.171997 398.562988 514.609985 398.709961 521.086975 398.476013 C 515.557983 410.202026 507.303009 420.497009 503.576996 433.028015 C 503.381012 432.915039 503.181 432.807007 502.987 432.687988 C 484.166992 421.057983 458.533997 390.14801 448.126007 370.255005 C 445.870005 365.946981 443.897339 361.512655 442.208008 356.952026 C 440.519328 352.392008 439.128326 347.742676 438.035004 343.004028 C 451.67099 329.505981 482.117004 321.60199 499.30899 312.942993 C 494.141998 312.040039 489.463013 309.843994 484.536011 308.148987 C 480.472992 306.75 476.319 305.795044 472.13501 304.838989 C 485.065002 302.281982 498.885986 303.040039 512.030029 302.271973 C 504.290009 297.515015 497.407013 295.44397 488.248993 295.535034 C 481.247986 295.60498 459.53299 297.867004 455.074005 303.803955 C 454.390015 304.713989 454.476013 305.184998 454.674988 306.190002 C 458.092987 310.697021 470.04599 311.382996 475.389008 312.360962 C 444.227997 323.657959 414.695007 339.625 390.929993 363.041992 C 384.915009 368.968994 378.459015 375.766968 374.841003 383.494019 C 374.881989 383.634033 374.92099 383.775024 374.963013 383.914001 L 375.179993 384.612 C 376.730988 389.713013 379.348999 394.200989 382.089996 398.743042 C 365.64801 412.631958 348.665009 425.817017 332.78299 440.372009 C 326.233002 446.338684 319.804667 452.433675 313.497986 458.656982 C 307.191325 464.88033 301.011332 471.22701 294.958008 477.697021 C 288.904663 484.166992 282.982992 490.75533 277.192993 497.462036 C 271.402995 504.16866 265.749329 510.988322 260.231995 517.921021 C 254.714661 524.852987 249.337662 531.892639 244.100998 539.039978 C 238.864334 546.187317 233.772669 553.43632 228.826004 560.786987 C 223.879339 568.137655 219.08134 575.58433 214.432007 583.127014 C 209.782664 590.669006 205.28566 598.301005 200.940994 606.02301 C 194.356995 617.687988 188.485992 629.867981 182.380005 641.794983 C 168.337997 670.882996 157.022003 699.992981 148.037994 731.028992 C 145.895004 716.692993 146.593994 703.919983 148.492004 689.617004 C 136.186996 695.403992 127.386002 705.309021 118.306999 715.109985 C 118.912003 687.859009 129.345001 645.968994 139.873001 620.838989 C 125.092003 627.182007 107.825996 638.340027 96.807198 650.208984 C 104.504997 609.978027 121.042 578.049988 140.223999 542.393005 C 121.163002 546.593994 101.003998 560.591003 84.670502 571.145996 C 96.192299 542.169983 121.873001 509.782959 142.684006 486.734009 C 148.300995 480.513 154.018997 474.06897 160.302002 468.528015 C 135.807999 472.156006 113.278999 481.167969 90.793602 491.197021 C 102.652 471.239014 143.102005 426.640015 161.804001 414.843994 C 165.766006 416.406982 169.886002 417.73999 173.979004 418.915039 C 176.707993 419.698975 181.272995 421.156006 183.830994 419.739014 C 183.798996 419.594971 183.787994 419.446045 183.735001 419.30896 C 182.511002 416.157959 166.216003 408.520996 162.432007 406.55603 C 170.503006 406.098022 188.544998 405.903015 195.149002 403.674011 C 196.294998 403.286011 197.195007 402.796997 197.735992 401.670044 L 197.033997 400.799988 C 179.481995 393.799988 129.927002 400.854004 110.640999 404.733032 C 117.841003 396.749023 126.295998 389.971985 134.671997 383.268005 C 155.569 366.540039 178.380997 351.070007 201.602005 337.710999 C 208.179001 333.927002 215.033005 330.619995 221.697006 326.987 C 201.688004 318.879028 159.110992 322.264038 137.488998 325.669006 C 169.328003 299.307007 207.524002 275.641968 246.367004 261.285034 C 252.733994 258.93103 259.52301 256.099976 266.273987 255.198975 C 250.306 243.846985 219.139999 242.070984 199.802994 239.787964 C 206.057007 235.734985 213.854004 233.005005 220.834 230.386963 C 232.353338 226.102336 244.017003 222.254354 255.824997 218.843018 C 267.632339 215.431681 279.551005 212.467 291.580994 209.948975 C 304.131989 207.296997 318.78299 205.39801 330.700012 200.766968 C 306.585999 187.247009 284.622009 183.578979 258.196014 177.208984 C 283.957001 170.900024 311.002014 166.184998 337.505005 164.641968 C 353.428986 163.714966 369.388 164.067993 385.324005 164.369995 C 373.830994 150.083008 337.695007 138.828003 320.15799 130.843018 C 330.459991 129.474976 340.701996 127.627014 351.080994 126.927979 C 382.463013 124.812012 415.993988 128.815979 446.722992 135.167969 C 455.821991 137.047974 464.665985 139.984009 473.722992 142.01001 C 475.649994 142.440979 478.192993 143.238037 479.928986 142.127991 C 479.933014 141.500977 479.966003 141.494995 479.773987 140.78302 C 478.950989 137.734009 475.134003 133.813965 473.214996 131.291992 C 456.815002 109.749023 440.045013 97.00293 417.761993 82.191284 C 426.338013 83.318298 435.014008 84.300781 443.484009 86.094727 C 449.833008 87.439392 456.108002 89.507507 462.316986 91.384399 C 483.791992 97.875916 504.087006 105.827026 524.150024 115.903992 C 531.59198 119.641968 538.745972 123.942017 545.981018 128.062012 C 549.432007 130.028015 553.140991 132.546997 556.913025 133.820007 C 558.291992 134.286011 558.883972 134.417969 560.174011 133.75 C 560.625 132.914978 560.987976 132.113037 561.046021 131.155029 C 561.232971 128.031006 559.330017 123.687988 558.370972 120.742981 C 551.051025 98.271301 540.413025 82.145874 525.674988 63.879395 Z"/>
    <path id="path49" fill="#472a2a" stroke="none" d="M 175.863998 576.208008 C 179.505335 575.859334 183.144669 575.878662 186.781998 576.265991 C 188.863998 576.481018 192.132996 576.505981 193.501999 578.192993 C 190.649994 580.676025 168.979004 585.096985 163.688995 586.609985 C 159.975998 587.672974 156.326004 588.971008 152.688004 590.265015 C 160.852997 590.856018 168.636993 593.317017 176.365997 595.882019 C 177.106995 596.156982 177.735001 596.585999 178.410004 596.992004 L 178.395996 597.846008 C 178.046997 597.997986 177.720001 598.15802 177.354004 598.26001 C 171.759003 599.822998 148.615997 598.132996 143.834 595.195984 C 142.492004 594.372009 141.251007 593.004028 141.033997 591.380005 C 140.811005 589.711975 141.261993 588.369995 142.307999 587.093994 C 148.126999 579.997009 167.352997 576.974976 175.863998 576.208008 Z"/>
    <path id="path50" fill="#472a2a" stroke="none" d="M 428.526001 148.437012 C 448.143005 151.596985 465.286987 161.036011 479.43399 174.809021 C 466.286011 170.304016 454.117004 163.77002 440.816986 159.539001 L 437.709015 158.588989 L 437.511993 158.792969 C 439.342987 161.244995 442.233002 163.364014 444.437012 165.528015 C 450.411987 171.393005 456.071991 177.778015 460.362 184.994995 C 449.873993 178.85498 437.69101 169.455994 429.009003 160.908997 C 427.223999 159.151001 424.488007 156.437012 424.777008 153.697021 C 425.016998 151.421997 426.957001 149.875 428.526001 148.437012 Z"/>
    <path id="path51" fill="#472a2a" stroke="none" d="M 212.085999 482.708008 C 224.768997 481.351013 237.255005 483.584961 247.744003 490.898987 C 234.776993 491.775024 221.710999 490.157959 208.710007 490.660034 C 214.533005 493.025024 220.214996 495.468018 225.75 498.460999 C 228.257996 499.709961 235.203995 502.764038 236.167999 505.434998 C 231.255005 507.079956 203.171997 497.617004 197.729004 494.864014 C 195.322998 493.646973 193.378006 492.417969 192.531006 489.77301 C 192.714996 488.855957 192.684998 488.372986 193.298004 487.629028 C 196.742996 483.450989 207.123001 483.141968 212.085999 482.708008 Z"/>
    <path id="path52" fill="#472a2a" stroke="none" d="M 337.34201 206.987 C 337.744008 206.976339 338.146342 206.973674 338.549011 206.979004 C 353.575012 207.238037 382.333008 227.367004 393.052002 238.182007 C 381.240997 235.343994 370.132996 227.768982 359.182007 222.613037 C 355.15799 220.596008 350.928986 218.957031 346.774994 217.226013 C 353.806 225.973022 360.851013 234.672974 367.460999 243.747009 C 359.487 240.660034 352.891998 234.610962 347.173004 228.414001 C 343.294006 224.212036 334.566986 215.61499 334.817993 209.776978 C 335.444 208.252014 336.03299 207.880005 337.34201 206.987 Z"/>
    <path id="path53" fill="#472a2a" stroke="none" d="M 613.633972 140.393005 C 618.513 140.448975 621.302979 142.953979 624.828003 146.046997 C 634.828979 154.823975 642.049011 166.245972 648.085022 177.976013 C 649.286011 180.309021 651.164978 183.417969 651.245972 186.072021 C 651.278015 187.10199 651.304993 187.208008 650.562012 187.955017 C 646.054016 186.358032 633.848999 166.797974 629.815002 161.822021 C 627.320007 158.525024 624.445984 155.672974 621.531982 152.757019 C 626.645996 163.505005 633.354004 177.309998 635.244995 189.026001 C 633.463013 187.615967 631.877014 186.239014 630.489014 184.417969 C 624.510986 176.578003 614.554993 156.31897 612.599976 146.551025 C 612.08197 143.958984 612.185974 142.624023 613.633972 140.393005 Z"/>
    <path id="path54" fill="#472a2a" stroke="none" d="M 514.685974 168.495972 C 516.286011 168.424988 517.822021 168.452026 519.393005 168.802002 C 534.750977 172.221985 553.963013 189.723022 562.338989 202.61499 L 561.442993 202.231995 C 553.732971 199.02002 546.963989 193.207031 540.138 188.468994 C 534.317017 184.427979 528.325989 180.69397 522.271973 177.013 L 521.236023 176.682007 C 521.820007 178.687012 545.580994 206.903015 549 210.700012 L 548.309021 210.445984 C 535.502014 205.68103 516.883972 186.39801 511.296997 174.296997 C 512.153015 171.988037 512.963989 170.292969 514.685974 168.495972 Z"/>
    <path id="path55" fill="#472a2a" stroke="none" d="M 359.919006 296.474976 C 362.11499 296.476013 364.166992 296.820007 366.246002 297.539001 C 375.76001 300.825012 405.266998 315.915039 409.575989 324.536011 L 409.104004 325.113037 C 401.024994 324.954956 382.545013 313.23999 374.14801 309.321045 L 368.447998 307.057983 C 372.77301 311.513 376.657013 316.700012 380.438995 321.622986 C 382.618988 324.459961 389.721008 332.880005 389.274994 336.278015 C 386.723999 336.429993 384.588013 334.457031 382.753998 332.841003 C 377.774994 328.455994 357.627991 307.572021 357.501007 301.330994 C 357.455994 299.118042 358.462006 297.963989 359.919006 296.474976 Z"/>
    <path id="path56" fill="#472a2a" stroke="none" d="M 259.083008 282.627991 C 276.222992 282.981995 297.871002 298.23999 311.451996 308.057983 C 300.102997 306.533997 275.281006 292.828979 267.880005 293.209961 L 268.018005 293.843018 C 276.893005 302.437012 288.286987 310.877014 293.966003 322.05603 C 285.688995 316.337036 256.694 297.895996 253.811996 289.31604 C 253.376999 288.02002 253.292007 286.747009 254.035995 285.530029 C 255.136002 283.730957 257.183014 283.162964 259.083008 282.627991 Z"/>
    <path id="path57" fill="#472a2a" stroke="none" d="M 429.444 231.47998 C 443.798004 231.127991 477.533997 246.632996 487.880005 255.797974 C 474.928009 253.287964 462.485992 248.148987 450.006989 243.964966 L 441.300995 241.242981 C 449.597992 249.261963 460.069 255.5 466.740997 265.067993 C 453.773987 260.983032 440.10199 251.700989 430.285004 242.296021 C 428.278992 240.374023 426.313995 238.271973 426.238007 235.364014 C 426.809998 233.526001 428.010986 232.692017 429.444 231.47998 Z"/>
    <path id="path58" fill="#472a2a" stroke="none" d="M 246.938004 402.046021 L 247.160995 402.031982 C 263.072998 401.171997 281.641998 404.530029 296.575012 410.19397 C 298.971985 411.104004 301.721008 411.757996 303.651001 413.492004 L 303.319 414.129028 C 296.308014 416.166016 268.846008 411.252014 259.88501 410.791992 C 260.399994 411.667969 261.641998 412.281006 262.483002 412.859009 C 272.020996 418.072021 281.253998 424.506958 289.506989 431.575012 C 280.220001 429.598999 250.365997 416.73999 244.972 409.612 C 244.035004 408.372986 243.406006 406.968018 243.802002 405.380005 C 244.212006 403.730957 245.628006 402.928955 246.938004 402.046021 Z"/>
    <path id="path59" fill="#fefefe" stroke="none" d="M 386.528992 406.995972 C 389.388 408.890015 394.268005 416.278992 396.904999 419.328979 C 399.923004 422.794312 403.047343 426.16097 406.278015 429.428955 C 418.940002 442.410034 432.266998 453.322021 446.950989 463.947021 C 446.877991 521.531982 471.994995 577.843018 504.610992 624.210022 C 512.439026 635.338013 522.017029 645.169983 529.778015 656.23999 L 530.132019 656.754028 C 512.888 670.29303 492.957001 680.901001 473.115997 690.049988 C 466.394012 685.879028 460.325012 679.270996 454.735992 673.69397 C 418.067993 637.10199 396.203003 587.65802 383.971008 537.937012 C 381.102997 526.276001 379.148987 514.265991 376.838989 502.471985 C 376.075012 498.571045 375.897003 493.750977 374.311005 490.156006 L 373.802002 490.087036 C 373.703003 490.252991 373.579987 490.407959 373.502991 490.585999 C 372.664001 492.546021 373.346985 496.268005 373.450989 498.395996 C 374.533997 520.499023 377.904999 545.059998 383.872986 566.372009 C 381.81366 563.621318 379.839996 560.809977 377.951996 557.937988 C 376.064667 555.06665 374.266673 552.139994 372.558014 549.15802 C 370.850006 546.176005 369.234334 543.144674 367.710999 540.064026 C 366.188334 536.983337 364.761332 533.858988 363.429993 530.690979 C 365.212006 543.799988 372.904999 557.757996 380.138 568.690979 C 381.821991 571.234985 384.364014 573.435974 385.739014 576.106018 C 388.251007 580.981995 389.787994 586.752991 391.548004 591.95697 C 382.782013 585.15802 374.162994 578.43103 366.709991 570.151001 C 361.993011 564.911011 358.044006 559.142029 353.471985 553.801025 C 359.981995 568.052979 370.786987 580.492004 383.005005 590.255005 C 385.718994 592.422974 390.010986 593.958984 392.005005 596.797974 C 394.808014 600.791016 396.572998 605.729004 398.559998 610.166992 C 401.143005 615.939026 403.863007 621.692017 406.970001 627.200989 C 417.101013 645.164978 428.622986 661.994019 442.84201 676.991028 C 448.665009 683.132019 455.002991 688.713013 460.955994 694.719971 C 450.958008 698.963989 439.890991 699.473022 429.953003 703.367981 C 428.299011 704.017029 425.980988 705.116028 425.40799 706.950989 C 424.306 710.484009 427.023987 715.690002 428.355988 718.924011 C 436.903992 739.690002 453.333008 760.203979 474.615997 768.879028 C 478.802002 770.585022 491.820007 776.413025 495.821014 774.697998 C 492.105988 771.776001 485.147003 769.994019 480.697998 767.684998 C 461.377991 757.656982 446.463989 742.846985 437.541992 722.986023 C 439.683329 723.059998 441.824666 723.058655 443.966003 722.981995 C 451.634003 722.705017 459.200989 720.890991 466.575989 718.874023 C 500.997009 709.458008 532.070007 688.991028 556.263977 663.044983 C 564.541016 704.362 563.534973 722.344971 543.210999 760.151978 C 545.021667 758.524658 546.713338 756.782003 548.286011 754.924011 C 564.296021 736.356018 568.721008 712.036011 566.861023 688.270996 C 566.085999 678.372009 561.840027 645.411011 554.71698 639.304016 C 548.21698 637.59198 542.638977 648.351013 536.528992 650.119019 L 535.450012 649.198975 C 527.531006 639.034973 518.716003 629.812012 511.121002 619.322021 C 479.990997 576.328979 456.609009 523.929016 455.335999 470.150024 C 466.484009 477.375 476.862 485.624023 488.233002 492.625 C 525.182983 515.380005 569.651978 536.986023 609.708984 553.629028 C 620.70697 558.198975 631.708984 563.044983 642.960999 566.955017 C 640.616028 578.625977 636.609985 590.547974 632.89502 601.880005 C 626.047974 622.763977 618.419983 643.367004 611.494019 664.218018 C 597.415324 708.032674 585.054647 752.32666 574.411987 797.099976 C 567.986023 824.530029 562.211975 852.426025 557.271973 880.159973 C 556.315979 885.530029 554.393982 904.424011 552.031982 907.659973 C 546.218994 908.518982 538.955994 906.982971 533.112 906.275024 C 490.845001 901.151978 448.437012 891.349976 407.513 879.700989 C 394.741659 876.198995 382.056997 872.407328 369.459015 868.325989 C 356.861013 864.245341 344.362671 859.879354 331.963989 855.228027 C 319.565328 850.57666 307.279002 845.644979 295.105011 840.432983 C 282.931 835.220988 270.882334 829.734334 258.959015 823.973022 C 241.421997 815.405029 223.837006 806.31897 207.591995 795.458984 C 201.241328 791.161011 195.089661 786.594686 189.136993 781.76001 C 183.183665 776.925985 177.452332 771.84198 171.942993 766.507996 C 165.248001 759.995972 157.524002 752.992004 152.962997 744.799011 C 156.216003 737.770996 158.279999 729.669006 160.970993 722.362 C 167.962997 703.380005 175.039001 684.015015 183.578003 665.674011 C 185.99 660.465352 188.465332 655.286682 191.003998 650.138 C 193.542002 644.990011 196.142334 639.873352 198.804993 634.788025 C 201.467662 629.702657 204.191996 624.650655 206.977997 619.632019 C 209.763336 614.612691 212.60967 609.628357 215.516998 604.679016 C 218.423665 599.729675 221.390335 594.815999 224.417007 589.937988 C 227.44367 585.060669 230.529332 580.221008 233.673996 575.419006 C 236.817998 570.616353 240.019999 565.853027 243.279999 561.129028 C 246.54067 556.404338 249.858002 551.720337 253.231995 547.077026 C 256.606669 542.433024 260.037008 537.831014 263.52301 533.270996 C 267.009013 528.710327 270.550008 524.192993 274.145996 519.718994 C 277.742655 515.244995 281.39266 510.815328 285.096008 506.429993 C 288.800008 502.045349 292.557007 497.706014 296.367004 493.411987 C 300.176331 489.118001 304.037333 484.871012 307.950012 480.671021 C 311.863342 476.47168 315.82667 472.320353 319.839996 468.217041 C 323.853994 464.113037 327.917328 460.059021 332.029999 456.054993 C 336.14267 452.050313 340.303335 448.096313 344.511993 444.192993 C 357.911987 431.542969 371.608002 417.807983 386.528992 406.995972 Z"/>
</svg>
