<?xml version="1.0" encoding="UTF-8"?>
<!-- Generated by Pixelmator Pro 2.4.7 -->
<svg width="1024" height="1024" viewBox="0 0 1024 1024" xmlns="http://www.w3.org/2000/svg" xmlns:xlink="http://www.w3.org/1999/xlink">
    <path id="Percorso" fill="#43262c" stroke="none" d="M 557.854004 36.851196 C 571.611023 38.461304 603.213989 57.063232 613.072998 66.704834 C 636.075989 64.895874 654.719971 62.443176 677.997986 67.487 C 705.945984 73.542725 728.124023 86.843018 745.47699 109.749023 C 750.919983 116.932983 755.617004 124.877991 760.51001 132.450989 C 771.208008 128.101013 783.471985 125.098022 795.039001 127.148987 C 802.731995 128.513 810.512024 131.985962 815.098022 138.541016 C 835.520996 138.395996 870.888 137.947998 886.750977 152.450012 C 892.044006 157.289978 895.20697 163.843994 895.495972 171.031006 C 896.387024 193.143005 872.562012 220.489014 857.997986 236.002014 C 871.234985 240.869995 880.440979 248.132019 889.367004 259.031982 C 907.656982 281.369995 921.104004 316.393005 918.015015 345.505005 C 916.828979 356.678955 912.867981 368.110962 903.916016 375.386963 C 917.932983 375.360962 952.505005 369.614014 963.804016 374.81897 C 967.585999 376.561035 969.875 379.846008 971.187988 383.708984 C 974.512024 393.494019 971.744019 403.842041 967.221985 412.734009 C 948.853027 448.858032 885.288025 479.580994 849.007019 494.620972 C 827.434998 503.562988 805.19397 511.110962 783.015015 518.392029 L 800.39502 545.366028 C 805.109985 552.72699 810.429016 560.072021 813.627014 568.247009 C 806.893005 573.200012 799.741028 577.867004 793.382996 583.278992 C 799.232971 589.642029 803.401978 597.744019 807.231018 605.432983 C 822.434021 635.965027 824.031982 661.447021 812.93103 694.054993 C 811.273682 698.801656 809.377014 703.450989 807.241028 708.002991 C 805.158997 712.349976 801.192993 717.344971 800.395996 722.034973 C 799.080994 729.776978 800.578979 740.18103 800.825989 748.164978 C 801.166016 759.119019 801.062012 770.148987 801.028992 781.112 C 800.976013 798.518005 798.301025 861.807007 792.25 876.039978 C 791.677979 877.38501 790.419983 878.646973 789.393005 879.648987 C 779.091003 889.695984 743.51001 908.997009 729.163025 908.267029 C 728.450989 908.231018 727.254028 908.023987 726.85199 907.357971 C 725.033997 904.351013 730.184021 884.375977 731.088989 879.752991 C 716.550985 880.261658 702.010986 880.315999 687.468994 879.916016 C 685.182007 888.601013 682.08197 897.216003 679.405029 905.796997 C 676.705994 914.450989 674.499023 925.213989 670.044006 933.054016 C 680.237976 933.031006 690.507019 933.739014 699.932007 937.981018 C 707.067993 941.192017 712.63501 946.137024 715.291992 953.666992 C 716.192017 956.221008 717.258972 960.270996 715.763 962.825989 C 715.028992 964.080994 714.077026 964.872009 712.684021 965.283997 C 707.112976 966.934998 700.093018 966.559998 694.286011 966.809998 C 668.40802 967.924011 638.752991 968.755981 613.114014 965.812012 C 607.140991 965.125977 601.023987 964.302002 595.646973 961.473022 C 590.526001 950.64801 588.732971 937.617981 586.344971 925.955017 C 584.505005 917.131653 582.577352 908.327311 580.562012 899.541992 C 574.778992 900.715027 568.820007 901.409973 562.981018 902.278015 C 555.299988 911.369995 547.366028 920.242004 539.616028 929.275024 C 508.307007 931.221008 477.085999 927.732971 445.959991 924.888977 C 445.442993 932.721985 444.536987 940.53302 443.828003 948.351013 C 451.925995 948.89502 459.582001 950.098999 467.154999 953.135986 C 474.962006 956.265991 482.475006 960.898987 485.795013 969.021973 C 487.321991 972.758972 488.22699 977.820007 486.415985 981.622009 C 485.503998 983.534973 484.203003 984.669983 482.187012 985.289001 C 476.661987 986.986023 469.897003 986.934021 464.105988 987.422974 C 433.766998 989.981995 404.313995 989.567017 374.17099 984.94397 C 369.433014 984.21698 362.777008 983.812988 358.575012 981.447998 C 356.678009 980.380005 355.975006 978.468018 355.238007 976.52301 C 352.079987 968.197021 350.493988 958.809998 348.471008 950.138977 C 344.934326 934.698344 341.165324 919.314351 337.164001 903.987 C 326.695007 900.697021 316.069 897.921021 305.598999 894.61499 C 286.715007 888.774984 268.243342 881.836995 250.184006 873.801025 C 240.149994 869.375 229.876007 864.75 220.763 858.598999 C 222.774994 852.744995 223.419998 846.356018 224.488007 840.263977 C 225.756002 833.348653 227.095998 826.447001 228.507996 819.559021 C 208.942993 827.637024 192.781998 831.536011 172.042007 834.486023 C 176.535995 827.690979 182.028 821.421997 186.813004 814.799011 C 193.123993 806.065002 198.556 796.713989 203.725998 787.270996 C 178.350006 799.672974 164.501999 804.429993 136.431 807.752014 C 142.75 798.682983 149.757996 790.085999 156.095993 781.007996 C 161.947998 772.148987 167.203995 763.255005 172.035995 753.807007 C 154.171005 765.801025 137.824997 769.588989 116.989998 772.705017 C 120.362 766.276001 125.444 760.166992 129.537003 754.129028 C 138.807007 740.455994 145.626999 727.059998 151.063995 711.426025 C 130.725006 724.802979 113.177002 730.994995 90.468201 738.625 C 106.417 717.604004 118.900002 692.377014 128.106995 667.729004 C 125.330332 669.258993 122.523 670.730326 119.684998 672.143005 C 116.846334 673.556335 113.979668 674.909668 111.084999 676.203003 C 108.191002 677.495687 105.270668 678.727681 102.323997 679.898987 C 99.378197 681.070333 96.409131 682.179667 93.416801 683.22699 C 90.4244 684.274312 87.411466 685.258993 84.377998 686.18103 C 81.344531 687.102336 78.293165 687.960327 75.2239 688.755005 C 72.154635 689.548991 69.070101 690.278646 65.970299 690.94397 C 62.870567 691.609985 59.758301 692.210653 56.633499 692.745972 C 79.682198 667.780029 100.420998 641.129028 113.448997 609.476013 C 93.152603 619.047974 72.097 627.692993 50.266602 633.112 C 55.6581 625.237 63.119999 618.325989 69.2229 610.940002 C 85.334602 591.442017 100.18 570.781982 111.205002 547.942017 C 104.092003 549.953979 97.226196 552.968994 90.158302 555.184021 C 83.335767 557.333354 76.444433 559.233337 69.484299 560.883972 C 62.524234 562.533997 55.513568 563.930339 48.452301 565.072998 C 54.524799 557.896973 62.114899 551.604004 68.646698 544.757019 C 89.103996 523.314026 110.702003 497.64502 123.737 470.967041 C 118.067001 473.052002 112.473 475.535034 106.704002 477.320007 C 91.481201 482.028015 75.112801 483.557007 59.2714 484.289001 C 90.0504 457.009033 118.563004 430.832031 143.688995 397.790039 C 123.129997 404.204956 97.818199 407.801025 76.578201 403.791992 C 109.634003 379.862 141.455994 351.650024 166.828003 319.610962 C 146.785004 328.209961 124.357002 330.450989 102.803001 327.963989 C 110.367996 320.453003 120.571999 314.468994 129.442001 308.518005 C 144.986669 298.114644 160.408335 287.531657 175.707001 276.769043 C 182.526001 271.886963 190.104996 266.936035 196.304001 261.325989 C 176.998001 262.484985 159.369003 259.156006 140.975006 253.713013 C 152.440994 248.731995 163.608994 242.947998 174.863998 237.497986 L 222.718002 214.603027 C 236.731995 207.856995 251.130005 202.031982 265.144012 195.341003 C 243.804993 191.688965 222.442001 188.827026 201.218002 184.474976 C 225.783005 172.031982 257.460999 163.070984 284.223999 156.463013 C 293.996002 154.049988 304.727997 152.737 314.208008 149.53302 C 304.181 147.218018 294.290985 144.278015 284.360992 141.580017 C 276.923004 139.559021 269.393005 137.830017 262.027008 135.561035 C 288.782013 121.935974 350.903015 112.622009 381.578003 111.65802 C 363.641998 101.484985 343.846985 94.929016 325.925995 84.783875 C 334.945007 84.775879 343.975006 84.177917 353.015015 84.197021 C 380.312012 84.254883 418.139008 86.614502 444.126007 93.586609 C 432.44101 84.772888 404.075989 65.543274 390.515015 61.281799 C 422.192993 55.791199 480.987 67.751587 512.356995 76.266113 C 501.32901 62.156311 489.548004 49.149292 475.733002 37.726929 C 506.838989 42.238098 528.711975 48.200073 556.973022 62.139282 C 564.614014 65.908203 572.276978 69.634827 579.252014 74.564392 C 575.973022 70.390015 574.302979 64.759033 572.080994 59.960327 C 568.252014 51.691101 563.690002 43.859192 557.854004 36.851196 Z"/>
    <path id="path1" fill="#fbfaf7" stroke="none" d="M 818.747986 267.437988 C 818.893005 267.677002 819.122986 267.882996 819.18103 268.156006 C 819.390015 269.14502 818.487 272.329956 818.330994 273.452026 C 817.737 277.75 817.434021 281.898987 817.481018 286.237 C 816.127991 284.662964 814.671997 283.169006 813.255981 281.651001 L 807.468018 275.994995 C 810.982666 272.81897 814.742655 269.966634 818.747986 267.437988 Z"/>
    <path id="path2" fill="#fbfaf7" stroke="none" d="M 947.354004 383.129028 C 950.52301 382.81604 953.77301 382.469971 956.81897 383.660034 C 958.353027 384.259033 959.676025 385.174988 960.252991 386.797974 C 961.073975 389.106995 959.976013 391.64502 958.888977 393.648987 C 957.421021 393.916016 955.963013 394.004028 954.52301 393.549988 C 951.72699 392.669006 948.122009 389.528015 947.164001 386.677979 C 946.663025 385.187988 946.731018 384.536987 947.354004 383.129028 Z"/>
    <path id="path3" fill="#fbfaf7" stroke="none" d="M 484.962006 693.044006 C 485.756989 693.036987 486.553986 693.070984 487.34201 693.187988 C 489.520996 693.51001 491.621002 694.924011 492.834015 696.758972 C 493.684998 698.044983 494.059998 699.619019 493.539001 701.119995 C 492.850006 703.107971 491.026001 704.041016 489.265015 704.914001 C 487.851013 705.096008 486.028992 705.504028 484.622009 705.208008 C 482.98999 704.864014 481.846008 703.997986 480.911987 702.648987 C 479.984009 701.309021 479.822998 699.880981 480.181 698.296997 C 480.78299 695.629028 482.713989 694.286987 484.962006 693.044006 Z"/>
    <path id="path4" fill="#fbfaf7" stroke="none" d="M 573.689026 50.830383 C 581.133972 53.347595 597.408997 63.148987 603.580994 67.880371 L 602.971008 68.663391 C 602.159973 68.5979 601.112 68.952515 600.302979 69.114807 C 594.478027 70.089722 588.685974 71.557373 583.000977 73.14032 C 581.070007 65.061768 577.729004 58.033325 573.689026 50.830383 Z"/>
    <path id="path5" fill="#fbfaf7" stroke="none" d="M 779.867981 133.708984 C 789.336975 132.752991 798.289978 134.478027 806.749023 138.755005 C 800.53302 139.662964 794.143005 140.023987 787.882996 140.606995 C 780.828003 141.483032 773.737976 142.403015 766.744019 143.679016 C 765.607971 141.547974 764.148987 139.588989 762.780029 137.603027 C 768.59198 135.544983 773.734009 134.297974 779.867981 133.708984 Z"/>
    <path id="path6" fill="#fbfaf7" stroke="none" d="M 759.719971 525.078003 L 760.263 525.179016 C 762.026001 528.406982 759.143005 549.575012 758.606018 554.692017 C 756.098022 550.567017 753.616028 546.414001 750.257019 542.916992 C 746.077026 538.661987 741.182007 534.867981 736.653992 530.963989 L 759.719971 525.078003 Z"/>
    <path id="path7" fill="#fbfaf7" stroke="none" d="M 704.263977 553.862 C 707.830994 558.705017 711.257019 563.580017 716.559998 566.638977 C 714.685974 575.755005 713.153992 584.914978 710.830017 593.934021 C 708.612976 592.281006 706.471985 590.492004 704.307007 588.77002 C 698.486328 584.425334 692.733317 579.993001 687.047974 575.473022 C 692.734009 568.234009 698.335999 560.905029 704.263977 553.862 Z"/>
    <path id="path8" fill="#9b7e74" stroke="none" d="M 528.604004 216.627014 C 529.06897 216.583008 529.534973 216.549011 530.000977 216.536987 C 538.562012 216.31897 546.71698 218.738037 552.963989 224.737 C 541.572998 232.13501 529.645996 238.641968 518.312988 246.179016 C 513.237 249.391012 508.246674 252.730998 503.34201 256.198975 C 502.695007 247.233032 502.821991 238.042969 507.812988 230.210999 C 512.72699 222.500977 519.854004 218.575012 528.604004 216.627014 Z"/>
    <path id="path9" fill="#d6cab5" stroke="none" d="M 789.187012 586.434998 L 789.465027 586.518982 C 791.187988 588.182007 792.276978 591.896973 793.270996 594.171997 C 798.03302 605.075012 803.320984 616.05603 806.807007 627.440979 C 814.155029 651.435974 809.963989 676.075989 800.989014 698.961975 C 800.539978 700.366028 800.057007 701.583008 799.346985 702.875977 C 797.926025 700.017029 795.708008 670.978027 795.080017 665.046997 C 792.422974 639.937988 787.580017 615.919006 782.109009 591.320984 C 784.393982 589.611023 786.830017 588.049011 789.187012 586.434998 Z"/>
    <g id="cravatta">
        <path id="path10" fill="#d79079" stroke="none" d="M 729.286011 532.715027 L 731.198975 532.525024 C 734.882996 534.744995 742.778992 545.237 746.153992 549.039001 C 742.905029 553.767029 739.723999 558.898987 735.469971 562.794006 C 732.103027 563.396973 728.640991 563.583008 725.231995 563.874023 C 715.900024 563.142029 712.549988 557.48999 706.75 551.013977 C 712.703003 545.607971 718.559998 540.335999 722.786011 533.429016 C 724.937012 533.117981 727.124023 532.947998 729.286011 532.715027 Z"/>
        <path id="path11" fill="#d79079" stroke="none" d="M 735.937988 567.685974 C 737.099976 568.835022 738.270996 577.317017 738.757996 579.36499 C 741.559998 591.14502 745.080994 602.724976 748.476013 614.343994 C 742.598022 619.804016 736.797974 625.52301 730.560974 630.564026 L 726.289978 627.26001 L 711.455017 615.171997 C 715.21169 599.489339 718.091675 583.647339 720.094971 567.645996 C 725.859985 569.070984 730.179993 569.16803 735.937988 567.685974 Z"/>
    </g>
    <path id="path12" fill="#d6cab5" stroke="none" d="M 742.375977 811.453003 C 744.030029 814.796997 733.937988 865.791016 731.960999 873.403992 C 718.078979 873.848022 704.367981 873.864014 690.48999 873.497986 C 690.008972 873.150024 689.953979 873.273987 689.900024 872.718994 C 689.677979 870.406982 694.166992 858.77301 695.661011 857.000977 C 699.43103 852.531982 706.562988 848.072021 711.210022 844.140991 C 721.757996 835.215027 734.309998 822.625977 742.375977 811.453003 Z"/>
    <path id="path13" fill="#9b7e74" stroke="none" d="M 461.43399 254.338013 L 461.951996 254.478027 C 463.847992 256.079956 465.470001 263.677979 466.489014 266.261963 C 468.210999 270.630981 470.235992 274.81897 472.32901 279.018005 C 464.022003 286.338989 455.324005 293.18396 446.947998 300.421997 C 439.803986 306.594971 432.980011 313.140991 426.151001 319.657959 C 425.188995 320.516968 425.343994 320.710999 423.979004 320.713989 C 419.35199 316.851013 417.677002 304.303955 416.617004 298.627014 C 424.832001 285.531006 448.522003 264.202026 461.43399 254.338013 Z"/>
    <path id="path14" fill="#fbfaf7" stroke="none" d="M 512.301025 187.697021 C 515.359009 187.43099 518.405009 187.528646 521.439026 187.98999 C 539.924011 190.754028 554.853027 202.585022 565.708008 217.242981 C 563.205017 218.945007 560.513977 220.339966 557.862 221.789978 C 553.614014 217.354004 548.804993 213.75 542.940002 211.757019 C 534.450989 208.870972 524.703003 209.359009 516.669983 213.406982 C 506.820007 218.372009 501.265991 226.789978 497.877014 236.984009 C 496.479004 245.108032 495.539001 251.778992 499.075989 259.546021 C 492.709991 264 486.451996 268.599976 479.996002 272.926025 C 474.925995 264.754028 471.454987 255.330017 470.364014 245.752014 C 468.661011 230.813965 472.343994 215.63501 481.884003 203.875 C 489.588013 194.377014 500.226013 188.971985 512.301025 187.697021 Z"/>
    <path id="path15" fill="#9b7e74" stroke="none" d="M 638.213989 73.212769 C 647.319336 72.859049 656.391337 73.25946 665.429993 74.414001 C 699.979004 78.939331 720.934998 91.055115 741.835999 118.427979 C 734.30603 118.403992 727.01001 119.39801 719.59198 120.541016 C 704.346008 122.903015 689.773987 126.213989 674.856018 130.143005 C 672.536011 124.072998 669.047974 118.374023 665.471985 112.976013 C 654.61499 96.588989 641.856018 84.129883 624.833008 74.144226 C 629.287679 73.75234 633.748006 73.441854 638.213989 73.212769 Z"/>
    <path id="path16" fill="#d6cab5" stroke="none" d="M 489.928009 725.596985 C 491.411987 727.734985 492.990997 729.90802 494.984009 731.603027 C 497.964996 734.137024 501.721008 736.013977 505.723999 735.598022 C 507.912994 735.370972 511.290985 733.973022 512.570984 732.083984 C 513.741028 730.356018 513.734009 728.258972 513.445007 726.268005 C 512.669006 720.927979 509.708008 713.815979 506.07901 709.781006 C 504.756012 708.309998 502.977997 707.458984 501.519989 706.172974 C 500.496002 705.27002 500.135986 704.822021 500.102997 703.468018 L 501.446991 702.924011 L 501.776001 703.288025 L 502.917999 703.159973 L 503.006012 702.348999 C 525.859009 694.203979 553.301025 678.356018 573.651001 664.875977 L 582.655029 676.237976 C 587.575012 682.419983 592.921021 688.130005 598.361023 693.849976 C 573.315002 716.539001 534.323975 736.549988 502.71701 748.427002 C 497.231995 744.039001 480.263 724.911011 479.002014 718.625 C 479.795013 717.583984 479.945007 717.328003 481.136993 716.836975 C 482.459015 717.322021 483.109009 718.309998 484.03299 719.333984 C 487.234009 718.455017 490.421997 715.169006 493.669006 713.695007 C 494.912994 712.203979 496.799011 711.466003 498.501007 710.599976 C 499.677002 711.356018 500.855988 712.20697 501.877991 713.161987 C 504.531006 715.640015 507.894989 721.489014 508.013 725.124023 C 507.666992 725.91803 507.613007 726.463013 506.843994 726.945007 C 503.119995 729.281006 494.140015 726.392029 489.928009 725.596985 Z"/>
    <path id="path17" fill="#43262c" stroke="none" d="M 493.669006 713.695007 L 496.984985 713.820007 L 497.381989 713.336975 L 496.946014 712.312988 C 498.006012 711.874023 497.947998 712.083008 498.96701 712.453003 C 500.281006 713.932983 500.807007 716.252014 500.686005 718.224976 C 500.630005 719.142029 500.247009 719.973022 499.903015 720.810974 C 498.186005 721.830994 496.550995 722.572021 494.497009 722.22699 C 493.295013 722.025024 492.226013 721.364014 491.654999 720.265015 C 491.130005 719.255981 491.009003 717.859985 491.419006 716.789978 C 491.859009 715.638977 492.869995 714.617004 493.669006 713.695007 Z"/>
    <path id="path18" fill="#9b7e74" stroke="none" d="M 738.96698 124.205994 C 740.893982 123.957031 742.93103 124.002991 744.877014 123.927002 C 749.482971 130.26001 755.116028 137.323975 758.171021 144.526978 C 693.088013 155.729004 631.83197 182.252014 573.604004 212.511963 C 567.752991 204.549011 561.953003 197.698975 554.388 191.278992 C 602.911011 155.791992 679.219971 129.891968 738.96698 124.205994 Z"/>
    <path id="path19" fill="#9b7e74" stroke="none" d="M 345.756989 906.28302 C 376.55899 913.486023 407.033997 920.437012 438.515015 923.969971 L 436.964996 948.482971 C 426.667999 948.468018 416.061005 950.59198 406.434998 954.263977 C 404.640991 954.947998 401.341003 956.231018 400.515991 958.070007 C 403.128998 959.661987 419.394989 954.927002 423.428986 954.458984 C 439.014008 952.64801 462.020996 953.676025 474.899994 963.999023 C 478.817993 967.138977 481.147003 971.122009 481.507996 976.161011 C 481.622009 977.762024 481.519012 978.593018 480.451996 979.797974 C 477.902008 980.471008 475.048004 980.122986 472.425995 980.046997 C 470.902008 973.088013 468.475006 968.070984 463.38501 963.007019 C 458.652008 959.327026 454.022003 957.591003 448.223999 956.320984 C 450.600006 958.848022 453.860992 960.747009 456.550995 962.96698 C 462.877991 968.190002 465.309998 973.827026 466.063995 981.869019 C 457.463013 982.546021 448.815002 982.874023 440.199005 983.330994 C 439.648987 979.812988 439.113007 976.432007 437.602997 973.163025 C 434.066986 965.507019 427.596985 961.961975 420.039001 959.286011 C 423.752991 963.270996 427.826996 967.229004 430.77301 971.835022 C 432.535004 974.591003 434.992004 978.732971 434.053009 982.085999 C 433.863007 982.762024 433.937988 982.747986 433.348999 982.981018 C 425.434998 986.10199 370.915009 979.370972 360.977997 976.114014 C 359.656006 971.106018 359.075012 965.81897 358.169006 960.718994 C 356.651672 952.31901 355.062337 943.932353 353.401001 935.559021 C 351.371002 925.625977 348.005005 916.140015 345.756989 906.28302 Z"/>
    <path id="path20" fill="#9b7e74" stroke="none" d="M 683.478027 863.426025 L 683.893005 863.742981 C 684.903992 869.591003 666.427002 923.721985 663.666016 933.538025 C 653.18103 934.578979 643.276001 936.051025 633.676025 940.567993 C 638.778015 940.208008 643.880981 939.044006 648.997986 938.562988 C 663.453003 937.203979 684.174988 937.078979 697.192017 943.921021 C 701.127014 945.989014 708.273987 951.138977 709.070984 955.797974 C 709.310974 957.200012 708.966003 957.575989 708.304016 958.76001 C 703.482971 961.950989 695.007996 960.112 689.356995 961.10199 L 688.526978 961.255981 C 686.971985 956.961975 685.255005 952.913025 681.786011 949.768982 C 678.741028 947.012024 671.755981 943.382996 667.440979 943.510986 C 667.859009 945.580994 674.958008 949.442017 676.916016 951.143982 C 679.702026 954.60199 681.153015 957.810974 682.499023 961.989014 C 657.560974 962.302002 625.448975 962.502991 601.091003 958.007996 C 598.552979 950.791016 597.325012 942.674988 595.948975 935.159973 C 593.682983 922.786987 591.604004 910.377014 588.062012 898.289001 C 621.065979 894.02002 654.408997 879.057983 683.478027 863.426025 Z"/>
    <path id="path21" fill="#9b7e74" stroke="none" d="M 519.03302 113.608032 L 519.297974 114.424011 C 512.981995 135.063965 516.060974 157.562012 521.078979 178.030029 C 519.588338 177.999349 518.097677 177.997335 516.606995 178.023987 C 501.247009 178.261963 487.584991 184.445007 476.997009 195.52301 C 463.243011 209.914001 460.700012 228.21698 461.059998 247.307983 C 445.125 258.994019 430.472992 273.051025 417.653992 288.061035 C 417.023987 288.89801 416.451996 289.541016 415.636993 290.202026 L 414.928009 289.924988 C 410.770996 275.901978 413.152008 245.049988 416.670013 231.213013 C 429.037994 182.570007 477.403992 138.59198 519.03302 113.608032 Z"/>
    <path id="path22" fill="#9b7e74" stroke="none" d="M 848.960999 240.648987 C 849.416321 240.650981 849.871663 240.66099 850.327026 240.679016 C 862.836975 241.195984 873.687988 249.372009 881.745972 258.328003 C 901.015015 279.744995 914.255981 314.291016 912.677979 343.004028 C 912.182983 352.011963 909.328003 362.55603 902.192017 368.629028 C 897.616028 372.52301 893.54303 372.776978 887.88501 372.386963 C 875.872986 370.817993 864.570984 367.536987 854.517029 360.634033 C 836.046997 347.954956 827.317993 326.265015 823.518005 304.787964 C 820.606995 288.339966 821.440002 265.609009 831.380981 251.531006 C 835.836975 245.221008 841.440002 241.88501 848.960999 240.648987 Z"/>
    <path id="path23" fill="#43262c" stroke="none" d="M 849.879028 250.109009 C 855.439026 249.703979 859.814026 250.343018 864.729004 253.109009 C 883.784973 263.833008 895.52002 290.917969 901.080994 311.140015 C 904.643005 324.093994 908.674011 344.570007 901.276001 356.89801 C 897.651001 362.937988 892.463989 365.963013 885.833984 367.646973 C 878.638 368.525024 872.340027 367.526978 865.995972 364.041992 C 849.593018 355.030029 838.97998 339.27002 833.927002 321.540039 C 829.278015 305.22699 826.099976 276.622986 835.135986 261.221008 C 838.609985 255.297974 843.353027 251.914001 849.879028 250.109009 Z"/>
    <path id="path24" fill="#fbfaf7" stroke="none" d="M 851.942017 254.60498 C 857.526978 254.414978 862.624023 256.971008 866.95697 260.30603 C 884.268982 273.630981 896.538025 306.895996 899.190002 328.151001 C 900.348022 337.436035 901.04303 350.687012 894.747009 358.403015 C 891.330017 362.591003 887.072021 364.156006 881.890015 364.794006 C 876.607971 364.667969 872.046997 363.23999 867.427002 360.759033 C 852.851013 352.932983 843.596985 338.453003 838.989014 322.922974 C 834.273987 307.032959 829.864014 279.667969 838.497009 264.377991 C 841.630981 258.827026 845.961975 256.186035 851.942017 254.60498 Z"/>
    <path id="path25" fill="#43262c" stroke="none" d="M 847.823975 275.381958 C 848.224976 279.205994 846.874023 284.333984 846.494019 288.280029 C 845.495972 298.617004 847.648987 310.509033 850.89502 320.31897 C 852.189657 324.366984 853.720988 328.323649 855.489014 332.188965 C 857.256999 336.05363 859.249003 339.799316 861.465027 343.426025 C 862.713013 345.447021 868.825012 352.708984 868.763 354.480957 L 867.731018 354.256958 C 856.093018 346.455994 849.916992 327.118042 846.328979 314.087036 C 842.900024 301.636963 841.172974 287.062012 847.823975 275.381958 Z"/>
    <path id="path26" fill="#9b7e74" stroke="none" d="M 616.627991 75.70813 C 617.34198 75.607178 617.388 75.557373 618.20697 75.68103 C 620.505981 76.027588 624.215027 78.912903 626.286011 80.210693 C 646.263977 92.730408 658.702026 111.513 670.338989 131.434998 C 661.338989 133.771973 652.492004 137.01001 643.747986 140.148987 C 616.422974 149.960022 590.875977 161.843018 565.745972 176.375977 C 559.945984 179.874023 554.138977 183.393982 548.859009 187.655029 C 541.570007 184.127991 534.468994 180.666992 526.55603 178.75 C 522.109009 155.596008 520.166992 133.973999 524.189026 110.552979 C 554.067993 93.497803 581.963989 79.711975 616.627991 75.70813 Z"/>
    <path id="path27" fill="#d6cab5" stroke="none" d="M 776.830994 520.005981 C 778.112 520.414978 778.231018 520.757019 778.97699 521.901978 C 781.762024 526.172974 784.054993 531.028992 786.661987 535.452026 C 792.793335 545.920695 799.273336 556.169352 806.10199 566.197998 C 797.377014 574.015991 786.33197 580.052002 776.471985 586.35498 C 780.432983 599.947998 782.294006 614.463013 784.179016 628.466003 C 788.463989 660.299988 790.140015 692.541016 790.942993 724.633972 C 791.868978 762.190653 791.38564 799.729004 789.492981 837.249023 C 788.887024 848.734009 789.271973 862.48999 787.343018 873.60199 C 779.383972 877.838013 771.629028 882.47998 763.80603 886.960999 C 753.826009 892.286316 743.564657 896.999308 733.021973 901.099976 C 756.140015 822.822021 762.976013 738.453003 763.893982 657.059998 C 764.099976 638.747986 763.356018 620.416016 763.372986 602.096985 C 763.39801 576.059021 765.453003 549.919006 764.35199 523.926025 C 768.53302 522.705994 772.677002 521.317993 776.830994 520.005981 Z"/>
    <path id="path28" fill="#fbfaf7" stroke="none" d="M 818.208008 189.682983 L 818.409973 189.822021 C 818.187988 190.888 817.41803 191.070007 816.539978 191.666016 C 790.447998 209.359009 772.783997 225.900024 759.653992 255.354004 C 765.801025 251.884033 771.28302 247.468018 777.195007 243.638 C 788.906982 236.051025 802.234985 231.676025 815.827026 229.002014 C 813.82902 229.926005 811.886678 230.955322 810 232.089966 C 808.113322 233.22465 806.293315 234.457987 804.539978 235.789978 C 790.627991 246.330994 776.830994 263.14801 774.302979 280.910034 C 779.65802 276.372986 783.328979 269.770996 787.880005 264.445007 C 792.531006 270.997009 817.11499 292.775024 818.153015 294.911011 C 818.708984 296.057007 818.624023 298.330994 818.69397 299.645996 C 816.288025 298.643005 813.90802 297.817017 811.367004 297.223999 C 795.054016 293.417969 774.596008 295.608032 760.275024 304.625977 C 751.284973 285.608032 736.827026 269.22699 717.252991 260.743042 C 696.140015 251.593018 674.460022 251.091003 653.049988 259.598999 C 629.857971 268.81604 612.890991 286.687988 604.002014 309.893005 C 602.64268 313.382996 601.496012 316.94165 600.562012 320.56897 C 600.033997 322.69104 599.958984 325.276978 599.098022 327.252014 L 597.388977 327.625 C 569.901672 331.827637 542.704346 337.4363 515.796997 344.450989 C 503.115997 347.730957 490.075989 350.920044 477.915009 355.820007 C 486.101013 347.964966 495.304993 340.811035 504.083008 333.613037 C 532.244995 310.525024 562.598022 288.717041 594.255005 270.634033 C 617.483683 257.662028 641.301676 245.881022 665.708984 235.291016 C 691.695984 223.716003 717.388 213.309998 744.968994 206.072021 C 736.846008 217.016968 732.088013 227.893005 729.232971 241.19397 C 739.218994 229.426025 764.809021 203.46698 778.598999 197.893005 C 790.862 192.936035 805.203003 191.667969 818.208008 189.682983 Z"/>
    <path id="path29" fill="#fbfaf7" stroke="none" d="M 748.36499 551.765991 C 750.982971 553.539978 755.242004 560.843018 757.546021 563.632019 C 757.083984 574.187988 756.968994 584.752014 756.703979 595.314026 C 754.611023 597.968994 752.125 600.341003 749.762024 602.757019 C 751.458008 606.86499 754.429993 610.614014 756.929993 614.276001 C 757.515015 622.01001 757.200012 630.021973 757.161011 637.786987 C 757.19165 653.700317 756.77065 669.60199 755.89801 685.492004 C 753.960999 723.174988 751.39502 761.01001 746.041992 798.390015 C 729.22998 819.067017 706.914001 839.609009 684.482971 853.856018 C 651.651978 874.708984 608.518982 888.655029 570.002991 893.500977 C 571.474976 891.041016 573.119995 888.659973 574.692017 886.260986 C 587.39502 868.291992 600.484009 850.810974 612.468018 832.322998 C 620.164673 820.491007 627.55367 808.470337 634.63501 796.260986 C 641.717 784.051676 648.48234 771.669352 654.93103 759.114014 C 661.379679 746.558675 667.503337 733.84668 673.302002 720.978027 C 679.100667 708.109334 684.566671 695.100993 689.700012 681.953003 C 697.502991 661.606018 704.059021 640.664001 710.489014 619.853027 C 714.468018 623.005981 725.424988 634.140015 729.989014 634.822998 C 731.426025 635.038025 732.534973 634.719971 733.71698 633.916016 C 736.366028 632.116028 738.726013 629.041016 741.059021 626.791992 C 744.691671 623.349325 748.440999 620.038656 752.307007 616.859985 C 749.073975 599.830994 742.54303 583.39801 738.5 566.531006 C 743.320984 562.791016 745.679016 557.067017 748.36499 551.765991 Z"/>
    <path id="path30" fill="#43262c" stroke="none" d="M 686.609985 808.377014 L 687.575989 808.398987 C 689.247009 808.453003 690.241028 808.716003 691.398987 809.947998 C 691.663025 811.486023 691.338013 812.155029 690.765015 813.546997 C 688.838013 813.515991 687.465027 813.422974 686.057007 812.049988 C 685.718018 810.531006 686.052002 809.752014 686.609985 808.377014 Z"/>
    <path id="path31" fill="#43262c" stroke="none" d="M 733.487976 665.234985 C 734.151978 665.403015 735.132019 665.661011 735.695984 666.080994 C 736.86499 666.953003 736.916992 667.372986 737.192993 668.713989 C 736.773987 670.52002 735.995972 671.356018 734.744995 672.692017 C 734.086975 672.479004 733.031982 672.150024 732.505981 671.718018 C 731.590027 670.963989 731.120972 670.046997 731.231995 668.84198 C 731.369995 667.346985 732.497009 666.237976 733.487976 665.234985 Z"/>
    <path id="path32" fill="#43262c" stroke="none" d="M 669.38501 836.828003 C 670.192993 836.995972 671.28302 837.174988 671.986023 837.642029 C 672.848999 838.215027 673.317017 839.184021 673.304016 840.20697 C 673.284973 841.697998 672.107971 842.789978 671.15802 843.791016 C 669.619019 843.763 668.93103 843.789001 667.620972 842.867981 C 667.002991 841.796997 666.63501 841.333984 666.911987 840.033997 C 667.228027 838.544006 668.27002 837.718018 669.38501 836.828003 Z"/>
    <path id="path33" fill="#43262c" stroke="none" d="M 717.562012 739.450989 C 718.867004 739.377991 720.460022 739.221985 721.711975 739.710999 C 723.039978 740.229004 723.210022 740.661011 723.664001 741.877991 C 723.372009 743.364014 722.893005 743.853027 721.901001 744.924011 C 720.812988 745.150024 719.47998 745.47699 718.382996 745.11499 C 717.135986 744.703979 716.906982 744.197998 716.39801 743.117981 C 716.482971 741.518005 716.747986 740.833008 717.562012 739.450989 Z"/>
    <path id="path34" fill="#43262c" stroke="none" d="M 706.211975 774 C 707.314026 774.192993 707.953979 774.499023 708.896973 775.096008 C 709.210999 775.789001 709.521973 776.096985 709.346985 776.885986 C 708.90802 778.864014 707.354004 779.890015 705.708984 780.84198 C 704.174988 780.495972 703.258972 780.322998 702.146973 779.10498 C 701.823975 777.953979 701.58197 777.432983 702.270996 776.312988 C 703.151001 774.882019 704.710022 774.468018 706.211975 774 Z"/>
    <path id="path35" fill="#43262c" stroke="none" d="M 726.325012 700.812988 C 727.469971 700.939026 728.760986 701.10498 729.687012 701.870972 C 730.372009 702.435974 730.815979 703.111023 730.901978 703.982971 C 731.117004 706.145996 729.926025 707.297974 728.583984 708.778015 C 727.440002 708.651978 726.070984 708.539001 725.14801 707.762024 C 724.533997 707.244995 724.125 706.56897 724.052979 705.776978 C 723.861023 703.677979 725.049988 702.304993 726.325012 700.812988 Z"/>
    <path id="path36" fill="#9b7e74" stroke="none" d="M 678.614014 259.207031 C 686.40802 258.492004 694.924988 259.47699 702.505981 261.325989 C 721.059998 265.85199 738.203979 278.169006 748.77002 294.075989 C 752.398987 299.540039 754.921021 305.700989 758.333984 311.312012 C 778.289978 300.594971 797.650024 298.547974 819.716003 303.505981 C 820.700989 308.844971 821.914978 314.148987 823.054993 319.455994 C 816.817993 317.084961 809.901978 315.696045 803.252014 315.226013 C 790.541992 314.328003 774.317993 317.343994 764.419006 325.877991 C 766.85199 345.639038 767.047974 367.979004 759.120972 386.51001 C 752.086975 402.953979 736.580017 414.698975 720.244019 421.125977 C 719.523356 421.411987 718.799011 421.689006 718.070984 421.957031 C 717.342997 422.225667 716.612 422.484985 715.877991 422.734985 C 715.143982 422.984985 714.406657 423.225993 713.666016 423.458008 C 712.926025 423.689331 712.18335 423.911662 711.437988 424.125 C 710.691976 424.338338 709.943644 424.542338 709.192993 424.737 C 708.442342 424.932353 707.689351 425.118022 706.934021 425.294006 C 706.178691 425.469991 705.421021 425.636658 704.661011 425.794006 C 703.901652 425.951355 703.140645 426.099365 702.377991 426.238037 C 701.614644 426.376017 700.84965 426.504679 700.083008 426.624023 C 699.317017 426.743978 698.549357 426.853963 697.780029 426.953979 C 697.010661 427.054647 696.240316 427.14565 695.468994 427.22699 C 694.697673 427.308329 693.92568 427.380005 693.153015 427.442017 C 692.379659 427.504028 691.605652 427.556681 690.830994 427.599976 C 690.056986 427.64266 689.282328 427.676005 688.507019 427.700012 C 687.731669 427.723979 686.95634 427.738322 686.18103 427.743042 C 685.405029 427.74703 684.629354 427.741679 683.854004 427.72699 C 683.078654 427.712301 682.303324 427.687968 681.528015 427.653992 C 680.753357 427.620015 679.979024 427.576681 679.205017 427.523987 C 678.431661 427.470642 677.658651 427.407979 676.885986 427.335999 C 676.114014 427.263326 675.343018 427.181315 674.572998 427.089966 C 673.802327 426.998657 673.033325 426.897664 672.265991 426.786987 C 671.498006 426.67631 670.731669 426.556315 669.96698 426.427002 C 669.202332 426.297689 668.439331 426.158691 667.677979 426.01001 C 666.916667 425.861979 666.157349 425.704305 665.400024 425.536987 C 664.64266 425.36967 663.887655 425.192993 663.13501 425.006958 C 662.381673 424.821004 661.631002 424.625692 660.882996 424.421021 C 660.134989 424.216349 659.389323 424.002686 658.645996 423.780029 C 657.90332 423.556681 657.16333 423.324341 656.426025 423.083008 C 655.689331 422.841675 654.955322 422.591003 654.223999 422.330994 C 653.493327 422.071676 652.765991 421.803019 652.041992 421.525024 C 651.317993 421.247681 650.597331 420.961019 649.880005 420.665039 C 649.162679 420.36967 648.449341 420.065328 647.73999 419.752014 C 626.745972 410.521973 614.064026 394.669006 605.97998 373.677979 C 602.874023 364.940002 601.578003 355.671021 600.914001 346.459961 C 586.219971 349.165039 571.752014 353.354004 557.166992 356.630981 C 539.573649 360.586995 522.042989 364.805013 504.575012 369.285034 C 495.190002 371.625 485.453003 373.55603 476.276001 376.575012 C 472.972992 377.661011 469.652008 379.059998 466.822998 381.108032 C 457.312988 387.989014 460.233002 398.929993 454.003998 403.778992 C 453.056 403.869995 453.042999 403.979004 452.118011 403.51001 C 450.061005 402.468018 448.882996 400.519043 448.306 398.342041 C 446.562988 391.754028 448.85199 381.497009 452.244995 375.656982 C 453.755005 373.057983 456.101013 370.990967 458.675995 369.474976 C 474.338013 360.254028 504.527008 353.60498 522.434021 349.156006 C 537.070984 345.52002 551.674011 341.747009 566.440979 338.671021 C 578.554016 336.146973 591.343018 334.645996 603.200989 331.230957 L 603.927979 331.018005 C 605.44397 326.682007 606.163025 322.01001 607.294983 317.554993 C 607.652974 316.185649 608.048971 314.827637 608.482971 313.480957 C 608.916972 312.134318 609.388977 310.800659 609.898987 309.47998 C 610.408346 308.159993 610.954692 306.855347 611.538025 305.56604 C 612.120667 304.276652 612.739319 303.004639 613.393982 301.75 C 614.049337 300.496012 614.739339 299.261027 615.463989 298.045044 C 616.187988 296.829671 616.945984 295.635661 617.737976 294.463013 C 618.530009 293.289673 619.35435 292.140015 620.210999 291.014038 C 621.067647 289.887329 621.955322 288.78597 622.874023 287.709961 C 637.046021 270.981995 656.802979 261.092041 678.614014 259.207031 Z"/>
    <path id="path37" fill="#43262c" stroke="none" d="M 677.169006 270.200012 C 677.367004 270.171997 677.564026 270.134033 677.763 270.114014 C 695.53302 268.384033 714.742004 272.658997 728.372986 284.640015 C 744.875 299.144043 753.950012 319.417969 755.364014 341.148987 C 756.598022 360.104004 753.473022 380.460999 740.476013 395.089966 C 729.393982 407.562988 711.070007 414.906006 694.619019 415.924988 L 694.198975 415.971008 C 693.965027 415.994995 693.731018 416.013 693.497009 416.039001 L 692.692993 416.134033 C 688.307007 416.634033 683.836975 416.302002 679.448975 415.947021 C 665.327026 414.804993 652.986023 411.281982 641.778992 402.341003 C 626.630005 390.255005 617.333008 372.05896 615.343018 352.854004 C 613.117981 331.370972 618.017029 311.964966 631.77301 295.118042 C 643.208008 281.113037 659.155029 271.953979 677.169006 270.200012 Z"/>
    <path id="path38" fill="#fbfaf7" stroke="none" d="M 676.473999 275.176025 C 692.672974 273.114014 708.221008 276.532959 721.343018 286.328979 C 737.101013 298.092041 746.869995 315.55896 749.593018 334.942017 C 752.085022 352.687988 751.244995 375.099976 739.854004 389.911987 C 729.143005 403.839966 711.812012 409.94397 695.005981 412.125977 C 679.676025 414.297974 661.268982 410.083008 648.557007 401.195007 C 647.665649 400.560364 646.790649 399.903687 645.932007 399.224976 C 645.073324 398.546997 644.231995 397.848002 643.40802 397.127991 C 642.584005 396.407979 641.778341 395.668315 640.991028 394.908997 C 640.203023 394.149028 639.434672 393.370361 638.685974 392.572998 C 637.936666 391.774984 637.207682 390.95931 636.499023 390.125977 C 635.790324 389.291992 635.102641 388.440999 634.435974 387.572998 C 633.769307 386.705648 633.124654 385.822306 632.502014 384.922974 C 631.879333 384.02299 631.278992 383.108317 630.700989 382.178955 C 630.123678 381.249674 629.569356 380.306681 629.038025 379.349976 C 628.506694 378.393351 627.999695 377.424032 627.517029 376.442017 C 627.033671 375.460653 626.574992 374.467651 626.140991 373.463013 C 625.706991 372.458333 625.297994 371.443665 624.914001 370.419006 C 624.530009 369.394307 624.171672 368.360962 623.838989 367.31897 C 623.506348 366.276326 623.199687 365.226339 622.919006 364.169006 C 622.637675 363.111674 622.383016 362.047668 622.155029 360.97699 C 621.927002 359.907003 621.725321 358.832011 621.549988 357.752014 C 618.262024 338.549011 621.294983 317.362 632.890991 301.31897 C 643.638977 286.450012 658.500977 277.994995 676.473999 275.176025 Z"/>
    <path id="path39" fill="#43262c" stroke="none" d="M 658.187988 332.020996 C 660.234009 331.867004 662.025024 331.880981 663.963989 332.639038 C 669.250977 334.705994 672.663025 339.908997 674.770996 344.953003 C 678.869995 354.760986 679.54303 369.323975 675.195007 379.14801 C 673.094971 383.893005 670.28302 386.35498 665.474976 388.119019 C 663.862976 388.151978 662.221985 388.160034 660.656006 387.717041 C 655.422974 386.235962 651.51001 381.510986 649.179016 376.822998 C 644.481995 367.375 643.906982 354.390991 647.297974 344.44104 C 649.361023 338.389038 652.565002 334.796997 658.187988 332.020996 Z"/>
    <path id="path40" fill="#fbfaf7" stroke="none" d="M 656.070984 337.338989 C 657.713013 338.014038 658.817993 338.776978 659.473022 340.484985 C 660.033997 341.948975 659.921021 343.35498 659.190979 344.72998 C 658.291016 346.426025 656.927979 346.917969 655.218994 347.506958 C 654.192017 347.186035 653.190979 346.858032 652.450989 346.021973 C 651.643005 345.106995 651.309998 343.958984 651.53302 342.757996 C 652.005981 340.209961 654.044983 338.670044 656.070984 337.338989 Z"/>
    <path id="path41" fill="#9b7e74" stroke="none" d="M 822.35498 147.739014 C 838.143005 147.469971 858.719971 147.634033 873.125 154.417969 C 878.63501 157.011963 883.138 160.947998 885.122009 166.860962 C 888.155029 175.901978 883.742981 187.057983 879.747009 195.153992 C 874.940002 204.891968 859.262024 227.877991 849.929993 233.700989 C 847.258972 235.367981 843.703979 235.947021 840.739014 236.992004 C 830.242004 240.690979 825.33197 251.26001 820.817017 260.5 C 814.281982 263.596008 808.585022 266.940002 803.038025 271.609009 C 799.070658 267.677002 794.986654 263.870321 790.786011 260.188965 C 799.226013 248.179993 812.869995 237.317993 825.375 229.570007 C 829.281982 227.148987 833.619019 225.473022 837.40802 222.872986 L 837.028992 222.132996 C 836.487 221.880005 836.007996 221.660034 835.416992 221.536987 C 819.885986 218.315002 794.388977 225.575989 780.971985 233.559021 C 784.890015 228.434998 788.877014 223.356995 793.260986 218.620972 C 805.765991 205.113037 823.22699 191.367981 841.780029 188.281982 C 848.200012 187.213989 854.68103 187.502014 861.159973 187.268005 C 856.232971 185.276978 851.398987 183.969971 846.146973 183.138 C 834.901978 181.356995 823.674988 181.817017 812.369019 182.541016 C 756.361023 186.127991 704.695007 206.161011 654.327026 229.669006 C 632.804016 239.714966 611.362976 250.280029 590.841003 262.259033 C 569.15033 275.182373 548.160319 289.157694 527.870972 304.184998 C 515.258972 313.942017 502.92099 324.429993 491.562012 335.627991 C 484.571991 342.519043 477.921997 350.593994 470.446991 356.888 C 464.940002 361.525024 457.187012 362.393005 451.579987 367.282959 C 445.612 372.489014 443.054993 381.233032 442.542999 388.885986 C 442.105988 395.420044 443.263 402.739014 447.681 407.794006 C 443.104004 413.507996 434.402008 425.893005 429.369995 429.984009 C 428.152008 430.974976 426.886993 431.400024 425.365997 431.734009 C 413.649994 434.30896 395.045013 429.047974 385.114014 422.636963 C 377.71701 417.860962 373.209015 411.817993 371.359009 403.166016 C 376.183014 386.587036 405.595001 354.067993 418.380005 340.174011 C 441.343994 315.214966 468.040009 293.428955 495.425995 273.521973 C 570.47699 218.96698 658.797974 174.679016 750.06897 155.822021 C 773.75 150.929016 798.22699 148.719971 822.35498 147.739014 Z"/>
    <path id="path42" fill="#fbfaf7" stroke="none" d="M 792.265015 321.172974 C 803.164978 319.900024 813.921997 322.421021 824.008972 326.424011 C 827.364014 335.545044 831.013 344.487 837.153992 352.132996 C 854.521973 373.755005 881.169006 376.322021 906.758972 379.130005 C 902.966003 387.906982 901.182007 396.60498 902.408997 406.151001 C 904.593994 423.156006 913.96698 432.98999 926.995972 442.958984 C 915.71464 450.465658 904.112976 457.439006 892.190979 463.879028 C 842.148987 490.335999 764.708008 518.747009 708.46698 524.739014 C 695.276998 526.22168 682.048014 526.770345 668.780029 526.38501 C 659.486023 526.088989 650.218018 525.127991 640.91803 524.783997 C 666.494019 533.380005 693.291992 533.721008 719.984009 533.424988 C 706.684998 545.580994 694.896973 558.395996 683.778015 572.588989 C 667.942017 560.728027 651.161987 550.080017 635.021973 538.630005 C 595.359009 512.973022 554.731995 488.518005 517.502014 459.304993 C 497.394989 443.526978 478.987 426.268005 460.858002 408.294006 C 463.450989 402.593994 464.169006 396.098999 467.403015 390.686035 C 468.933014 388.125977 470.996002 385.752991 473.743988 384.490967 C 482.243011 380.588013 493.796997 378.915039 503.019012 376.696045 C 523.725006 371.852702 544.470337 367.183675 565.255005 362.688965 C 575.640991 360.390991 586.106995 358.317993 596.390991 355.592041 C 598.210999 375.658997 607.52301 396.890991 622.700989 410.446045 C 641.267029 427.026978 666.781982 434.622009 691.422974 433.049988 C 714.369019 431.587036 738.44397 422.427002 753.810974 404.781982 C 772.200989 383.665039 772.296997 354.351013 770.518982 327.955994 C 777.228027 324.295044 784.731995 322.224976 792.265015 321.172974 Z"/>
    <linearGradient id="linearGradient1" x1="664.90466" y1="482.75977" x2="683.26147" y2="454.20416" gradientUnits="userSpaceOnUse">
        <stop offset="1e-05" stop-color="#332024" stop-opacity="1"/>
        <stop offset="1" stop-color="#50272b" stop-opacity="1"/>
    </linearGradient>
    <path id="path43" fill="url(#linearGradient1)" stroke="none" d="M 644.325989 450.313965 L 644.841003 450.81604 C 644.969971 451.582031 645.062988 452.718994 645.565002 453.363037 C 647.369019 455.671997 652.007019 457.971008 654.585022 459.411011 C 668.218994 467.028015 684.200012 470.964966 699.736023 471.817017 C 706.202026 472.171997 712.692017 471.911987 719.164978 472.179993 C 712.689026 474.575989 706.267029 475.359009 699.392029 475.502991 C 680.276978 475.895996 659.664001 470.167969 645.06897 457.557983 C 641.734009 461.411011 638.554016 465.13501 634.307983 468.01001 C 636.325012 461.30603 640.080017 455.799988 644.325989 450.313965 Z"/>
    <path id="path44" fill="#d6cab5" stroke="none" d="M 453.713013 409.81897 C 456.64801 409.959961 461.752991 417.575012 463.652008 419.81897 C 476.078003 434.497986 489.733002 447.198975 504.437988 459.593994 C 525.232971 477.122009 547.289978 492.416016 569.922974 507.432007 C 616.190002 538.127991 664.473999 565.79303 709.656982 598.067993 C 704.76001 610.14502 701.586975 623.575989 697.713989 636.039001 C 694.114014 647.622009 689.60498 659.169983 685.085022 670.424011 C 677.737691 688.259338 669.916687 705.884338 661.622009 723.299011 C 645.679016 757.122009 628.546021 790.138 608.481995 821.742004 C 598.458984 837.528015 587.393982 852.390991 576.799988 867.760986 C 568.004028 880.523987 559.138977 892.916992 549.625977 905.164001 C 545.344971 910.674988 541.192993 916.515991 536.234985 921.437988 C 530.22699 921.562012 524.14801 921.098999 518.137024 920.89801 C 503.312012 920.401978 488.756989 919.663025 473.97699 918.302002 C 468.730998 917.85734 463.490672 917.356669 458.256012 916.799988 C 453.021332 916.242655 447.792999 915.628988 442.571014 914.958984 C 437.349681 914.288981 432.136007 913.562988 426.929993 912.781006 C 421.723999 911.998983 416.526998 911.160645 411.338989 910.265991 C 406.151001 909.371989 400.973338 908.422323 395.806 907.416992 C 390.63799 906.411011 385.481659 905.34967 380.337006 904.232971 C 375.192332 903.116313 370.060333 901.944316 364.94101 900.71698 C 359.821665 899.489644 354.716329 898.207316 349.625 896.869995 C 344.533 895.532674 339.456004 894.14034 334.394012 892.692993 C 329.332672 891.246338 324.287333 889.745341 319.257996 888.190002 C 314.228007 886.634664 309.215678 885.02533 304.221008 883.362 C 299.226339 881.698669 294.25 879.981669 289.291992 878.210999 C 284.334656 876.440328 279.396657 874.616659 274.477997 872.73999 C 269.559336 870.862671 264.661672 868.932678 259.785004 866.950012 C 254.908335 864.967997 250.053335 862.933329 245.220001 860.846008 C 240.386668 858.758687 235.576665 856.61969 230.789993 854.429016 C 234.093002 830.554993 243.501007 802.03302 251.263 779.051025 C 255.554993 766.556356 260.039988 754.131348 264.717987 741.776001 C 269.395986 729.420003 274.264323 717.139669 279.322998 704.934998 C 284.382324 692.731018 289.629323 680.608012 295.063995 668.565979 C 300.499339 656.523987 306.11967 644.569336 311.924988 632.702026 C 317.730998 620.834676 323.719666 609.060343 329.890991 597.379028 C 336.062337 585.697673 342.41334 574.114665 348.944 562.630005 C 355.47466 551.145345 362.181997 539.765015 369.06601 528.489014 C 375.950002 517.212321 383.006999 506.045329 390.237 494.988037 C 405.868988 509.396973 424.082001 520.591003 442.214996 531.521973 C 459.06601 541.307983 478.302002 551.442993 496.109009 559.278015 C 511.02301 565.838989 526.242004 571.336975 541.383972 577.289001 C 543.68103 586.197021 544.734985 595.473022 546.973022 604.434998 C 551.862976 624.026001 560.195007 641.284973 569.328003 659.164978 C 546.93103 673.354004 522.812012 684.380005 499.058014 696.044006 C 498.265991 694.508972 497.403015 693.01001 496.11499 691.830017 C 493.390991 689.333008 489.535004 687.713989 485.806 688.062012 C 482.828003 688.338989 480.174011 690.094971 478.385986 692.442017 C 473.717987 698.565979 476.829987 704.038025 477.692993 710.585022 C 477.076996 711.224976 477.140015 711.309021 476.220001 711.528992 C 470.067993 702.61499 465.441986 692.716003 461.063995 682.836975 C 459.523326 679.326314 458.048991 675.787984 456.640991 672.221985 C 455.232992 668.655986 453.892324 665.064982 452.618988 661.448975 C 451.345673 657.832316 450.140676 654.193319 449.003998 650.531982 C 447.866669 646.870646 446.798665 643.189311 445.799988 639.487976 C 444.801331 635.78599 443.872335 632.066996 443.013 628.330994 C 442.153666 624.59434 441.364665 620.843018 440.645996 617.077026 C 439.927327 613.311686 439.279663 609.533671 438.703003 605.742981 C 438.126343 601.952983 437.620677 598.15332 437.186005 594.343994 C 436.203003 585.846008 435.821991 577.257996 435.136993 568.731995 C 429.303009 611.562988 438.381012 651.726013 455.296997 691.090027 C 465.019989 713.716003 481.963013 746.247009 505.687988 755.674011 C 512.124023 753.642029 518.471985 750.372009 524.588013 747.528015 C 549.708008 735.848022 570.966003 723.062988 592.539001 705.771973 C 596.325989 702.737 601.403992 699.382019 604.234985 695.411011 C 605.025024 694.302979 605.55603 693.153015 604.973999 691.830994 C 603.044006 687.450989 595.721985 680.205017 592.416992 676.117981 C 589.074992 671.958679 585.894328 667.679362 582.875 663.280029 C 580.738322 660.148682 578.687317 656.962341 576.721985 653.721008 C 574.757345 650.478984 572.881348 647.18632 571.093994 643.843018 C 569.307332 640.500326 567.611674 637.111654 566.007019 633.677002 C 564.403015 630.24235 562.89268 626.767008 561.476013 623.250977 C 560.059347 619.734985 558.738342 616.183329 557.513 612.596008 C 556.28835 609.008687 555.161011 605.391012 554.130981 601.742981 C 553.101644 598.09434 552.17098 594.421021 551.338989 590.723022 C 550.50765 587.024333 549.776652 583.30599 549.145996 579.567993 C 558.940002 581.797974 568.447998 585.736023 578.184998 588.366028 C 610.25 597.028992 642.224976 603.14502 675.495972 604.08197 C 681.919006 604.263 688.507996 604.723022 694.906982 604.078979 C 612.284973 589.025024 541.336975 572.708984 464.996002 535.719971 C 439.596985 523.413025 414.515015 509.325989 391.64801 492.756958 C 404.583008 472.766968 419.042999 453.849976 433.628998 435.057007 C 440.165985 426.634033 446.454987 417.609009 453.713013 409.81897 Z"/>
    <path id="path45" fill="#43262c" stroke="none" d="M 597.732971 746.184021 C 599.198975 746.02301 600.619019 745.653992 601.955017 746.434021 C 602.60498 748.890991 601.770996 751.429016 601.054016 753.791992 C 598.203979 763.189026 593.932007 772.070007 589.695984 780.900024 C 579.380981 802.403992 567.372009 824.721985 545.434021 836.296997 C 520.713989 849.340027 479.503998 846.822021 453.360992 838.78302 C 451.613007 838.06897 449.910004 837.327026 448.265991 836.392029 C 445.299011 834.705994 442.641998 832.43103 441.833008 828.971008 C 439.380005 818.482971 453.838013 774.849976 459.48999 765.73999 C 480.916992 765.997986 498.024994 761.719971 518.786987 758.325989 C 534.002991 755.838013 549.28302 753.890991 564.518982 751.547974 C 575.603027 749.84198 586.619995 747.697021 597.732971 746.184021 Z"/>
    <path id="path46" fill="#d6cab5" stroke="none" d="M 598.637024 749.620972 L 599.249023 750.221008 C 595.536011 757.880005 591.289001 765.221008 587.198975 772.677002 C 576.419006 792.330017 565.242981 813.14801 546.218994 826.086975 C 525.117004 840.439026 489.938995 840.611023 465.549011 835.778992 C 460.223999 834.723999 450.531006 833.252991 447.428009 828.177002 C 443.86499 822.346008 454.619995 788.156006 456.964996 779.836975 C 480.44101 785.156982 506.617004 782.479004 530.119019 778.804016 C 547.721008 776.124023 575.953003 772.203979 591.620972 763.684998 C 581.705017 765.034973 571.892029 767.312012 562.034973 769.054016 C 537.38501 773.408997 480.819 782.362976 457.308014 778.877014 L 460.354004 768.11499 C 480.003998 770.804016 500.519012 767.536011 519.976013 764.703003 C 546.867004 760.786987 572.187988 755.848999 598.637024 749.620972 Z"/>
    <path id="chioma" fill="#fbfaf7" stroke="none" d="M 500.576996 50.8526 C 505.876007 51.414001 511.352997 53.376221 516.432983 54.985779 C 535.177979 60.924377 553.130981 68.598267 570.844971 77.057373 C 548.382019 85.418274 527.341003 97.057129 507.471008 110.396973 C 461.721008 141.112 416.378998 183.813965 405.549011 240.171021 C 400.532013 266.283997 404.470001 303.791992 419.588989 326.120972 C 405.822998 341.843994 363.834015 383.14801 363.893005 403.901001 C 363.914001 411.109985 367.963989 418.312988 372.990997 423.302979 C 386.119995 436.335999 405.483002 438.571045 423.003998 438.526001 C 416.700673 446.429321 410.513336 454.422648 404.441986 462.505981 C 398.370656 470.589315 392.417999 478.758667 386.584015 487.014038 C 380.749339 495.27002 375.036001 503.608683 369.444 512.030029 C 363.851329 520.451335 358.381999 528.951986 353.036011 537.531982 C 347.690002 546.111979 342.46933 554.76766 337.373993 563.499023 C 332.279327 572.230347 327.311991 581.033671 322.471985 589.908997 C 317.63267 598.784322 312.922679 607.727987 308.34201 616.73999 C 303.761993 625.751994 299.313324 634.828654 294.996002 643.969971 C 281.971008 670.898987 269.662994 697.963013 258.852997 725.866028 C 252.199666 743.204 246.064336 760.723328 240.447006 778.424011 C 237.382004 788.221008 235.048996 798.622986 231.442001 808.195984 L 231.188995 808.859985 C 218.322998 814.708984 205.610001 819.049011 191.834 822.242004 C 197.559006 814.776978 215.695007 787.612976 215.539993 778.822021 C 215.509995 777.151001 215.044006 776.200989 213.834 775.02002 C 212.313004 774.474976 212.169998 774.307007 210.630997 774.797974 C 202.731003 777.317993 195.156998 781.664001 187.595001 785.057007 C 177.375671 789.545654 166.875671 793.23466 156.095001 796.124023 C 168.996994 779.520996 180.682999 759.372986 186.309998 739.039978 C 187.647003 734.208008 188.419998 729.202026 189.281998 724.268005 C 170.320007 741.979004 163.365005 752.492004 136.962997 759.781982 C 153.358994 735.828979 159.177002 718.221985 163.759003 690.075989 C 158.410995 693.757019 153.423004 698.010986 148.225998 701.906982 C 137.233994 710.145996 124.834 717.705017 111.967003 722.515015 C 114.698997 718.72998 116.912003 714.486023 119.196999 710.419983 C 130.199005 690.841003 136.947006 670.499023 143.082001 649.000977 C 124.890999 663.744995 101.999001 672.593994 79.972 679.960022 C 109.800003 646.145996 119.137001 623.421021 131.037994 580.695984 C 127.773003 585.262024 124.289001 589.510986 120.289001 593.455017 C 107.507004 604.315979 91.221199 611.64801 75.599701 617.5 C 94.148201 595.26001 111.905998 571.942993 122.373001 544.650024 C 125.282997 537.059998 127.387001 529.120972 129.563004 521.297974 C 114.040001 538.919983 97.658798 545.5 75.401703 551.437012 C 80.626999 545.046021 86.585197 539.229004 91.996696 532.97998 C 112.154999 509.703003 133.401001 481.971008 139.973007 451.26001 C 122.373001 464.252991 104.999001 470.47699 83.843697 474.608032 C 89.647697 470.614014 94.818298 465.559998 99.977798 460.783997 C 123.857002 438.677002 143.384995 413.579956 158.328003 384.697021 C 140.764008 392.867004 118.886002 396.450012 99.638802 397.247009 C 126.132004 381.343018 158.302994 350.242004 175.634995 324.533997 C 180.203995 317.755981 183.878006 310.687012 187.479996 303.372009 C 181.158005 305.493042 175.007004 308.410034 168.740005 310.734009 C 154.403 316.052002 140.376007 319.302979 125.230003 321.38501 C 136.175003 313.575012 148.061005 306.969971 159.220993 299.432983 C 182.485001 283.723674 205.140004 267.180013 227.186005 249.802002 C 206.457001 251.721008 186.225006 256.264038 165.334 252.261963 C 192.606003 240.014648 219.507334 227.000651 246.037994 213.219971 C 259.82901 206.186035 274.792999 199.485962 287.362 190.419006 C 277.123993 189.072021 266.940002 187.200989 256.695007 185.827026 C 248.223007 184.690979 239.261002 184.216003 230.968994 182.190979 C 240.533005 178.494995 250.677994 175.700989 260.485992 172.692017 C 284.678986 165.27002 308.985992 158.759033 333.471985 152.414001 C 319.795013 143.812012 303.221985 141.492981 288.48999 135.466003 C 300.299988 132.080994 312.473999 129.908997 324.542999 127.690002 C 339.051666 124.919332 353.616333 122.483337 368.237 120.382019 C 378.463989 118.924988 389.23999 118.483032 399.272003 116.125 C 386.123993 105.583984 370.304993 99.399902 355.208008 92.347534 C 377.075012 92.848877 399.20401 95.057922 420.929993 97.482788 C 430.848999 98.589783 440.806 100.049988 450.747009 100.875977 C 452.153015 100.992981 453.032013 100.757996 454.238007 100.002014 C 454.60199 99.177368 454.808014 99.099976 454.582001 98.170166 C 452.647003 90.206604 424.73999 73.094299 416.994995 68.881226 C 423.256012 69.746216 429.592987 70.183105 435.869995 70.973267 C 453.208008 73.257365 470.529012 75.663208 487.833008 78.190796 C 493.434326 79.017008 499.008657 79.996602 504.556 81.129578 C 511.592987 82.598206 518.565002 84.808289 525.802002 84.471497 C 518.708008 72.116821 510.64801 60.948486 500.576996 50.8526 Z"/>
    <path id="path47" fill="#43262c" stroke="none" d="M 236.216995 732.468994 C 236.804993 737.583984 218.837006 759.120972 218.466003 765.317017 C 218.421005 766.065979 218.772995 766.229004 219.212006 766.768005 C 224.343994 766.221985 247.610001 739.453979 253.084 734.072021 L 248.397995 741.719971 C 245.348007 747.802979 241.151993 753.432983 236.867996 758.695007 C 232.753006 763.75 226.007996 771.982971 218.955002 772.434021 C 217.481995 772.528992 215.895996 772.18103 214.845001 771.075012 C 213.863998 770.041992 213.438995 768.692017 213.393005 767.299011 C 213.113007 758.752014 230.130997 738.895996 236.216995 732.468994 Z"/>
    <path id="path48" fill="#43262c" stroke="none" d="M 275.438995 593.56897 L 275.687988 593.93103 C 268.84201 605.052979 254.988998 627.174988 251.354996 638.796997 C 266.309998 627.549988 277.604004 611.625977 290.630005 598.361023 C 289.479004 601.151001 288.131989 603.799011 286.742004 606.474976 C 280.188995 617.304016 266.722992 634.059998 256.444 641.374023 C 254.115997 643.031006 251.932007 644.411011 249.003006 643.91803 C 248.190994 643.411011 247.643997 643.062988 247.182007 642.179993 C 246.095993 640.10199 246.343002 637.789001 246.912003 635.603027 C 249.188004 626.872986 268.023987 597.849976 275.438995 593.56897 Z"/>
    <path id="path49" fill="#43262c" stroke="none" d="M 183.938004 519.968994 L 184.311996 520.359009 C 183.399002 524.059998 162.570999 542.468018 158.384003 546.94397 C 155.511002 550.015015 152.891998 553.094971 150.740005 556.716003 C 155.576996 554.557983 160.056 551.445984 164.5 548.588013 C 174.774994 541.97998 185.087006 534.450012 196.145996 529.20697 C 194.205994 531.596985 191.960007 533.741028 189.800995 535.932983 C 188.187002 537.427653 186.531001 538.874654 184.832993 540.273987 C 178.337997 545.619995 158.022995 562.281982 150.257004 561.18103 C 148.998993 561.002991 147.729004 560.393005 147.037994 559.281982 C 146.093002 557.763 146.235992 555.66803 146.710999 554.020996 C 149.578995 544.088989 174.891998 525.289001 183.938004 519.968994 Z"/>
    <path id="path50" fill="#43262c" stroke="none" d="M 321.44101 523.929016 C 321.578003 524.697021 321.569 525.114014 321.218994 525.854004 C 318.815002 530.934021 314.35199 536.127014 311.210999 540.836975 C 304.714335 550.401672 298.72934 560.276347 293.256012 570.460999 C 303.442993 563.41803 312.826996 554.736023 321.959991 546.401001 C 326.940002 541.856995 331.970001 536.484985 337.694 532.903992 L 331.889008 540.58197 C 324.903015 549.585999 304.209991 572.366028 293.983002 575.692017 C 292.532013 576.163025 291.498993 576.182007 290.113007 575.455994 C 288.634003 573.784973 288.601013 571.934998 288.721008 569.804016 C 289.278015 559.86499 313.319 531.156006 321.44101 523.929016 Z"/>
    <path id="path51" fill="#43262c" stroke="none" d="M 174.470993 582.460999 C 173.867996 587.879028 153.501007 610.049988 149.007004 616.010986 C 145.960007 620.052002 143.167999 624.094971 141.042999 628.698975 C 155.425003 621.734009 169.057007 606.401978 182.130005 596.674988 C 180.735992 599.028015 179.128006 601.276001 177.604004 603.547974 C 176.901337 604.495321 176.185003 605.432332 175.455002 606.359009 C 170.128006 613.133972 149.485992 634.169006 140.645996 634.645996 C 139.440994 634.710999 138.451004 634.450989 137.587006 633.552002 C 136.449005 632.367981 136.434998 629.474976 136.598007 627.929993 C 137.729004 617.203979 165.643005 589.710022 174.470993 582.460999 Z"/>
    <path id="path52" fill="#43262c" stroke="none" d="M 203.886993 633.414001 C 203.996002 634.65802 203.800995 634.934021 203.151001 636.02301 C 194.585007 650.362976 178.408997 667.65802 172.479996 682.981995 C 177.438995 679.797974 181.867004 675.008972 186.084 670.895996 C 196.817993 660.424011 206.854004 649.09198 217.925995 639.002991 C 216.442993 641.538025 214.699997 643.903992 213.007004 646.301025 C 207.274002 654.700989 183.141006 685.294006 174.315994 686.825012 C 172.854996 687.078003 171.298004 686.822998 170.132004 685.848999 C 168.897003 684.817017 168.442001 683.124023 168.410004 681.572998 C 168.195007 671.440979 196.285004 640.861023 203.886993 633.414001 Z"/>
    <path id="path53" fill="#43262c" stroke="none" d="M 238.755005 464.459961 L 239.190994 464.812012 C 237.783005 467.886963 218.147995 483.766968 213.520996 488.247009 C 209.279663 492.27301 205.383662 496.609009 201.832993 501.255005 C 208.531006 498.528992 214.626999 494.588989 220.792999 490.849976 C 231.557999 484.321045 242.110992 477.403015 253.037994 471.151001 C 251.345001 473.571045 249.582993 475.614014 247.479996 477.687988 C 246.999334 478.115316 246.514002 478.536987 246.024002 478.953003 C 237.959 485.815002 210.764008 507.328979 200.932999 506.187012 C 199.707001 506.044006 198.304993 505.519043 197.615005 504.447021 C 196.781998 503.151001 196.806 501.825989 197.171005 500.384033 C 199.987 489.265991 228.201996 470.422974 238.755005 464.459961 Z"/>
    <path id="path54" fill="#43262c" stroke="none" d="M 242.464005 551.520996 L 242.722 552.132996 C 229.613998 567.052979 214.445999 578.754028 203.388 595.630981 C 217.996002 589.387024 240.878998 568.950012 253.654999 558.684021 C 252.044006 561.190002 250.326996 563.492981 248.440002 565.797974 C 241.184006 574.265015 213.684998 599.596008 203.322006 600.908997 C 201.701996 601.114014 200.862 600.664978 199.591995 599.723999 C 198.511002 597.731018 198.455002 595.835999 199.113998 593.684021 C 202.992004 581.018005 231.235001 557.679993 242.464005 551.520996 Z"/>
    <path id="path55" fill="#43262c" stroke="none" d="M 386.895996 441.536987 L 387.218994 442.042969 C 385.411011 444.731995 381.479004 447.153015 378.90799 449.198975 C 369.710999 456.52002 354.954987 466.656982 348.121002 475.829956 C 365.585999 467.893005 381.891998 457.125977 398.569 447.684998 C 396.334991 450.728027 394.130005 453.221008 391.204987 455.60498 C 382.757996 462.865967 356.282013 482.549011 345.660004 481.499023 C 343.972992 481.332031 343.190002 480.813965 342.149994 479.52301 C 341.811005 478.296021 341.658997 477.459961 342.007996 476.177002 C 345.013 465.160034 376.962006 446.833008 386.895996 441.536987 Z"/>
    <path id="path56" fill="#43262c" stroke="none" d="M 243.854004 669.495972 L 244.181 669.919006 C 241.647995 674.991028 237.727005 679.802979 234.503006 684.484985 C 229.557673 691.752319 224.716339 699.087992 219.979004 706.492004 C 217.942001 709.700012 211.737 718.218018 212.539001 721.804993 L 213.084 721.828979 C 218.264999 718.408997 222.792999 712.986023 227.203995 708.578979 C 236.451996 699.338013 245.544006 689.859009 255.182007 681.023987 C 253.839996 683.669006 252.227005 686.075012 250.572998 688.531006 C 243.307007 698.479004 225.960999 721.679993 215.529999 726.38501 C 213.139999 727.463013 210.934006 727.976013 208.427002 727.072998 C 207.278 725.969971 206.959 725.226013 206.934006 723.616028 C 206.714996 709.468018 234.432999 679.414001 243.854004 669.495972 Z"/>
    <path id="path57" fill="#43262c" stroke="none" d="M 233.761002 383.622009 L 233.800995 384.224976 C 230.546005 387.39502 224.613998 389.927002 220.632996 392.243042 C 209.188004 398.89801 197.731003 405.447998 187.994003 414.547974 C 207.677994 407.171997 226.794998 396.832031 247.264008 391.881958 C 244.710007 393.875 242.011993 395.562012 239.266006 397.270996 C 236.621333 398.717 233.963664 400.139323 231.292999 401.537964 C 223.895004 405.415039 192.817001 421.313965 186.451996 418.994019 C 185.042007 418.47998 183.589996 417.22699 183.123993 415.769043 C 182.772003 414.669006 183.005005 413.60199 183.488007 412.588013 C 188.731003 401.571045 221.470993 387.781006 233.761002 383.622009 Z"/>
    <path id="path58" fill="#43262c" stroke="none" d="M 225.824005 319.541992 C 226.996994 319.446045 227.934998 319.250977 229.037003 319.752014 C 224.927002 324.136963 203.600998 331.457031 197.054993 334.541016 C 192.283997 336.789001 187.934998 339.323975 183.697998 342.462036 C 190.953003 341.547974 197.951004 339.384033 204.968002 337.405029 C 216.449005 334.166016 227.699997 331.039001 239.623993 329.874023 C 237.593002 331.285034 235.436005 332.473022 233.289001 333.696045 L 232.697998 333.97699 C 224.220001 337.916992 188.608994 350.976013 181.078003 347.417969 C 179.895996 346.859009 178.990997 346.015015 178.565002 344.756958 C 178.070999 343.296021 178.440994 341.791992 179.201004 340.502991 C 185.197006 330.335999 214.339996 322.674011 225.824005 319.541992 Z"/>
    <path id="path59" fill="#43262c" stroke="none" d="M 383.778015 330.214966 C 383.777008 331.322998 379.852997 332.848022 378.825012 333.27301 C 363.242004 339.710999 341.420013 346.672974 329.743988 358.881958 C 349.652008 352.894043 368.858002 345.22699 389.190002 340.60498 C 386.247009 342.252014 383.167999 343.708008 380.157013 345.233032 C 372.571991 349 364.75 352.594971 356.890015 355.75 C 351.209015 358.030029 332.415985 365.799988 327.237 363.005981 C 326.040985 362.362 325.315002 361.502014 324.970001 360.167969 C 324.489014 358.307007 325.166992 356.416992 326.238007 354.89801 C 334.921997 342.578003 369.300995 332.987 383.778015 330.214966 Z"/>
    <path id="path60" fill="#43262c" stroke="none" d="M 195.574997 443.542969 L 196.264008 443.789001 C 192.766006 447.234009 187.505997 449.471008 183.362 452.124023 C 169.755005 460.834961 154.076996 470.283997 143.457993 482.596985 C 152.542007 479.747986 161.460007 473.542969 169.772995 468.85199 C 180.18367 463.036682 190.62767 457.28302 201.104996 451.591003 C 199.085007 453.846985 196.865997 455.947998 194.720001 458.085999 C 188.442993 463.80896 180.737 468.708008 173.470001 473.105957 C 167.080002 476.971985 149.406006 489.057983 142.535004 487.040039 C 140.955002 486.575989 139.139999 485.419006 138.570007 483.799011 C 138.139008 482.575012 138.481003 481.192993 139.033997 480.067017 C 145.104004 467.700989 181.751007 448.395996 195.574997 443.542969 Z"/>
    <path id="path61" fill="#43262c" stroke="none" d="M 308.427002 471.523987 L 308.806 472.238037 C 304.237 476.682007 298.692993 480.35498 293.674988 484.297974 C 281.282013 494.033997 268.744995 503.608032 257.783997 514.973022 C 266.718994 511.391968 274.78299 505.907959 282.966003 500.89502 C 294.605011 493.764038 306.188995 486.599976 318.300995 480.291992 C 316.341003 482.464966 314.30899 484.459961 312.153992 486.437988 C 304.678009 492.63501 296.722992 498.062988 288.673004 503.476013 C 282.218994 507.81604 262.996002 521.559998 255.807007 519.523987 C 254.619003 519.187012 253.725998 518.617004 253.141998 517.492004 C 252.615997 516.479004 252.552994 515.372986 252.845001 514.28302 C 256.032013 502.353027 297.075989 477.827026 308.427002 471.523987 Z"/>
    <path id="path62" fill="#43262c" stroke="none" d="M 269.835999 263.208984 C 271.709991 263.030029 274.858002 262.575012 276.45401 263.666016 C 275.5 264.802979 273.950012 265.179993 272.535004 265.598999 C 254.294006 271.004028 234.089996 273.333984 217.410995 283.104004 C 226.337006 282.599976 272.498993 275.018005 276.324005 276.471985 L 276.299011 277.221008 L 274.553986 278.393005 C 271.799011 279.346985 268.953003 280.169006 266.147003 280.964966 C 256.019012 283.838989 222.481995 291.901001 214.365997 286.927979 C 213.199997 286.213013 212.184006 285.10199 212.054001 283.684998 C 211.925003 282.281006 212.606995 280.974976 213.468002 279.921021 C 221.244003 270.391968 257.084991 264.247009 269.835999 263.208984 Z"/>
    <path id="path63" fill="#43262c" stroke="none" d="M 344.824005 395.591003 L 346.325989 395.644043 C 344.553009 398.02002 309.380005 412.401001 303.950012 415.125 C 297.790985 418.216003 290.927002 421.94397 285.998993 426.815002 C 292.299988 424.700989 298.721008 422.942993 305.041992 420.881958 C 319.511993 416.164001 333.518005 411.389038 348.436005 408.216003 C 346.018005 409.731995 343.507996 411.131958 341.046997 412.579956 C 332.377991 417.410034 301.901001 429.474976 291.988007 431.386963 C 289.328003 431.901001 286.425995 432.088013 283.806 431.255981 C 282.109009 430.718018 281.178009 430.079956 280.356995 428.463013 C 280.088013 426.570007 280.799011 425 281.846985 423.453003 C 289.52301 412.120972 330.700989 398.638 344.824005 395.591003 Z"/>
    <path id="path64" fill="#43262c" stroke="none" d="M 324.697998 287.187988 C 326.682007 286.838013 328.899994 286.926025 330.921997 286.833984 L 330.098999 287.291016 C 313.941986 296.369995 288.912994 298.629028 273.846985 309.212036 C 283.169006 308.153992 334.039001 299.265991 340.140991 301.72998 L 339.915009 302.619019 L 337.894012 303.437988 C 327.627014 306.442993 279.726013 317.907959 271.644989 313.890991 C 270.204987 313.176025 268.944 311.859009 268.506989 310.280029 C 268.109985 308.841003 268.733002 307.419006 269.610992 306.304993 C 276.446991 297.636963 312.962006 288.44104 324.697998 287.187988 Z"/>
    <path id="path65" fill="#43262c" stroke="none" d="M 355.903992 250.708984 C 367.398987 249.466003 385.763 249.804993 397.006012 252.072021 C 398.153015 252.302979 398.239014 252.333984 398.860992 253.259033 C 398.005005 254.333984 397.337006 254.421021 396.02301 254.610962 C 390.617004 255.395996 384.847992 255.30603 379.390991 255.507996 C 365.108002 256.036011 350.15799 256.275024 336.286011 259.868042 C 347.240997 262.832031 359.115997 263.572998 370.381989 264.872986 C 381.196991 265.994995 391.929993 266.901978 402.464996 269.72998 C 388.303986 271.662964 344.970001 271.380005 333.432007 263.985962 C 332.019989 263.080994 331.399994 262.226013 331.084015 260.544006 C 331.309998 259.224976 331.681 258.395996 332.515015 257.372009 C 337.561005 251.174988 348.524994 251.35199 355.903992 250.708984 Z"/>
    <path id="path66" fill="#43262c" stroke="none" d="M 382.846008 133.705994 C 382.970001 133.687988 383.093994 133.664001 383.218994 133.651001 C 393.898987 132.585022 431.490997 135.349976 439.321014 141.476013 L 439.054993 141.942993 C 432.368011 143.47998 423.714996 141.380981 416.92099 140.651001 C 402.549011 139.106995 387.221985 137.783997 373.002991 140.942993 C 378.721008 141.936035 384.417999 143.22699 390.104004 144.393982 C 405.023987 147.335022 420.955994 149.304993 435.406006 153.979004 C 418.576996 156.630981 387.496002 152.747009 371.670013 145.640015 C 369.471008 144.653015 367.671997 143.742004 366.757996 141.403015 C 366.770996 140.28302 366.944 139.606018 367.674988 138.721985 C 371.152008 134.518982 377.830994 134.197021 382.846008 133.705994 Z"/>
    <path id="path67" fill="#43262c" stroke="none" d="M 305.846008 334.666992 C 308.100006 334.416016 310.192993 334.301025 312.458008 334.454956 L 312.630005 334.901001 C 307.201996 337.985962 300.062988 339.598022 294.088989 341.585999 C 277.781006 347.011963 261.024994 351.947021 246.063995 360.578979 C 261.330994 358.05896 276.756989 352.879028 291.621002 348.593994 C 296.509003 347.184998 304.876007 343.833984 309.725006 343.882996 C 310.76001 343.893005 310.346985 343.747986 311.089996 344.510986 L 310.140015 345.811035 C 308.956665 346.577677 307.731995 347.270671 306.466003 347.890015 C 297.097992 352.450989 251.703995 368.911011 243.335007 365.394043 C 242.270004 364.947021 241.373993 364.223999 241.106003 363.042969 C 240.709 361.286011 241.815002 359.11499 242.809006 357.734009 C 250.360001 347.254028 292.68399 336.812012 305.846008 334.666992 Z"/>
    <path id="path68" fill="#43262c" stroke="none" d="M 343.809998 169.718994 C 344.927002 169.651978 346.087006 169.692017 347.208008 169.697998 C 354.309998 169.734985 389.22699 170.835022 393.264008 174.89502 L 392.872986 174.874023 L 392.522003 175.507996 L 392.470001 174.832031 L 391.595001 174.765991 C 390.175995 175.860962 353.71701 174.912964 348.397003 175.070984 C 338.956329 175.41099 329.550659 176.17867 320.179993 177.374023 C 330.748993 180.424011 342.497009 181.287964 353.404999 182.684998 C 365.575989 184.136963 379.131989 184.742981 390.752014 188.660034 C 372.132996 191.462036 336.901001 188.853027 318.85199 182.393005 C 316.298004 181.479004 314.223999 180.47699 313.028992 177.960022 C 313.037994 176.549011 312.911011 176.033997 313.891998 174.916016 C 317.871002 170.382996 337.945007 170.052979 343.809998 169.718994 Z"/>
    <path id="path69" fill="#43262c" stroke="none" d="M 316.170013 211.708984 C 324.984009 210.713989 345.957001 211.122009 353.852997 214.854004 L 352.488007 214.955994 L 352.252014 215.471008 C 350.234009 214.56897 345.44101 215.487 343.028992 215.563965 C 325.735992 216.119995 306.037994 216.026001 289.51001 221.669983 C 306.628998 224.112 323.496002 224.210999 340.75 224.471008 C 349.769012 224.541016 359.049011 224.219971 367.925995 225.999023 C 347.769989 231.356018 323.239014 231.700989 302.479004 229.593994 C 297.656006 229.10498 292.074005 228.780029 287.661011 226.619995 C 285.56601 225.594971 284.184998 224.481995 283.428986 222.228027 C 283.507996 220.896973 283.734009 220.285034 284.65799 219.291016 C 290.332001 213.186035 307.953003 212.34198 316.170013 211.708984 Z"/>
</svg>
