<?xml version="1.0" encoding="UTF-8"?>
<!-- Generated by Pixelmator Pro 2.4.7 -->
<svg width="800" height="800" viewBox="0 0 800 800" xmlns="http://www.w3.org/2000/svg" xmlns:xlink="http://www.w3.org/1999/xlink">
    <path id="path1369" fill="#d4d0d0" stroke="none" d="M 330.948761 471.089996 L 411.277496 517.467529 L 248.15625 800 L 201.33725 695.58252 L 330.948761 471.089996 Z"/>
    <path id="path1370" fill="#b1afaf" stroke="none" d="M 330.948761 471.089996 L 250.620743 424.712524 L 87.5 707.244995 L 201.33725 695.58252 L 330.948761 471.089996 Z"/>
    <path id="path1371" fill="#b1afaf" stroke="none" d="M 445.549988 471.089996 L 365.220001 517.467529 L 528.342468 800 L 575.159973 695.58252 L 445.549988 471.089996 Z"/>
    <path id="path1372" fill="#d4d0d0" stroke="none" d="M 445.549988 471.089996 L 525.877502 424.712524 L 688.997498 707.244995 L 575.159973 695.58252 L 445.549988 471.089996 Z"/>
    <path id="path1373" fill="#bf8970" stroke="none" d="M 662.340027 276.554993 C 662.340027 429.290009 538.522461 553.107483 385.785004 553.107483 C 233.048492 553.107483 109.231224 429.290009 109.231224 276.554993 C 109.231224 123.817505 233.048492 0 385.785004 0 C 538.522461 0 662.340027 123.817505 662.340027 276.554993 Z"/>
    <path id="path1374" fill="#a88300" stroke="none" d="M 601.662476 276.55249 C 601.662476 395.777527 505.009979 492.430023 385.787506 492.430023 C 266.561737 492.430023 169.911255 395.777527 169.911255 276.55249 C 169.911255 157.328735 266.561737 60.678223 385.787506 60.678223 C 505.009979 60.678223 601.662476 157.328735 601.662476 276.55249 Z"/>
    <path id="path1375" fill="#a67e6c" stroke="none" d="M 613.692505 299.600006 C 613.692505 419.102478 516.817505 515.977478 397.315002 515.977478 C 277.812744 515.977478 180.936996 419.102478 180.936996 299.600006 C 180.936996 180.097229 277.812744 83.221741 397.315002 83.221741 C 516.817505 83.221741 613.692505 180.097229 613.692505 299.600006 Z"/>
    <path id="path1376" fill="#c99882" stroke="none" d="M 602.169983 276.55249 C 602.169983 396.054993 505.294983 492.929993 385.79248 492.929993 C 266.289734 492.929993 169.414001 396.054993 169.414001 276.55249 C 169.414001 157.05127 266.289734 60.175476 385.79248 60.175476 C 505.294983 60.175476 602.169983 157.05127 602.169983 276.55249 Z"/>
    <g id="bookclosedsideeye">
        <path id="path1377" fill="#5c3b40" stroke="none" d="M 379.564667 153.071228 C 387.270233 152.484741 396.99527 155.606506 403.758301 159.256348 C 406.005524 160.469116 408.093536 161.964783 410.20163 163.400696 C 409.455597 161.866699 405.199554 155.129761 405.326447 154.225708 C 405.525269 153.972534 405.576111 153.859131 405.92215 153.824585 C 406.575165 153.759399 407.532257 154.229065 408.142517 154.462097 C 413.164398 156.380554 418.427551 159.323853 422.700256 162.607239 C 424.856537 164.26416 426.658173 166.31665 428.854858 167.920349 C 428.977844 164.119263 427.821381 161.126404 426.54953 157.643188 C 431.196136 158.761841 435.914185 162.740845 438.908478 166.379395 C 440.502167 168.316162 441.868896 170.410461 443.348724 172.428101 C 443.108215 170.387268 442.811401 168.404297 442.347076 166.39917 C 442.073181 165.216248 441.680237 164.073914 441.453278 162.879333 C 442.653778 163.277527 443.803436 163.824951 444.808472 164.598633 C 449.645599 168.321411 453.36145 176.16272 454.493896 182.101563 C 454.846222 183.948792 454.74823 185.772034 455.016113 187.608887 L 455.041901 187.775391 C 460.628174 192.029297 463.938293 198.787659 466.480499 205.177063 C 467.152008 201.668884 468.022095 197.979858 470.734955 195.444458 C 470.819733 195.364746 470.906525 195.287231 470.99527 195.212036 C 471.084045 195.136597 471.174652 195.063538 471.267059 194.992859 C 471.35965 194.92218 471.453888 194.853882 471.549774 194.788025 C 471.64566 194.722046 471.743225 194.658569 471.842407 194.597595 C 471.94162 194.536621 472.042206 194.47821 472.144165 194.422485 C 472.246307 194.366516 472.349854 194.313293 472.454773 194.262756 C 472.55954 194.212158 472.665588 194.164246 472.772949 194.118896 C 472.880127 194.07373 472.988434 194.03125 473.09787 193.991455 C 473.207306 193.951843 473.317627 193.914978 473.428802 193.880737 C 473.540161 193.84668 473.652313 193.815491 473.765228 193.78717 C 473.87796 193.758667 473.991486 193.733154 474.105804 193.710571 C 474.21994 193.687805 474.334595 193.66803 474.449768 193.651184 C 474.564941 193.63446 474.68045 193.620667 474.796326 193.609741 C 474.912201 193.598816 475.028351 193.590698 475.144714 193.58551 C 475.260925 193.580444 475.377258 193.578369 475.493622 193.579224 C 475.610016 193.580139 475.726349 193.583923 475.84256 193.590698 C 477.902679 193.712646 479.692322 194.844849 481.049408 196.339294 C 485.084473 200.782654 485.7948 209.058594 485.483154 214.845032 C 485.272339 218.764404 483.908997 224.489563 480.827667 227.198242 L 479.919037 227.999512 C 482.949829 230.073425 486.834778 231.520996 490.404419 232.382996 C 491.708099 231.07251 493.217651 230.116455 494.992188 229.57605 C 497.030426 228.955322 499.413391 228.870361 501.321625 229.940552 C 501.4104 229.990967 501.497772 230.043579 501.583771 230.098511 C 501.669769 230.153381 501.754364 230.210388 501.837555 230.269409 C 501.920776 230.328491 502.002502 230.389526 502.082764 230.452576 C 502.162842 230.515686 502.241364 230.580688 502.318329 230.647766 C 502.395294 230.714844 502.470428 230.783813 502.543732 230.854675 C 502.617218 230.925537 502.688873 230.998169 502.758698 231.07251 C 502.828705 231.146851 502.896729 231.222961 502.962738 231.300781 C 503.028748 231.378601 503.092773 231.458008 503.154785 231.53894 C 503.21698 231.619934 503.277008 231.702332 503.334839 231.786255 C 503.392853 231.8703 503.44873 231.955688 503.502411 232.042419 C 503.556061 232.129272 503.607574 232.217346 503.656921 232.306641 C 503.706268 232.395935 503.753235 232.486389 503.797882 232.578125 C 503.842712 232.669861 503.885193 232.762634 503.925323 232.856445 C 503.965424 232.950256 504.003235 233.044983 504.038666 233.140747 C 504.074127 233.23645 504.107117 233.332947 504.137695 233.430237 C 504.168274 233.527649 504.196411 233.625732 504.222107 233.724426 C 504.820679 236.071167 504.212982 238.35022 502.972382 240.375183 C 501.887329 242.146057 499.825897 243.532593 497.94165 244.331787 C 497.053345 244.708557 496.013397 245.007202 495.223328 245.573425 C 494.389709 246.17041 493.670532 247.067078 492.919281 247.773743 C 491.636993 248.97998 490.218903 250.133301 488.784668 251.152649 C 482.42868 255.6698 473.959351 259.120911 466.427856 261.01062 C 463.00882 261.868408 459.530884 262.388 456.112885 263.2099 C 457.529633 266.228394 460.522125 271.707825 462.731567 274.14502 L 462.81131 274.231323 C 462.852478 275.557129 460.118744 279.506409 459.549103 281.091797 C 459.535309 281.130859 459.522278 281.170471 459.508728 281.209595 C 460.833771 282.975525 461.818512 285.243042 462.867065 287.194519 C 466.10318 286.377075 469.644165 285.970337 472.960297 285.571411 C 474.291595 285.411377 475.6716 285.395508 476.976593 285.08252 C 478.025146 285.849426 484.593811 294.151184 484.639923 295.088989 C 484.698029 296.26239 481.306091 300.198425 480.395905 300.956451 C 481.608612 302.591309 482.071686 304.450531 482.160004 306.463776 C 482.319733 310.092834 481.049957 313.898041 478.572632 316.582001 C 475.942352 319.431946 473.263611 320.438812 469.475861 320.602448 C 468.638855 321.517883 467.918365 322.600311 467.135864 323.568878 C 465.636749 325.424744 464.050079 327.24173 462.693512 329.205719 C 463.348877 331.634552 463.734528 334.126465 464.208008 336.594421 C 465.955688 345.699799 467.478241 356.447845 467.393555 365.714508 C 464.473267 370.253021 459.168945 373.23822 454.695343 376.071228 C 453.795044 376.641357 452.745422 377.557281 451.702087 377.819427 C 451.301819 377.920013 451.081909 377.847321 450.748871 377.625793 C 449.763641 375.875 451.562134 372.496063 451.467285 370.494568 C 451.455292 370.241547 451.497528 370.338989 451.313019 370.17276 C 449.1987 370.312958 446.907196 371.108765 444.863708 371.657532 C 446.664063 376.164246 448.793243 380.615692 450.381195 385.192474 C 451.609039 385.633392 452.838715 386.315582 454.018341 386.877136 C 457.796478 388.675385 461.429718 390.642456 465.031677 392.769836 C 462.031128 394.028412 458.49823 394.439087 455.294678 394.89978 C 446.585358 396.152405 438.055328 396.735321 429.265259 396.506531 C 428.798035 396.494263 428.37381 396.448395 428.029327 396.0961 C 427.211121 395.258881 424.338257 388.298065 423.610718 386.764801 C 422.445404 384.309387 421.205048 381.895905 420.007965 379.456635 C 419.420349 378.259033 418.898682 376.569427 417.983002 375.614166 C 417.879028 375.627441 417.762817 375.640472 417.662231 375.663422 C 415.75766 376.099884 413.745239 376.194214 411.798462 376.365936 C 409.310699 376.585327 406.81723 376.86441 404.322998 376.980621 C 402.061676 377.086151 399.79361 377.051239 397.529968 377.140869 C 396.976501 379.800354 396.350586 382.560638 395.459686 385.126801 C 386.891602 385.249298 378.388428 384.935028 369.890198 383.736359 C 364.361755 382.956451 358.977173 381.779175 353.522491 380.630035 C 352.673523 382.600006 351.963196 384.664307 351.251282 386.688721 C 350.775482 388.237854 350.168091 389.685364 349.781891 391.270721 C 350.734833 392.145752 352.082031 392.84671 353.145172 393.617767 C 354.623444 394.690308 360.045288 398.626587 360.266785 400.022003 L 360.085419 400.207001 C 358.438568 400.7052 345.073761 399.128998 342.617035 398.744385 C 337.88858 398.004059 333.180725 397.162659 328.601074 395.748505 C 327.714569 395.474915 326.882813 395.101471 326.011688 394.805481 C 325.332123 394.574341 323.736084 394.248352 323.408783 393.583344 C 322.778198 392.302887 326.120361 381.485779 326.81427 379.52829 C 327.693481 377.048889 328.767822 374.647919 329.661621 372.177368 C 325.065033 369.974457 318.302765 366.735718 314.709656 363.045441 C 314.795105 361.035492 314.976318 359.03418 315.253204 357.041443 C 315.530304 355.048889 315.901886 353.074066 316.367981 351.116943 C 315.843933 350.425629 315.215179 349.805206 314.670563 349.125885 C 313.111267 347.181183 311.503235 344.96521 310.412964 342.72348 C 309.950195 345.901215 310.067444 349.207672 309.681519 352.417755 C 305.002319 348.808228 302.341034 337.850922 300.506836 332.39859 C 299.9711 334.892578 299.592224 337.495483 299.29776 340.030121 C 299.148193 341.317383 299.326416 343.015839 298.889954 344.215027 L 298.710419 344.22049 C 298.183777 343.543762 297.95343 342.694 297.572998 341.932098 C 293.41571 333.605316 291.10257 324.383209 289.30249 315.295807 L 289.082306 315.245514 L 289.103943 314.92395 L 289.237091 315.098541 L 289.129211 314.885651 C 288.711761 315.763031 288.556458 316.760773 288.274261 317.690765 C 287.442505 320.431793 286.704285 323.080322 286.110931 325.883606 C 283.178131 316.6203 282.962128 307.929504 282.952484 298.284729 C 281.883575 300.017853 278.015472 308.432159 277.438751 308.909302 L 277.210602 308.882965 C 277.184937 308.836578 277.15567 308.792023 277.133606 308.743835 C 276.601685 307.583466 276.602478 305.683075 276.473328 304.404938 C 275.627319 296.031494 276.125793 287.20105 278.981598 279.226807 C 278.941437 279.255005 278.901001 279.282593 278.861145 279.310974 L 278.66275 279.454041 C 275.133942 281.968628 272.336517 285.570068 269.452057 288.757477 C 270.049652 285.945313 270.222748 283.048706 270.761322 280.219116 C 271.938019 274.036926 273.942322 268.219727 276.431335 262.445862 C 277.422119 260.147583 278.391998 257.88446 279.745941 255.769592 C 278.117798 256.790283 276.405487 257.680908 274.776764 258.710999 C 272.516602 260.140259 270.324585 261.715454 268.043671 263.102295 C 267.806061 263.246887 267.860352 263.255493 267.561676 263.233582 C 267.536285 263.076965 267.528229 263.06842 267.537231 262.882874 C 267.589966 261.796509 268.224426 260.374512 268.573242 259.337708 C 270.463257 253.719116 274.594604 247.278381 278.591034 242.892883 C 280.078766 241.260315 281.78952 239.786011 283.372528 238.241272 C 280.774811 239.207764 274.210449 242.2771 272.067291 243.843201 C 274.722382 236.661377 279.156372 229.913452 284.459381 224.412659 C 286.804352 221.980408 289.347321 219.78949 291.844971 217.522705 C 289.297546 218.535583 286.559387 219.272522 283.931976 220.065979 C 282.680176 220.443787 281.382233 220.755188 280.197632 221.316223 C 281.398651 218.778198 283.540344 216.281067 285.415985 214.210022 C 286.092773 213.466125 286.783478 212.735352 287.488098 212.017761 C 288.192871 211.30011 288.91095 210.596069 289.642303 209.905762 C 290.37381 209.215576 291.118195 208.53949 291.875458 207.877441 C 292.63269 207.215576 293.402252 206.568298 294.184174 205.935608 C 294.966064 205.303101 295.759705 204.685608 296.565063 204.08313 C 297.370422 203.480835 298.187012 202.894043 299.014771 202.322693 C 299.842529 201.751465 300.680908 201.196228 301.529877 200.656799 C 302.378845 200.117432 303.237701 199.594421 304.106476 199.087891 C 305.703552 198.140686 307.359772 197.308655 308.986053 196.414063 C 304.46225 196.485779 299.953186 196.782715 295.458923 197.304749 C 299.700348 193.110229 306.812561 189.067078 312.345947 186.691406 C 313.787994 186.07196 315.29776 185.635254 316.752594 185.045532 C 314.228607 184.763123 311.698914 184.339661 309.155151 184.540588 C 314.310699 179.022583 329.62384 174.224548 337.010437 172.692871 C 340.274689 172.015869 343.636414 171.676331 346.950989 171.350891 C 345.652252 170.878967 344.448395 170.068054 343.190826 169.480713 C 340.33255 168.145508 335.851929 166.798279 332.690826 166.953247 C 332.797516 166.880737 332.905029 166.809631 333.013428 166.739868 C 335.14209 165.376892 337.798431 164.786194 340.247345 164.264465 C 347.581055 162.702087 354.2164 162.438477 361.656708 163.078674 C 364.448547 163.318909 367.12207 163.587769 369.863342 164.212646 C 368.498444 163.531372 367.189301 162.735657 365.801727 162.098328 C 364.7099 161.596802 359.998627 159.906616 359.56192 159.405334 C 359.633057 159.356689 359.700287 159.301697 359.77533 159.259399 C 360.567993 158.813232 362.452759 158.739136 363.398407 158.620605 C 371.843475 157.562561 380.381073 159.013611 388.336517 161.862061 C 386.512207 159.195801 383.326111 155.615479 380.373779 154.184082 C 379.564667 153.79187 378.645355 153.601379 377.785187 153.336731 C 378.372772 153.221497 378.971588 153.153198 379.564667 153.071228 Z"/>
        <path id="path1378" fill="#968971" stroke="none" d="M 456.521973 285.983643 C 456.566803 286.453979 456.746582 287.078857 456.634033 287.530701 C 456.553253 287.854065 456.035736 288.588898 456.278595 288.793427 C 455.932037 289.102997 455.045807 289.306519 454.588226 289.479279 C 454.943665 288.160492 455.764221 287.096008 456.521973 285.983643 Z"/>
        <path id="path1379" fill="#f5eece" stroke="none" d="M 476.027039 286.917297 C 476.418152 287.247925 477.054504 287.76001 477.17099 288.266815 C 475.378723 288.396576 473.586975 288.575592 471.795502 288.697815 C 471.855438 288.415344 471.902618 288.258484 472.113678 288.061218 C 472.339355 287.850647 472.280182 287.98877 472.311462 287.707886 L 471.995636 287.536438 C 473.329803 287.322998 474.707733 287.190857 476.027039 286.917297 Z"/>
        <path id="path1380" fill="#fdfbf4" stroke="none" d="M 430.35318 322.488007 L 432.077423 322.301422 C 430.734406 324.085358 429.766357 326.16684 428.420471 327.904633 C 428.181 327.692535 428.036896 327.553375 427.908936 327.257904 C 428.048889 325.729614 429.563599 323.815399 430.35318 322.488007 Z"/>
        <path id="path1381" fill="#bd9a78" stroke="none" d="M 456.521973 285.983643 C 457.178925 284.904846 457.826691 283.813293 458.333008 282.653992 C 459.156158 284.260925 459.956421 285.975281 460.549744 287.680481 C 459.136902 288.085449 457.722717 288.513824 456.278595 288.793427 C 456.035736 288.588898 456.553253 287.854065 456.634033 287.530701 C 456.746582 287.078857 456.566803 286.453979 456.521973 285.983643 Z"/>
        <path id="path1382" fill="#c7baa2" stroke="none" d="M 457.620056 286.116272 L 457.895996 286.309875 C 457.929108 286.479248 457.946289 286.519897 457.936127 286.708801 C 457.91452 287.115295 457.611206 287.412109 457.336548 287.669312 C 457.170319 287.62738 457.080658 287.565308 456.938385 287.473083 L 456.881836 287.155457 C 457.038971 286.717407 457.306335 286.452393 457.620056 286.116272 Z"/>
        <path id="path1383" fill="#fdfbf4" stroke="none" d="M 447.802765 293.191742 C 449.904602 292.248444 452.257111 291.723877 454.48114 291.146973 C 460.248596 289.600189 466.086761 288.396667 471.995636 287.536438 L 472.311462 287.707886 C 472.280182 287.98877 472.339355 287.850647 472.113678 288.061218 C 471.902618 288.258484 471.855438 288.415344 471.795502 288.697815 C 470.626831 288.962036 469.380463 289.054535 468.192505 289.220276 C 465.853546 289.546234 463.506256 289.871704 461.184784 290.307404 C 458.060944 290.893951 454.939484 291.613159 451.839386 292.316711 C 450.568542 292.605164 449.098389 293.173218 447.802765 293.191742 Z"/>
        <path id="path1384" fill="#bd9a78" stroke="none" d="M 466.849731 210.79541 L 467.407379 210.775574 C 467.905609 211.253479 468.109375 212.291626 468.561737 212.915466 C 468.59613 212.962891 468.631836 213.009521 468.667023 213.056702 C 468.246948 212.956116 467.821686 212.853149 467.391998 212.803406 C 464.754425 212.497742 462.299011 213.740662 460.290466 215.314026 L 459.45166 216.130981 C 459.246063 215.252808 459.095703 214.359314 458.931549 213.472534 C 461.797638 211.751953 463.53363 211.121094 466.849731 210.79541 Z"/>
        <path id="path1385" fill="#fdfbf4" stroke="none" d="M 432.614746 322.435364 C 433.270599 321.843079 435.275238 321.819641 436.197693 321.578339 C 434.207397 324.718567 432.171478 327.811096 430.111084 330.903137 C 429.623291 330.031219 429.151123 329.14447 428.63205 328.290833 L 428.420471 327.904633 C 429.766357 326.16684 430.734406 324.085358 432.077423 322.301422 L 432.614746 322.435364 Z"/>
        <path id="path1386" fill="#443033" stroke="none" d="M 432.077423 322.301422 L 432.614746 322.435364 C 431.430908 324.380066 430.180389 326.626007 428.63205 328.290833 L 428.420471 327.904633 C 429.766357 326.16684 430.734406 324.085358 432.077423 322.301422 Z"/>
        <path id="path1387" fill="#fdfbf4" stroke="none" d="M 448.25592 274.086914 C 448.301025 274.172363 448.302307 274.156738 448.303101 274.284973 C 448.313263 276.071228 444.712585 282.966614 443.492554 284.468872 L 443.517059 284.223145 L 443.44046 284.313293 L 443.335175 283.321533 C 443.308075 281.313538 442.886475 279.492126 442.289215 277.5896 C 443.39978 276.727112 444.345184 275.837769 445.13028 274.664124 L 445.233765 274.506958 C 445.400238 274.440796 445.31427 274.499695 445.429443 274.262817 C 445.807526 274.435059 446.349792 274.747986 446.765167 274.767822 C 447.409302 274.798828 447.765533 274.455383 448.25592 274.086914 Z"/>
        <path id="path1388" fill="#fdfbf4" stroke="none" d="M 479.295471 292.635925 C 479.698578 292.593445 480.175964 292.50824 480.572296 292.626282 C 480.991333 292.751099 481.278473 293.335846 481.499969 293.687347 C 471.97168 294.440155 462.332367 295.510864 452.91507 297.151215 C 452.563538 297.243469 452.258148 297.320068 451.890198 297.315125 C 451.352386 296.983917 451.174927 296.336395 450.917999 295.771973 C 453.181641 295.246399 455.610229 295.025146 457.91452 294.701508 C 465.013367 293.720886 472.14035 293.032349 479.295471 292.635925 Z"/>
        <path id="path1389" fill="#fdfbf4" stroke="none" d="M 451.839142 263.530396 C 452.157806 263.502502 452.171112 263.449097 452.455414 263.629395 C 452.458282 263.683594 452.466095 263.737549 452.463745 263.791748 C 452.434814 264.488281 451.988464 265.303894 451.697906 265.93158 C 450.481262 268.561096 449.095001 271.099915 446.984039 273.120178 C 446.40036 272.16803 445.821716 271.21283 445.248077 270.254639 C 444.055664 268.744568 442.94873 267.153748 441.523895 265.85083 C 443.075378 265.52771 444.582825 264.994568 446.131958 264.650879 C 448.024811 264.230835 449.947083 263.960083 451.839142 263.530396 Z"/>
        <path id="path1390" fill="#fdfbf4" stroke="none" d="M 447.154724 293.594574 L 447.960968 293.853333 C 449.013702 295.134613 450.16153 296.135223 451.068085 297.55484 C 448.353119 298.065582 446.03006 300.472534 443.983246 302.209808 C 443.424805 302.683807 442.844513 303.25238 442.211304 303.622406 C 441.636993 303.958313 441.255493 303.53067 440.708282 303.678436 C 439.948425 303.883789 439.212311 304.838806 438.512665 305.246063 C 437.972229 305.560852 437.301483 305.747955 436.709442 305.949371 C 438.43811 304.036469 439.694885 301.349396 440.962341 299.102692 C 441.86734 297.49884 442.824707 295.938232 443.769806 294.358063 C 444.882233 293.935944 446.049103 293.95993 447.154724 293.594574 Z"/>
        <path id="path1391" fill="#fdfbf4" stroke="none" d="M 453.937561 263.323486 C 454.548615 263.713806 457.327423 269.73761 457.998932 270.89563 C 458.719177 272.137268 459.588989 273.200439 460.51535 274.288391 C 460.203949 275.057068 459.755768 275.783569 459.389923 276.53009 C 458.464874 278.456665 457.494659 280.360229 456.479248 282.240967 L 454.262756 285.786621 C 455.123474 281.450623 454.699768 275.348877 454.088196 270.932922 C 453.881042 269.437439 453.267365 267.822388 453.309326 266.320374 C 453.335907 265.365906 453.780701 264.292297 453.937561 263.323486 Z"/>
        <path id="path1392" fill="#bd9a78" stroke="none" d="M 475.571808 195.305054 C 475.621857 195.29071 475.670044 195.267029 475.721649 195.262329 C 476.656067 195.17865 478.180725 195.992432 478.849365 196.575623 C 482.472443 199.735657 483.392822 205.531982 483.708374 210.063965 C 484.026794 214.636047 483.576782 220.244995 481.029358 224.199768 C 480.342468 225.266052 479.458862 226.112183 478.633331 227.061462 L 477.353638 226.173645 C 477.617706 225.986877 477.873779 225.789734 478.121826 225.582153 C 481.178162 223.012329 482.353088 218.037354 482.697845 214.257935 C 482.704346 214.212585 482.711395 214.167786 482.716858 214.122437 C 483.20517 210.174927 482.065155 202.906128 479.526337 199.735657 C 478.589569 198.565674 477.225952 197.668213 475.706787 197.535095 C 474.559204 197.434509 473.470764 197.863953 472.59964 198.598206 C 469.804443 200.954102 469.109222 206.061462 468.868164 209.460693 C 468.490845 208.561157 468.16983 207.695007 468.083038 206.715271 C 467.825867 203.808472 469.377075 199.459961 471.274628 197.263062 C 472.531128 195.807983 473.74411 195.440002 475.571808 195.305054 Z"/>
        <path id="path1393" fill="#fdfbf4" stroke="none" d="M 477.494873 288.693115 C 478.309967 289.128265 479.591217 290.90152 480.29715 291.648071 C 477.49411 291.721283 474.685059 292.024872 471.889069 292.246094 C 464.733337 292.811554 457.466309 293.539093 450.458069 295.165619 L 448.478973 293.401245 C 452.160187 293.129974 455.900513 292.178864 459.530884 291.504242 C 465.467621 290.40094 471.495087 289.37973 477.494873 288.693115 Z"/>
        <path id="path1394" fill="#bd9a78" stroke="none" d="M 392.819763 200.143188 C 395.078705 200.303223 399.546051 202.582458 401.790436 203.507263 L 419.548279 210.973083 C 421.469543 211.780884 423.484833 212.383057 425.424866 213.158569 C 425.283905 213.818359 425.2052 214.742859 424.840637 215.3078 L 424.616028 215.32135 C 419.847961 213.333435 414.96994 211.588074 410.230286 209.534973 C 403.91803 206.80072 398.128265 203.947632 391.520508 201.853088 C 391.923126 201.242554 392.333252 200.690674 392.819763 200.143188 Z"/>
        <path id="path1395" fill="#fdfbf4" stroke="none" d="M 421.884125 272.536255 C 422.519928 272.710022 423.097107 273.178284 423.672729 273.50061 C 424.637909 274.041565 427.659302 275.667358 428.681824 275.582642 C 429.651428 275.502136 430.476166 274.240417 431.069763 273.549316 C 432.484161 275.314758 434.089081 276.83136 435.789612 278.31427 C 435.060242 279.788391 434.366058 281.240051 433.732605 282.758179 C 433.205444 284.030579 432.775757 285.354553 432.311432 286.651489 C 428.544495 283.116455 423.770721 277.312622 421.884125 272.536255 Z"/>
        <path id="path1396" fill="#fdfbf4" stroke="none" d="M 479.14563 303.201569 C 479.320587 303.459198 479.467621 303.731873 479.586792 304.019531 C 479.705963 304.30722 479.794647 304.604004 479.852844 304.909943 C 480.488647 308.096008 479.553711 311.614868 477.726532 314.258942 C 476.323059 316.289886 473.844696 318.002686 471.393982 318.424042 C 469.644714 318.724487 468.262604 318.309631 466.83905 317.31604 C 467.909515 317.388245 469.19339 317.543518 470.251831 317.381989 C 470.943695 317.276703 472.063629 316.902527 472.504822 316.340454 L 472.46286 316.208069 C 471.888794 315.864624 470.753723 315.804169 470.06189 315.65332 C 469.297089 315.354156 468.298309 314.61203 467.86496 313.907166 C 467.643188 313.546265 467.609833 312.967773 467.729431 312.569885 C 467.799805 312.336945 467.917603 312.383301 468.1297 312.355957 C 470.314392 312.073761 472.730713 312.579803 474.819519 311.608612 C 475.256775 311.405365 475.764893 311.115356 475.936615 310.655945 C 474.803619 309.726715 471.16568 311.13385 469.709076 310.03418 C 469.72052 309.951324 469.705688 309.860138 469.743713 309.785614 C 470.081696 309.124512 475.341461 307.985809 477.062592 306.323822 C 477.988922 305.42926 478.553101 304.327545 479.14563 303.201569 Z"/>
        <g id="g5">
            <path id="path1397" fill="#b38271" stroke="none" d="M 440.600128 278.138672 L 440.753357 278.17334 C 440.970428 278.941528 441.009766 279.838928 441.128845 280.631348 C 441.44339 282.727722 441.803497 284.827454 441.989288 286.939697 C 440.974579 288.85025 439.587006 290.64563 438.268494 292.356598 C 437.703278 291.930542 437.169891 291.451599 436.627899 290.996094 C 435.535797 289.977753 434.439819 288.984192 433.487671 287.82959 C 434.310822 284.737305 435.512878 281.782593 436.580719 278.770264 C 437.936523 278.593628 439.261047 278.428955 440.600128 278.138672 Z"/>
            <path id="path1398" fill="#b38271" stroke="none" d="M 439.683685 266.259399 C 441.056152 266.711548 443.839111 271.58252 444.786316 272.961243 C 444.098419 273.966797 443.208801 275.01123 442.336639 275.86145 C 440.765869 277.393127 439.351715 277.466614 437.279602 277.43512 C 435.756012 277.173462 433.023041 273.784668 432.066742 272.584717 C 433.519989 270.413574 437.117004 266.83606 439.683685 266.259399 Z"/>
        </g>
        <path id="path1399" fill="#fdfbf4" stroke="none" d="M 414.194977 368.443024 C 414.399536 368.40448 414.616333 368.42923 414.823517 368.435486 C 415.478851 368.921722 416.979523 372.815796 417.507721 373.860474 C 415.231567 374.16272 412.91684 374.319855 410.630524 374.562714 C 407.399353 374.905884 404.048859 375.37207 400.798676 375.324921 C 399.906433 375.36322 399.027527 375.424438 398.139984 375.523987 C 398.548309 373.275482 399.139557 371.080872 399.778748 368.888367 C 404.648438 369.015015 409.330505 368.906097 414.194977 368.443024 Z"/>
        <path id="path1400" fill="#fdfbf4" stroke="none" d="M 418.648254 258.769104 C 419.787231 259.266296 420.883759 259.876587 422.011536 260.403198 C 424.605347 261.614075 427.280426 262.766113 429.96048 263.773254 C 432.193115 264.612305 434.514587 265.138184 436.776947 265.881287 C 435.341949 266.998413 433.954102 268.084229 432.741119 269.450989 C 431.441345 270.771057 430.478241 272.378601 429.157379 273.698425 C 426.288147 272.842651 423.974213 271.499634 421.618591 269.685791 C 421.242065 268.437073 421.093781 267.064331 420.821991 265.782043 C 420.309967 263.365967 419.582703 261.055664 418.648254 258.769104 Z"/>
        <path id="path1401" fill="#fdfbf4" stroke="none" d="M 452.256592 352.196777 C 452.751434 354.598267 452.146362 365.876343 451.598083 368.318207 C 449.170044 369.007202 446.579376 369.536682 444.101807 370.030731 C 443.861542 369.330322 443.540253 368.647858 443.251251 367.965912 C 442.255066 365.682465 441.389709 363.336487 440.487305 361.014465 C 445.702271 358.455597 448.483154 356.672485 452.256592 352.196777 Z"/>
        <path id="path1402" fill="#b38271" stroke="none" d="M 326.920868 388.072632 C 328.43689 388.552368 329.89328 389.171509 331.43277 389.59549 C 335.858948 390.814453 342.374176 391.562561 346.932739 391.18396 C 348.603577 392.948578 350.517242 394.41983 352.411133 395.931946 C 353.249664 396.601624 354.211212 397.248138 354.937958 398.034027 C 354.630981 398.208099 354.124695 398.088501 353.766144 398.059814 C 344.521881 397.254639 334.525848 395.702637 325.809998 392.405792 C 326.206085 390.963257 326.400238 389.480042 326.920868 388.072632 Z"/>
        <path id="path1403" fill="#b38271" stroke="none" d="M 449.180969 386.510223 C 452.992188 388.640717 457.215393 390.068939 460.955475 392.291412 C 459.605408 392.683319 458.070343 392.794586 456.676514 393.001221 C 450.737946 393.881714 444.76651 394.190247 438.778687 394.517273 C 436.683899 394.47403 431.510651 394.992035 429.839569 394.246796 C 428.73056 393.752197 427.928223 391.244659 427.450073 390.16925 C 429.138367 390.444946 430.828461 390.463196 432.533966 390.441315 C 438.518402 390.363647 443.752106 388.942719 449.180969 386.510223 Z"/>
        <path id="path1404" fill="#fdfbf4" stroke="none" d="M 474.360901 199.14856 C 474.711639 199.118347 475.075409 199.105286 475.427185 199.117554 C 476.449432 199.153809 477.407074 199.751282 478.086121 200.483765 C 480.894897 203.512451 481.396515 209.548279 481.170074 213.444153 C 480.926178 217.640503 480.090759 221.499939 476.835632 224.394958 C 476.561493 224.517944 476.390015 224.602356 476.085938 224.578125 C 475.027985 224.000427 474.23349 222.977112 473.550781 222.009583 C 472.767487 220.899536 472.267944 219.696716 471.786652 218.433167 C 470.330536 214.610474 469.853943 211.090088 470.555939 207.019836 C 471.034637 204.242859 471.940643 200.851196 474.360901 199.14856 Z"/>
        <path id="path1405" fill="#fdfbf4" stroke="none" d="M 415.542969 297.52124 C 418.703003 299.135254 422.363831 300.582245 425.679718 301.879944 C 425.81546 303.786316 425.505371 305.618195 425.070984 307.468292 C 423.412659 314.532043 419.374756 320.597778 414.945709 326.231995 C 413.16153 325.326233 411.328369 324.730042 409.463135 324.032471 C 407.881775 323.423401 406.313293 322.782898 404.757629 322.110962 L 404.99057 321.867065 C 410.462219 316.060577 415.77356 305.597351 415.542969 297.52124 Z"/>
        <path id="path1406" fill="#fdfbf4" stroke="none" d="M 437.135498 300.488434 L 437.524292 300.616394 C 438.400848 302.12851 432.260071 307.512573 432.19339 308.956207 C 432.478973 309.129486 432.667114 309.130524 432.999603 309.085968 C 435.19809 308.791748 442.63266 305.904053 445.016418 304.936493 C 446.377686 304.38382 447.770721 303.651611 449.152832 303.192993 C 449.506958 303.075195 449.69223 303.103851 450.0336 303.226868 C 450.180298 303.537994 450.226685 303.699554 450.131042 304.041168 C 449.517395 306.231323 443.937622 308.430603 441.856659 309.464569 C 441.484558 309.649323 441.333679 309.74704 441.202087 310.14444 L 441.395691 310.470398 C 443.380768 311.697723 448.418793 307.778625 450.199829 307.818512 C 450.56543 307.826843 450.614685 307.873474 450.8638 308.109833 C 450.973755 308.556183 450.936493 308.87854 450.768433 309.301971 C 449.855621 311.602356 447.034332 312.905518 444.916901 313.863403 C 444.015808 314.213593 442.056519 314.744934 441.585907 315.605865 C 441.480103 315.799744 441.558563 315.879242 441.615875 316.074127 C 442.523193 316.45929 446.92099 314.767853 447.947418 314.42572 C 447.360596 315.050842 446.781067 315.661926 446.085815 316.168457 C 440.947754 319.912964 428.170044 321.604401 421.881775 320.634003 C 424.446655 316.411591 425.966064 312.34552 427.517548 307.680664 C 430.911316 306.011932 433.637756 302.120453 437.135498 300.488434 Z"/>
        <path id="path1407" fill="#fdfbf4" stroke="none" d="M 460.845245 331.594696 C 462.222137 333.013031 464.3302 354.189697 464.569946 357.286133 C 464.77243 359.902588 464.674164 362.550323 464.980103 365.142303 C 463.791077 367.239441 456.721588 371.53064 454.599182 373.329926 L 454.429291 373.475586 C 453.829437 373.925354 453.198334 374.342529 452.582825 374.77066 C 453.766876 369.829834 454.049377 364.953369 454.217163 359.898682 C 454.501465 351.332703 454.16507 342.961365 452.897614 334.47876 C 454.36673 334.49231 455.996155 334.626526 457.441833 334.414398 C 459.152008 334.163452 459.926971 332.898621 460.845245 331.594696 Z"/>
        <path id="libro" fill="#b38271" stroke="none" d="M 479.020294 296.676453 C 479.573761 296.61911 480.136871 296.606079 480.692688 296.574829 C 479.470856 298.556 478.082214 300.446472 476.747803 302.353394 C 476.078369 303.309723 475.16687 304.348663 474.743683 305.432648 C 473.129669 306.144287 467.716431 307.565735 466.859131 308.742523 C 466.554504 309.160736 466.601166 309.532593 466.686096 310.009979 C 466.72467 310.228058 466.562836 310.357819 466.444794 310.535828 C 464.512085 313.44751 465.662811 313.178589 466.187622 315.751282 C 465.880127 316.303192 465.173706 316.371735 464.83548 316.901215 C 464.708313 317.100281 464.688751 317.276459 464.729675 317.498718 C 464.912872 318.499329 466.167816 319.323273 466.951111 319.865295 C 466.074249 321.183289 464.93396 322.401489 463.958099 323.653839 L 457.308136 332.19455 C 452.726929 332.286255 448.097748 332.361053 443.526703 332.66333 C 440.031555 332.89444 435.863617 333.532867 432.459167 333.299408 C 432.256958 333.320496 432.362488 333.335602 432.149323 333.218353 C 432.349457 331.946991 438.859467 322.897125 440.183228 321.091583 C 442.403076 320.185272 444.575531 319.528107 446.579102 318.147827 C 448.694489 316.690918 450.519836 314.897888 450.98468 312.305908 C 451.534241 311.714661 452.065308 311.141388 452.469208 310.436005 C 452.951294 309.593811 453.327545 308.547607 453.011749 307.580322 C 452.683136 306.572937 452.004883 306.253479 451.124359 305.808411 C 451.186737 305.726074 451.248047 305.643036 451.308319 305.559296 C 451.872223 304.773926 452.360565 303.893158 452.154175 302.892273 C 451.94104 301.858826 451.086334 301.236816 450.247284 300.716187 C 453.06723 299.446655 456.501678 299.285339 459.53479 298.855927 C 466.002686 297.88501 472.497833 297.158508 479.020294 296.676453 Z"/>
        <path id="path1408" fill="#fdfbf4" stroke="none" d="M 424.738739 184.928284 C 430.58197 185.542236 436.830872 188.506042 441.619537 191.857849 C 442.912781 192.762878 444.595062 194.383118 445.787994 195.094482 L 445.977692 194.961609 C 445.982117 194.908203 445.992035 194.854736 445.991241 194.801331 C 445.976135 193.593323 443.367737 188.905518 442.528412 187.969788 C 445.521942 189.045166 448.721069 190.317322 451.208527 192.341492 C 451.791016 192.811035 452.330841 193.325439 452.828033 193.884644 C 453.23999 194.354431 454.005585 195.774841 454.489227 195.983826 L 454.610901 195.794434 C 454.505371 193.388245 451.745056 189.680969 450.308258 187.782166 C 450.404297 187.825256 450.499664 187.86969 450.59436 187.915588 C 458.782227 191.89093 462.954865 201.085693 465.761566 209.260559 C 463.029388 209.414307 461.066467 210.509277 458.830963 211.976563 C 458.520874 211.055664 458.108917 210.159058 457.65863 209.299133 C 455.169586 204.544373 451.120972 201.191528 445.971161 199.632996 C 441.960876 198.419189 437.799438 199.212158 434.164124 201.142273 C 430.00528 203.665161 427.628052 207.141052 425.84256 211.565369 L 402.014771 201.638123 C 404.561401 200.778748 407.601044 200.418884 410.279541 200.210449 C 411.343994 200.127319 412.436859 200.125488 413.4935 199.979797 C 413.753296 199.943848 413.920349 199.907349 414.136353 199.74762 C 413.741577 198.505188 407.184662 194.367493 405.907288 192.761536 C 405.871613 192.71698 405.837463 192.671143 405.802551 192.626038 C 409.50119 192.578613 413.975037 192.599182 417.568695 193.393982 C 419.28772 193.77417 420.975739 194.78833 422.737 194.88501 L 422.871185 194.75415 C 422.43158 193.717346 417.563477 190.21521 416.472443 189.536377 C 415.223999 188.759583 413.888031 188.09613 412.589294 187.406921 C 418.581818 187.511963 423.546875 188.656677 429.0177 191.088867 C 430.549133 191.769775 431.941132 192.778198 433.520233 193.33844 L 433.708099 193.40387 C 431.460632 190.451294 427.49176 187.539551 424.738739 184.928284 Z"/>
        <path id="path1409" fill="#bd9a78" stroke="none" d="M 440.667114 200.492615 C 440.705933 200.485352 440.744263 200.475708 440.7836 200.471252 C 444.703979 200.01239 448.861786 201.551636 451.87326 204.027405 C 455.543243 207.044617 457.691467 211.270935 458.132111 215.986084 C 458.680634 221.85199 458.150604 227.463501 454.237762 232.139038 C 451.533752 235.370483 447.887207 236.83783 443.761475 237.197693 C 439.730072 237.617493 436.025696 236.432861 432.751007 234.076172 C 429.184479 231.509521 427.100372 227.539368 426.427826 223.226257 C 425.582245 217.80542 426.876007 211.306091 430.169739 206.859314 C 430.324524 206.647217 430.484497 206.439087 430.649719 206.234985 C 430.814758 206.030701 430.984802 205.830688 431.159912 205.634888 C 431.334869 205.439087 431.514557 205.247742 431.699066 205.060852 C 431.883362 204.873901 432.072296 204.69165 432.265808 204.51416 C 432.45932 204.336426 432.657013 204.163635 432.858887 203.99585 C 433.060913 203.828064 433.266968 203.665283 433.47699 203.507507 C 433.687012 203.349976 433.900757 203.197632 434.118256 203.050476 C 434.335754 202.90332 434.556824 202.761658 434.781433 202.625488 C 435.00589 202.489441 435.233612 202.358887 435.464661 202.233826 C 435.695709 202.108887 435.929626 201.989807 436.166412 201.876587 C 436.403351 201.763123 436.642914 201.655579 436.885101 201.553955 C 437.127258 201.452515 437.371765 201.357056 437.618622 201.267578 C 437.865479 201.178162 438.11441 201.094727 438.365417 201.017456 C 438.616455 200.940308 438.869202 200.869446 439.123718 200.80481 C 439.378204 200.73999 439.634186 200.681641 439.891632 200.6297 C 440.148926 200.577576 440.40741 200.531921 440.667114 200.492615 Z"/>
        <path id="path1410" fill="#5c3b40" stroke="none" d="M 441.192963 202.457153 C 444.280029 202.225464 447.531006 203.215698 450.05365 204.983948 C 453.664734 207.515198 455.852295 211.72229 456.585052 216.007446 C 457.328491 220.355713 456.429993 225.551636 453.8414 229.180969 C 451.506134 232.455383 448.063629 234.559814 444.105438 235.206604 C 443.937103 235.228516 443.768616 235.248352 443.599915 235.266235 C 440.280426 235.641724 436.456421 234.440247 433.879059 232.337097 C 430.629395 229.685181 428.713867 225.433594 428.307892 221.311279 C 427.843536 216.592468 429.235016 210.890198 432.297333 207.202759 C 434.598755 204.431824 437.611328 202.801331 441.192963 202.457153 Z"/>
        <path id="path1411" fill="#fdfbf4" stroke="none" d="M 442.267578 204.285339 C 445.208984 204.275696 447.696472 205.205688 449.92804 207.124634 C 453.405731 210.11499 454.987976 214.0224 455.29361 218.560852 C 455.310638 218.801819 455.321777 219.04303 455.326965 219.284485 C 455.332184 219.52594 455.331482 219.767395 455.32489 220.008911 C 455.318298 220.250366 455.305878 220.491577 455.287628 220.732544 C 455.269226 220.973267 455.245087 221.213562 455.215179 221.453308 C 455.18512 221.693054 455.149261 221.931763 455.107574 222.169617 C 455.065887 222.407593 455.018372 222.644348 454.965027 222.879944 C 454.911865 223.115662 454.852997 223.349854 454.788361 223.582458 C 454.723755 223.815247 454.653473 224.046265 454.577545 224.275574 C 454.501648 224.504883 454.420166 224.732239 454.33313 224.95752 C 454.246094 225.183044 454.153656 225.406189 454.055878 225.626953 C 453.957886 225.847717 453.854706 226.06604 453.746307 226.281799 C 453.637726 226.497559 453.523956 226.710632 453.404938 226.921021 C 453.286133 227.131226 453.16217 227.33844 453.033112 227.542725 C 452.904205 227.746826 452.770264 227.947754 452.631287 228.145447 C 452.492493 228.34314 452.348999 228.537354 452.200836 228.728088 C 452.05246 228.91864 451.899597 229.105591 451.742218 229.288879 C 449.351654 232.02179 446.202057 233.444824 442.619629 233.662659 C 439.688904 233.810913 436.392853 232.499695 434.23056 230.558411 C 431.287872 227.916138 429.763214 223.947815 429.567535 220.054504 C 429.34967 215.724976 430.599945 211.162292 433.591095 207.925598 C 435.847717 205.484009 439.015045 204.42218 442.267578 204.285339 Z"/>
        <path id="path1412" fill="#5c3b40" stroke="none" d="M 435.726288 213.624207 C 436.171356 213.584595 436.652374 213.550964 437.090698 213.651306 C 438.208801 213.906921 439.112244 214.789001 439.677429 215.748413 C 440.733551 217.540955 441.094452 219.933594 440.570709 221.950195 C 440.100098 223.762756 439.1297 224.781921 437.574829 225.70697 C 436.947113 225.946411 436.496552 225.936523 435.857361 225.734863 C 434.743134 225.383301 434.037994 224.432739 433.55957 223.411499 C 433.496338 223.275818 433.436676 223.138672 433.380554 223.000061 C 433.32428 222.86145 433.271545 222.721497 433.222382 222.580261 C 433.173218 222.438904 433.127625 222.296326 433.085602 222.152649 C 433.043732 222.009155 433.005432 221.864624 432.970673 221.719055 C 432.935913 221.573486 432.904938 221.427124 432.877655 221.279968 C 432.850372 221.132874 432.826843 220.985168 432.807037 220.837036 C 432.787048 220.68866 432.770905 220.539978 432.758575 220.39093 C 432.746216 220.241699 432.737732 220.092407 432.733032 219.942993 C 432.728149 219.793396 432.727112 219.643799 432.729889 219.494263 C 432.732513 219.344666 432.739014 219.19519 432.749451 219.045776 C 432.759705 218.896606 432.773682 218.747681 432.791412 218.599182 C 432.809296 218.450623 432.830841 218.302612 432.856018 218.155151 C 432.881226 218.007629 432.910156 217.86084 432.94278 217.714783 C 432.975433 217.568848 433.011841 217.423767 433.051971 217.279602 C 433.091919 217.135437 433.135529 216.992371 433.1828 216.850403 C 433.229858 216.708496 433.280579 216.567749 433.334961 216.428284 C 433.817017 215.153809 434.464294 214.190979 435.726288 213.624207 Z"/>
        <path id="path1413" fill="#fdfbf4" stroke="none" d="M 366.037018 219.036438 C 367.143951 220.074036 368.766052 222.570862 369.862823 223.906128 C 371.442444 225.829163 373.318604 227.546631 375.131195 229.251099 C 378.778778 232.681335 382.954529 235.554993 387.089386 238.35437 C 390.558197 240.703247 394.042908 243.064331 397.613098 245.256836 C 400.500549 247.030334 403.466736 248.656616 406.41568 250.322205 C 408.819763 251.680054 413.612061 254.230103 415.368622 256.330627 C 419.871399 261.715698 421.632904 280.661865 421.712402 287.766785 C 421.741577 290.377228 421.491425 292.983276 421.216003 295.575256 C 420.570038 293.493469 419.908661 291.384888 419.072998 289.370636 C 418.782471 288.565186 418.415833 287.749573 418.014008 286.993652 C 417.617401 286.253235 417.18338 285.535522 416.711884 284.840454 C 416.240417 284.145386 415.734039 283.476807 415.192749 282.834534 C 413.355133 280.687378 409.00766 276.749512 406.27002 275.926636 C 408.266327 273.606934 410.320984 271.634338 411.709839 268.871704 C 412.350342 269.19873 413.231354 269.82074 413.930756 269.883057 L 414.04306 269.705566 C 413.834595 269.083557 413.295715 268.594727 412.847534 268.129578 C 408.746552 263.871765 400.430206 261.341248 394.936707 259.142273 C 394.140106 258.823547 393.371124 258.381348 392.578461 258.037415 C 390.854736 257.289551 389.109924 256.588867 387.414063 255.778198 C 383.426971 253.871826 378.386078 251.05603 375.17392 247.983521 C 373.582062 246.460449 372.044922 244.656738 370.93277 242.748779 C 369.973053 241.101929 369.330719 239.260681 368.736603 237.455627 C 368.234467 235.929932 367.685944 234.379272 367.331299 232.811646 C 366.328857 228.379211 366.130035 223.573364 366.037018 219.036438 Z"/>
        <g id="g6">
            <path id="path1414" fill="#968971" stroke="none" d="M 452.251129 282.098389 C 452.59848 283.658752 452.192993 286.319763 452.171112 288.016144 C 449.992157 289.882385 446.984039 291.693146 444.179443 292.395416 C 444.177612 292.387329 444.178925 292.37793 444.174225 292.371155 C 444.1586 292.347992 444.138 292.328705 444.120026 292.307587 C 444.75296 291.170166 445.827332 290.191437 446.713318 289.246307 C 448.773682 287.048584 450.886475 284.811768 452.251129 282.098389 Z"/>
            <path id="path1415" fill="#968971" stroke="none" d="M 423.681061 294.70047 C 424.470886 295.079895 425.305786 295.953339 426.040619 296.491943 C 428.378754 298.206055 430.754211 299.990753 433.352692 301.290771 C 432.459961 301.882019 431.604462 302.511566 430.749756 303.15625 C 429.724121 303.917664 428.72821 304.69104 427.7547 305.519958 C 427.878204 304.107788 427.990173 302.694672 428.090576 301.280609 C 427.022186 299.921173 425.301331 299.439362 423.770966 298.766785 C 423.711029 297.418304 423.907257 296.034637 423.681061 294.70047 Z"/>
            <path id="path1416" fill="#968971" stroke="none" d="M 328.315979 383.443207 C 329.783051 383.81897 331.177673 384.484222 332.64212 384.895935 C 337.473999 386.253815 344.233917 387.433441 349.263611 387.076996 C 349.013702 387.845154 348.892548 389.114716 348.418823 389.740112 C 346.453796 389.777374 344.491882 389.876373 342.526886 389.791687 C 337.443787 389.572266 332.137634 388.485138 327.341156 386.809906 C 327.607483 385.666473 327.887085 384.538177 328.315979 383.443207 Z"/>
            <path id="path1417" fill="#968971" stroke="none" d="M 446.306793 381.202515 C 446.742493 381.713257 447.589111 383.937531 447.97998 384.684875 C 442.187592 388.451263 433.969482 389.483154 427.167084 389.436249 C 426.431732 388.250122 425.934296 386.891724 425.309692 385.639893 C 431.209442 387.264618 441.026459 384.159027 446.306793 381.202515 Z"/>
            <path id="path1418" fill="#968971" stroke="none" d="M 332.04303 373.436768 C 335.220367 374.782196 338.441528 376.012909 341.706573 377.128876 C 344.971619 378.244843 348.272278 379.243317 351.608551 380.124237 C 351.304443 381.043304 350.091461 385.405365 349.43219 385.756104 C 349.191681 385.682373 349.053314 385.64798 348.79718 385.680298 C 348.732544 385.688354 348.668701 385.702454 348.604614 385.713379 C 341.803772 385.806671 335.17337 384.262482 328.639374 382.535889 C 329.731445 379.486603 331.022888 376.513153 332.04303 373.436768 Z"/>
            <path id="path1419" fill="#968971" stroke="none" d="M 451.830292 269.988281 C 452.1586 273.441467 452.437683 276.802673 452.268829 280.273315 C 450.792908 282.601501 449.149353 284.804565 447.338165 286.882629 C 445.960236 288.467712 444.435577 289.965515 443.175446 291.64624 C 441.658875 293.668579 440.577484 296.085968 439.292542 298.269867 L 437.678528 297.79953 C 436.641174 298.279266 435.64212 298.805359 434.639954 299.353638 C 431.61853 298.042908 427.261414 295.121582 424.840637 292.860016 C 424.485718 292.52829 424.132385 292.177551 423.967712 291.70932 C 423.5354 290.480957 423.926025 287.160889 423.885376 285.671997 C 426.412445 289.627014 430.888123 294.243164 435.111847 296.390839 C 434.231873 295.226593 433.177826 294.220764 432.148285 293.191742 C 429.094055 290.210724 426.419495 287.000122 423.720917 283.706421 C 423.464508 281.986328 423.311035 280.246216 423.125 278.516785 C 423.877533 279.889221 424.633209 281.230957 425.582764 282.479126 C 427.418793 284.89209 434.729584 292.813904 437.234772 293.911713 C 436.697998 294.634552 435.582977 295.805847 435.689026 296.711365 C 435.891754 296.69574 436.039001 296.656891 436.218018 296.557098 C 440.60379 294.108429 446.848297 283.512268 448.809143 278.928711 C 450.044006 276.042053 450.882294 272.978149 451.830292 269.988281 Z"/>
            <path id="path1420" fill="#968971" stroke="none" d="M 438.438904 362.256927 L 438.663269 362.276703 C 438.720337 362.336395 444.904114 377.928101 445.779388 379.922302 C 444.920532 380.443176 444.013733 380.876526 443.100647 381.293457 C 441.164551 382.177582 439.112488 382.955414 437.061768 383.523743 C 434.31189 384.286194 427.584534 385.468445 424.975891 384.492584 C 423.504913 381.860992 422.232758 379.129883 420.884033 376.434967 C 419.519897 373.708801 418.063782 371.000366 416.876862 368.192108 C 424.308289 366.955933 431.363434 364.815796 438.438904 362.256927 Z"/>
            <path id="path1421" fill="#968971" stroke="none" d="M 420.935883 322.31134 C 423.090332 323.046173 425.87149 322.720703 428.107758 322.666504 C 427.217377 324.076996 426.300903 325.472137 425.551483 326.964478 C 426.131561 328.412262 427.008911 329.781586 427.695007 331.185333 C 428.40744 332.642487 428.93042 334.18222 429.73587 335.594055 C 431.702454 335.77774 433.739136 335.552887 435.709869 335.479645 C 440.844116 335.25885 445.973541 334.956421 451.098053 334.572327 C 451.642395 338.993805 451.947021 344.515198 452.040314 349.002625 C 448.151947 354.541443 443.643188 357.142029 437.542786 359.690765 C 434.938568 360.778931 432.377869 361.746185 429.655334 362.496918 C 420.594269 365.371338 409.848022 367.131805 400.335083 366.734711 C 400.604279 365.372131 401.102234 364.021545 401.49231 362.68634 L 403.649384 355.351593 L 407.881683 341.256409 C 409.255737 336.723907 410.674042 332.254486 411.786469 327.649017 C 412.896271 327.891083 414.354706 328.489655 415.487976 328.334869 C 416.939636 328.136566 420.018127 323.587128 420.935883 322.31134 Z"/>
        </g>
        <path id="path1422" fill="#fdfbf4" stroke="none" d="M 388.850098 203.884827 C 390.8013 203.73761 392.663422 204.13916 394.521851 204.709595 C 398.228058 205.847534 401.822998 207.658813 405.381958 209.202209 C 408.921387 210.737244 412.546844 212.081299 416.140198 213.484253 C 418.992737 214.598267 421.827057 215.817505 424.758301 216.711548 C 424.64328 217.630127 424.578766 218.552246 424.564697 219.477844 C 424.550446 220.403381 424.58667 221.327087 424.67334 222.24884 C 425.163757 227.067993 427.457886 231.88916 431.272217 234.939758 C 434.960449 237.889771 439.899719 238.908081 444.520538 238.361145 C 452.01944 237.473633 457.732635 232.31781 459.093628 224.804321 C 459.397217 223.129333 459.200195 220.256165 459.628876 218.917603 C 459.761749 218.502747 460.060638 218.122559 460.332672 217.789551 C 461.854462 215.926697 464.09491 214.839294 466.452637 214.601929 C 467.679932 216.279236 468.309509 218.551208 469.361725 220.381287 C 473.76001 228.03186 481.255554 232.305603 489.575012 234.52832 C 489.232361 235.715759 489.280029 236.856812 489.528107 238.0578 C 490.028931 240.483276 491.239349 242.871216 493.345062 244.257019 C 489.548706 248.913757 479.853088 253.864502 474.193359 255.95459 C 465.415497 259.233459 456.893585 260.389648 447.867401 262.438843 C 444.955444 263.099915 442.092743 263.953064 439.23288 264.806458 C 432.25824 262.97406 424.844818 260.394043 418.492188 256.94635 C 417.000641 256.136719 415.752197 254.837219 414.443573 253.767334 C 413.038269 252.618164 411.533966 251.555237 410.027313 250.543457 C 405.678772 247.622375 401.066284 245.077026 396.699005 242.171326 C 393.694763 240.172668 390.676758 238.118286 387.752045 236.005249 C 385.29245 234.228394 382.894867 232.377747 380.393829 230.656921 C 383.456665 229.481934 387.328857 228.947754 390.604858 228.839111 C 386.565094 226.255981 382.303619 223.17749 378.57135 220.156616 C 382.862823 220.015686 387.563904 219.615967 391.608856 218.138977 C 392.796295 218.796448 394.602386 219.93335 395.959473 220.030762 C 396.321411 220.056824 396.675018 220.076355 396.950684 219.833801 C 396.707336 219.149231 393.48996 217.572754 392.730896 217.051819 C 390.322906 215.400024 384.184448 209.526611 383.747986 206.632629 C 383.687012 206.226929 383.770142 205.858215 384.034882 205.537964 C 384.978973 204.395813 387.469299 204.068787 388.850098 203.884827 Z"/>
        <path id="path1423" fill="#5c3b40" stroke="none" d="M 428.318573 236.272095 L 428.78476 236.307251 L 428.857452 236.554565 C 428.306854 237.618774 424.442749 239.513916 423.208618 240.022583 L 422.789368 240.027283 L 422.74115 239.822754 C 423.383728 238.531067 426.997192 236.821655 428.318573 236.272095 Z"/>
        <path id="path1424" fill="#5c3b40" stroke="none" d="M 426.671448 233.830505 C 426.761627 233.853638 426.823639 233.937561 426.897125 233.994385 L 426.864014 234.254211 C 426.191986 235.170349 420.511902 238.146729 419.17099 238.757751 C 419.094635 238.706421 419.051361 238.61731 418.994324 238.544861 C 420.633087 236.57074 424.128235 234.310181 426.671448 233.830505 Z"/>
        <path id="path1425" fill="#5c3b40" stroke="none" d="M 422.458435 232.504639 C 422.708313 232.489563 422.85556 232.504944 423.090332 232.593018 L 423.158875 232.801208 C 422.543121 233.885193 417.173126 236.538391 415.764191 237.172119 C 415.441071 237.196899 415.268311 237.199219 414.971771 237.062195 L 414.981415 236.864624 C 416.053436 235.407471 420.613281 232.976318 422.458435 232.504639 Z"/>
        <path id="path1426" fill="#5c3b40" stroke="none" d="M 473.851227 248.119019 C 474.043762 248.164124 474.081573 248.23761 474.222534 248.370239 C 474.210022 248.449402 474.212616 248.532532 474.184753 248.607849 C 473.943207 249.261353 472.760437 249.997253 472.127228 250.26123 C 469.392456 251.401001 466.623047 251.366089 463.920837 250.199219 C 463.564117 249.983704 463.181061 249.688721 463.072906 249.284851 C 463.653503 249.095154 465.236237 249.604065 465.922089 249.666077 C 468.714447 249.918335 471.321533 249.266602 473.851227 248.119019 Z"/>
        <path id="path1427" fill="#5c3b40" stroke="none" d="M 393.171295 207.525635 C 393.608521 207.468323 394.156006 207.501648 394.593781 207.562927 C 397.296753 207.940735 400.373138 209.828613 402.034851 211.978638 C 402.639893 212.761414 403.509186 213.969177 403.385162 214.989624 L 403.197784 215.121216 C 402.118744 214.773071 401.279175 212.960754 400.384338 212.175903 C 399.331604 211.25293 398.167877 210.562683 396.908997 209.960999 C 395.835693 209.485718 393.483459 208.598206 392.337158 209.046875 C 392.052094 209.158691 391.884033 209.352295 391.827484 209.654053 C 391.5961 210.887634 394.583344 214.501038 395.444824 215.555603 C 395.111786 215.388855 394.787537 215.206604 394.472076 215.008911 C 392.873444 213.996826 390.657745 212.006775 390.281738 210.074341 C 390.181396 209.559204 390.21814 209.023987 390.535278 208.587769 C 391.170563 207.713013 392.192291 207.668457 393.171295 207.525635 Z"/>
        <path id="path1428" fill="#fdfbf4" stroke="none" d="M 371.993042 247.821411 C 373.525238 249.206909 374.990753 250.805054 376.625885 252.057373 C 382.547516 256.592224 391.658875 260.295593 398.639252 262.950623 C 402.615936 264.463013 407.124725 265.893555 410.660217 268.259338 C 409.192383 270.100342 404.848572 273.958191 404.114502 275.630066 C 403.900574 276.117126 404.184631 276.512634 404.503296 276.865967 C 405.385101 277.843689 406.677826 278.450317 407.764191 279.169739 C 409.056122 280.025757 410.330353 280.951599 411.513367 281.952454 C 416.32312 286.021667 419.176727 292.46759 421.207672 298.313934 C 418.641479 297.320068 414.522003 295.471527 412.199219 294.042023 C 405.090912 289.667938 398.918335 282.233398 394.546631 275.214417 C 393.689117 273.844666 392.897339 272.437988 392.171173 270.994385 C 391.566376 269.791016 391.021759 268.35498 390.215027 267.289246 L 390.058411 267.298584 C 390.018799 267.490662 390.018555 267.631348 390.060516 267.824219 C 390.603027 270.305176 392.163361 273.511047 393.368805 275.75647 C 397.172974 282.841797 402.444458 289.445404 408.941193 294.264008 C 410.401215 295.346985 411.974854 296.20401 413.502106 297.179901 C 413.639954 303.210693 409.910553 311.519775 406.468323 316.519196 C 405.363739 318.123596 404.006897 319.504913 402.856171 321.06369 L 402.777222 321.172089 C 402.218384 320.998718 401.667786 320.802399 401.125427 320.583191 C 394.648224 317.907043 388.447784 314.257385 383.412903 309.356964 C 381.66806 307.658508 379.906555 305.937378 378.485352 303.951538 C 377.130859 302.058685 376.200592 299.993591 375.288849 297.865723 C 371.958923 290.094757 371.52298 283.662109 371.789551 275.398438 C 371.842712 273.750793 372.768524 267.716309 372.404755 266.838135 L 372.201782 266.899109 C 371.71579 267.608948 371.470337 268.422241 371.250397 269.245911 C 369.385712 276.23645 368.884613 285.894226 370.562744 292.986389 C 371.503174 296.961243 373.162537 300.869659 375.189819 304.401276 C 381.5672 314.279022 390.496979 319.53125 401.198639 323.751801 C 403.641296 324.715179 407.889008 325.9021 409.919159 327.137756 L 409.795135 327.361847 L 409.911072 327.362122 C 409.063171 330.966705 407.624237 334.514221 406.498291 338.042694 C 403.097473 348.699554 399.531982 359.333252 396.896759 370.212097 C 395.865906 374.467102 394.790771 378.750488 394.423615 383.125854 C 372.371674 383.416107 345.271301 376.89801 325.711243 366.59137 C 323.118256 365.225159 319.896973 363.805786 317.6362 361.968445 C 318.181854 356.350922 319.801605 350.558014 321.3815 345.148926 C 325.749298 330.195648 332.073517 316.169525 339.127106 302.318726 C 341.74411 297.179901 344.318359 292.062378 347.18576 287.055115 C 350.97699 280.532349 354.88681 274.081421 358.915161 267.702515 C 361.093079 264.194092 363.34787 260.748169 365.575012 257.271545 C 367.627075 254.067993 369.624146 250.804016 371.993042 247.821411 Z"/>
        <path id="path1429" fill="#5c3b40" stroke="none" d="M 399.512695 336.875305 C 400.217834 336.756226 400.983398 336.887817 401.633545 337.179657 C 402.219055 337.442841 402.616974 337.91214 402.826996 338.514343 C 403.280151 339.813324 402.860352 341.313721 402.293854 342.515015 C 401.412323 344.384369 399.933014 345.873352 397.984436 346.590698 C 397.254547 346.761383 396.550201 346.767639 395.876617 346.396057 C 395.238953 346.04425 394.86322 345.438171 394.669342 344.749969 C 394.213348 343.130737 394.5354 341.402588 395.371094 339.964996 C 396.323761 338.326202 397.704559 337.357391 399.512695 336.875305 Z"/>
        <path id="path1430" fill="#bd9a78" stroke="none" d="M 396.725037 345.498352 C 396.505371 345.250031 396.271881 345.002472 396.085846 344.72757 C 395.605591 344.016968 395.550079 342.951996 395.741089 342.140289 C 396.060059 340.785553 397.042694 339.622864 398.212433 338.904175 C 398.862305 338.504974 399.915039 338.040375 400.694183 338.306396 C 401.082947 338.439026 401.356293 338.659241 401.522278 339.041504 C 401.914459 339.943878 401.485016 340.830353 401.172058 341.684784 C 401.160858 341.62851 401.150696 341.572235 401.138184 341.516205 C 401.015717 340.958313 400.897675 340.545807 400.353333 340.260223 C 399.909576 340.027283 399.441833 340.049408 398.986328 340.223206 C 398.146759 340.543457 397.418701 341.195435 397.056488 342.022522 C 396.781067 342.65155 396.700562 343.370483 396.983551 344.011749 C 397.205811 344.515717 397.472656 344.789337 397.973724 344.982422 C 398.009155 344.930542 398.049042 344.881561 398.079773 344.826599 C 398.727051 343.670135 397.186523 342.005585 399.297211 341.35257 C 399.639099 341.24704 400.119598 341.227478 400.42865 341.431274 C 400.685822 341.600616 400.833832 341.846893 400.841919 342.156952 C 400.864594 343.049957 399.736816 343.9422 399.098663 344.440155 C 398.789856 344.681183 398.459991 344.883667 398.12149 345.080383 C 397.672516 345.258636 397.19043 345.369629 396.725037 345.498352 Z"/>
        <path id="path1431" fill="#5c3b40" stroke="none" d="M 390.730194 363.330231 C 391.46344 363.30835 392.281677 363.432648 392.932343 363.789368 C 393.563721 364.135406 393.986115 364.701904 394.18103 365.391144 C 394.626862 366.969208 394.025177 369.101257 393.227051 370.501862 C 392.384613 371.979858 391.144257 373.014374 389.500519 373.453705 C 388.782623 373.529785 388.261475 373.568878 387.59021 373.277802 C 386.840546 372.95285 386.325378 372.424164 386.054108 371.648407 C 385.562927 370.243896 385.815155 368.567596 386.433777 367.244904 C 387.328613 365.331726 388.741699 364.032227 390.730194 363.330231 Z"/>
        <path id="path1432" fill="#bd9a78" stroke="none" d="M 390.808075 364.493469 L 390.948547 364.497375 C 391.573669 364.520294 392.124786 364.588318 392.553192 365.092255 C 392.977142 365.591278 393.056641 366.247131 393.01651 366.879059 C 392.891418 368.849548 392.010681 370.265533 390.541534 371.519684 C 390.292664 370.675934 389.961731 369.690155 390.054749 368.799774 C 390.102173 368.346893 390.285889 368.137146 390.629089 367.860657 C 390.784912 367.735046 390.944641 367.616241 391.088745 367.477081 C 391.459015 367.119324 391.700836 366.684418 391.706818 366.162476 C 391.566895 365.998566 391.62085 365.993347 391.435577 365.975891 C 390.860199 365.921692 390.486816 366.200775 390.063629 366.54837 C 387.736145 369.579681 389.830658 370.553986 389.319916 371.972839 C 388.99942 372.180511 388.704712 372.177368 388.33728 372.1185 C 387.872162 372.043976 387.523499 371.813873 387.27832 371.40451 C 386.833252 370.661621 387.006531 369.263855 387.23114 368.477173 C 387.791901 366.513977 389.124481 365.468292 390.808075 364.493469 Z"/>
        <path id="path1433" fill="#5c3b40" stroke="none" d="M 350.912018 316.205719 C 351.177826 316.335236 351.255219 316.411591 351.394348 316.672424 C 351.436829 318.065491 350.296539 319.922882 349.789185 321.227844 C 352.067169 321.64975 354.220581 322.440063 356.430023 323.112366 C 359.282043 323.979828 362.200531 324.764679 365.084351 325.522949 C 369.254883 326.619751 373.541931 327.178406 377.713776 328.279358 C 378.362366 327.134644 379.238678 324.407684 380.278137 323.740356 C 380.451416 323.629089 380.418579 323.673645 380.643738 323.732788 C 380.666382 323.774994 380.694794 323.81488 380.711731 323.85968 C 381.141937 324.985138 378.55545 331.272888 378.014221 332.801178 C 375.572083 339.695557 373.590149 346.458069 372.125183 353.6362 C 371.950836 354.333008 371.792145 355.426636 371.286102 355.948578 C 370.947876 356.297485 370.506989 356.339722 370.041321 356.347534 C 368.799927 356.368103 367.532227 356.16095 366.291077 356.089294 C 358.979004 355.667419 352.705597 354.817932 345.711914 352.458923 C 344.095306 351.913788 342.475555 351.393951 340.957153 350.607513 C 340.371918 350.304443 339.489319 350.043884 339.032257 349.603241 C 338.968414 349.382782 338.924652 349.188416 338.931702 348.957001 C 338.980408 347.348206 339.637329 345.472321 340.038605 343.916138 C 342.102386 335.911957 344.682129 327.537231 348.438629 320.153748 C 349.135925 318.783112 349.817596 317.305634 350.912018 316.205719 Z"/>
        <path id="path1434" fill="#fdfbf4" stroke="none" d="M 349.452271 321.989532 C 354.012115 324.299805 358.528198 325.576904 363.459106 326.811798 C 365.596893 327.34726 367.742767 327.93045 369.911041 328.325989 C 372.301056 328.762207 374.736145 328.982147 377.114471 329.451172 L 377.124634 329.6203 L 376.946899 329.650787 L 377.032379 329.771667 C 376.995636 330.447876 375.995789 332.25943 375.685974 333.005981 C 373.966919 332.970551 372.113953 332.497589 370.415253 332.203156 C 362.6185 330.85257 355.258209 328.841431 347.846069 326.076447 C 348.344299 324.699524 348.8797 323.337219 349.452271 321.989532 Z"/>
        <path id="path1435" fill="#fdfbf4" stroke="none" d="M 347.263397 327.528107 C 354.069977 330.65271 361.077698 332.562744 368.427826 333.921387 C 370.609131 334.324524 372.809174 334.597839 374.991791 334.998871 C 373.285248 339.422729 371.954742 344.09021 370.754791 348.674042 C 370.51767 349.580322 369.771118 353.688324 369.393005 354.12323 L 368.878113 354.157623 C 366.231659 353.914246 363.581604 353.813385 360.936218 353.507233 C 355.008301 352.820862 346.652893 351.04425 341.159119 348.841309 C 341.628143 345.641144 342.548767 342.516296 343.435242 339.411255 C 344.57608 335.415283 345.766907 331.408112 347.263397 327.528107 Z"/>
        <path id="path1436" fill="#c7baa2" stroke="none" d="M 385.763062 155.761597 C 387.545654 155.639038 389.803558 156.490234 391.515808 156.997864 C 394.574738 157.904785 397.659729 158.880981 400.555023 160.235718 C 406.233795 162.893188 411.206665 166.812134 416.309845 170.403931 C 415.239655 167.862854 414.07016 165.263855 412.785004 162.824219 C 411.801849 160.958008 410.69986 159.154785 409.708618 157.291016 C 410.858459 157.844788 411.993286 158.427795 413.113068 159.039978 C 414.232849 159.6521 415.336121 160.292725 416.422943 160.96167 C 417.509705 161.630676 418.578613 162.327148 419.629608 163.051147 C 420.680603 163.775085 421.712311 164.525635 422.724731 165.302734 C 422.220276 165.244568 421.436462 165.05719 420.994232 165.358154 C 420.966888 165.516724 420.956451 165.530762 420.97052 165.717712 C 421.129761 167.827515 426.779083 177.651123 428.233368 178.984253 C 428.466064 179.197693 428.623718 179.362854 428.950745 179.339661 C 429.316864 177.81842 424.7966 169.297546 423.905182 167.44043 C 426.761108 168.104065 429.822876 171.06604 431.58493 173.286743 C 432.205627 174.06897 432.668152 174.97998 433.307343 175.746338 C 433.512939 175.993103 433.659393 176.21405 433.992645 176.235962 C 434.001526 176.189026 434.014801 176.142944 434.018738 176.095459 C 434.177917 174.182861 431.918457 171.757629 430.800323 170.371887 C 431.504913 167.41333 430.917053 164.671021 430.226257 161.768494 C 431.39801 162.670166 432.55011 163.596313 433.682587 164.546875 C 437.796844 168.06189 441.583588 172.768433 442.875 178.130066 C 443.328918 180.015076 443.489685 182.100525 443.643433 184.033752 C 445.782501 178.91156 446.064484 173.661194 445.203522 168.235168 C 450.241791 174.004639 451.875092 179.78009 453.51413 187.05542 C 452.03299 186.22937 450.445038 185.208191 448.852142 184.635925 C 448.37265 184.46344 447.931244 184.365479 447.453094 184.584351 C 447.270691 184.821472 447.206573 184.900452 447.183136 185.21106 C 447.095306 186.368225 448.503998 187.560913 449.225525 188.373901 C 447.646423 187.706848 443.323975 185.667053 441.746429 186.187683 C 441.432434 186.291382 441.185944 186.476685 441.071289 186.7995 C 440.790894 187.590393 441.533264 188.476868 441.933533 189.096252 C 438.268494 186.959534 434.203217 185.06665 430.084259 184.01239 C 428.663574 183.648621 422.969696 182.501526 421.850494 183.432068 C 421.56073 183.673096 421.598785 183.767944 421.597473 184.117126 C 422.204895 185.378357 424.659271 187.010559 425.753693 188.034424 C 421.649597 186.421936 416.78772 185.49585 412.392548 185.933594 C 411.648346 186.007874 410.290222 186.104553 409.83316 186.765137 C 409.735443 186.906372 409.727112 187.065308 409.773499 187.23053 C 410.070282 188.288208 415.555725 190.802246 416.862244 191.65802 C 416.833588 191.651733 416.804932 191.645996 416.776276 191.639465 C 416.716583 191.625671 416.65744 191.61084 416.597778 191.59729 C 414.851624 191.204102 404.922028 190.257385 403.642853 191.325989 C 403.398712 191.529785 403.264252 191.723389 403.273621 192.054565 C 403.326538 193.923218 408.721008 197.160095 410.199554 198.345459 L 410.32254 198.445557 C 406.525909 198.759033 402.936188 199.170471 399.366272 200.567139 C 396.912384 199.67804 394.78479 198.868469 392.162079 198.588318 C 390.917267 199.585022 390.401855 200.534058 389.876526 202.01886 C 387.68219 201.914368 384.584961 202.255188 382.851593 203.752197 C 382.181915 204.330444 381.742859 205.151001 381.725647 206.044495 C 381.683167 208.238831 384.820007 212.310608 386.274567 213.923096 C 387.304108 215.063904 388.471497 216.112183 389.566437 217.193848 C 386.906708 217.714478 384.050018 218.103027 381.348602 218.32843 C 380.009735 218.439941 378.623199 218.384705 377.297913 218.586365 C 376.907562 218.646057 376.238129 218.762024 375.942383 219.057007 C 375.734436 219.264709 375.639587 219.440063 375.704193 219.737366 C 376.067963 221.410828 383.900696 226.481934 385.696594 227.763184 C 383.263306 228.012817 381.047363 228.55896 378.717285 229.27478 C 375.482727 226.684875 372.094147 223.592346 369.497498 220.354431 C 368.319153 218.88501 367.29483 217.245178 366.32547 215.63147 C 366.06543 215.198364 365.908569 214.704285 365.628693 214.286621 C 365.519501 214.123474 365.382172 214.052612 365.210724 213.970276 C 364.871979 213.972839 364.792755 213.953857 364.512115 214.133118 C 364.226257 214.604736 364.133759 215.043823 364.062103 215.588989 C 363.9021 216.80481 363.909149 218.06134 363.875519 219.285522 C 363.650635 227.477844 365.324066 238.821838 370.381897 245.475464 C 369.150146 247.460022 367.56662 249.198059 366.232452 251.108093 C 362.470398 256.39801 358.819794 261.763733 355.280609 267.205322 C 353.09906 270.513123 350.979004 273.859924 348.920441 277.245667 C 346.86203 280.631592 344.866608 284.054199 342.934174 287.513489 C 341.001709 290.972748 339.133453 294.466309 337.329376 297.994202 C 335.525513 301.522247 333.787109 305.082245 332.114197 308.674225 C 329.644928 313.863922 327.152496 319.052551 324.970428 324.371979 C 322.981873 329.326263 321.210999 334.357178 319.657776 339.464661 C 318.743652 342.44751 317.669281 345.498627 317.032715 348.550232 C 315.440033 346.062439 313.897766 343.543762 312.405884 340.994263 C 311.78595 339.934753 311.258026 338.610504 310.507568 337.655487 L 310.386139 337.737549 L 310.0849 337.085602 L 310.11853 336.943054 L 309.969482 336.805725 L 309.805573 336.860199 C 308.545166 338.92868 308.186584 344.797394 308.185547 347.360443 L 307.334778 345.019928 C 306.013367 341.394012 304.76651 337.670593 303.616821 333.987061 C 303.149628 332.490295 301.512665 325.010651 300.854187 324.400635 C 300.645477 324.366516 300.57016 324.299042 300.384613 324.436615 C 299.021545 325.445831 297.707184 335.289703 297.515137 337.374847 C 296.320313 333.837585 295.262085 330.259918 294.340515 326.641876 C 293.418945 323.023834 292.636688 319.375916 291.993744 315.69812 C 291.695129 313.978302 291.312073 312.265778 291.012421 310.556641 C 290.90036 309.918243 290.924591 309.253265 290.758606 308.624481 C 290.689819 308.364136 290.587158 308.194 290.403687 307.993073 C 290.09256 307.900848 290.068085 307.887024 289.763458 307.98996 C 288.564819 309.750702 286.897369 315.220215 286.052307 317.45755 C 286.039551 316.060577 285.884766 314.671692 285.842804 313.276306 C 285.768005 310.781006 285.766449 308.265656 285.794586 305.769836 L 286.109894 285.395203 C 286.1297 283.282471 286.446289 278.306458 285.962402 276.504028 C 285.85141 276.090515 285.698975 275.897156 285.336761 275.68219 L 285.110565 275.766602 C 284.400238 276.760437 283.910889 284.709106 283.822815 286.328857 C 283.713867 288.327789 283.872833 290.466858 283.415009 292.423279 C 283.099701 293.76944 282.277313 294.991547 281.619354 296.194885 C 280.44577 298.341797 279.198059 300.547333 278.509949 302.904541 C 277.202332 293.251678 280.124237 283.546936 282.689026 274.35614 C 283.205505 272.505249 284.575623 268.668213 284.512299 266.928833 C 284.503448 266.68335 284.479462 266.491882 284.341339 266.281555 C 284.230347 266.112732 284.117767 266.142456 283.935883 266.106995 C 282.47641 266.805359 281.447906 272.055725 280.684113 273.699219 C 279.833405 275.529724 277.693909 277.13385 276.285645 278.546448 C 274.994598 279.841553 273.790009 281.134033 272.755005 282.649536 C 273.175262 280.140137 273.60495 277.648804 274.279877 275.193115 C 276.119263 268.500916 279.249725 262.286377 282.24057 256.058594 C 282.789612 254.915161 284.529999 251.630554 284.54071 250.562195 C 284.543823 250.248962 284.300964 249.72052 284.056793 249.522217 C 283.788147 249.303894 283.711548 249.312988 283.394165 249.354187 C 282.480316 250.074158 281.895813 251.355957 281.317352 252.355225 C 280.264557 252.883179 279.19223 253.318604 278.172455 253.920776 C 275.751556 255.350098 273.480682 257.133484 271.133575 258.693298 C 273.475922 254.137573 276.166901 250.057739 279.461823 246.127686 C 281.76059 243.385864 284.259796 240.807983 286.69751 238.190491 C 287.68222 237.133301 288.795166 236.09491 289.67981 234.958008 C 289.935699 234.629395 290.122009 234.360718 290.224152 233.955566 C 290.12149 233.773682 290.129303 233.686096 289.911224 233.620972 C 287.960266 233.040161 278.47049 237.804565 276.387604 238.907043 C 277.311768 237.120544 278.640045 235.496094 279.842773 233.889648 C 282.802368 229.935852 286.108063 226.048584 289.703796 222.649048 C 292.093811 220.389587 294.684998 218.354736 297.149017 216.181519 C 297.681641 215.71167 298.601227 214.880188 298.646301 214.164124 C 298.563721 214.085449 298.539734 214.050781 298.419617 214.003357 C 296.789185 213.363647 286.962494 216.960632 284.871887 217.88855 C 291.751923 210.496216 300.589447 203.885864 309.547089 199.23822 C 310.529633 198.722595 311.534424 198.255066 312.561432 197.83551 C 314.453766 197.079834 316.813293 196.531616 318.411682 195.254211 C 318.439575 194.950134 318.419769 195.012146 318.244385 194.793518 C 316.28537 193.842407 304.827728 194.391479 302.270966 194.753662 C 306.452179 191.86853 313.453674 188.523254 318.187317 186.716675 C 319.166565 186.342957 321.136292 185.929688 321.723633 185.058838 C 321.744751 184.889771 321.816925 184.719055 321.712677 184.568726 C 321.043793 183.605591 316.51416 183.142029 315.313934 182.976318 C 323.565125 178.495667 334.904724 175.447449 344.224304 174.349609 C 346.43869 174.088806 351.48999 174.309509 353.152222 173.63147 C 353.162903 173.59082 353.17749 173.550964 353.184021 173.509277 C 353.231171 173.204102 353.083954 172.93573 352.900757 172.702271 C 351.076172 170.378174 343.191345 166.790955 340.096985 166.391968 C 342.23999 166.237061 344.361084 165.766113 346.505402 165.592041 C 351.308624 165.201965 356.221313 165.290405 361.025055 165.644531 C 363.925812 165.858337 366.72522 166.363892 369.580353 166.902893 C 371.753326 167.31311 375.029846 168.507446 377.16214 168.208313 L 377.301025 168.002991 C 377.295044 167.821716 377.303375 167.799744 377.248657 167.603699 C 376.689178 165.593201 369.076141 161.612488 367.085327 160.559204 C 369.055023 160.867493 371.034637 160.817383 373.011658 161.029907 C 374.236908 161.158813 375.457367 161.322998 376.673035 161.522644 C 377.888733 161.722229 379.097626 161.956909 380.299774 162.226624 C 381.501892 162.496277 382.69516 162.800598 383.879578 163.139465 C 385.063995 163.478333 386.23764 163.851196 387.400513 164.258118 C 388.648956 164.695496 392.913574 166.601501 393.898041 166.264038 C 394.014526 166.051086 394.058289 166.045532 394.028076 165.786316 C 393.784943 163.70343 387.562866 157.047302 385.763062 155.761597 Z"/>
        <path id="path1437" fill="#5c3b40" stroke="none" d="M 291.110657 262.555542 C 291.199493 262.639465 291.247467 262.749451 291.307373 262.85498 C 291.138794 264.526062 290.384674 266.201538 289.811676 267.770508 C 291.655518 266.052795 293.17392 263.724792 295.241089 262.27832 C 294.914307 263.222351 294.385864 264.000732 293.84671 264.833801 C 292.846375 266.305542 291.369415 268.477173 289.809845 269.382202 C 289.447388 269.592468 289.223541 269.619812 288.823303 269.516907 C 288.656799 269.319092 288.584351 269.207581 288.537964 268.94519 C 288.270599 267.426331 290.237183 263.780273 291.110657 262.555542 Z"/>
        <path id="path1438" fill="#5c3b40" stroke="none" d="M 302.830658 284.196838 C 302.867157 284.37561 302.859344 284.477722 302.808258 284.659607 C 302.163849 286.957642 296.233093 296.947449 294.210999 297.880035 C 293.937134 298.006439 293.885803 297.982727 293.615082 297.894653 C 292.679321 296.650665 293.406616 291.57016 293.520203 289.924072 C 293.596313 288.826263 293.475647 286.35498 294.172455 285.505493 L 294.381683 285.532593 C 295.275726 286.961304 295.21579 292.611694 294.878082 294.336456 C 297.030457 291.531342 300.409912 286.435181 302.830658 284.196838 Z"/>
        <path id="path1439" fill="#5c3b40" stroke="none" d="M 383.891052 191.729675 L 384.173248 191.737976 L 384.308228 191.930542 C 383.688049 193.146912 376.042969 197.672668 374.307251 199.920166 C 376.359039 199.411255 382.247589 198.070313 384.091187 198.725403 L 384.104736 198.906738 C 383.166901 199.651245 381.429382 199.963684 380.275024 200.303223 C 377.623383 201.139404 374.83075 201.588867 372.132202 202.273438 C 371.603485 202.160095 371.293915 202.11731 370.959595 201.663147 C 370.909821 201.269653 370.966644 201.036438 371.165192 200.700073 C 371.58786 199.983704 372.320343 199.374268 372.911346 198.796021 C 375.874878 195.897583 379.776794 192.731567 383.891052 191.729675 Z"/>
        <path id="path1440" fill="#5c3b40" stroke="none" d="M 308.362213 315.012543 L 308.793213 315.154816 C 309.913452 316.401947 311.139465 324.919464 311.673401 327.120056 C 312.291473 325.137054 313.67749 318.401611 314.710693 317.221191 L 314.855316 317.305634 C 315.100525 318.630402 314.839142 320.06073 314.670563 321.386017 C 314.231476 324.056946 313.541748 328.537323 312.341522 330.884094 C 312.151276 331.255676 311.964722 331.544922 311.55249 331.677032 C 311.314575 331.641083 311.225189 331.565765 311.046967 331.394318 C 309.55957 329.962952 308.372375 317.469788 308.362213 315.012543 Z"/>
        <path id="path1441" fill="#5c3b40" stroke="none" d="M 298.294006 298.964325 L 298.733612 299.122742 C 298.962646 299.57251 298.949371 311.919495 298.77478 312.81665 C 299.545563 311.380585 300.295776 309.935699 300.92453 308.430603 C 301.423035 307.237152 303.089417 301.800446 303.659302 301.309265 L 303.810974 301.384033 C 304.042114 302.567322 303.603027 304.066956 303.355988 305.227844 C 302.828583 307.892761 300.876068 313.311493 299.102325 315.349731 C 298.768768 315.732788 298.446442 315.988678 297.926605 316.020203 C 297.653503 315.881561 297.532867 315.839111 297.372345 315.565491 C 296.50827 314.092163 297.108887 305.203613 297.395538 303.092926 C 297.586792 301.682678 297.905212 300.33078 298.294006 298.964325 Z"/>
        <path id="path1442" fill="#5c3b40" stroke="none" d="M 320.944489 302.490479 L 321.320251 302.748169 C 322.079315 304.266571 320.810547 312.344482 320.664886 314.400452 C 322.223419 312.070618 323.386108 309.548737 324.648346 307.05423 C 325.186981 305.989777 325.77301 304.56781 326.534424 303.649261 C 326.706665 303.441315 326.604523 303.509583 326.904968 303.474426 L 327.045685 303.727173 C 327.09024 305.040985 326.354889 306.598755 325.924652 307.833893 C 325.760498 308.305359 325.590271 308.774658 325.41394 309.241791 C 324.618378 311.336304 321.704865 317.91748 319.813599 318.764862 C 319.499084 318.753662 319.423767 318.758362 319.209839 318.489441 C 317.974701 316.936646 320.384521 304.702515 320.944489 302.490479 Z"/>
        <path id="path1443" fill="#5c3b40" stroke="none" d="M 397.87262 167.510193 C 399.697449 167.527161 401.576996 167.988708 403.302032 168.557495 C 405.877838 169.406677 412.014984 172.326721 413.269684 174.831421 L 413.139648 174.951294 C 411.111053 174.317322 409.078278 172.910461 407.143463 171.980713 C 405.257416 171.074402 403.25174 170.482666 401.263794 169.84552 C 402.045197 170.451477 402.822418 171.062744 403.595428 171.679443 C 405.919037 173.523071 409.39566 177.006226 410.364227 179.805359 C 410.477325 180.131836 410.497131 180.292358 410.351715 180.601929 L 410.083832 180.627747 C 409.305481 180.229553 408.664734 179.429321 408.066711 178.7995 C 406.208252 176.84259 404.362061 174.985962 402.306885 173.232239 C 401.105621 172.207153 398.421936 170.301819 397.533112 169.204468 C 397.211548 168.807373 397.098969 168.511108 397.158661 168.003906 C 397.406982 167.688782 397.4953 167.661865 397.87262 167.510193 Z"/>
        <path id="path1444" fill="#5c3b40" stroke="none" d="M 344.574249 180.045044 C 344.995087 179.992432 345.586578 179.891357 345.950897 180.135254 L 345.950623 180.364014 C 344.958862 181.247375 333.439484 184.566345 330.947845 185.411438 C 332.441467 185.4953 342.033356 186.686401 343.039948 187.223511 C 343.332062 187.379272 343.402679 187.544495 343.486603 187.846252 L 343.287506 188.081848 C 342.199585 188.440125 340.261139 188.209534 339.1008 188.096924 C 335.538177 187.929138 332.026642 187.296936 328.496063 186.85791 C 327.700256 186.759094 326.731689 186.865723 325.977295 186.605652 C 325.587738 186.471741 325.446259 186.282532 325.278687 185.921631 C 325.295898 185.557068 325.325592 185.384033 325.577576 185.105774 C 326.975067 183.562622 341.878815 180.257446 344.574249 180.045044 Z"/>
        <path id="path1445" fill="#5c3b40" stroke="none" d="M 381.454132 177.707947 C 383.403778 177.088318 390.540741 178.3396 392.694702 178.921997 C 393.438873 179.123169 395.789307 179.67218 396.178345 180.342651 L 395.843231 180.402344 L 395.786713 180.4646 C 395.565216 180.410156 395.614197 180.408325 395.435455 180.401001 C 392.004944 180.256897 388.629395 179.614624 385.181427 179.591431 C 382.668945 179.574463 380.229156 180.111023 377.737488 180.15741 C 379.304108 180.663269 380.846558 181.234253 382.364838 181.870422 C 382.769775 182.022095 383.166046 182.193787 383.553589 182.38562 C 384.590454 182.896851 388.51944 185.050781 388.84256 185.990906 L 388.751617 186.142334 C 388.601013 186.169189 388.589539 186.179077 388.411804 186.164734 C 386.662292 186.023499 381.190674 183.548523 379.144348 182.810852 C 377.583771 182.24823 375.93222 181.87616 374.402893 181.239563 C 373.949219 181.050659 373.273529 180.769226 372.99054 180.337952 C 372.803192 180.052368 372.888916 179.922363 372.99707 179.640625 C 374.561584 178.135803 379.279327 177.800171 381.454132 177.707947 Z"/>
        <path id="path1446" fill="#5c3b40" stroke="none" d="M 325.947876 231.405518 C 326.196198 231.510559 326.098206 231.423523 326.228241 231.680969 C 325.717255 232.9823 323.391052 235.74231 322.471741 237.014465 C 320.451996 239.808899 318.466156 242.611694 316.619415 245.524719 C 317.920746 244.845886 319.161621 243.987793 320.399384 243.197998 C 323.804596 241.025574 327.116028 238.679321 330.623138 236.674683 C 330.863678 236.537354 330.890228 236.446167 331.155518 236.517822 L 331.194611 236.730469 C 330.804779 237.696655 328.787628 239.354492 327.954559 240.061707 C 324.669739 243.014526 319.157471 246.840881 315.089569 248.479919 C 314.503784 248.716003 313.850769 248.958862 313.23764 248.701904 C 313.065674 248.463745 312.993744 248.391602 313.00415 248.083069 C 313.036469 247.135071 313.916962 245.953125 314.399048 245.148193 C 314.780182 244.500366 315.174683 243.860901 315.582581 243.229797 C 315.990479 242.598511 316.411316 241.975952 316.845093 241.362244 C 317.279022 240.748657 317.725586 240.144348 318.184723 239.549377 C 318.643677 238.954224 319.11499 238.368958 319.598602 237.79364 C 320.082062 237.218262 320.577362 236.653259 321.084442 236.098572 C 321.591522 235.543884 322.109985 235.000061 322.639832 234.467041 C 323.169647 233.933899 323.710358 233.41217 324.261932 232.901794 C 324.813477 232.391235 325.375458 231.892456 325.947876 231.405518 Z"/>
        <path id="path1447" fill="#5c3b40" stroke="none" d="M 314.62262 284.540283 C 314.835236 284.649231 314.975708 284.764893 315.147156 284.930908 C 315.393677 286.279358 311.3508 299.223328 310.638123 302.006317 C 312.548157 299.458374 314.744812 297.062103 316.7836 294.611633 C 318.582367 292.44986 320.326935 290.089539 322.263275 288.055206 C 322.495209 287.811584 322.616119 287.669312 322.964508 287.664124 C 323.167236 288.515137 321.373932 291.120911 320.858765 291.998291 C 318.760071 295.297485 313.0495 303.046021 310.085175 305.582489 C 309.661194 305.945221 309.236481 306.307678 308.656952 306.268341 C 308.385406 306.095306 308.247833 305.91394 308.160004 305.604889 C 307.290466 302.547272 312.87674 287.967163 314.62262 284.540283 Z"/>
        <path id="path1448" fill="#5c3b40" stroke="none" d="M 309.964783 212.687683 L 310.12738 212.709595 L 310.239441 212.863831 C 310.055725 213.402222 309.428497 213.89856 309.022278 214.28894 C 308.059448 215.214539 306.999908 216.010315 306.004242 216.896545 C 302.635498 219.89502 299.079651 223.004761 296.153351 226.434998 C 299.371338 224.97699 302.618469 223.587036 305.894806 222.265259 C 307.995605 221.40271 310.157867 220.361206 312.394684 219.930176 C 311.188202 221.239868 309.559845 222.10498 308.038849 222.999573 C 305.704071 224.422058 295.574341 229.549683 293.396454 229.360535 C 293.064209 229.331848 292.867981 229.227356 292.649902 228.97406 C 292.568054 228.669495 292.560516 228.461243 292.667084 228.158752 C 293.018097 227.16333 293.819611 226.162415 294.440826 225.319214 C 298.372437 219.981506 304.126526 215.727844 309.964783 212.687683 Z"/>
        <path id="path1449" fill="#5c3b40" stroke="none" d="M 358.524017 198.055969 L 358.819794 198.094238 L 358.946686 198.274353 C 358.860718 198.585205 358.69574 198.760071 358.479736 198.988586 C 357.344147 200.189819 356.001373 201.276428 354.767273 202.380554 C 351.627319 205.189819 348.40213 207.917053 345.476624 210.953308 C 349.400421 210.081116 353.277557 208.762634 357.043701 207.370361 C 359.103302 206.608643 361.148041 205.728394 363.244415 205.077515 C 363.580017 204.973267 363.913818 204.854187 364.251526 205.001953 L 364.262756 205.177856 C 363.243622 206.234741 361.533447 206.948181 360.240204 207.645752 C 359.048309 208.296204 357.834534 208.902649 356.598877 209.465149 C 353.67337 210.804993 344.338165 214.551331 341.487946 213.490784 C 341.233368 213.225769 341.231018 213.230713 341.203918 212.865173 C 342.08728 210.546265 350.530548 203.546326 352.970337 201.718689 C 354.723755 200.405334 356.616852 199.132141 358.524017 198.055969 Z"/>
        <path id="path1450" fill="#5c3b40" stroke="none" d="M 326.782745 252.017029 L 326.93988 252.302856 C 326.442444 253.630005 325.639862 254.982117 325.02359 256.269409 C 323.039551 260.414124 320.899414 264.492188 319.289063 268.800598 C 322.596039 265.739563 325.757904 262.527405 329.082611 259.485474 C 330.281525 258.388367 331.551331 256.991699 332.989471 256.243042 L 333.143463 256.33606 C 332.876373 257.762756 331.050507 259.560242 330.112946 260.699463 C 328.200806 263.147583 319.315887 272.371033 316.820862 273.235107 C 316.507904 273.343506 316.28952 273.342957 315.98465 273.204346 C 315.759521 272.848389 315.783234 272.499207 315.833527 272.097961 C 316.337219 268.064209 323.608643 254.463562 326.782745 252.017029 Z"/>
        <path id="path1451" fill="#5c3b40" stroke="none" d="M 301.701843 234.666931 C 301.833954 234.718262 301.895203 234.796204 301.994232 234.894409 C 301.969208 235.037231 301.968689 235.084656 301.895996 235.231873 C 301.481415 236.070435 300.227509 237.709167 299.65448 238.608459 C 297.402557 242.143188 294.680298 246.19519 292.862274 249.936829 C 295.429993 248.779297 305.871094 240.995056 307.210999 240.922119 C 307.431702 240.909851 307.368378 240.922852 307.549225 241.094116 C 307.107025 242.288025 304.689117 244.06311 303.643677 244.966797 C 301.277374 247.039185 292.163391 254.067505 289.659485 254.532593 C 289.347839 254.590454 289.200104 254.567017 288.937439 254.400757 C 288.791504 254.075317 288.778992 253.813416 288.846497 253.467896 C 289.689728 249.142334 298.067047 237.264648 301.701843 234.666931 Z"/>
        <path id="path1452" fill="#5c3b40" stroke="none" d="M 334.28714 212.674927 C 334.604523 212.735352 334.590179 212.677551 334.810638 212.946716 C 334.524017 213.702637 331.85437 215.22937 331.099762 215.809937 C 329.021362 217.408569 326.921631 218.99707 324.908142 220.677002 C 323.033295 222.241272 321.232697 223.892822 319.325256 225.418457 C 322.215607 224.427795 325.134064 223.531921 328.044464 222.60321 C 330.635406 221.776672 333.226074 220.8172 335.920715 220.400024 C 334.516968 221.722717 332.382324 222.60083 330.688568 223.503479 C 327.53244 225.144104 318.173523 228.802856 314.84671 228.547546 C 314.481628 228.519653 314.34848 228.43573 314.111115 228.170959 C 314.111877 228.023987 314.102234 228.008362 314.159576 227.847351 C 314.453766 227.022095 315.807739 225.926636 316.450562 225.297852 C 321.511536 220.346313 327.726837 215.440186 334.28714 212.674927 Z"/>
        <path id="path1453" fill="#5c3b40" stroke="none" d="M 333.831665 271.387085 C 334.054169 271.49884 334.152435 271.601257 334.303558 271.798035 C 334.287933 272.631348 330.921509 280.967773 330.402191 282.554443 C 329.751007 284.543396 329.326782 286.617859 328.892639 288.66394 C 331.096375 286.397949 333.125214 283.888855 335.137421 281.451111 C 336.916382 279.295898 338.737549 276.616333 341.087982 275.056519 C 340.211121 276.941833 339.152405 278.694214 338.008453 280.424988 C 336.696442 282.55365 329.265533 292.585632 327.625732 293.5112 C 327.246826 293.724884 326.943787 293.830933 326.510956 293.723572 C 326.06485 293.271484 326.017181 292.899384 326.026031 292.278412 C 326.097443 287.204956 330.199982 274.974426 333.831665 271.387085 Z"/>
        <path id="path1454" fill="#5c3b40" stroke="none" d="M 307.060638 252.923035 C 307.410065 252.990295 307.427521 252.951416 307.625305 253.239929 C 307.470276 254.074524 306.329987 255.511658 305.850006 256.292542 C 302.618042 261.549194 299.571869 266.889771 297.453369 272.706116 C 300.508148 270.14624 303.475616 267.494324 306.493866 264.891113 C 308.097473 263.507751 309.722961 261.915588 311.533478 260.814636 C 310.652435 262.411987 309.421478 263.741211 308.207428 265.087341 C 306.294281 267.093018 297.325714 276.61792 295.131104 276.798523 C 294.760834 276.828979 294.706116 276.76123 294.435883 276.541321 C 294.30014 276.233826 294.256622 275.986816 294.27536 275.654541 C 294.336609 274.57135 294.771759 273.402649 295.118591 272.383545 C 297.149017 266.417847 302.359039 257.008118 307.060638 252.923035 Z"/>
        <path id="path1455" fill="#5c3b40" stroke="none" d="M 349.508301 239.735168 L 349.658905 239.794617 C 349.754547 240.114319 349.68158 240.241455 349.536438 240.528137 C 348.772675 242.036377 347.77597 243.497681 346.902771 244.946228 C 344.110413 249.578491 340.311707 255.487671 338.33783 260.42688 C 341.520538 257.788818 344.795471 255.26355 347.960724 252.601196 C 349.527832 251.283203 352.050232 248.671204 353.70932 247.77533 C 353.972778 247.633057 354.014221 247.580139 354.312317 247.662231 C 354.305542 248.957581 352.083313 250.906921 351.218719 251.83197 C 348.321869 255.08606 340.539459 261.983826 336.952057 263.934814 C 336.420502 264.223816 335.942078 264.423645 335.341705 264.244629 C 335.105865 263.967651 335.035004 263.827698 335.034729 263.455872 C 335.034729 262.597534 335.567108 261.52655 335.889954 260.73645 C 338.305511 254.825256 342.034912 249.25177 345.856567 244.162109 C 346.984863 242.659363 348.154846 241.041199 349.508301 239.735168 Z"/>
        <path id="path1456" fill="#5c3b40" stroke="none" d="M 355.005432 219.306885 L 355.301208 219.40332 L 355.35437 219.65271 C 354.615875 221.165588 350.61026 224.719116 349.339966 226.009766 C 347.874207 227.498657 346.466034 229.057495 345.045624 230.590454 C 342.653778 233.171753 340.428711 235.90625 338.196594 238.624878 C 343.121521 236.446167 347.755127 233.60376 352.284485 230.70459 C 354.676605 229.173401 357.03302 227.566162 359.503021 226.16272 C 358.457336 227.539063 357.184662 228.704102 355.911987 229.865295 C 351.720062 233.543823 341.469971 240.294922 336.249817 241.695251 C 335.711212 241.8396 335.160858 241.980042 334.651947 241.68689 C 334.491425 241.403625 334.407532 241.232971 334.465637 240.898926 C 335.080597 237.361572 347.454681 225.455994 350.608978 222.69989 C 352.009064 221.476746 353.483154 220.372131 355.005432 219.306885 Z"/>
        <path id="path1457" fill="#5c3b40" stroke="none" d="M 368.790802 181.191345 C 369.049042 181.157471 369.147797 181.16687 369.378143 181.289612 L 369.407349 181.526489 C 369.136078 181.865173 368.775177 181.999939 368.397614 182.184448 C 365.119019 183.786194 361.716888 185.12323 358.415894 186.677856 C 354.76181 188.398926 351.242188 190.339722 347.529999 191.954041 C 351.2388 191.32312 355.090149 191.044067 358.831787 190.573486 C 362.205231 190.149231 365.593781 189.488953 368.986511 189.280457 C 369.387787 189.255981 369.708832 189.227356 370.067657 189.437866 L 370.096558 189.648438 C 369.196014 190.433289 365.844452 190.964355 364.509247 191.378662 C 361.190796 192.112976 345.064667 194.996277 342.567535 194.514709 C 342.336914 194.333862 342.19101 194.249207 342.155304 193.92865 C 342.127167 193.67511 342.208191 193.322327 342.367401 193.11908 C 344.194305 190.783508 358.842468 184.365967 362.035858 183.172791 C 364.219757 182.356689 366.496155 181.610657 368.790802 181.191345 Z"/>
        <path id="path1458" fill="#5c3b40" stroke="none" d="M 337.04953 194.188232 C 337.236359 194.190308 337.37265 194.222595 337.552704 194.2677 L 337.542297 194.445923 C 335.251282 196.569336 329.231934 199.307251 326.324402 200.984619 C 323.25946 202.752869 320.373566 204.8349 317.249237 206.49115 C 318.038025 206.298035 318.842163 206.202148 319.632233 206.022644 C 324.687714 204.873474 329.953735 203.682861 335.137665 203.342834 C 335.658813 203.308716 336.257111 203.232361 336.66571 203.593262 L 336.584412 203.828552 C 335.820129 204.526123 329.555298 205.972107 328.101013 206.407227 C 323.880432 207.549622 319.603027 208.453796 315.363708 209.518005 C 314.119965 209.830444 312.919464 210.335449 311.67627 210.624451 C 311.275757 210.717712 310.719666 210.842041 310.309265 210.751587 C 309.951752 210.672607 309.924133 210.633545 309.760742 210.336792 C 309.784973 210.167358 309.777954 210.154114 309.853516 209.972229 C 310.278503 208.950989 312.26828 207.724731 313.147217 207.050598 C 320.474945 201.430969 328.286041 197.10614 337.04953 194.188232 Z"/>
    </g>
</svg>
