<?xml version="1.0" encoding="UTF-8"?>
<!-- Generated by Pixelmator Pro 2.4.7 -->
<svg width="800" height="800" viewBox="0 0 800 800" xmlns="http://www.w3.org/2000/svg" xmlns:xlink="http://www.w3.org/1999/xlink">
    <path id="path1451" fill="#ff9400" stroke="none" d="M 330.948761 471.089996 L 411.277496 517.467529 L 248.15625 800 L 201.33725 695.58252 L 330.948761 471.089996 Z"/>
    <path id="path1452" fill="#f7ba00" stroke="none" d="M 330.948761 471.089996 L 250.620743 424.712524 L 87.5 707.244995 L 201.33725 695.58252 L 330.948761 471.089996 Z"/>
    <path id="path1453" fill="#f7ba00" stroke="none" d="M 445.549988 471.089996 L 365.220001 517.467529 L 528.342468 800 L 575.159973 695.58252 L 445.549988 471.089996 Z"/>
    <path id="path1454" fill="#ff9400" stroke="none" d="M 445.549988 471.089996 L 525.877502 424.712524 L 688.997498 707.244995 L 575.159973 695.58252 L 445.549988 471.089996 Z"/>
    <path id="path1455" fill="#c0c0c0" stroke="none" d="M 662.340027 276.554993 C 662.340027 429.290009 538.522461 553.107483 385.785004 553.107483 C 233.048492 553.107483 109.231224 429.290009 109.231224 276.554993 C 109.231224 123.817505 233.048492 0 385.785004 0 C 538.522461 0 662.340027 123.817505 662.340027 276.554993 Z"/>
    <path id="path1456" fill="#a88300" stroke="none" d="M 601.662476 276.55249 C 601.662476 395.777527 505.009979 492.430023 385.787506 492.430023 C 266.561737 492.430023 169.911255 395.777527 169.911255 276.55249 C 169.911255 157.328735 266.561737 60.678223 385.787506 60.678223 C 505.009979 60.678223 601.662476 157.328735 601.662476 276.55249 Z"/>
    <path id="path1457" fill="#d4d0d0" stroke="none" d="M 613.692505 299.600006 C 613.692505 419.102478 516.817505 515.977478 397.315002 515.977478 C 277.812744 515.977478 180.936996 419.102478 180.936996 299.600006 C 180.936996 180.097229 277.812744 83.221741 397.315002 83.221741 C 516.817505 83.221741 613.692505 180.097229 613.692505 299.600006 Z"/>
    <path id="path1458" fill="#b1afaf" stroke="none" d="M 602.169983 276.55249 C 602.169983 396.054993 505.294983 492.929993 385.79248 492.929993 C 266.289734 492.929993 169.414001 396.054993 169.414001 276.55249 C 169.414001 157.05127 266.289734 60.175476 385.79248 60.175476 C 505.294983 60.175476 602.169983 157.05127 602.169983 276.55249 Z"/>
    <g id="bookopenfront">
        <path id="path1459" fill="#5c3f4a" stroke="none" d="M 399.901428 151 C 408.389252 152.026245 419.975403 158.485779 427.084167 163.248657 C 429.399658 164.800049 431.583893 166.53833 433.868134 168.134949 C 433.172394 166.566284 431.040192 162.404358 431.395203 160.913757 L 431.637268 160.82135 C 436.391479 162.040161 449.45343 176.648376 452.845825 180.772095 C 455.631958 184.159302 458.071198 188.356079 461.627747 190.966492 C 463.899841 189.51062 466.135559 188.444763 468.818481 188.008911 C 469.107056 187.962341 469.396667 187.922913 469.687256 187.890564 C 469.977814 187.858215 470.268951 187.832947 470.560608 187.814819 C 470.852448 187.796814 471.14447 187.78595 471.436676 187.782166 C 471.729034 187.778442 472.021332 187.781799 472.313568 187.792419 C 472.60556 187.80304 472.897247 187.820862 473.188538 187.845825 C 473.479828 187.870789 473.770355 187.902771 474.060028 187.941772 C 474.349701 187.980957 474.638306 188.027222 474.925842 188.080566 C 475.213165 188.133972 475.499084 188.194275 475.783569 188.261475 C 476.068054 188.328857 476.350708 188.403137 476.631592 188.484375 C 476.912292 188.565613 477.190948 188.653687 477.467499 188.748535 C 477.74408 188.843445 478.018127 188.945068 478.289642 189.053406 C 478.561188 189.161621 478.829834 189.27655 479.095612 189.398193 C 479.361572 189.519653 479.62442 189.647644 479.884064 189.782043 C 480.143585 189.91626 480.399658 190.056885 480.652344 190.203918 C 480.905182 190.350891 481.154144 190.504028 481.399261 190.663208 C 481.644562 190.822266 481.885712 190.987305 482.122742 191.158386 C 486.214111 194.169922 488.813477 198.786865 489.56958 203.789612 C 490.591461 210.552002 488.884064 216.036438 484.916199 221.442688 C 487.301422 221.713318 489.693573 221.890991 492.092621 221.975586 C 491.420074 220.28656 491.127899 218.728821 491.69989 216.944031 C 492.544403 214.308533 495.112213 212.380188 497.505066 211.215149 C 500.031372 209.985413 503.357727 209.199341 506.084564 210.218567 C 507.567932 210.773071 508.839996 211.876099 509.478577 213.337891 C 510.148682 214.871155 510.148163 216.782837 509.490417 218.319336 C 508.225128 221.27478 505.292877 222.62793 502.487854 223.74231 C 497.419098 234.473389 488.310211 242.54126 479.019348 249.610413 C 473.934052 253.487915 468.649628 257.071777 463.166107 260.362 C 460.648712 261.862366 458.072815 263.325256 455.486938 264.701843 C 453.750458 265.62616 451.987 266.476624 450.299835 267.492065 C 451.33493 267.893433 452.642853 268.249756 453.559601 268.868958 C 453.936707 269.123718 454.019196 269.325073 454.0979 269.762024 C 453.778229 270.983093 452.242279 272.233582 451.387787 273.141724 C 452.26709 276.411987 453.263367 279.646179 454.376648 282.844177 C 455.166718 285.047791 456.135223 287.183533 456.887024 289.400909 C 460.214081 289.926544 463.487152 290.685089 466.706207 291.676514 C 471.308105 287.05603 477.980988 284.259338 484.210754 282.552002 C 484.932617 282.354126 485.936462 282.012634 486.627625 282.410217 C 487.063751 283.220215 486.526245 285.015747 486.366669 285.933838 C 491.544891 283.921326 490.304901 284.830566 494.910583 286.200989 L 495.106293 286.258423 C 493.353607 289.015442 491.813904 291.961731 490.140228 294.774261 C 488.096161 298.210052 485.906006 301.547729 483.980804 305.054413 C 485.200043 307.130524 485.139099 309.56897 484.750946 311.874756 C 483.925568 316.778809 480.921875 322.175629 476.812469 325.069611 C 475.574646 325.941376 473.601776 326.896149 472.071503 326.605835 C 470.923431 326.388031 471.045837 327.064331 470.695374 328.008331 C 469.123077 332.24469 465.501282 335.670258 461.584076 337.749084 C 461.862 339.032959 461.946899 340.395599 462.129913 341.701324 C 462.722687 345.935028 463.342133 351.108368 465.076202 355.007507 C 458.721375 362.503387 448.591644 367.823364 439.588409 371.39502 C 439.077332 372.925751 438.626831 374.474091 438.236877 376.040039 C 437.868378 377.553864 437.65921 379.458832 436.975067 380.842743 C 437.667267 381.330902 438.362213 381.800232 439.082458 382.245789 C 442.949554 386.010437 447.56897 388.792542 452.015045 391.793274 C 454.072052 393.181488 456.041962 394.692902 458.0383 396.16629 C 446.331146 397.09494 420.898621 397.860748 410.7565 392.949951 C 412.000244 389.127594 413.462616 385.368896 414.640564 381.527954 C 408.01944 380.859741 401.297729 381.035767 394.653931 381.195343 C 387.339478 381.370819 379.942017 381.589417 372.670685 382.457123 C 372.345337 383.735901 371.935883 384.873718 371.342316 386.051941 C 372.14801 387.68924 373.257507 389.008453 374.500458 390.334412 C 379.302887 395.457642 384.851471 397.851837 389.669281 402.311127 C 386.165924 402.504486 382.660065 402.576202 379.151672 402.526245 C 370.321228 402.416534 349.018066 401.420776 341.436768 398.318451 C 343.044128 393.236481 345.150452 388.350464 346.898254 383.319977 C 345.586853 383.607056 341.531921 384.531647 340.409729 384.229736 L 340.316467 383.98175 L 340.140717 384.181488 C 339.245239 382.985474 337.975891 381.950073 336.918976 380.886963 C 334.967377 378.924042 333.348938 376.914764 331.86261 374.583069 C 331.508667 377.547943 331.199493 380.480743 330.976013 383.459076 C 326.115906 380.009827 322.442352 373.079468 320.070801 367.665955 C 319.12735 371.737335 318.084137 375.809021 317.226135 379.896057 C 312.69516 373.778168 310.459717 366.415741 308.364441 359.188873 C 306.612854 363.015533 305.087952 367.888062 304.016205 371.966187 C 303.285431 370.460449 302.73877 368.835022 302.183472 367.257568 C 299.749634 360.346375 298.70752 353.537079 298.526123 346.234222 C 295.327271 351.835907 292.767548 357.676422 290.669861 363.780273 C 287.26535 353.102295 286.984985 342.772278 288.364594 331.726074 C 284.48645 336.261383 281.687103 341.667908 278.437408 346.64151 C 276.840576 338.00058 277.463104 327.288605 279.158112 318.671112 C 279.834961 315.231293 280.784637 311.875031 281.672821 308.487213 C 277.613068 311.87854 273.843292 315.411346 270.082062 319.12262 C 269.813477 307.459656 273.000153 295.31015 278.262299 284.959106 C 273.606537 287.759827 267.227783 291.746887 263.27182 295.311218 C 264.189301 292.164703 264.946686 289.008453 265.949341 285.880188 C 268.77533 277.062683 272.83136 268.164612 278.218689 260.605408 C 272.608643 263.373718 267.326477 266.744568 261.726959 269.5 C 264.740936 261.547485 270.917908 251.680908 276.311859 245.046509 C 278.10498 242.841248 280.139832 240.787781 282.056946 238.687134 C 278.011871 239.838379 273.802185 241.419067 270.026337 243.281433 C 268.589905 243.989868 267.213379 244.819824 265.792145 245.559204 C 269.447754 237.870056 280.667114 225.672058 287.166138 220.029907 C 289.330139 218.151123 291.703888 216.581238 293.91748 214.779236 C 290.994141 215.231262 288.072937 216.044556 285.193237 216.726501 C 279.980804 217.96106 274.808655 219.228516 269.666351 220.734558 C 272.266449 217.602844 275.448578 214.903198 278.598785 212.345886 C 281.163177 210.248047 283.791718 208.233826 286.484436 206.303223 C 289.177124 204.372864 291.928497 202.529968 294.738556 200.774597 C 298.35791 198.536987 302.116638 196.53125 305.803101 194.40979 C 303.702423 194.569946 301.588837 194.584473 299.484924 194.710083 C 292.267792 195.140564 284.821533 195.73175 277.775238 197.419128 C 279.099091 196.086975 280.848785 195.003357 282.382843 193.917603 C 291.966431 187.135803 307.141174 179.989258 318.577454 177.295837 C 320.343048 176.880188 322.119446 176.638672 323.915497 176.404968 C 317.535339 174.781982 311.001251 174.605103 304.451538 174.45929 C 315.114441 169.179199 328.531677 166.182678 340.37442 165.358154 C 343.718842 165.125244 347.038452 165.146606 350.388763 165.172058 C 348.651215 164.513428 346.968628 163.692383 345.236176 163.012451 C 343.982727 162.520508 336.191711 159.993713 335.687897 159.179382 C 335.782227 159.083679 335.793304 159.062012 335.927795 158.984863 C 337.209534 158.247803 339.544464 158.112976 341.00412 157.908325 C 342.427551 157.717163 343.854706 157.560425 345.285492 157.438232 C 346.716492 157.31604 348.149536 157.228455 349.584686 157.175476 C 351.019989 157.122559 352.455658 157.104248 353.891663 157.120667 C 355.327698 157.137085 356.762543 157.188171 358.196228 157.273926 C 359.629761 157.359619 361.060394 157.47998 362.488159 157.634827 C 363.915894 157.789734 365.339172 157.979004 366.757935 158.202637 C 368.176544 158.42627 369.588928 158.684082 370.995117 158.976013 C 372.401306 159.267883 373.799591 159.593567 375.189972 159.953064 C 372.350464 156.854675 368.254517 154.808594 365.38858 151.813171 C 368.967499 151.284058 372.681213 151.621033 376.247711 152.109375 C 386.965881 153.577087 397.186981 157.009033 407.009918 161.468384 C 404.508972 158.070374 402.066223 154.624084 399.901428 151 Z"/>
        <path id="path1460" fill="#fefefc" stroke="none" d="M 434.983551 281.165894 C 435.694916 281.710144 436.003845 282.753357 436.696075 283.335571 C 437.006592 283.597046 437.28183 283.497314 437.663239 283.477905 C 437.836029 284.600342 437.296631 288.659637 437.192596 289.989899 C 436.937317 290.225769 436.650238 290.238708 436.318146 290.320648 C 435.920258 290.409332 435.464722 290.597198 435.084381 290.448425 C 434.784637 288.751282 434.259552 287.100525 433.78186 285.446777 C 434.191864 285.046753 434.699432 284.609253 435.001343 284.123779 C 435.545319 283.249084 435.175751 282.097534 434.983551 281.165894 Z"/>
        <path id="path1461" fill="#dad1ca" stroke="none" d="M 451.53009 208.502014 C 452.687042 208.397949 453.84668 208.414185 455.007141 208.414429 L 455.162109 210.354431 C 451.363525 210.27356 448.386261 210.831543 444.886566 212.361023 C 444.211609 212.680176 443.544983 213.022522 442.875671 213.353821 C 442.665161 212.594727 442.354614 211.856689 442.078339 211.119141 C 444.999268 209.616394 448.280304 208.827942 451.53009 208.502014 Z"/>
        <path id="path1462" fill="#fefefc" stroke="none" d="M 341.885315 377.359528 C 343.705078 378.878204 345.301147 380.891266 347.379425 382.053314 L 346.898254 383.319977 C 345.586853 383.607056 341.531921 384.531647 340.409729 384.229736 L 340.316467 383.98175 C 340.816498 381.753845 341.201965 379.546448 341.885315 377.359528 Z"/>
        <path id="path1463" fill="#fefefc" stroke="none" d="M 439.404327 271.971558 L 439.486267 271.969116 C 439.615906 272.885376 437.632782 280.138916 437.232483 281.339783 C 436.687164 280.293884 435.959106 279.349121 435.273895 278.391907 L 432.320068 273.627502 C 434.688141 273.098877 437.024658 272.458679 439.404327 271.971558 Z"/>
        <path id="path1464" fill="#fefefc" stroke="none" d="M 501.482147 212.138916 C 502.508606 212.083923 503.924316 212.166687 504.818726 212.72467 C 505.1651 212.940857 505.436829 213.258667 505.47348 213.682129 C 505.52066 214.226074 505.223877 214.746582 504.868591 215.134521 C 503.505707 216.622986 501.019043 217.036499 499.102753 217.121704 C 498.089752 217.099854 497.160309 216.98175 496.206635 216.618408 C 495.74353 216.441833 495.430298 216.259644 495.22113 215.787903 C 495.189575 215.335022 495.308197 215.031006 495.583679 214.681091 C 496.84494 213.079102 499.53891 212.352417 501.482147 212.138916 Z"/>
        <path id="path1465" fill="#dad1ca" stroke="none" d="M 391.520874 217.218994 C 391.761322 217.542725 391.397705 219.013428 391.3284 219.507263 C 387.65918 220.842407 383.938202 222.050537 380.326141 223.538757 C 377.466125 224.716736 374.66272 226.1203 371.891144 227.490234 L 371.763092 227.339294 C 372.087646 226.296082 372.808167 225.277954 373.423828 224.38031 C 379.046539 221.758606 385.680359 219.246338 391.520874 217.218994 Z"/>
        <path id="path1466" fill="#b9a19e" stroke="none" d="M 426.656921 330.174225 L 426.871216 330.185028 C 427.027557 330.674255 424.343597 341.912933 424.016876 343.361816 C 423.422516 342.989563 422.860199 342.553955 422.291168 342.143677 C 421.68576 341.668182 421.113739 341.151154 420.534729 340.644409 C 421.283813 337.452271 421.900574 334.226776 422.608185 331.024414 C 423.978333 330.821716 425.312103 330.498505 426.656921 330.174225 Z"/>
        <path id="path1467" fill="#fefefc" stroke="none" d="M 449.461243 274.860718 C 449.877167 275.330261 451.452484 281.900757 451.815033 283.140137 C 452.408051 285.16748 453.174408 287.1474 453.907074 289.127869 C 451.56543 288.94751 449.200836 288.908173 446.852997 288.867188 L 444.672272 288.924591 C 445.564789 287.189209 446.589111 285.466431 447.595642 283.793579 C 448.356873 282.528015 449.470398 281.117126 449.850769 279.684998 C 449.397888 278.64801 447.887573 278.05603 446.933319 277.52771 L 449.461243 274.860718 Z"/>
        <path id="path1468" fill="#b9a19e" stroke="none" d="M 429.161926 296.328552 C 430.678467 297.618134 432.222504 298.74704 433.928772 299.769745 C 433.004028 303.533661 432.153931 307.314362 431.378479 311.111908 C 429.768707 310.390289 428.191254 309.572205 426.607056 308.795074 C 427.006012 306.714081 427.603607 304.661377 428.059174 302.590637 C 428.514435 300.520691 428.832001 298.420868 429.161926 296.328552 Z"/>
        <path id="path1469" fill="#e7b99a" stroke="none" d="M 430.746918 274.004028 L 430.844788 274.022339 C 431.717346 274.926453 433.450867 281.158386 433.951965 282.788391 C 432.89801 283.602417 431.981506 284.835388 430.826172 285.47699 C 430.499756 285.658386 430.377625 285.562378 430.03125 285.473999 C 428.789948 284.978027 427.607117 284.258301 426.430206 283.625122 C 426.206512 280.673157 426.458527 277.649841 426.577393 274.694397 C 427.96994 274.529968 429.363831 274.240173 430.746918 274.004028 Z"/>
        <path id="path1470" fill="#e7b99a" stroke="none" d="M 432.535461 286.315002 L 432.664825 286.350891 C 433.229034 287.355774 433.520416 289.829498 433.784576 291.04953 C 431.877197 291.695374 430.063599 292.67981 428.321442 293.678528 C 426.318909 297.827576 426.295166 303.361847 424.660858 307.650787 C 424.346008 307.770203 423.833038 307.587982 423.493134 307.518707 L 423.176117 307.391479 C 422.778534 306.338043 422.755341 305.065979 422.873688 303.96106 C 423.328156 299.721191 426.611633 290.624695 428.425751 286.609619 C 429.255188 286.954163 430.093231 287.230957 430.949371 287.500244 C 431.506805 287.161682 432.019501 286.714478 432.535461 286.315002 Z"/>
        <path id="path1471" fill="#fefefc" stroke="none" d="M 485.320251 283.939941 C 485.554749 284.257202 485.20462 285.815796 485.155548 286.31311 C 480.557709 288.227264 476.098145 290.315247 471.848022 292.919983 C 475.735046 292.187073 488.682465 285.139221 491.288269 285.790161 C 491.609833 285.870483 491.802307 286.035461 491.972412 286.315308 L 491.88858 286.586182 C 491.166443 287.2005 489.957184 287.463867 489.068451 287.773315 C 483.792938 289.765625 478.348694 291.933411 473.60849 295.037354 C 472.14212 293.625427 470.699982 292.988739 468.838959 292.274139 C 472.459106 288.377686 480.243958 285.573181 485.320251 283.939941 Z"/>
        <path id="path1472" fill="#fefefc" stroke="none" d="M 424.745483 279.432129 C 425.03714 280.410095 424.801849 283.175781 424.815308 284.368286 C 425.315063 284.999268 425.808624 285.484497 426.424011 285.997742 C 425.330444 288.434814 424.246277 290.866486 423.373169 293.393341 C 422.592529 295.651672 421.999237 297.962067 421.307007 300.247375 C 420.974915 298.423279 420.367859 296.789764 419.700165 295.069458 C 419.310394 294.056976 418.886902 293.058807 418.429749 292.074921 C 417.972595 291.091064 417.482788 290.123688 416.960388 289.172882 C 416.438171 288.221863 415.884399 287.289673 415.299103 286.376221 C 414.713989 285.462585 414.098755 284.569702 413.45343 283.697632 C 415.394257 284.294922 418.615204 285.097168 420.607513 284.515686 C 422.71814 283.89978 423.80069 281.227661 424.745483 279.432129 Z"/>
        <path id="path1473" fill="#fefefc" stroke="none" d="M 404.979889 274.454468 C 407.750671 274.652039 410.502319 275.171753 413.279053 275.369324 C 417.196259 275.647522 421.068176 275.280396 424.963837 274.89978 C 424.272858 276.786682 423.500946 278.639832 422.648041 280.459167 C 422.259888 281.221741 421.874176 282.19458 421.161987 282.70752 C 419.797211 283.690308 413.959412 282.287537 412.224243 281.930664 C 409.762665 279.426208 407.66629 276.759705 404.979889 274.454468 Z"/>
        <path id="path1474" fill="#dad1ca" stroke="none" d="M 469.916382 189.627563 C 470.295105 189.559937 470.733124 189.570679 471.119415 189.561829 C 471.383942 189.553162 471.648468 189.551208 471.912994 189.555908 C 472.177704 189.560547 472.442047 189.571777 472.706024 189.5896 C 472.970184 189.607361 473.233643 189.631714 473.496368 189.662659 C 473.759277 189.693542 474.02121 189.731018 474.282135 189.775024 C 474.543243 189.818848 474.803009 189.869263 475.061432 189.92627 C 475.319855 189.983032 475.576721 190.046326 475.832092 190.116028 C 476.087463 190.18573 476.34082 190.26178 476.592255 190.344055 C 476.843811 190.426392 477.09317 190.514893 477.340271 190.609558 C 477.587372 190.704468 477.83194 190.805359 478.074005 190.912292 C 478.316071 191.019226 478.555328 191.13208 478.79184 191.250854 C 479.02832 191.369629 479.261749 191.494263 479.492157 191.624756 C 479.722351 191.755188 479.949127 191.891357 480.172516 192.033142 C 480.396057 192.174927 480.615936 192.322205 480.832123 192.474915 C 481.048309 192.627686 481.260559 192.785645 481.468811 192.948792 C 481.67691 193.112183 481.880981 193.280518 482.080994 193.453979 C 482.280823 193.627563 482.476227 193.805908 482.667267 193.989014 C 486.254547 197.480896 488.109375 202.249878 488.12796 207.221863 C 488.145233 211.835632 486.9198 217.335999 483.479706 220.660706 C 483.157318 220.972595 482.944092 221.122986 482.493134 221.110596 L 482.267792 220.810852 C 482.459717 220.046082 483.53067 219.156006 484.020721 218.511536 C 484.514282 217.862122 484.8302 217.044312 485.163635 216.302185 C 486.769135 212.728455 487.267822 209.003418 486.791229 205.108826 C 486.24295 200.627441 484.10968 196.484863 480.508392 193.701172 C 477.562653 191.424438 473.623871 190.279358 469.924194 190.795837 C 466.096191 191.330383 463.245087 193.348328 460.970306 196.387268 C 460.157837 197.611084 459.516022 198.880432 459.049957 200.276184 C 457.690033 204.347046 457.675751 209.496948 459.649719 213.375916 C 462.877136 219.717773 470.474091 221.841064 477.103577 221.829773 C 477.899872 221.82843 480.714874 221.431396 481.056671 221.540527 L 481.145599 221.73999 C 480.921082 221.889587 480.730499 221.943237 480.467682 221.983398 C 476.99118 222.516602 470.217987 221.997681 466.864166 220.948853 C 466.481415 220.829529 466.104279 220.69458 465.732849 220.544006 C 465.361206 220.393372 464.996399 220.227722 464.638428 220.046936 C 464.28064 219.86615 463.930939 219.670898 463.589294 219.461182 C 463.247498 219.251465 462.91507 219.028015 462.591949 218.790771 C 459.376129 216.431335 457.359283 212.827332 456.780548 208.908508 C 456.084839 204.196655 456.964935 198.91925 459.881012 195.061584 C 462.291656 191.872192 466.028259 190.158325 469.916382 189.627563 Z"/>
        <path id="path1475" fill="#fefefc" stroke="none" d="M 414.772919 306.236145 C 416.516449 306.621338 418.350769 307.115448 420.044952 307.677185 C 415.944702 312.714417 413.590363 321.179077 412.608643 327.547913 C 410.695587 327.125793 408.816223 326.650848 406.961151 326.013062 C 407.352814 321.030823 409.256409 315.529968 411.674896 311.20517 C 412.625366 309.505615 413.773682 307.91037 414.772919 306.236145 Z"/>
        <path id="path1476" fill="#fefefc" stroke="none" d="M 481.582825 306.161469 C 481.869904 306.133972 481.997131 306.135345 482.253754 306.271454 C 482.713898 307.067719 482.67157 309.11261 482.63385 310.072235 C 482.45755 314.532318 479.850372 319.506195 476.561249 322.464325 C 475.25766 323.636383 473.45755 324.794678 471.635864 324.635345 C 471.043396 324.583588 470.511017 324.356628 470.134705 323.884918 C 469.301788 322.840637 469.437897 321.504974 469.608826 320.278473 C 471.422943 321.024902 472.681488 321.330322 474.61908 320.846466 C 474.065155 319.923767 472.021332 319.845032 471.034515 319.457428 C 470.620728 319.294861 470.444427 319.130432 470.280823 318.723969 C 470.640961 316.960236 471.925385 314.812408 472.922211 313.309082 C 474.047089 313.931213 476.364197 316.097931 477.459137 316.151825 L 477.637329 315.975555 C 477.635681 315.809784 477.636505 315.653412 477.593384 315.491669 C 477.126251 313.737671 475.267365 312.879395 473.860809 311.983124 C 476.013489 309.166229 478.195038 307.282837 481.582825 306.161469 Z"/>
        <path id="path1477" fill="#fefefc" stroke="none" d="M 448.195129 268.155457 C 449.23761 268.745056 450.283936 269.327759 451.334137 269.903503 C 449.468262 272.631714 446.780212 274.697083 444.936981 277.463806 C 445.732178 278.471985 446.733307 279.17926 447.760864 279.930542 C 446.292511 282.554626 444.696533 285.098572 442.972992 287.562561 C 442.607483 288.079285 442.327667 288.580109 442.068085 289.156952 C 441.066956 289.298737 440.080383 289.496063 439.089722 289.695801 C 439.074646 286.531189 439.504578 283.325623 439.836151 280.182312 C 440.119537 277.352844 440.344421 274.518799 440.510864 271.680176 C 443.119629 270.584961 445.679901 269.453369 448.195129 268.155457 Z"/>
        <path id="path1478" fill="#fefefc" stroke="none" d="M 436.854553 294.482605 C 435.484131 294.534088 430.729401 295.832306 429.83017 295.12146 C 429.781647 295.083191 429.740662 295.036011 429.695923 294.993408 C 429.722595 294.699066 429.662231 294.807709 429.896454 294.603088 C 430.877411 293.745117 432.531128 293.221893 433.753296 292.844788 C 440.552917 290.745728 448.306458 290.557587 455.354065 291.293488 C 461.021484 291.884888 467.06958 293.25235 472.163147 295.817749 C 468.784119 295.584473 465.401184 295.472168 462.014282 295.480804 C 458.627197 295.48941 455.244781 295.618896 451.867035 295.869232 C 445.701447 296.301605 439.583038 297.108368 433.443024 297.777954 C 432.676971 297.285492 431.955353 296.769257 431.23996 296.205902 C 432.128693 296.040131 434.445526 295.801819 435.138275 295.424713 L 434.935303 295.29425 C 435.524292 295.0495 436.372589 295.072144 437.010101 294.98938 C 439.721588 294.637329 442.408264 294.349182 445.139435 294.175568 C 446.409027 294.094727 447.630951 294.156189 448.910278 294.027863 C 446.585327 293.721924 444.129395 293.984741 441.79718 294.169128 C 440.67392 294.257813 437.991547 294.810944 437.062378 294.548401 C 436.992584 294.528717 436.923828 294.50473 436.854553 294.482605 Z"/>
        <path id="path1479" fill="#613032" stroke="none" d="M 436.854553 294.482605 C 443.091858 293.403046 461.808868 293.096558 467.75882 294.763489 C 462.093811 295.110138 456.108002 294.355927 450.398224 294.326019 C 447.184753 294.331757 443.978088 294.481812 440.778259 294.776154 C 438.898346 294.961609 437.018188 295.269989 435.138275 295.424713 L 434.935303 295.29425 C 435.524292 295.0495 436.372589 295.072144 437.010101 294.98938 C 439.721588 294.637329 442.408264 294.349182 445.139435 294.175568 C 446.409027 294.094727 447.630951 294.156189 448.910278 294.027863 C 446.585327 293.721924 444.129395 293.984741 441.79718 294.169128 C 440.67392 294.257813 437.991547 294.810944 437.062378 294.548401 C 436.992584 294.528717 436.923828 294.50473 436.854553 294.482605 Z"/>
        <path id="path1480" fill="#fefefc" stroke="none" d="M 418.114105 370.517883 C 416.7388 374.086273 415.811279 377.882721 414.640564 381.527954 C 408.01944 380.859741 401.297729 381.035767 394.653931 381.195343 C 387.339478 381.370819 379.942017 381.589417 372.670685 382.457123 C 372.95282 381.551941 373.241608 380.648834 373.537048 379.747803 C 375.970337 379.35318 378.085297 378.766083 380.35202 377.815887 C 386.064484 378.717285 398.790588 378.569305 404.232697 377.063538 C 406.402893 376.462952 407.066559 374.252869 408.128326 372.449249 C 411.539032 372.117706 414.794769 371.323853 418.114105 370.517883 Z"/>
        <path id="path1481" fill="#b9a19e" stroke="none" d="M 466.733154 297.392242 C 468.652405 297.391144 470.589172 297.495728 472.504669 297.616486 C 472.072296 298.651855 471.579559 300.418274 470.788116 301.189484 L 470.677063 301.530212 C 470.084564 303.439484 468.901215 305.299164 468.129486 307.166656 C 464.691803 315.48764 460.764618 323.565491 457.465759 331.957611 C 456.894562 333.410278 455.813385 337.819153 455.152954 338.74588 C 454.873962 339.137299 454.443756 339.41925 454.024323 339.639771 C 452.542572 340.417969 450.723846 340.779449 449.096252 341.125275 C 449.350983 340.47348 451.060272 335.737885 451.397766 335.542725 C 451.638733 335.178833 451.679169 334.934631 451.716919 334.515167 C 453.051483 331.094757 454.627594 327.757111 456.092102 324.390076 C 458.625671 318.56546 461.110199 312.667511 463.402771 306.745056 C 464.593964 303.667511 465.881897 300.584595 466.733154 297.392242 Z"/>
        <path id="path1482" fill="#5c3f4a" stroke="none" d="M 451.716919 334.515167 C 452.727203 334.597687 454.927338 334.209778 455.655945 334.790405 C 455.70636 335.147552 455.681824 335.322784 455.466705 335.626312 C 455.288269 335.877808 455.062134 336.10907 454.855103 336.337677 C 453.863922 336.370819 452.40509 336.589417 451.62851 335.814728 C 451.46405 335.650818 451.499634 335.691284 451.397766 335.542725 C 451.638733 335.178833 451.679169 334.934631 451.716919 334.515167 Z"/>
        <path id="path1483" fill="#5c3f4a" stroke="none" d="M 470.677063 301.530212 C 470.368439 301.849365 470.036591 302.078491 469.628479 302.254242 C 468.849457 302.589844 467.114594 302.798462 466.35498 302.42514 C 466.000793 302.250732 465.894043 302.026184 465.76062 301.674683 C 465.796448 301.474396 465.770569 301.381683 465.933655 301.237732 C 466.376526 300.847137 467.148834 300.839325 467.710571 300.835815 C 468.493896 300.830963 470.278656 300.690521 470.788116 301.189484 L 470.677063 301.530212 Z"/>
        <path id="path1484" fill="#e7b99a" stroke="none" d="M 367.756104 205.808044 C 372.656403 205.164368 378.383423 207.625183 382.736786 209.733093 C 379.731476 212.609558 377.242126 215.862305 374.790771 219.209656 L 373.533264 221.07959 C 370.3862 220.83374 367.5224 220.2771 364.935181 218.330933 C 363.032104 216.898987 361.723419 214.881897 361.4021 212.502808 C 361.174316 210.817261 361.342255 208.887512 362.442047 207.515991 C 363.556396 206.12616 366.110474 205.966858 367.756104 205.808044 Z"/>
        <path id="path1485" fill="#fefefc" stroke="none" d="M 470.749573 191.915894 C 470.763306 191.914001 470.777344 191.911255 470.791107 191.910217 C 474.27002 191.627991 477.42868 192.783264 480.118591 194.98584 C 483.399658 197.672546 485.351776 201.832336 485.728088 206.019409 C 486.146729 210.680298 485.06311 215.310791 482.042969 218.93927 L 481.62677 217.981262 C 481.564972 217.816345 481.500977 217.652283 481.434845 217.489075 C 480.567688 215.339355 479.519897 213.240601 478.52066 211.149109 C 477.141602 208.261597 475.761475 205.293762 474.02066 202.603027 C 472.099518 199.63385 468.533539 195.205261 465.210144 193.801392 C 466.967682 192.872803 468.786926 192.229919 470.749573 191.915894 Z"/>
        <path id="path1486" fill="#fefefc" stroke="none" d="M 463.571259 195.308777 C 464.535461 195.974854 465.457062 196.894348 466.315887 197.69519 C 471.396515 202.432373 473.864044 206.998169 476.848846 213.14679 C 478.010376 215.538818 479.200226 217.91687 480.2771 220.348572 C 477.666687 220.832397 475.113434 220.726196 472.497406 220.316467 C 471.682251 220.188721 469.737946 220.026978 469.224976 219.323975 C 469.520935 219.139587 469.80072 218.961975 469.989136 218.65979 C 470.710754 217.503113 470.643921 215.814575 470.35199 214.530701 C 470.019073 213.06781 469.22226 211.097046 467.881744 210.319397 C 467.369049 210.02179 466.750153 209.926636 466.179779 210.105103 C 465.55249 210.301086 465.33255 210.822937 465.026062 211.356628 C 464.933594 211.6521 464.838989 211.953979 464.795319 212.260986 C 464.485321 214.452271 465.825287 216.846985 467.08548 218.517456 C 466.196747 218.017151 465.343048 217.486938 464.529266 216.870422 C 461.75174 214.765198 460.241943 211.68335 459.776428 208.272339 C 459.534363 206.498962 459.56778 204.772705 460.737122 203.300659 C 461.377045 202.494934 462.248535 201.868713 463.299805 201.792725 C 465.975433 201.599182 467.013245 203.857544 468.808228 205.223633 C 469.074005 205.426086 469.24411 205.49292 469.571075 205.462524 L 469.74411 205.205872 C 469.813416 204.491028 469.436829 203.959717 469.002563 203.425171 C 467.804932 201.951477 465.854126 200.581848 463.924927 200.465454 C 462.345306 200.369995 461.175964 201.075195 460.034668 202.067688 C 460.767853 199.506897 461.917267 197.39679 463.571259 195.308777 Z"/>
        <path id="path1487" fill="#fefefc" stroke="none" d="M 421.299988 308.943329 C 422.239685 309.544983 423.549194 309.836365 424.60614 310.237732 C 426.931885 311.120514 429.277283 312.214661 431.29953 313.675659 C 433.52121 315.281158 434.957977 317.247314 435.408386 319.976044 C 433.783234 319.78006 427.052094 318.695923 425.981689 319.278442 L 425.957977 319.499481 C 425.999207 319.546112 426.038818 319.59436 426.08194 319.639099 C 427.524353 321.139191 433.165649 321.324646 435.199738 321.250793 C 434.817505 321.936279 434.423431 322.602905 433.877289 323.174896 C 432.273956 324.853699 430.236115 325.413849 427.993927 325.452118 C 426.356628 325.458313 423.454041 324.877686 422.039948 325.228943 L 421.964203 325.398468 C 422.000305 325.437836 422.033203 325.480682 422.072815 325.516541 C 423.71524 327.013397 427.501984 326.888336 429.608582 326.890198 C 424.646027 328.783325 420.007477 328.72699 414.846771 327.867096 C 415.793488 321.571838 417.427521 314.132843 421.299988 308.943329 Z"/>
        <path id="path1488" fill="#fefefc" stroke="none" d="M 434.891388 382.746643 C 435.527527 382.705933 437.586426 384.950256 438.155182 385.449493 C 441.994476 388.820313 446.415771 391.361969 450.81955 393.904694 C 448.538544 393.877747 446.251617 394.030579 443.969269 394.044617 C 439.308441 394.091522 434.653442 393.947113 430.004303 393.61142 C 427.592285 393.306824 425.146851 393.181488 422.727295 392.922699 C 419.835846 392.616302 416.970459 392.150146 414.131134 391.524231 C 414.878601 388.913574 415.924744 386.330414 416.827209 383.765839 C 422.295746 384.937042 429.50238 384.087677 434.891388 382.746643 Z"/>
        <path id="path1489" fill="#fefefc" stroke="none" d="M 348.739075 387.081116 C 354.162567 388.800079 363.296265 389.095276 368.767761 387.375488 C 372.435913 393.530029 377.359924 396.711334 383.497223 399.978912 L 380.435577 399.819061 C 373.244568 399.576752 365.984589 399.160828 358.829712 398.41629 C 354.089264 397.922729 349.382507 397.184692 344.647461 396.659058 C 346.082397 393.496796 347.446289 390.304138 348.739075 387.081116 Z"/>
        <path id="path1490" fill="#b9a19e" stroke="none" d="M 490.552368 289.311951 L 490.696045 289.504974 C 489.93454 290.857056 488.995667 292.12561 488.223938 293.483643 C 486.223541 297.00351 484.325592 300.714264 482.027863 304.044373 C 478.135986 304.715576 475.149017 307.114624 472.686615 310.118866 C 470.357635 312.959991 466.868195 318.638763 467.34317 322.48645 C 467.53537 324.043396 468.380707 325.004913 469.567291 325.92276 C 468.747833 327.080505 468.103058 328.390839 467.326752 329.584442 C 465.131989 332.959839 462.158508 334.928162 458.719757 336.881897 C 458.059052 337.254456 457.35849 337.574402 456.67865 337.911072 C 459.427063 329.186829 463.652649 320.936737 467.339661 312.587738 L 471.424286 303.341888 C 472.380676 301.14502 473.244049 298.882324 474.431732 296.797028 C 479.581909 293.74054 485.002441 291.520996 490.552368 289.311951 Z"/>
        <path id="path1491" fill="#fefefc" stroke="none" d="M 458.614075 339.300385 L 458.818939 339.351318 C 459.163177 340.075348 459.866699 346.801086 460.15863 348.321411 C 460.589142 350.564667 461.237976 352.746735 461.865479 354.940948 C 460.613129 356.400848 458.723511 357.585571 457.140137 358.677551 C 450.666718 363.141968 443.983307 366.749207 436.683929 369.671997 C 435.976898 369.914337 435.25824 370.121887 434.542572 370.337006 C 436.624359 361.474457 438.908051 352.652405 439.11911 343.489044 C 440.366638 343.268799 447.091278 341.781403 447.744965 341.877899 C 448.239624 341.950928 448.839111 342.453125 449.372009 342.583313 C 451.695343 343.151031 456.609924 340.355957 458.614075 339.300385 Z"/>
        <path id="path1492" fill="#fefefc" stroke="none" d="M 357.936401 255.847717 C 365.231415 257.986389 372.219177 260.796814 379.246826 263.670288 C 382.018951 264.803772 384.733673 266.08197 387.452972 267.336243 C 397.88324 272.147888 406.217987 277.243591 412.644775 287.084351 C 414.39447 289.762909 415.911011 292.492737 417.148285 295.445221 C 415.740295 294.758911 414.318634 294.10202 412.883331 293.474487 C 406.369995 290.368896 399.104065 288.54425 392.13736 286.763306 C 393.481079 285.08905 394.9758 283.55365 396.367249 281.920959 C 392.554626 278.109375 381.235352 276.143799 375.818573 275.184998 C 374.306915 274.917297 372.679047 274.864197 371.205902 274.450684 C 371.141754 274.432617 371.0784 274.411865 371.014526 274.39325 C 370.575134 274.263916 370.270538 273.989746 369.93927 273.680054 C 368.734863 272.55249 367.650726 271.275024 366.472473 270.11377 C 363.089539 266.743225 359.592987 263.494873 355.98291 260.368713 C 356.61026 258.851501 357.261414 257.344482 357.936401 255.847717 Z"/>
        <g id="g7">
            <path id="path1493" fill="#dad1ca" stroke="none" d="M 353.440979 371.420074 C 355.986145 372.106903 358.494385 373.060333 361.023621 373.819702 C 364.624115 374.90033 368.266663 375.766693 371.936157 376.575104 C 370.59375 379.506805 369.503113 382.500793 368.551025 385.579163 L 366.904297 386.029297 C 360.924164 387.072479 355.187714 386.763031 349.214294 385.884552 C 350.941101 381.158661 352.257629 376.304749 353.440979 371.420074 Z"/>
            <path id="path1494" fill="#dad1ca" stroke="none" d="M 418.613861 331.099091 L 420.768158 331.094238 C 419.912567 334.667847 419.15979 338.262939 418.509796 341.879517 C 419.948151 343.331879 421.755005 344.633301 423.474792 345.734985 C 427.744873 345.558167 432.067749 344.61499 436.27475 343.873962 C 435.678741 353.903961 433.645752 363.518799 431.22052 373.242554 C 433.031433 372.94281 434.827484 372.442505 436.598206 371.966492 C 435.808411 375.055328 435.160675 378.142029 434.591095 381.279144 C 433.376801 381.56488 432.154388 381.809204 430.923767 382.012085 C 429.692963 382.214783 428.456665 382.375641 427.214905 382.494598 C 425.973328 382.613373 424.729034 382.690033 423.482056 382.724518 C 422.235291 382.75885 420.988647 382.750946 419.742218 382.700806 C 418.97049 382.663879 417.980133 382.698395 417.268219 382.407806 C 418.480408 378.041748 419.929291 373.717529 421.266846 369.386536 C 424.941986 367.533875 428.39801 366.152374 431.543457 363.399384 C 428.29071 364.214264 425.110199 365.490082 421.911896 366.518982 C 417.690887 367.877289 413.44696 369.002411 409.147522 370.077972 C 410.439514 365.880951 411.881927 361.745361 413.02243 357.499847 C 415.367035 348.771851 416.995697 339.978851 418.613861 331.099091 Z"/>
        </g>
        <path id="path1495" fill="#b9a19e" stroke="none" d="M 462.344238 297.477936 C 463.514893 297.392761 464.701508 297.395447 465.875153 297.363373 C 464.096893 301.524261 462.477112 305.745819 460.758942 309.93045 L 453.100555 328.267914 C 451.622833 331.828491 450.303619 335.437622 448.713745 338.95401 C 446.480743 339.60553 444.116455 339.93869 441.830048 340.367828 C 436.522736 341.364105 431.186035 342.185455 425.860382 343.07608 L 426.188141 341.639343 C 426.948059 337.574677 427.96347 333.54425 428.790741 329.489014 C 431.374176 328.262268 433.29129 326.913116 435.237213 324.790344 C 436.603058 323.299957 437.554626 321.452423 437.414703 319.376282 C 437.195282 316.114105 435.131805 314.092957 432.774811 312.106567 C 433.597504 308.01416 434.774933 303.886688 435.242615 299.740082 C 444.277924 298.682587 453.243408 297.757202 462.344238 297.477936 Z"/>
        <path id="path1496" fill="#fefefc" stroke="none" d="M 436.883942 187.208313 C 444.365814 186.458374 453.700043 188.519165 460.009308 192.565491 C 455.993713 196.464661 455.022217 201.475464 454.893372 206.838013 C 449.956146 206.319702 445.940826 207.420044 441.53894 209.636292 C 441.424835 209.413696 441.309296 209.191711 441.192291 208.97052 C 437.828491 202.614868 432.450531 198.17041 425.565216 196.098328 C 418.865356 194.082031 411.636353 195.036499 405.526825 198.369629 C 399.108398 201.871155 394.155273 208.404968 392.104187 215.366882 C 386.089294 217.203613 379.981384 219.437195 374.445465 222.444641 C 376.187073 219.690552 377.97641 216.970459 380.010742 214.421265 C 381.354218 212.737305 383.117126 211.188721 384.185669 209.321716 C 380.631256 206.342346 375.757935 204.583435 371.20105 204.018188 C 368.404663 203.819031 364.895844 203.840271 362.498383 205.511841 C 361.150055 206.451782 360.433563 207.870972 360.170227 209.466248 C 359.75589 211.977722 360.261871 214.691101 361.768982 216.766907 C 364.35025 220.322693 368.758057 221.424866 372.854248 222.067261 C 371.242859 224.385742 369.984558 226.961365 368.47879 229.357178 C 366.315582 228.575439 364.042419 227.723083 361.99054 226.684265 C 357.7229 224.524292 353.28894 220.992554 351.762451 216.273926 C 350.609802 212.711731 351.520905 208.186646 353.22937 204.945496 C 354.894714 201.786804 357.523163 199.714722 360.928741 198.671265 C 369.736023 195.972961 380.336914 201.243896 388.000458 205.32312 C 391.78476 202.674194 395.786896 200.371338 399.872864 198.223511 C 411.522858 192.099426 423.698242 188.111572 436.883942 187.208313 Z"/>
        <path id="path1497" fill="#5c3f4a" stroke="none" d="M 447.13739 191.282959 C 447.657623 191.357605 448.059021 191.520142 448.507019 191.798889 C 450.038361 192.75177 450.810394 194.425476 451.236542 196.107483 C 450.473724 195.710693 447.674622 192.137451 447.13739 191.282959 Z"/>
        <path id="path1498" fill="#5c3f4a" stroke="none" d="M 431.276886 190.588806 C 431.857239 190.781311 432.421967 191.145996 432.925476 191.492371 C 434.719116 192.725891 436.578003 194.515747 436.998505 196.743896 C 435.456635 195.729858 432.247833 192.261719 431.276886 190.588806 Z"/>
        <path id="path1499" fill="#5c3f4a" stroke="none" d="M 439.328827 189.699829 C 439.395416 189.742676 439.463867 189.782837 439.52832 189.828674 C 442.307739 191.808289 444.709747 196.228271 445.156952 199.565613 C 443.885162 197.473633 439.733704 191.63446 439.328827 189.699829 Z"/>
        <path id="path1500" fill="#dad1ca" stroke="none" d="M 416.047668 196.909973 C 416.098358 196.90271 416.149017 196.893799 416.199982 196.887878 C 422.168793 196.195068 429.016357 198.458862 433.670288 202.169006 C 438.749023 206.218079 441.469391 212.081726 442.143555 218.450867 C 442.162811 218.63562 442.179779 218.820557 442.194489 219.005615 C 442.209229 219.190735 442.221741 219.375977 442.231995 219.561462 C 442.242218 219.746887 442.250122 219.932434 442.255707 220.118103 C 442.261261 220.303711 442.264679 220.489319 442.26593 220.674988 C 442.266998 220.860779 442.265747 221.046509 442.262177 221.232178 C 442.258759 221.417786 442.252991 221.603455 442.244904 221.789063 C 442.236847 221.974548 442.226593 222.159912 442.214172 222.345154 C 442.201599 222.530457 442.186707 222.715515 442.169434 222.900452 C 442.152374 223.085388 442.133057 223.270081 442.111481 223.454651 C 442.089752 223.639038 442.065765 223.82312 442.03952 224.006958 C 442.013458 224.190796 441.985046 224.37439 441.954315 224.557678 C 441.923767 224.740845 441.8909 224.923584 441.855682 225.105957 C 441.820465 225.288208 441.783081 225.470093 441.74353 225.65155 C 441.703827 225.833069 441.661957 226.014038 441.61792 226.194458 C 441.573883 226.374878 441.527618 226.554688 441.479095 226.733826 C 441.430756 226.913208 441.380157 227.091919 441.327332 227.269958 C 441.274323 227.447876 441.219238 227.625183 441.162109 227.801819 C 441.10498 227.978638 441.045563 228.154663 440.983917 228.329895 C 440.922485 228.505127 440.858856 228.679504 440.793091 228.853088 C 440.727295 229.026855 440.659363 229.199768 440.589294 229.371765 C 440.519196 229.543701 440.447052 229.714783 440.372833 229.884949 C 440.298615 230.055176 440.222351 230.224426 440.143982 230.392822 C 440.065643 230.561218 439.985138 230.728577 439.902466 230.89502 C 439.819977 231.061401 439.735504 231.226746 439.649078 231.390991 C 439.562439 231.555237 439.473877 231.718506 439.383301 231.880798 C 439.292725 232.042908 439.200165 232.203857 439.105652 232.363831 C 439.011108 232.52356 438.914703 232.682251 438.816406 232.839844 C 438.717926 232.997314 438.617554 233.153564 438.51532 233.308594 C 438.413055 233.463501 438.308929 233.617249 438.202881 233.769836 C 438.096863 233.922241 437.989044 234.073364 437.879425 234.223206 C 437.769623 234.373108 437.658112 234.521606 437.544922 234.668823 C 437.431488 234.815796 437.316315 234.961487 437.19931 235.105774 C 432.624664 240.684814 426.04718 243.766907 418.913605 244.489868 C 418.865875 244.499573 418.819 244.512817 418.770752 244.518982 C 412.83075 245.311523 406.300201 243.612183 401.54303 239.973145 C 396.814178 236.355713 393.814819 231.206909 393.072449 225.281738 C 393.046204 225.076355 393.022583 224.870605 393.001556 224.664429 C 392.98053 224.458496 392.962097 224.252319 392.946289 224.045837 C 392.930298 223.839355 392.916992 223.632629 392.906403 223.425842 C 392.89563 223.219177 392.887451 223.012329 392.881866 222.805298 C 392.876282 222.598267 392.873322 222.391174 392.872955 222.18396 C 392.87262 221.976929 392.874756 221.769958 392.879425 221.562927 C 392.884277 221.355896 392.891663 221.148926 392.90155 220.942139 C 392.911591 220.735291 392.924194 220.528503 392.939301 220.321838 C 392.954376 220.115356 392.972076 219.909119 392.992371 219.702942 C 393.012512 219.497009 393.035339 219.29126 393.060852 219.085693 C 393.086182 218.880066 393.114136 218.674866 393.144684 218.469971 C 393.175232 218.26532 393.208313 218.060913 393.243896 217.85675 C 393.279633 217.652771 393.317841 217.44928 393.358459 217.246216 C 393.399231 217.043335 393.442444 216.840881 393.488098 216.638916 C 393.533905 216.43689 393.582275 216.235535 393.633118 216.034851 C 393.68399 215.834045 393.737274 215.633972 393.792969 215.434509 C 393.848877 215.235046 393.907166 215.036316 393.967926 214.838257 C 394.028656 214.640381 394.091827 214.443237 394.15741 214.246826 C 394.223175 214.050415 394.291382 213.854919 394.362 213.660278 C 394.432465 213.465454 394.505432 213.271667 394.580902 213.078857 C 394.656342 212.885986 394.734161 212.694092 394.814331 212.503052 C 394.89447 212.312195 394.977051 212.122375 395.062073 211.933472 C 395.147064 211.744629 395.234314 211.556824 395.323792 211.370117 C 395.413452 211.183411 395.505463 210.997864 395.599823 210.813477 C 395.69397 210.62915 395.790497 210.445984 395.889313 210.264099 C 395.988159 210.082092 396.089325 209.901306 396.192841 209.721741 C 396.296173 209.542419 396.401764 209.364319 396.509583 209.1875 C 396.617218 209.010681 396.727203 208.835205 396.839508 208.661072 C 396.95163 208.487122 397.065948 208.314514 397.182404 208.14325 C 397.299011 207.971985 397.417633 207.802246 397.538208 207.634033 C 397.658966 207.46582 397.781799 207.299194 397.906708 207.134033 C 398.031586 206.968872 398.158539 206.805237 398.287598 206.643188 C 402.749298 200.9776 408.940796 197.727295 416.047668 196.909973 Z"/>
        <path id="path1501" fill="#5c3f4a" stroke="none" d="M 417.553955 198.798767 C 423.003601 198.490112 428.601501 200.486694 432.792053 203.916321 C 437.335999 207.635132 439.983856 212.714417 440.53537 218.559753 C 441.070984 224.239868 439.445557 230.070435 435.76474 234.463928 C 431.295471 239.798523 424.846039 242.563049 417.987671 243.163635 L 417.839417 243.176086 C 412.268738 243.601685 406.195343 242.136108 401.909637 238.423462 C 397.758453 234.827332 395.251556 229.372803 394.914886 223.924805 C 394.529114 217.689331 396.452698 211.683044 400.614136 206.982239 C 405.099304 201.916199 410.827942 199.206055 417.553955 198.798767 Z"/>
        <path id="path1502" fill="#fefefc" stroke="none" d="M 416.397003 200.546814 C 420.522858 199.813354 426.326721 201.547729 429.780823 203.791748 C 430.060822 203.971497 430.336212 204.15802 430.607025 204.351379 C 430.877838 204.544739 431.143707 204.744751 431.404663 204.951416 C 431.665558 205.157898 431.921204 205.370667 432.171539 205.589722 C 432.421875 205.80896 432.666718 206.034241 432.906097 206.265503 C 433.145264 206.496765 433.378632 206.733826 433.60614 206.976624 C 433.833801 207.21936 434.055206 207.467651 434.270325 207.721375 C 434.485596 207.975159 434.694519 208.234009 434.897034 208.497986 C 435.099396 208.762146 435.295166 209.031067 435.484406 209.304749 C 435.673645 209.578491 435.855957 209.85675 436.031342 210.139587 C 436.206726 210.422302 436.375031 210.709167 436.536224 211.000305 C 436.697601 211.291382 436.851593 211.586304 436.99823 211.884949 C 437.144867 212.183655 437.284058 212.485718 437.415802 212.79126 C 437.547516 213.096924 437.6716 213.405579 437.788055 213.717163 C 437.90448 214.028931 438.013123 214.343323 438.113922 214.660339 C 438.214935 214.977539 438.308014 215.296936 438.393188 215.618591 C 438.47821 215.940308 438.555298 216.263855 438.624481 216.589294 C 438.693298 216.916931 438.754059 217.245972 438.806702 217.576416 C 438.859375 217.907104 438.903839 218.238708 438.940125 218.57135 C 438.976257 218.904175 439.004211 219.237671 439.023987 219.57196 C 439.043732 219.906006 439.055237 220.240417 439.058472 220.575256 C 439.061707 220.909851 439.05658 221.244385 439.043091 221.578796 C 439.029816 221.913269 439.00824 222.247253 438.978424 222.58075 C 438.948578 222.914124 438.910553 223.246582 438.86438 223.578125 C 438.818024 223.909546 438.76358 224.239624 438.70105 224.568481 C 438.638336 224.897339 438.567627 225.224426 438.488892 225.549683 C 438.410187 225.875122 438.323486 226.198303 438.22876 226.519287 C 438.133881 226.840393 438.031281 227.158936 437.920929 227.474854 C 437.810425 227.790771 437.692169 228.103821 437.566193 228.414001 C 437.440216 228.724121 437.306702 229.031006 437.165619 229.334534 C 437.024384 229.638062 436.875763 229.937866 436.719788 230.23407 C 436.563965 230.530212 436.400787 230.822327 436.230286 231.110413 C 436.059906 231.398621 435.882538 231.682373 435.698151 231.961609 C 431.806824 237.786499 426.119446 240.117371 419.522552 241.41449 L 418.918732 241.494019 C 413.801971 242.148254 407.860657 241.02771 403.740448 237.793274 C 399.862885 234.748901 397.338745 229.925415 396.760254 225.061462 C 396.738159 224.883423 396.718231 224.705078 396.700439 224.526428 C 396.682648 224.347778 396.667084 224.169067 396.653778 223.990295 C 396.640503 223.811279 396.629364 223.632141 396.620361 223.452759 C 396.611359 223.273621 396.604645 223.09436 396.600159 222.915039 C 396.59549 222.735474 396.593048 222.55603 396.592865 222.376709 C 396.592865 222.197205 396.59494 222.017761 396.59906 221.838379 C 396.603363 221.658875 396.609833 221.479492 396.618469 221.300354 C 396.627106 221.121033 396.637878 220.941833 396.650818 220.762878 C 396.66394 220.583862 396.67923 220.40509 396.696655 220.22644 C 396.714081 220.047791 396.733673 219.869446 396.755402 219.691345 C 396.777161 219.513306 396.801147 219.335449 396.827393 219.157898 C 396.853424 218.980347 396.881744 218.803162 396.912292 218.626343 C 396.942841 218.449524 396.975555 218.273071 397.010406 218.096924 C 397.045105 217.920837 397.082031 217.745239 397.121216 217.570251 C 397.16037 217.39502 397.201721 217.220337 397.245209 217.046204 C 397.288513 216.87207 397.334076 216.698425 397.381866 216.525391 C 397.429504 216.352539 397.479248 216.180176 397.531189 216.008423 C 397.58313 215.836609 397.637146 215.665405 397.693207 215.494873 C 397.749268 215.324524 397.807404 215.154785 397.867615 214.985718 C 397.927979 214.816589 397.990326 214.648315 398.054688 214.480835 C 398.119019 214.313354 398.185486 214.146667 398.25415 213.980774 C 398.322601 213.814941 398.393066 213.649841 398.465485 213.485596 C 398.538086 213.321533 398.612671 213.158386 398.68924 212.996094 C 398.765778 212.833618 398.844299 212.672241 398.924805 212.511963 C 399.00531 212.351501 399.087708 212.192078 399.171997 212.033752 C 399.25647 211.875488 399.342804 211.71814 399.43103 211.561768 C 399.519257 211.40564 399.609497 211.250427 399.701691 211.096252 C 399.793701 210.942261 399.887604 210.789429 399.983368 210.637756 C 400.079346 210.485901 400.177002 210.335266 400.276398 210.185974 C 400.375946 210.036621 400.477295 209.88855 400.580444 209.741699 C 400.683594 209.59491 400.788544 209.449341 400.895264 209.305054 C 401.002014 209.160767 401.110474 209.017761 401.220642 208.87616 C 404.886902 204.241943 410.544647 201.209961 416.397003 200.546814 Z"/>
        <path id="path1503" fill="#5c3f4a" stroke="none" d="M 416.870087 202.55127 C 418.260742 202.550476 419.752472 203.036987 420.882202 203.840271 C 421.360382 204.180481 421.911896 204.634705 421.93103 205.281372 C 421.941284 205.631226 421.898407 205.69458 421.672546 205.926697 C 420.892151 206.061462 420.231201 205.325806 419.613098 204.944153 C 418.532715 204.276733 417.202728 204.023621 415.962769 204.321472 C 414.349457 204.708801 413.175262 205.814514 412.318054 207.180664 C 411.861176 208.179077 411.06839 211.540466 410.418762 211.959106 C 410.15271 211.762573 410.170502 211.687134 410.109314 211.373352 C 409.733276 209.444153 410.326569 207.235901 411.463837 205.661133 C 412.787903 203.828125 414.712799 202.93512 416.870087 202.55127 Z"/>
        <path id="path1504" fill="#5c3f4a" stroke="none" d="M 419.010925 215.613525 C 419.900452 215.53125 420.601837 215.521057 421.404327 215.9599 C 423.069397 216.870178 423.943298 218.795105 424.474579 220.536438 C 425.2854 223.194824 425.639069 227.337646 424.210968 229.838867 C 423.614685 230.883118 422.958038 231.340027 421.812439 231.643005 C 421.513763 231.598267 421.212921 231.550537 420.921265 231.469421 C 419.276703 231.012024 417.997101 229.451782 417.216461 227.995117 C 415.802917 225.35614 415.350861 221.822205 416.265472 218.948486 C 416.761169 217.390686 417.563385 216.354797 419.010925 215.613525 Z"/>
        <path id="path1505" fill="#fefefc" stroke="none" d="M 420.057892 217.617371 C 420.972473 217.596375 421.606506 217.806091 422.276337 218.45813 C 422.687958 218.858704 422.974487 219.381897 422.920319 219.973083 C 422.86908 220.53241 422.560974 220.807068 422.14856 221.122192 C 421.326416 221.052612 420.731232 220.796265 420.098053 220.257446 C 419.66217 219.88678 419.281006 219.355225 419.30661 218.755981 C 419.330078 218.207458 419.659729 217.922791 420.057892 217.617371 Z"/>
        <path id="path1506" fill="#fefefc" stroke="none" d="M 452.806458 212.009216 C 453.745056 211.921387 454.734589 211.975281 455.679413 211.970459 C 455.780945 212.282227 455.891541 212.590698 456.01123 212.895813 C 456.131104 213.200928 456.259766 213.502319 456.397247 213.799927 C 456.534912 214.097656 456.681091 214.391052 456.835815 214.680054 C 456.990723 214.968994 457.153961 215.253113 457.325592 215.532349 C 457.497192 215.811646 457.67691 216.085693 457.864716 216.354492 C 458.052673 216.623169 458.248291 216.886047 458.451538 217.14325 C 458.654968 217.400391 458.865753 217.651367 459.083923 217.896118 C 459.302063 218.140869 459.527252 218.378967 459.75943 218.610413 C 459.981903 218.83075 460.210663 219.044373 460.44574 219.251221 C 460.680969 219.458008 460.921936 219.657776 461.168671 219.850403 C 461.415588 220.04303 461.667908 220.228333 461.925598 220.40625 C 462.183472 220.583984 462.446289 220.754089 462.71405 220.916504 C 462.981842 221.078796 463.254059 221.233032 463.530823 221.379333 C 463.807739 221.525635 464.088715 221.663696 464.373718 221.79364 C 464.658569 221.923401 464.947083 222.044617 465.239288 222.157288 C 465.531281 222.270142 465.826477 222.374268 466.124756 222.469666 C 469.358124 223.504822 473.091492 223.611267 476.460419 223.811829 C 480.848297 224.102234 485.240723 224.274414 489.637756 224.328308 C 492.601288 224.342041 495.562927 224.179749 498.527527 224.191101 C 496.081268 230.40979 489.672516 236.671875 484.683563 241.051147 C 473.924713 250.494812 461.708588 258.483154 449.015411 265.070862 C 444.68576 267.317932 440.253143 269.50647 435.62027 271.061035 C 432.153748 272.223877 428.604218 272.920166 424.98053 273.380798 C 421.787628 273.786743 418.531921 274.047974 415.312317 273.940125 C 411.130127 273.799988 406.954956 273.17218 402.77356 272.89801 C 398.378693 269.522644 393.311005 267.210938 388.322021 264.862 C 378.822266 260.572266 368.846191 256.54425 358.606232 254.451416 C 360.008484 250.988953 361.684875 247.525391 363.307587 244.157227 C 364.655396 241.359253 369.233826 231.80365 370.847687 230.023804 C 372.735382 227.942017 387.86673 222.588562 391.117615 221.449707 C 391.117798 223.369141 391.289764 225.273132 391.633545 227.161621 C 392.787781 233.188416 395.949158 238.435059 401.056488 241.878113 C 407.227203 246.038208 414.752167 247.098389 421.972015 245.696167 C 429.243591 244.283936 435.633179 240.632813 439.790314 234.397339 C 443.584076 228.70752 444.695465 221.779114 443.334991 215.095398 C 446.242188 213.124939 449.32782 212.274231 452.806458 212.009216 Z"/>
        <path id="path1507" fill="#5c3f4a" stroke="none" d="M 457.612152 230.483643 C 458.530518 230.62439 461.415588 231.101746 461.967926 231.850037 L 461.843109 232.108032 C 461.270844 232.160034 460.700745 232.144104 460.126831 232.130127 C 459.222198 232.107727 458.196259 232.114197 457.528839 231.41687 C 457.430176 230.990723 457.48465 230.889343 457.612152 230.483643 Z"/>
        <path id="path1508" fill="#5c3f4a" stroke="none" d="M 373.552155 248.825195 C 373.790161 248.859436 373.871826 248.900635 374.046783 249.065613 C 374.079407 249.257568 374.094757 249.420105 374.037079 249.610168 C 373.591217 251.082764 372.176605 252.739441 370.85495 253.459717 C 370.61261 253.443237 370.581635 253.395264 370.384033 253.269348 C 370.352234 253.145935 370.323914 253.074219 370.34198 252.935974 C 370.523651 251.539368 372.446411 249.562927 373.552155 248.825195 Z"/>
        <path id="path1509" fill="#5c3f4a" stroke="none" d="M 370.079712 244.393127 C 370.401825 244.491516 370.271362 244.396057 370.46167 244.691528 C 370.077271 246.338257 367.468231 249.369141 366.171387 250.579712 C 365.954132 250.50293 365.93335 250.472473 365.791046 250.303955 C 365.749268 250.088867 365.723907 249.901489 365.770538 249.683472 C 366.189728 247.722168 368.484192 245.502075 370.079712 244.393127 Z"/>
        <path id="path1510" fill="#5c3f4a" stroke="none" d="M 458.410828 224.567932 C 459.878571 224.810791 465.151398 226.13269 466.045258 227.135742 C 466.204559 227.314697 466.149292 227.346558 466.133667 227.56842 C 465.295898 227.619873 464.534637 227.53418 463.714661 227.374573 C 462.408905 227.120911 459.071259 226.474243 458.366089 225.250977 C 458.233185 225.020813 458.35611 224.812195 458.410828 224.567932 Z"/>
        <path id="path1511" fill="#5c3f4a" stroke="none" d="M 427.364777 249.39801 C 427.475037 249.420654 427.632721 249.446777 427.730835 249.498291 C 428.041656 249.660828 428.072113 249.783752 428.14328 250.093689 C 427.788513 251.147705 426.264435 251.85907 425.499451 252.693054 C 425.460632 252.735657 425.422607 252.779053 425.384338 252.821899 C 426.488617 253.654297 427.652313 254.393372 428.875397 255.039001 C 435.697357 258.626587 440.932983 257.180908 447.89325 255.041748 C 446.016022 256.576843 443.756042 257.57666 441.421967 258.169922 C 441.300293 258.19873 441.178284 258.225586 441.055878 258.250549 C 434.468719 259.58728 430.039856 257.477966 424.683746 253.898499 C 424.099091 254.688354 423.432739 255.437439 422.590363 255.959839 C 421.948029 256.358215 421.067108 256.6922 420.306946 256.485474 C 419.96463 256.392517 419.806366 256.322388 419.618225 256.022644 L 419.698273 255.868469 C 420.049255 255.192688 421.457947 255.267334 422.125397 254.740601 C 424.48053 252.882019 423.712799 251.037476 427.364777 249.39801 Z"/>
        <path id="path1512" fill="#613032" stroke="none" d="M 396.455139 254.402344 C 396.242981 254.407959 396.048096 254.399353 395.837311 254.378906 C 394.140167 254.213074 391.933014 253.764587 390.836456 252.343445 C 390.768341 252.2547 390.705017 252.162659 390.646423 252.067444 C 390.58783 251.972168 390.534454 251.874146 390.486298 251.773315 C 390.437958 251.672363 390.394928 251.569214 390.357178 251.463867 C 390.319611 251.358582 390.287628 251.251587 390.26123 251.142822 C 390.234802 251.034302 390.21405 250.924622 390.198975 250.813721 C 390.183868 250.70282 390.174622 250.591492 390.171204 250.479736 C 390.167786 250.36792 390.170197 250.256287 390.178467 250.144653 C 390.186554 250.033264 390.2005 249.922485 390.220245 249.812317 C 390.480927 248.293884 391.656738 247.053101 392.872162 246.188354 C 395.432953 244.365601 399.556122 243.459656 402.661713 243.977173 C 404.618683 244.152954 407.800018 244.793945 409.127045 246.347107 C 409.603333 246.904602 409.803101 247.595459 409.710907 248.322449 C 409.529236 249.754883 408.327271 250.933411 407.208344 251.744202 C 404.254791 253.884766 400.0513 254.774597 396.455139 254.402344 Z"/>
        <path id="path1513" fill="#e7b99a" stroke="none" d="M 396.780762 253.934937 C 394.905151 253.732727 392.713409 253.420044 391.366425 251.952026 C 390.901428 251.445313 390.651001 250.832581 390.709778 250.140076 C 390.812469 248.929504 391.795837 247.875244 392.701263 247.153625 C 395.47879 244.940308 399.442902 244.125977 402.916443 244.518738 C 404.776123 244.81311 407.614532 245.27887 408.815704 246.90564 C 409.134583 247.337463 409.257233 247.822998 409.170166 248.354797 C 408.956421 249.661072 407.674408 250.690002 406.627441 251.380859 C 403.833466 253.224609 400.112213 254.121216 396.780762 253.934937 Z"/>
        <path id="path1514" fill="#fefefc" stroke="none" d="M 355.03244 262.271545 C 356.824463 262.984497 364.30603 270.94696 366.309113 272.974609 C 367.376831 274.055542 368.624359 275.604919 369.992096 276.293152 C 370.923157 276.761597 380.586243 278.135803 382.563721 278.550964 C 386.586975 279.424316 390.535187 280.558899 394.408356 281.954651 C 393.309937 283.012085 392.225769 284.113281 391.263977 285.297424 C 390.786591 285.884827 390.181976 286.594543 390.267151 287.392456 C 391.397705 288.888763 401.532806 291.633118 403.80542 292.394623 C 407.261963 293.552917 414.956238 296.104279 417.791168 297.882294 L 417.950195 297.983093 C 418.71521 300.379456 419.193146 302.827057 419.689117 305.289459 C 414.945709 303.754059 410.156464 302.268799 405.529266 300.407227 C 401.912598 298.951904 398.416962 297.226715 394.934296 295.480255 C 390.849396 293.431885 386.831909 291.223389 383.192352 288.441284 C 380.129089 286.099365 377.520569 283.356079 374.673248 280.776672 C 375.042175 281.49353 375.434998 282.19696 375.851746 282.887024 C 376.217072 283.475403 376.602539 284.050354 377.008148 284.611938 C 377.413757 285.17334 377.838379 285.720032 378.282074 286.251953 C 378.725769 286.783691 379.187531 287.299377 379.667328 287.79895 C 380.146973 288.298676 380.643494 288.781006 381.156921 289.245911 C 389.111816 296.516174 403.554749 303.53598 413.98584 306.001892 C 409.04187 310.522919 405.90097 319.079224 405.520355 325.630554 C 404.106232 325.158295 402.704834 324.651276 401.316071 324.109436 C 399.927124 323.567444 398.552643 322.991333 397.192627 322.381042 C 395.832458 321.770782 394.488251 321.126984 393.160034 320.449646 C 391.832031 319.772369 390.521606 319.0625 389.228821 318.32016 C 379.428253 312.565094 372.01297 305.797852 366.85498 295.529297 C 365.257324 292.348267 363.908447 289.034851 363.008942 285.589111 C 362.968506 286.995117 363.152069 288.304626 363.40274 289.686371 C 364.999084 295.874878 367.422394 301.621857 371.338531 306.721619 C 379.128204 316.866425 393.475708 324.864746 405.540283 328.558228 C 407.310944 329.090332 409.100342 329.549133 410.908539 329.934601 C 412.716736 330.320068 414.537689 330.630951 416.371399 330.867279 C 415.260559 335.519287 414.475067 340.241669 413.380402 344.890991 C 412.192719 349.9711 410.849152 355.009674 409.349701 360.006744 C 407.85022 365.003784 406.197754 369.949738 404.392242 374.844543 C 404.020447 374.896667 403.647644 374.939972 403.273865 374.974487 C 402.594025 375.036835 401.913666 375.092987 401.232758 375.142944 C 400.551849 375.192902 399.870605 375.236572 399.188995 375.273956 C 398.507172 375.31131 397.825195 375.342407 397.143036 375.367218 C 396.460693 375.391998 395.778259 375.410522 395.095764 375.422729 C 394.413055 375.434967 393.730347 375.440979 393.047638 375.440796 C 392.36496 375.44043 391.682343 375.433807 390.999817 375.420868 C 390.317291 375.407928 389.634857 375.388794 388.952515 375.363434 C 388.270355 375.337921 387.58847 375.306213 386.90686 375.26828 C 386.225037 375.230194 385.543793 375.185883 384.863068 375.135406 C 384.182159 375.084717 383.501801 375.027832 382.82196 374.964752 C 382.142334 374.901672 381.463226 374.832397 380.784637 374.756927 C 380.106079 374.681274 379.428314 374.599426 378.751373 374.511383 C 378.074432 374.423309 377.398285 374.329071 376.722961 374.228607 C 376.047607 374.12796 375.373383 374.02121 374.700195 373.908356 C 374.026825 373.795532 373.354553 373.676361 372.68335 373.550934 C 372.012329 373.42569 371.342499 373.29422 370.673798 373.156555 C 370.005127 373.018921 369.337708 372.875153 368.671539 372.725281 C 368.005554 372.575226 367.341003 372.419159 366.677887 372.25705 C 366.014771 372.094971 365.353088 371.926666 364.692871 371.752197 C 364.032806 371.577881 363.374451 371.397522 362.717804 371.211182 C 362.060974 371.024628 361.405945 370.832092 360.752716 370.633514 C 360.099487 370.434937 359.448242 370.230438 358.798981 370.019989 C 358.149536 369.809387 357.502045 369.592834 356.856537 369.370361 C 356.211029 369.147888 355.567688 368.919586 354.926514 368.685425 C 354.285156 368.45108 353.646118 368.210907 353.00943 367.964874 C 352.372528 367.718689 351.738007 367.466766 351.105804 367.209045 C 350.473602 366.951355 349.843811 366.687805 349.216461 366.418427 C 348.589111 366.149048 347.964355 365.874023 347.342224 365.593323 C 346.71991 365.312439 346.100281 365.025818 345.483368 364.733429 C 344.866241 364.441223 344.251923 364.143372 343.640381 363.839844 C 343.029022 363.536316 342.42038 363.227142 341.814423 362.912292 C 341.208618 362.597443 340.605804 362.27713 340.005951 361.951324 C 336.779602 360.177643 333.26593 358.3255 330.411285 355.988983 C 330.580841 347.269592 332.108704 338.452881 333.852478 329.924622 C 334.732849 325.711243 335.687103 321.514679 336.715179 317.33493 C 337.743469 313.155151 338.84494 308.994812 340.019684 304.853851 C 341.194427 300.712891 342.441681 296.593872 343.761414 292.496796 C 345.081177 288.399872 346.472717 284.327393 347.936066 280.279358 C 349.95047 274.562317 352.213684 267.590454 355.03244 262.271545 Z"/>
        <path id="path1515" fill="#5c3f4a" stroke="none" d="M 376.340179 320.419739 C 376.490051 320.475006 376.576569 320.527283 376.699768 320.641327 C 377.923309 321.773743 378.647858 325.710632 378.844635 327.312592 C 371.785461 332.330414 361.883514 337.179504 353.291656 338.565552 C 352.731506 338.638092 352.158142 338.63269 351.593414 338.650482 C 350.649445 336.242249 350.678802 333.668518 350.709259 331.127106 L 376.340179 320.419739 Z"/>
        <path id="path1516" fill="#fefefc" stroke="none" d="M 376.020203 321.7724 L 376.204865 321.83493 C 377.078491 323.04361 377.367462 325.385803 377.726776 326.83252 C 375.110474 327.884613 372.618683 329.311646 370.080231 330.542694 C 364.674255 333.164978 359.114349 335.595032 353.281677 337.091339 C 353.108063 337.120178 353.009155 337.098358 352.838257 337.066284 C 352.261383 336.075928 352.01178 333.36203 351.779694 332.135529 C 360.351349 329.85614 368.219482 325.909302 376.020203 321.7724 Z"/>
        <path id="path1517" fill="#dad1ca" stroke="none" d="M 370.085632 153.849182 C 372.575256 153.736511 375.328247 154.510193 377.760742 155.03656 C 386.85672 157.004883 395.391724 159.754578 403.936432 163.443542 C 407.277069 164.885864 410.617676 166.346741 413.668823 168.349243 C 412.916565 167.027039 412.125977 165.728149 411.296967 164.452698 C 410.467987 163.177185 409.60202 161.927307 408.698975 160.703003 C 407.796143 159.478638 406.85788 158.282104 405.884247 157.11322 C 404.910614 155.944336 403.903381 154.805237 402.862518 153.695984 C 412.322388 156.954773 423.496368 163.642334 431.378784 169.849304 C 434.289185 172.141113 437.064545 174.689514 439.796783 177.191833 C 438.127136 173.170898 436.422546 169.164795 434.683014 165.173523 C 442.437378 171.539734 448.890594 179.39679 454.908752 187.378113 C 452.065186 186.189941 448.86554 185.517883 445.834351 184.983643 C 433.316345 182.777283 415.109589 187.784607 403.835876 193.353943 C 398.183807 196.146057 393.031464 199.58313 387.869446 203.172607 C 383.315247 200.290466 378.453522 197.755859 373.23703 196.340393 C 367.39679 194.755676 361.234161 194.976685 355.927094 198.04425 C 352.523682 200.011475 350.11084 204.190979 349.143677 207.901184 C 348.025024 212.192566 348.353882 216.404358 350.655365 220.250183 C 354.395203 226.500366 361.069458 228.884094 367.753418 230.59259 C 364.819916 235.40094 362.053619 240.30365 359.454529 245.30072 C 356.855469 250.297729 354.429718 255.377625 352.177277 260.540161 C 349.749817 266.181641 347.478821 271.885315 345.364227 277.651184 C 343.249451 283.417175 341.294159 289.236725 339.498352 295.109863 C 336.468353 304.50827 333.892181 314.02951 331.769867 323.673584 C 329.330902 334.647797 327.392242 345.810455 327.837036 357.099274 C 333.610413 362.878326 343.209381 367.614197 350.782074 370.36853 L 348.170563 379.413544 C 345.802246 377.360596 343.52124 375.210083 341.183105 373.123413 C 339.859314 375.342407 339.52182 377.859802 339.20993 380.376953 L 330.756866 369.962311 C 329.775146 372.93985 329.434143 376.035431 329.385376 379.159637 C 326.921967 375.321838 324.679779 371.358887 322.658813 367.270782 C 321.680328 365.27713 320.967621 362.992889 319.759979 361.140228 C 317.973633 365.853729 316.685425 369.867706 316.253052 374.927826 C 313.332123 367.552734 311.507477 359.663055 310.302002 351.839935 C 306.682922 355.566864 305.117615 361.952393 303.743134 366.869415 C 303.334229 362.984558 302.612061 359.130127 302.207184 355.237427 C 301.600952 349.406647 301.477509 343.628418 301.48288 337.772522 C 296.004669 343.931366 293.282684 350.804291 290.806519 358.536835 C 290.467133 353.760803 290.204315 349.050568 290.291931 344.257538 C 290.321594 337.221558 290.803558 329.528656 293.158691 322.86084 C 286.825134 328.706207 283.268066 334.114075 279.518768 341.81131 C 279.809357 338.456146 279.846039 335.089081 280.174072 331.725006 C 281.123993 321.988586 283.750031 307.718445 288.103943 298.895538 C 286.998199 299.709625 285.979279 300.706696 284.951172 301.617798 C 280.246857 305.787598 275.507629 310.490021 271.694214 315.512695 C 273.691589 304.745209 276.784241 294.65567 281.329681 284.689026 C 282.586609 281.9328 283.882385 279.137756 285.37384 276.500427 C 283.961914 277.699402 282.410583 278.745544 280.900269 279.816223 C 275.957306 283.32019 270.684235 286.516907 266.280426 290.70636 C 266.984741 288.774994 267.836914 286.879761 268.629242 284.982605 C 271.881714 277.194519 275.620941 269.658752 280.195374 262.552673 C 282.646454 258.745178 285.529907 255.202637 287.90094 251.353394 C 285.401062 253.046997 282.975861 254.703735 280.365997 256.237488 C 275.387726 259.16272 270.194397 261.833252 265.561523 265.301941 C 266.898376 262.683716 268.648438 260.283569 270.284241 257.847839 C 271.834656 255.508789 273.443787 253.210999 275.111633 250.954407 C 276.77948 248.697693 278.503906 246.484985 280.284851 244.316284 C 282.065735 242.147766 283.900909 240.026184 285.790314 237.951477 C 287.679718 235.876587 289.620911 233.85144 291.613831 231.875916 C 286.760712 234.328369 281.560425 236.041931 276.582367 238.235046 C 274.820435 239.011108 273.036011 239.768311 271.387817 240.770264 C 278.247803 231.779175 285.834259 224.196472 294.700562 217.1651 C 298.679504 214.009338 302.957092 211.186829 306.824463 207.898193 C 305.686646 208.311707 304.540222 208.729797 303.444458 209.245483 C 302.007996 209.921265 300.584991 210.740417 299.059296 211.196533 C 297.058899 211.794434 294.736938 211.908936 292.671326 212.33728 C 287.355896 213.438965 281.951263 214.736633 276.815826 216.496826 C 280.788391 212.98291 285.266022 209.869202 289.650391 206.901367 C 293.586456 204.186951 297.604767 201.600159 301.705292 199.141113 C 305.805603 196.681824 309.979889 194.355103 314.228119 192.160889 C 304.663147 191.807251 295.234528 192.140137 285.837769 194.066956 C 288.795624 192.103455 292.009003 190.484253 295.180359 188.898987 C 306.39209 183.294617 318.657227 178.588135 331.22348 177.446533 C 327.15506 175.000305 322.226166 173.671631 317.506744 173.246521 C 315.789398 173.091858 314.065308 173.13092 312.345276 172.967834 C 314.077728 172.242981 316.00235 171.822205 317.815674 171.328674 C 318.993988 170.997437 320.177551 170.686462 321.366302 170.395691 C 322.555206 170.105103 323.748718 169.834961 324.946808 169.585144 C 326.144928 169.335388 327.346954 169.10614 328.552979 168.897522 C 329.758972 168.688904 330.968109 168.500977 332.18042 168.333862 C 333.3927 168.166748 334.607513 168.020386 335.824829 167.894775 C 337.042145 167.769104 338.261261 167.66449 339.482178 167.580688 C 340.703094 167.496948 341.92511 167.434082 343.148193 167.392029 C 344.371063 167.350159 345.594421 167.329285 346.818207 167.329285 C 350.656158 167.331177 354.208679 167.365051 357.889221 168.604248 C 353.641541 164.35553 348.124756 162.223938 342.533844 160.395508 C 355.772919 159.029663 369.613922 160.608459 382.322205 164.449463 C 378.466187 160.613281 374.557861 156.970276 370.085632 153.849182 Z"/>
        <path id="path1518" fill="#5c3f4a" stroke="none" d="M 410.353516 171.608704 C 412.703003 172.037354 416.790833 176.00061 418.098206 177.910156 C 418.634613 178.693542 418.906067 179.207275 418.721405 180.1521 C 418.442139 180.24646 418.144012 180.30011 417.849396 180.259644 C 415.340881 179.915405 411.898621 173.591614 410.353516 171.608704 Z"/>
        <path id="path1519" fill="#5c3f4a" stroke="none" d="M 316.985168 324.900879 C 317.273315 324.953156 317.602448 325.00061 317.853668 325.161011 C 318.199524 325.381744 318.427307 325.66507 318.497925 326.078308 C 318.861023 328.212128 314.314911 334.336182 313.045044 336.153839 C 312.740173 336.589966 312.362518 336.982727 312.011017 337.381927 C 312.543396 334.259918 313.743195 330.137299 314.988556 327.234955 C 315.427399 326.21225 315.910156 325.32489 316.985168 324.900879 Z"/>
        <path id="path1520" fill="#5c3f4a" stroke="none" d="M 384.990021 171.637817 C 388.161652 172.475098 394.690887 175.420837 396.640564 178.15387 C 397.158142 178.879272 397.275665 179.479004 397.145996 180.34967 C 396.982666 180.391479 396.808777 180.442383 396.64032 180.461243 C 393.941772 180.760498 387.492859 173.508301 385.157135 171.761536 L 384.990021 171.637817 Z"/>
        <path id="path1521" fill="#5c3f4a" stroke="none" d="M 324.4263 290.926605 C 325.079437 290.895599 325.914001 290.946838 326.407288 291.434479 C 326.608917 291.633942 326.613495 291.926666 326.570892 292.187866 C 326.235565 294.237579 318.538086 299.668915 316.74176 301.068726 C 316.379456 301.38681 315.939819 301.653137 315.545197 301.932648 C 317.226959 298.648651 321.28891 292.721588 324.4263 290.926605 Z"/>
        <path id="path1522" fill="#5c3f4a" stroke="none" d="M 303.985474 309.271362 C 304.690369 309.174591 305.295258 309.250885 305.878845 309.677582 C 306.052704 309.929901 306.129517 310.111572 306.115234 310.425598 C 306.010651 312.720093 300.055847 318.199677 298.289978 319.955841 L 297.0271 321.138916 C 298.362213 317.49826 300.765869 311.50708 303.985474 309.271362 Z"/>
        <path id="path1523" fill="#5c3f4a" stroke="none" d="M 354.748047 180.726807 C 357.254669 180.548645 359.990417 180.870483 362.43045 181.440063 C 364.195801 181.852173 367.962067 182.808044 368.911163 184.493042 C 369.173981 184.959656 369.086395 185.315491 368.958618 185.796631 C 368.606567 185.908203 368.242126 186.012024 367.871216 186.027893 C 366.931793 186.068604 365.886719 185.787476 364.99826 185.502014 C 363.157196 184.910339 355.975098 181.819824 354.748047 180.726807 Z"/>
        <path id="path1524" fill="#5c3f4a" stroke="none" d="M 334.674896 195.425476 C 335.677399 195.342712 336.779602 195.244629 337.75647 195.531982 C 338.316345 195.696655 339.092957 196.077026 339.311829 196.667358 C 339.417786 196.95282 339.401062 197.245544 339.226379 197.499207 C 338.971649 197.869568 338.38858 198.059326 337.974548 198.154785 C 336.674469 198.453979 335.146362 198.408447 333.81015 198.465332 L 327.265015 198.732178 C 325.457642 198.770691 323.648376 198.899841 321.844208 199.008179 C 325.838257 197.352051 330.360077 195.901794 334.674896 195.425476 Z"/>
        <path id="path1525" fill="#5c3f4a" stroke="none" d="M 328.041626 262.245117 C 328.403076 262.247253 328.795837 262.231628 329.142487 262.347534 C 329.509094 262.470215 329.797241 262.722534 329.962494 263.070801 C 330.076233 263.310425 330.054962 263.628784 329.955475 263.873779 C 329.095581 265.994385 319.638153 269.975769 317.173859 271.092285 C 316.681366 271.342163 316.141724 271.515503 315.624695 271.710938 C 318.11084 268.718262 324.244904 263.029785 328.041626 262.245117 Z"/>
        <path id="path1526" fill="#5c3f4a" stroke="none" d="M 342.218201 236.528198 C 342.593414 236.562683 342.972168 236.591003 343.318817 236.750061 C 343.765747 236.954651 344.186523 237.369751 344.312134 237.858459 C 344.403778 238.2146 344.389496 238.486267 344.201874 238.805176 C 343.96521 239.207642 343.462494 239.468018 343.051666 239.646179 C 341.748901 240.211182 340.262543 240.480774 338.898071 240.872986 C 336.287384 241.623169 333.695068 242.38623 331.066315 243.080078 L 329.069977 243.669617 C 331.638336 240.775879 338.379974 236.891846 342.218201 236.528198 Z"/>
        <path id="path1527" fill="#5c3f4a" stroke="none" d="M 320.245728 218.722839 C 320.638214 218.704224 321.04364 218.695862 321.434753 218.739807 C 321.92453 218.794861 322.467712 219.006165 322.738342 219.442017 C 322.954254 219.790039 323.024078 220.334229 322.848328 220.708435 C 322.619446 221.195801 322.142334 221.448608 321.67926 221.671021 C 319.910126 222.520081 317.769592 222.927673 315.877563 223.43335 C 313.302002 224.145752 310.722534 224.843262 308.139099 225.52594 C 307.318542 225.762329 306.479431 225.945923 305.648926 226.144836 C 309.092773 223.580566 316.061127 219.583252 320.245728 218.722839 Z"/>
        <path id="path1528" fill="#5c3f4a" stroke="none" d="M 306.305542 245.936584 C 306.658661 245.913147 307.008301 245.905884 307.36087 245.946838 C 307.748505 245.991882 308.180054 246.148743 308.376038 246.514771 C 308.513489 246.771423 308.498932 246.982239 308.416199 247.249084 C 308.205139 247.931335 307.44577 248.520569 306.888611 248.913879 C 305.325439 250.016602 303.474396 250.827698 301.767548 251.690857 L 294.113464 255.559814 L 292.397461 256.34906 C 295.091675 252.930542 302.203156 247.161987 306.305542 245.936584 Z"/>
        <path id="path1529" fill="#5c3f4a" stroke="none" d="M 302.12149 276.923096 C 302.195618 276.922546 302.269745 276.920654 302.343872 276.920898 C 303.00885 276.923096 303.690033 277.119324 304.129944 277.656799 C 304.339142 277.911804 304.422974 278.208313 304.34317 278.534485 C 304.224304 279.021851 303.656342 279.440186 303.283539 279.725159 C 301.755157 280.89447 299.864471 281.81366 298.198334 282.791077 C 295.548859 284.345642 292.932251 285.972107 290.224823 287.4245 C 289.529877 287.778748 288.815552 288.101898 288.110657 288.436432 C 291.238892 284.672607 297.483459 278.54071 302.12149 276.923096 Z"/>
    </g>
</svg>
