<?xml version="1.0" encoding="UTF-8"?>
<!-- Generated by Pixelmator Pro 2.4.7 -->
<svg width="800" height="800" viewBox="0 0 800 800" xmlns="http://www.w3.org/2000/svg" xmlns:xlink="http://www.w3.org/1999/xlink">
    <path id="path1523" fill="#ce4444" stroke="none" d="M 330.948761 471.089996 L 411.277496 517.467529 L 248.15625 800 L 201.33725 695.58252 L 330.948761 471.089996 Z"/>
    <path id="path1524" fill="#983535" stroke="none" d="M 330.948761 471.089996 L 250.620743 424.712524 L 87.5 707.244995 L 201.33725 695.58252 L 330.948761 471.089996 Z"/>
    <path id="path1525" fill="#983535" stroke="none" d="M 445.549988 471.089996 L 365.220001 517.467529 L 528.342468 800 L 575.159973 695.58252 L 445.549988 471.089996 Z"/>
    <path id="path1526" fill="#ce4444" stroke="none" d="M 445.549988 471.089996 L 525.877502 424.712524 L 688.997498 707.244995 L 575.159973 695.58252 L 445.549988 471.089996 Z"/>
    <linearGradient id="linearGradient1" x1="367.01" y1="100.798" x2="404.5325" y2="799.125" gradientUnits="userSpaceOnUse">
        <stop offset="1e-05" stop-color="#ffc600" stop-opacity="1"/>
        <stop offset="1" stop-color="#ffde69" stop-opacity="1"/>
    </linearGradient>
    <path id="path1527" fill="url(#linearGradient1)" stroke="none" d="M 662.340027 276.554993 C 662.340027 429.290009 538.522461 553.107483 385.785004 553.107483 C 233.048492 553.107483 109.231224 429.290009 109.231224 276.554993 C 109.231224 123.817505 233.048492 0 385.785004 0 C 538.522461 0 662.340027 123.817505 662.340027 276.554993 Z"/>
    <path id="path1528" fill="#a88300" stroke="none" d="M 601.662476 276.55249 C 601.662476 395.777527 505.009979 492.430023 385.787506 492.430023 C 266.561737 492.430023 169.911255 395.777527 169.911255 276.55249 C 169.911255 157.328735 266.561737 60.678223 385.787506 60.678223 C 505.009979 60.678223 601.662476 157.328735 601.662476 276.55249 Z"/>
    <path id="path1529" fill="#c28b37" stroke="none" d="M 613.692505 299.600006 C 613.692505 419.102478 516.817505 515.977478 397.315002 515.977478 C 277.812744 515.977478 180.936996 419.102478 180.936996 299.600006 C 180.936996 180.097229 277.812744 83.221741 397.315002 83.221741 C 516.817505 83.221741 613.692505 180.097229 613.692505 299.600006 Z"/>
    <path id="path1530" fill="#c09525" stroke="none" d="M 602.169983 276.55249 C 602.169983 396.054993 505.294983 492.929993 385.79248 492.929993 C 266.289734 492.929993 169.414001 396.054993 169.414001 276.55249 C 169.414001 157.05127 266.289734 60.175476 385.79248 60.175476 C 505.294983 60.175476 602.169983 157.05127 602.169983 276.55249 Z"/>
    <g id="reading">
        <path id="path1531" fill="#211717" stroke="none" d="M 397.868744 150.521362 C 398.611481 150.585754 399.369324 150.879211 400.078094 151.111938 C 405.428284 152.868896 410.639648 156.678711 414.568878 160.665771 C 413.715698 157.297546 413.584839 153.370178 410.87616 150.871399 C 418.075226 153.39679 426.249023 158.910156 431.071777 164.878418 C 431.001404 161.176331 430.855133 157.685181 430.032776 154.059814 C 431.269531 154.774475 432.422119 155.735718 433.546844 156.616943 C 438.836243 160.760498 442.983154 165.640808 446.229065 171.529602 C 446.987213 168.436829 447.598541 164.540771 447.189484 161.394775 C 452.896454 166.863525 455.584412 175.223633 456.806549 182.827271 C 457.638733 179.404785 458.023926 176.010437 457.994446 172.489502 C 459.783356 178.279541 460.792053 184.712219 460.566406 190.782898 C 460.491852 192.792603 459.853668 197.37085 460.202484 199.060486 C 460.558472 200.786438 461.946228 202.636353 462.84375 204.137756 C 463.007782 203.963806 463.175903 203.793945 463.348083 203.628113 C 466.133759 200.947327 469.815582 199.279175 473.719574 199.372131 C 477.169922 199.454102 480.296417 200.914917 482.658691 203.41333 C 486.371552 207.340454 487.770233 212.804016 487.586823 218.108276 C 487.422241 222.872864 485.842255 226.505554 482.374115 229.752869 C 486.360413 231.085693 490.460052 232.232971 494.618378 232.863953 C 496.929138 231.357483 498.970978 229.690491 501.788513 229.24054 C 503.480225 228.970581 505.33017 229.075684 506.744232 230.146484 C 508.015747 231.10907 508.72821 232.680786 508.93924 234.232056 C 509.292297 236.827148 508.058472 239.544312 506.483551 241.542908 C 503.760803 244.998291 499.09787 248.028687 495.359528 250.341858 C 482.359253 258.38562 467.357483 263.453613 452.29068 265.833374 C 447.544128 266.583008 442.778748 266.932922 438.009094 267.470154 C 441.117523 271.215393 444.133331 274.450256 446.345886 278.874756 C 445.005096 281.459473 442.801025 283.827026 440.898804 286.013062 C 449.519379 287.025513 458.500427 289.668854 465.771942 294.498505 C 468.015533 289.265656 471.717285 284.718201 475.826202 280.809143 C 477.351501 279.35791 478.98111 278.02002 480.476135 276.537231 C 483.417328 276.876465 486.282623 277.597412 489.131989 278.376282 C 489.798553 278.052673 490.447327 277.66803 491.097687 277.311279 C 491.67688 277.899231 492.613159 278.63562 492.879639 279.41925 C 493.065735 279.966858 492.669678 280.687561 492.431854 281.187683 C 491.254028 283.663025 489.710968 286.017334 488.372528 288.412476 C 487.054565 290.771545 485.861633 293.201782 484.56543 295.574097 C 482.615143 299.143127 480.555786 302.710541 478.839905 306.398468 C 479.352722 307.401855 479.753571 308.287964 479.79364 309.442139 C 479.876465 311.828278 478.51947 313.637329 477.713837 315.759369 C 477.249023 316.983887 477.412018 318.468048 476.999237 319.752045 C 476.366394 321.720642 475.051086 322.773682 474.003357 324.425323 C 473.657196 324.970551 473.470856 325.649872 473.219208 326.244202 C 472.7565 327.336517 471.950623 328.280212 471.132233 329.125427 C 469.535767 330.774933 467.261932 332.630981 464.880554 332.672119 C 460.693054 337.98941 455.980743 344.067719 450.657104 348.271942 C 447.678711 350.624115 447.078278 350.572906 443.430695 350.140747 C 444.298981 354.681549 445.193024 359.216034 445.882416 363.788177 C 446.124237 365.391785 446.4263 367.024811 446.554779 368.640381 C 446.638397 369.690765 446.447296 370.359711 445.743835 371.160583 C 443.287079 373.958191 437.728516 376.550568 434.203033 377.577881 C 432.344604 378.119385 430.52121 378.420166 428.598541 378.582611 L 427.982971 382.140747 C 428.703674 383.225647 429.450897 383.976074 430.473969 384.779846 C 432.121887 384.983185 433.74646 385.511169 435.343689 385.956085 C 439.538879 387.124603 447.180725 389.087097 449.807892 392.636719 C 450.077606 393.00119 450.173706 393.268768 450.11557 393.730652 C 449.853851 394.258911 449.447693 394.486664 448.923431 394.719452 C 448.540283 394.88916 448.147491 395.032166 447.745087 395.148407 C 447.342468 395.264709 446.933929 395.353271 446.51947 395.414154 C 438.986755 396.507263 407.023376 394.936066 400.548218 392.252594 C 400.041992 392.042908 399.600281 391.817535 399.242981 391.391205 C 397.83847 389.715424 395.258545 383.189545 394.338196 380.909058 C 390.760193 382.062714 387.02713 382.869415 383.337891 383.578156 C 371.713196 385.811676 361.22995 386.365662 349.407776 386.27887 C 350.484985 388.211639 352.01825 389.769318 353.194458 391.621643 C 357.735016 392.605133 363.171204 394.69928 366.141602 398.472412 C 366.586792 399.038086 366.984161 399.564484 366.891266 400.312531 C 366.490173 401.022339 365.915985 401.284882 365.163422 401.553528 C 356.732666 404.565613 340.464691 402.706635 331.717255 401.00058 C 328.28363 400.330841 324.552948 399.592377 321.383728 398.061249 C 320.447998 396.65567 319.710846 395.169678 319.023315 393.630585 C 317.932037 391.10611 316.842102 388.560974 315.85144 385.995636 C 315.164978 384.218719 314.58548 382.36557 313.755951 380.652069 C 306.398407 378.470062 295.875885 374.345734 290.388184 369.039612 C 290.184845 362.545074 290.224152 356.606628 290.944305 350.145233 C 289.371765 351.125031 287.849945 352.158173 286.218201 353.041351 C 287.325134 350.360016 288.403412 347.687683 289.398865 344.961243 C 285.139679 346.84967 280.730255 347.72406 276.116821 348.148529 C 277.237396 346.669159 278.700867 345.36499 279.916901 343.950134 C 282.312866 341.162079 284.013885 338.166992 285.654114 334.902435 C 281.490234 336.458801 276.670135 337.143677 272.264343 337.611664 C 275.837769 333.968079 278.725006 329.930786 281.464752 325.640808 C 277.174194 326.762909 272.361389 327.617126 267.9505 326.852356 C 272.379211 322.980469 276.817963 317.154327 280.251373 312.330536 C 275.354584 314.257446 268.993896 314.45813 263.777527 314.182037 C 265.198303 312.583252 266.857117 311.139435 268.355957 309.602203 C 271.561707 306.319977 274.629211 302.913269 277.558502 299.382019 C 272.754608 300.832733 267.933807 301.635193 263 302.435272 C 268.041107 297.279663 272.628021 291.59845 277.452393 286.234436 C 273.86203 287.4375 270.106659 287.933105 266.536957 289.115143 C 267.655426 287.283508 269.450104 285.679138 270.941589 284.14325 C 274.139099 280.850281 277.524628 277.665649 280.411438 274.092957 C 275.157715 275.301514 269.865723 276.224487 264.601044 277.367004 C 266.244904 275.074036 268.38504 273.216919 270.384613 271.242737 C 273.957947 267.715149 277.538391 264.011597 281.578613 261.01355 C 277.053558 262.303955 272.416901 263.176758 267.887421 264.450623 C 271.478455 258.87085 279.219818 252.79541 284.499939 248.664185 C 279.913177 249.525085 275.410736 250.25824 270.879761 251.422241 C 275.392181 245.874573 286.250061 238.90802 292.452606 234.751038 C 287.607574 235.571838 282.757507 236.245789 277.895172 236.947937 C 282.245972 232.79071 288.370483 228.497009 293.457611 225.279175 C 295.207214 224.172485 297.021057 223.174683 298.766388 222.059265 C 294.537201 222.738037 290.237427 223.114441 285.985138 223.646423 C 287.332581 222.769043 288.864746 222.10968 290.263977 221.307495 C 292.026825 220.29718 293.678223 219.110352 295.45993 218.125488 C 297.5047 216.995239 299.658569 216.081543 301.711334 214.966614 C 296.761688 214.530762 291.910828 214.363525 286.976868 215.014648 C 290.202362 213.15094 293.338165 211.119446 296.652588 209.415222 C 298.611115 208.408081 300.657471 207.671997 302.631104 206.719849 C 302.581726 205.91394 302.483521 205.088379 302.709961 204.301575 C 303.381561 201.968506 306.22348 200.679443 308.189941 199.570129 C 305.998383 199.753052 303.667969 199.870911 301.506378 200.261658 C 299.747772 200.579651 297.982513 201.148499 296.244598 201.582275 C 304.751007 195.810791 314.569824 190.665283 324.023895 186.63916 C 320.1828 185.335022 316.806519 184.619873 312.85022 183.819519 C 314.05661 183.266846 315.274078 182.739868 316.502594 182.238525 C 317.73111 181.737183 318.969604 181.261902 320.218109 180.812744 C 321.466614 180.363586 322.724091 179.940857 323.990479 179.544434 C 325.256836 179.148193 326.531006 178.778748 327.812988 178.436157 C 329.094757 178.093567 330.38327 177.778076 331.678497 177.489807 C 332.973724 177.201355 334.274445 176.940308 335.580627 176.706726 C 336.886841 176.473145 338.197296 176.267151 339.511993 176.088745 C 340.826843 175.9104 342.144928 175.759705 343.466156 175.636719 C 341.166809 174.22876 338.800568 172.925354 336.261536 171.999451 C 334.00174 171.175232 331.655914 170.599487 329.377533 169.825439 C 338.72757 168.183594 347.925232 167.006592 357.443024 167.402405 C 354.5849 165.230896 351.552368 163.881348 348.321014 162.395203 C 346.50293 161.559021 344.719086 160.6922 342.863586 159.938232 C 349.57901 159.080444 356.002136 159.058655 362.758148 159.570618 C 366.719788 159.87085 370.546539 160.259766 374.362396 161.446716 C 371.722229 158.252197 368.488495 156.114441 365.437622 153.398804 C 366.562988 153.530884 367.685394 153.683716 368.804901 153.857361 C 369.924591 154.030945 371.040619 154.225159 372.153046 154.440063 C 373.265472 154.654907 374.373566 154.890259 375.477295 155.146118 C 376.581055 155.401978 377.679749 155.678101 378.773438 155.974609 C 379.866913 156.271057 380.954559 156.587646 382.036377 156.924316 C 383.118164 157.261047 384.19342 157.617615 385.262146 157.99408 C 386.330658 158.370544 387.391968 158.766602 388.445984 159.182312 C 389.5 159.598022 390.545959 160.03302 391.583893 160.487427 C 389.619537 158.221313 387.46698 155.866516 385.110046 154.00769 C 383.974182 153.112061 382.694427 152.431641 381.564941 151.529663 L 381.428223 151.418396 C 388.411194 151.948547 397.546753 154.558655 404.01181 157.287964 C 402.136139 154.811646 400.436462 152.342651 397.868744 150.521362 Z"/>
        <path id="path1532" fill="#b1a092" stroke="none" d="M 489.502319 279.955444 C 489.721832 280.331848 489.923035 280.700317 490.22168 281.022034 L 489.41922 281.673157 C 489.031921 281.430298 488.647278 281.234131 488.395111 280.839661 L 489.502319 279.955444 Z"/>
        <path id="path1533" fill="#e0ddd1" stroke="none" d="M 489.502319 279.955444 C 489.894928 279.651489 490.302917 279.312256 490.835938 279.405396 C 491.03476 279.440186 491.056274 279.548767 491.168823 279.699036 C 491.100586 280.344299 490.840179 280.519531 490.350677 280.918213 L 490.22168 281.022034 C 489.923035 280.700317 489.721832 280.331848 489.502319 279.955444 Z"/>
        <path id="path1534" fill="#fefefd" stroke="none" d="M 443.447693 390.509125 C 444.596039 390.697601 446.579468 391.84964 447.433441 392.6492 C 447.663849 392.865265 447.665192 392.907745 447.677399 393.205322 C 447.423065 393.339905 447.158447 393.447144 446.89325 393.558105 C 446.339264 393.434143 444.092987 391.032867 443.447693 390.509125 Z"/>
        <path id="path1535" fill="#96867a" stroke="none" d="M 291.344086 344.148682 C 291.361877 344.165405 291.382324 344.179749 291.397705 344.198853 C 291.76004 344.645355 291.304016 347.487 291.236053 348.185944 C 290.77124 348.633484 290.237671 348.992401 289.714478 349.367737 L 289.660583 349.312805 C 289.474243 348.536346 290.965027 345.005829 291.344086 344.148682 Z"/>
        <path id="path1536" fill="#fefefd" stroke="none" d="M 471.364746 325.882385 L 471.4534 326.036621 C 470.538666 327.79364 468.373901 329.305115 466.766052 330.379395 L 466.700226 330.205536 C 467.178741 329.352203 467.634186 328.486725 468.066498 327.609161 C 469.325531 327.173279 470.303467 326.69281 471.364746 325.882385 Z"/>
        <path id="path1537" fill="#96867a" stroke="none" d="M 402.884979 337.000336 C 403.468994 337.172516 404.050842 337.351624 404.630585 337.537598 L 402.083588 342.764343 L 400.277985 342.055054 C 401.117065 340.352203 401.955902 338.656219 402.884979 337.000336 Z"/>
        <path id="path1538" fill="#96867a" stroke="none" d="M 470.304535 214.318665 C 470.372498 214.354492 470.443359 214.385254 470.508392 214.426453 C 471.273682 214.909546 471.678528 216.017822 471.822388 216.859802 C 472.051483 218.201965 471.950623 219.767883 471.143097 220.902161 L 470.934723 220.852783 C 470.230225 220.172974 469.886444 219.271179 469.710449 218.322754 C 469.450562 216.921692 469.487213 215.528076 470.304535 214.318665 Z"/>
        <path id="path1539" fill="#fefefd" stroke="none" d="M 412.01123 311.58725 C 412.17157 311.60611 412.331116 311.628387 412.489044 311.662903 C 413.81604 311.953064 415.164551 312.654907 415.934357 313.789703 L 415.027283 315.727264 C 414.174683 315.680267 413.219574 315.456482 412.408875 315.186523 C 411.938751 315.029907 411.545898 314.779053 411.339905 314.309723 C 410.953125 313.428955 411.643311 312.362915 412.01123 311.58725 Z"/>
        <path id="path1540" fill="#fefefd" stroke="none" d="M 430.174255 279.516357 C 430.970367 280.421021 431.568939 281.729431 432.066925 282.818604 C 431.916687 283.80957 431.606384 284.798096 431.352356 285.768555 C 430.581207 285.812134 429.80899 285.89386 429.039185 285.960999 C 428.770569 285.959167 428.837463 285.985413 428.632507 285.911682 C 428.356995 285.812622 427.625916 283.630859 427.438507 283.209106 C 427.532501 283.098389 427.624329 282.984802 427.719635 282.874878 C 428.63385 281.820007 429.392242 280.670044 430.174255 279.516357 Z"/>
        <path id="path1541" fill="#fefefd" stroke="none" d="M 475.891235 316.983093 L 475.957611 317.060089 C 476.037781 317.488251 475.922028 317.963165 475.788788 318.370605 C 474.785095 321.434998 471.655426 324.875519 468.804749 326.294373 L 468.708649 326.230652 C 468.358246 325.455261 469.578522 322.605103 469.874786 321.76947 C 472.11441 320.403717 474.011047 318.796143 475.891235 316.983093 Z"/>
        <path id="path1542" fill="#fefefd" stroke="none" d="M 477.549255 307.915802 C 477.58429 307.952423 477.623322 307.985596 477.654114 308.025421 C 478.078827 308.571991 478.144409 309.394623 478.087067 310.060913 C 477.757385 313.899078 473.799225 317.343048 471.092682 319.673981 C 470.960754 319.74939 471.051788 319.706909 470.801727 319.753357 C 470.798004 319.712494 470.789764 319.6716 470.790314 319.630188 C 470.800934 319.042206 471.298676 318.144989 471.489258 317.558319 C 473.164001 312.401917 473.857086 311.97348 477.549255 307.915802 Z"/>
        <path id="path1543" fill="#fefefd" stroke="none" d="M 350.097961 392.530518 C 350.402863 392.523285 350.707153 392.534515 351.010834 392.56424 C 354.865479 392.96933 362.206024 395.983521 364.558716 399.134186 C 364.739502 399.376556 364.739777 399.355835 364.690125 399.671204 L 364.350616 399.903229 L 361.34967 400.63028 C 358.066559 396.729736 354.569489 394.763245 350.097961 392.530518 Z"/>
        <path id="path1544" fill="#96867a" stroke="none" d="M 307.243347 234.810791 L 307.406586 234.84021 C 307.925293 235.46936 308.504242 238.187073 308.785095 239.08905 C 305.306885 239.559204 301.850433 240.111328 298.362915 240.524109 C 297.795898 240.561523 297.225189 240.64624 296.660034 240.709106 C 299.270752 238.479309 304.038025 236.243164 307.243347 234.810791 Z"/>
        <path id="path1545" fill="#96867a" stroke="none" d="M 459.524506 211.123962 C 461.380554 211.018799 462.609863 211.469299 464.196198 212.369446 C 464.478119 212.987671 464.689941 213.640137 464.920105 214.279358 C 464.522461 214.110352 464.119781 213.954163 463.712036 213.810852 C 461.092529 212.883606 458.476501 213.66272 456.072601 214.80603 C 454.805298 215.447083 453.665466 216.259094 452.499329 217.063721 C 452.276093 216.032166 451.975067 215.00885 451.707214 213.987366 C 454.272278 212.559265 456.554657 211.387817 459.524506 211.123962 Z"/>
        <path id="path1546" fill="#fefefd" stroke="none" d="M 434.767914 269.44165 L 434.949493 269.551819 C 434.439819 273.348328 433.611603 277.068665 432.778351 280.803528 C 431.883514 279.405701 431.137848 277.947327 430.149323 276.60437 C 428.737366 274.889038 427.124207 273.887451 425.295776 272.690002 C 428.738434 272.207153 431.777069 271.229736 434.767914 269.44165 Z"/>
        <path id="path1547" fill="#96867a" stroke="none" d="M 495.156189 236.972595 C 495.089294 236.403748 495.016541 235.78949 495.14502 235.224854 C 495.366425 234.251221 496.182953 233.575378 496.983551 233.057495 C 499.064697 231.711121 502.217194 230.409302 504.731567 231.012695 C 505.757813 231.259033 506.301178 231.707886 506.845886 232.594543 C 505.145142 234.871582 501.546143 236.36792 498.806152 236.753357 C 497.595398 236.923767 496.377777 236.970215 495.156189 236.972595 Z"/>
        <g id="g8">
            <path id="path1548" fill="#b1a092" stroke="none" d="M 417.338867 289.743988 C 417.432556 290.797821 416.480652 293.830078 416.25528 295.10321 L 416.128387 295.093628 L 415.849945 294.632294 L 414.888458 292.990997 C 415.625092 291.818481 416.33252 290.7052 417.338867 289.743988 Z"/>
            <path id="path1549" fill="#96867a" stroke="none" d="M 425.549286 284.002808 C 425.801208 283.955811 425.959686 283.901917 426.195679 284.055359 C 426.8508 284.481934 427.065826 285.464355 427.269409 286.169678 C 425.25174 287.762939 423.22525 288.899841 421.605743 290.969299 L 420.707184 292.551941 C 421.386475 289.604614 422.121246 286.839661 423.3349 284.05719 C 424.083191 284.08136 424.803101 284.067322 425.549286 284.002808 Z"/>
            <path id="path1550" fill="#96867a" stroke="none" d="M 421.434235 284.839233 C 421.632294 285.709656 420.477051 288.755707 420.26944 289.789124 C 420.093964 290.661652 420.012512 291.55304 419.846588 292.429047 C 419.660767 293.41095 418.839172 297.293427 418.081329 297.81134 L 417.838959 297.54483 C 417.587067 297.218872 417.327972 296.896881 417.245667 296.483551 C 416.9104 294.7966 417.897919 292.332672 418.2146 290.645996 C 418.362457 289.858917 418.410767 289.070801 418.448181 288.272064 C 419.278534 286.992065 420.364471 285.916138 421.434235 284.839233 Z"/>
            <path id="path1551" fill="#96867a" stroke="none" d="M 423.203217 273.206055 C 425.859619 274.119202 427.638153 275.869568 429.427826 277.988159 C 428.873291 279.278259 428.041107 280.615906 427.13855 281.694153 C 426.343781 282.643677 425.607178 283.18811 424.365356 283.304138 C 422.616577 282.8255 419.710663 279.490906 418.152466 278.147705 C 419.627594 276.258728 421.155518 274.486572 423.203217 273.206055 Z"/>
        </g>
        <path id="path1552" fill="#fefefd" stroke="none" d="M 348.241638 392.577271 C 348.269531 392.578308 348.298187 392.574066 348.325256 392.58017 C 349.207092 392.775024 350.267853 393.426422 351.063385 393.857544 C 354.548248 395.744354 357.449371 397.751465 359.984985 400.842896 C 357.984711 401.100037 355.977814 401.284088 353.964264 401.39505 C 353.590759 401.417358 352.889435 401.523254 352.542755 401.35257 C 351.674194 400.924927 350.423645 399.060394 349.448669 398.31131 C 347.094879 396.503021 344.372955 395.07251 341.753723 393.694 C 343.862213 393.077362 346.056976 392.760681 348.241638 392.577271 Z"/>
        <path id="path1553" fill="#fefefd" stroke="none" d="M 340.235352 394.250946 C 340.361694 394.216949 340.375763 394.204468 340.527588 394.212982 C 342.80838 394.342529 349.361328 399.339935 350.75415 401.315399 C 347.98999 401.279297 345.272827 401.098267 342.521942 400.825134 C 338.826599 400.388977 335.237946 399.875061 331.624878 398.973846 C 333.711334 396.756012 337.354645 395.110992 340.235352 394.250946 Z"/>
        <path id="path1554" fill="#6f5e54" stroke="none" d="M 506.845886 232.594543 C 507.61731 234.383911 507.703827 235.919861 506.986328 237.762329 C 505.976807 240.354736 503.831421 242.570496 501.495178 244.022522 C 499.021973 242.975037 496.592804 242.009033 495.538422 239.279907 C 495.25705 238.551819 495.11026 237.754089 495.156189 236.972595 C 496.377777 236.970215 497.595398 236.923767 498.806152 236.753357 C 501.546143 236.36792 505.145142 234.871582 506.845886 232.594543 Z"/>
        <path id="path1555" fill="#fefefd" stroke="none" d="M 425.714142 288.828979 C 428.53775 286.350952 434.322479 286.870483 437.914581 287.10144 C 446.082275 287.62677 454.266449 289.517822 461.565582 293.307404 C 462.690308 293.891144 464.249847 294.581055 465.094513 295.541199 C 465.153961 295.608887 465.210236 295.679749 465.268127 295.749329 C 464.463776 295.485443 463.751587 295.149658 463.004089 294.753601 C 462.700653 294.838013 462.439209 294.901184 462.122772 294.923218 C 461.138733 294.750427 460.006317 294.150757 459.052826 293.799835 C 457.378174 293.189453 455.685028 292.635651 453.973389 292.138367 C 446.711151 290.077393 438.94455 289.219727 431.409424 289.198486 C 429.556305 289.193176 427.705841 289.15921 425.866516 289.421478 L 425.714142 288.828979 Z"/>
        <linearGradient id="linearGradient2" x1="447.985936" y1="289.9298" x2="447.619771" y2="293.134572" gradientUnits="userSpaceOnUse">
            <stop offset="1e-05" stop-color="#000000" stop-opacity="1"/>
            <stop offset="1" stop-color="#221a18" stop-opacity="1"/>
        </linearGradient>
        <path id="path1556" fill="url(#linearGradient2)" stroke="none" d="M 425.714142 288.828979 C 428.971222 288.774017 432.257538 288.628021 435.512512 288.708984 C 444.411804 288.929565 455.185699 290.224457 463.004089 294.753601 C 462.700653 294.838013 462.439209 294.901184 462.122772 294.923218 C 461.138733 294.750427 460.006317 294.150757 459.052826 293.799835 C 457.378174 293.189453 455.685028 292.635651 453.973389 292.138367 C 446.711151 290.077393 438.94455 289.219727 431.409424 289.198486 C 429.556305 289.193176 427.705841 289.15921 425.866516 289.421478 L 425.714142 288.828979 Z"/>
        <path id="path1557" fill="#96867a" stroke="none" d="M 472.273926 200.765991 C 472.935181 200.661438 473.684021 200.682129 474.351074 200.723511 C 477.429535 200.913879 480.341553 202.545837 482.3396 204.858459 C 485.464508 208.474976 486.621094 213.692993 486.242554 218.375305 C 485.889771 222.740112 484.290161 226.310974 480.95105 229.163025 C 480.326965 228.857239 479.738983 228.474976 479.145142 228.114746 C 481.414764 226.747131 482.742554 224.706848 483.781281 222.329468 C 484.341919 220.700378 484.72522 219.130005 484.803802 217.40271 C 484.982971 213.46283 483.798553 208.624451 481.045532 205.679504 C 479.229309 203.736389 476.887482 202.778931 474.24411 202.697449 C 470.102814 202.569214 467.517273 204.537781 464.641113 207.228149 C 464.247192 206.57251 463.924133 205.85553 463.580353 205.171204 C 463.603455 205.140625 463.626556 205.109863 463.649902 205.079346 C 465.67691 202.465454 469.095673 201.176636 472.273926 200.765991 Z"/>
        <path id="path1558" fill="#fefefd" stroke="none" d="M 425.866516 289.421478 C 427.705841 289.15921 429.556305 289.193176 431.409424 289.198486 C 438.94455 289.219727 446.711151 290.077393 453.973389 292.138367 C 455.685028 292.635651 457.378174 293.189453 459.052826 293.799835 C 460.006317 294.150757 461.138733 294.750427 462.122772 294.923218 L 462.431213 295.213623 C 461.961914 295.413269 454.126556 293.808594 453.007416 293.610291 C 449.512817 292.991455 445.997589 292.528656 442.461792 292.221985 C 438.926147 291.915283 435.383789 291.766022 431.834656 291.77417 C 429.853882 291.776031 427.750702 291.735138 425.786072 291.992371 C 422.221863 292.458771 420.919556 297.187012 418.942444 299.681458 C 418.908752 299.723938 418.873962 299.765625 418.839722 299.807556 C 418.947662 299.383362 419.077301 298.965881 419.228607 298.555145 C 420.183167 295.943359 421.524506 292.467529 423.714203 290.657684 C 424.358734 290.124634 425.114227 289.772125 425.866516 289.421478 Z"/>
        <path id="path1559" fill="#fefefd" stroke="none" d="M 400.325226 276.844849 C 401.612946 277.242798 402.971008 278.299561 404.144562 278.995544 C 407.277679 280.854004 410.40152 282.869019 413.670563 284.479004 C 414.882111 282.799744 416.042389 281.10376 417.327972 279.4776 L 421.393097 283.40448 L 419.670044 285.322327 C 417.799957 287.504883 415.824982 289.618439 414.133789 291.94458 C 409.78595 286.540771 405.288116 281.673706 400.325226 276.844849 Z"/>
        <path id="path1560" fill="#e0ddd1" stroke="none" d="M 436.643341 267.529358 C 437.861755 268.038757 443.875061 276.802917 444.787689 278.639587 C 443.30777 280.754211 441.568542 282.646057 439.844421 284.560791 C 439.44812 285.001709 439.03241 285.42749 438.625732 285.859375 C 436.680328 285.772095 434.734039 285.714233 432.786865 285.68573 C 434.268585 281.499573 435.608856 276.95874 436.220215 272.559143 C 436.452209 270.891052 436.410797 269.199341 436.643341 267.529358 Z"/>
        <path id="path1561" fill="#e0ddd1" stroke="none" d="M 393.749176 193.16687 C 394.662598 193.090149 395.497192 193.102417 396.395752 193.333862 C 399.707794 194.187317 401.976074 196.683594 403.647888 199.520996 C 403.046906 199.610229 402.099243 199.639709 401.604431 200.007629 C 401.313232 200.224182 401.296783 200.344971 401.232819 200.67627 C 401.592499 201.770203 403.529236 203.012512 404.387177 203.812561 L 402.925598 204.35437 C 399.929443 205.079041 397.183868 205.268311 394.342468 203.876587 C 392.546143 202.996826 391.026428 201.472107 390.416168 199.535889 C 389.978699 198.148926 390.084595 196.526733 390.802917 195.24884 C 391.479828 194.04425 392.452179 193.502686 393.749176 193.16687 Z"/>
        <path id="path1562" fill="#fefefd" stroke="none" d="M 480.920776 277.5401 C 483.352295 278.291565 485.877289 278.631897 488.340179 279.259949 C 483.856934 282.259277 480.177521 285.717102 476.486908 289.638611 C 474.561066 291.685242 472.60202 293.83194 470.958069 296.11615 C 470.176849 296.059357 469.115295 296.104492 468.412384 295.774536 C 468.331177 295.498474 468.328247 295.629852 468.397522 295.379791 L 468.335938 295.197968 L 468.196594 295.665955 C 467.669647 295.932495 467.070282 295.773987 466.493713 295.710571 C 469.481903 287.726563 475.116394 283.276245 480.920776 277.5401 Z"/>
        <path id="path1563" fill="#0c0706" stroke="none" d="M 468.335938 295.197968 C 468.968781 290.726685 475.150635 284.25415 478.761841 281.51416 C 479.894531 280.654663 481.284973 279.59259 482.645142 279.170471 L 482.667175 279.303467 C 481.181702 280.6427 479.601196 281.87384 478.123718 283.222351 C 475.346008 285.75769 472.963562 288.546539 470.780762 291.604279 C 469.918579 292.812103 468.987885 294.010071 468.397522 295.379791 L 468.335938 295.197968 Z"/>
        <path id="path1564" fill="#fefefd" stroke="none" d="M 430.258698 386.463379 C 430.343628 386.46283 430.428833 386.454865 430.513519 386.461761 C 431.223083 386.519623 432.247711 387.052917 432.962311 387.278839 C 437.553833 388.729523 442.131042 390.256927 445.431915 393.961853 L 439.89035 394.246429 C 436.936127 391.266724 434.000244 389.959625 429.990051 388.912964 C 431.879791 389.802734 433.766907 390.66095 435.509857 391.823639 C 436.523895 392.550171 437.442078 393.376007 438.336395 394.242981 C 430.54538 394.2565 422.723541 393.575073 414.971283 392.854401 C 419.181885 388.894104 424.607208 387.095398 430.258698 386.463379 Z"/>
        <path id="path1565" fill="#96867a" stroke="none" d="M 488.395111 280.839661 C 488.647278 281.234131 489.031921 281.430298 489.41922 281.673157 C 485.083588 285.204773 481.148254 289.196625 477.426605 293.363953 C 475.788513 295.198242 474.324799 297.419281 472.510193 299.055267 C 468.945404 299.169678 465.342163 298.547455 461.830261 297.993439 L 451.647766 296.391174 C 445.565918 295.498199 439.459869 294.824127 433.329681 294.368958 C 430.751343 294.168274 428.170624 293.916107 425.585663 293.824005 C 424.163635 296.391693 423.095459 299.278748 421.906494 301.965424 C 420.257874 305.618744 418.513031 309.225616 416.672028 312.786041 C 416.167938 312.307159 415.639435 311.84848 415.123932 311.381256 C 415.133209 311.354462 415.142761 311.327911 415.15152 311.301086 C 416.099457 308.367859 422.69754 294.945526 424.731689 293.501709 C 426.187439 292.468597 429.064148 292.777039 430.805511 292.798279 C 436.953918 292.873413 443.258148 293.383087 449.338593 294.300476 C 455.34259 295.206207 461.272003 296.47641 467.299347 297.243011 C 467.919708 297.322113 471.04303 297.907959 471.320435 297.845062 C 471.635773 297.773651 478.711426 289.346344 479.691986 288.316376 C 482.266876 285.612488 485.249237 282.84729 488.395111 280.839661 Z"/>
        <path id="path1566" fill="#fefefd" stroke="none" d="M 389.039001 265.993469 C 391.546448 266.570007 394.085754 267.79187 396.593506 268.520569 C 404.535828 270.827881 413.382813 272.597656 421.675293 272.814514 C 419.727936 274.40564 417.994263 276.012146 416.407898 277.969055 C 415.113831 279.513733 414.015137 281.218201 413.031891 282.973389 C 409.780914 280.653076 406.383636 278.688416 402.884186 276.772644 C 401.132477 275.813843 399.209259 274.977417 397.570099 273.846069 C 394.542084 271.756165 391.684509 268.578186 389.039001 265.993469 Z"/>
        <path id="path1567" fill="#96867a" stroke="none" d="M 411.228149 215.471008 C 411.312836 215.459595 411.48111 215.501526 411.568176 215.514526 C 411.761169 216.511292 411.345215 218.070313 411.233704 219.109558 C 407.996002 219.413757 404.76889 220.329041 401.648773 221.208496 C 397.076874 222.497009 392.472626 223.930664 388.053619 225.681335 C 385.042358 226.874573 382.095032 228.274292 379.158081 229.638733 C 376.51947 230.864563 373.861237 232.067078 371.322723 233.492554 C 369.587891 234.47522 367.894409 235.524658 366.242218 236.640808 C 364.865051 237.574158 362.88266 239.332764 361.370911 239.875366 C 360.963959 240.021362 360.766205 239.866333 360.412354 239.69165 C 359.778473 238.690857 359.417175 237.763916 359.286041 236.58136 C 365.980743 229.689148 386.091675 222.437256 395.510193 219.56958 C 400.701019 218.017578 405.940338 216.651367 411.228149 215.471008 Z"/>
        <path id="path1568" fill="#96867a" stroke="none" d="M 488.881683 283.790955 C 488.884338 283.830811 488.892029 283.870605 488.890167 283.910645 C 488.870789 284.325317 486.113281 288.65033 485.673676 289.450653 C 483.593872 293.236267 481.689789 297.160461 479.747986 301.020935 C 478.926971 302.653442 478.231995 304.437317 477.247437 305.971344 C 475.787994 308.245483 473.214966 309.695129 471.761353 312.637115 C 471.031067 314.115173 470.59201 315.759369 470.113403 317.332703 C 468.877197 321.398895 467.68161 326.316406 465.395813 329.892578 C 464.243744 331.694733 462.724274 333.320099 461.346039 334.951569 C 458.093475 338.802734 454.757263 342.71817 450.959167 346.046417 L 450.933411 345.847046 C 457.114197 334.899445 462.987885 323.789459 468.554413 312.517151 C 469.917786 309.737488 471.208832 306.924683 472.427643 304.078674 C 473.277344 302.066528 473.882294 299.777008 475.132324 297.973816 C 475.856476 296.92926 476.75238 295.966705 477.5867 295.008972 C 481.094116 290.981262 485.026245 287.467224 488.881683 283.790955 Z"/>
        <path id="path1569" fill="#fefefd" stroke="none" d="M 472.789703 204.198853 C 473.92981 204.136719 475.036224 204.098206 476.160156 204.336609 C 478.369507 204.805359 480.15918 206.170044 481.378662 208.045227 C 483.604218 211.467712 484.215027 216.164612 483.380188 220.117432 C 482.654694 223.55426 481.171631 225.689026 478.234131 227.580627 C 476.939789 226.740784 475.697113 225.830322 474.506104 224.849426 C 473.43634 224.013 472.478577 223.037415 471.538086 222.061646 C 471.721527 221.747864 471.9039 221.432007 472.065796 221.106262 C 472.910217 219.408997 472.949768 217.255066 472.319061 215.480835 C 472.090759 214.83844 471.643463 213.861816 470.93631 213.621033 C 470.630524 213.516968 470.332123 213.586548 470.07254 213.767578 C 469.013397 214.506592 468.868439 216.29657 468.677338 217.449402 C 467.604614 214.63269 466.514923 211.82843 465.260925 209.086304 C 467.294312 206.444031 469.507111 204.85553 472.789703 204.198853 Z"/>
        <path id="path1570" fill="#0c0706" stroke="none" d="M 470.804382 208.833069 C 471.584534 208.774414 472.486298 208.807861 473.115417 209.341431 C 473.344757 209.536011 473.397308 209.546875 473.42334 209.85614 C 472.854736 210.065308 471.938385 209.826416 471.321747 209.791382 C 470.206848 209.889893 469.074677 210.223022 467.983154 210.472778 C 468.876404 209.716797 469.724518 209.257568 470.804382 208.833069 Z"/>
        <path id="path1571" fill="#96867a" stroke="none" d="M 466.982666 299.698456 C 468.979675 299.962311 470.788452 300.174408 472.784119 299.817627 C 470.4776 306.173615 467.092041 312.153717 464.078888 318.190643 C 461.14563 324.067505 458.181854 329.89389 455.097046 335.692963 C 452.764252 340.078766 450.436768 344.451294 447.717224 348.61438 C 447.51944 348.845581 447.602539 348.775787 447.376617 348.943298 C 446.616638 349.506042 443.190704 348.635345 442.218628 348.496002 C 443.717651 345.198547 445.795074 342.068878 447.525024 338.878387 C 451.501495 331.378143 455.392822 323.833893 459.199066 316.245697 C 460.869659 313.012115 462.484039 309.750854 464.042267 306.461884 C 465.102997 304.245117 466.213654 302.037598 466.982666 299.698456 Z"/>
        <path id="path1572" fill="#e0ddd1" stroke="none" d="M 432.113922 349.645935 C 435.303619 349.701935 438.500427 349.833099 441.688538 349.949341 C 443.042328 356.431702 444.103333 363.060547 445.005096 369.621216 C 443.310699 371.248169 441.040558 372.385895 438.963928 373.462311 C 436.108185 374.998199 432.688629 376.430603 429.476135 376.948486 C 431.31015 368.209015 431.546387 358.569122 432.113922 349.645935 Z"/>
        <path id="path1573" fill="#fefefd" stroke="none" d="M 395.537018 331.047028 C 399.889374 327.839569 403.464203 322.83844 406.16861 318.18985 C 407.10144 316.586792 407.901764 314.904327 408.846497 313.311096 C 409.412964 312.356018 409.797363 312.172302 410.853058 311.899689 C 410.490723 312.52005 409.816742 313.402954 409.910706 314.154449 C 410.368073 317.813171 424.731689 319.191406 427.854218 321.802399 C 428.394409 322.254181 429.1008 323.069397 429.092285 323.821136 C 429.088043 324.192505 428.86557 324.483185 428.595093 324.712555 C 426.256714 326.696533 420.4664 325.716736 417.56424 325.509705 C 417.480865 325.525085 417.397522 325.541809 417.313904 325.555878 C 417.005707 325.608185 416.752991 325.573395 416.447449 325.528015 C 416.27652 325.502533 416.351379 325.50174 416.194214 325.528534 L 416.117798 325.724182 L 416.006561 325.616943 L 416.658508 325.936005 L 416.490723 326.068481 C 416.534515 326.088379 416.576477 326.113342 416.622406 326.128479 C 420.193268 327.302551 425.645142 327.367859 429.068939 325.676392 C 428.553955 326.901703 427.903839 328.031494 427.00769 329.020569 C 423.8573 332.497742 417.927643 332.467987 413.664734 331.791626 C 412.183502 331.556427 410.451447 330.985168 408.983215 331.047546 L 408.868011 331.175507 C 409.100281 331.449982 409.360687 331.597839 409.684021 331.74411 C 413.46405 333.454407 420.201233 333.482025 424.135742 332.070862 C 420.842834 334.514374 417.023224 336.176086 412.923065 336.63797 C 406.443634 337.3685 400.56839 335.051636 395.537018 331.047028 Z"/>
        <path id="path1574" fill="#0c0706" stroke="none" d="M 412.918549 324.849243 C 414.478607 324.945068 416.030701 325.214508 417.56424 325.509705 C 417.480865 325.525085 417.397522 325.541809 417.313904 325.555878 C 417.005707 325.608185 416.752991 325.573395 416.447449 325.528015 C 416.27652 325.502533 416.351379 325.50174 416.194214 325.528534 L 416.117798 325.724182 L 416.006561 325.616943 L 416.658508 325.936005 L 416.490723 326.068481 C 415.188171 325.825836 414.1091 325.430054 412.918549 324.849243 Z"/>
        <g id="g9">
            <path id="path1575" fill="#96867a" stroke="none" d="M 413.947968 347.391449 C 415.341614 347.675201 416.757782 347.875885 418.161499 348.10553 C 417.231079 352.968597 416.570892 358.043518 416.173248 362.974548 L 416.012939 364.88739 L 414.172546 364.90863 C 413.916901 359.088867 413.954865 353.216522 413.947968 347.391449 Z"/>
            <path id="path1576" fill="#96867a" stroke="none" d="M 419.415741 348.262909 C 423.068665 348.771545 426.72287 349.120605 430.387421 349.521454 C 429.868988 353.799744 429.852783 358.151825 429.419586 362.444977 C 428.626404 362.758759 427.772705 362.975891 426.955933 363.225403 C 423.803162 364.025208 420.704803 364.469849 417.470795 364.792633 C 417.947815 359.269104 418.863892 353.779816 419.415741 348.262909 Z"/>
            <path id="path1577" fill="#96867a" stroke="none" d="M 315.975677 381.407562 C 326.084625 384.377716 336.747284 385.620026 347.237701 386.133148 C 347.596069 387.040192 348.01416 387.8461 348.603973 388.623871 C 343.644806 388.648285 337.982727 389.355194 333.809265 392.246246 C 335.366425 391.755341 336.940094 391.324768 338.530334 390.954559 C 340.120575 390.584167 341.722656 390.275177 343.336609 390.027588 C 345.768951 389.72522 347.796997 389.67984 350.204132 390.16748 L 351.112762 391.465271 C 351.007935 391.450134 350.903076 391.434204 350.797699 391.422546 C 343.131165 390.571777 335.884064 393.848511 330.072235 398.576996 C 327.619995 398.059662 325.195618 397.387512 322.785583 396.703705 C 320.328278 391.699951 318.245544 386.500519 315.975677 381.407562 Z"/>
            <path id="path1578" fill="#96867a" stroke="none" d="M 428.891602 363.989136 L 429.127594 364.003448 C 429.711578 365.197968 427.168823 379.770233 426.562531 382.296814 C 422.815125 383.081757 419.469635 384.268616 416.212555 386.297974 C 419.729797 385.457581 423.127838 383.920593 426.703491 383.409058 C 427.225098 383.984039 427.672638 384.625366 428.13559 385.247589 C 422.840363 385.899017 417.387421 388.803345 413.602081 392.505859 L 410.706543 392.205353 C 409.010468 392.072815 407.323334 391.86673 405.645142 391.587128 C 403.966949 391.307526 402.304169 390.955536 400.656769 390.531158 C 398.896576 387.377838 397.367035 383.936005 396.135315 380.545105 C 400.36264 379.51355 411.274078 375.926514 414.312683 373.101288 C 414.309235 370.914764 414.202545 368.720276 414.182617 366.531616 C 419.302948 366.437103 424.000641 365.42334 428.891602 363.989136 Z"/>
        </g>
        <path id="path1579" fill="#96867a" stroke="none" d="M 431.077881 200.905884 C 435.774231 200.519897 441.310516 202.85907 444.854828 205.82019 C 448.462585 208.834412 450.981476 213.562378 451.394501 218.254517 C 451.894379 223.930176 449.346558 230.17627 445.708527 234.445496 C 442.447449 238.272278 438.065643 240.145264 433.137238 240.537659 C 428.370789 240.636414 423.410278 238.983154 419.73349 235.93335 C 415.515747 232.434448 412.910828 226.904785 412.460388 221.480835 C 412.05954 216.654114 413.457153 211.514954 416.63089 207.804993 C 420.267334 203.553772 425.56311 201.325867 431.077881 200.905884 Z"/>
        <path id="path1580" fill="#211717" stroke="none" d="M 431.426666 203.697388 C 436.109772 203.766663 440.594574 205.082764 444.070404 208.343323 C 446.966248 211.059937 448.702301 214.693481 448.788574 218.680847 C 448.902985 223.953796 446.716461 230.104065 443.002777 233.897095 C 440.348785 236.60791 436.850128 237.720154 433.122375 237.774841 C 428.976288 237.725159 425.421875 236.361267 422.281036 233.647583 C 418.535522 230.411194 415.922943 225.638062 415.612885 220.661377 C 415.343445 216.335571 416.634064 212.358826 419.532043 209.115784 C 422.632233 205.646606 426.849731 203.97345 431.426666 203.697388 Z"/>
        <path id="path1581" fill="#fefefd" stroke="none" d="M 430.740204 205.020386 C 430.869385 205.010864 430.998749 205.003052 431.128296 204.99707 C 435.331726 204.807251 439.832214 206.266724 442.950226 209.117371 C 445.699768 211.631226 447.410339 214.75293 447.572266 218.50354 C 447.787811 223.483948 446.113892 229.125854 442.696716 232.837952 C 440.368164 235.367676 437.270081 236.614258 433.87442 236.736633 C 430.154633 236.63446 426.566254 235.384399 423.669617 233.015015 C 419.957794 229.979004 417.318939 225.512268 416.849609 220.708862 C 416.478516 216.910278 417.5159 213.48114 419.962067 210.550049 C 422.757538 207.200562 426.420258 205.424133 430.740204 205.020386 Z"/>
        <path id="path1582" fill="#211717" stroke="none" d="M 431.171844 211.753357 C 431.511078 211.726807 431.82193 211.743774 432.160126 211.768188 L 432.166748 211.879456 C 431.614075 212.468994 429.263489 213.098938 428.383789 213.597717 C 427.283234 214.221497 426.435638 215.044434 425.558319 215.945374 C 425.413361 216.087097 425.274017 216.175781 425.103607 216.283813 C 425.042816 216.040405 425.268982 215.753418 425.399048 215.54718 C 426.653046 213.559753 428.923187 212.266174 431.171844 211.753357 Z"/>
        <path id="path1583" fill="#0c0706" stroke="none" d="M 430.713684 230.159241 C 429.464172 228.653625 429.026703 226.166321 429.120422 224.259338 C 429.18573 222.927795 429.46817 221.042297 430.53476 220.144531 C 431.031403 219.72644 431.496216 219.580994 432.134888 219.653992 L 430.982819 220.134705 L 431.00354 220.283386 C 431.060089 220.279663 431.116638 220.275146 431.173431 220.272217 C 431.376495 220.261047 431.29953 220.246216 431.435974 220.29187 C 430.554932 220.888367 430.123291 221.873413 429.92395 222.895447 C 429.512238 225.006287 429.940399 227.140503 430.742859 229.098755 L 430.713684 230.159241 Z"/>
        <path id="path1584" fill="#211717" stroke="none" d="M 432.134888 219.653992 C 433.329437 220.24115 434.04776 221.376526 434.464508 222.609253 C 435.176971 224.716431 435.277039 227.318909 434.254547 229.343506 C 433.939453 229.967834 433.332092 230.883972 432.605011 231.079834 C 432.17392 231.195862 431.769623 231.131592 431.393219 230.889221 C 431.121674 230.7146 430.888611 230.427917 430.713684 230.159241 L 430.742859 229.098755 C 430.945404 229.400574 431.201294 229.801941 431.536316 229.971863 C 431.832031 230.121582 432.146301 230.192993 432.463257 230.059204 C 432.906311 229.872559 433.212891 229.470154 433.42392 229.053406 C 434.313751 227.297119 434.21524 224.567505 433.570984 222.743286 C 433.157135 221.57135 432.567841 220.807373 431.435974 220.29187 C 431.29953 220.246216 431.376495 220.261047 431.173431 220.272217 C 431.116638 220.275146 431.060089 220.279663 431.00354 220.283386 L 430.982819 220.134705 L 432.134888 219.653992 Z"/>
        <path id="path1585" fill="#96867a" stroke="none" d="M 431.435974 220.29187 C 432.567841 220.807373 433.157135 221.57135 433.570984 222.743286 C 434.21524 224.567505 434.313751 227.297119 433.42392 229.053406 C 433.212891 229.470154 432.906311 229.872559 432.463257 230.059204 C 432.146301 230.192993 431.832031 230.121582 431.536316 229.971863 C 431.201294 229.801941 430.945404 229.400574 430.742859 229.098755 C 429.940399 227.140503 429.512238 225.006287 429.92395 222.895447 C 430.123291 221.873413 430.554932 220.888367 431.435974 220.29187 Z"/>
        <path id="path1586" fill="#fefefd" stroke="none" d="M 438.84845 179.577332 C 442.72406 183.073364 444.851379 186.066345 447.259827 190.644836 C 447.849945 191.766663 448.213593 193.235657 448.938019 194.243835 L 449.131531 194.225281 C 449.325317 193.931641 449.31842 193.606201 449.328522 193.265625 C 449.386627 191.316162 449.165253 189.327942 449.11908 187.376038 C 449.063049 185.007141 449.175323 182.635864 449.094116 180.266724 C 450.23114 181.951477 451.277618 183.690552 452.233612 185.483887 C 453.189758 187.277466 454.050171 189.115845 454.81485 190.998962 C 456.066742 194.068359 457.100677 197.239746 458.437225 200.270142 C 460.024902 203.86969 462.127289 207.127563 463.558075 210.819702 C 459.552124 209.52594 456.422699 209.918518 452.681976 211.849976 C 452.241669 212.080383 451.805511 212.318481 451.373535 212.56427 C 449.301422 207.504517 444.978546 203.510254 439.994141 201.404114 C 434.49292 199.079285 428.889465 199.157349 423.3909 201.426453 C 423.091827 201.547302 422.795837 201.675598 422.50296 201.81134 C 422.210266 201.946899 421.921082 202.089722 421.635468 202.239807 C 421.34967 202.389648 421.067932 202.546631 420.790283 202.710693 C 420.512421 202.874756 420.238831 203.045593 419.969482 203.223267 C 419.700134 203.40094 419.435394 203.585266 419.175262 203.776245 C 418.914917 203.96698 418.659668 204.164124 418.409424 204.367676 C 418.159027 204.571167 417.913818 204.780884 417.673859 204.996765 C 417.434052 205.212524 417.199677 205.434082 416.970673 205.661499 C 416.741852 205.888855 416.518768 206.121826 416.301453 206.360413 C 416.084137 206.598755 415.872955 206.842529 415.667847 207.091736 C 415.462738 207.340698 415.263916 207.594666 415.071381 207.853577 C 414.878815 208.112488 414.69281 208.376099 414.513397 208.644348 C 414.333923 208.912476 414.161316 209.184937 413.995483 209.46167 C 413.829681 209.738464 413.670837 210.019226 413.518982 210.303955 C 413.367157 210.588501 413.222473 210.876831 413.084991 211.168823 C 412.947479 211.460632 412.817322 211.755737 412.694489 212.054077 C 412.411804 212.753296 412.176605 213.47821 411.937714 214.193665 C 397.734955 216.937622 383.328857 221.389526 370.408752 227.964783 C 373.886444 224.314758 378.594513 221.211121 383.16214 219.12146 C 384.812195 218.366516 386.664795 217.870178 388.238647 216.990417 C 386.690796 217.008789 385.237976 217.558228 383.736847 217.608948 C 381.938934 216.96759 380.191193 216.070618 378.330933 215.634521 C 382.796356 214.219666 387.100128 212.216309 391.659546 211.124512 C 393.655212 210.646667 395.710602 210.346191 397.744751 210.084167 C 399.665314 209.836731 401.664154 209.765869 403.476135 209.039612 C 401.02417 208.75238 398.551208 208.903992 396.108246 208.465454 C 392.270355 207.776611 388.580566 206.037903 386.325806 202.755859 C 384.339966 199.865051 383.796326 196.260193 384.4711 192.847534 C 384.877502 190.793518 385.850647 188.80127 387.661041 187.634094 C 389.920013 186.177551 393.376495 185.999695 395.937042 186.5802 C 402.687225 188.110596 406.161469 193.951599 409.561371 199.399719 C 407.888245 199.361755 406.226227 199.351135 404.553345 199.402893 C 404.23587 198.582153 403.833191 197.805603 403.345276 197.073303 C 401.753113 194.707886 399.118744 192.357239 396.222137 191.857178 C 394.538635 191.566467 392.760101 191.808594 391.347382 192.82019 C 390.091522 193.719299 389.350372 195.017639 389.101624 196.53125 C 389.082184 196.64325 389.065552 196.755615 389.051727 196.868347 C 389.037933 196.981262 389.026978 197.09436 389.018829 197.207642 C 389.010681 197.321045 389.005463 197.43457 389.003174 197.548157 C 389.000854 197.661804 389.001404 197.775391 389.004761 197.889038 C 389.008118 198.002625 389.014404 198.116089 389.02359 198.22937 C 389.032806 198.34259 389.04483 198.455566 389.059692 198.568298 C 389.074554 198.68103 389.092255 198.793213 389.112793 198.904907 C 389.133484 199.016785 389.156921 199.127991 389.183136 199.238586 C 389.20932 199.349182 389.238281 199.458984 389.269928 199.567993 C 389.301788 199.677185 389.336304 199.785522 389.373474 199.892944 C 389.410828 200.000183 389.450806 200.106506 389.493439 200.211975 C 389.535919 200.317322 389.581146 200.421448 389.629089 200.524414 C 389.677063 200.627625 389.72757 200.729492 389.78067 200.829956 C 389.833771 200.930481 389.889313 201.029602 389.947388 201.127258 C 390.005432 201.224976 390.065948 201.321045 390.128937 201.415588 C 390.191956 201.510254 390.257233 201.60321 390.32486 201.694519 C 392.040985 204.026001 395.014069 205.244446 397.797607 205.669678 C 398.624207 205.796936 399.455414 205.84668 400.29126 205.818848 C 401.254578 205.792358 406.130951 205.244446 406.732452 204.805359 C 406.484802 203.987 403.818298 201.764648 403.045044 201.130432 L 402.938873 201.044434 C 404.562897 200.692993 406.274536 200.621094 407.931244 200.64679 C 408.750671 200.659851 409.655884 200.763062 410.469757 200.664063 C 410.811127 200.622375 410.928711 200.545166 411.130707 200.279175 C 411.141602 199.155212 408.024414 194.982605 407.240265 193.827087 C 411.271606 194.685181 415.258148 195.716309 419.199951 196.92041 C 418.095398 195.321289 416.711334 193.879639 415.484924 192.369202 C 414.028137 190.574768 412.73407 188.701172 411.453247 186.778015 C 418.521698 188.559448 423.58017 190.438599 429.887299 194.208008 C 428.718781 190.09906 427.252441 186.243652 425.58194 182.319214 C 429.766266 184.435364 434.155518 187.169556 437.678864 190.294983 C 438.78714 191.278198 439.636597 192.537781 440.782013 193.475098 C 440.817322 193.504272 440.853668 193.532166 440.889526 193.560547 C 439.644012 189.209534 438.679077 184.121887 438.84845 179.577332 Z"/>
        <path id="path1587" fill="#96867a" stroke="none" d="M 426.593048 294.796326 C 430.544861 294.852081 434.61264 295.392548 438.553253 295.776917 C 445.131165 296.406586 451.683594 297.237701 458.210541 298.270325 C 460.790192 298.673523 463.401978 299.014648 465.956696 299.546082 C 462.31842 307.77005 458.113373 315.792816 453.937836 323.752411 L 440.896423 348.474762 C 436.738098 348.397766 432.498047 348.017395 428.358826 347.613098 C 426.240723 347.421631 424.128052 347.182373 422.020905 346.895325 C 419.913574 346.608459 417.813843 346.274078 415.721741 345.892181 C 413.629425 345.510284 411.546967 345.081299 409.474304 344.605255 C 407.401489 344.129211 405.340485 343.606537 403.291382 343.037231 C 403.935638 341.213043 404.881989 339.460541 405.604279 337.655457 C 411.000641 338.740631 416.835815 338.018585 421.723846 335.445313 C 425.374908 333.523438 429.312347 330.175812 430.526276 326.076691 C 430.933716 324.701111 430.944885 323.286804 430.214874 322.015533 C 427.985077 318.131195 420.372437 317.382599 416.434723 316.245697 C 418.026123 313.757599 419.047577 311.055817 420.246094 308.373688 C 421.273407 306.073547 422.384583 303.807129 423.439484 301.518921 C 424.474487 299.275055 425.45639 296.989777 426.593048 294.796326 Z"/>
        <path id="path1588" fill="#e0ddd1" stroke="none" d="M 303.882996 204.34137 C 305.78363 201.889648 310.677246 199.784058 313.635162 198.854492 C 311.750732 202.825378 310.770935 207.015259 310.070953 211.329895 C 309.640106 210.784424 309.292908 210.149719 308.925262 209.559387 L 308.519104 209.293091 L 308.359039 209.344116 L 308.176147 210.053894 C 311.14444 216.926208 315.487244 221.924133 320.736023 227.114807 C 334.858063 241.079712 352.272278 250.812744 370.622711 258.085876 C 374.825623 259.751892 379.081604 261.146301 383.354584 262.609436 C 384.475861 262.993591 387.402496 266.280396 388.410919 267.22406 C 391.283386 269.912842 394.236816 272.515076 397.030182 275.28772 C 402.742188 281.037781 408.120056 287.085022 413.163818 293.429535 C 415.072968 295.827637 416.661957 298.441803 418.507385 300.869354 C 417.505829 302.904053 416.380829 304.885132 415.465302 306.960144 C 406.604767 300.448883 398.061432 292.846313 386.973785 290.416107 C 386.913239 286.866516 387.082886 280.606323 386.106293 277.334106 L 385.970642 277.490967 C 385.809235 277.16449 385.800751 277.085876 385.488831 276.910461 C 385.091705 277.231934 385.129669 277.420898 385.04422 277.920471 C 385.039948 277.944336 385.031464 277.967224 385.025085 277.990845 C 384.938568 279.235535 385.136841 280.651978 385.168182 281.917908 C 380.474701 279.904175 375.838593 277.816162 371.090454 275.925842 C 363.024414 272.714722 354.860168 269.750916 346.909088 266.251709 C 342.888367 264.484741 338.942413 262.563965 335.071228 260.489563 C 331.200043 258.415344 327.415314 256.193726 323.717041 253.82489 C 320.552307 251.787231 317.300262 249.724426 314.398865 247.319153 C 313.804535 246.826172 313.293274 246.307251 312.963318 245.599304 C 311.681976 242.850281 310.953827 239.189148 310.154297 236.203064 C 308.058807 228.376465 305.970764 220.458069 304.661835 212.4552 C 304.225159 209.784729 304.121368 207.037598 303.882996 204.34137 Z"/>
        <path id="path1589" fill="#0c0706" stroke="none" d="M 308.176147 210.053894 C 307.283173 207.880127 306.667847 205.85791 306.406647 203.5177 C 307.295898 205.53009 307.894226 207.591064 308.925262 209.559387 L 308.519104 209.293091 L 308.359039 209.344116 L 308.176147 210.053894 Z"/>
        <path id="path1590" fill="#0c0706" stroke="none" d="M 384.599304 270.528137 C 385.037842 272.813965 385.81427 275.014587 386.106293 277.334106 L 385.970642 277.490967 C 385.809235 277.16449 385.800751 277.085876 385.488831 276.910461 C 385.091705 277.231934 385.129669 277.420898 385.04422 277.920471 C 385.039948 277.944336 385.031464 277.967224 385.025085 277.990845 C 384.699646 275.549194 384.532135 272.988647 384.599304 270.528137 Z"/>
        <path id="path1591" fill="#211717" stroke="none" d="M 289.200012 301.700226 L 289.361938 301.759949 L 289.291351 301.97522 C 285.370361 305.661285 277.786774 310.011017 272.639313 311.544769 C 272.577026 311.528046 272.541107 311.460907 272.496674 311.41391 C 273.074188 310.685516 274.609192 309.989502 275.450165 309.467346 C 276.725464 308.675507 277.936127 307.793427 279.221405 307.017487 C 282.424622 305.083405 285.827728 303.32132 289.200012 301.700226 Z"/>
        <path id="path1592" fill="#211717" stroke="none" d="M 307.840088 245.19635 L 307.944153 245.260803 C 306.952423 246.114563 305.796631 246.848267 304.730316 247.613281 C 301.144043 250.186584 297.327637 252.62207 294.248138 255.802979 C 299.937561 254.502808 305.360748 252.389832 311.05127 251.07373 C 310.275879 251.575439 309.48111 252.025879 308.671753 252.470276 C 306.200653 253.776001 295.373108 257.921814 293.075104 257.046143 C 292.718597 256.910217 292.636047 256.757813 292.47702 256.427612 C 292.487915 256.131348 292.512085 255.890869 292.629669 255.615356 C 293.65033 253.224915 300.282654 248.886658 302.632172 247.603455 C 304.318329 246.682617 306.071106 245.938538 307.840088 245.19635 Z"/>
        <path id="path1593" fill="#211717" stroke="none" d="M 306.407715 260.861755 C 306.118622 261.724426 296.537659 268.634399 294.891846 269.951355 C 293.571838 271.028015 292.286346 272.144348 291.03537 273.300293 C 296.933167 271.279907 302.844818 269.377136 308.685028 267.182922 C 307.797333 267.763733 306.866394 268.286926 305.953766 268.827698 C 302.94754 270.495789 292.598602 275.295959 289.685272 274.682739 C 289.312317 274.604187 289.20163 274.488159 288.98819 274.186646 C 288.973602 273.922791 288.988464 273.72052 289.100739 273.481079 C 290.666107 270.138245 302.738617 262.207825 306.407715 260.861755 Z"/>
        <path id="path1594" fill="#211717" stroke="none" d="M 301.473755 277.30249 C 301.518616 277.334351 301.520477 277.402344 301.53772 277.45459 C 299.036621 280.198608 296.136566 282.626404 293.327271 285.045776 C 291.301361 286.790833 289.184357 288.54361 287.502197 290.633514 C 293.781738 288.584778 299.98587 285.020508 306.123413 282.483582 C 305.43454 283.161072 304.647766 283.751953 303.89679 284.359802 C 302.760468 285.155273 301.587708 285.892822 300.378479 286.572388 C 299.169434 287.252075 297.929779 287.870483 296.659485 288.427612 C 294.736023 289.292175 287.127106 292.869415 285.381775 292.206604 C 285.225159 291.880615 285.219574 291.630035 285.318848 291.28653 C 286.384369 287.596985 297.942169 279.402222 301.473755 277.30249 Z"/>
        <path id="path1595" fill="#fefefd" stroke="none" d="M 460.31131 214.959473 C 460.737885 214.919678 461.144318 214.904236 461.570892 214.962646 C 465.388885 215.483459 467.116974 219.595337 469.170258 222.345398 C 474.60965 229.630493 485.21048 233.387451 493.925537 234.624451 C 493.400726 236.452576 493.505859 238.373962 494.306183 240.108398 C 495.529144 242.758667 497.780701 243.983765 500.384521 244.965393 C 487.124115 254.451599 466.832947 261.212952 450.862549 263.921875 C 444.893341 264.934265 438.721039 265.451904 432.681213 265.843201 C 428.566681 266.099976 424.449432 266.299255 420.329437 266.440979 C 417.45166 266.532837 414.162201 266.316528 411.350006 266.970825 L 411.158081 267.016785 C 414.422333 267.617188 417.84613 267.693115 421.156067 267.78949 C 425.86853 267.931091 430.581024 267.927979 435.293518 267.780212 C 432.630493 269.249756 429.851746 270.706787 426.848419 271.312866 C 418.835205 272.929199 404.099701 269.205688 396.285583 267.06427 C 394.117371 266.439697 389.204895 265.24646 387.528046 264.054871 C 386.49704 263.322205 385.997192 261.969971 384.794159 261.44043 C 383.657745 260.940552 382.425262 260.579834 381.25647 260.157227 C 378.987549 259.330933 376.723511 258.491394 374.464325 257.638611 C 370.409821 256.10083 366.450073 254.297913 362.452362 252.616272 C 364.304169 251.552063 366.106567 250.581848 368.107025 249.816223 C 365.976501 249.438232 363.964386 248.911316 361.915894 248.215332 C 364.372101 246.453796 366.990814 244.903564 369.566498 243.324341 C 370.895599 242.509705 372.292419 241.739624 373.524109 240.782654 C 370.859772 239.910889 367.992615 239.518066 365.272522 238.821228 C 368.562805 236.357605 372.396729 234.396667 376.067413 232.573303 C 377.454132 231.872498 378.851746 231.19397 380.260223 230.537781 C 381.668549 229.881592 383.087128 229.248169 384.515961 228.637451 C 385.944611 228.026733 387.38266 227.438965 388.830078 226.874268 C 390.277679 226.30957 391.733856 225.768188 393.198639 225.25 C 394.663574 224.731995 396.136383 224.237549 397.617096 223.766663 C 399.097778 223.295715 400.585632 222.848633 402.080658 222.425293 C 403.5755 222.002014 405.076813 221.602661 406.584595 221.227295 C 408.092529 220.852173 409.605988 220.50116 411.124878 220.174255 L 411.123291 220.323425 C 411.089844 225.984497 413.729767 231.62854 417.666687 235.622253 C 417.786133 235.744568 417.907104 235.865417 418.029572 235.984863 C 418.152039 236.104126 418.276001 236.221863 418.401459 236.337952 C 418.526917 236.454163 418.6539 236.568848 418.782379 236.681946 C 418.910675 236.794861 419.040405 236.906189 419.171539 237.015869 C 419.302673 237.125793 419.43515 237.233887 419.568909 237.340271 C 419.702881 237.446655 419.838104 237.551331 419.974548 237.654297 C 420.110962 237.757446 420.248749 237.858765 420.387848 237.958252 C 420.526764 238.057861 420.666992 238.15564 420.808594 238.251587 C 420.949982 238.347656 421.092621 238.441895 421.236481 238.534302 C 421.380371 238.626831 421.525391 238.717529 421.67157 238.806396 C 421.817749 238.89502 421.964996 238.981934 422.113281 239.067017 C 422.261597 239.152161 422.410919 239.235413 422.561371 239.316833 C 422.711792 239.398071 422.86319 239.477539 423.015564 239.555176 C 423.168091 239.63269 423.321533 239.708252 423.475861 239.781921 C 423.630157 239.85553 423.78537 239.927307 423.941437 239.997192 C 424.097534 240.066895 424.254486 240.134705 424.412354 240.2005 C 424.570221 240.266357 424.72879 240.330139 424.888062 240.391907 C 425.047516 240.453857 425.207733 240.513733 425.368774 240.571655 C 425.529663 240.629333 425.691223 240.685059 425.853485 240.738892 C 426.015961 240.792664 426.178955 240.844421 426.342468 240.894165 C 426.506165 240.943665 426.67038 240.991211 426.835144 241.036682 C 427.000092 241.082336 427.165436 241.125854 427.331268 241.167297 C 427.497253 241.208557 427.663696 241.247803 427.830597 241.285156 C 427.997467 241.322327 428.164795 241.357361 428.33255 241.390259 C 428.500519 241.423218 428.668701 241.454102 428.837189 241.48291 C 429.005829 241.511597 429.174744 241.538208 429.343933 241.562805 C 429.513123 241.587219 429.682648 241.609619 429.852539 241.629944 C 430.022247 241.650146 430.19223 241.668274 430.362488 241.684387 C 430.532715 241.700317 430.703217 241.714111 430.873993 241.72583 C 431.044586 241.737488 431.215271 241.74707 431.386047 241.754456 C 431.556824 241.761902 431.727692 241.767151 431.898651 241.770142 C 432.069763 241.773315 432.240814 241.774292 432.411774 241.773071 C 432.722321 241.77179 433.032745 241.762939 433.342957 241.746521 C 433.653015 241.730042 433.962555 241.705994 434.271545 241.674316 C 434.580505 241.642822 434.888519 241.603577 435.195557 241.556702 C 435.502594 241.51001 435.808319 241.455811 436.112701 241.394287 C 436.417084 241.33252 436.719788 241.263367 437.020813 241.186951 C 437.321838 241.110291 437.620819 241.026428 437.917786 240.935303 C 438.214539 240.844116 438.509033 240.745789 438.801208 240.640076 C 439.093201 240.534485 439.382538 240.421814 439.66922 240.302185 C 439.955719 240.182373 440.239136 240.055603 440.51947 239.921814 C 440.799774 239.788208 441.076752 239.647766 441.350342 239.500549 C 441.623749 239.353271 441.893433 239.199402 442.159424 239.038879 C 442.425232 238.87854 442.687073 238.71167 442.944916 238.538269 C 443.202576 238.36499 443.455902 238.185547 443.704895 237.999939 C 443.953888 237.81427 444.19809 237.62262 444.437561 237.424988 C 444.677155 237.227234 444.911835 237.023804 445.141541 236.814636 C 445.371063 236.605469 445.595367 236.390808 445.814453 236.170715 C 450.3367 231.639954 452.659149 225.262756 452.662323 218.920288 C 452.787598 218.786865 452.915649 218.656189 453.046417 218.528198 C 453.177216 218.400269 453.310638 218.275146 453.446716 218.152832 C 453.582794 218.030579 453.721375 217.911194 453.862427 217.794739 C 454.003662 217.678345 454.147156 217.564941 454.292999 217.454712 C 454.438995 217.344299 454.58728 217.237061 454.737885 217.132996 C 454.888306 217.028931 455.040863 216.928162 455.195526 216.830627 C 455.350372 216.73291 455.507172 216.638611 455.665894 216.547668 C 455.824646 216.456726 455.985229 216.369202 456.147705 216.285156 C 456.31015 216.20105 456.474396 216.120361 456.640381 216.04303 C 456.806213 215.965881 456.973633 215.892273 457.142639 215.822205 C 457.311615 215.752136 457.482056 215.685669 457.65387 215.622803 C 457.825714 215.559998 457.998779 215.500793 458.173096 215.445251 C 458.347595 215.389893 458.523071 215.338074 458.699493 215.289917 C 458.876129 215.242004 459.053619 215.197632 459.231995 215.156982 C 459.41037 215.116455 459.589539 215.079712 459.769531 215.046814 C 459.949524 215.013855 460.130096 214.984741 460.31131 214.959473 Z"/>
        <path id="path1596" fill="#211717" stroke="none" d="M 430.794891 253.12085 C 430.927887 253.138916 440.049622 256.366821 440.329681 256.53302 C 439.432709 256.613708 438.49353 256.507751 437.610657 256.349304 C 435.462616 255.963867 432.105164 255.001343 430.794891 253.12085 Z"/>
        <path id="path1597" fill="#211717" stroke="none" d="M 395.985626 224.967529 L 396.338928 225.053528 L 396.403442 225.224487 C 395.58902 226.695129 385.745544 233.373108 383.626678 234.669006 C 382.102997 235.618286 380.519562 236.454468 378.876434 237.177551 C 383.335754 237.932739 387.980377 237.406616 392.428802 236.86853 C 391.022705 237.511475 389.341614 237.800293 388.041687 238.62323 C 386.96582 239.304077 385.967712 240.45697 385.007294 241.30957 C 382.150238 243.845459 379.35318 246.445007 376.395508 248.86438 C 378.888092 248.359192 381.399536 247.957336 383.878601 247.378357 C 386.048401 246.871338 388.178131 246.200562 390.335449 245.642273 C 389.846497 246.047913 389.273407 246.396179 388.838837 246.85968 C 386.995026 248.826111 385.704651 253.008301 385.018707 255.603943 C 388.308228 254.950378 392.080811 251.482788 394.399536 251.082703 C 394.655975 251.038391 394.552979 251.018738 394.755249 251.159424 C 394.358124 252.487488 390.326691 254.927551 389.021759 255.762939 C 389.943756 255.841858 390.866638 255.907715 391.790405 255.960388 C 395.385712 256.387512 399.1474 256.275269 402.762878 256.202515 C 400.17868 257.34552 394.65625 257.618164 391.884644 257.498962 C 390.42041 257.436096 384.320313 257.23114 383.529541 256.368164 C 383.130554 254.841003 386.082123 249.385437 386.978302 247.791931 C 384.369965 248.606323 375.86911 250.895325 373.529419 250.126282 C 373.25705 250.036865 373.246704 250.02594 373.107361 249.764771 C 374.536285 248.430359 376.331268 247.375977 377.841431 246.104187 C 379.455109 244.745056 380.935547 243.233337 382.509674 241.82959 C 383.712433 240.757202 384.997223 239.770203 386.263153 238.773438 C 383.682709 239.072632 379.016052 239.019287 376.605225 238.089905 C 376.200653 237.934082 376.018036 237.79126 375.833801 237.401611 C 376.273407 236.697876 380.916412 234.558594 382.033722 233.913025 C 386.785309 231.167175 390.999878 227.293152 395.985626 224.967529 Z"/>
        <g id="g10">
            <path id="path1598" fill="#96867a" stroke="none" d="M 311.704803 213.263245 C 313.226898 213.571167 316.039642 214.84375 317.324951 215.716248 C 315.773376 215.731384 314.096008 215.34729 312.568054 215.069885 C 312.129791 214.488525 311.808075 213.99585 311.704803 213.263245 Z"/>
            <path id="path1599" fill="#96867a" stroke="none" d="M 302.427246 208.667419 C 302.593414 208.826477 302.93985 212.543823 303.0354 213.212524 C 300.431854 213.215149 297.844208 213.028809 295.244904 212.909912 L 294.321411 212.811951 L 294.292725 212.662476 L 294.268311 212.789368 C 294.571198 212.410339 301.398621 209.154846 302.427246 208.667419 Z"/>
            <path id="path1600" fill="#96867a" stroke="none" d="M 303.231567 216.092651 L 303.325256 216.119751 C 303.710693 216.519531 305.601776 227.094849 305.966797 228.771973 C 306.340546 230.491333 306.823669 232.18811 307.291138 233.884094 C 304.061646 234.974548 297.600006 236.988525 295.67334 239.805786 C 295.330109 240.307495 295.298004 240.757202 295.4039 241.338501 C 295.553101 241.579285 295.648407 241.707764 295.901642 241.851929 C 298.031372 243.063171 306.587677 240.488525 309.038605 239.696411 C 311.107544 247.069092 312.99411 248.2854 318.92511 252.788025 C 315.88858 260.835449 312.21579 268.628601 309.061707 276.633545 C 307.036133 281.821411 305.129913 287.052673 303.343048 292.327362 C 302.310455 295.478546 301.436035 298.678589 300.435547 301.839844 C 297.472046 303.979675 294.255829 306.459503 292.29068 309.573547 C 295.007843 307.922699 297.670349 305.700317 300.104004 303.64679 C 298.630493 308.76416 297.474701 313.917908 296.254944 319.09848 C 292.495605 320.991699 288.691406 322.76889 284.916687 324.625214 C 288.944397 324.409393 292.551086 322.828613 295.928711 320.73288 C 294.339447 327.69223 293.319305 334.714783 291.979034 341.717682 C 288.429688 343.678589 284.206329 345.410919 280.208893 346.045074 C 284.470459 341.670685 287.090485 336.173706 289.903748 330.822449 C 285.838593 333.181519 281.126556 334.741058 276.493958 335.540863 C 278.084137 333.652191 279.736389 331.755524 281.105591 329.69693 C 282.240662 327.990082 283.12674 326.05545 284.443909 324.482117 C 285.304504 323.454285 286.350403 322.535034 287.312408 321.599304 C 289.913025 319.069824 292.688873 316.466278 294.681885 313.415161 C 293.080139 314.440582 291.583527 315.72168 290.130707 316.947266 C 288.390656 318.414948 286.782013 320.039246 285.03244 321.492615 C 281.093658 324.764038 276.42218 325.079926 271.53299 325.651459 C 273.73291 323.486938 275.898865 321.290863 277.8078 318.859314 C 279.067993 317.25412 280.109894 315.492065 281.359619 313.882904 C 282.108215 312.918518 282.97702 312.046234 283.824615 311.169159 C 285.134705 309.876404 286.425354 308.564545 287.696503 307.233582 C 285.8479 307.905701 284.1745 309.029358 282.363312 309.804749 C 277.952332 311.692902 272.412842 312.608459 267.607208 312.676941 C 269.804535 310.190979 272.52887 308.133728 274.767273 305.64856 C 276.655121 303.552551 278.231018 301.222137 279.988312 299.022064 C 281.023315 297.726135 282.17749 296.51593 283.300079 295.295654 C 281.587402 295.73764 280.102966 296.67627 278.456116 297.287354 C 275.034668 298.556488 271.072388 299.5466 267.477386 300.151306 C 268.804352 298.726349 270.24176 297.408386 271.539398 295.952637 C 273.8284 293.385193 275.949402 290.667236 278.232635 288.09314 C 279.8638 286.254333 281.614471 284.522278 283.205322 282.648193 C 281.423859 283.299622 279.669769 284.041016 277.861145 284.615479 C 275.927429 285.22998 273.948151 285.670349 271.972382 286.124573 C 274.303802 283.269897 276.75412 280.521179 279.323334 277.87854 C 281.892578 275.235901 284.571167 272.709045 287.359131 270.298035 C 285.20047 270.909363 283.129395 271.783508 280.948975 272.34967 C 277.311066 273.294189 273.523071 273.901794 269.83432 274.638184 C 272.838318 271.384216 276.030792 268.093201 279.315918 265.127258 C 281.925049 262.771912 284.718658 260.581421 287.423615 258.335693 C 282.27597 259.239014 277.316528 260.417603 272.297089 261.863281 C 273.652161 260.465698 275.146393 259.186462 276.587799 257.877747 C 278.716003 255.945801 280.816254 253.957825 283.084015 252.189148 C 286.565155 249.473816 290.329529 247.153748 294.027802 244.752991 C 288.389618 246.315735 282.556305 246.967712 276.888031 248.345398 C 279.796387 245.783752 282.993744 243.593262 286.150238 241.356018 C 288.379242 239.776306 290.579834 238.127625 292.854248 236.615845 C 295.403656 234.921753 299.069794 232.937195 301.257935 230.904114 C 295.615204 232.015808 290.134155 233.544067 284.414978 234.316223 C 286.40799 232.34259 288.880432 230.625671 291.172333 229.011414 C 295.299042 226.105286 299.54364 223.4104 303.792725 220.688721 C 300.524475 220.503174 297.422943 220.659241 294.173004 221.004578 C 296.996094 219.122009 300.127899 217.465088 303.231567 216.092651 Z"/>
            <path id="path1601" fill="#96867a" stroke="none" d="M 388.460327 154.62146 C 393.57663 155.641418 398.881165 157.166992 403.726746 159.108459 C 405.604279 159.860657 407.441742 160.757874 409.280792 161.60022 C 407.727905 159.287964 405.85965 157.131897 404.113495 154.960022 C 406.245941 156.419495 408.329041 157.94635 410.362762 159.540588 C 412.673523 161.340576 414.915283 163.209229 417.352661 164.838318 C 416.397827 161.49292 416.12149 158.071289 414.916351 154.760193 C 421.98056 158.834229 428.416168 164.385254 433.164337 171.016235 C 433.833008 166.871704 433.19751 162.998474 432.655457 158.892761 C 434.237274 160.070923 435.685577 161.521912 437.076813 162.917175 C 440.066345 165.915283 442.400726 169.290283 444.393738 173.011902 C 444.786621 173.745911 445.310883 174.563721 445.4935 175.376831 C 445.831451 176.881958 445.353638 178.509705 445.386261 180.037903 C 445.395294 180.457825 445.40274 180.775574 445.70694 181.078979 L 445.984619 181.035767 C 446.346161 180.63623 446.398438 179.600952 446.53064 179.053833 C 447.56723 174.760986 448.403137 170.654663 448.734161 166.241821 C 453.045105 174.333069 454.531097 180.966431 455.892883 189.938477 C 457.034058 187.231934 457.851105 184.177612 458.407776 181.296692 C 458.877594 186.327515 459.029999 191.059998 458.462463 196.088989 C 456.218292 191.144165 453.941803 186.32196 451.04599 181.713684 C 450.176636 180.330688 449.318695 178.916382 448.255798 177.671387 C 448.599854 179.989868 448.334381 182.341736 448.231903 184.672424 C 448.156799 186.380371 448.162109 188.088562 448.166351 189.798035 C 446.481018 187.015015 442.112457 180.083008 439.092133 179.244995 C 438.894379 179.251343 438.5737 179.193787 438.448425 179.361816 C 437.431732 180.725403 438.772797 188.479797 439.148682 190.316711 C 438.617432 189.843689 438.076355 189.382202 437.525452 188.932129 C 436.974518 188.482117 436.414429 188.043945 435.845123 187.617615 C 435.275635 187.191284 434.697388 186.777283 434.110382 186.375549 C 433.523376 185.973816 432.928162 185.584717 432.324677 185.20813 C 431.721222 184.831543 431.110077 184.467957 430.491211 184.117371 C 429.872192 183.766785 429.246063 183.429382 428.612885 183.105225 C 427.979706 182.781189 427.339935 182.470703 426.693665 182.173706 C 426.04718 181.87677 425.394806 181.593628 424.736481 181.32428 C 425.875275 184.875488 427.11441 188.401489 428.178864 191.973694 C 422.743744 189.010437 416.623199 187.007629 410.520721 185.948181 C 412.475525 189.93634 413.666046 191.673218 416.528961 195.061707 C 413.15213 193.981323 409.808502 193.229004 406.355499 192.450195 C 403.198761 188.53717 399.532593 185.490295 394.371918 184.915588 C 391.475311 184.593323 388.401123 185.151001 386.09726 187.024048 C 383.876465 188.829651 382.757874 191.620667 382.509125 194.415039 C 382.161652 198.320374 383.05545 202.018677 385.627686 205.041626 C 387.718353 207.498901 390.701538 208.884583 393.743073 209.788696 C 389.478577 210.279297 385.613068 211.973938 381.61615 213.408691 C 379.879578 214.031982 378.021667 214.55249 376.399475 215.444458 C 378.3349 216.543945 380.592834 217.792908 382.866425 217.910522 L 383.143555 217.972107 C 382.491089 218.539612 381.327881 218.846191 380.543213 219.272827 C 379.301941 219.947327 378.089905 220.713135 376.916077 221.500488 C 374.977448 222.800903 372.917297 224.080933 371.246796 225.718811 C 370.219238 226.726135 369.408264 228.001404 368.274536 228.893555 C 367.498871 229.50415 366.54007 229.93866 365.688232 230.441162 C 363.74646 231.586853 359.026428 234.355774 358.270691 236.52002 C 357.881805 237.63385 358.259552 239.199768 358.788849 240.20874 C 359.083496 240.770447 359.539307 241.378845 360.196808 241.521912 C 361.344086 241.771484 363.236786 240.112915 364.26886 239.56665 C 366.559174 240.365112 368.823486 240.809753 371.190002 241.287537 C 368.852692 242.972595 362.639252 246.058533 361.142365 248.052063 L 361.189331 248.297363 C 362.136993 249.282166 364.076141 249.55719 365.364105 249.83136 C 364.086487 250.441956 362.96759 251.364624 361.834656 252.204529 C 356.333069 249.638672 350.974121 246.803101 345.757813 243.697876 C 342.942169 242.039307 340.068359 240.370667 337.467743 238.384827 C 342.556976 238.534546 348.37146 237.901184 352.914917 235.435669 C 350.894836 235.510742 348.842621 235.842834 346.829163 236.047241 C 344.017334 236.324707 341.200073 236.527344 338.377441 236.655151 C 342.743347 232.185181 348.712555 229.457397 353.757202 225.857361 C 348.799347 227.658142 338.53006 232.640991 335.9552 237.199829 C 328.815338 232.013184 319.219757 223.734009 314.005737 216.676147 C 316.801208 217.084656 319.516266 217.356201 322.349976 217.21582 C 319.06897 215.284363 315.455902 213.702576 312.017761 212.062073 C 312.465057 207.213562 313.960876 202.457458 315.945404 198.023071 C 318.37854 197.37561 320.862366 196.612976 323.167816 195.597107 C 320.413239 195.812134 317.629425 196.045715 314.904816 196.518738 C 311.503052 197.109375 308.230835 197.941833 304.776245 198.236267 C 306.523956 197.140198 308.545135 195.960266 310.507599 195.342529 C 314.646271 194.039978 322.289703 194.423523 326.710815 194.770264 C 328.264252 194.89209 330.492188 195.354187 331.97287 194.983643 C 331.92511 194.913269 331.889801 194.832886 331.829803 194.772644 C 329.482666 192.411438 319.467682 192.324341 316.00116 192.607849 C 318.683807 190.673767 322.190704 189.385498 325.331512 188.406555 C 326.776398 187.956055 328.323456 187.584717 329.692902 186.939636 C 327.00174 185.453674 321.905853 183.975098 318.888733 183.232605 C 328.228394 179.875183 337.950592 177.533081 347.883301 176.911682 C 344.916046 173.931396 341.007019 172.157715 337.176788 170.571045 C 345.404236 169.028259 354.052399 169.051086 362.393982 169.131775 C 359.796509 166.681946 357.128998 164.666016 353.937988 163.031006 C 352.643372 162.367615 351.291412 161.825745 350.001587 161.153748 C 358.316895 161.147766 368.09906 161.069397 376.006348 163.8797 C 377.638611 164.459839 379.180634 165.414124 380.76062 166.134033 C 378.233215 162.60675 374.980377 159.039368 371.498444 156.464111 C 373.292908 156.62561 375.100891 157.05719 376.853943 157.464661 C 384.036285 159.134399 390.630096 161.860535 397.139801 165.282227 C 395.895355 163.70929 394.920349 161.945679 393.714417 160.344543 C 392.163116 158.285339 390.285828 156.435242 388.460327 154.62146 Z"/>
        </g>
        <path id="path1602" fill="#211717" stroke="none" d="M 336.487152 183.122681 C 339.600922 182.925476 343.253265 182.878784 346.325348 183.456116 C 342.91217 184.407227 338.350616 184.467773 334.796478 184.670593 C 332.897705 184.865662 327.020081 185.658813 325.669708 184.7146 L 325.627777 184.473633 C 325.655914 184.438843 325.680603 184.400574 325.712463 184.369263 C 326.813538 183.292847 334.682343 183.186401 336.487152 183.122681 Z"/>
        <path id="path1603" fill="#211717" stroke="none" d="M 422.67099 164.822937 C 423.608582 165.244934 424.544556 166.060242 425.329742 166.734497 C 428.945221 169.838684 433.019928 175.69165 433.38623 180.562988 C 431.520905 177.620667 430.081879 174.55658 427.974731 171.747009 C 427.089691 170.616882 426.152496 169.531799 425.163055 168.491821 C 426.022339 172.43457 427.20517 176.262085 427.926147 180.249451 C 425.531494 176.748169 423.574585 169.098083 422.67099 164.822937 Z"/>
        <path id="path1604" fill="#211717" stroke="none" d="M 408.044312 162.156433 C 410.851196 163.030151 417.975677 170.479736 419.945068 172.978455 C 421.104553 174.449341 422.049835 176.006226 422.997772 177.615356 C 421.633606 176.380249 420.492432 174.879089 419.230469 173.538025 C 417.398865 171.629578 415.50061 169.789917 413.535706 168.019043 C 412.230042 166.876343 410.916962 165.742188 409.596405 164.616516 C 411.075256 168.721436 413.596771 175.075012 413.992035 179.29834 C 412.384979 176.614868 408.597778 166.86322 408.028656 163.879333 C 407.912109 163.268127 407.920624 162.764038 408.044312 162.156433 Z"/>
        <path id="path1605" fill="#211717" stroke="none" d="M 391.882507 167.919189 C 392.042328 167.905151 392.194153 167.893738 392.354492 167.898743 C 393.647491 167.939087 395.230408 168.780334 396.364685 169.355286 C 402.153137 172.288818 405.8992 175.583618 410.203247 180.309692 C 408.635986 179.466125 407.244232 178.29071 405.822479 177.228882 C 403.51651 175.506897 401.201477 173.805359 398.742065 172.307129 C 397.191132 171.436279 395.606293 170.632141 393.987549 169.894714 C 396.881256 173.542542 399.285706 177.478149 401.677979 181.464172 C 400.616516 180.489075 399.604065 179.465576 398.640656 178.393677 C 397.492584 177.091125 391.871918 169.859375 391.400726 168.741577 C 391.462036 168.339966 391.623444 168.224182 391.882507 167.919189 Z"/>
        <path id="path1606" fill="#211717" stroke="none" d="M 331.453644 201.165222 L 331.660431 201.168945 C 331.286133 201.640381 319.556335 205.214966 317.904694 205.882568 C 320.914124 206.814575 330.35495 208.490662 332.144348 210.375916 L 332.121796 210.563843 C 331.449402 210.720459 330.570221 210.503052 329.884552 210.419189 C 325.51947 209.761902 320.850159 209.073303 316.728485 207.432312 C 316.087677 207.177185 314.924744 206.710815 314.692993 206.010254 C 314.63858 205.845703 314.709991 205.659058 314.808472 205.523987 C 316.149261 203.685181 328.727448 201.547485 331.453644 201.165222 Z"/>
        <path id="path1607" fill="#211717" stroke="none" d="M 352.510925 174.321655 C 358.227417 174.295654 368.897797 177.391052 373.640656 180.758301 C 369.794769 179.468262 366.050568 178.114929 362.091614 177.178162 C 359.576172 176.583008 357.023346 176.228943 354.472076 175.830505 L 356.733185 177.463257 C 361.151398 180.678711 365.605682 184.132507 369.459778 188.010254 C 366.424042 186.536987 361.711487 183.328979 358.96698 181.286072 C 357.299133 180.045044 353.284973 177.358948 352.16449 175.880127 C 351.955841 175.604553 351.902771 175.353699 351.854462 175.024048 C 352.023529 174.617615 352.158661 174.569336 352.510925 174.321655 Z"/>
        <path id="path1608" fill="#211717" stroke="none" d="M 342.260742 214.138977 L 342.246399 214.303772 C 341.533661 215.203674 334.336456 218.834778 332.865601 219.6922 C 330.090912 221.334473 327.333038 223.004517 324.59198 224.702332 C 326.553925 224.339233 328.579071 224.190552 330.562775 223.980042 C 335.156708 223.491882 339.856812 223.059998 344.478851 223.186096 C 343.406433 223.482605 342.304535 223.694153 341.217255 223.931458 C 338.568817 224.630127 326.133728 226.690857 323.925171 226.103394 C 323.412292 225.96698 323.158539 225.666504 322.900787 225.224792 C 322.875305 224.963013 322.877411 224.822327 322.987305 224.574646 C 323.885864 222.549561 332.775085 218.196899 335.147156 217.123413 C 337.486572 216.065063 339.90274 215.161194 342.260742 214.138977 Z"/>
        <path id="path1609" fill="#211717" stroke="none" d="M 368.857727 167.798401 C 373.074432 167.984497 383.814087 173.564575 387.586975 175.900024 C 389.223755 176.913269 390.798676 178.028442 392.233704 179.314026 C 390.688507 178.561462 389.220306 177.635559 387.694214 176.840515 C 383.30365 174.552856 378.264832 172.020691 373.6409 170.311707 C 372.727478 169.926025 371.777435 169.608826 370.845428 169.269043 C 375.059479 173.123413 380.571075 178.893005 383.564575 183.661072 C 383.24762 183.444275 382.933319 183.223755 382.621674 182.999512 C 381.506531 182.19043 380.435944 181.269836 379.42511 180.334106 C 376.883942 177.982239 374.470978 175.447937 372.05722 172.96521 C 370.921082 171.796631 369.619568 170.651245 368.603943 169.384766 C 368.413879 169.147461 368.310883 168.970642 368.260986 168.664063 C 368.367157 168.253967 368.563873 168.078979 368.857727 167.798401 Z"/>
        <path id="path1610" fill="#211717" stroke="none" d="M 355.808624 191.103821 C 363.486816 190.514221 373.255219 191.431885 380.767761 193.12207 C 378.035736 193.347656 375.121063 192.968079 372.375244 192.838257 C 366.667206 192.568542 360.955475 192.325928 355.251984 192.812012 L 355.207916 192.965149 C 358.947052 194.500244 366.514038 198.901184 369.773804 201.360352 C 368.354706 200.975281 366.962219 200.510254 365.596375 199.965393 C 363.40799 199.098938 352.85495 194.304077 352.34314 192.34906 C 352.293518 192.160278 352.305176 191.973694 352.427307 191.820801 C 352.988464 191.117859 354.972443 191.160889 355.808624 191.103821 Z"/>
        <path id="path1611" fill="#211717" stroke="none" d="M 333.603271 187.897644 C 338.715363 187.382935 348.477112 188.537415 353.282043 190.140747 C 346.586029 190.011719 339.940674 189.380188 333.232697 189.450867 C 335.167694 190.522522 337.090973 191.614868 339.002563 192.727844 C 342.292328 194.697205 346.107666 196.705627 348.84317 199.406616 C 343.692841 197.838074 339.010803 195.059021 334.393799 192.356445 C 332.959564 191.516846 330.564667 190.46936 329.670349 189.03833 C 329.658936 188.888062 329.59787 188.763306 329.716797 188.648865 C 330.387604 188.002808 332.712433 187.974365 333.603271 187.897644 Z"/>
        <path id="path1612" fill="#211717" stroke="none" d="M 364.922668 203.841553 L 364.962494 203.859558 L 364.964325 203.979553 C 362.362915 204.975281 359.360382 205.409851 356.625427 205.899597 C 352.966949 206.554993 347.501556 207.608276 344.080139 208.899475 C 345.706299 209.671143 347.506073 209.962341 349.268677 210.259644 C 350.967834 210.54657 352.776642 210.947449 354.501526 210.974731 C 360.069946 211.062378 369.798492 209.349426 374.86145 210.77301 C 372.895264 211.321716 370.774811 211.394409 368.74649 211.572571 L 359.958984 212.302795 C 358.44165 212.430786 356.723389 212.48761 355.254639 212.890808 C 354.940857 212.977051 354.746277 213.024292 354.573486 213.312317 L 354.929443 213.623413 C 359.07077 216.340332 364.692505 217.783325 369.53595 218.681335 C 365.665649 219.016113 361.986755 218.629883 358.376343 217.117065 C 356.939972 216.515015 353.240631 214.728516 352.627441 213.212524 C 352.735229 212.94043 352.797058 212.838501 352.759094 212.541443 C 349.801971 211.672913 346.699371 212.044006 343.884247 210.45105 C 343.179199 210.052063 342.478943 209.603455 342.254913 208.789307 C 342.277985 208.485107 342.322601 208.282837 342.530426 208.046265 C 344.930389 205.314514 360.925476 204.128784 364.922668 203.841553 Z"/>
        <path id="path1613" fill="#e0ddd1" stroke="none" d="M 320.67337 254.126953 C 335.996338 265.598206 353.701996 271.549866 371.392517 278.210632 C 376.010864 279.949341 380.511078 281.978455 385.10553 283.777954 L 385.19577 291.639862 C 387.321259 292.439392 389.514404 292.967896 391.630341 293.848938 C 400.78418 297.660034 407.040649 302.321655 415.039764 307.914185 C 414.705292 308.930878 414.334473 309.928986 413.950897 310.927887 L 413.489258 310.794067 C 412.272705 310.448212 411.568451 310.28653 410.425964 310.919891 C 407.896973 308.720093 404.900818 306.931213 402.145416 305.033508 C 397.324829 301.713776 392.518005 298.331909 387.993134 294.613159 C 382.845215 290.38266 379.097534 284.695374 373.653107 280.841492 C 374.556976 282.265137 375.667633 283.599304 376.678467 284.951538 C 378.004669 286.725281 379.304077 288.517059 380.782104 290.16925 C 388.490295 298.785553 398.627655 304.951752 408.379303 310.982819 C 406.658661 313.059174 405.62738 315.698853 404.135529 317.947754 C 399.792725 324.493805 395.933319 328.69458 389.785187 333.583405 C 388.281403 334.779297 386.785583 336.081848 385.146149 337.088196 C 385.004395 337.02475 384.862091 336.961823 384.725403 336.88855 C 383.267273 336.107086 381.893829 334.874329 380.569489 333.881256 C 377.510925 331.588287 374.473114 329.305664 371.51358 326.882874 C 358.758331 316.441315 346.5961 304.200256 339.707092 288.991974 C 338.755005 286.898926 337.922913 284.759338 337.210785 282.573059 C 336.799072 281.297852 336.492737 279.939514 336.017578 278.692383 C 335.947479 278.507935 335.885376 278.327698 335.826721 278.138428 C 335.595245 279.535217 336.071991 281.383057 336.350433 282.757263 C 338.015625 290.976471 341.327942 296.861298 345.787811 303.819855 C 342.084747 301.464783 337.711151 296.731232 335.177673 293.144958 C 334.153564 291.694794 333.272247 289.800018 332.040039 288.554749 C 335.046295 294.808563 339.34848 300.513123 345.227173 304.288666 C 345.718536 304.583832 346.267487 304.873962 346.698303 305.254364 C 347.945129 306.355194 348.961548 307.941528 350.027618 309.232971 C 351.575195 311.083344 353.183838 312.878937 354.853516 314.619781 C 356.785492 316.608551 358.766205 318.547516 360.795685 320.436646 C 362.825134 322.325775 364.900726 324.162781 367.0224 325.947693 C 369.144073 327.732758 371.309174 329.463348 373.517731 331.139404 C 375.726471 332.815643 377.97583 334.435364 380.265808 335.998505 C 381.481323 336.821136 383.399475 338.415436 384.840851 338.652252 C 387.595734 339.105103 393.748657 335.463867 395.956146 333.830017 C 397.867401 334.759644 399.63504 335.845886 401.627289 336.628693 C 400.725433 338.564545 399.838379 340.507141 398.966095 342.456421 C 403.640717 344.920349 407.220886 345.749634 412.214294 347.086182 C 412.243774 355.605072 412.040436 364.081238 412.479218 372.600647 C 410.154388 373.388763 407.906281 374.4758 405.591003 375.317017 C 401.360229 376.815765 397.067932 378.110382 392.714172 379.200867 C 368.582458 385.447723 345.35379 386.062805 321.065704 380.10022 C 310.766174 377.571777 300.814362 373.96933 291.653076 368.578003 C 291.694763 360.106354 293.043793 350.489288 294.363342 342.047119 C 294.896637 338.634705 295.350555 335.209045 295.968536 331.810211 C 296.745056 327.531647 297.614075 323.272003 298.575531 319.031342 C 299.536835 314.790466 300.5896 310.572449 301.733887 306.377228 C 302.878326 302.182007 304.113037 298.013611 305.438019 293.87204 C 306.763153 289.730438 308.17746 285.619568 309.681 281.539368 C 313.065521 272.284363 317.482635 263.450134 320.67337 254.126953 Z"/>
        <path id="path1614" fill="#211717" stroke="none" d="M 355.641937 323.604279 C 357.157928 324.90976 358.846985 327.313446 359.619446 329.163116 C 357.860565 330.693726 356.088135 332.195374 354.149017 333.497131 C 345.539337 339.276031 330.518463 345.709564 320.137146 345.927734 C 326.341309 356.040405 332.661713 362.464111 342.601044 368.940857 L 342.45108 369.004578 C 332.950012 364.132202 325.333923 356.595459 319.690918 347.575958 C 318.132202 345.084412 316.643524 342.510834 315.663757 339.729187 C 318.299164 339.925873 321.499451 338.913971 324.041443 338.194336 C 326.120636 337.617767 328.180267 336.978455 330.220367 336.276428 C 332.260437 335.574219 334.277252 334.810516 336.270813 333.985321 C 338.264343 333.160126 340.230927 332.274933 342.170502 331.329742 C 344.109894 330.384552 346.018738 329.381134 347.897095 328.319489 C 350.537018 326.836945 353.006775 325.08313 355.641937 323.604279 Z"/>
        <path id="path1615" fill="#e0ddd1" stroke="none" d="M 355.565216 324.826416 C 356.519409 326.217194 357.539642 327.557739 358.625885 328.848022 C 357.091553 330.116089 355.319672 331.190094 353.643066 332.25827 C 344.400818 338.146545 330.987244 344.318298 319.983734 345.311096 L 319.911774 345.333679 C 319.333374 345.112793 317.428467 341.240387 317.060577 340.509064 C 328.016571 339.544403 340.146423 334.988739 349.478119 329.227875 C 351.598572 327.918945 353.7341 326.522919 355.565216 324.826416 Z"/>
    </g>
</svg>
