<?xml version="1.0" encoding="UTF-8"?>
<!-- Generated by Pixelmator Pro 2.4.7 -->
<svg width="1024" height="1024" viewBox="0 0 1024 1024" xmlns="http://www.w3.org/2000/svg" xmlns:xlink="http://www.w3.org/1999/xlink">
    <path id="Percorso" fill="#211717" stroke="none" d="M 550.52002 44.405579 C 553.317993 44.648193 556.172974 45.753784 558.843018 46.630371 C 578.997986 53.249084 598.630005 67.601196 613.432007 82.621277 C 610.218018 69.932495 609.724976 55.137512 599.520996 45.724182 C 626.640991 55.237793 657.432983 76.007568 675.601013 98.490906 C 675.335999 84.544495 674.784973 71.392883 671.687012 57.735596 C 676.346008 60.427673 680.687988 64.048889 684.924988 67.36853 C 704.851013 82.978027 720.473022 101.362976 732.700989 123.546997 C 735.557007 111.895996 737.859985 97.218872 736.31897 85.367432 C 757.817993 105.968994 767.94397 137.463013 772.547974 166.106995 C 775.682983 153.213989 777.133972 140.427002 777.02301 127.163025 C 783.762024 148.974976 787.562012 173.208008 786.711975 196.077026 C 786.43103 203.64801 784.026978 220.89502 785.341003 227.26001 C 786.682007 233.761963 791.909973 240.731018 795.291016 246.386963 C 795.909017 245.731649 796.542338 245.091654 797.190979 244.46698 C 807.684998 234.367981 821.554993 228.083984 836.262024 228.434021 C 849.26001 228.742981 861.038025 234.245972 869.937012 243.65802 C 883.924011 258.452026 889.192993 279.033997 888.502014 299.015991 C 887.882019 316.964966 881.929993 330.650024 868.86499 342.882996 C 883.882019 347.903992 899.325989 352.226013 914.991028 354.603027 C 923.695984 348.927979 931.388 342.64801 942.002014 340.953003 C 948.375 339.936035 955.343994 340.332031 960.671021 344.365967 C 965.460999 347.992004 968.14502 353.912964 968.940002 359.756958 C 970.27002 369.532959 965.622009 379.769043 959.689026 387.297974 C 949.432007 400.315002 931.866028 411.730957 917.78302 420.445007 C 868.809021 450.747009 812.294983 469.838989 755.536011 478.803955 C 737.655029 481.627991 719.703003 482.946045 701.734985 484.969971 C 713.445007 499.078979 724.80603 511.265015 733.140991 527.932983 C 728.090027 537.669983 719.786987 546.588989 712.620972 554.823975 C 745.096008 558.638 778.929016 568.596008 806.322021 586.789978 C 814.773987 567.077026 828.718994 549.945984 844.197998 535.219971 C 849.94397 529.752991 856.083008 524.713013 861.715027 519.127014 C 872.794983 520.405029 883.588989 523.120972 894.322998 526.054993 C 896.833984 524.835999 899.278015 523.387024 901.728027 522.04303 C 903.909973 524.257996 907.437012 527.031982 908.440979 529.984009 C 909.142029 532.046997 907.650024 534.762024 906.754028 536.645996 C 902.317017 545.971008 896.504028 554.840027 891.461975 563.862976 C 886.497009 572.75 882.002991 581.905029 877.119995 590.84198 C 869.77301 604.286987 862.015015 617.726013 855.551025 631.619019 C 857.482971 635.398987 858.992981 638.737 859.143982 643.085022 C 859.455994 652.073975 854.343994 658.888977 851.309021 666.882996 C 849.557983 671.495972 850.171997 677.086975 848.617004 681.924011 C 846.232971 689.340027 841.278015 693.307007 837.330994 699.528992 C 836.026978 701.583008 835.325012 704.142029 834.377014 706.380981 C 832.633972 710.495972 829.598022 714.051025 826.515015 717.234985 C 820.500977 723.448975 811.934998 730.440979 802.963989 730.596008 C 787.189026 750.627014 769.437012 773.525024 749.382019 789.362976 C 738.161987 798.223999 735.900024 798.031006 722.158997 796.403015 C 725.429993 813.508972 728.797974 830.591003 731.39502 847.815002 C 732.30603 853.856018 733.44397 860.007996 733.927979 866.093994 C 734.242981 870.051025 733.52301 872.570984 730.872986 875.588013 C 721.617981 886.127014 700.677979 895.893005 687.396973 899.763 C 680.395996 901.802979 673.526978 902.935974 666.283997 903.547974 L 663.965027 916.952026 C 666.679993 921.039001 669.494995 923.866028 673.348999 926.893982 C 679.557007 927.659973 685.677002 929.648987 691.69397 931.325012 C 707.497986 935.72699 736.286011 943.119995 746.182983 956.492004 C 747.198975 957.86499 747.560974 958.872986 747.34198 960.612976 C 746.356018 962.603027 744.825989 963.460999 742.851013 964.338013 C 741.407654 964.977336 739.927979 965.515991 738.411987 965.953979 C 736.895345 966.392008 735.356344 966.725688 733.794983 966.955017 C 705.41803 971.072998 585.007019 965.153992 560.614014 955.044983 C 558.70697 954.255005 557.04303 953.406006 555.697021 951.799988 C 550.406006 945.487 540.687012 920.903015 537.219971 912.312012 C 523.741028 916.65802 509.678009 919.697021 495.779999 922.367004 C 451.988007 930.781006 412.496002 932.867981 367.959991 932.541016 C 372.018005 939.822021 377.794006 945.690002 382.225006 952.66803 C 399.329987 956.372986 419.80899 964.262024 430.998993 978.476013 C 432.675995 980.606995 434.173004 982.590027 433.822998 985.40802 C 432.312012 988.08197 430.148987 989.070984 427.313995 990.083008 C 395.553986 1001.429993 334.269989 994.427002 301.316986 988 C 288.381989 985.47699 274.328003 982.695007 262.389008 976.927002 C 258.864014 971.632019 256.087006 966.033997 253.496994 960.236023 C 249.386002 950.726013 245.279999 941.138 241.548004 931.473999 C 238.962006 924.780029 236.779007 917.799011 233.654007 911.343994 C 205.936996 903.124023 166.296997 887.586975 145.623993 867.598022 C 144.858002 843.132019 145.005997 820.760986 147.718994 796.419983 C 141.794998 800.111023 136.061996 804.002991 129.914993 807.330017 C 134.085007 797.229004 138.147003 787.161987 141.897003 776.890991 C 125.851997 784.005005 109.240997 787.299011 91.861504 788.89801 C 96.082901 783.325012 101.596001 778.411987 106.177002 773.08197 C 115.203003 762.578979 121.611 751.296021 127.790001 738.997986 C 112.103996 744.861023 93.9459 747.440979 77.348602 749.203979 C 90.810303 735.478027 101.686996 720.268982 112.008003 704.107971 C 95.844803 708.335022 77.714203 711.552979 61.097698 708.671997 C 77.781303 694.085999 94.5028 672.138 107.436996 653.966003 C 88.989998 661.224976 65.028297 661.981018 45.377499 660.940979 C 50.729801 654.91803 56.978802 649.479004 62.625099 643.687988 C 74.701632 631.323324 86.257434 618.489665 97.292503 605.187012 C 79.195503 610.651978 61.034801 613.674988 42.448399 616.689026 C 61.438999 597.267029 78.718697 575.86499 96.892799 555.65802 C 83.367401 560.190002 69.220299 562.057007 55.772701 566.51001 C 59.986099 559.609985 66.747002 553.565979 72.365601 547.780029 C 84.411102 535.375 97.164902 523.377991 108.040001 509.919006 C 88.248398 514.471985 68.312599 517.948975 48.479801 522.252991 C 54.672401 513.61499 62.734699 506.619019 70.267403 499.182007 C 83.728699 485.893005 97.216797 471.94104 112.436996 460.646973 C 95.390404 465.507996 77.923302 468.796021 60.8601 473.594971 C 74.3881 452.575012 103.551003 429.687988 123.442001 414.125 C 106.163002 417.368042 89.201599 420.130005 72.132698 424.515015 C 89.131699 403.615967 130.035004 377.372009 153.401001 361.712036 C 135.149002 364.803955 116.877998 367.343018 98.560898 369.988037 C 114.950996 354.327026 138.022995 338.151978 157.186996 326.030029 C 163.778 321.860962 170.610992 318.10199 177.186005 313.900024 C 161.253998 316.457031 145.056 317.875 129.037003 319.879028 C 134.113007 316.573975 139.884995 314.089966 145.156006 311.067993 C 151.796997 307.261963 158.018005 302.791016 164.729996 299.080994 C 172.432999 294.822998 180.546997 291.380981 188.279999 287.18103 C 169.634003 285.539001 151.360001 284.908997 132.772995 287.362 C 144.923996 280.341003 156.737 272.687988 169.223007 266.268005 C 176.600998 262.473999 184.309998 259.700989 191.744995 256.114014 C 191.559006 253.078003 191.188995 249.968018 192.042007 247.004028 C 194.572006 238.214966 205.278 233.359009 212.686005 229.179993 C 204.429993 229.869019 195.651001 230.312988 187.507996 231.785034 C 180.882996 232.983032 174.233002 235.125977 167.686005 236.76001 C 199.731003 215.018005 236.720001 195.634033 272.334991 180.46698 C 257.86499 175.554016 245.145996 172.859985 230.242004 169.844971 C 234.786672 167.76298 239.373006 165.777669 244.001007 163.889038 C 248.628998 162.000366 253.294657 160.210022 257.997986 158.518005 C 262.701335 156.825989 267.438344 155.233317 272.209015 153.73999 C 276.979665 152.247314 281.779663 150.855652 286.609009 149.565002 C 291.437663 148.274353 296.291656 147.086019 301.17099 146 C 306.050323 144.91333 310.950328 143.929993 315.871002 143.049988 C 320.791677 142.169983 325.728343 141.393982 330.681 140.721985 C 335.634328 140.049988 340.59966 139.48232 345.576996 139.018982 C 336.915009 133.714966 328.001007 128.804993 318.436005 125.317017 C 309.923004 122.211975 301.085999 120.042969 292.502991 117.127014 C 327.726013 110.942017 362.375 106.507996 398.230011 107.999023 C 387.463013 99.818604 376.039001 94.73468 363.865997 89.13623 C 357.016998 85.986206 350.296997 82.720703 343.307007 79.88031 C 368.605011 76.648926 392.802002 76.566895 418.252991 78.495605 C 433.177002 79.626526 447.592987 81.091614 461.967987 85.563232 C 452.022003 73.528809 439.839996 65.475525 428.346985 55.245422 C 432.586324 55.743022 436.814667 56.318807 441.032013 56.972778 C 445.25001 57.626709 449.454336 58.358419 453.644989 59.167908 C 457.835663 59.977315 462.01 60.863953 466.167999 61.82782 C 470.325999 62.791606 474.464996 63.831909 478.584991 64.94873 C 482.704336 66.065592 486.801676 67.258219 490.877014 68.526611 C 494.952332 69.795003 499.002991 71.138265 503.028992 72.556396 C 507.054321 73.974609 511.052327 75.466715 515.02301 77.032715 C 518.993673 78.598714 522.934001 80.237569 526.843994 81.94928 C 519.44397 73.412598 511.334991 64.541687 502.455994 57.539124 C 498.177002 54.1651 493.355988 51.601807 489.101013 48.203979 L 488.585999 47.784973 C 514.892029 49.781982 549.307007 59.614685 573.661987 69.896484 C 566.596008 60.567688 560.192993 51.266724 550.52002 44.405579 Z"/>
    <path id="path1" fill="#b1a092" stroke="none" d="M 895.718018 532.004028 C 896.544983 533.421997 897.302979 534.809998 898.427979 536.021973 L 895.405029 538.474976 C 893.945984 537.559998 892.497009 536.820984 891.546997 535.335022 L 895.718018 532.004028 Z"/>
    <path id="path2" fill="#e0ddd1" stroke="none" d="M 895.718018 532.004028 C 897.197021 530.859009 898.734009 529.580994 900.742004 529.932007 C 901.491028 530.062988 901.572021 530.471985 901.995972 531.038025 C 901.739014 533.468994 900.757996 534.129028 898.914001 535.630981 L 898.427979 536.021973 C 897.302979 534.809998 896.544983 533.421997 895.718018 532.004028 Z"/>
    <path id="path3" fill="#fefefd" stroke="none" d="M 722.223022 948.47699 C 726.549011 949.187012 734.020996 953.526978 737.237976 956.539001 C 738.106018 957.353027 738.111023 957.513 738.156982 958.633972 C 737.198975 959.140991 736.202026 959.544983 735.203003 959.963013 C 733.116028 959.495972 724.653992 950.450012 722.223022 948.47699 Z"/>
    <path id="path4" fill="#96867a" stroke="none" d="M 149.225006 773.830017 C 149.292007 773.893005 149.369003 773.947021 149.427002 774.018982 C 150.792007 775.700989 149.074005 786.406006 148.817993 789.039001 C 147.067001 790.724976 145.057007 792.077026 143.085999 793.491028 L 142.882996 793.283997 C 142.181 790.359009 147.796997 777.059021 149.225006 773.830017 Z"/>
    <path id="path5" fill="#fefefd" stroke="none" d="M 827.390991 705.018005 L 827.724976 705.598999 C 824.278992 712.218018 816.124023 717.911987 810.067017 721.958984 L 809.81897 721.304016 C 811.621663 718.089335 813.337341 714.829 814.966003 711.52301 C 819.708984 709.880981 823.393005 708.070984 827.390991 705.018005 Z"/>
    <path id="path6" fill="#96867a" stroke="none" d="M 569.416992 746.901001 C 571.616984 747.549683 573.80898 748.224345 575.992981 748.924988 L 566.39801 768.61499 L 559.596008 765.942993 C 562.757019 759.528015 565.916992 753.138977 569.416992 746.901001 Z"/>
    <path id="path7" fill="#96867a" stroke="none" d="M 823.396973 284.73999 C 823.653015 284.875 823.919983 284.990967 824.164978 285.145996 C 827.047974 286.966003 828.572998 291.140991 829.11499 294.312988 C 829.978027 299.369019 829.598022 305.268005 826.55603 309.541016 L 825.770996 309.35498 C 823.117004 306.794006 821.822021 303.396973 821.158997 299.823975 C 820.179993 294.546021 820.317993 289.296021 823.396973 284.73999 Z"/>
    <path id="path8" fill="#fefefd" stroke="none" d="M 603.796997 651.166016 C 604.401001 651.237 605.002014 651.320984 605.596985 651.450989 C 610.596008 652.544006 615.676025 655.187988 618.575989 659.463013 L 615.158997 666.762024 C 611.947021 666.585022 608.348999 665.742004 605.294983 664.724976 C 603.523987 664.13501 602.044006 663.190002 601.268005 661.421997 C 599.810974 658.104004 602.411011 654.088013 603.796997 651.166016 Z"/>
    <path id="path9" fill="#fefefd" stroke="none" d="M 672.219971 530.349976 C 675.218994 533.757996 677.473999 538.687012 679.349976 542.789978 C 678.783997 546.52301 677.61499 550.247009 676.65802 553.903015 C 673.752991 554.067017 670.843994 554.375 667.94397 554.627991 C 666.932007 554.620972 667.184021 554.719971 666.411987 554.442017 C 665.374023 554.06897 662.619995 545.849976 661.914001 544.260986 C 662.268005 543.843994 662.614014 543.416016 662.973022 543.002014 C 666.416992 539.028015 669.273987 534.695984 672.219971 530.349976 Z"/>
    <path id="path10" fill="#fefefd" stroke="none" d="M 844.442993 671.492981 L 844.692993 671.78302 C 844.994995 673.395996 844.559021 675.184998 844.057007 676.719971 C 840.276001 688.263977 828.486023 701.224976 817.747009 706.570007 L 817.38501 706.330017 C 816.065002 703.408997 820.661987 692.671997 821.778015 689.523987 C 830.215027 684.379028 837.359985 678.322998 844.442993 671.492981 Z"/>
    <path id="path11" fill="#fefefd" stroke="none" d="M 850.689026 637.335022 C 850.820984 637.473022 850.968018 637.598022 851.083984 637.747986 C 852.684021 639.807007 852.93103 642.906006 852.715027 645.416016 C 851.473022 659.875 836.562012 672.848999 826.366028 681.630005 C 825.869019 681.914001 826.211975 681.754028 825.27002 681.929016 C 825.255981 681.775024 825.224976 681.620972 825.22699 681.465027 C 825.267029 679.25 827.142029 675.869995 827.859985 673.659973 C 834.169006 654.234985 836.780029 652.620972 850.689026 637.335022 Z"/>
    <path id="path12" fill="#fefefd" stroke="none" d="M 370.559998 956.09198 C 371.708659 956.064677 372.854991 956.107015 373.998993 956.218994 C 388.519989 957.744995 416.173004 969.099976 425.036011 980.968994 C 425.71701 981.882019 425.717987 981.804016 425.531006 982.992004 L 424.252014 983.866028 L 412.946991 986.60498 C 400.57901 971.911011 387.404999 964.502991 370.559998 956.09198 Z"/>
    <path id="path13" fill="#96867a" stroke="none" d="M 209.119995 361.937012 L 209.735001 362.047974 C 211.688995 364.417969 213.869995 374.656006 214.927994 378.053955 C 201.824997 379.825012 188.804001 381.905029 175.666 383.459961 C 173.529999 383.601013 171.380005 383.920044 169.251007 384.156982 C 179.085999 375.756958 197.044998 367.333008 209.119995 361.937012 Z"/>
    <path id="path14" fill="#96867a" stroke="none" d="M 782.786987 272.704956 C 789.778992 272.30896 794.409973 274.005981 800.385986 277.396973 C 801.447998 279.726013 802.245972 282.18396 803.112976 284.592041 C 801.615011 283.955322 800.098022 283.366984 798.562012 282.827026 C 788.69397 279.333984 778.838989 282.269043 769.78302 286.575989 C 765.008972 288.990967 760.715027 292.049988 756.322021 295.080994 C 755.481018 291.195007 754.346985 287.339966 753.338013 283.492004 C 763.000977 278.112 771.598999 273.698975 782.786987 272.704956 Z"/>
    <path id="path15" fill="#fefefd" stroke="none" d="M 689.525024 492.396973 L 690.208984 492.812012 C 688.289001 507.114014 685.169006 521.129028 682.030029 535.198975 C 678.658997 529.932983 675.849976 524.439026 672.125977 519.380005 C 666.807007 512.91803 660.72998 509.14502 653.84198 504.634033 C 666.810974 502.815002 678.257996 499.132996 689.525024 492.396973 Z"/>
    <path id="path16" fill="#96867a" stroke="none" d="M 917.017029 370.080994 C 916.765015 367.937988 916.491028 365.624023 916.974976 363.497009 C 917.809021 359.828979 920.88501 357.282959 923.901001 355.332031 C 931.741028 350.26001 943.617004 345.355957 953.088989 347.629028 C 956.955017 348.557007 959.002014 350.247986 961.054016 353.588013 C 954.646973 362.166016 941.088989 367.802979 930.767029 369.255005 C 926.205994 369.896973 921.619019 370.072021 917.017029 370.080994 Z"/>
    <g id="cravatta">
        <path id="path17" fill="#b1a092" stroke="none" d="M 623.867004 568.879028 C 624.219971 572.848999 620.633972 584.271973 619.784973 589.067993 L 619.307007 589.031982 L 618.257996 587.294006 L 614.635986 581.111023 C 617.411011 576.69397 620.075989 572.5 623.867004 568.879028 Z"/>
        <path id="path18" fill="#96867a" stroke="none" d="M 654.796997 547.250977 C 655.745972 547.073975 656.343018 546.870972 657.231995 547.448975 C 659.700012 549.05603 660.51001 552.757019 661.276978 555.414001 C 653.676025 561.416016 646.041992 565.698975 639.940979 573.494995 L 636.55603 579.45697 C 639.11499 568.354004 641.882996 557.937988 646.455017 547.455994 C 649.273987 547.546997 651.986023 547.494019 654.796997 547.250977 Z"/>
        <path id="path19" fill="#96867a" stroke="none" d="M 639.294983 550.401978 C 640.041016 553.68103 635.689026 565.156006 634.906982 569.049011 C 634.245972 572.335999 633.939026 575.69397 633.314026 578.994019 C 632.614014 582.692993 629.518982 597.31897 626.664001 599.27002 L 625.750977 598.265991 C 624.802002 597.038025 623.825989 595.825012 623.515991 594.268005 C 622.252991 587.913025 625.973022 578.630981 627.166016 572.276978 C 627.723022 569.312012 627.905029 566.343018 628.046021 563.333984 C 631.174011 558.512024 635.265015 554.458984 639.294983 550.401978 Z"/>
        <path id="path20" fill="#96867a" stroke="none" d="M 645.958984 506.578003 C 655.966003 510.018005 662.666016 516.612 669.40802 524.593018 C 667.31897 529.453003 664.184021 534.492004 660.783997 538.554016 C 657.789978 542.130981 655.015015 544.182007 650.336975 544.619019 C 643.749023 542.815979 632.802002 530.254028 626.932007 525.19397 C 632.489014 518.078003 638.244995 511.401978 645.958984 506.578003 Z"/>
    </g>
    <path id="path21" fill="#fefefd" stroke="none" d="M 363.566986 956.268005 C 363.671997 956.271973 363.779999 956.255981 363.881989 956.278992 C 367.20401 957.013 371.200012 959.46698 374.196991 961.091003 C 387.325012 968.198975 398.253998 975.76001 407.806 987.406006 C 400.27066 988.374674 392.710327 989.068014 385.125 989.486023 C 383.717987 989.570007 381.075989 989.968994 379.769989 989.325989 C 376.497986 987.715027 371.786987 980.690979 368.114014 977.869019 C 359.247009 971.057007 348.993011 965.66803 339.126007 960.474976 C 347.069 958.151978 355.337006 956.958984 363.566986 956.268005 Z"/>
    <path id="path22" fill="#fefefd" stroke="none" d="M 333.406006 962.572998 C 333.881989 962.445007 333.934998 962.39801 334.506989 962.429993 C 343.098999 962.91803 367.785004 981.744019 373.032013 989.185974 C 362.618988 989.049988 352.382996 988.367981 342.019989 987.338989 C 328.098999 985.695984 314.579987 983.76001 300.968994 980.36499 C 308.82901 972.01001 322.553986 965.812988 333.406006 962.572998 Z"/>
    <path id="path23" fill="#6f5e54" stroke="none" d="M 961.054016 353.588013 C 963.960022 360.328979 964.286011 366.11499 961.583008 373.05603 C 957.780029 382.822021 949.697998 391.169006 940.896973 396.639038 C 931.580017 392.692993 922.429016 389.053955 918.45697 378.77301 C 917.396973 376.030029 916.843994 373.025024 917.017029 370.080994 C 921.619019 370.072021 926.205994 369.896973 930.767029 369.255005 C 941.088989 367.802979 954.646973 362.166016 961.054016 353.588013 Z"/>
    <path id="path24" fill="#fefefd" stroke="none" d="M 655.41803 565.432007 C 666.054993 556.096985 687.846985 558.054016 701.379028 558.924011 C 732.14801 560.903015 762.979004 568.026978 790.476013 582.302979 C 794.713013 584.502014 800.588013 587.101013 803.77002 590.718018 C 803.994019 590.973022 804.205994 591.23999 804.424011 591.502014 C 801.393982 590.507996 798.710999 589.242981 795.89502 587.750977 C 794.752014 588.06897 793.767029 588.307007 792.575012 588.390015 C 788.867981 587.739014 784.60199 585.47998 781.01001 584.15802 C 774.701335 581.858663 768.322998 579.772319 761.875 577.898987 C 734.517029 570.13501 705.258972 566.903992 676.872986 566.823975 C 669.892029 566.804016 662.921021 566.676025 655.992004 567.664001 L 655.41803 565.432007 Z"/>
    <linearGradient id="linearGradient1" x1="739.31934" y1="569.57898" x2="737.93994" y2="581.65186" gradientUnits="userSpaceOnUse">
        <stop offset="1e-05" stop-color="#000000" stop-opacity="1"/>
        <stop offset="1" stop-color="#221a18" stop-opacity="1"/>
    </linearGradient>
    <path id="path25" fill="url(#linearGradient1)" stroke="none" d="M 655.41803 565.432007 C 667.687988 565.224976 680.067993 564.674988 692.330017 564.97998 C 725.85498 565.810974 766.442017 570.689026 795.89502 587.750977 C 794.752014 588.06897 793.767029 588.307007 792.575012 588.390015 C 788.867981 587.739014 784.60199 585.47998 781.01001 584.15802 C 774.701335 581.858663 768.322998 579.772319 761.875 577.898987 C 734.517029 570.13501 705.258972 566.903992 676.872986 566.823975 C 669.892029 566.804016 662.921021 566.676025 655.992004 567.664001 L 655.41803 565.432007 Z"/>
    <path id="path26" fill="#96867a" stroke="none" d="M 830.815979 233.684998 C 833.307007 233.291016 836.127991 233.369019 838.640991 233.525024 C 850.237976 234.242004 861.208008 240.390015 868.734985 249.10199 C 880.507019 262.726013 884.864014 282.382996 883.437988 300.021973 C 882.109009 316.464966 876.083008 329.916992 863.504028 340.661011 C 861.153015 339.509033 858.937988 338.06897 856.700989 336.712036 C 865.250977 331.559998 870.252991 323.874023 874.166016 314.917969 C 876.278015 308.781006 877.721985 302.86499 878.018005 296.358032 C 878.692993 281.515991 874.231018 263.289001 863.859985 252.195007 C 857.018005 244.875 848.195984 241.268005 838.237976 240.960999 C 822.637024 240.478027 812.896973 247.893982 802.062012 258.028992 C 800.578003 255.559021 799.361023 252.858032 798.065979 250.280029 C 798.153015 250.164978 798.23999 250.049011 798.328003 249.934021 C 805.963989 240.087036 818.843018 235.231995 830.815979 233.684998 Z"/>
    <path id="path27" fill="#fefefd" stroke="none" d="M 655.992004 567.664001 C 662.921021 566.676025 669.892029 566.804016 676.872986 566.823975 C 705.258972 566.903992 734.517029 570.13501 761.875 577.898987 C 768.322998 579.772319 774.701335 581.858663 781.01001 584.15802 C 784.60199 585.47998 788.867981 587.739014 792.575012 588.390015 L 793.737 589.484009 C 791.968994 590.236023 762.452026 584.190979 758.236023 583.44397 C 745.07135 581.112671 731.829 579.369344 718.508972 578.213989 C 705.189677 577.058675 691.845011 576.496338 678.474976 576.526978 C 671.013 576.533997 663.090027 576.380005 655.689026 577.348999 C 642.262024 579.106018 637.356018 596.91803 629.90802 606.315002 C 629.781006 606.474976 629.650024 606.632019 629.520996 606.789978 C 629.927653 605.191996 630.415995 603.619344 630.986023 602.072021 C 634.58197 592.232971 639.63501 579.138977 647.883972 572.320984 C 650.312012 570.312988 653.15802 568.984985 655.992004 567.664001 Z"/>
    <path id="path28" fill="#fefefd" stroke="none" d="M 559.773987 520.286011 C 564.625 521.784973 569.741028 525.765991 574.161987 528.388 C 585.965027 535.388977 597.732971 542.97998 610.047974 549.044983 C 614.612 542.718994 618.982971 536.330017 623.825989 530.203979 L 639.140015 544.997009 L 632.648987 552.221985 C 625.604004 560.44397 618.164001 568.406006 611.79303 577.169006 C 595.414001 556.812012 578.469971 538.47699 559.773987 520.286011 Z"/>
    <path id="path29" fill="#e0ddd1" stroke="none" d="M 696.590027 485.192993 C 701.179993 487.112 723.833008 520.127991 727.270996 527.046997 C 721.695984 535.013 715.143982 542.140015 708.648987 549.353027 C 707.156006 551.013977 705.590027 552.617981 704.057983 554.244995 C 696.729329 553.916341 689.397339 553.698344 682.062012 553.591003 C 687.643982 537.820984 692.692993 520.715027 694.995972 504.140991 C 695.869995 497.856995 695.713989 491.484009 696.590027 485.192993 Z"/>
    <path id="path30" fill="#e0ddd1" stroke="none" d="M 535.000977 205.057983 C 538.442017 204.768982 541.585999 204.815002 544.971008 205.687012 C 557.447998 208.901978 565.992981 218.30603 572.291016 228.994995 C 570.026978 229.330994 566.45697 229.442017 564.593018 230.828003 C 563.495972 231.643982 563.434021 232.098999 563.192993 233.346985 C 564.547974 237.468018 571.843994 242.14801 575.075989 245.161987 L 569.570007 247.203003 C 558.28302 249.932983 547.940002 250.645996 537.236023 245.403015 C 530.468994 242.088989 524.744019 236.344971 522.445007 229.051025 C 520.796997 223.825989 521.195984 217.714966 523.901978 212.901001 C 526.452026 208.363037 530.11499 206.322998 535.000977 205.057983 Z"/>
    <path id="path31" fill="#fefefd" stroke="none" d="M 863.390015 522.905029 C 872.549988 525.736023 882.062012 527.018005 891.340027 529.383972 C 874.450989 540.682983 860.590027 553.708984 846.687012 568.481995 C 839.432007 576.192017 832.052002 584.278992 825.859009 592.883972 C 822.916016 592.669983 818.916992 592.840027 816.268982 591.596985 C 815.963013 590.557007 815.952026 591.052002 816.213013 590.109985 L 815.981018 589.424988 L 815.455994 591.187988 C 813.471008 592.192017 811.213013 591.594971 809.041016 591.356018 C 820.297974 561.278992 841.523987 544.513977 863.390015 522.905029 Z"/>
    <path id="path32" fill="#0c0706" stroke="none" d="M 815.981018 589.424988 C 818.36499 572.580994 841.653015 548.197998 855.257019 537.875977 C 859.523987 534.638 864.762024 530.637024 869.885986 529.046997 L 869.968994 529.547974 C 864.372986 534.593018 858.419006 539.231018 852.853027 544.310974 C 842.388977 553.862 833.414001 564.367981 825.190979 575.887024 C 821.942993 580.437012 818.437012 584.950012 816.213013 590.109985 L 815.981018 589.424988 Z"/>
    <path id="path33" fill="#fefefd" stroke="none" d="M 672.538025 933.236023 C 672.857971 933.234009 673.179016 933.203979 673.497986 933.22998 C 676.171021 933.447998 680.031006 935.45697 682.723022 936.307983 C 700.02002 941.77301 717.263 947.526978 729.697998 961.484009 L 708.822021 962.55603 C 697.692993 951.330994 686.632996 946.406982 671.526001 942.463989 C 678.64502 945.815979 685.754028 949.049011 692.320007 953.429016 C 696.140015 956.166016 699.598999 959.276978 702.968018 962.54303 C 673.617981 962.593994 644.151978 960.026978 614.947998 957.312012 C 630.809998 942.393005 651.247986 935.617004 672.538025 933.236023 Z"/>
    <path id="path34" fill="#96867a" stroke="none" d="M 891.546997 535.335022 C 892.497009 536.820984 893.945984 537.559998 895.405029 538.474976 C 879.072021 551.778992 864.247009 566.817017 850.22699 582.515991 C 844.05603 589.426025 838.541992 597.79303 831.705994 603.955994 C 818.276978 604.387024 804.703003 602.04303 791.473022 599.955994 L 753.114014 593.919983 C 730.202677 590.55601 707.200338 588.016683 684.106995 586.302002 C 674.393982 585.546021 664.671997 584.596008 654.934021 584.249023 C 649.577026 593.921997 645.552979 604.797974 641.073975 614.919006 C 634.863322 628.681661 628.290324 642.269328 621.35498 655.682007 C 619.455994 653.877991 617.465027 652.150024 615.52301 650.390015 C 615.557983 650.289001 615.593994 650.189026 615.627014 650.088013 C 619.197998 639.038025 644.054016 588.473999 651.71698 583.034973 C 657.200989 579.143005 668.038025 580.304993 674.598022 580.38501 C 697.76001 580.66803 721.508972 582.588013 744.414978 586.044006 C 767.03302 589.455994 789.369995 594.241028 812.075989 597.129028 C 814.413025 597.427002 826.179016 599.633972 827.223999 599.396973 C 828.411987 599.127991 855.067017 567.380981 858.760986 563.500977 C 868.460999 553.315002 879.695984 542.89801 891.546997 535.335022 Z"/>
    <path id="path35" fill="#fefefd" stroke="none" d="M 517.257019 479.406982 C 526.703003 481.578979 536.268982 486.182007 545.716003 488.927002 C 575.635986 497.619019 608.963989 504.286011 640.203003 505.103027 C 632.867004 511.096985 626.335999 517.148987 620.359985 524.520996 C 615.484985 530.340027 611.346008 536.760986 607.642029 543.372986 C 595.39502 534.632019 582.596985 527.231018 569.414001 520.013977 C 562.815002 516.401978 555.570007 513.250977 549.39502 508.989014 C 537.987976 501.115967 527.223022 489.144043 517.257019 479.406982 Z"/>
    <path id="path36" fill="#96867a" stroke="none" d="M 600.846985 289.080994 C 601.166016 289.037964 601.799988 289.196045 602.127991 289.244995 C 602.85498 293 601.288025 298.872986 600.867981 302.787964 C 588.671021 303.93396 576.513977 307.381958 564.76001 310.695007 C 547.536987 315.549011 530.192017 320.950012 513.544983 327.545044 C 502.200989 332.040039 491.097992 337.312988 480.033997 342.453003 C 470.093994 347.071045 460.079987 351.601013 450.516998 356.971008 C 443.981659 360.672994 437.60199 364.626322 431.377991 368.830994 C 426.190002 372.346985 418.721985 378.971985 413.027008 381.015991 C 411.493988 381.56604 410.748993 380.981995 409.415985 380.323975 C 407.028015 376.553955 405.666992 373.062012 405.173004 368.606995 C 430.393005 342.643005 506.153992 315.323975 541.63501 304.520996 C 561.189657 298.674316 580.926982 293.527649 600.846985 289.080994 Z"/>
    <path id="path37" fill="#96867a" stroke="none" d="M 893.380005 546.453003 C 893.390015 546.603027 893.419006 546.752991 893.411987 546.903992 C 893.338989 548.466003 882.950989 564.758972 881.294983 567.773987 C 873.460022 582.034973 866.286987 596.817993 858.971985 611.361023 C 855.879028 617.510986 853.260986 624.231018 849.552002 630.01001 C 844.054016 638.577026 834.361023 644.038025 828.88501 655.120972 C 826.133972 660.689026 824.47998 666.882996 822.677002 672.809998 C 818.02002 688.127991 813.515991 706.653015 804.905029 720.125 C 800.565002 726.914001 794.841003 733.036987 789.648987 739.182983 C 777.395996 753.690979 764.828003 768.440979 750.52002 780.979004 L 750.422974 780.228027 C 773.706991 738.986694 795.834005 697.133687 816.804016 654.669006 C 821.940002 644.197652 826.80367 633.601318 831.39502 622.880005 C 834.596008 615.299988 836.875 606.674988 841.583984 599.882019 C 844.312012 595.947021 847.687012 592.320984 850.830017 588.713013 C 864.04303 573.539978 878.856018 560.302002 893.380005 546.453003 Z"/>
    <path id="path38" fill="#fefefd" stroke="none" d="M 832.758972 246.617004 C 837.054016 246.382996 841.221985 246.238037 845.455994 247.135986 C 853.778992 248.901978 860.520996 254.042969 865.11499 261.106995 C 873.499023 274 875.799988 291.69397 872.655029 306.584961 C 869.921997 319.531982 864.335022 327.573975 853.268982 334.700012 C 848.393005 331.53599 843.71167 328.106323 839.224976 324.411011 C 835.195007 321.26001 831.586975 317.584961 828.044006 313.908997 C 828.734985 312.72699 829.421997 311.536987 830.031982 310.309998 C 833.213013 303.916016 833.362 295.802002 830.986023 289.118042 C 830.125977 286.697998 828.440979 283.019043 825.776978 282.112 C 824.625 281.719971 823.500977 281.981995 822.52301 282.664001 C 818.53302 285.447998 817.987 292.19104 817.267029 296.533997 C 813.226013 285.922974 809.120972 275.359009 804.396973 265.028992 C 812.057007 255.075012 820.393005 249.091003 832.758972 246.617004 Z"/>
    <path id="path39" fill="#0c0706" stroke="none" d="M 825.280029 264.075012 C 828.218994 263.854004 831.616028 263.97998 833.986023 265.98999 C 834.849976 266.723022 835.047974 266.764038 835.145996 267.928955 C 833.004028 268.717041 829.552002 267.817017 827.229004 267.684998 C 823.028992 268.05603 818.763977 269.311035 814.651978 270.252014 C 818.017029 267.403992 821.211975 265.674011 825.280029 264.075012 Z"/>
    <path id="path40" fill="#96867a" stroke="none" d="M 810.882996 606.379028 C 818.406006 607.372986 825.219971 608.171997 832.737976 606.828003 C 824.049011 630.771973 811.294983 653.299988 799.94397 676.041992 C 788.893982 698.18103 777.729004 720.130005 766.107971 741.976013 C 757.320007 758.497986 748.552002 774.969971 738.307007 790.653015 C 737.562012 791.523987 737.875 791.260986 737.023987 791.892029 C 734.161011 794.012024 721.255005 790.731995 717.593018 790.20697 C 723.23999 777.784973 731.065979 765.994995 737.583008 753.976013 C 752.562988 725.721334 767.22231 697.301005 781.560974 668.715027 C 787.854309 656.533671 793.935994 644.247986 799.80603 631.857971 C 803.802002 623.507019 807.986023 615.190979 810.882996 606.379028 Z"/>
    <path id="path41" fill="#e0ddd1" stroke="none" d="M 679.526978 794.539001 C 691.54303 794.75 703.585999 795.244019 715.596008 795.682007 C 720.695984 820.10199 724.692993 845.073975 728.090027 869.789001 C 721.70697 875.91803 713.155029 880.203979 705.33197 884.258972 C 694.573975 890.044983 681.692017 895.440979 669.590027 897.392029 C 676.499023 864.468994 677.388977 828.153992 679.526978 794.539001 Z"/>
    <path id="path42" fill="#fefefd" stroke="none" d="M 541.736023 724.473999 C 558.132019 712.390991 571.598999 693.551025 581.786987 676.039001 C 585.301025 670 588.315979 663.661987 591.875 657.659973 C 594.008972 654.062012 595.45697 653.369995 599.434021 652.343018 C 598.06897 654.679993 595.530029 658.005981 595.883972 660.836975 C 597.606995 674.619995 651.71698 679.812012 663.47998 689.64801 C 665.515015 691.349976 668.176025 694.421021 668.143982 697.252991 C 668.127991 698.651978 667.289978 699.747009 666.270996 700.611023 C 657.461975 708.085022 635.648987 704.393982 624.716003 703.614014 C 624.401978 703.671997 624.088013 703.734985 623.77301 703.788025 C 622.612 703.984985 621.659973 703.854004 620.508972 703.682983 C 619.86499 703.586975 620.146973 703.583984 619.554993 703.684998 L 619.267029 704.421997 L 618.848022 704.018005 L 621.304016 705.219971 L 620.671997 705.718994 C 620.836975 705.794006 620.994995 705.888 621.16803 705.945007 C 634.619995 710.367981 655.15802 710.614014 668.05603 704.242004 C 666.116028 708.857971 663.666992 713.114014 660.291016 716.840027 C 648.422974 729.939026 626.085022 729.827026 610.026001 727.278992 C 604.445984 726.393005 597.921021 724.241028 592.390015 724.476013 L 591.955994 724.958008 C 592.830994 725.992004 593.812012 726.549011 595.030029 727.099976 C 609.27002 733.54303 634.650024 733.646973 649.471985 728.330994 C 637.067017 737.536011 622.677979 743.796021 607.231995 745.536011 C 582.822998 748.288025 560.690002 739.559998 541.736023 724.473999 Z"/>
    <path id="path43" fill="#0c0706" stroke="none" d="M 607.215027 701.125977 C 613.09198 701.487 618.939026 702.502014 624.716003 703.614014 C 624.401978 703.671997 624.088013 703.734985 623.77301 703.788025 C 622.612 703.984985 621.659973 703.854004 620.508972 703.682983 C 619.86499 703.586975 620.146973 703.583984 619.554993 703.684998 L 619.267029 704.421997 L 618.848022 704.018005 L 621.304016 705.219971 L 620.671997 705.718994 C 615.765015 704.804993 611.700012 703.314026 607.215027 701.125977 Z"/>
    <g id="vestito">
        <path id="path44" fill="#96867a" stroke="none" d="M 611.093018 786.046021 C 616.343018 787.11499 621.677979 787.870972 626.966003 788.736023 C 623.460999 807.05603 620.973999 826.174011 619.476013 844.75 L 618.872009 851.955994 L 611.939026 852.036011 C 610.976013 830.112 611.119019 807.98999 611.093018 786.046021 Z"/>
        <path id="path45" fill="#96867a" stroke="none" d="M 631.690979 789.328979 C 645.452026 791.244995 659.218018 792.559998 673.02301 794.070007 C 671.070007 810.187012 671.008972 826.58197 669.377014 842.755005 C 666.388977 843.937012 663.172974 844.755005 660.096008 845.695007 C 648.218994 848.708008 636.546997 850.382996 624.364014 851.598999 C 626.161011 830.791016 629.612 810.112 631.690979 789.328979 Z"/>
        <path id="path46" fill="#96867a" stroke="none" d="M 242.016006 914.190002 C 280.097992 925.379028 320.265991 930.059021 359.785004 931.992004 C 361.13501 935.408997 362.709991 938.445007 364.932007 941.375 C 346.25 941.46698 324.920013 944.130005 309.197998 955.020996 C 315.064006 953.171672 320.99234 951.549683 326.983002 950.155029 C 332.973663 948.759684 339.008993 947.595683 345.088989 946.663025 C 354.252014 945.523987 361.891998 945.353027 370.959991 947.190002 L 374.382996 952.078979 C 373.988007 952.021973 373.592987 951.961975 373.196014 951.91803 C 344.315002 948.713013 317.014008 961.057007 295.119995 978.869995 C 285.881989 976.921021 276.748993 974.388977 267.670013 971.812988 C 258.412994 952.963013 250.567001 933.375977 242.016006 914.190002 Z"/>
        <path id="path47" fill="#96867a" stroke="none" d="M 667.388 848.572021 L 668.276978 848.625977 C 670.47699 853.125977 660.89801 908.021973 658.614014 917.539978 C 644.497009 920.497009 631.893982 924.968018 619.624023 932.612976 C 632.874023 929.447021 645.674988 923.656982 659.14502 921.72998 C 661.109985 923.895996 662.796021 926.312012 664.539978 928.656006 C 644.59198 931.109985 624.049988 942.051025 609.789978 955.999023 L 598.882019 954.867004 C 592.492655 954.367655 586.136983 953.591329 579.815002 952.538025 C 573.492981 951.48468 567.228984 950.158671 561.02301 948.559998 C 554.392029 936.68103 548.630005 923.715027 543.98999 910.940979 C 559.914978 907.054993 601.02002 893.541992 612.46698 882.898987 C 612.453979 874.661987 612.052002 866.39502 611.97699 858.150024 C 631.265991 857.794006 648.963013 853.974976 667.388 848.572021 Z"/>
    </g>
    <path id="path48" fill="#96867a" stroke="none" d="M 675.624023 234.212036 C 693.315979 232.757996 714.171997 241.570007 727.523987 252.724976 C 741.11499 264.079956 750.604004 281.890991 752.159973 299.567017 C 754.04303 320.947998 744.445007 344.478027 730.73999 360.561035 C 718.455017 374.97699 701.947998 382.032959 683.382019 383.510986 C 665.426025 383.882996 646.739014 377.655029 632.888 366.166016 C 616.999023 352.984985 607.185974 332.153992 605.489014 311.721008 C 603.979004 293.537964 609.244019 274.177979 621.200012 260.202026 C 634.898987 244.187012 654.848999 235.794006 675.624023 234.212036 Z"/>
    <path id="path49" fill="#211717" stroke="none" d="M 676.937988 244.728027 C 694.580017 244.989014 711.474976 249.947021 724.56897 262.22998 C 735.478027 272.463989 742.018005 286.151978 742.343018 301.172974 C 742.773987 321.036987 734.536987 344.205994 720.546997 358.494995 C 710.549011 368.707031 697.369019 372.896973 683.325989 373.103027 C 667.70697 372.916016 654.317017 367.778015 642.484985 357.554993 C 628.375 345.363037 618.53302 327.381958 617.36499 308.634033 C 616.349976 292.338013 621.211975 277.356995 632.129028 265.140015 C 643.807983 252.070984 659.695984 245.768005 676.937988 244.728027 Z"/>
    <path id="path50" fill="#fefefd" stroke="none" d="M 674.35199 249.712036 C 674.838643 249.676025 675.325989 249.646688 675.814026 249.624023 C 691.648987 248.908997 708.603027 254.406982 720.348999 265.145996 C 730.70697 274.615967 737.151001 286.375977 737.760986 300.505005 C 738.572998 319.266968 732.267029 340.520996 719.393982 354.505005 C 710.622009 364.035034 698.950989 368.730957 686.158997 369.192017 C 672.145996 368.807007 658.627991 364.098022 647.716003 355.171997 C 633.732971 343.734985 623.791992 326.907959 622.023987 308.812988 C 620.625977 294.502991 624.533997 281.584961 633.749023 270.542969 C 644.280029 257.924988 658.078003 251.233032 674.35199 249.712036 Z"/>
    <path id="path51" fill="#211717" stroke="none" d="M 675.978027 275.075989 C 677.255981 274.976013 678.427002 275.040039 679.700989 275.131958 L 679.726013 275.551025 C 677.643982 277.771973 668.789001 280.14502 665.474976 282.023987 C 661.328979 284.374023 658.135986 287.473999 654.830994 290.868042 C 654.284973 291.401978 653.76001 291.735962 653.117981 292.143005 C 652.888977 291.226013 653.741028 290.14502 654.231018 289.368042 C 658.955017 281.880981 667.507019 277.007996 675.978027 275.075989 Z"/>
    <path id="path52" fill="#0c0706" stroke="none" d="M 674.252014 344.414001 C 669.544983 338.742004 667.896973 329.372009 668.25 322.187988 C 668.495972 317.171997 669.559998 310.06897 673.578003 306.687012 C 675.448975 305.112 677.200012 304.563965 679.606018 304.838989 L 675.265991 306.650024 L 675.343994 307.209961 C 675.557007 307.196045 675.77002 307.178955 675.984009 307.167969 C 676.749023 307.125977 676.458984 307.070007 676.973022 307.242004 C 673.653992 309.489014 672.028015 313.200012 671.276978 317.049988 C 669.726013 325.002014 671.338989 333.041992 674.362 340.419006 L 674.252014 344.414001 Z"/>
    <path id="path53" fill="#211717" stroke="none" d="M 679.606018 304.838989 C 684.106018 307.051025 686.812012 311.328003 688.382019 315.971985 C 691.065979 323.910034 691.442993 333.713989 687.591003 341.341003 C 686.403992 343.692993 684.116028 347.144043 681.377014 347.881958 C 679.752991 348.31897 678.22998 348.077026 676.812012 347.164001 C 675.789001 346.505981 674.911011 345.426025 674.252014 344.414001 L 674.362 340.419006 C 675.125 341.55603 676.088989 343.067993 677.351013 343.708008 C 678.465027 344.271973 679.648987 344.541016 680.843018 344.036987 C 682.512024 343.333984 683.666992 341.817993 684.461975 340.247986 C 687.814026 333.631958 687.442993 323.348999 685.015991 316.47699 C 683.45697 312.062012 681.237 309.18396 676.973022 307.242004 C 676.458984 307.070007 676.749023 307.125977 675.984009 307.167969 C 675.77002 307.178955 675.557007 307.196045 675.343994 307.209961 L 675.265991 306.650024 L 679.606018 304.838989 Z"/>
    <path id="path54" fill="#96867a" stroke="none" d="M 676.973022 307.242004 C 681.237 309.18396 683.45697 312.062012 685.015991 316.47699 C 687.442993 323.348999 687.814026 333.631958 684.461975 340.247986 C 683.666992 341.817993 682.512024 343.333984 680.843018 344.036987 C 679.648987 344.541016 678.465027 344.271973 677.351013 343.708008 C 676.088989 343.067993 675.125 341.55603 674.362 340.419006 C 671.338989 333.041992 669.726013 325.002014 671.276978 317.049988 C 672.028015 313.200012 673.653992 309.489014 676.973022 307.242004 Z"/>
    <path id="path55" fill="#fefefd" stroke="none" d="M 704.896973 153.864014 C 719.497009 167.033997 727.510986 178.309021 736.583984 195.557007 C 738.807007 199.78302 740.177002 205.317017 742.906006 209.11499 L 743.63501 209.044983 C 744.36499 207.938965 744.338989 206.713013 744.377014 205.429993 C 744.596008 198.085999 743.762024 190.596008 743.588013 183.242981 C 743.377014 174.31897 743.799988 165.385986 743.494019 156.460999 C 747.777344 162.807678 751.719666 169.359009 755.320984 176.11499 C 758.922994 182.871663 762.164327 189.796997 765.044983 196.890991 C 769.760986 208.453979 773.656006 220.401001 778.690979 231.817017 C 784.671997 245.377014 792.59198 257.650024 797.981995 271.55896 C 782.890991 266.684998 771.10199 268.164001 757.01001 275.440002 C 755.351318 276.308004 753.708313 277.204997 752.080994 278.130981 C 744.275024 259.070007 727.98999 244.02301 709.213013 236.088989 C 688.489014 227.330994 667.380005 227.625 646.666016 236.172974 C 645.539347 236.628337 644.424337 237.111674 643.320984 237.622986 C 642.218323 238.133687 641.128988 238.671692 640.052979 239.237 C 638.976318 239.801656 637.914998 240.392985 636.869019 241.010986 C 635.822347 241.628988 634.791667 242.272664 633.776978 242.942017 C 632.762329 243.611328 631.764994 244.305664 630.784973 245.025024 C 629.804342 245.743693 628.842692 246.486348 627.900024 247.252991 C 626.956665 248.019674 626.033 248.809672 625.129028 249.622986 C 624.225667 250.435649 623.342651 251.270325 622.47998 252.127014 C 621.618001 252.983663 620.777669 253.861328 619.958984 254.76001 C 619.14034 255.658 618.344686 256.576335 617.572021 257.515015 C 616.799357 258.453003 616.050354 259.409668 615.325012 260.38501 C 614.59967 261.360352 613.899007 262.353353 613.223022 263.364014 C 612.546997 264.374023 611.896647 265.40035 611.271973 266.442993 C 610.647339 267.485636 610.049011 268.543294 609.47699 269.615967 C 608.905009 270.687988 608.360006 271.774007 607.84198 272.874023 C 607.323995 273.973348 606.833659 275.085002 606.370972 276.208984 C 605.30603 278.843018 604.419983 281.573975 603.52002 284.269043 C 550.015991 294.605957 495.746002 311.377014 447.074005 336.146973 C 460.174988 322.396973 477.911011 310.704956 495.118011 302.833008 C 501.334015 299.989014 508.312988 298.119019 514.242004 294.804993 C 508.411011 294.874023 502.937988 296.94397 497.28299 297.13501 C 490.51001 294.718994 483.925995 291.339966 476.917999 289.697021 C 493.73999 284.367004 509.953003 276.820007 527.129028 272.707031 C 534.646973 270.906982 542.390015 269.775024 550.052979 268.787964 C 557.288025 267.855957 564.817993 267.588989 571.643982 264.853027 C 562.406982 263.770996 553.091003 264.342041 543.888 262.690002 C 529.429993 260.094971 515.530029 253.544983 507.036011 241.18103 C 499.554993 230.291016 497.506989 216.710999 500.049011 203.85498 C 501.579987 196.117004 505.246002 188.612 512.065979 184.214966 C 520.575989 178.728027 533.596985 178.057983 543.242981 180.244995 C 568.671997 186.01001 581.76001 208.014038 594.567993 228.537964 C 588.265015 228.39502 582.004028 228.35498 575.702026 228.549988 C 574.506022 225.457987 572.989014 222.532654 571.151001 219.773987 C 565.153015 210.863037 555.229004 202.007996 544.317017 200.124023 C 537.974976 199.028992 531.275024 199.940979 525.953003 203.752014 C 521.221985 207.139038 518.429993 212.030029 517.492981 217.731995 C 517.419657 218.153992 517.356995 218.577332 517.304993 219.002014 C 517.252991 219.427348 517.21167 219.853353 517.18103 220.280029 C 517.15035 220.707357 517.130676 221.13501 517.122009 221.562988 C 517.113342 221.991007 517.115336 222.419006 517.127991 222.846985 C 517.140645 223.275004 517.164307 223.702352 517.198975 224.129028 C 517.233643 224.555664 517.278992 224.981323 517.335022 225.406006 C 517.391012 225.830648 517.457662 226.253316 517.534973 226.674011 C 517.612976 227.095357 517.701314 227.514364 517.799988 227.93103 C 517.898661 228.347697 518.00767 228.761353 518.127014 229.171997 C 518.247009 229.583333 518.377014 229.991333 518.517029 230.395996 C 518.657694 230.800008 518.80835 231.200684 518.968994 231.598022 C 519.128988 231.99467 519.299316 232.387004 519.47998 232.775024 C 519.660645 233.163696 519.850993 233.547363 520.051025 233.926025 C 520.251017 234.304688 520.460347 234.678019 520.679016 235.046021 C 520.897685 235.414022 521.125671 235.776021 521.362976 236.132019 C 521.600321 236.488668 521.846334 236.838989 522.101013 237.182983 C 528.565979 245.966003 539.765991 250.55603 550.252014 252.15802 C 553.365987 252.637349 556.497314 252.824666 559.645996 252.719971 C 563.275024 252.619995 581.64502 250.55603 583.911011 248.901978 C 582.978027 245.81897 572.932983 237.447021 570.02002 235.057983 L 569.619995 234.734009 C 575.737976 233.410034 582.185974 233.139038 588.427002 233.235962 C 591.513977 233.285034 594.924011 233.674011 597.98999 233.301025 C 599.276001 233.143982 599.718994 232.853027 600.47998 231.851013 C 600.520996 227.617004 588.778015 211.89801 585.823975 207.544983 C 601.010661 210.777649 616.028666 214.661987 630.877991 219.197998 C 626.71698 213.174011 621.502991 207.742981 616.882996 202.052979 C 611.39502 195.292969 606.52002 188.234985 601.695007 180.98999 C 628.322998 187.700989 647.379028 194.780029 671.138977 208.97998 C 666.737 193.500977 661.213013 178.97699 654.919983 164.192993 C 670.682983 172.164978 687.218018 182.464966 700.491028 194.239014 C 704.666016 197.942993 707.866028 202.687988 712.18103 206.218994 C 712.314026 206.328979 712.450989 206.434021 712.585999 206.541016 C 707.893982 190.150024 704.258972 170.984009 704.896973 153.864014 Z"/>
    <path id="path56" fill="#96867a" stroke="none" d="M 658.729004 587.911987 C 673.616028 588.122009 688.940002 590.15802 703.784973 591.606018 C 728.565002 593.978007 753.249003 597.109009 777.836975 600.999023 C 787.554993 602.518005 797.393982 603.802979 807.018005 605.804993 C 793.312012 636.786011 777.471008 667.008972 761.741028 696.994019 L 712.612 790.127014 C 696.947021 789.836975 680.973999 788.403992 665.380981 786.880981 C 657.401652 786.159668 649.442993 785.258341 641.505005 784.177002 C 633.566325 783.096354 625.656331 781.83669 617.775024 780.39801 C 609.893026 778.95933 602.048014 777.343323 594.23999 775.549988 C 586.431315 773.756653 578.667318 771.787659 570.947998 769.643005 C 573.375 762.770996 576.940002 756.169006 579.661011 749.369019 C 599.98999 753.45697 621.971985 750.737 640.385986 741.04303 C 654.140015 733.802979 668.973022 721.192017 673.546021 705.75 C 675.080994 700.567993 675.122986 695.23999 672.372986 690.450989 C 663.973022 675.817993 635.294983 672.997986 620.460999 668.715027 C 626.455994 659.34198 630.304016 649.164001 634.81897 639.059998 C 638.689026 630.39502 642.875 621.856995 646.848999 613.237 C 650.747986 604.783997 654.447021 596.174988 658.729004 587.911987 Z"/>
    <path id="path57" fill="#e0ddd1" stroke="none" d="M 196.460999 247.153992 C 203.621002 237.917969 222.056 229.985962 233.199005 226.484009 C 226.100006 241.442993 222.408997 257.22699 219.772003 273.480957 C 218.149002 271.426025 216.841003 269.035034 215.455994 266.811035 L 213.925995 265.807983 L 213.322998 266 L 212.634003 268.674011 C 223.815994 294.562988 240.175995 313.390991 259.949005 332.945007 C 313.148987 385.552979 378.751007 422.218994 447.880005 449.618042 C 463.713013 455.894043 479.746002 461.146973 495.842987 466.658997 C 500.066986 468.105957 511.09201 480.488037 514.890991 484.042969 C 525.711975 494.171997 536.838013 503.974976 547.361023 514.419983 C 568.879008 536.081319 589.138326 558.862325 608.138977 582.763 C 615.330994 591.796997 621.317017 601.64502 628.268982 610.789978 C 624.495972 618.455017 620.257996 625.91803 616.809021 633.734985 C 583.429993 609.205994 551.245972 580.565979 509.47699 571.411011 C 509.248993 558.039001 509.888 534.455994 506.209015 522.129028 L 505.697998 522.719971 C 505.089996 521.48999 505.058014 521.19397 503.882996 520.53302 C 502.386993 521.744019 502.529999 522.455994 502.208008 524.338013 C 502.191986 524.427979 502.160004 524.513977 502.135986 524.603027 C 501.809998 529.291992 502.557007 534.627991 502.674988 539.396973 C 484.993988 531.810974 467.528992 523.945007 449.641998 516.823975 C 419.256012 504.72699 388.5 493.562012 358.546997 480.380005 C 343.40033 473.723348 328.535329 466.487671 313.951996 458.672974 C 299.368663 450.859009 285.110992 442.490031 271.178986 433.56604 C 259.256989 425.890015 247.005997 418.119019 236.076004 409.057983 C 233.837006 407.200989 231.910995 405.245972 230.667999 402.578979 C 225.841003 392.223022 223.098007 378.43103 220.085999 367.182007 C 212.192001 337.697998 204.326004 307.868042 199.395004 277.719971 C 197.75 267.660034 197.358994 257.311035 196.460999 247.153992 Z"/>
    <path id="path58" fill="#0c0706" stroke="none" d="M 212.634003 268.674011 C 209.270004 260.484985 206.951996 252.867004 205.968002 244.051025 C 209.317993 251.632019 211.572006 259.395996 215.455994 266.811035 L 213.925995 265.807983 L 213.322998 266 L 212.634003 268.674011 Z"/>
    <path id="path59" fill="#0c0706" stroke="none" d="M 500.532013 496.48999 C 502.18399 505.101013 505.109009 513.390991 506.209015 522.129028 L 505.697998 522.719971 C 505.089996 521.48999 505.058014 521.19397 503.882996 520.53302 C 502.386993 521.744019 502.529999 522.455994 502.208008 524.338013 C 502.191986 524.427979 502.160004 524.513977 502.135986 524.603027 C 500.910004 515.405029 500.278992 505.759033 500.532013 496.48999 Z"/>
    <path id="path60" fill="#211717" stroke="none" d="M 141.147995 613.919983 L 141.757996 614.14502 L 141.492004 614.955994 C 126.721001 628.84198 98.152496 645.228027 78.7612 651.005981 C 78.526604 650.942993 78.391296 650.690002 78.2239 650.513 C 80.399399 647.768982 86.181999 645.146973 89.350098 643.179993 C 94.154404 640.197021 98.715103 636.874023 103.556999 633.950989 C 115.624001 626.664978 128.444 620.026978 141.147995 613.919983 Z"/>
    <path id="path61" fill="#211717" stroke="none" d="M 211.367996 401.061035 L 211.759995 401.303955 C 208.024002 404.52002 203.669998 407.283997 199.653 410.166016 C 186.143005 419.859985 171.766006 429.035034 160.164993 441.018005 C 181.598007 436.119995 202.028 428.160034 223.464996 423.202026 C 220.544006 425.092041 217.550003 426.789001 214.501007 428.463013 C 205.192001 433.381958 164.403 449 155.746002 445.700989 C 154.403 445.188965 154.091995 444.61499 153.492996 443.370972 C 153.533997 442.255005 153.625 441.348999 154.067993 440.311035 C 157.912994 431.30603 182.897995 414.963013 191.748993 410.129028 C 198.100998 406.660034 204.703995 403.856995 211.367996 401.061035 Z"/>
    <path id="path62" fill="#211717" stroke="none" d="M 205.972 460.075012 C 204.882996 463.325012 168.789993 489.355957 162.589996 494.317017 C 157.61733 498.373006 152.774663 502.578328 148.061996 506.932983 C 170.279999 499.322021 192.550003 492.153992 214.550995 483.888 C 211.207001 486.075989 207.699997 488.046997 204.261993 490.083984 C 192.936996 496.368042 153.951004 514.450989 142.975998 512.140991 C 141.570999 511.844971 141.154007 511.407959 140.350006 510.271973 C 140.294998 509.278015 140.350998 508.515991 140.774002 507.614014 C 146.671005 495.020996 192.149994 465.145996 205.972 460.075012 Z"/>
    <path id="path63" fill="#211717" stroke="none" d="M 187.384995 522.01001 C 187.554001 522.130005 187.561005 522.385986 187.626007 522.583008 C 178.203995 532.919983 167.279007 542.065979 156.695999 551.179993 C 149.063995 557.754028 141.089005 564.356995 134.751999 572.22998 C 158.408005 564.512024 181.779999 551.085022 204.901001 541.528015 C 202.306 544.080017 199.341995 546.30603 196.513 548.596008 C 192.23233 551.592672 187.814331 554.371012 183.259003 556.93103 C 178.704336 559.491659 174.034332 561.821309 169.248993 563.919983 C 162.003006 567.177002 133.339005 580.653015 126.764 578.156006 C 126.174004 576.927979 126.153 575.984009 126.527 574.690002 C 130.541 560.791016 174.080994 529.919983 187.384995 522.01001 Z"/>
    <path id="path64" fill="#fefefd" stroke="none" d="M 785.750977 287.153992 C 787.357971 287.004028 788.888977 286.946045 790.495972 287.166016 C 804.879028 289.127991 811.388977 304.618042 819.124023 314.978027 C 839.61499 342.421997 879.549988 356.575012 912.380981 361.234985 C 910.403992 368.122009 910.799988 375.359985 913.815002 381.894043 C 918.421997 391.877991 926.903992 396.493042 936.713013 400.19104 C 886.758972 435.927002 810.31897 461.39801 750.156006 471.603027 C 727.669006 475.416992 704.416992 477.367004 681.664001 478.841003 C 666.164001 479.808329 650.653666 480.559001 635.132996 481.093018 C 624.291992 481.438965 611.900024 480.624023 601.30603 483.088989 L 600.583008 483.261963 C 612.880005 485.523987 625.778015 485.809998 638.247009 486.172974 C 655.999654 486.70634 673.752319 486.694682 691.505005 486.138 C 681.473022 491.674011 671.005005 497.162964 659.690979 499.446045 C 629.504028 505.535034 573.992981 491.507996 544.55603 483.44104 C 536.388 481.088013 517.882019 476.593018 511.565002 472.104004 C 507.681 469.343994 505.798004 464.25 501.265991 462.255005 C 496.984985 460.372009 492.34201 459.013 487.938995 457.421021 C 479.391673 454.30835 470.862671 451.145671 462.35199 447.932983 C 447.078003 442.140015 432.161011 435.348022 417.101013 429.013 C 424.076996 425.004028 430.867004 421.348999 438.403015 418.464966 C 430.377014 417.041016 422.796997 415.05603 415.079987 412.43396 C 424.333008 405.797974 434.197998 399.958008 443.901001 394.009033 C 448.90799 390.940002 454.170013 388.039001 458.809998 384.43396 C 448.77301 381.150024 437.971985 379.670044 427.725006 377.045044 C 440.119995 367.764038 454.562988 360.377014 468.390991 353.507996 C 473.61499 350.867981 478.879995 348.311971 484.186005 345.839966 C 489.491343 343.367961 494.835337 340.981649 500.217987 338.68103 C 505.599986 336.38033 511.017314 334.166321 516.469971 332.039001 C 521.92334 329.911682 527.409017 327.87203 532.927002 325.920044 C 538.445679 323.968709 543.994019 322.106038 549.572021 320.332031 C 555.150024 318.558024 560.755025 316.873678 566.387024 315.278992 C 572.018331 313.684306 577.673991 312.179972 583.354004 310.765991 C 589.034668 309.352661 594.736003 308.030334 600.458008 306.799011 L 600.452026 307.360962 C 600.325989 328.687012 610.270996 349.948975 625.10199 364.994019 C 625.551982 365.454671 626.00765 365.909993 626.468994 366.359985 C 626.930339 366.809326 627.397339 367.252665 627.869995 367.690002 C 628.342651 368.127991 628.820984 368.559977 629.304993 368.985962 C 629.78835 369.411336 630.277018 369.830688 630.770996 370.244019 C 631.265015 370.658 631.764018 371.065328 632.268005 371.466003 C 632.772685 371.866679 633.282023 372.261007 633.796021 372.648987 C 634.310018 373.037659 634.82902 373.419332 635.353027 373.794006 C 635.876343 374.169332 636.404663 374.537659 636.937988 374.898987 C 637.470662 375.261007 638.007996 375.616007 638.549988 375.963989 C 639.09198 376.312663 639.638326 376.654338 640.189026 376.989014 C 640.739685 377.322998 641.294352 377.65033 641.853027 377.971008 C 642.411662 378.291687 642.974325 378.605347 643.541016 378.911987 C 644.107666 379.217977 644.677999 379.517314 645.252014 379.809998 C 645.826681 380.10199 646.404683 380.386658 646.986023 380.664001 C 647.567322 380.941305 648.151978 381.211629 648.73999 381.474976 C 649.328003 381.737671 649.919332 381.993001 650.513977 382.240967 C 651.108663 382.489014 651.706014 382.72937 652.30603 382.962036 C 652.906657 383.195353 653.510315 383.421021 654.117004 383.639038 C 654.723002 383.856323 655.331665 384.066325 655.942993 384.269043 C 656.555013 384.47168 657.169006 384.666667 657.784973 384.854004 C 658.401672 385.04069 659.020345 385.219686 659.640991 385.390991 C 660.262329 385.562988 660.885335 385.72699 661.51001 385.882996 C 662.135335 386.03831 662.762329 386.18632 663.390991 386.327026 C 664.019653 386.467 664.649984 386.598999 665.281982 386.723022 C 665.914673 386.847005 666.54834 386.963338 667.182983 387.072021 C 667.818319 387.180013 668.454651 387.280334 669.09198 387.372986 C 669.729309 387.464986 670.367981 387.549316 671.007996 387.625977 C 671.647319 387.701986 672.287659 387.770325 672.929016 387.830994 C 673.570333 387.891012 674.212667 387.943014 674.856018 387.987 C 675.498678 388.030986 676.141663 388.066976 676.784973 388.094971 C 677.428324 388.122965 678.072001 388.142639 678.716003 388.153992 C 679.360657 388.165995 680.004985 388.169678 680.648987 388.165039 C 681.81899 388.160319 682.988322 388.126973 684.156982 388.065002 C 685.324992 388.002991 686.491007 387.912313 687.655029 387.792969 C 688.81901 387.674316 689.979329 387.526652 691.135986 387.349976 C 692.292643 387.173991 693.444316 386.970011 694.591003 386.738037 C 695.737651 386.505371 696.877991 386.245036 698.012024 385.957031 C 699.146016 385.668335 700.272339 385.352336 701.390991 385.009033 C 702.508993 384.66569 703.618327 384.295003 704.718994 383.896973 C 705.81901 383.498983 706.909017 383.074666 707.989014 382.624023 C 709.068319 382.172689 710.135986 381.695028 711.192017 381.19104 C 712.248006 380.687703 713.291341 380.158691 714.322021 379.604004 C 715.35201 379.049316 716.368001 378.469645 717.369995 377.86499 C 718.371338 377.260986 719.357666 376.632324 720.328979 375.979004 C 721.299642 375.326335 722.253988 374.65033 723.192017 373.950989 C 724.130005 373.251648 725.050008 372.529663 725.952026 371.785034 C 726.854696 371.040324 727.738688 370.273966 728.604004 369.485962 C 729.468669 368.697957 730.31366 367.889303 731.138977 367.059998 C 748.174988 349.992004 756.924011 325.968018 756.935974 302.075012 C 757.407979 301.572367 757.89032 301.080037 758.382996 300.598022 C 758.875671 300.116007 759.378337 299.644653 759.890991 299.18396 C 760.403646 298.723348 760.925639 298.273682 761.45697 297.834961 C 761.988993 297.396322 762.529663 296.96932 763.078979 296.553955 C 763.628988 296.13798 764.187663 295.734009 764.755005 295.342041 C 765.321655 294.950033 765.896322 294.570353 766.479004 294.203003 C 767.062337 293.835002 767.652995 293.479655 768.250977 293.136963 C 768.848999 292.794312 769.454 292.464661 770.065979 292.14801 C 770.677999 291.831319 771.296672 291.527303 771.921997 291.235962 C 772.546672 290.945313 773.177348 290.667989 773.814026 290.403992 C 774.450663 290.139994 775.092651 289.889669 775.73999 289.653015 C 776.387329 289.416321 777.039327 289.193319 777.695984 288.984009 C 778.353333 288.77535 779.014343 288.580343 779.679016 288.398987 C 780.34434 288.218323 781.013 288.051331 781.684998 287.89801 C 782.356995 287.745341 783.032003 287.607015 783.710022 287.483032 C 784.388 287.359009 785.068319 287.249329 785.750977 287.153992 Z"/>
    <path id="path65" fill="#211717" stroke="none" d="M 674.557983 430.914001 C 675.059021 430.981995 709.421997 443.141968 710.47699 443.768005 C 707.098022 444.072021 703.559998 443.672974 700.234009 443.075989 C 692.142029 441.624023 679.494019 437.997986 674.557983 430.914001 Z"/>
    <path id="path66" fill="#211717" stroke="none" d="M 543.426025 324.855957 L 544.757019 325.179993 L 545 325.823975 C 541.932007 331.364014 504.850006 356.520996 496.868011 361.403015 C 491.128001 364.978984 485.162994 368.128988 478.972992 370.853027 C 495.772003 373.697998 513.268982 371.716003 530.026978 369.688965 C 524.72998 372.110962 518.396973 373.198975 513.5 376.299011 C 509.446991 378.864014 505.687012 383.207031 502.069 386.419006 C 491.306 395.971985 480.769012 405.765015 469.627014 414.879028 C 479.016998 412.976013 488.477997 411.462036 497.816986 409.281006 C 505.990997 407.370972 514.013977 404.843994 522.140991 402.740967 C 520.299011 404.269043 518.140015 405.580994 516.502991 407.327026 C 509.557007 414.734985 504.696014 430.48999 502.112 440.268005 C 514.504028 437.80603 528.716003 424.743042 537.450989 423.235962 C 538.416992 423.06897 538.028992 422.994995 538.791016 423.525024 C 537.294983 428.528015 522.107971 437.719971 517.192017 440.867004 C 520.665324 441.164327 524.141988 441.412313 527.622009 441.610962 C 541.166016 443.219971 555.336975 442.796997 568.95697 442.52301 C 559.221985 446.828979 538.41803 447.855957 527.97699 447.406982 C 522.460999 447.170044 499.480988 446.39801 496.502014 443.146973 C 494.998993 437.394043 506.118011 416.842041 509.493988 410.838989 C 499.667999 413.906982 467.644012 422.530029 458.829987 419.632996 C 457.803986 419.296021 457.765015 419.255005 457.23999 418.270996 C 462.622986 413.244019 469.38501 409.271973 475.074005 404.480957 C 481.153015 399.360962 486.730011 393.666016 492.660004 388.377991 C 497.19101 384.338013 502.031006 380.619995 506.799988 376.86499 C 497.07901 377.992004 479.498993 377.791016 470.416992 374.290039 C 468.893005 373.703003 468.204987 373.165039 467.510986 371.697021 C 469.166992 369.046021 486.65799 360.987 490.867004 358.554993 C 508.766998 348.210999 524.643982 333.617004 543.426025 324.855957 Z"/>
    <g id="chioma">
        <path id="path67" fill="#96867a" stroke="none" d="M 225.927002 280.764038 C 231.660995 281.924011 242.257004 286.718018 247.098999 290.005005 C 241.253998 290.062012 234.934998 288.61499 229.179001 287.570007 C 227.528 285.380005 226.315994 283.523987 225.927002 280.764038 Z"/>
        <path id="path68" fill="#96867a" stroke="none" d="M 190.977005 263.450989 C 191.602997 264.049988 192.908005 278.053955 193.268005 280.572998 C 183.460007 280.583008 173.712006 279.880981 163.919998 279.432983 L 160.440994 279.063965 L 160.332993 278.500977 L 160.240997 278.979004 C 161.382004 277.551025 187.102005 265.286987 190.977005 263.450989 Z"/>
        <path id="path69" fill="#96867a" stroke="none" d="M 194.007004 291.422974 L 194.360001 291.525024 C 195.811996 293.031006 202.936005 332.869995 204.311005 339.187988 C 205.718994 345.665039 207.539001 352.057007 209.300003 358.446045 C 197.134003 362.553955 172.792007 370.140991 165.533997 380.754028 C 164.240997 382.644043 164.119995 384.338013 164.518997 386.528015 C 165.080994 387.434998 165.440002 387.919006 166.393997 388.462036 C 174.417007 393.025024 206.649994 383.325989 215.882996 380.342041 C 223.677002 408.115967 230.783997 412.697998 253.126999 429.660034 C 241.688004 459.976013 227.852005 489.333984 215.970001 519.48999 C 208.339335 539.033325 201.158335 558.740336 194.427002 578.611023 C 190.537003 590.481995 187.242996 602.536987 183.473999 614.445984 C 172.309998 622.507019 160.194 631.848999 152.791 643.580017 C 163.026993 637.361023 173.057007 628.989014 182.225006 621.252991 C 176.673996 640.531006 172.320007 659.945984 167.725006 679.461975 C 153.563004 686.593994 139.231995 693.289001 125.012001 700.281982 C 140.184998 699.468994 153.772003 693.513977 166.496002 685.619019 C 160.509003 711.835999 156.666 738.291016 151.617004 764.671997 C 138.246002 772.059021 122.335999 778.585022 107.277 780.973999 C 123.331001 764.494995 133.201004 743.786987 143.798996 723.627991 C 128.485001 732.515015 110.734001 738.390015 93.282303 741.403015 C 99.272697 734.288025 105.497002 727.143005 110.654999 719.388 C 114.931 712.958008 118.268997 705.669983 123.231003 699.742981 C 126.473 695.870972 130.412994 692.40802 134.037003 688.882996 C 143.834 679.354004 154.291 669.546021 161.798996 658.052002 C 155.764999 661.914978 150.126999 666.741028 144.654007 671.357971 C 138.098999 676.887024 132.039001 683.005981 125.447998 688.481018 C 110.610001 700.804993 93.011902 701.994995 74.593498 704.14801 C 82.880997 695.994019 91.040398 687.721008 98.231697 678.560974 C 102.978996 672.513977 106.903999 665.875977 111.612 659.814026 C 114.431999 656.18103 117.705002 652.89502 120.898003 649.591003 C 125.833331 644.721008 130.695328 639.779012 135.483994 634.765015 C 128.520004 637.296997 122.216003 641.530029 115.392998 644.450989 C 98.776199 651.564026 77.908096 655.013 59.804501 655.270996 C 68.082199 645.906006 78.3451 638.156006 86.777603 628.794006 C 93.889397 620.89801 99.825996 612.119019 106.445999 603.830994 C 110.345001 598.948975 114.693001 594.390015 118.921997 589.79303 C 112.470001 591.458008 106.877998 594.994019 100.674004 597.296021 C 87.784897 602.077026 72.858398 605.807007 59.315399 608.085022 C 64.314301 602.71698 69.729202 597.752014 74.617699 592.268005 C 83.2407 582.596008 91.230797 572.356995 99.8321 562.659973 C 105.976997 555.732971 112.571999 549.208008 118.565002 542.14801 C 111.853996 544.60199 105.246002 547.39502 98.432602 549.559021 C 91.148102 551.874023 83.691803 553.53302 76.248802 555.244019 C 85.031598 544.48999 94.262332 534.135315 103.941002 524.179993 C 113.619667 514.22467 123.710332 504.705668 134.212997 495.622986 C 126.081001 497.926025 118.278999 501.218994 110.065002 503.35199 C 96.360397 506.910034 82.090401 509.198975 68.194298 511.973022 C 79.510902 499.714966 91.537399 487.317017 103.913002 476.144043 C 113.741997 467.270996 124.265999 459.019043 134.455994 450.55896 C 115.064003 453.962036 96.380997 458.401978 77.472 463.848022 C 82.576698 458.583008 88.205803 453.764038 93.635803 448.833984 C 101.653 441.55603 109.565002 434.067017 118.108002 427.403992 C 131.222 417.174988 145.403 408.434998 159.335007 399.390991 C 138.095001 405.278015 116.120003 407.734009 94.7668 412.924011 C 105.723 403.273987 117.767998 395.021973 129.658997 386.593994 C 138.056 380.643005 146.345993 374.432007 154.914001 368.737 C 164.518005 362.35498 178.328995 354.879028 186.572006 347.219971 C 165.315002 351.407959 144.667007 357.165039 123.122002 360.073975 C 130.630005 352.639038 139.944 346.171021 148.578003 340.089966 C 164.123993 329.141968 180.113998 318.98999 196.121002 308.737 C 183.809006 308.037964 172.125 308.625977 159.882004 309.927002 C 170.516998 302.834961 182.315002 296.593018 194.007004 291.422974 Z"/>
        <path id="path70" fill="#96867a" stroke="none" d="M 515.077026 59.851379 C 534.351013 63.693604 554.333984 69.440796 572.588013 76.754517 C 579.661011 79.588074 586.583008 82.968201 593.510986 86.141418 C 587.661011 77.430725 580.622986 69.308472 574.044983 61.126709 C 582.078308 66.624756 589.925639 72.376689 597.586975 78.382507 C 606.291992 85.163208 614.737 92.202881 623.919006 98.339722 C 620.322021 85.737122 619.281006 72.847412 614.741028 60.373901 C 641.353027 75.721497 665.596985 96.632996 683.484009 121.612976 C 686.002991 106 683.609009 91.408813 681.567017 75.942017 C 687.526001 80.38031 692.981995 85.846375 698.223022 91.102478 C 709.484985 102.396973 718.278992 115.111023 725.786987 129.130981 C 727.267029 131.895996 729.242004 134.97699 729.929993 138.039978 C 731.203003 143.710022 729.403015 149.84198 729.526001 155.598999 C 729.559998 157.18103 729.588013 158.377991 730.734009 159.520996 L 731.780029 159.358032 C 733.142029 157.853027 733.338989 153.953003 733.836975 151.891968 C 737.742004 135.719971 740.890991 120.250977 742.138 103.627014 C 758.377991 134.108032 763.976013 159.096985 769.106018 192.895996 C 773.405029 182.700012 776.482971 171.19397 778.580017 160.341003 C 780.349976 179.292969 780.924011 197.120972 778.786011 216.065979 C 770.33197 197.437988 761.755981 179.271973 750.846985 161.911987 C 747.572021 156.702026 744.340027 151.374023 740.335999 146.684021 C 741.632019 155.417969 740.632019 164.278015 740.245972 173.057983 C 739.963013 179.492004 739.982971 185.927002 739.999023 192.367004 C 733.650024 181.882996 717.192993 155.768982 705.815002 152.612 C 705.070007 152.635986 703.862 152.419006 703.390015 153.052002 C 699.559998 158.188965 704.612 187.401001 706.028015 194.320984 C 704.026672 192.539001 701.988342 190.800334 699.913025 189.10498 C 697.837667 187.409668 695.727661 185.759013 693.583008 184.153015 C 691.437663 182.547017 689.259318 180.987345 687.047974 179.473999 C 684.83667 177.960653 682.59434 176.494649 680.320984 175.075989 C 678.047668 173.657328 675.745341 172.287659 673.414001 170.96698 C 671.082011 169.646301 668.723348 168.375305 666.338013 167.153992 C 663.952677 165.933329 661.542664 164.763672 659.107971 163.64502 C 656.672668 162.526326 654.215007 161.459656 651.734985 160.445007 C 656.025024 173.822998 660.692993 187.106018 664.703003 200.562988 C 644.228027 189.400024 621.171021 181.85498 598.182007 177.864014 C 605.546021 192.888 610.031006 199.43103 620.815979 212.195984 C 608.094971 208.125977 595.499023 205.291992 582.491028 202.358032 C 570.598999 187.617004 556.788025 176.139038 537.346985 173.973999 C 526.434998 172.76001 514.854004 174.860962 506.174988 181.916992 C 497.80899 188.718994 493.595001 199.233032 492.65799 209.76001 C 491.348999 224.471985 494.716003 238.403992 504.406006 249.791992 C 512.281982 259.049011 523.52002 264.269043 534.978027 267.674988 C 518.913025 269.52301 504.351013 275.906982 489.294006 281.312012 C 482.752014 283.660034 475.752991 285.620972 469.641998 288.980957 C 476.933014 293.122986 485.438995 297.828003 494.003998 298.270996 L 495.048004 298.502991 C 492.589996 300.640991 488.208008 301.796021 485.252014 303.403015 C 480.575989 305.94397 476.01001 308.828979 471.588013 311.795044 C 464.285004 316.69397 456.523987 321.515991 450.230988 327.686035 C 446.359985 331.480957 443.304993 336.285034 439.033997 339.645996 C 436.112 341.946045 432.5 343.583008 429.290985 345.476013 C 421.976013 349.791992 404.195007 360.223022 401.347992 368.375977 C 399.882996 372.572021 401.306 378.471008 403.299988 382.271973 C 404.410004 384.388 406.127014 386.679993 408.604004 387.218994 C 412.925995 388.158997 420.056 381.911011 423.944 379.853027 C 432.571991 382.860962 441.10199 384.536011 450.016998 386.335999 C 441.212006 392.68396 417.804993 404.30896 412.165985 411.81897 L 412.342987 412.743042 C 415.912994 416.453003 423.217987 417.489014 428.070007 418.521973 C 423.256989 420.822021 419.041992 424.297974 414.773987 427.462036 C 394.048665 417.796021 373.860667 407.114014 354.209991 395.416016 C 343.602997 389.167969 332.777008 382.881958 322.980011 375.401001 C 342.152008 375.964966 364.056 373.578979 381.171997 364.291016 C 373.562012 364.573975 365.830994 365.825012 358.246002 366.594971 C 347.65333 367.640299 337.040334 368.403646 326.407013 368.88501 C 342.854004 352.046021 365.341003 341.77002 384.345001 328.208008 C 365.667999 334.992004 326.981995 353.763 317.282013 370.937012 C 290.38501 351.39801 254.237 320.208984 234.595001 293.620972 C 245.126007 295.160034 255.354004 296.182983 266.028992 295.653992 C 253.669006 288.377991 240.057999 282.419006 227.106003 276.239014 C 228.791 257.973999 234.425995 240.057007 241.901993 223.35199 C 251.067993 220.912964 260.424988 218.039978 269.109985 214.213013 C 258.733002 215.02301 248.246002 215.903015 237.981995 217.684998 C 225.167007 219.910034 212.839996 223.046021 199.826004 224.155029 C 206.410004 220.026001 214.024002 215.580994 221.417007 213.254028 C 237.007996 208.346985 265.802002 209.791992 282.457001 211.098022 C 288.30899 211.557007 296.701996 213.297974 302.279999 211.901978 C 302.100006 211.636963 301.96701 211.333984 301.740997 211.106995 C 292.898987 202.212036 255.171005 201.884033 242.112 202.952026 C 252.218002 195.666016 265.428986 190.812988 277.260986 187.125 C 282.70401 185.427979 288.532013 184.028992 293.69101 181.598999 C 283.553009 176.000977 264.355988 170.43103 252.990005 167.634033 C 288.174011 154.985962 324.799011 146.162964 362.21701 143.822021 C 351.039001 132.594971 336.312988 125.913025 321.884003 119.935974 C 352.877991 114.124023 385.457001 114.210022 416.881012 114.513977 C 407.096008 105.285034 397.046997 97.690613 385.026001 91.531372 C 380.148987 89.032288 375.056 86.990967 370.196991 84.459473 C 401.522003 84.437012 438.372986 84.141602 468.161011 94.728577 C 474.309998 96.914001 480.118988 100.509033 486.071014 103.221008 C 476.549988 89.933228 464.29599 76.494202 451.178986 66.792908 C 457.938995 67.401306 464.75 69.026978 471.354004 70.562195 C 498.411011 76.852295 523.250977 87.12207 547.773987 100.012024 C 543.085999 94.08667 539.413025 87.442871 534.869995 81.411133 C 529.026001 73.653809 521.953979 66.684021 515.077026 59.851379 Z"/>
    </g>
    <path id="path71" fill="#211717" stroke="none" d="M 319.286011 167.219971 C 331.015991 166.47699 344.774994 166.301025 356.347992 168.476013 C 343.48999 172.059021 326.306 172.286987 312.916992 173.051025 C 305.764008 173.786011 283.622009 176.773987 278.535004 173.21698 L 278.377014 172.309021 C 278.483002 172.177979 278.575989 172.033997 278.696014 171.916016 C 282.843994 167.860962 312.487 167.460022 319.286011 167.219971 Z"/>
    <path id="path72" fill="#211717" stroke="none" d="M 643.953979 98.281982 C 647.486023 99.871521 651.012024 102.942993 653.969971 105.483032 C 667.590027 117.177002 682.940002 139.226013 684.320007 157.577026 C 677.29303 146.492981 671.872009 134.950012 663.934021 124.365967 C 660.599996 120.108643 657.069316 116.020996 653.34198 112.103027 C 656.578979 126.955994 661.034973 141.375 663.750977 156.395996 C 654.72998 143.205994 647.357971 114.387024 643.953979 98.281982 Z"/>
    <path id="path73" fill="#211717" stroke="none" d="M 588.853027 88.236816 C 599.427002 91.528198 626.265991 119.59198 633.684998 129.005005 C 638.052979 134.546021 641.614014 140.411011 645.184998 146.473022 C 640.046021 141.820007 635.747009 136.164978 630.992981 131.113037 C 624.092997 123.923665 616.941996 116.993327 609.539978 110.322021 C 604.621318 106.017334 599.674662 101.744731 594.700012 97.504211 C 600.270996 112.968018 609.77002 136.903015 611.258972 152.812988 C 605.205017 142.703979 590.937988 105.968018 588.794006 94.727112 C 588.35498 92.424622 588.387024 90.525574 588.853027 88.236816 Z"/>
    <path id="path74" fill="#211717" stroke="none" d="M 527.968994 109.945984 C 528.570984 109.893005 529.143005 109.849976 529.747009 109.869019 C 534.617981 110.020996 540.580994 113.190002 544.854004 115.356018 C 566.659973 126.406982 580.771973 138.81897 596.986023 156.622986 C 591.08197 153.445007 585.838989 149.016968 580.482971 145.016968 C 571.796021 138.530029 563.075012 132.119995 553.809998 126.476013 C 547.967346 123.195333 541.997009 120.165995 535.898987 117.388 C 546.799988 131.130005 555.857971 145.955994 564.869995 160.971985 C 560.871338 157.298686 557.057332 153.443034 553.427979 149.405029 C 549.103027 144.497986 527.929016 117.255005 526.153992 113.044006 C 526.38501 111.531006 526.992981 111.094971 527.968994 109.945984 Z"/>
    <path id="path75" fill="#211717" stroke="none" d="M 300.324005 235.188965 L 301.102997 235.203003 C 299.692993 236.979004 255.505005 250.445007 249.283005 252.960022 C 260.619995 256.471008 296.184998 262.785034 302.925995 269.886963 L 302.841003 270.594971 C 300.308014 271.184998 296.996002 270.365967 294.412994 270.049988 C 277.968994 267.573975 260.378998 264.97998 244.852005 258.797974 C 242.438004 257.837036 238.057007 256.079956 237.184006 253.440979 C 236.979004 252.820984 237.248001 252.117981 237.619003 251.609009 C 242.669998 244.682007 290.053986 236.629028 300.324005 235.188965 Z"/>
    <path id="path76" fill="#211717" stroke="none" d="M 379.649994 134.065002 C 401.184998 133.96698 441.381989 145.627991 459.248993 158.312988 C 444.760986 153.453003 430.656006 148.35498 415.742004 144.825989 C 406.265991 142.583984 396.648987 141.25 387.037994 139.749023 L 395.556 145.900024 C 412.200012 158.013 428.980011 171.023987 443.498993 185.632019 C 432.062988 180.082031 414.309998 167.997009 403.971008 160.301025 C 397.687988 155.625977 382.56601 145.507019 378.345001 139.936035 C 377.55899 138.89801 377.359009 137.953003 377.177002 136.710999 C 377.813995 135.179993 378.322998 134.997986 379.649994 134.065002 Z"/>
    <path id="path77" fill="#211717" stroke="none" d="M 341.036011 284.062988 L 340.981995 284.68396 C 338.296997 288.073975 311.18399 301.752991 305.643005 304.983032 C 295.190328 311.169678 284.800995 317.460999 274.475006 323.856995 C 281.865997 322.489014 289.494995 321.928955 296.967987 321.135986 C 314.273987 319.296997 331.980011 317.670044 349.391998 318.14502 C 345.35199 319.261963 341.200989 320.05896 337.105011 320.953003 C 327.127991 323.584961 280.28299 331.348022 271.963013 329.13501 C 270.031006 328.620972 269.075012 327.489014 268.104004 325.825012 C 268.007996 324.838989 268.015991 324.30896 268.429993 323.375977 C 271.815002 315.747009 305.302002 299.349976 314.238007 295.30603 C 323.050995 291.31897 332.153015 287.914001 341.036011 284.062988 Z"/>
    <path id="path78" fill="#211717" stroke="none" d="M 441.230988 109.490967 C 457.115997 110.192017 497.574005 131.213013 511.786987 140.010986 C 517.953003 143.828003 523.885986 148.028992 529.291992 152.872009 C 523.471008 150.036987 517.940002 146.549011 512.190979 143.554016 C 495.651001 134.936035 476.669006 125.396973 459.25 118.958984 C 455.80899 117.505981 452.230011 116.310974 448.718994 115.031006 C 464.593994 129.551025 485.356995 151.286011 496.634003 169.247986 C 495.439992 168.431335 494.255992 167.600667 493.082001 166.755981 C 488.881012 163.708008 484.847992 160.23999 481.040009 156.714966 C 471.46701 147.85498 462.377014 138.307983 453.283997 128.955017 C 449.003998 124.552979 444.101013 120.237976 440.274994 115.46698 C 439.55899 114.572998 439.17099 113.906982 438.983002 112.752014 C 439.382996 111.207031 440.123993 110.547974 441.230988 109.490967 Z"/>
    <path id="path79" fill="#211717" stroke="none" d="M 392.072998 197.286011 C 420.997986 195.065002 457.796997 198.521973 486.097992 204.889038 C 475.806 205.739014 464.825989 204.309021 454.481995 203.820007 C 432.979004 202.804016 411.462006 201.890015 389.976013 203.721008 L 389.809998 204.297974 C 403.895996 210.080994 432.402008 226.660034 444.682007 235.924011 C 439.335999 234.473328 434.090332 232.721659 428.945007 230.669006 C 420.700989 227.405029 380.946014 209.34198 379.018005 201.97699 C 378.830994 201.265991 378.875 200.562988 379.334991 199.987 C 381.449005 197.338989 388.923004 197.500977 392.072998 197.286011 Z"/>
    <path id="path80" fill="#211717" stroke="none" d="M 308.421997 185.208008 C 327.679993 183.268982 364.45401 187.617981 382.554993 193.65802 C 357.329987 193.171997 332.29599 190.792969 307.026001 191.059021 C 314.315328 195.096334 321.560659 199.211324 328.761993 203.403992 C 341.154999 210.822998 355.528015 218.389038 365.833008 228.563965 C 346.431 222.655029 328.792999 212.186035 311.399994 202.005005 C 305.997009 198.84198 296.975006 194.895996 293.605988 189.505005 C 293.562988 188.938965 293.333008 188.468994 293.781006 188.037964 C 296.308014 185.604004 305.06601 185.497009 308.421997 185.208008 Z"/>
    <path id="path81" fill="#211717" stroke="none" d="M 426.407013 245.270996 L 426.557007 245.338989 L 426.563995 245.791016 C 416.764008 249.541992 405.453003 251.179016 395.149994 253.023987 C 381.368011 255.492981 360.778992 259.460999 347.890015 264.325012 C 354.015991 267.231995 360.79599 268.328979 367.436005 269.448975 C 373.837006 270.530029 380.651001 272.040039 387.148987 272.143005 C 408.126007 272.473022 444.774994 266.02002 463.847992 271.382996 C 456.44101 273.450012 448.453003 273.723999 440.812012 274.39502 L 407.708008 277.145996 C 401.992004 277.627991 395.519012 277.842041 389.985992 279.360962 C 388.803986 279.686035 388.071014 279.864014 387.420013 280.948975 L 388.760986 282.120972 C 404.362 292.355957 425.540009 297.791992 443.786011 301.174988 C 429.205994 302.436035 415.346985 300.980957 401.746002 295.281982 C 396.334991 293.014038 382.398987 286.283997 380.088989 280.572998 C 380.494995 279.547974 380.727997 279.164001 380.584991 278.045044 C 369.445007 274.77301 357.756989 276.171021 347.152008 270.170044 C 344.496002 268.666992 341.858002 266.97699 341.014008 263.910034 C 341.101013 262.764038 341.269012 262.002014 342.052002 261.110962 C 351.092987 250.820007 411.348999 246.353027 426.407013 245.270996 Z"/>
    <path id="path82" fill="#e0ddd1" stroke="none" d="M 259.713013 434.703979 C 317.437012 477.917969 384.136993 500.338989 450.779999 525.43103 C 468.178009 531.981018 485.131012 539.625 502.438995 546.403992 L 502.778992 576.020996 C 510.786011 579.03302 519.047974 581.023987 527.018982 584.343018 C 561.502991 598.700012 585.072021 616.260986 615.205994 637.328979 C 613.945984 641.158997 612.549011 644.919006 611.104004 648.682007 L 609.36499 648.177979 C 604.781982 646.875 602.129028 646.265991 597.825012 648.651978 C 588.297974 640.36499 577.010986 633.625977 566.630981 626.47699 C 548.471008 613.971008 530.362976 601.231018 513.317017 587.221985 C 493.924011 571.284973 479.806 549.859985 459.29599 535.34198 C 462.700989 540.705017 466.88501 545.731018 470.692993 550.825012 C 475.688995 557.507019 480.584015 564.257019 486.152008 570.481018 C 515.190002 602.940002 553.379028 626.169006 590.11499 648.888977 C 583.632996 656.710999 579.747986 666.655029 574.127991 675.127014 C 557.768005 699.786987 543.229004 715.612 520.067993 734.028992 C 514.403015 738.533997 508.768005 743.440979 502.59201 747.231995 C 502.058014 746.992981 501.522003 746.755981 501.006989 746.47998 C 495.514008 743.536011 490.339996 738.892029 485.351013 735.151001 C 473.82901 726.513 462.38501 717.914001 451.235992 708.786987 C 403.184998 669.452026 357.368011 623.338013 331.415985 566.046021 C 327.829336 558.161336 324.694672 550.100993 322.011993 541.86499 C 320.460999 537.060974 319.307007 531.94397 317.516998 527.245972 C 317.252991 526.551025 317.019012 525.872009 316.798004 525.158997 C 315.925995 530.421021 317.721985 537.382019 318.770996 542.559021 C 325.044006 573.521973 337.522003 595.690979 354.322998 621.905029 C 340.372986 613.03302 323.897003 595.200989 314.352997 581.690979 C 310.494995 576.228027 307.174988 569.090027 302.53299 564.398987 C 313.858002 587.958008 330.065002 609.447998 352.210999 623.671021 C 354.062012 624.78302 356.130005 625.875977 357.752991 627.309021 C 362.450012 631.455994 366.278992 637.432007 370.295013 642.296997 C 376.12501 649.26766 382.185008 656.032003 388.475006 662.590027 C 395.753001 670.082011 403.214661 677.386332 410.859985 684.502991 C 418.50533 691.619649 426.324331 698.539978 434.316986 705.263977 C 442.309662 711.988668 450.466003 718.508016 458.786011 724.822021 C 467.106669 731.136678 475.580332 737.238342 484.207001 743.127014 C 488.786011 746.226013 496.011993 752.231995 501.441986 753.124023 C 511.820007 754.830017 534.999023 741.112976 543.315002 734.958008 C 550.515015 738.460022 557.174011 742.552002 564.679016 745.500977 C 561.281677 752.79366 557.940002 760.111674 554.653992 767.455017 C 572.263977 776.737 585.750977 779.861023 604.562012 784.895996 C 604.672974 816.987976 603.906982 848.919006 605.559998 881.013 C 596.802002 883.981995 588.333008 888.077026 579.611023 891.245972 C 563.672994 896.892008 547.503316 901.769023 531.10199 905.877014 C 440.194 929.409973 352.687988 931.72699 261.19101 909.265015 C 222.391006 899.73999 184.901001 886.169006 150.389008 865.859009 C 150.546005 833.945007 155.628006 797.716003 160.598999 765.913025 C 162.608002 753.057983 164.317993 740.153015 166.645996 727.348999 C 169.57133 711.230998 172.844996 695.184326 176.466995 679.208984 C 180.088333 663.232992 184.054337 647.342997 188.365005 631.539001 C 192.676336 615.735006 197.327667 600.032003 202.319 584.429993 C 207.311005 568.827983 212.639002 553.341654 218.302994 537.971008 C 231.052994 503.105957 247.692993 469.825989 259.713013 434.703979 Z"/>
    <path id="path83" fill="#211717" stroke="none" d="M 391.445007 696.435974 C 397.156006 701.354004 403.519012 710.408997 406.428986 717.377014 C 399.803009 723.143005 393.126007 728.799988 385.821014 733.703979 C 353.386993 755.473999 296.800995 779.710022 257.692993 780.531982 C 281.065002 818.627991 304.875 842.827026 342.317993 867.226013 L 341.752991 867.466003 C 305.960999 849.111023 277.269989 820.718994 256.011993 786.741028 C 250.139999 777.35498 244.531998 767.659973 240.841003 757.18103 C 250.768997 757.921997 262.825012 754.109985 272.401001 751.398987 C 280.233663 749.22699 287.992666 746.818665 295.678009 744.174011 C 303.363332 741.528666 310.960999 738.651672 318.471008 735.54303 C 325.980998 732.434347 333.389333 729.09967 340.696014 725.539001 C 348.002004 721.978333 355.193003 718.198324 362.269012 714.198975 C 372.213989 708.614014 381.518005 702.007019 391.445007 696.435974 Z"/>
    <path id="path84" fill="#e0ddd1" stroke="none" d="M 391.156006 701.039978 C 394.750671 706.279317 398.594004 711.329325 402.686005 716.190002 C 396.906006 720.96698 390.230988 725.013 383.915009 729.036987 C 349.097992 751.218994 298.566986 774.468994 257.11499 778.208984 L 256.843994 778.294006 C 254.664993 777.461975 247.488998 762.874023 246.102997 760.119019 C 287.376007 756.484985 333.071014 739.322998 368.225006 717.620972 C 376.213013 712.690002 384.257996 707.43103 391.156006 701.039978 Z"/>
</svg>
