<?xml version="1.0" encoding="UTF-8"?>
<!-- Generated by Pixelmator Pro 2.4.7 -->
<svg width="1024" height="1024" viewBox="0 0 1024 1024" xmlns="http://www.w3.org/2000/svg" xmlns:xlink="http://www.w3.org/1999/xlink">
    <path id="Percorso" fill="#562c3a" stroke="none" d="M 793.736023 234.669983 C 798.564026 231.61499 803.53302 229.926025 809.224976 229.460999 C 818.643005 228.690002 827.254028 232.664001 834.262024 238.713013 C 842.598022 245.908997 851.320984 258.646973 851.978027 269.954956 C 852.375 276.799988 848.442017 281.481995 844.255981 286.35498 C 854.841003 298.381958 864.005981 313.032959 872.791992 326.414001 C 899.150024 366.557983 925.375 411.061035 944.47998 455.13501 C 946.63501 455.578003 948.736023 456.073975 950.79303 456.872986 C 957.405029 459.44397 962.034973 465.041992 964.708984 471.455994 C 967.560974 478.296997 968.617004 486.276978 965.593994 493.244995 C 962.474976 500.437012 956.161987 504.429993 949.179016 507.190002 C 948.593018 520.424011 942.926025 542.659973 939.879028 556.439026 C 931.346008 595.017029 921.185974 633.091003 910.995972 671.247986 C 907.08197 685.901978 902.442993 700.422974 898.963989 715.179993 C 910.190002 716.176025 923.867981 718.036987 932.403992 726.030029 C 934.215027 727.724976 935.637024 729.89502 937.241028 731.784973 C 948.208984 732.843018 959.853027 733.078979 970.653992 735.083984 C 972.10199 735.353027 974.61499 735.669983 975.405029 737.099976 C 977.299011 740.528992 975.913025 757.596008 974.437988 761.434998 C 973.939026 762.731995 973.267029 763.739014 972.185974 764.627991 C 970.166992 766.289978 960.190002 769.518005 957.026001 770.997009 C 956.843994 782.325012 957.372986 793.651978 957.409973 804.982971 C 957.454 822.72231 957.247335 840.458984 956.789978 858.192993 C 956.656982 866.026978 957.840027 883.802002 954.888977 890.315002 C 952.721985 895.098022 849.387024 945.161987 838.098999 949.046997 C 836.534973 949.585022 834.671021 950.310974 833.015991 950.348999 C 827.708984 950.471008 822.036011 949.651978 816.729004 949.271973 L 784.749023 947.125977 C 767.609009 946.041992 624.622986 938.86499 620.315979 935.713989 C 617.585022 933.716003 618.013 925.86499 617.883972 922.643982 C 618.074158 917.269287 617.865967 922.688721 618.083984 918.096985 C 618.616659 880.687642 618.815002 843.276652 618.679016 805.864014 L 608.377991 804.257019 C 605.836975 803.958008 602.304016 804.039001 600.398987 802.114014 C 597.270996 798.953003 599.015991 786.505005 599.062988 781.700989 C 597.716003 780.849976 596.22699 779.734985 595.393005 778.351013 C 594.713013 777.221008 594.616028 776.057983 594.963989 774.804016 C 595.447021 773.064026 596.512024 771.929993 597.85498 770.781982 C 605.237 764.476013 624.317993 754.758972 633.580017 749.237 C 633.380981 743.588013 631.19397 716.458008 631.982971 713.452026 L 632.718018 713.033997 C 634.960999 713.145996 636.236023 714.174988 637.857971 715.625977 C 639.244995 716.867004 640.645996 717.98999 642.130981 719.112976 C 641.888977 714.388 638.442993 701.427002 641.015991 697.914001 L 642.120972 697.767029 C 644.875 699.703003 645.429993 705.211975 646.140991 708.357971 C 646.562012 704.765991 646.755005 700.273987 648.739014 697.192993 C 649.460999 696.072998 649.963013 695.83197 651.21698 695.513977 C 651.786987 695.724976 651.882019 695.721985 652.432983 696.130005 C 655.952026 698.737 655.947021 706.703979 656.086975 710.617981 C 657.370972 708.091003 659.122986 704.591003 661.382019 702.843018 C 662.380981 702.070007 662.55603 702.109985 663.747009 702.228027 C 666.314026 704.713013 666.117981 710.52002 666.414001 713.974976 C 668.478027 712.968018 671.202026 711.869995 673.489014 711.643005 C 675.135986 711.47998 676.018005 711.896973 677.232971 712.945984 C 679.297974 716.723022 678.083984 722.262024 677.721985 726.43103 C 694.106018 725.012024 709.10498 716.887024 724.353027 711.101013 C 729.95697 708.974976 735.546997 706.736023 741.541016 706.015991 C 756.323975 704.239014 776.72699 706.984985 792.018982 708.01001 C 799.245972 708.494019 806.97998 708.286011 814.098022 709.482971 C 815.835022 709.775024 817.906982 710.132996 819.245972 711.369019 C 820.606018 712.624023 819.565002 724.703979 819.538025 727.033997 C 821.271973 725.5 823.054016 723.827026 825.078979 722.684998 C 835.666016 716.715027 853.783997 715.221985 865.822998 714.447998 C 868.757996 702.771973 872.195984 691.333008 875.338989 679.721008 L 897.492004 598.044983 C 905.971008 566.77301 913.476013 535.195007 922.820007 504.161011 C 922.283346 503.758993 921.763 503.337321 921.258972 502.895996 C 915.786987 498.179993 911.552002 492.519043 911.140991 485.02301 C 910.69397 476.888 914.734009 471.036987 919.974976 465.370972 C 910.940002 448.291016 900.465027 431.724976 890.796997 414.979004 C 879.150024 394.804993 867.393982 374.886963 854.637024 355.388 C 849.513977 347.557007 844.546021 339.43396 838.630981 332.169006 C 830.244995 359.968018 818.992004 393.162964 803.125977 417.432007 C 799.612 422.807007 794.48999 430.27002 787.715027 431.452026 C 781.286987 432.573975 773.247986 428.092041 768.169983 424.426025 C 757.653992 416.834961 748.090027 407.505981 738.291016 398.995972 C 725.031982 387.481995 711.299988 376.273987 699.283997 363.437988 C 683.174988 346.230957 669.909973 324.511963 658.728027 303.882996 C 655.780029 298.44397 649.312012 289.471985 648.541992 283.608032 C 648.322021 281.932007 648.499023 280.588989 649.565979 279.221985 C 653.414001 274.292969 660.802979 270.662964 666.127014 267.460999 C 694.346008 250.490967 733.903992 232.927002 766.849976 229.705017 C 776.481995 228.728027 785.098022 230.589966 793.736023 234.669983 Z"/>
    <path id="path1" fill="#fefdfc" stroke="none" d="M 650.442993 703.263977 C 650.60498 703.44397 650.791016 703.604004 650.927979 703.802979 C 652.677002 706.348999 652.674988 716.633972 651.955994 719.533997 C 651.242004 719.346985 650.583008 719.083008 649.895996 718.817993 C 648.393005 714.942017 649.039978 707.086975 650.442993 703.263977 Z"/>
    <path id="path2" fill="#d1c7b1" stroke="none" d="M 928.75 739.02301 C 929.127991 739.106018 929.458984 739.460999 929.763 739.697021 L 929.791016 740.997009 C 928.557983 743.617004 925.357971 745.11499 922.81897 746.260986 C 898.757996 757.122009 850.97998 757.312988 826.117004 748.057983 L 825.366028 747.281982 C 825.007019 745.896973 824.95697 744.942993 825.041016 743.541992 C 825.247009 743.281982 825.366028 742.916016 825.658997 742.76001 C 826.388977 742.372009 838.716003 745.911987 840.664978 746.302002 C 872.030029 752.590027 898.758972 749.153015 928.75 739.02301 Z"/>
    <path id="path3" fill="#b3927f" stroke="none" d="M 810.85498 238.710022 C 812.463013 238.541992 814.156006 238.714966 815.742981 238.997986 C 824.679016 240.587036 832.153015 248.526001 836.906982 255.789001 C 840.604004 261.437012 843.362976 266.843018 841.820984 273.707031 C 841.35498 275.778992 840.172974 280.539001 838.328979 281.718018 L 837.416992 280.733032 C 826.237 262.963989 818.30603 253.582031 802.111023 240.098022 C 805.030029 239.414001 807.877014 239.025024 810.85498 238.710022 Z"/>
    <path id="path4" fill="#fefdfc" stroke="none" d="M 811.862 722.491028 L 812.301025 722.934021 C 812.833008 725.127014 812.265015 742.401978 811.684021 744.973022 C 811.484985 745.853027 811.198975 746.893005 810.570007 747.575012 C 808.567017 749.747986 783.890991 763.362976 779.205017 766.302002 C 778.687988 764.893982 777.815002 741.164001 777.995972 738.52301 C 789.461975 733.596008 800.559021 727.771973 811.862 722.491028 Z"/>
    <path id="path5" fill="#562c3a" stroke="none" d="M 806.091003 740.992981 C 807.79303 741.130005 808.935974 742.393005 810.197021 743.437012 C 803.536987 747.814026 796.013977 751.169006 788.846008 754.630005 C 787.604004 754.05603 786.276001 753.557007 785.208008 752.687988 C 789.213013 748.276978 800.182007 742.573975 806.091003 740.992981 Z"/>
    <path id="path6" fill="#562c3a" stroke="none" d="M 810.361023 730.091003 C 811.211975 731.002014 811.033997 731.036987 811.15802 732.20697 C 808.757996 736.88501 791.073975 744.84198 785.724976 747.687988 C 785.484985 747.390015 785.320984 746.861023 785.164978 746.505981 C 785.322021 745.921021 785.460022 745.375 785.76001 744.843018 C 788.862976 739.336975 804.150024 731.567017 810.361023 730.091003 Z"/>
    <path id="path7" fill="#d1c7b1" stroke="none" d="M 947.987976 463.846008 C 951.815979 465.740967 955.028992 469.671021 956.624023 473.596008 C 958.745972 478.81604 958.562988 485.085999 956.166016 490.184998 C 954.242981 494.276978 950.877991 497.27002 946.60498 498.742004 C 940.103027 500.981995 934.080994 499.43396 928.112 496.61499 C 924.411987 494.261963 921.741028 491.078003 920.814026 486.718018 C 919.504028 480.562988 921.671997 475.006958 925.015015 469.974976 L 925.413025 470.351013 L 926.083984 470.968994 C 929.29303 473.979004 932.695984 475.56604 937.200012 475.416992 C 941.843994 475.261963 945.367981 473.166016 948.437988 469.834961 C 948.270671 467.839681 948.120667 465.843363 947.987976 463.846008 Z"/>
    <path id="path8" fill="#d1c7b1" stroke="none" d="M 859.192993 723.198975 C 860.666992 723.041992 861.521973 722.757996 862.892029 723.369995 C 863.554016 725.468994 862.263 728.934021 861.921021 731.192017 C 864.184021 734.708984 866.664978 736.286987 870.698975 737.515991 C 876.057007 739.146973 884.103027 739.353027 889.012024 736.447021 C 893.90802 733.547974 894.799988 727.877991 896.164001 722.81897 C 902.711975 724.484009 921.755005 726.846008 926.119019 731.004028 C 926.867004 731.71698 926.627991 731.372986 926.669006 732.547974 C 923.866028 735.55603 910.893005 738.296021 906.291992 739.390991 C 903.31132 740.029012 900.315653 740.583354 897.304993 741.054016 C 894.293681 741.52533 891.271688 741.912984 888.239014 742.21698 C 885.20634 742.520325 882.167664 742.739339 879.122986 742.874023 C 876.078349 743.008667 873.032023 743.058655 869.984009 743.023987 C 866.936686 742.989319 863.892354 742.870321 860.851013 742.666992 C 857.810323 742.463664 854.777323 742.176005 851.752014 741.804016 C 848.727356 741.431986 845.715027 740.976318 842.715027 740.437012 C 839.715678 739.897664 836.733337 739.27533 833.768005 738.570007 C 830.973999 737.924988 826.817017 737.281982 825.234009 734.778992 C 825.281982 733.512024 825.515015 732.820007 826.314026 731.861023 C 830.955994 726.281982 851.760986 723.789001 859.192993 723.198975 Z"/>
    <path id="path9" fill="#fefdfc" stroke="none" d="M 669.840027 723.599976 C 670.689026 723.630005 670.278015 723.484009 670.999023 724.208008 C 670.726013 728.549011 670.085999 732.870972 669.767029 737.21698 C 669.185974 745.14801 668.879028 753.166016 667.815002 761.046997 C 659.547974 763.757996 649.505981 764.267029 641.197021 761.505981 C 640.445984 756.929993 640.838013 751.617981 640.541992 746.924988 C 640.054016 739.21698 639.070984 731.517029 638.495972 723.804016 C 648.135986 725.585022 660.304993 726.023987 669.840027 723.599976 Z"/>
    <path id="path10" fill="#fefdfc" stroke="none" d="M 757.10199 364.723022 C 759.869995 367.341003 762.16803 371.161011 764.343994 374.302002 C 775.109009 389.844971 782.142029 405.837036 783.565002 424.80603 C 776.773987 422.328979 771.151978 418.19104 765.393005 413.942993 C 752.614014 403.775024 741.080994 392.307983 728.997986 381.344971 L 729.427002 381.394043 C 735.304016 382.026001 742.070984 382.484009 747.468994 379.619995 C 753.059021 376.653015 755.448975 370.448975 757.10199 364.723022 Z"/>
    <path id="path11" fill="#fefdfc" stroke="none" d="M 656.820984 283.474976 C 673.486023 282.778992 698.567993 303.838989 711.372986 314.473022 C 708.263 315.752014 705.393005 317.041992 702.721985 319.13501 C 697.401001 323.304993 696.026978 328.526978 695.148987 334.882996 C 694.687012 339.822021 695.323975 344.075989 696.221985 348.921021 C 690.137309 340.965698 684.338643 332.807027 678.825989 324.445007 C 673.313334 316.083679 668.100667 307.539022 663.187988 298.811035 C 660.973999 294.801025 658.31897 290.545044 656.713013 286.261963 C 656.184998 284.85498 656.224976 284.778015 656.820984 283.474976 Z"/>
    <path id="path12" fill="#fefdfc" stroke="none" d="M 742.036011 712.551025 C 763.896973 711.888 786.244995 714.895996 807.997009 716.892029 C 797.385986 723.419006 785.026978 727.554993 774.03302 733.55603 C 770.31897 733.494995 766.585022 733.148987 762.877991 732.903015 C 740.814026 731.002991 718.705017 729.218994 696.544006 729.291016 C 711.127991 722.637024 726.987976 718.125 742.036011 712.551025 Z"/>
    <path id="path13" fill="#b3927f" stroke="none" d="M 967.830017 747.049988 L 968.182983 747.304016 C 969.252991 749.971985 968.539978 755.354004 968.517029 758.349976 C 949.03302 765.317993 930.166992 773.963989 911.288025 782.403015 C 902.088013 786.515015 892.749023 790.310974 883.546021 794.416016 C 872.669006 799.268005 861.88501 804.929993 850.700989 808.994019 C 849.302979 806.767029 849.974976 799.802002 849.948975 796.916992 C 858.382019 792.721985 867.338013 789.344971 875.981995 785.59198 C 885.539978 781.442017 894.942993 776.939026 904.528015 772.85199 C 912.052979 769.643982 919.747009 766.833984 927.327026 763.755981 C 940.848022 758.265991 954.064026 751.921997 967.830017 747.049988 Z"/>
    <path id="path14" fill="#fefdfc" stroke="none" d="M 714.593994 318.863037 C 715.327026 318.843994 715.405029 318.797974 716.210022 319.021973 C 721.403015 320.466003 739.312988 340.872009 743.575012 346.127991 C 746.906006 350.234985 749.903992 354.531006 752.859009 358.908997 C 751.598022 363.19104 750.270996 367.68103 747.499023 371.271973 C 745.387024 374.009033 743.476013 375.369019 740.059021 375.889038 C 735.823975 376.474976 731.276978 376.688965 727.077026 375.755005 C 720.263977 374.240967 708.416992 362.411011 704.635986 356.446045 C 700.369995 349.718018 699.348999 339.448975 701.369995 331.802979 C 703.30603 324.483032 708.565002 322.249023 714.593994 318.863037 Z"/>
    <path id="path15" fill="#fefdfc" stroke="none" d="M 695.72699 734.643005 C 708.140015 733.994995 721.10498 735.80603 733.473022 736.859985 C 746.046021 737.932007 759.015015 738.559998 771.469971 740.632019 L 771.513977 750.471985 C 760.039978 747.851013 721.754028 741.116028 711.346985 744.679016 L 711.315002 745.244995 C 715.484985 747.666992 722.710022 747.612 727.504028 748.140991 C 741.969971 749.958008 756.872009 752.185974 771.44397 752.575012 C 771.420003 758.17568 771.297017 763.774333 771.075012 769.370972 C 764.013977 767.896973 756.512024 767.554016 749.328979 766.879028 C 731.086975 765.164978 712.47699 764.322021 694.413025 761.317017 C 694.241028 757.478027 693.991028 736.684021 695.72699 734.643005 Z"/>
    <path id="path16" fill="#562c3a" stroke="none" d="M 709.130005 755.226013 C 716.210999 753.807983 761.098999 755.594971 765.463013 759.221985 C 766.549011 760.124023 766.609985 760.473999 766.849976 761.781006 C 760.348022 762.47998 716.221985 758.887024 710.828979 756.862 C 709.669983 756.427002 709.620972 756.291992 709.130005 755.226013 Z"/>
    <path id="path17" fill="#d1c7b1" stroke="none" d="M 845.075989 301.734985 C 846.906982 303.108032 848.283997 305.497009 849.572021 307.367004 C 855.377991 315.797974 860.122986 325.011963 865.393005 333.786011 C 872.922974 346.325989 880.846985 358.617004 888.304993 371.208984 C 894.414001 381.521973 942.460022 465.153015 941.820984 468.631958 L 940.502014 469.313965 C 937.940002 469.562012 935.309998 469.474976 932.736023 469.5 C 928.271973 465.082031 924.29303 455.536011 921.146973 449.848999 C 913.096008 435.296021 905.291016 420.530029 896.914001 406.166016 C 890.518005 395.200012 883.655029 384.478027 876.966003 373.688965 C 865.976013 355.963013 855.038025 338.473022 842.992004 321.437012 C 843.809998 314.854004 844.617981 308.358032 845.075989 301.734985 Z"/>
    <path id="path18" fill="#b3927f" stroke="none" d="M 675.661011 271.946045 C 678.437988 272.106995 681.564026 273.744019 684.015015 274.976013 C 694.26001 280.125977 704.952026 285.684998 714.296997 292.346008 C 744.034973 313.541992 771.872986 347.539001 788.117981 380.14801 C 792.302979 388.547974 795.705994 397.608032 798.643982 406.52002 C 796.109009 411.291992 792.585999 416.559998 789.083984 420.677002 C 788.827026 410.328003 785.030029 400.109009 780.713013 390.827026 C 775.896973 380.469971 769.369019 371.645996 763.008972 362.254028 C 758.14801 355.075989 754.213013 347.530029 748.724976 340.747986 C 734.971008 323.750977 707.747009 300.801025 688.981995 289.618042 C 681.166016 284.959961 673.14502 281.265991 664.616028 278.151001 C 668.075989 275.721008 671.911011 273.881958 675.661011 271.946045 Z"/>
    <path id="path19" fill="#d1c7b1" stroke="none" d="M 928.481018 505.971008 C 933.499023 507.164001 937.55603 507.447021 942.697021 506.990967 C 935.455994 529.809021 930.539001 553.099976 924.601013 576.263977 L 897.440002 680.718018 C 893.58197 696.025024 890.763 711.838989 886.27301 726.948975 C 885.776978 728.617004 885.338013 729.94397 884.129028 731.22699 C 882.414978 731.768005 880.710999 731.978027 878.927979 732.138 C 875.900024 732.408997 872.28302 732.854004 869.80603 730.794983 C 869.783997 726.192993 875.026978 714.75 876.599976 709.807983 C 878.38798 704.017334 880.082316 698.199666 881.682983 692.35498 C 884.632019 681.820007 887.106018 671.13501 890.13501 660.633972 C 893.234009 649.892029 896.809021 639.338989 899.674988 628.517029 C 904.916016 608.72699 909.473999 588.802979 914.388 568.937012 C 919.685974 547.515991 926.038025 528.176025 928.481018 505.971008 Z"/>
    <path id="path20" fill="#b3927f" stroke="none" d="M 606.119995 782.629028 C 617.388 783.38501 628.703003 783.297974 639.97998 783.986023 L 689.797974 787.458008 C 740.859985 790.567993 792.020996 793.346985 843.020996 797.346985 C 843.103027 801.857971 843.523987 806.653992 842.911011 811.119995 C 828.632996 809.416016 814.228027 808.817017 799.880981 808.01001 L 748.150024 804.879028 L 662.955017 799.801025 C 643.922974 798.614014 624.952026 796.981995 605.888 796.304016 C 605.541016 791.807983 605.961975 787.138 606.119995 782.629028 Z"/>
    <path id="path21" fill="#b3927f" stroke="none" d="M 685.330017 732.200989 C 686.494995 732.005981 687.210022 731.958008 688.356018 732.26001 C 690.919983 738.896973 685.177979 760.68103 688.659973 767.13501 C 697.968994 771.879028 756.155029 774.474976 772.45697 777.484009 C 780.405029 774.370972 787.955994 769.189026 795.401001 765.023987 C 802.80603 760.880981 811.617981 757.382996 817.994019 751.780029 C 819.812988 753.364014 821.562988 754.650024 823.776978 755.638 C 845.890991 765.507996 885.271973 764.52301 908.648987 759.22699 C 918.122009 757.08197 927.06897 753.643005 936.132996 750.226013 C 936.5 746.624023 936.648987 742.971985 936.919006 739.359985 C 944.403015 740.734985 952.23999 740.929993 959.81897 741.789978 C 938.978027 751.005981 917.390991 758.721008 896.598022 768.005005 C 885.23999 772.983683 873.841654 777.868347 862.403015 782.658997 C 857.424988 784.763977 850.767029 788.549988 845.460999 789.244995 C 837.60498 790.27301 823.307007 787.999023 814.859985 787.200012 C 800.965332 785.873352 787.055664 784.732015 773.130981 783.776001 C 717.534342 779.783325 661.887675 776.697998 606.190979 774.52002 C 615.486023 768.932983 624.846008 763.132996 634.442017 758.09198 C 634.671021 760.221985 634.745972 763.034973 635.739014 764.940979 C 636.820007 767.017029 639.265991 768.065979 641.396973 768.687988 C 650.862976 771.447998 665.885986 771.424011 674.659973 766.664978 C 674.698975 762.700989 676.247986 758.34198 676.81897 754.362 C 677.822998 747.359009 677.947998 740.229004 677.940979 733.164978 L 685.330017 732.200989 Z"/>
    <path id="path22" fill="#b3927f" stroke="none" d="M 769.343018 239.210999 C 775.036011 238.47998 781.40802 239.213013 786.664978 241.509033 C 803.643005 248.924988 827.70697 277.981995 834.307983 295.511963 C 835.094971 297.60199 835.697021 299.697998 835.627991 301.950989 C 835.405029 309.226013 832.385986 317.338013 830.333984 324.320007 C 822.741028 350.156006 813.945984 374.98999 802.596985 399.424988 C 798.468018 386.630005 792.679993 374.959961 786.146973 363.254028 C 765.29303 329.922974 737.664001 297.656006 702.945984 278.214966 C 696.10199 274.381958 688.973999 271.398987 681.729004 268.437012 C 708.664001 256.901978 739.968018 241.754028 769.343018 239.210999 Z"/>
    <path id="path23" fill="#b3927f" stroke="none" d="M 946.315979 777.507996 C 946.71698 777.916992 946.791992 778.546021 946.843994 779.103027 C 947.153015 782.429016 946.763977 786.122986 946.684021 789.481995 L 946.244019 810.585999 L 945.447021 885.989014 C 934.796997 889.922974 924.382996 895.43103 914.062988 900.218018 C 888.571004 912.135986 863.276672 924.459981 838.179993 937.190002 C 838.078003 937.09198 837.958984 937.01001 837.874023 936.895996 C 837.494019 936.385986 837.440002 935.776001 837.448975 935.164978 C 837.616028 923.508972 839.171021 911.291992 839.677002 899.536011 C 840.703654 873.315348 841.420329 847.086019 841.827026 820.848022 L 842.460022 820.797974 C 842.804993 820.768982 843.150024 820.72998 843.494995 820.710022 C 854.284973 820.078003 905.901001 794.934998 919.702026 788.794983 C 928.51001 784.875977 937.619995 781.684998 946.315979 777.507996 Z"/>
    <path id="path24" fill="#b3927f" stroke="none" d="M 628.307007 807.21698 C 658.169983 810.94397 688.411011 812.210022 718.432983 814.078003 C 755.987976 816.414001 793.422974 819.018982 831.028015 820.513 C 828.674011 858.797974 828.999023 897.307007 826.952026 935.624023 C 826.906006 936.838989 826.966003 937.182007 826.315002 938.184998 C 824.812988 938.679016 823.367004 938.726013 821.794006 938.685974 C 813.982971 938.491028 805.932983 937.310974 798.103027 936.752014 C 778.227661 935.325338 758.344645 934.008667 738.453979 932.802002 C 702.164673 930.809326 665.858337 929.208659 629.534973 928 C 629.142029 917.828003 629.41803 907.638977 629.414001 897.460999 C 629.408997 886.468018 629.01001 875.481995 628.942993 864.491028 C 628.862 851.330994 629.109009 838.182983 628.439026 825.033997 C 628.213989 820.607971 626.872986 811.166016 628.307007 807.21698 Z"/>
    <path id="path25" fill="#562c3a" stroke="none" d="M 361.149994 130.130005 C 349.503326 120.35201 337.43399 111.126668 324.941986 102.453979 C 321.873993 100.309021 310.872009 93.582581 309.221008 91.066284 C 309.065002 90.828979 308.632996 89.509705 308.628998 89.139709 C 308.615997 87.882996 308.984985 86.98877 310.020996 86.240723 C 312.972992 84.108582 319.268005 85.138916 322.75 85.416382 C 338.653015 86.684204 353.593994 89.706177 368.82901 94.384521 C 394.07901 102.138977 412.056 112.348022 434.661011 125.452026 C 431.526001 119.864014 427.920013 114.692993 424.039001 109.609009 C 421.197998 105.887024 417.946991 102.195984 415.701996 98.082397 C 414.867004 96.551392 414.455994 95.510803 414.747009 93.780884 C 415.931 92.525879 417.131989 92.250122 418.798004 92.228394 C 440.307007 91.94928 478.963989 122.825012 494.183014 138.438965 C 498.923676 143.36967 503.567668 148.389343 508.11499 153.497986 C 506.572998 148.937988 504.356995 143.337036 505.522003 138.516968 C 506.40799 137.432007 506.394012 137.490967 507.783997 137.259033 C 515.763977 139.629028 528.242981 156.968018 532.148987 164.268005 C 538.898987 176.882996 544.133972 190.598022 545.979004 204.839966 C 547.224976 202.737 548.362976 200.325989 550.216003 198.703003 C 551.760986 199.083984 552.439026 199.539001 553.232971 200.955017 C 554.963013 204.039978 555.744995 208.200989 556.565979 211.61499 C 560.403992 227.567017 562.836975 247.367981 557.684021 263.315002 C 555.815979 269.096985 552.804993 274.463989 549.754028 279.688965 C 552.098022 285.085999 554.070007 290.296021 555.327026 296.049011 C 566.104004 296.000977 575.405029 297.562988 583.309998 305.528015 C 595.374023 317.68396 597.69397 338.515015 597.531006 354.744995 C 597.297974 377.846985 589.242004 398.36499 574.427002 415.963989 C 581.411987 416.342041 588.880981 416.743042 594.447998 411.790039 C 605.642029 401.828979 617.830017 384.690002 634.796021 385.424988 C 637.791016 385.553955 640.133972 386.393005 642.130005 388.700012 C 646.008972 393.18103 645.747009 398.759033 645.158997 404.26001 C 643.224976 422.384033 630.945984 436.587036 617.218018 447.552002 C 582.085022 475.615967 558.999023 493.453979 514.380005 505.682007 C 518.909973 505.893005 525.40802 505.739014 528.749023 509.328003 C 530.120972 510.801025 530.549011 512.718018 530.383972 514.684021 C 529.833984 521.242981 523.609009 528.546021 519.932983 533.732971 C 522.211975 547.919983 522.979004 562.325989 526.392029 576.351013 C 536.377991 581.47699 546.080017 586.674988 555.02002 593.525024 C 566.124023 573.682007 583.353027 559.924011 602.695984 548.671997 C 605.327026 547.142029 609.125977 544.130005 612.002991 543.43103 C 612.922974 543.208008 612.882019 543.370972 613.659973 543.77301 C 615.768982 546.629028 617.552979 549.908997 619.117004 553.09198 C 622.862976 552.099976 631.559998 548.752991 635.13501 549.788025 C 636.23999 552.383972 634.807983 555.849976 633.794983 558.33197 C 630.960999 565.27301 627.38501 572.051025 624.098022 578.791992 C 615.623332 596.177327 606.605001 613.276001 597.04303 630.088013 C 597.356344 630.408651 597.661336 630.736979 597.958008 631.072998 C 598.25533 631.408325 598.543986 631.750997 598.823975 632.101013 C 599.104655 632.450989 599.376322 632.807312 599.638977 633.169983 C 599.901672 633.533346 600.155009 633.903015 600.398987 634.278992 C 600.643656 634.654317 600.878988 635.035645 601.10498 635.422974 C 601.330322 635.810343 601.546326 636.203023 601.752991 636.601013 C 601.959656 636.999003 602.156331 637.401672 602.343018 637.809021 C 602.529663 638.216329 602.705994 638.627991 602.872009 639.044006 C 603.038676 639.460673 603.194682 639.881002 603.340027 640.304993 C 603.486023 640.728333 603.621338 641.155334 603.745972 641.585999 C 603.870646 642.016663 603.98466 642.449992 604.088013 642.885986 C 604.191325 643.322673 604.283997 643.761353 604.366028 644.202026 C 604.448018 644.64266 604.519002 645.084981 604.578979 645.528992 C 604.638997 645.973002 604.688009 646.418335 604.726013 646.86499 C 604.764018 647.311646 604.791341 647.758972 604.807983 648.20697 C 604.823975 648.655009 604.828979 649.103027 604.822998 649.551025 C 604.791992 656.512024 602.215027 663.263 597.192993 668.142029 C 594.817993 670.448975 591.968994 672.132019 589.172974 673.870972 C 589.984009 680.234009 587.085999 686.325989 583.260986 691.270996 C 577.515015 698.698975 567.559998 704.700989 558.202026 705.90802 C 555.752014 706.223999 553.315979 706.190979 550.854004 706.133972 C 543.281982 719.802002 530.294983 727.718994 519.283997 738.210999 C 528.379028 759.995972 534.953979 790.476013 525.708984 813.054993 C 519.659973 827.825989 507.165985 844.703003 492.106995 851.258972 C 489.990997 852.179993 487.266998 853.021973 485.005005 852.096985 C 483.75 851.583008 482.820007 850.677002 482.265991 849.442017 C 480.364014 845.205017 483.213013 828.429016 483.312012 822.536011 C 470.367004 815.929016 457.132996 809.356018 443.734985 803.723999 C 446.596008 814.377014 455.152008 837.469971 454.391998 847.346008 C 454.273987 848.879028 453.514008 850.203979 452.752014 851.505981 C 452.168681 852.495321 451.568675 853.474325 450.951996 854.442993 L 451.752014 861.143005 C 458.628998 859.640015 463.55899 860.39801 469.795013 863.659973 C 485.359985 861.799988 498.130005 862.856018 510.84201 872.77301 C 516.827026 877.442017 520.487976 882.794006 523.565002 889.677979 C 522.69397 891.315979 521.838989 893.132996 520.393982 894.343994 C 512.830017 900.682983 488.389008 909.083008 478.442993 912.130981 C 458.535004 918.231018 429.007996 923.426025 408.43399 919.646973 C 404.674988 915.789001 403.243988 912.216003 402.076996 907.060974 C 402.042908 901.725281 401.638062 905.291748 401.270996 900.905029 C 401.218903 900.282471 401.658997 899.718994 401.85199 899.125977 C 401.584991 898.262024 401.26712 898.647034 401.095001 897.880005 C 400.447662 894.994995 401.023407 897.855469 400 893.38501 C 398.187012 884.942017 395.843994 876.283997 394.688995 867.745972 C 392.837006 867.155029 390.920013 866.635986 389.113007 865.924988 C 382.011993 850.112976 378.980011 831.588013 375.615997 814.664001 C 375.231995 826.963989 375.444 839.052979 377.221985 851.252991 C 377.826996 855.409973 382.654999 870.218018 381.723999 872.947998 C 381.562988 873.419006 381.069 873.955017 380.747986 874.284973 C 376.475006 878.664978 360.161987 876.046021 354.31601 875.546997 C 343.624664 874.665649 332.995331 873.299316 322.428009 871.447998 C 311.861338 869.59668 301.400665 867.268005 291.04599 864.461975 C 288.947998 867.97699 287.054993 869.655029 283.54599 871.723999 C 283.451996 874.554016 283.210999 877.031006 282.348999 879.757996 C 285.783997 882.281006 289.233002 884.775024 292.509003 887.504028 C 297.348114 889.926514 292.530548 887.50885 297.346008 889.950989 C 300.117004 891.883972 302.86499 893.870972 305.682007 895.736023 C 312.114075 900.009949 308.679871 897.82666 312.113007 900.099976 C 323.182007 908.88501 329.410004 915.377991 335.57901 928.283997 C 337.071991 931.408997 338.812012 934.812012 339.201996 938.296021 C 339.476013 940.745972 338.950012 942.757996 337.406006 944.695007 C 332.459991 950.898987 320.187012 952.687988 312.734985 953.304993 C 282.096008 955.841003 255.460007 950.309998 229.565002 933.242981 C 228.987457 933.026611 229.515137 933.203125 229 933 C 226.334 930.712036 221.906998 926.723999 219.537003 924.125977 C 219.582413 924.209961 219.642288 924.237671 219 924 C 218.990005 921.023987 217.466995 912.723999 218.003006 909.815979 C 218.205994 908.367981 218.175003 907.083008 218.069 905.627014 C 217.781006 894.58197 218.507004 881.065002 224.459 871.484009 C 223.261002 870.453979 222.195007 869.414001 221.139999 868.23999 C 218.819 868.008972 214.733002 868.112976 213.147003 866.21698 C 209.684006 862.077026 208.623993 841.513977 208.292999 835.489014 C 168.488007 816.437012 125.912003 790.664001 95.560501 758.184021 C 92.198601 754.585999 86.782097 750.036987 84.974098 745.478027 C 82.8311 740.075989 84.265999 731.382996 84.660599 725.650024 C 86.836403 694.036987 92.656998 662.35199 99.5961 631.468018 C 103.287003 615.039001 107.010002 598.992981 112.392998 583.015015 C 106.926003 585.643005 84.569801 598.840027 79.821098 597.276001 C 79.043297 597.02002 78.497902 595.958008 78.278099 595.224976 C 76.279701 588.564026 81.748199 558.094971 83.7985 549.900024 C 85.339897 543.737976 87.652496 537.760986 89.112801 531.593994 C 80.8554 534.700012 69.309097 543.434998 62.8671 545.04303 C 61.5863 545.362976 61.268299 545.176025 60.091202 544.692017 C 58.520699 542.919006 58.354301 541.078003 58.445099 538.781982 C 58.683998 532.741028 60.187099 526.312988 61.544899 520.406006 C 64.280502 508.502991 67.715797 496.938965 72.281097 485.605957 C 76.002701 476.367004 80.419098 467.353027 83.925598 458.046021 C 76.783798 461.349325 69.727965 464.826986 62.758099 468.479004 C 56.389801 471.781982 49.331299 476.734985 42.269901 478.213989 C 41.270699 477.695007 40.8428 477.532959 40.577599 476.30896 C 40.017399 473.721985 41.7005 469.190002 42.413601 466.536987 C 49.973202 438.414001 70.715401 404.286987 88.208603 381.170044 C 81.796402 383.359009 45.7672 399.013 41.882801 397.667969 C 41.164299 397.419006 41.0033 396.833984 40.623501 396.230957 C 39.5723 385.358032 66.852203 348.167969 74.564102 338.802979 C 85.996902 324.920044 98.786201 312.747986 112.064003 300.651978 C 102.413002 302.109009 60.6366 309.787964 55.4589 306.656006 C 54.766201 305.605957 54.271 305.143005 54.653702 303.80603 C 56.949001 295.781982 113.591003 258.585999 124.257004 252.320984 C 133.257996 247.033997 142.701004 242.557007 152.057007 237.937988 C 142.445007 237.653015 132.804993 237.212036 123.191002 237.132019 C 113.098999 237.047974 93.481598 238.963013 84.348602 235.445984 C 83.5681 234.5 83.561798 234.411987 83.466003 233.182983 C 84.019997 231.85498 84.595497 231.013 85.699799 230.070007 C 89.024696 227.231018 93.625298 225.140991 97.457001 222.963989 C 108.925003 216.447998 120.027 210.234985 132.251007 205.203979 C 147.979996 198.731995 163.617996 193.55603 179.996002 189.018982 C 185.871994 187.391968 191.973007 186.323975 197.789993 184.565002 C 186.567998 180.875671 175.182002 177.793335 163.632004 175.317993 C 155.567993 173.620972 147.059998 173.057007 139.369003 169.984009 C 138.876007 168.698975 138.897003 168.63501 139.261993 167.302002 C 142.067993 164.02301 146.910004 162.561035 150.806 160.929016 C 176.623993 150.109009 205.608002 144.471008 233.455002 142.313965 C 247.369995 141.235962 260.82901 141.820007 274.734009 142.057983 C 263.509003 134.919983 251.862 129.02002 239.800995 123.414001 C 237.182999 122.197021 226.042007 117.622009 224.804001 115.872986 C 224.481003 115.416016 224.434006 114.817017 224.248993 114.289001 C 224.626999 112.976013 224.720993 112.702026 225.940002 111.910034 C 228.751999 110.083008 235.220993 110.093018 238.621994 109.763 C 268.937012 106.823975 308.71701 110.61499 337.791992 120.195007 C 345.872986 122.858032 353.571991 126.281982 361.149994 130.130005 Z"/>
    <path id="path26" fill="#fefdfc" stroke="none" d="M 269.505005 908.781982 C 271.846985 907.804993 274.209991 907.776978 276.709015 907.609009 C 274.363007 909.497009 272.237 911.401001 270.178986 913.599976 L 269.505005 908.781982 Z"/>
    <path id="path27" fill="#fefdfc" stroke="none" d="M 255.477997 892.223999 L 257.112 894.700012 C 254.020996 896.130005 251.442001 899.020996 248.369003 900.138 C 247.376007 900.497986 247.425003 900.286011 246.526993 899.877991 C 246.024994 898.664978 246.029999 898.573975 246.313995 897.289978 C 248.072998 894.905029 252.75 893.434021 255.477997 892.223999 Z"/>
    <path id="path28" fill="#fefdfc" stroke="none" d="M 273.044006 902.528015 C 284.605011 899.090027 293.57901 898.661987 305.234985 901.791016 C 300.804993 902.158997 296.316986 902.434998 291.923004 903.109985 C 287.734985 903.754028 283.122986 905.15802 278.904999 905.099976 C 277.209991 905.077026 275.372986 904.585999 273.832001 903.903015 L 273.044006 902.528015 Z"/>
    <path id="path29" fill="#fefdfc" stroke="none" d="M 428.153015 882.435974 C 429.184998 880.489014 430.225006 878.73999 431.876007 877.245972 C 436.484009 873.073975 447.894012 867.554016 453.850006 865.742004 C 455.292999 865.304016 456.919006 864.953003 458.419006 865.242004 C 458.053009 866.356018 457.183014 866.749023 456.160004 867.245972 C 453.501007 868.536987 450.628998 869.310974 447.993011 870.682983 L 448.053009 871.387024 C 450.90799 873.755005 453.513 876.02301 455.837006 878.924011 C 451.696991 875.945984 447.931 873.348999 442.531006 874.106018 C 438.681 874.645996 434.785004 876.890015 432.415985 879.98999 C 431.354004 881.380005 430.552002 883.049988 429.739014 884.593994 L 428.153015 882.435974 Z"/>
    <path id="path30" fill="#b3927f" stroke="none" d="M 507.080994 351.650024 C 511.221985 351.440002 515.400024 351.497986 519.546997 351.450989 C 519.586975 354.292969 519.666016 357.119019 519.388 359.952026 C 515.31897 359.964966 511.237 360.302979 507.175995 360.544006 L 507.080994 351.650024 Z"/>
    <path id="path31" fill="#b3927f" stroke="none" d="M 261.878998 877.088013 C 267.950012 875.762024 274.197998 874.390991 280.365997 873.650024 L 281.028015 875.036987 C 278.156006 879.64502 272.29599 875.513 273.290009 884.101013 L 263.125 885.91803 C 262.816986 883.20697 262.761993 880.15802 261.785004 877.603027 L 261.878998 877.088013 Z"/>
    <path id="path32" fill="#b3927f" stroke="none" d="M 581.411987 678.403992 C 581.866028 678.794983 581.565979 678.497986 582.111023 679.458008 C 582.127991 680.869019 582.01001 681.72998 581.210999 682.922974 C 576.396973 690.114014 565.551025 696.463013 557.127991 697.882996 L 556.554016 697.322021 C 557.893982 693.158997 562.164978 687.947998 564.700012 684.35498 C 571.026001 683.517029 575.927979 681.648987 581.411987 678.403992 Z"/>
    <path id="path33" fill="#d1c7b1" stroke="none" d="M 514.219971 543.838989 C 515.163025 547.588989 515.39502 551.838013 516.015015 555.687012 C 516.955994 561.533997 518.245972 567.307007 519.52002 573.088013 L 512.133972 569.846985 C 509.483002 568.885986 506.97699 567.682007 504.437012 566.463989 C 506.181 558.421021 510.119995 550.906006 514.219971 543.838989 Z"/>
    <path id="path34" fill="#603e40" stroke="none" d="M 279.64801 888.734009 C 280.824005 886.434021 278.502991 883.732971 279.837006 881.955994 C 286.125 886.237 291.341003 892.718018 297.445007 897.411011 C 292.897003 895.484009 289.121002 892.328979 284.036987 892.211975 L 282.910004 892.723999 C 285.179993 894.182983 287.06601 892.101013 288.057007 895.559021 C 282.696014 897.528992 277.928009 899.023987 272.166992 898.294006 C 271.505005 897.828979 270.864014 897.406982 270.279999 896.844971 L 269.559998 896.481018 L 269.690002 895.52002 L 269.197998 894.888 C 265.242004 895.164001 260.766998 893.812012 257.112 894.700012 L 255.477997 892.223999 C 256.742004 891.103027 257.694 890.721985 259.321014 890.432983 C 266.114014 888.90802 272.688995 887.948975 279.64801 888.734009 Z"/>
    <path id="path35" fill="#fefdfc" stroke="none" d="M 259.321014 890.432983 C 266.114014 888.90802 272.688995 887.948975 279.64801 888.734009 C 280.704987 889.463989 281.605011 889.81897 282.144012 891.013977 C 281.27301 891.616028 281.760986 891.468994 280.730011 891.450012 C 276.955994 891.380005 264.626007 893.658997 262.221985 892.661987 C 261.292999 892.276978 260.062988 891.096985 259.321014 890.432983 Z"/>
    <path id="path36" fill="#fefdfc" stroke="none" d="M 400.755005 508.136963 C 408.731995 509.588989 416.674988 511.341003 424.654999 512.823975 C 420.122986 517.046021 417.079987 521.155029 414.036011 526.549988 C 412.170013 530.018005 410.746002 533.655029 409.278992 537.302002 C 408.423004 527.79303 401.071991 514.721008 400.755005 508.136963 Z"/>
    <path id="path37" fill="#fefdfc" stroke="none" d="M 619.896973 556.051025 L 620.203979 556.685974 C 614.265015 564.140015 604.830017 569.072998 597.663025 575.465027 C 589.48999 582.754028 582.570007 590.88501 575.067017 598.815979 C 573.005005 600.994995 570.981018 603.617004 567.929016 604.268982 C 567.724976 603.973999 567.476013 603.632019 567.315979 603.317017 C 566.783997 602.27002 566.66803 601.89502 567.112 600.791016 C 568.754028 596.705994 573.586975 592.617004 576.622986 589.570984 C 588.945984 577.20697 603.687988 563.119995 619.896973 556.051025 Z"/>
    <path id="path38" fill="#fefdfc" stroke="none" d="M 629.791992 394.051025 C 631.416016 393.953003 633.028992 393.843994 634.552979 394.528015 C 636.02002 395.187012 636.916992 396.148987 637.370972 397.723999 C 638.052979 400.091003 636.559021 403.571045 635.489014 405.614014 C 632.521973 411.276001 628.29303 413.869019 622.400024 415.619995 C 620.861023 415.682007 618.987976 415.752991 617.502014 415.287964 C 616.156982 414.865967 614.862 413.85199 614.409973 412.474976 C 613.750977 410.459961 614.721008 408.015991 615.611023 406.231995 C 618.651978 400.131958 623.510986 396.31897 629.791992 394.051025 Z"/>
    <path id="path39" fill="#b3927f" stroke="none" d="M 232.764999 874.541016 C 240.934998 876.189026 254.039001 879.012024 261.878998 877.088013 L 261.785004 877.603027 C 260.178009 877.64801 258.670013 877.517029 257.553009 878.893982 C 255.815002 881.036987 256.460999 885.174988 256.505005 887.781982 C 250.621002 890.044006 245.623001 892.939026 240.373001 896.416992 C 235.513 889.61499 233.910995 882.70697 232.764999 874.541016 Z"/>
    <path id="path40" fill="#b3927f" stroke="none" d="M 591.38501 638.77301 C 593.513 640.237976 594.815979 641.765991 595.739014 644.213013 C 597.346985 648.474976 597.450989 653.398987 595.56897 657.583984 C 591.70697 666.176025 580.830017 671.286987 572.52002 674.424988 L 567.604004 676.083984 C 575.715027 663.84198 583.875977 651.388977 591.38501 638.77301 Z"/>
    <path id="path41" fill="#b3927f" stroke="none" d="M 265.026001 329.924988 C 267.313995 326.289001 269.463013 323.815002 273.862 322.917969 C 280.602997 321.541992 287.824005 324.906982 293.239014 328.674988 C 295.877014 330.511963 299.390991 333.782959 300.290009 336.981995 C 300.480011 337.656982 300.421997 337.820007 300.369995 338.429993 L 299.64801 339.165039 C 289.997986 336.764038 282.214996 335.476013 273.067993 340.833984 C 272.419006 341.213989 272.59201 341.122009 271.932007 341.677979 C 271.489014 340.091003 268.292999 337.768005 267.117004 336.471008 C 265.352997 334.525024 264.972992 332.455994 265.026001 329.924988 Z"/>
    <path id="path42" fill="#b3927f" stroke="none" d="M 430.222992 553.593018 C 436.175995 554.536987 442.011993 554.521973 448.019012 554.479004 C 447.958008 558.468994 447.656006 562.47998 447.446014 566.466003 C 432.96701 572.674988 432.505005 577.098022 426.269989 590.625 C 424.311005 594.809998 422.497986 599.208984 420.153015 603.190002 C 420.609985 597.307007 422.294006 591.515015 423.475006 585.744995 C 425.673004 574.997009 427.777008 564.289978 430.222992 553.593018 Z"/>
    <path id="path43" fill="#fefdfc" stroke="none" d="M 512.560974 885.401001 L 513.234009 885.453979 C 514.307007 886.062012 514.713013 886.515991 515.356995 887.564026 L 515.085022 888.624023 C 510.104004 892.033997 503.613007 894.393005 497.970001 896.590027 C 494.670664 897.884664 491.342662 899.100647 487.985992 900.237976 C 484.629323 901.375305 481.24766 902.432983 477.841003 903.411011 C 474.434326 904.388346 471.006663 905.285014 467.558014 906.101013 C 464.108673 906.917013 460.642334 907.651001 457.158997 908.302979 C 453.675659 908.955648 450.17866 909.525655 446.667999 910.013 C 443.157338 910.500346 439.637339 910.904338 436.108002 911.224976 C 432.578664 911.546305 429.043335 911.783976 425.502014 911.937988 C 421.961344 912.092651 418.419006 912.16333 414.875 912.150024 C 414.28299 912.112 413.678009 911.905029 413.101013 911.762024 C 412.356995 910.536011 412.079987 909.81897 411.894012 908.353027 C 412.720001 906.937012 418.147003 907.479004 419.912994 907.487 C 447.957001 907.617004 487.5 898.242981 512.560974 885.401001 Z"/>
    <path id="path44" fill="#fefdfc" stroke="none" d="M 226.591995 914.179993 C 252.876999 933.210022 278.743011 942.929993 311.639008 939.833984 C 315.94634 939.423991 320.199005 938.69633 324.397003 937.651001 C 326.828003 937.052002 329.514008 935.674011 331.984009 935.612 C 332.669006 936.906006 332.352997 937.963013 332.265991 939.39502 C 322.231995 944.968018 304.703003 944.862976 293.462006 944.249023 C 273.605988 943.166016 256.334015 938.500977 239.229996 928.205994 C 235.214005 925.789001 230.962006 923.440979 227.858002 919.861023 C 226.164993 917.908997 226.408997 916.61499 226.591995 914.179993 Z"/>
    <path id="path45" fill="#fefdfc" stroke="none" d="M 610.09198 550.426025 C 611.64801 551.174988 613.814026 553.765991 615.177979 555.02002 C 594.874023 566.578003 578.656006 581.625 563.843018 599.536987 C 562.03302 599.530029 560.276001 597.45697 558.995972 596.263977 C 568.64801 574.664001 590.33197 561.424988 610.09198 550.426025 Z"/>
    <path id="path46" fill="#fefdfc" stroke="none" d="M 415.278992 537.388977 C 415.854004 538.000977 415.648987 537.648987 415.898987 538.544006 C 417.854004 545.546021 419.742004 547.96698 425.923004 551.81897 C 423.467987 558.88501 420.914001 565.97699 418.949005 573.195984 C 416.311005 582.888977 414.468994 592.849976 412.041992 602.606995 C 411.287994 605.515991 410.325989 608.39801 409.446991 611.27301 C 409.446014 605.103027 410.196991 598.929016 410.291992 592.747009 C 410.524994 577.499023 409.856995 562.390015 408.847992 547.182007 C 409.022003 547.026978 409.194 546.869019 409.369995 546.716003 C 412.519989 543.966003 413.743011 541.166992 415.278992 537.388977 Z"/>
    <path id="path47" fill="#fefdfc" stroke="none" d="M 377 626.59198 L 377.252991 626.877991 C 375.660004 629.684998 371.083008 632.585022 368.686005 634.916992 C 361.820007 641.598999 356.096008 650.130005 352.003998 658.765991 C 348.337006 666.505981 342.717987 683.619019 344.627014 692.174988 C 345.436005 695.804016 347.912994 699.112976 349.165009 702.650024 L 348.747986 703.359009 C 347.200012 703.653992 345.984009 702.921997 344.600006 702.317993 C 341.233002 700.130005 338.925995 696.125977 337.699005 692.382996 C 334.014008 681.151001 338.322998 666.35498 343.415009 656.185974 C 350.721008 641.594971 361.487 631.69397 377 626.59198 Z"/>
    <path id="path48" fill="#d1c7b1" stroke="none" d="M 442.585999 834.914001 L 443.222992 835.250977 C 444.687988 837.658997 445.93399 841.684021 445.911987 844.531982 C 445.899994 845.942993 445.317993 846.882996 444.312012 847.840027 C 436.167999 855.583984 406.372009 859.562012 395.186005 859.442993 C 393.321014 854.671021 392.049011 849.723022 390.699005 844.788025 C 408.072998 848.036011 427.363007 843.411011 442.585999 834.914001 Z"/>
    <path id="path49" fill="#d1c7b1" stroke="none" d="M 217.197006 839.226013 C 228.259995 843.617004 238.811996 848.52301 250.100998 852.481018 C 255.860001 854.5 274.885986 859.125 278.376007 861.200989 C 279.276001 861.736023 278.987 861.396973 279.256012 862.439026 L 278.282013 863.270996 C 253.580994 866.619019 244.235992 864.382019 220.759995 860.307007 C 219.663996 853.264323 218.476334 846.237325 217.197006 839.226013 Z"/>
    <path id="path50" fill="#d1c7b1" stroke="none" d="M 519.482971 784.932007 L 519.911011 785.429016 C 520.635986 789.906006 519.989014 795.421021 519.237976 799.903015 C 516.338989 817.210022 506.862 830.603027 492.806 840.679016 C 492.492004 840.320984 492.324005 839.903015 492.276001 839.419983 C 491.924011 835.869019 492.722992 831.546997 492.846985 827.919006 C 493.07901 821.107971 492.962006 814.291992 492.876007 807.47998 C 503.752014 801.890015 511.944 794.593994 519.482971 784.932007 Z"/>
    <path id="path51" fill="#fefdfc" stroke="none" d="M 480.45401 510.705994 C 481.509003 510.528015 482.463989 510.532959 483.528015 510.535034 C 484.311005 512.078979 483.282013 516.788025 483.075989 518.700012 C 481.595001 532.44397 479.737 546.643982 481.707001 560.416016 C 472.847992 559.827026 465.545013 560.55603 457.380005 564.119019 C 456.184998 559.971985 454.618011 556.036011 452.996002 552.044006 C 455.829987 548.450989 458.657013 544.177979 459.773987 539.677002 C 460.295013 537.578979 460.312988 535.336975 461.151001 533.335999 L 461.451996 533.849976 C 464.339996 540.942993 467.929993 548.330017 472.890991 554.231995 C 474.122009 555.697021 475.46701 557.336975 477.484985 557.526001 C 478.097992 557.062012 478.403992 557.028992 478.59201 556.223999 C 480.446991 548.286011 461.55899 521.838013 456.770996 513.340027 C 464.680339 512.595357 472.574677 511.717346 480.45401 510.705994 Z"/>
    <path id="path52" fill="#b3927f" stroke="none" d="M 428.914001 513.489014 C 437.127014 514.228027 445.385986 514.659973 453.612 513.934021 C 454.200989 519.669006 454.68399 525.044983 453.687012 530.77301 C 452.727997 536.283997 451.053986 541.869019 446.255005 545.20697 C 444.936005 545.575989 443.60199 545.940979 442.248993 546.161011 C 436.976013 547.018005 430.22699 546.27301 425.923004 542.888 C 421.756012 539.611023 420.804993 534.926025 420.174011 529.971008 C 422.69401 524.268331 425.60734 518.774333 428.914001 513.489014 Z"/>
    <path id="path53" fill="#fefdfc" stroke="none" d="M 546.994995 321.759033 C 547.742981 322.109009 547.531982 321.928955 548.142029 322.578003 C 556.364014 331.323975 559.820984 362.724976 559.43103 375.182007 C 558.187012 371.018005 556.510986 364.757996 552.781982 362.176025 C 552.094971 361.700012 551.098022 361.346985 550.270996 361.603027 C 548.83197 362.049011 547.966003 363.315002 547.297974 364.587036 C 543.312988 372.171021 544.357971 384.813965 546.698975 392.825012 C 547.46698 395.453979 548.848022 399.004028 551.58197 400.166992 C 552.971008 400.757996 554.325989 400.002991 555.588013 399.442993 L 557.414978 396.947021 C 557.559021 397.153992 557.802979 397.322021 557.843994 397.572021 C 558.189026 399.674011 558.770996 400.72998 560.245972 402.226013 C 561.036987 403.028992 561.656006 403.646973 562.198975 404.651978 C 561.327026 406.257996 556.458008 408.052002 554.734009 408.874023 C 542.705994 398.497986 539.29303 384.067017 538.018982 368.796997 C 537.049011 357.161011 537.534973 338.237 542.752014 327.635986 C 543.830994 325.44104 545.424011 323.609985 546.994995 321.759033 Z"/>
    <path id="path54" fill="#d1c7b1" stroke="none" d="M 504.890991 507.700989 C 505.871002 507.735962 506.502014 508.471008 507.231995 509.098999 C 511.20401 512.515015 518.127991 512.388977 523.21698 513.317993 C 518.984985 522.156982 513.088013 529.359985 507.877014 537.55603 C 503.873993 543.851013 500.959015 550.372009 498.457001 557.383972 C 497.742004 559.744019 497.140991 562.151001 496.48999 564.530029 C 493.980988 563.346008 491.479004 562.434998 488.852997 561.557007 C 489.575012 556.171997 489.713989 550.671021 490.122009 545.252991 C 491.02301 533.301025 492.328003 521.599976 490.619995 509.639038 C 495.381327 509.026326 500.138326 508.38031 504.890991 507.700989 Z"/>
    <path id="path55" fill="#fefdfc" stroke="none" d="M 469.080994 566.572998 C 469.720001 566.508972 470.350006 566.455017 470.992004 566.424988 C 498.346008 565.151978 542.757996 587.596008 562.97998 606.013 C 558.84198 604.18103 554.684021 602.786987 550.375977 601.434021 C 543.051025 599.280029 535.942017 596.244995 528.737 593.700989 C 502.510986 584.442017 478.915009 576.97998 450.842987 575.937012 C 456.420013 571.552979 462.199005 568.325989 469.080994 566.572998 Z"/>
    <path id="path56" fill="#b3927f" stroke="none" d="M 545.901978 405.760986 C 534.914001 397.006958 530.971985 386.64502 529.445007 372.881958 C 527.369019 354.166016 524.562012 327.516968 537.346008 311.959961 C 542.843018 305.27002 551.486023 302.900024 559.807983 302.289001 C 567.052979 301.756958 573.874023 303.766968 579.33197 308.671021 C 590.020996 318.275024 592.526978 335.979004 592.960999 349.504028 C 593.335999 361.155029 591.788025 373.26001 587.372986 384.11499 C 583.062988 395.346985 577.012024 407.31604 566.775024 414.208984 C 564.369019 414.041992 561.942017 413.51001 559.562012 413.109009 C 560.69397 412.672974 561.830994 412.25 562.937012 411.752014 C 574.197998 406.687988 581.838013 393.217041 585.987976 382.247009 C 591.499023 363.980957 592.202026 339.708008 582.888 322.474976 C 579.445007 316.104004 574.213989 310.518005 567.117981 308.325012 C 566.776672 308.221008 566.432678 308.125671 566.085999 308.039001 C 565.739319 307.952332 565.390991 307.874674 565.041016 307.80603 C 564.690348 307.736694 564.338338 307.676351 563.984985 307.625 C 563.631673 307.574341 563.277344 307.532349 562.921997 307.499023 C 562.565999 307.465658 562.209676 307.441325 561.853027 307.426025 C 561.496338 307.410685 561.139323 307.404663 560.781982 307.407959 C 560.425334 307.410645 560.068665 307.422323 559.711975 307.442993 C 559.355326 307.464315 558.999674 307.494303 558.64502 307.532959 C 558.289673 307.571655 557.935669 307.619344 557.583008 307.676025 C 557.230998 307.733317 556.88033 307.798971 556.531006 307.872986 C 556.181681 307.947652 555.834351 308.030986 555.489014 308.122986 C 555.144328 308.215637 554.801982 308.31665 554.461975 308.426025 C 554.122009 308.535319 553.785014 308.65332 553.450989 308.780029 C 553.117004 308.906006 552.786682 309.040649 552.460022 309.18396 C 552.13267 309.327311 551.809326 309.478658 551.48999 309.638 C 551.170003 309.797994 550.854675 309.965658 550.544006 310.140991 C 542.797974 314.516968 536.864014 322.875977 534.690002 331.428955 C 533.08197 337.752991 532.872986 344.528992 532.822998 351.02301 C 532.669006 371.135986 536.099976 388.127014 545.901978 405.760986 Z"/>
    <path id="path57" fill="#d1c7b1" stroke="none" d="M 510.40799 745.025024 C 510.962006 745.549011 510.968994 745.515991 511.493011 746.250977 C 514.775024 750.848999 519.390991 766.481995 518.33197 771.991028 C 516.450989 781.780029 505.901001 791.333008 499.057007 798.099976 C 497.153992 799.981995 495.30899 802.226013 493.066986 803.69397 L 492.679993 802.969971 C 490.959015 786.848999 487.721985 769.393982 482.554993 754.021973 C 485.059998 754.742004 487.739014 755.437012 490.334015 755.744019 C 499.259003 756.801025 504.115997 750.000977 510.40799 745.025024 Z"/>
    <path id="path58" fill="#b3927f" stroke="none" d="M 380.959015 344.421997 L 381.467987 344.528015 C 382.513 346.759033 381.119995 353.894043 380.968994 356.756958 C 373.528015 359.135986 365.863007 360.855957 358.407013 363.276001 C 331.94101 371.865967 303.389008 382.742004 278.397003 394.924011 C 273.804993 397.162964 258.45401 406.132996 254.416 406.838989 C 253.203003 407.049988 251.957001 406.468994 250.781006 406.136963 C 249.990997 405.676025 249.285004 405.166992 248.546997 404.629028 L 248.548004 403.549988 C 251.292007 399.237 259.559998 396.150024 264.074005 393.790039 C 282.466003 384.176025 301.260986 375.112 320.701996 367.797974 L 351.950989 356.302979 C 361.869995 352.713013 371.59201 349.36499 380.959015 344.421997 Z"/>
    <path id="path59" fill="#603e40" stroke="none" d="M 475.790009 753.926025 C 480.378998 759.153015 482.480011 799.940002 482.411011 808.534973 C 473.988007 806.58197 466.609985 802.560974 458.876007 798.802002 C 452.976013 796.025024 447.373993 794.140015 441.040009 792.575012 L 440.93399 786.359985 C 445.337006 783.080017 449.813995 780.132996 453.95401 776.478027 C 461.815002 769.538025 468.535004 761.46698 475.790009 753.926025 Z"/>
    <path id="path60" fill="#fefdfc" stroke="none" d="M 558.27301 313.572998 C 562.414978 313.164001 566.030029 314.151001 569.492004 316.509033 C 577.486023 321.952026 580.494019 332.952026 581.981018 341.980957 C 585.203979 361.55896 582.036987 380.05896 570.414001 396.270996 C 570.143982 396.624349 569.868306 396.973674 569.586975 397.31897 C 568.026001 399.263 566.132996 402.269043 563.471008 402.557983 C 561.062012 400.773987 562.916992 391.393005 563.241028 388.342041 C 565.359009 368.359009 562.734985 333.406982 551.120972 317.098999 C 553.435974 315.785034 555.862 314.697998 558.27301 313.572998 Z"/>
    <path id="path61" fill="#d1c7b1" stroke="none" d="M 288.684998 360.55603 C 277.765015 359.255005 267.190002 356.06604 259.015015 348.317993 C 258.611674 347.942017 258.218333 347.556356 257.834991 347.161011 C 257.450999 346.765015 257.077332 346.35968 256.713989 345.945007 C 256.350667 345.530986 255.998006 345.107646 255.656006 344.674988 C 255.314006 344.242981 254.983002 343.802327 254.662994 343.353027 C 254.342997 342.904338 254.034668 342.447673 253.738007 341.983032 C 253.441335 341.518351 253.156331 341.046672 252.882996 340.567993 C 252.60967 340.089315 252.348674 339.603984 252.100006 339.112 C 251.852 338.620015 251.615997 338.12203 251.391998 337.618042 C 251.168671 337.114014 250.958003 336.605001 250.759995 336.091003 C 250.561996 335.576314 250.37733 335.056966 250.205994 334.532959 C 250.033997 334.008993 249.875666 333.481344 249.731003 332.950012 C 249.585668 332.417989 249.454 331.88265 249.335999 331.343994 C 249.217336 330.80599 249.112671 330.264994 249.022003 329.721008 C 248.931335 329.177673 248.853999 328.631999 248.789993 328.083984 C 248.726669 327.536662 248.677338 326.987996 248.641998 326.437988 C 248.605998 325.888021 248.584 325.337362 248.576004 324.786011 C 248.483002 318.484985 250.278 307.932983 254.914993 303.505005 C 258.431 300.146973 263.997009 299.408997 268.666992 299.588989 C 282.152008 300.109009 303.01001 308.506958 312.203003 318.447998 C 309.984009 322.776978 307.154999 326.877014 304.572998 331 C 297.708008 323.228027 289.276001 317.005005 278.539001 316.393005 C 274.88501 316.184998 270.808014 316.631958 268.088013 319.341003 C 264.993011 322.422974 264.923004 325.875 265.026001 329.924988 C 264.972992 332.455994 265.352997 334.525024 267.117004 336.471008 C 268.292999 337.768005 271.489014 340.091003 271.932007 341.677979 C 272.256989 342.325989 272.513 342.821045 273.027008 343.346985 C 274.64801 345.004028 286.747986 343.257996 289.70401 343.372009 C 292.020996 343.459961 293.549988 343.60199 295.152008 345.369019 C 295.891998 348.869995 290.453003 357.015991 288.684998 360.55603 Z"/>
    <path id="path62" fill="#b3927f" stroke="none" d="M 551.874023 613.473022 C 556.664978 614.820984 561.721985 615.510986 566.567017 616.78302 C 562.859009 623.68103 558.687988 630.333008 554.801025 637.133972 L 523.971008 690.591003 C 513.447998 708.541016 502.699005 726.392029 493.332001 744.981995 L 492.362 746.44397 C 489.64801 747.770996 483.569 745.866028 480.584015 745.27301 C 485.721985 733.666016 492.352997 722.445984 498.388 711.278992 L 536.765991 641.867981 C 540.64502 634.862976 550.424988 620.565979 551.874023 613.473022 Z"/>
    <path id="path63" fill="#b3927f" stroke="none" d="M 226.781998 908.940979 C 226.985001 899.028992 227.097 889.072998 227.645004 879.174988 C 229.985001 887.039978 231.854996 896.026001 238.794998 901.244995 C 241.417007 903.218018 244.563004 904.643982 247.339005 906.411011 C 249.533005 907.807007 251.518005 909.528992 253.712006 910.961975 C 255.610001 909.869019 257.083008 908.322021 258.822998 907.018982 C 262.993988 903.896973 267.907013 902.627991 273.044006 902.528015 L 273.832001 903.903015 C 273.65799 904.033997 273.48999 904.172974 273.311005 904.296021 C 270.839996 905.992004 269.373993 905.340027 268.605988 908.718018 L 269.031006 909.187012 L 269.505005 908.781982 L 270.178986 913.599976 L 270.446991 914.799988 C 270.716003 914.966003 270.946991 915.224976 271.253998 915.296997 C 271.748993 915.413025 280.843994 909.705017 283.73999 908.809021 C 292.88501 905.97998 302.319 907.55603 311.671997 907.114014 L 312.268005 907.080994 C 319.381012 913.747009 324.497009 920.810974 328.44101 929.736023 C 325.424988 930.870972 322.408997 931.776978 319.252014 932.432007 C 285.993988 939.323975 254.050003 927.004028 226.781998 908.940979 Z"/>
    <path id="path64" fill="#b3927f" stroke="none" d="M 402.632996 869.560974 C 407.889008 869.617004 412.841003 869.218018 418.01001 868.192017 C 421.421997 867.515015 429.394989 864.906982 432.234009 865.065979 C 432.653015 865.090027 432.98999 865.432007 433.368011 865.61499 L 433.690002 865.031982 L 433.678009 865.674011 C 431.665009 867.440002 428.316986 866.859985 425.993988 868.124023 C 424.694 868.830994 424.615997 869.250977 424.144989 870.554993 C 424.421997 873.390991 426.570007 875.528015 428.264008 877.703979 C 427.282013 879.242981 426.203003 880.916992 426.083008 882.77002 L 426.628998 883.179993 L 428.153015 882.435974 L 429.739014 884.593994 L 430.89801 885.734985 C 435.562012 886.137024 438.60199 878.047974 443.313995 877.02002 C 448.455994 875.896973 456.369995 882.890991 460.781006 885.356995 C 462.233002 881.255981 463.792999 876.684021 466.429993 873.187988 C 468.911011 869.901001 472.220001 868.010986 476.304993 867.478027 C 488.755005 865.854004 500.434998 873.138 509.807007 880.416016 C 478.304993 893.572998 444.023987 902.836975 409.661011 901.445007 C 407.959991 890.5 405.867004 880.177002 402.632996 869.560974 Z"/>
    <path id="path65" fill="#d1c7b1" stroke="none" d="M 433.563995 789.960022 C 433.789001 790.155029 434.069 790.301025 434.239014 790.544983 C 434.591003 791.049988 435.417999 799.78302 435.584991 800.929993 C 436.949005 810.322021 439.169006 819.593994 440.925995 828.921997 C 425.411987 839.015991 408.457001 842.494995 390.273987 843.36499 C 386.955994 830.230998 384.311666 816.962667 382.341003 803.559998 C 400.283997 802.372986 417.519012 798.192017 433.563995 789.960022 Z"/>
    <path id="path66" fill="#b3927f" stroke="none" d="M 619.875977 569.028992 C 619.091003 573.453003 615.473999 579.228027 613.452026 583.247009 C 597.960999 614.039978 578.536011 642.187012 560.883972 671.698975 C 553.627991 683.83197 548.062988 697.317017 539.245972 708.442993 C 530.41803 719.583984 515.517029 730.744019 504.811005 740.461975 C 504.877014 738.171997 571.164978 623.002014 577.630981 614.567017 C 581.588989 609.403992 586.848022 604.861023 591.317993 600.109985 C 600.908997 589.916016 610.695984 579.580017 619.875977 569.028992 Z"/>
    <path id="path67" fill="#fefdfc" stroke="none" d="M 384.278015 738.752991 C 402.143005 743.281982 421.399994 745.119019 439.674988 747.328003 C 447.804993 748.310974 456.325012 748.89801 464.272003 750.828979 C 456.915985 760.856018 447.928986 767.927002 437.730011 774.820984 C 421.812988 785.375977 395.67099 794.190979 376.32901 792.161011 C 376.524994 774.377991 379.884003 755.963013 384.278015 738.752991 Z"/>
    <path id="path68" fill="#b3927f" stroke="none" d="M 393.994995 629.166016 C 394.476013 629.200012 394.957001 629.231018 395.437012 629.283997 C 397.330994 629.495972 399.315002 630.143982 400.390991 631.846985 C 402.575012 635.304993 398.973999 640.924011 398.257996 644.552002 C 398.528992 645.76001 398.858002 646.61499 399.779999 647.486023 C 400.940002 648.58197 403.253998 650.310974 404.747009 650.744995 C 412.690002 653.05603 424.269012 648.122009 432.626007 648.383972 C 434.882996 648.455017 437.761993 648.776978 439.312988 650.622986 C 439.993011 651.432007 440.252014 652.374023 440.075012 653.442993 C 439.558014 656.572998 436.656006 660.192993 434.195007 662.05603 C 419.325012 673.314026 399.160004 671.026978 381.890991 668.828979 C 382.019989 669.018005 382.151001 669.205994 382.278992 669.396973 C 383.277008 670.895996 384.213989 672.427979 385.542999 673.666992 C 394.822998 682.317993 411.55899 680.809998 422.734985 677.252014 C 426.106995 676.179016 431.02301 673.36499 434.531006 673.504028 C 435.338989 673.536011 435.319 673.846008 435.763 674.426025 C 436.031006 676.697998 434.670013 679.55603 433.431 681.403992 C 427.796997 689.802002 414.94101 692.203979 405.675995 693.843994 C 400.678009 694.432983 395.894012 694.598022 390.93399 693.572021 C 387.617004 692.887024 380.157013 689.325012 377.385986 690.421021 L 377.337006 691.301025 C 378.567993 693.893982 381.109985 696.083008 383.488007 697.61499 C 394.766998 704.877991 406.287994 702.716003 418.558014 699.96698 L 418.178009 700.416992 L 417.535004 701.159973 C 413.80899 705.518005 409.515015 708.09198 403.799988 709.054993 C 391.330994 711.156006 377.507996 705.494995 367.493988 698.435974 C 361.431 694.161011 357.389008 689.096985 356.205994 681.551025 C 354.496002 670.64801 361.604004 657.05603 367.855011 648.520996 C 373.460999 640.866028 384.265015 630.659973 393.994995 629.166016 Z"/>
    <path id="path69" fill="#d1c7b1" stroke="none" d="M 315.906006 512.255005 C 327.533997 521.916016 341.437988 540.458984 349.380005 553.40802 C 352.802002 558.987976 355.897003 567.012024 360.447998 571.541016 C 361.627991 571.820984 362.484009 572.002991 363.684998 571.585022 C 373.756989 568.080017 391.35199 531.823975 396.21701 521.33197 C 397.158997 536.838989 399.462006 552.27301 400.244995 567.786987 C 401.173004 586.210022 400.699005 604.619995 401.786987 623.057007 C 400.368988 622.408997 399.091003 621.724976 397.764008 620.905029 C 397.532013 619.906006 397.48999 620.281006 397.730011 619.353027 C 398.989014 614.46698 397.998993 609.817017 397.406006 604.883972 C 396.749329 600.572001 395.872325 596.305339 394.774994 592.083984 C 393.477997 587.187988 385.985992 564.330994 381.134003 562.489014 C 379.916992 562.026978 379.347992 562.260986 378.30899 562.801025 C 377.528992 564.283997 377.804993 565.752991 378.200989 567.31897 C 379.42099 572.14801 381.940002 576.676025 383.526001 581.403992 C 386.667999 590.77301 391.044006 609.403015 392.074005 619.179993 C 392.192993 620.304993 392.194 620.208008 391.484009 621.086975 C 388.523987 621.013977 381.113007 612.771973 378.013 610.52002 C 364.912994 601.008972 349.421997 595.041992 334.516998 589.020996 C 334.662994 583.648987 334.652008 577.932007 333.140991 572.729004 C 330.480011 563.562988 323.868988 556.929016 315.765991 552.346008 C 316.020996 538.974976 315.621002 525.619995 315.906006 512.255005 Z"/>
    <path id="path70" fill="#d1c7b1" stroke="none" d="M 98.944901 711.697021 C 103.75 715.322021 108.336998 721.836975 112.794998 726.184998 C 121.908997 735.075012 131.882996 743.539001 142.016998 751.252991 C 172.638 774.559021 206.307999 791.549988 241.865997 805.869019 C 262.595001 814.216003 283.516998 821.536987 305.259003 826.799988 C 325.210999 831.629028 345.351013 834.663025 365.700989 837.132019 C 366.531006 844.122986 367.453003 851.015991 369.31601 857.820007 C 369.812988 859.635986 372.19101 866.007019 371.494995 867.385986 L 369.881012 867.354004 C 358.944 866.232971 348.022003 865.577026 337.118988 864.04303 C 327.494995 862.690002 317.786011 860.525024 308.316986 858.312988 C 294.278992 855.033997 281.078003 849.630005 267.462006 845.03302 C 251.313004 839.580017 235.210007 834.252991 219.501007 827.580994 C 174.416 808.432007 128.391998 779.06897 95.935097 742.05603 C 97.1278 731.958984 97.592697 721.791992 98.944901 711.697021 Z"/>
    <path id="path71" fill="#d1c7b1" stroke="none" d="M 181.654999 397.752991 C 194.850006 399.167969 208.770004 403.658997 221.419998 407.678955 C 264.61499 421.406006 306.585999 439.329956 343.511993 465.926025 C 350.890015 471.23999 358.253998 476.672974 365.112 482.651978 C 374.558014 490.885986 383.371002 499.865967 392.717987 508.224976 C 385.803986 522.328979 379.03299 536.211975 371.307007 549.913025 L 364.138 561.888977 C 361.080994 556.445984 357.973999 550.991028 354.523987 545.784973 C 346.009003 532.937012 336.401001 520.562012 325.462006 509.678955 C 287.231995 471.646973 224.800003 438.075989 172.095993 427.325989 C 173.643997 418.217041 176.677994 405.497009 181.654999 397.752991 Z"/>
    <path id="path72" fill="#b3927f" stroke="none" d="M 438.01001 588.304016 C 452.296997 591.867981 467.963989 593.734009 482.63501 597.049988 C 494.036011 599.627014 505.493988 602.189026 516.807007 605.127014 C 525.994019 607.512024 534.986023 610.304016 544.286011 612.27301 C 539.851013 621.741028 533.926025 631.041016 528.802002 640.187012 L 502.593994 687.458984 C 496.604655 698.360311 490.704987 709.309977 484.894989 720.307983 C 480.76001 728.143005 476.803009 736.153015 472.061005 743.643982 C 465.845001 742.689311 459.619334 741.801982 453.384003 740.981995 C 430.302002 737.520996 407.158997 734.799011 384.096985 731.067993 C 385.084991 726.97699 386.290985 722.913025 387.389008 718.848022 C 396.47699 720.120972 408.424988 719.991028 416.341003 714.73999 C 422.316986 710.775024 425.277008 704.554016 426.75 697.780029 C 432.708008 695.156982 438.001007 691.633972 441.68399 686.130981 C 446.375 679.122009 445.638 672.763 444.130005 664.971985 C 447.057007 660.39502 448.036011 656.031006 447.165985 650.596008 C 446.648987 647.367004 445.425995 644.612 442.683014 642.685974 C 435.174988 637.413025 420.061005 642.078003 411.444 643.617004 C 418.578003 624.312012 428.522003 606.518982 438.01001 588.304016 Z"/>
    <path id="path73" fill="#b3927f" stroke="none" d="M 439.872986 286.186035 C 439.992004 286.161011 440.109985 286.127014 440.230988 286.109985 C 451.834991 284.506958 465.96701 287.572998 475.126007 295.044006 C 490.743011 307.786011 498.372009 328.963013 500.213013 348.436035 C 502.096985 368.363037 501.436005 395.389038 487.867004 411.419006 C 479.009003 421.884033 463.796997 426.296997 450.622986 427.321045 C 438.727997 427.984009 424.701996 424.229004 415.040985 417.157959 C 401.147003 406.989014 392.562012 388.968994 390.156006 372.264038 C 386.851013 349.313965 392.160004 324.237 406.365997 305.630981 C 414.864014 294.499023 426.010986 287.984985 439.872986 286.186035 Z"/>
    <path id="path74" fill="#562c3a" stroke="none" d="M 440.273987 296.157959 C 452.928009 294.903992 464.873993 297.041016 474.902008 305.283997 C 487.984009 316.037964 493.539001 333.60498 495.104004 349.912964 C 496.726013 366.821045 496.651001 391.817017 485.200989 405.421021 C 476.612 415.625 465.140015 419.907959 452.17099 421.000977 C 439.526001 421.009033 428.195007 418.325012 417.852997 410.801025 C 405.455994 401.781006 398.473999 386.848022 396.187988 371.966003 C 393.217987 352.627991 397.098999 332.905029 408.821014 317.141968 C 417.115997 305.988037 426.200989 298.223022 440.273987 296.157959 Z"/>
    <path id="path75" fill="#fefdfc" stroke="none" d="M 441.783997 302.119995 C 442.475993 302.061971 443.16866 302.009969 443.862 301.963989 C 453.602997 301.330994 462.588013 304.264038 469.903992 310.791016 C 481.662994 321.281006 486.046997 338.671997 486.877014 353.837036 C 487.575012 366.587036 488.863007 394.338013 479.673004 404.13501 C 472.446014 411.838013 460.328003 415.176025 450.089996 415.427979 C 440.734985 414.119995 431.910004 411.773987 424.002991 406.398987 C 412.723999 398.731995 407.049011 384.469971 404.716003 371.504028 C 401.641998 354.411011 403.941986 335.01001 414.113007 320.552979 C 420.854004 310.971985 430.105011 304.083984 441.783997 302.119995 Z"/>
    <path id="path76" fill="#562c3a" stroke="none" d="M 460.803009 356.44104 C 463.764008 357.015015 465.661011 357.966003 467.490997 360.437988 C 472.355011 367.01001 471.77301 379.337036 470.385986 387.010986 C 469.269989 393.190002 467.06601 399.768005 461.688995 403.463013 C 460.542999 403.562012 459.312988 403.593018 458.204987 403.22998 C 456.200989 402.573975 454.920013 400.561035 454.10199 398.742004 C 449.911987 389.43103 450.384003 371.570007 454.410004 362.223999 C 455.881012 358.807007 457.390991 357.718994 460.803009 356.44104 Z"/>
    <path id="path77" fill="#fefdfc" stroke="none" d="M 464.727997 235.739014 C 478.005005 235.414001 491.575989 236.14502 503.993988 241.27301 C 528.242981 251.286987 538.916016 273.94104 548.471008 296.676025 C 544.736023 298.153015 541.22699 299.929993 538.005981 302.346985 C 524.500977 312.476013 522.689026 330.006958 520.382996 345.484009 C 515.437988 344.322998 510.571014 344.421021 505.535004 344.440002 C 504.997009 337.809998 503.954987 331.610962 501.765015 325.311035 C 495.959991 308.615967 485.640015 292.375977 469.27301 284.549988 C 455.411987 277.922974 439.065002 277.700989 424.68399 282.924988 C 406.658997 289.471985 396.51001 304.061035 388.703003 320.870972 C 385.945007 326.823975 384.333008 333.424988 382.492004 339.705994 C 351.203003 349.071045 320.519989 359.620972 290.622986 372.796021 C 302.713989 346.407959 319.597992 316.014038 339.209015 294.35199 C 340.210337 293.262024 341.224996 292.184367 342.252991 291.119019 C 343.281006 290.053019 344.322011 289 345.376007 287.959961 C 346.430003 286.920003 347.496338 285.893351 348.575012 284.880005 C 349.653666 283.866007 350.744659 282.865336 351.847992 281.877991 C 352.951324 280.890645 354.066325 279.916992 355.192993 278.957031 C 356.320333 277.996989 357.459005 277.050659 358.609009 276.118042 C 359.759013 275.185994 360.920339 274.267985 362.092987 273.364014 C 363.265656 272.460002 364.448995 271.570679 365.643005 270.696045 C 366.837667 269.820679 368.042664 268.960327 369.257996 268.11499 C 370.472656 267.269653 371.697988 266.439331 372.93399 265.624023 C 374.169322 264.808024 375.414663 264.007345 376.670013 263.221985 C 377.925344 262.437358 379.190002 261.667684 380.463989 260.912964 C 381.737325 260.158976 383.019999 259.420329 384.312012 258.697021 C 385.604004 257.974365 386.904663 257.267354 388.213989 256.575989 C 389.523336 255.884664 390.841003 255.209676 392.166992 254.551025 C 393.49233 253.891683 394.825999 253.249003 396.167999 252.622986 C 397.509328 251.996318 398.857992 251.386312 400.213989 250.792969 C 401.570658 250.199666 402.93399 249.623006 404.303986 249.062988 C 405.674652 248.502319 407.051992 247.958984 408.436005 247.432983 C 409.819326 246.906331 411.208995 246.396667 412.605011 245.903992 C 414.001678 245.411316 415.403676 244.935994 416.811005 244.478027 C 418.219004 244.019328 419.632334 243.578328 421.050995 243.155029 C 422.469655 242.730998 423.892995 242.32432 425.321014 241.934998 C 426.749664 241.546326 428.182658 241.174988 429.619995 240.820984 C 431.058004 240.46698 432.499674 240.130656 433.945007 239.812012 C 435.391012 239.492676 436.840678 239.191345 438.294006 238.90802 C 439.746663 238.624695 441.202993 238.359355 442.662994 238.112 C 444.122325 237.863993 445.584656 237.633993 447.049988 237.421997 C 448.51532 237.210002 449.982992 237.015666 451.453003 236.838989 C 452.922994 236.663005 454.394663 236.504679 455.868011 236.364014 C 457.34201 236.223999 458.817342 236.10199 460.294006 235.997986 C 461.771342 235.893331 463.249339 235.807007 464.727997 235.739014 Z"/>
    <path id="path78" fill="#562c3a" stroke="none" d="M 433.31601 259.207031 C 436.820007 258.854004 440.665985 259.13501 444.148987 259.622009 C 445.618011 259.827026 446.89801 259.993042 447.824005 261.204956 C 445.292999 262.447021 439.94101 262.218994 436.989014 262.598999 C 431.085999 263.356995 425.419006 265.026978 419.757996 266.821045 L 406.593994 270.778992 C 414.536987 263.630005 422.626007 260.192993 433.31601 259.207031 Z"/>
    <path id="path79" fill="#fefdfc" stroke="none" d="M 380.993011 363.045044 C 381.231995 363.257996 381.536987 363.415039 381.709991 363.68396 C 382.088989 364.275024 382.226013 373.369019 382.424011 374.875977 C 384.272003 388.921997 390.238007 401.533997 399.248993 412.412964 C 409.890991 425.261963 425.002014 432.369019 441.498993 433.859009 C 457.667999 435.31897 474.006012 431.674011 486.649994 421.014038 C 502.881012 407.329956 505.255005 388.135986 507.075012 368.200989 C 511.449687 367.806335 515.831014 367.515666 520.218994 367.328979 C 521.624023 381.976013 525.034973 395.769043 536.000977 406.229004 C 548.486023 418.138 566.468994 424.552002 583.552979 424.075989 C 582.921997 427.77301 582.609009 431.696045 583.250977 435.405029 C 584.56897 443.021973 589.218018 448.880981 595.445984 453.127991 C 578.012024 468.109009 558.875 479.547974 537.622986 488.230957 C 535.434347 489.082316 533.23468 489.904012 531.023987 490.696045 C 528.813334 491.488688 526.592346 492.251343 524.361023 492.984009 C 522.129659 493.716675 519.888977 494.419006 517.638977 495.091003 C 515.388977 495.763652 513.13032 496.405986 510.863007 497.018005 C 508.596344 497.629333 506.32134 498.210653 504.037994 498.761963 C 501.755341 499.312663 499.465678 499.832357 497.169006 500.321045 C 494.871663 500.810343 492.568665 501.268677 490.26001 501.696045 C 487.950663 502.123372 485.635997 502.519694 483.31601 502.88501 C 480.996674 503.250326 478.672333 503.58431 476.342987 503.886963 C 474.014333 504.190348 471.682007 504.462036 469.346008 504.702026 C 467.01001 504.942017 464.671336 505.150675 462.329987 505.328003 C 459.987986 505.50533 457.644328 505.651326 455.299011 505.765991 C 452.953003 505.880656 450.606333 505.963664 448.259003 506.015015 C 445.911001 506.066366 443.562998 506.086365 441.214996 506.075012 C 438.866323 506.063009 436.518321 506.019674 434.17099 505.945007 C 431.824331 505.870341 429.478668 505.764343 427.134003 505.627014 C 417.674011 505.026978 408.207001 503.412964 398.769989 502.410034 C 374.528015 477.723999 347.571014 455.10498 317.441986 437.915039 C 303.536987 429.980957 288.733002 423.18396 274.13501 416.627991 C 275.925008 411.514018 277.78301 406.424683 279.709015 401.359985 C 288.834991 396.197021 299.394012 392.619995 309.156006 388.752991 C 332.74467 379.18634 356.690338 370.617025 380.993011 363.045044 Z"/>
    <path id="path80" fill="#562c3a" stroke="none" d="M 398.140991 443.629028 C 399.468994 443.47699 400.850006 443.27301 402.187012 443.323975 C 404.341003 443.406006 405.772003 444.355957 407.13501 445.942017 C 407.27301 446.700012 407.520996 447.052979 407.092987 447.765015 C 405.390991 450.599976 394.569 453.036011 391.174988 454.094971 C 397.877014 460.853027 404.895996 467.036987 413.660004 470.97699 C 416.138662 472.091654 418.68399 473.023661 421.29599 473.77301 C 423.90799 474.52301 426.560323 475.082336 429.252991 475.450989 C 434.006989 476.075012 449.407013 474.546997 451.885986 476.761963 C 450.718994 478.924988 447.477997 480.22998 445.348999 481.217041 C 444.348328 481.494344 443.340332 481.740316 442.325012 481.954956 C 441.309001 482.169637 440.287333 482.352315 439.26001 482.502991 C 438.233337 482.653666 437.202667 482.772339 436.167999 482.859009 C 435.133331 482.945679 434.096995 482.999674 433.05899 483.020996 C 432.021006 483.042969 430.983348 483.032633 429.946014 482.98999 C 428.908681 482.946655 427.873678 482.871338 426.841003 482.764038 C 425.809001 482.656698 424.780996 482.517354 423.756989 482.346008 C 422.733002 482.174662 421.715342 481.971313 420.70401 481.735962 C 419.782664 481.522664 418.866994 481.286682 417.957001 481.028015 C 417.047658 480.769348 416.144989 480.488342 415.248993 480.184998 C 414.352997 479.882304 413.465332 479.557292 412.585999 479.209961 C 411.705994 478.86263 410.835327 478.493978 409.973999 478.104004 C 409.112671 477.713338 408.261342 477.302002 407.420013 476.869995 C 406.578664 476.437337 405.748657 475.984334 404.929993 475.510986 C 404.111328 475.037679 403.304667 474.544352 402.51001 474.031006 C 401.716003 473.51766 400.934998 472.984985 400.166992 472.432983 C 399.399007 471.880981 398.645009 471.310649 397.904999 470.721985 C 397.16566 470.13267 396.440989 469.52535 395.730988 468.900024 C 395.020986 468.27535 394.326986 467.633016 393.648987 466.973022 C 392.971659 466.31368 392.310659 465.638021 391.665985 464.946045 C 391.021332 464.253988 390.394338 463.546305 389.785004 462.822998 C 389.174998 462.099691 388.583659 461.36202 388.010986 460.609985 C 387.437663 459.8573 386.883667 459.091309 386.348999 458.312012 C 385.81366 457.531982 385.297994 456.739299 384.802002 455.93396 C 382.928009 456.657959 380.658997 457.744019 378.615997 457.192017 C 377.847992 456.984985 377.868011 456.703979 377.483002 456.083984 C 377.593994 455.025024 377.834991 454.328003 378.428986 453.457031 C 382.536987 447.438965 391.338989 444.864014 398.140991 443.629028 Z"/>
    <path id="path81" fill="#d1c7b1" stroke="none" d="M 188.395996 441.377014 C 194.690002 442.648987 201.188995 445.360962 207.171997 447.707031 C 236.826004 459.334961 284.660004 484.278015 307.622986 506.079956 C 307.376007 521.603027 307.325989 537.195007 305.904999 552.669006 C 299.571991 551.383972 292.842987 550.880981 286.40799 551.598022 C 274.604004 552.913025 262.537994 557.684021 254.977005 567.122009 C 264.277008 561.296997 276.213013 558.013 287.152008 557.591003 C 297.722992 557.184021 312.191986 560.859009 319.924988 568.452026 C 324.335999 572.78302 323.959991 579.825012 324.041992 585.534973 C 322.783325 585.310323 321.519328 585.120341 320.25 584.965027 C 309.391998 583.705994 297.510986 586.051025 288.856995 592.895996 C 302.697998 591.809021 317.175995 588.69397 330.059998 595.929993 L 330.009003 596.396973 L 327.415009 596.796021 L 327.459991 597.075012 C 344.143005 603.179993 361.981995 609.676025 376.493011 620.075989 C 375.30368 620.059347 374.114675 620.076681 372.925995 620.127991 C 362.661987 620.619995 352.919006 627.413025 346.209991 634.770996 C 331.875 650.492004 326.489014 672.346985 327.559998 693.146973 C 309.55899 686.023987 293.967987 674.929016 279.306 662.463989 C 243.509003 632.028992 225.369003 591.65802 219.406998 545.646973 C 217.524002 531.116028 217.270996 516.375977 216.102005 501.765015 C 206.362 519.945984 210.274994 545.598999 213.513 565.192017 C 204.270004 552.689026 199.119003 537.552979 194.416 522.924011 C 194.192001 542.353027 201.470993 559.060974 213.25 574.250977 C 217.567001 580.093994 219.811005 594.953979 222.481003 602.476013 C 225.837997 611.93103 230.654007 621.140991 235.947998 629.663025 C 257.528992 664.408997 296.575989 694.653015 335.003998 707.935974 C 338.837006 709.260986 342.796997 711.344971 346.734985 712.164001 C 351.910004 713.23999 356.618011 708.741028 360.709015 706.075012 C 366.855988 709.901978 372.975006 714 379.476013 717.192993 C 377.354004 726.711975 374.358002 736.008972 372.488007 745.599976 C 367.131989 773.065979 365.321014 801.835022 365.585999 829.775024 C 356.049988 829.103027 346.390991 826.93103 336.983002 825.237976 C 271.682007 813.484009 203.602005 785.5 149.563004 746.882019 C 138.494003 738.971985 127.387001 730.349976 117.139999 721.416992 C 111.296997 716.322021 105.988998 710.153992 99.801102 705.531982 C 99.663002 705.429016 99.522499 705.330017 99.383202 705.228027 C 102.283997 686.929016 104.664001 668.710022 108.200996 650.497986 C 120.165001 588.903015 139.940994 527.481018 170.451996 472.511963 C 176.231003 462.101013 181.488007 451.089966 188.395996 441.377014 Z"/>
    <path id="path82" fill="#562c3a" stroke="none" d="M 282.747009 692.047974 C 283.634003 692.075012 284.161987 692.257996 284.990997 692.544983 C 285.707001 693.200989 286.14801 693.752991 286.445007 694.676025 C 287.90799 699.239014 286.665009 706.450012 284.477997 710.570007 C 262.968994 722.164978 241.190002 730.95697 216.466003 732.072998 C 209.121994 732.403992 202.091003 732.328979 194.994995 730.278015 C 194.126007 729.861023 193.225006 729.369019 192.498993 728.729004 C 188.589005 725.281006 188.878006 717.651978 188.602997 712.830017 C 196.367996 711.354004 204.195007 710.799988 212.018005 709.775024 C 220.811005 708.622986 229.667999 706.939026 238.322998 705.013 C 246.705668 703.118998 254.995331 700.879659 263.191986 698.294983 C 269.475006 696.265991 275.751007 693.778992 282.151001 692.190979 L 282.747009 692.047974 Z"/>
    <path id="path83" fill="#d1c7b1" stroke="none" d="M 282.032013 696.549011 C 282.545013 697.086975 282.406006 705.138977 282.513 706.655029 C 273.84201 709.583008 265.436005 713.23999 256.785004 716.22699 C 237.119003 723.018005 215.688995 726.846985 194.876999 726.073975 C 193.542007 723.000977 193.242004 719.588013 192.740997 716.301025 C 223.044006 718.036987 254.906998 709.780029 282.032013 696.549011 Z"/>
    <path id="path84" fill="#d1c7b1" stroke="none" d="M 326.891998 94.499512 C 335.713013 94.756287 346.377991 98.110596 354.804993 100.661011 C 381.231995 108.656982 405.734009 118.320984 428.842987 133.651001 C 439.054993 140.426025 447.895996 149.10498 458.334015 155.559998 C 456.584015 140.479004 446.29599 127.440002 437.496002 115.59198 C 434.093994 111.012024 430.791992 106.28302 426.968994 102.042969 C 458.615997 116.583984 481.360992 137.916992 503.68399 164.010986 C 508.121002 169.197021 512.877014 174.104004 516.93103 179.60498 C 517.192017 170.445984 516.369995 162.033997 513.869019 153.207031 C 530.432007 173.223999 534.666992 190.202026 538.612 215.203003 C 539.518005 220.948975 539.992004 226.815002 541.252014 232.494019 L 541.392029 233.10199 C 544.383972 226.276001 546.942993 219.223999 549.781982 212.325989 C 550.763 225.832031 552.052979 241.085022 549.445007 254.388 C 548.544006 258.985962 546.947998 263.497009 545.517029 267.954956 C 539.869995 257.921021 531.47998 247.161011 521.992004 240.515015 C 499.747009 224.934998 467.399994 225.247009 441.601013 230.031982 C 392.173004 239.200989 345.145996 269.625977 316.786011 311.151001 C 303.786011 301.572021 289.588989 293.386963 273.278992 291.281006 C 265.390015 290.263 256.602997 291.013 250.205002 296.202026 C 243.563995 301.585999 241.330002 310.838013 240.382996 318.959961 C 239.145004 329.582031 240.705002 340.088989 247.544006 348.625977 C 256.894989 360.302002 270.571991 365.802002 285.074005 367.368042 C 283.447998 370.5 282.105011 373.815002 280.678986 377.045044 C 274.166992 381.401001 266.277008 384.463013 259.365997 388.217041 C 251.505997 392.485962 243.955002 397.536987 236.369995 402.280029 C 227.852997 399.075989 182.468002 385.687988 176.134995 386.686035 C 171.141006 391.028015 168.705994 402.224976 166.759003 408.47699 C 165.542999 412.38501 159.585999 429.364014 161.804001 432.911011 C 164.082001 436.553955 171.432007 437.390991 175.389999 438.322021 C 172.239995 443.547363 169.170329 448.81901 166.181 454.136963 C 163.191671 459.455648 160.283335 464.818319 157.455994 470.224976 C 154.629333 475.631632 151.885335 481.079976 149.223999 486.570007 C 146.562663 492.059998 143.985331 497.589315 141.492004 503.157959 C 138.998006 508.725993 136.58934 514.330668 134.266006 519.971985 C 131.942673 525.613342 129.705338 531.288676 127.554001 536.997986 C 125.403336 542.707336 123.339335 548.447998 121.362 554.219971 C 119.385335 559.991984 117.496668 565.792664 115.695999 571.622009 C 106.054001 574.994995 96.934799 580.393005 87.7229 584.804016 C 89.126602 572.047974 91.489304 558.60199 95.1129 546.278015 C 97.904404 536.783997 101.471001 527.447021 104.476997 518.002991 C 104.535004 517.047974 104.444 516.224976 104.335999 515.278015 C 103.619003 514.328003 103.32 513.784973 102.057999 513.539001 C 95.788498 512.320007 74.374901 528.492004 68.511803 532.520996 C 70.442101 523.93103 72.480301 515.107971 75.257103 506.757996 C 77.598396 499.718018 80.752701 492.907959 83.566399 486.046021 C 87.172997 477.249023 90.591003 468.309998 94.509102 459.650024 C 96.191299 455.932983 102.360001 446.898987 101.258003 443.355957 C 100.885002 442.157959 100.073997 441.341003 98.912102 440.894043 C 95.749397 439.676025 59.389 459.682983 53.469501 463.053955 C 62.158001 439.813965 76.6026 414.776978 91.062897 394.63501 C 94.866831 389.332357 98.752866 384.090352 102.721001 378.908997 C 104.974998 376.007996 108.149002 372.936035 109.815002 369.697021 C 110.503998 368.358032 110.808998 367.093994 110.272003 365.629028 C 109.980003 364.828979 109.518997 364.407959 108.689003 364.130981 C 102.084 361.928955 63.702499 380.276001 56.047798 383.980957 C 66.932503 359.557007 96.7342 327.110962 116.572998 309.546021 C 121.719002 304.98999 134.996994 296.420044 138.255997 292.655029 C 139.052994 291.734009 139.070999 291.593018 138.942993 290.454956 C 138.496002 289.959961 138.466003 289.872009 137.835007 289.463989 C 131.496994 285.363037 84.460297 295.070007 75.727402 297.002014 C 99.541901 280.719971 122.832001 263.290039 148.675003 250.292969 C 154.492004 247.367004 160.388 244.646973 166.589996 242.622986 C 171.289993 241.088989 177.869003 240.393005 182.026993 237.932007 C 183.024002 237.34198 183.089996 237.15802 183.352005 236.10498 C 183.042999 235.140991 182.807007 234.619995 182.059998 233.895996 C 175.496994 227.533997 133.845993 226.978027 123.693001 227.302002 C 114.962997 227.580994 106.142998 228.514038 97.454498 229.424988 C 107.736 224.502991 118.486 220.749023 129.128998 216.708008 C 160.699997 204.721008 187.623001 195.992981 221.179993 190.530029 C 223.248993 190.192993 224.576996 189.80603 225.852997 188.007996 C 225.895996 187.182983 226.078003 187.015015 225.533997 186.322998 C 223.048996 183.162964 215.798996 181.302002 211.994995 179.963013 C 194.186996 173.692017 177.548996 168.242004 158.582993 166.789978 C 178.539001 160.110962 198.283997 157.200012 219.134003 154.763 C 233.852005 153.041992 248.628006 151.583008 263.46701 151.77002 C 270.612 151.859009 277.848999 152.302002 284.968994 152.882996 C 288.244995 153.150024 292.803986 154.679993 295.928986 154.035034 C 297.303986 153.752014 297.480011 153.563965 298.265991 152.510986 C 298.306 151.877991 298.350006 151.809998 298.181 151.110962 C 297.613007 148.747986 293.763 145.953003 291.968994 144.427002 C 277.915985 132.469971 263.815002 126.214966 247.623993 118.254028 C 282.481995 118.203003 318.222992 122.421997 350.747009 135.609009 C 363.109009 140.622009 374.721985 147.492981 387.212006 152.091003 C 377.144012 125.609985 350.446014 108.073975 326.891998 94.499512 Z"/>
    <path id="path85" fill="#562c3a" stroke="none" d="M 475.510986 166.275024 C 477.609985 166.598022 478.996002 167.221985 480.675995 168.511963 C 494.453003 179.088013 501.528015 198.286987 503.665009 214.901978 C 497.915985 206.004028 493.84201 195.516968 488.666992 186.187988 C 485.596985 181.228027 482.395996 175.945984 478.552002 171.55603 C 479.731995 184.924011 482.362 196.799988 481.811005 210.437012 C 479.630005 199.875977 472.664001 180.51001 473.821014 170.69397 C 474.016998 169.028015 474.683014 167.708008 475.510986 166.275024 Z"/>
    <path id="path86" fill="#562c3a" stroke="none" d="M 140.412994 444.499023 C 140.309998 446.983032 130.201996 459.224976 128.134995 462.745972 C 124.189003 469.471008 121.714996 476.969971 119.245003 484.325989 C 129.865005 475.127014 139.522003 465.411987 150.753006 456.859009 C 149.313004 459.815002 147.845993 462.52002 145.919006 465.187012 L 145.498001 465.740967 C 141.024994 471.547974 125.042 489.249023 117.625 490.197021 C 116.304001 489.726013 115.919998 489.671997 115.265999 488.322998 C 114.066002 485.846008 115.463997 481.209961 116.175003 478.662964 C 120.028 464.864014 127.57 451.660034 140.412994 444.499023 Z"/>
    <path id="path87" fill="#562c3a" stroke="none" d="M 306.042999 257.202026 C 309.822998 256.838989 313.747009 257.078003 317.510986 257.502014 C 320.377014 257.823975 328.117004 258.35498 329.984985 260.692993 C 328.757996 261.828003 306.938995 262.650024 303.96701 263.072998 C 298.516998 263.848022 292.776001 264.927002 287.69101 267.096008 C 287.516998 267.170044 287.345001 267.247986 287.171997 267.325012 C 293.364014 267.828003 299.496002 268.890015 305.609985 269.955994 C 309.424011 270.760986 314.602997 271.229004 317.833008 273.516968 L 317.81601 274.19104 L 316.713989 274.676025 L 316.865997 274.629028 C 316.622986 274.684998 316.381012 274.75 316.136993 274.799011 C 308.825989 276.275024 288.118988 275.082031 282.014008 270.705994 C 280.651001 269.729004 280.165009 268.75 279.837006 267.098999 C 280.019012 266.129028 280.188995 265.627014 280.829987 264.838989 C 284.722992 260.052002 300.188995 257.833008 306.042999 257.202026 Z"/>
    <path id="path88" fill="#562c3a" stroke="none" d="M 222.813995 337.612 C 223.856003 337.682983 223.386993 337.5 224.212006 338.188965 C 221.787994 342.853027 196.929001 349.244019 187.992004 365.521973 C 195.445999 363.730957 202.694 361.096985 210.026993 358.870972 C 216.134995 357.015991 222.332993 355.547974 228.421005 353.610962 C 226.720993 355.516968 225.119003 357.078979 223.048996 358.604004 C 221.604996 359.52301 220.044998 360.239014 218.496994 360.967041 C 211.199005 364.39801 192.143997 372.594971 184.858994 369.945007 C 184.233002 369.254028 183.889008 369.047974 183.660995 368.110962 C 182.774994 364.464966 185.268005 360 187.251007 357.053955 C 195.061996 345.445007 209.671997 340.178955 222.813995 337.612 Z"/>
    <path id="path89" fill="#562c3a" stroke="none" d="M 146.128006 379.002014 L 146.673996 379.117004 C 146.481003 380.190002 146.029999 380.369995 145.192993 381.054993 C 138.263 386.728027 130.925003 391.394043 124.495003 397.786011 C 119.028 403.221008 115.907997 409.115967 112.714996 416.031006 C 122.539001 410.942993 137.748001 401.071045 147.705002 398.311035 C 148.794998 398.009033 149.005005 397.81604 150.016006 398.406982 C 149.546005 400.06897 148.302994 401.014038 147.095993 402.166016 C 141.473999 406.919006 119.181999 420.890991 111.990997 420.483032 C 110.329002 420.389038 109.522003 419.770996 108.460999 418.56604 C 108.139 417.278992 108.021004 416.337036 108.328003 415.031006 C 110.577003 405.458008 120.600998 391.682983 128.942001 386.69104 C 134.610992 383.299011 139.820007 380.98999 146.128006 379.002014 Z"/>
    <path id="path90" fill="#562c3a" stroke="none" d="M 390.716003 174.052002 C 399.106995 173.656982 407.302002 177.333008 414.408997 181.526978 C 426.005005 188.369995 435.087006 199.299011 438.505005 212.401978 C 429.135986 200.916016 420.424988 191.481018 407.212006 184.374023 C 402.67099 182.283997 398.289001 180.421997 393.343994 179.533997 C 400.769989 189.083008 412.678009 200.299988 417.463989 211.054993 C 410.02301 207.516968 403.605988 200.950012 398.307007 194.781982 C 395.059998 191.002991 387.350006 182.296021 388.283997 177.005005 C 388.529999 175.609985 389.667999 174.846985 390.716003 174.052002 Z"/>
    <path id="path91" fill="#562c3a" stroke="none" d="M 172.664993 308.140015 C 175.397003 307.817993 178.238007 307.946045 180.988998 307.927002 C 176.546005 310.250977 171.658005 311.856995 167.046005 313.848022 C 154.664001 319.19104 145.608002 327.052979 137.490997 337.684998 C 149.494995 333.910034 161.102997 330.312012 173.393005 327.540039 C 176.819 326.765991 180.395004 325.511963 183.912003 325.410034 L 184.220001 325.859985 L 183.274002 326.924988 C 178.622665 329.662984 173.775996 331.995321 168.733994 333.921997 C 162.835999 336.19104 138.376007 344.80896 133.867996 342.820007 C 133.246994 342.062012 132.878006 341.80896 132.688995 340.812988 C 132.001007 337.207031 134.940002 332.830994 137.033005 330.073975 C 145.162994 319.364014 159.237 310.083008 172.664993 308.140015 Z"/>
    <path id="path92" fill="#562c3a" stroke="none" d="M 287.915009 165.606995 L 288.790985 165.557983 C 306.774994 164.627014 326.347992 167.650024 340.175995 180.125 C 331.785004 178.067017 323.584991 175.130005 315.13501 173.313965 C 305.427002 171.228027 295.571991 170.981995 285.688995 170.695984 L 292.855011 174.28302 C 305.230988 180.403015 316.778992 185.992004 327.062012 195.411011 C 319.036987 192.950012 284.830994 179.018982 281.200012 172.46698 C 280.502991 171.208984 280.592987 170.542969 280.891998 169.187012 C 282.554993 166.958984 285.283997 166.083008 287.915009 165.606995 Z"/>
    <path id="path93" fill="#562c3a" stroke="none" d="M 336.347992 216.703003 C 351.835999 216.01001 366.791992 219.495972 379.73999 228.161011 C 362.735992 226.143982 344.436005 219.898987 327.369995 223.990967 C 329.880005 226.27002 332.901001 227.955017 335.763 229.749023 C 339.274994 231.710022 360.101013 241.619019 360.977997 242.890015 C 361.605011 243.796997 361.657013 243.865967 361.401001 244.958984 C 357.351013 246.362 343.243988 240.009033 339.17099 238.073975 C 334.608002 235.906982 321.997009 229.492004 320.904999 224.132996 C 320.664001 222.950012 320.730011 222.030029 321.497986 221.049011 C 324.093994 217.734985 332.424988 217.164978 336.347992 216.703003 Z"/>
    <path id="path94" fill="#562c3a" stroke="none" d="M 219.067001 259.708984 C 224.371002 259.27002 228.682007 259.917969 233.580994 261.894043 C 222.520004 264.528015 210.729996 266.02301 200.061996 269.993042 C 194.214005 272.170044 188.763 275.281006 183.270004 278.217041 C 196.852005 279.172974 211.041 278.849976 224.371994 281.747009 C 225.384003 282.079956 225.720001 281.928955 226.259995 282.895996 C 218.718994 286.911987 191.376007 285.339966 183.212997 283.157959 C 180.968002 282.557983 178.919998 281.916016 177.673996 279.832031 C 177.841003 278.702026 178.136002 278.297974 178.886993 277.394043 C 188.522995 265.791992 204.584 260.919006 219.067001 259.708984 Z"/>
    <path id="path95" fill="#562c3a" stroke="none" d="M 244.815002 201.214966 C 254.541 200.213989 265.985992 201.612 274.47699 206.643005 C 264.652008 205.785034 229.561005 205.463013 222.738007 211.041016 L 222.667007 211.77002 C 227.164993 216.386963 243.645004 218.594971 250.389008 220.091003 C 250.505997 220.117004 250.623001 220.140991 250.738998 220.167969 C 254.835007 221.110962 264.459991 222.562988 266.665985 226.091003 C 266.263 226.401001 266.213013 226.484009 265.653992 226.664978 C 259.27301 228.737 234.679993 223.518982 227.828995 220.702026 C 223.809006 219.049011 218.095001 216.813965 216.322006 212.559998 C 216.292999 211.119995 216.423004 210.436035 217.350006 209.291992 C 222.434998 203.015015 237.442001 201.781982 244.815002 201.214966 Z"/>
</svg>
